<svg width="421" height="178" viewBox="0 0 421 178" fill="none" xmlns="http://www.w3.org/2000/svg">
<path d="M326.408 6.17241C301.028 -2.21742 271.454 8.2346 254.487 28.9045C238.411 6.57069 208.274 -4.60774 181.512 1.8604C154.773 8.32853 133.049 32.045 128.972 59.2768C114.981 55.1756 99.6784 53.8398 85.9223 58.6909C72.1662 63.542 60.3316 75.447 58.4569 89.9066C48.2159 87.7974 37.7172 85.6649 27.3826 87.1179C17.0245 88.5709 6.64299 94.3358 2.54194 103.944C-3.52763 118.216 7.18202 135.465 21.7583 140.784C36.3112 146.104 52.7388 142.12 66.659 135.301C79.4074 151.494 98.8581 162.251 119.363 164.454C139.869 166.657 161.147 160.259 177.036 147.112C193.885 166.024 219.171 177.133 244.504 176.711C269.837 176.289 294.748 164.337 310.941 144.862C328.166 158.291 367.747 174.297 386.237 155.127C394.04 147.042 396.29 134.059 391.65 123.817C402.992 123.911 414.053 116.529 418.295 106.007C422.537 95.4842 419.701 82.5011 411.476 74.6971C394.814 58.9252 377.003 69.799 364.841 83.9539C365.075 52.5975 362.169 17.351 326.408 6.17241Z" fill="white"/>
<path d="M128.995 59.2769C115.004 55.1757 99.7017 53.8399 85.9456 58.691C72.1895 63.5421 60.3551 75.4471 58.4803 89.9067C48.2394 87.7975 37.7407 85.665 27.406 87.118C17.0479 88.571 6.66644 94.3359 2.56539 103.944C-3.50417 118.216 7.20532 135.465 21.7816 140.785C36.3345 146.104 52.7623 142.12 66.6824 135.301C79.4308 151.495 98.8815 162.251 119.387 164.454C139.892 166.657 161.171 160.259 177.059 147.112C193.909 166.024 219.195 177.133 244.528 176.711C269.86 176.289 294.771 164.337 310.965 144.863C328.189 158.291 367.77 174.297 386.26 155.127C394.064 147.042 396.313 134.059 391.673 123.817C403.016 123.911 414.077 116.529 418.318 106.007C422.56 95.4843 419.725 82.5012 411.499 74.6972C394.837 58.9253 377.027 69.7991 364.864 83.954C365.005 59.6517 363.294 33.0294 345.859 17.07C347.429 34.6464 344.312 52.8088 334.727 67.5262C323.619 84.6105 302.973 96.0702 282.796 93.1407C274.805 91.9924 266.884 88.4773 261.869 82.1732C255.261 73.9006 255.589 61.8546 249.027 53.8398C243.778 47.4185 234.755 44.5126 227.748 40.6926C235.716 45.0047 239.184 55.3866 237.052 64.1983C234.919 73.0099 228.123 80.1343 220.179 84.5167C208.415 91.0083 193.628 91.9923 181.324 86.6022C169.021 81.2121 159.601 69.4007 157.632 56.1129C155.476 41.6299 161.967 26.8424 171.951 16.0856C177.833 9.75806 184.816 4.64913 192.245 0.219864C188.66 0.477652 185.074 1.01683 181.559 1.8605C154.797 8.32864 133.073 32.0686 128.995 59.2769Z" fill="#F5FBFF"/>
<path d="M310.988 144.862C328.212 158.291 367.793 174.297 386.283 155.127C394.087 147.042 396.337 134.058 391.697 123.817C403.039 123.911 414.1 116.529 418.342 106.007C422.583 95.4841 419.748 82.501 411.522 74.6971C412.577 82.4307 410.819 89.2973 407.163 96.1873C403.508 103.077 396.571 108.491 388.767 109.006C380.987 109.522 372.832 104.343 371.097 96.7497C368.754 101.226 371.027 106.757 374.027 110.811C377.05 114.865 380.917 118.545 382.276 123.419C384.338 130.778 379.698 138.746 373.183 142.753C366.668 146.761 358.747 147.651 351.108 147.956C336.836 148.518 324.51 149.667 310.988 144.862Z" fill="#DFF2FD"/>
<path d="M244.551 176.711C219.218 177.133 193.933 166.048 177.083 147.112C161.194 160.236 139.916 166.634 119.411 164.455C98.9053 162.252 79.4546 151.518 66.7062 135.301C52.7861 142.097 36.3584 146.081 21.8055 140.785C7.2526 135.465 -3.48047 118.217 2.58909 103.945C3.12809 116.318 15.9469 126.302 27.8986 129.63C39.8268 132.958 52.5751 130.895 64.6205 128.06C62.0427 120.724 61.4333 112.686 62.9332 105.046C72.2367 117.982 83.3681 130.661 98.3897 135.981C107.248 139.121 116.833 139.449 126.253 139.566C137.76 139.707 149.454 139.519 160.468 136.145C171.459 132.77 181.84 125.716 186.738 115.311C179.403 130.895 201.924 151.378 212.54 158.971C223.343 166.704 235.552 172.212 247.738 177.531" fill="#DFF2FD"/>
</svg>
