<svg width="341" height="141" viewBox="0 0 341 141" fill="none" xmlns="http://www.w3.org/2000/svg">
<path d="M279.555 59.023C263.596 25.1825 215.414 11.7073 184.223 32.3771C166.202 8.8013 134.588 -3.54913 105.366 1.55975C76.1426 6.66863 50.5989 29.0491 41.6703 57.3354C25.8988 54.7107 7.90105 62.3975 2.1127 77.3023C-3.67564 92.2071 7.50265 112.08 23.485 111.94C28.7344 111.893 34.0541 109.924 39.116 111.283C43.1936 112.361 46.3807 115.408 49.5678 118.15C89.6409 152.483 158 145.733 190.574 104.229C213.61 124.313 251.832 123.798 274.329 103.105C271.306 105.893 305.778 113.064 309.692 112.455C322.276 110.487 338.095 102.87 340.204 88.856C344.656 59.5385 299.99 45.0322 279.555 59.023Z" fill="white"/>
<path d="M340.25 88.88C338.141 102.894 322.346 110.511 309.739 112.479C305.825 113.089 271.353 105.917 274.376 103.129C251.878 123.822 213.657 124.337 190.62 104.253C158.023 145.757 89.6878 152.507 49.6146 118.174C46.4275 115.432 43.2169 112.385 39.1627 111.307C34.1009 109.948 28.7813 111.917 23.5319 111.964C7.54952 112.104 -3.62876 92.2311 2.15958 77.3263C7.94792 62.4215 25.9456 54.7347 41.7171 57.3594C44.5058 48.5009 48.935 40.2284 54.5827 32.8697C53.0829 49.579 58.4026 66.9209 69.4637 79.5525C75.3458 86.2785 82.7745 91.7389 91.1641 94.7854C103.28 99.1913 116.614 98.4648 129.409 96.8947C137.986 95.8401 146.704 94.3873 154.344 90.333C161.983 86.2787 168.475 79.2012 169.764 70.6473C170.865 63.3824 168.147 56.0706 164.632 49.6259C159.242 39.7597 151.836 30.9948 143.001 24.0345C166.553 28.0185 187.387 45.3839 195.518 67.8349C196.667 70.9987 197.674 74.3969 200.112 76.717C202.127 78.6152 204.892 79.5292 207.564 80.2792C220.711 84.0054 234.443 85.6225 248.106 85.0366C259.588 84.5679 272.36 81.6617 278.477 71.9361C282.531 77.8418 288.436 82.9976 295.514 84.0757C302.614 85.1537 310.723 81.0058 312.223 73.9752C313.418 68.4445 310.324 62.7027 305.942 59.1171C304.372 57.8281 298.677 55.8361 295.49 53.7972C317.027 52.0161 343.695 65.89 340.25 88.88Z" fill="#F5FBFF"/>
<path d="M190.597 104.254C158 145.757 89.6644 152.507 49.5912 118.174C46.4041 115.432 43.1936 112.386 39.1394 111.308C34.0775 109.948 28.7578 111.917 23.5085 111.964C7.52609 112.105 -3.6522 92.2313 2.13614 77.3265C4.59677 87.638 13.9003 96.5434 23.6491 100.715C33.3979 104.886 45.0917 104.183 54.2547 98.8402C57.5121 109.597 66.7219 117.823 77.08 122.205C87.4381 126.588 98.8976 127.595 110.146 127.736C117.95 127.853 125.801 127.548 133.393 125.884C146.446 123.002 158.257 116.112 169.576 108.988C178.81 103.176 188.699 95.981 190.691 85.2711C190.996 90.8955 190.269 98.6057 190.597 104.254Z" fill="#DFF2FD"/>
<path d="M190.597 104.253C213.633 124.337 251.855 123.822 274.352 103.129C271.329 105.917 305.802 113.089 309.715 112.479C322.3 110.511 338.118 102.894 340.227 88.88C343.672 65.8899 317.003 51.9926 295.467 53.7971C306.106 56.4453 317.003 60.4996 322.604 69.8971C328.229 79.2947 327.127 93.1452 318.128 99.4024C312.223 103.527 304.419 103.668 297.295 102.59C288.718 101.301 279.555 97.8086 275.571 90.0984C265.33 101.09 250.379 106.808 235.428 108.355C220.523 109.901 205.338 107.206 190.597 104.253Z" fill="#DFF2FD"/>
</svg>
