<svg width="565" height="713" viewBox="0 0 565 713" fill="none" xmlns="http://www.w3.org/2000/svg">
<path d="M326.369 82.8502C321.77 80.2975 316.997 78.0245 312.066 76.0488C311.262 75.262 310.44 74.4752 309.619 73.7059C293.83 58.9315 273.478 46.1678 251.36 45.9055C240.345 45.7657 229.085 49.1402 220.658 56.1514C219.591 57.0257 218.559 57.9698 217.58 58.9839C214.94 61.7115 212.58 65.4182 213.594 69.0725C214.398 72.0274 217.196 73.9856 219.993 75.262C218 76.0138 216.042 76.8181 214.118 77.6748H214.101C169.446 97.2924 138.253 141.895 138.253 193.789C138.253 234.196 157.154 270.179 186.598 293.381C184.255 297.053 181.702 300.602 178.957 303.994C171.037 313.75 160.546 322.965 147.625 324.661C130.105 326.968 117.307 314.747 105.295 303.19C101.92 299.937 98.6159 296.755 95.2764 293.94C91.3773 290.671 86.9013 288.153 82.1106 286.544C78.7885 285.408 75.3091 284.744 71.7773 284.551C62.9301 284.097 53.9431 286.772 46.757 291.982C45.4107 292.961 44.1343 294.028 42.9454 295.217C41.2144 296.913 39.7107 298.836 38.5917 301.004C34.1507 309.554 38.3294 319.135 42.9628 326.671L43.2776 327.003L43.7846 327.528C49.0824 322.003 55.9713 319.24 63.0875 319.048C68.3503 318.908 73.7355 320.167 78.7011 322.79C80.3097 323.646 81.8483 324.573 83.352 325.587C87.5832 328.42 91.4648 331.812 95.3114 335.239C97.5144 337.197 99.7174 339.155 101.99 341.026C115.244 351.954 130.98 359.857 147.695 363.826C158.413 366.361 168.973 367.183 179.254 366.483C194.291 365.487 208.716 361.256 222.021 354.454C237.18 346.691 250.906 335.623 262.55 322.16C263.022 321.618 263.477 321.076 263.914 320.534C264.281 320.552 264.649 320.552 265.016 320.552C289.616 320.552 312.591 313.54 332.016 301.389C367.912 279.026 391.778 239.196 391.778 193.789C391.778 146.039 365.377 104.461 326.369 82.8502ZM209.8 216.554C205.026 230.734 192.98 239.476 182.926 236.084C172.855 232.692 168.571 218.442 173.362 204.245C173.397 204.14 173.432 204.035 173.484 203.93C178.31 189.943 190.252 181.34 200.236 184.715C200.411 184.767 200.585 184.837 200.743 184.907C200.743 184.907 200.743 184.907 200.76 184.925C210.464 188.614 214.503 202.601 209.8 216.554ZM212.999 146.074C212.667 147.158 211.95 148.085 211.111 148.837C209.048 150.655 206.303 151.494 203.61 151.984C190.707 154.292 179.691 158.226 168.851 165.814C169.725 165.202 170.495 162.632 171.037 161.723C173.047 158.348 175.408 155.149 178.083 152.264C185.776 143.993 198.452 137.437 209.87 141.231C210.866 141.563 211.898 142 212.527 142.839C213.209 143.749 213.314 144.99 212.999 146.074ZM321.7 216.554C316.927 230.734 304.88 239.476 294.827 236.084C284.756 232.692 280.472 218.442 285.263 204.245C285.298 204.14 285.333 204.035 285.385 203.93C290.211 189.943 302.153 181.34 312.136 184.715C312.311 184.767 312.486 184.837 312.643 184.907C312.643 184.907 312.643 184.907 312.661 184.925C322.365 188.614 326.404 202.601 321.7 216.554ZM341.79 172.423C341.353 172.021 340.898 171.636 340.444 171.269C330.058 163.104 311.192 163.873 306.961 148.977C306.786 148.365 306.646 147.7 306.856 147.106C307.118 146.354 307.87 145.882 308.587 145.532C323.519 138.398 337.017 155.743 342.717 167.248C344.902 171.636 346.144 176.392 347.105 181.183C346.388 177.669 344.378 174.836 341.79 172.423Z" fill="#CBC0D3" stroke="black" stroke-width="0.5" stroke-miterlimit="10"/>
<path d="M221.304 614.291L219.573 615.165C208.558 619.606 152.083 642.948 142.624 657.128C132.134 672.864 116.398 678.109 116.398 678.109C106.799 678.983 97.7416 675.504 90.5555 669.209C84.8381 664.191 80.0124 657.844 76.1308 650.851C81.3412 651.567 98.9131 639.643 90.1708 632.649C81.4286 625.655 70.8505 639.626 70.8505 639.626C69.1195 635.254 67.7208 630.761 66.6367 626.337C72.8262 626.984 84.9255 618.662 79.6802 611.668C75.1167 605.566 66.5493 611.423 64.4337 613.032C64.2414 609.342 64.5736 605.671 65.7625 602.191C66.0248 601.44 66.3045 600.723 66.6193 600.023C95.5386 600.618 83.0022 584.445 83.0022 584.445C92.3914 580.406 103.669 580.108 112.901 583.693C141.365 594.76 172.068 566.436 177.663 560.963L178.747 560.421C180.845 565.491 183.311 570.405 186.091 575.143C191.651 584.567 198.487 593.222 206.18 601.002C210.919 605.758 215.972 610.199 221.304 614.291Z" fill="#CBC0D3" stroke="black" stroke-width="0.5" stroke-miterlimit="10"/>
<path d="M326.194 690.017C326.106 690.279 325.984 690.559 325.879 690.838" stroke="black" stroke-width="0.5" stroke-miterlimit="10"/>
<path d="M390.414 570.632C388.194 575.265 385.414 579.619 382.109 583.553C381.043 584.829 379.889 586.053 378.665 587.19C355.935 608.171 315.721 590.687 285.997 594.184C280.035 594.883 274.3 597.541 269.177 601.719C260.784 608.521 254.053 619.361 250.766 632.195C248.458 631.216 246.202 630.079 243.999 628.925C238.212 625.883 232.652 622.456 227.302 618.714C225.308 617.333 223.35 615.899 221.444 614.413C221.392 614.378 221.339 614.343 221.304 614.291C215.972 610.199 210.919 605.758 206.18 601.003C198.487 593.222 191.651 584.567 186.091 575.143C183.311 570.405 180.845 565.492 178.747 560.421V560.404C176.072 553.987 173.974 547.36 172.488 540.559C169.358 526.169 169.008 511.272 170.844 496.673C171.386 492.476 172.086 488.298 172.96 484.154C189.325 494.679 208.995 498.369 224.801 491.025C225.938 490.501 227.074 489.941 228.193 489.364C234.19 486.287 239.873 482.58 244.873 478.034C245.258 477.719 245.643 477.37 246.027 477.003C248.318 474.835 250.451 472.492 252.357 469.991C255.889 465.41 258.739 460.34 260.697 454.867C260.889 454.308 261.082 453.748 261.256 453.189C261.921 451.108 262.463 448.975 262.883 446.824C263.722 442.541 264.054 438.152 263.897 433.781C263.879 433.344 263.862 432.889 263.844 432.452C263.512 426.105 262.393 419.811 258.896 414.356C257.864 412.747 256.571 411.174 254.77 410.544C252.742 409.81 250.521 410.422 248.423 410.981C241.132 412.887 233.631 413.954 226.113 414.443C219.101 414.915 211.775 415.108 205.131 412.432C204.432 412.153 203.75 411.838 203.103 411.453C204.467 409.163 205.866 406.907 207.282 404.652C212.859 395.84 218.612 387.15 224.784 378.74C230.344 371.169 236.708 363.878 245.031 359.28C252.672 355.066 261.641 353.387 270.331 354.279C280.017 355.276 289.581 359.367 296.82 365.906C295.036 368.791 293.55 371.851 292.431 375.033C291.295 378.268 290.56 381.607 290.298 385.034C290.228 385.978 290.193 386.923 290.211 387.867C290.281 394.738 292.309 401.575 296.086 407.327C299.617 412.695 304.705 416.856 310.44 420.178C316.525 432.802 326.089 444.167 338.87 449.814C360.131 459.203 378.123 474.31 388.089 495.536C399.034 518.826 401.762 546.923 390.414 570.632Z" fill="#FEEAFA" stroke="black" stroke-width="0.5" stroke-miterlimit="10"/>
<path d="M221.444 614.413C221.444 614.413 220.78 614.675 219.573 615.164" stroke="black" stroke-width="0.5" stroke-miterlimit="10"/>
<path d="M76.1307 650.851C74.1374 647.249 72.3715 643.472 70.8503 639.626C70.8503 639.626 81.4284 625.656 90.1707 632.65C98.9129 639.643 81.341 651.568 76.1307 650.851Z" fill="#8E9AAF" stroke="black" stroke-width="0.5" stroke-miterlimit="10"/>
<path d="M66.6368 626.338C66.0423 623.96 65.5527 621.582 65.1506 619.256C64.8009 617.211 64.5386 615.113 64.4337 613.032C66.5493 611.423 75.1167 605.566 79.6802 611.668C84.9255 618.662 72.8263 626.985 66.6368 626.338Z" fill="#8E9AAF" stroke="black" stroke-width="0.5" stroke-miterlimit="10"/>
<path d="M66.6193 600.023C69.8539 592.715 75.886 587.504 83.0022 584.444C83.0022 584.444 95.5386 600.617 66.6193 600.023Z" fill="#8E9AAF" stroke="black" stroke-width="0.5" stroke-miterlimit="10"/>
<path d="M178.572 560.036C178.572 560.036 178.258 560.368 177.663 560.963" stroke="black" stroke-width="0.5" stroke-miterlimit="10"/>
<path d="M282.5 261.979C282.5 261.979 283.776 270.913 292.903 274.13C298.865 276.228 308.202 275.879 322.714 268.972" stroke="black" stroke-width="0.5" stroke-miterlimit="10"/>
<path d="M263.914 320.534C271.502 311.6 278.199 301.931 284.056 291.79C287.238 286.282 290.246 280.617 292.763 274.777C292.833 274.585 292.921 274.41 292.991 274.218" stroke="black" stroke-width="0.5" stroke-miterlimit="10"/>
<path d="M43.7845 327.527C43.5048 327.807 43.225 328.122 42.9628 328.419" stroke="black" stroke-width="0.5" stroke-miterlimit="10"/>
<path d="M212.562 239.249C212.562 239.249 247.531 220.016 270.261 240.998" stroke="black" stroke-width="0.5" stroke-miterlimit="10"/>
<path d="M186.598 293.381C191.249 286.16 195.218 278.484 198.697 270.668C201.267 264.986 203.645 259.181 205.568 253.236" stroke="black" stroke-width="0.5" stroke-miterlimit="10"/>
<path d="M83.3519 325.587L76.7428 332.318L64.5561 344.767L39.9555 369.875L34.2206 368.634L35.969 361.64L28.9752 365.137L30.7237 356.394L23.7299 359.891L25.4783 352.898L16.7361 354.646L43.2775 327.003L43.7846 327.528C49.0824 322.002 55.9712 319.24 63.0874 319.048C68.3503 318.908 73.7355 320.167 78.7011 322.789C80.3096 323.646 81.8483 324.573 83.3519 325.587Z" fill="#FF931E" stroke="black" stroke-width="0.5" stroke-miterlimit="10"/>
<path d="M39.9554 369.875L39.4659 370.382L20.1106 379.177C19.9882 370.487 10.0745 368.704 10.0745 368.704L16.736 354.646L25.4783 352.898L23.7298 359.892L30.7236 356.395L28.9752 365.137L35.969 361.64L34.2205 368.634L39.9554 369.875Z" fill="#E9C39A" stroke="black" stroke-width="0.5" stroke-miterlimit="10"/>
<path d="M20.1105 379.177L1 387.867L10.0744 368.704C10.0744 368.704 19.9881 370.488 20.1105 379.177Z" fill="#101010" stroke="black" stroke-width="0.5" stroke-miterlimit="10"/>
<path d="M123.391 284.708L105.295 303.189C101.921 299.937 98.6159 296.755 95.2764 293.94C91.3774 290.67 86.9013 288.153 82.1106 286.544L100.662 267.224C119.895 265.475 123.391 284.708 123.391 284.708Z" fill="#FF931E" stroke="black" stroke-width="0.5" stroke-miterlimit="10"/>
<path d="M95.3112 335.238C95.3112 335.238 92.5487 338.858 88.0727 342.127C82.3203 346.358 73.7529 350.03 64.556 344.767L76.7427 332.318L83.3518 325.587C87.5831 328.419 91.4646 331.811 95.3112 335.238Z" fill="#CBC0D3" stroke="black" stroke-width="0.5" stroke-miterlimit="10"/>
<path d="M262.882 446.824C262.463 448.974 261.921 451.107 261.256 453.188C261.256 453.188 242.286 443.816 237.04 456.055C231.795 468.277 246.692 471.669 252.357 469.991C250.451 472.491 248.318 474.834 246.027 477.002C245.643 477.369 245.258 477.719 244.873 478.033C244.366 477.369 233.299 463.294 223.053 473.54C212.562 484.031 228.193 489.363 228.193 489.363C227.074 489.94 225.938 490.5 224.801 491.024C208.995 498.368 189.325 494.679 172.96 484.153C143.901 465.462 125.227 425.213 156.979 386.887C162.679 379.98 170.022 373.127 179.254 366.482C194.291 365.486 208.715 361.255 222.021 354.453C220.937 355.607 219.906 356.796 218.874 357.985C216.339 360.922 213.908 363.947 211.583 367.042C208.611 370.993 205.813 375.067 203.348 379.334C200.917 383.495 198.732 387.883 197.386 392.517C196.284 396.293 195.672 400.507 196.913 404.319C197.945 407.536 200.27 409.896 203.103 411.453C203.75 411.837 204.432 412.152 205.131 412.432C211.775 415.107 219.101 414.914 226.113 414.442C233.631 413.953 241.132 412.886 248.423 410.98C250.521 410.421 252.741 409.809 254.77 410.543C256.57 411.173 257.864 412.746 258.896 414.355C262.393 419.81 263.512 426.105 263.844 432.451C263.844 432.451 249.279 421.086 245.783 435.074C242.286 449.062 262.882 446.824 262.882 446.824Z" fill="#CBC0D3" stroke="black" stroke-width="0.5" stroke-miterlimit="10"/>
<path d="M244.874 478.034C239.873 482.58 234.191 486.287 228.193 489.364C228.193 489.364 212.562 484.031 223.053 473.541C233.299 463.295 244.367 477.37 244.874 478.034Z" fill="#8E9AAF" stroke="black" stroke-width="0.5" stroke-miterlimit="10"/>
<path d="M261.256 453.189C261.082 453.748 260.889 454.308 260.697 454.867C258.739 460.34 255.889 465.41 252.357 469.991C246.692 471.67 231.795 468.278 237.04 456.056C242.286 443.817 261.256 453.189 261.256 453.189Z" fill="#8E9AAF" stroke="black" stroke-width="0.5" stroke-miterlimit="10"/>
<path d="M262.882 446.824C262.882 446.824 242.286 449.062 245.783 435.075C249.279 421.087 263.844 432.452 263.844 432.452C263.861 432.889 263.879 433.344 263.896 433.781C264.054 438.152 263.722 442.54 262.882 446.824Z" fill="#8E9AAF" stroke="black" stroke-width="0.5" stroke-miterlimit="10"/>
<path d="M219.993 75.2617C230.833 80.1574 243.16 78.2166 254.525 76.643C234.977 79.3356 216.968 93.7253 214.083 113.92C213.314 119.323 214.066 125.687 218.577 128.799C222.703 131.632 228.368 130.583 232.914 128.467C245.52 122.61 253.878 110.475 261.501 99.3728" stroke="black" stroke-width="0.5" stroke-miterlimit="10"/>
<path d="M530.902 238.164C514.484 293.695 469.182 337.651 419.91 368.686C410.906 374.368 401.762 379.613 392.652 384.404L392.635 384.422C390.554 385.523 388.456 386.607 386.375 387.656H386.358L385.868 387.691C360.691 340.396 334.971 305.462 332.226 301.773L332.156 301.668L332.016 301.388C367.912 279.025 391.778 239.196 391.778 193.788C391.778 146.038 365.376 104.46 326.369 82.8494C326.369 82.8494 406.64 -19.5222 460.842 57.4095C515.044 134.341 513.54 163.523 535.273 157.683C539.347 184.574 538.578 212.165 530.902 238.164Z" fill="#EFD3D7" stroke="black" stroke-width="0.5" stroke-miterlimit="10"/>
<path d="M535.273 157.683C513.54 163.523 515.044 134.342 460.842 57.41C406.64 -19.5217 326.369 82.8499 326.369 82.8499C321.77 80.2972 316.997 78.0242 312.066 76.0485C311.262 75.2617 310.44 74.4749 309.619 73.7055C327.173 50.5736 349.221 29.1551 374.276 14.3807C406.535 -4.6424 443.952 -4.48504 472.661 20.8674C502.07 46.8144 519.362 93.3056 529.503 130.478C531.934 139.395 533.892 148.504 535.273 157.683Z" fill="#CBC0D3" stroke="black" stroke-width="0.5" stroke-miterlimit="10"/>
<path d="M309.619 73.7222V73.7056" stroke="black" stroke-width="0.5" stroke-miterlimit="10"/>
<path d="M186.598 293.38C184.255 297.052 181.702 300.601 178.957 303.993C171.037 313.75 160.546 322.964 147.625 324.66C130.105 326.968 117.307 314.746 105.295 303.189L123.391 284.708C123.391 284.708 119.894 265.475 100.662 267.224L82.1105 286.544C78.7884 285.407 75.309 284.743 71.7771 284.551C62.93 284.096 53.943 286.771 46.7569 291.982C45.4106 292.961 44.1342 294.027 42.9452 295.216C30.1466 277.837 20.0581 258.796 13.956 238.164C6.26281 212.165 5.51098 184.574 9.58487 157.683C31.3181 163.523 29.7969 134.342 83.9988 57.4099C130.665 -8.82132 196.651 57.847 214.101 77.6744C169.445 97.292 138.253 141.895 138.253 193.789C138.253 234.195 157.154 270.178 186.598 293.38Z" fill="#EFD3D7" stroke="black" stroke-width="0.5" stroke-miterlimit="10"/>
<path d="M179.254 366.483C170.022 373.127 162.679 379.981 156.979 386.887C133.445 374.876 109.596 359.909 88.0728 342.127C92.5488 338.858 95.3113 335.238 95.3113 335.238C97.5144 337.197 99.7174 339.155 101.99 341.026C115.244 351.953 130.98 359.856 147.695 363.825C158.413 366.361 168.973 367.182 179.254 366.483Z" fill="#EFD3D7" stroke="black" stroke-width="0.5" stroke-miterlimit="10"/>
<path d="M219.993 75.2617C218 76.0135 216.042 76.8178 214.118 77.6745H214.101C196.651 57.8471 130.665 -8.82119 83.9989 57.41C29.797 134.342 31.3182 163.523 9.58496 157.683C10.9662 148.504 12.9245 139.412 15.3548 130.478C25.4784 93.3056 42.7705 46.8144 72.1794 20.8674C100.906 -4.48504 138.306 -4.6424 170.565 14.3807C189.116 25.326 206.041 39.9255 220.658 56.1511C219.591 57.0253 218.559 57.9695 217.58 58.9836C214.94 61.7112 212.58 65.4179 213.594 69.0721C214.398 72.027 217.196 73.9853 219.993 75.2617Z" fill="#CBC0D3" stroke="black" stroke-width="0.5" stroke-miterlimit="10"/>
<path d="M392.652 384.404V384.37" stroke="black" stroke-width="0.5" stroke-miterlimit="10"/>
<path d="M332.156 301.668C332.034 301.511 331.981 301.441 331.981 301.441" stroke="black" stroke-width="0.5" stroke-miterlimit="10"/>
<path d="M419.911 368.686V368.704C419.718 376.677 418.897 384.685 417.008 392.465C414.351 403.323 409.298 412.904 401.989 420.126C395.38 426.647 386.935 431.263 376.759 433.151C361.74 435.949 345.986 433.746 331.562 429.095C324.69 426.875 317.137 424.095 310.44 420.178C304.705 416.856 299.617 412.695 296.086 407.327C292.309 401.575 290.281 394.738 290.211 387.867C290.211 387.867 296.89 390.909 300.072 387.727C300.072 387.727 300.072 387.727 300.072 387.709C301.086 386.713 301.733 385.122 301.733 382.621C301.733 378.058 299.967 376.03 297.974 375.19C295.386 374.106 292.431 375.033 292.431 375.033C293.55 371.851 295.037 368.791 296.82 365.906C297.747 364.403 298.761 362.934 299.827 361.518C299.95 362.095 301.978 371.973 310.475 366.885C318.99 361.78 311.385 351.044 310.982 350.485C312.836 349.104 314.777 347.88 316.787 346.813C316.962 347.443 321.193 361.483 331.457 354.646C341.947 347.652 336.055 341.83 336.055 341.83C338.398 341.9 340.741 342.25 342.944 343.019C346.965 344.4 350.602 347.18 352.456 351.009C354.134 354.489 354.256 358.493 354.641 362.339C355.236 368.302 356.582 374.246 359.362 379.544C363.278 386.992 370.237 392.815 378.787 393.741C382.232 394.126 385.554 393.549 388.089 391.906C390.484 390.384 392.198 387.919 392.635 384.422L392.652 384.405C401.762 379.614 410.906 374.369 419.911 368.686Z" fill="#CBC0D3" stroke="black" stroke-width="0.5" stroke-miterlimit="10"/>
<path d="M427.254 599.883C424.404 606.877 420.82 613.573 416.431 619.903C416.204 620.235 415.977 620.55 415.767 620.882C410.032 628.942 402.968 636.408 394.401 643.139C387.145 647.528 379.924 651.987 372.72 656.463C364.625 661.481 356.687 666.744 348.574 671.762C341.563 676.08 334.324 680.416 328.834 686.676C327.89 687.725 327.016 688.844 326.211 689.998C333.52 671.569 335.408 656.568 333.957 644.381C333.362 639.223 332.156 634.59 330.53 630.393C328.344 624.833 325.407 620.095 322.067 616.056C317.941 611.038 313.203 607.104 308.534 604.027C305.195 601.824 301.89 600.075 298.9 598.711C291.557 595.319 285.997 594.183 285.997 594.183C315.721 590.686 355.935 608.171 378.665 587.189C379.889 586.053 381.043 584.829 382.109 583.552C385.414 579.618 388.194 575.265 390.414 570.631C401.762 546.922 399.034 518.825 388.089 495.536C378.123 474.309 360.131 459.203 338.87 449.814C326.089 444.166 316.525 432.801 310.44 420.177C317.137 424.094 324.69 426.874 331.561 429.095C345.986 433.745 361.74 435.948 376.759 433.151C386.935 431.263 395.38 426.647 401.989 420.125C428.88 478.576 448.568 547.534 427.254 599.883Z" fill="#CBC0D3" stroke="black" stroke-width="0.5" stroke-miterlimit="10"/>
<path d="M333.957 644.382C333.31 644.854 319.183 655.03 317.469 639.643C315.721 623.907 330.53 630.394 330.53 630.394C332.156 634.59 333.362 639.224 333.957 644.382Z" fill="#8E9AAF" stroke="black" stroke-width="0.5" stroke-miterlimit="10"/>
<path d="M322.067 616.057C321.63 616.564 312.066 627.194 305.23 618.662C298.236 609.92 308.534 604.027 308.534 604.027C313.203 607.105 317.941 611.039 322.067 616.057Z" fill="#8E9AAF" stroke="black" stroke-width="0.5" stroke-miterlimit="10"/>
<path d="M326.211 689.998C326.194 689.998 326.194 690.016 326.194 690.016C326.106 690.138 326.019 690.278 325.931 690.4C323.903 693.39 321.753 696.328 319.217 698.915C315.633 702.535 311.612 705.787 307.118 708.217C296.173 714.144 284.109 713.27 274.23 705.594C269.981 702.29 266.397 698.199 263.267 693.845C248.423 673.213 246.027 650.658 250.766 632.195C254.053 619.361 260.784 608.521 269.177 601.719C269.177 601.719 287.308 615.462 298.9 598.712C301.89 600.076 305.195 601.824 308.534 604.027C308.534 604.027 298.236 609.919 305.23 618.662C312.066 627.194 321.63 616.564 322.067 616.056C325.407 620.095 328.344 624.834 330.53 630.394C330.53 630.394 315.721 623.907 317.469 639.643C319.182 655.029 333.31 644.853 333.957 644.381C335.408 656.568 333.52 671.57 326.211 689.998Z" fill="#FEEAFA" stroke="black" stroke-width="0.5" stroke-miterlimit="10"/>
<path d="M298.901 598.712C287.308 615.462 269.177 601.719 269.177 601.719C274.3 597.541 280.035 594.883 285.997 594.184C285.997 594.184 291.557 595.32 298.901 598.712Z" fill="#8E9AAF" stroke="black" stroke-width="0.5" stroke-miterlimit="10"/>
<path d="M501.021 567.712C501.021 567.729 501.021 567.729 501.021 567.747C500.094 573.394 499.308 578.202 495.374 582.783C485.163 594.743 467.573 595.162 453.306 598.712C445.071 600.757 436.836 603.537 429.737 608.293C424.911 611.51 419.858 615.13 416.431 619.903C420.82 613.574 424.404 606.877 427.254 599.883C438.619 589.025 452.799 592.103 466.909 589.305C480.477 586.612 492.069 577.643 500.916 567.03C500.951 567.327 500.986 567.554 501.021 567.712Z" fill="#CBC0D3" stroke="black" stroke-width="0.5" stroke-miterlimit="10"/>
<path d="M500.916 567.029C500.916 567.013 500.916 567.013 500.916 567.013" stroke="black" stroke-width="0.5" stroke-miterlimit="10"/>
<path d="M564 512.007C564 512.007 537.773 576.699 501.056 567.957C501.056 567.957 501.038 567.887 501.021 567.747C501.021 567.73 501.021 567.73 501.021 567.712C501.073 567.38 501.126 567.065 501.178 566.733C501.091 566.838 501.021 566.908 500.916 567.013C500.147 560.421 498.468 521.606 564 512.007Z" fill="#8E9AAF" stroke="black" stroke-width="0.5" stroke-miterlimit="10"/>
<path d="M500.916 567.029C500.916 567.013 500.916 567.013 500.916 567.013" stroke="black" stroke-width="0.5" stroke-miterlimit="10"/>
<path d="M347.193 422.836C347.193 422.836 341.947 414.094 354.187 403.603" stroke="black" stroke-width="0.5" stroke-miterlimit="10"/>
<path d="M368.174 407.1C368.174 407.1 375.168 422.836 361.18 429.83" stroke="black" stroke-width="0.5" stroke-miterlimit="10"/>
<path d="M359.432 408.848C359.432 408.848 355.935 419.339 357.683 424.584" stroke="black" stroke-width="0.5" stroke-miterlimit="10"/>
<path d="M388.089 391.906C385.554 393.549 382.232 394.126 378.787 393.742C370.237 392.815 363.278 386.993 359.362 379.544C356.582 374.247 355.236 368.302 354.641 362.34C354.256 358.493 354.134 354.489 352.456 351.01C350.602 347.181 346.965 344.4 342.944 343.019C340.741 342.25 338.398 341.9 336.055 341.83C334.149 341.778 332.226 341.918 330.338 342.197C325.564 342.914 321.018 344.523 316.787 346.813C314.776 347.88 312.836 349.104 310.982 350.485C307.083 353.335 303.569 356.78 300.562 360.574C300.317 360.888 300.072 361.186 299.827 361.5C299.827 361.5 299.827 361.5 299.827 361.518C298.761 362.934 297.747 364.403 296.82 365.906C289.581 359.367 280.017 355.276 270.331 354.279C261.641 353.388 252.672 355.066 245.031 359.28C236.708 363.878 230.344 371.169 224.784 378.74C218.612 387.15 212.859 395.84 207.282 404.652C205.866 406.907 204.467 409.163 203.103 411.453C200.271 409.897 197.945 407.537 196.914 404.32C195.672 400.508 196.284 396.294 197.386 392.518C198.732 387.884 200.918 383.496 203.348 379.334C205.813 375.068 208.611 370.994 211.583 367.043C213.909 363.948 216.339 360.923 218.874 357.986C219.906 356.797 220.937 355.608 222.021 354.454C237.18 346.691 250.906 335.623 262.55 322.16C263.022 321.618 263.477 321.076 263.914 320.534C264.281 320.552 264.648 320.552 265.016 320.552C289.616 320.552 312.591 313.54 332.016 301.389L332.156 301.668L332.226 301.773C334.971 305.463 360.691 340.397 385.868 387.692C385.886 387.745 385.921 387.797 385.956 387.867C386.673 389.196 387.372 390.542 388.089 391.906Z" fill="#CBC0D3" stroke="black" stroke-width="0.5" stroke-miterlimit="10"/>
<path d="M310.981 350.484C310.965 350.467 310.965 350.467 310.965 350.467" stroke="black" stroke-width="0.5" stroke-miterlimit="10"/>
<path d="M331.457 354.646C321.193 361.482 316.962 347.442 316.787 346.813C321.018 344.522 325.564 342.914 330.338 342.197C332.226 341.917 334.149 341.777 336.055 341.83C336.055 341.83 341.947 347.652 331.457 354.646Z" fill="#8E9AAF" stroke="black" stroke-width="0.5" stroke-miterlimit="10"/>
<path d="M316.787 346.813C316.77 346.796 316.77 346.796 316.787 346.813" stroke="black" stroke-width="0.5" stroke-miterlimit="10"/>
<path d="M301.733 382.621C301.733 385.121 301.086 386.712 300.072 387.709C300.072 387.726 300.072 387.726 300.072 387.726C296.89 390.908 290.211 387.866 290.211 387.866C290.193 386.922 290.228 385.978 290.298 385.034C290.56 381.607 291.295 378.267 292.431 375.032C292.431 375.032 295.386 374.106 297.974 375.19C299.967 376.029 301.733 378.057 301.733 382.621Z" fill="#8E9AAF" stroke="black" stroke-width="0.5" stroke-miterlimit="10"/>
<path d="M158.36 435.075C158.36 435.075 160.109 415.842 175.845 410.597" stroke="black" stroke-width="0.5" stroke-miterlimit="10"/>
<path d="M177.593 421.087C177.593 421.087 172.348 431.578 167.103 433.327" stroke="black" stroke-width="0.5" stroke-miterlimit="10"/>
<path d="M170.599 443.817C170.599 443.817 186.336 435.075 186.336 421.087" stroke="black" stroke-width="0.5" stroke-miterlimit="10"/>
<path d="M172.348 583.693C172.348 583.693 189.832 594.184 184.587 613.417" stroke="black" stroke-width="0.5" stroke-miterlimit="10"/>
<path d="M161.857 595.932C161.857 595.932 170.599 599.429 172.348 609.92" stroke="black" stroke-width="0.5" stroke-miterlimit="10"/>
<path d="M153.115 594.184C153.115 594.184 149.618 611.668 165.354 615.165" stroke="black" stroke-width="0.5" stroke-miterlimit="10"/>
<path d="M355.935 608.171C355.935 608.171 357.683 623.907 362.929 625.655" stroke="black" stroke-width="0.5" stroke-miterlimit="10"/>
<path d="M357.683 604.675C357.683 604.675 369.922 618.662 368.174 627.405" stroke="black" stroke-width="0.5" stroke-miterlimit="10"/>
<path d="M366.426 604.675C366.426 604.675 371.671 609.92 371.671 616.914" stroke="black" stroke-width="0.5" stroke-miterlimit="10"/>
<path d="M252.373 469.991H252.357" stroke="black" stroke-width="0.5" stroke-miterlimit="10"/>
<path d="M244.89 478.051C244.89 478.051 244.89 478.051 244.874 478.034" stroke="black" stroke-width="0.5" stroke-miterlimit="10"/>
<path d="M66.6359 626.337H66.6193" stroke="black" stroke-width="0.5" stroke-miterlimit="10"/>
<path d="M64.4337 613.032C64.1189 613.277 63.9441 613.416 63.9441 613.416" stroke="black" stroke-width="0.5" stroke-miterlimit="10"/>
<path d="M322.084 616.04C322.084 616.04 322.084 616.04 322.068 616.056" stroke="black" stroke-width="0.5" stroke-miterlimit="10"/>
<path d="M347.105 181.182C346.388 177.668 344.377 174.835 341.79 172.423C341.353 172.02 340.898 171.636 340.444 171.269C330.058 163.103 311.192 163.873 306.961 148.976C306.786 148.364 306.646 147.699 306.856 147.105C307.118 146.353 307.87 145.881 308.587 145.531C323.519 138.398 337.017 155.742 342.716 167.247C344.902 171.636 346.143 176.392 347.105 181.182Z" fill="#8E9AAF" stroke="black" stroke-width="0.5" stroke-miterlimit="10"/>
<path d="M212.999 146.073C212.667 147.157 211.95 148.084 211.111 148.836C209.048 150.654 206.303 151.493 203.61 151.983C190.707 154.291 179.691 158.225 168.851 165.813C169.725 165.201 170.494 162.631 171.037 161.722C173.047 158.347 175.408 155.148 178.083 152.263C185.776 143.993 198.452 137.436 209.87 141.23C210.866 141.562 211.898 141.999 212.527 142.839C213.209 143.748 213.314 144.989 212.999 146.073Z" fill="#8E9AAF" stroke="black" stroke-width="0.5" stroke-miterlimit="10"/>
<path d="M321.7 216.554C316.927 230.734 304.88 239.476 294.827 236.084C284.756 232.692 280.472 218.442 285.263 204.245C285.298 204.14 285.333 204.035 285.385 203.93C283.637 213.949 286.871 222.936 293.585 225.191C301.436 227.849 311.07 220.295 315.091 208.354C318.238 199.034 317.049 189.802 312.661 184.924C322.365 188.614 326.404 202.601 321.7 216.554Z" fill="white" stroke="black" stroke-width="0.5" stroke-miterlimit="10"/>
<path d="M312.661 184.924C312.643 184.906 312.643 184.906 312.643 184.906C312.486 184.837 312.311 184.767 312.136 184.714C302.153 181.34 290.211 189.942 285.385 203.93C283.637 213.948 286.871 222.935 293.585 225.191C301.436 227.848 311.07 220.295 315.091 208.353C318.238 199.034 317.049 189.802 312.661 184.924ZM306.331 199.488C303.796 205.241 299.792 209.018 297.362 207.951C294.949 206.884 295.036 201.377 297.572 195.624C300.107 189.89 304.111 186.095 306.541 187.162C308.954 188.229 308.867 193.754 306.331 199.488Z" fill="black" stroke="black" stroke-width="0.5" stroke-miterlimit="10"/>
<path d="M209.8 216.554C205.026 230.734 192.98 239.476 182.926 236.084C172.855 232.692 168.571 218.442 173.362 204.245C173.397 204.14 173.432 204.035 173.484 203.93C171.736 213.949 174.971 222.936 181.685 225.191C189.535 227.849 199.169 220.295 203.19 208.354C206.338 199.034 205.149 189.802 200.76 184.924C210.464 188.614 214.503 202.601 209.8 216.554Z" fill="white" stroke="black" stroke-width="0.5" stroke-miterlimit="10"/>
<path d="M200.76 184.924C200.743 184.906 200.743 184.906 200.743 184.906C200.585 184.837 200.41 184.767 200.236 184.714C190.252 181.34 178.31 189.942 173.484 203.93C171.736 213.948 174.971 222.935 181.685 225.191C189.535 227.848 199.169 220.295 203.19 208.353C206.338 199.034 205.149 189.802 200.76 184.924ZM192.682 199.488C190.147 205.241 186.143 209.018 183.713 207.951C181.3 206.884 181.387 201.377 183.923 195.624C186.458 189.89 190.462 186.095 192.892 187.162C195.305 188.229 195.218 193.754 192.682 199.488Z" fill="black" stroke="black" stroke-width="0.5" stroke-miterlimit="10"/>
<path d="M306.331 199.489C303.796 205.241 299.792 209.018 297.362 207.951C294.949 206.884 295.036 201.377 297.572 195.624C300.107 189.89 304.111 186.095 306.541 187.162C308.954 188.229 308.867 193.754 306.331 199.489Z" fill="white" stroke="black" stroke-width="0.5" stroke-miterlimit="10"/>
<path d="M192.682 199.489C190.147 205.241 186.143 209.018 183.713 207.951C181.3 206.884 181.387 201.377 183.923 195.624C186.458 189.89 190.462 186.095 192.892 187.162C195.305 188.229 195.218 193.754 192.682 199.489Z" fill="white" stroke="black" stroke-width="0.5" stroke-miterlimit="10"/>
<path d="M332.016 301.388L331.457 300.444" stroke="black" stroke-width="0.5" stroke-miterlimit="10"/>
<path d="M310.633 367.707C302.135 372.795 300.107 362.916 299.984 362.339C299.984 362.321 299.984 362.321 299.984 362.321C300.229 362.007 300.474 361.709 300.719 361.395C303.726 357.601 307.241 354.156 311.14 351.306C311.542 351.866 319.147 362.601 310.633 367.707Z" fill="#8E9AAF" stroke="black" stroke-width="0.5" stroke-miterlimit="10"/>
</svg>
