<svg width="261" height="366" viewBox="0 0 261 366" fill="none" xmlns="http://www.w3.org/2000/svg">
<path opacity="0.18" d="M241.19 335.479C241.19 351.921 197.837 365.231 144.351 365.231C90.8652 365.231 47.5127 351.921 47.5127 335.479C47.5127 319.06 90.8652 305.728 144.351 305.728C197.837 305.728 241.19 319.06 241.19 335.479Z" fill="#720303"/>
<path d="M129.789 326.195C136.276 325.726 143.457 325.479 151.04 325.569C158.646 325.658 165.827 326.039 172.291 326.643L201.842 326.956L201.752 335.345C201.708 340.445 178.913 344.36 150.861 344.046C122.81 343.733 100.104 339.371 100.149 334.248L100.238 325.86L129.789 326.195Z" fill="#AABABC"/>
<path d="M201.842 326.979C201.797 332.079 179.002 335.994 150.951 335.68C122.899 335.367 100.194 331.005 100.239 325.883C100.283 320.782 123.078 316.867 151.13 317.181C179.181 317.471 201.887 321.856 201.842 326.979Z" fill="#CAD7D8"/>
<path d="M139.028 293.872L164.596 294.14L164.283 324.294C164.261 325.614 158.534 326.621 151.465 326.554C144.396 326.487 138.692 325.346 138.714 324.026L139.028 293.872Z" fill="#AABABC"/>
<path d="M164.596 294.14C164.574 295.46 158.847 296.467 151.778 296.377C144.709 296.31 139.005 295.192 139.028 293.872C139.05 292.552 144.777 291.523 151.823 291.59C158.892 291.657 164.596 292.82 164.596 294.14Z" fill="#CAD7D8"/>
<path d="M173.879 280.159L123.637 3.33296C123.234 1.11835 121.132 -0.335695 118.917 0.0669609C80.8884 6.97921 47.8035 28.2752 25.7917 60.0626C3.77988 91.85 -4.5416 130.304 2.37065 168.332C9.2829 206.361 30.5789 239.446 62.3663 261.457C82.4991 275.394 105.294 283.85 128.961 286.422C142.674 287.898 156.677 287.429 170.636 284.901C172.806 284.476 174.282 282.373 173.879 280.159ZM66.9745 254.769C36.9767 233.987 16.8663 202.782 10.3567 166.878C3.84707 130.975 11.6989 94.691 32.4804 64.6932C52.4789 35.8138 82.2082 16.2403 116.412 8.9925L165.133 277.429C130.549 282.664 95.8314 274.767 66.9745 254.769Z" fill="#AABABC"/>
<path d="M258.303 123.839C269.645 186.362 228.171 246.246 165.648 257.588C103.124 268.929 43.2404 227.456 31.899 164.932C20.5575 102.409 62.031 42.5248 124.554 31.1834C187.078 19.8419 246.962 61.3154 258.303 123.839Z" fill="#1DA9BF"/>
<path opacity="0.28" d="M31.966 124.018C32.3015 127.44 32.6819 130.885 33.3083 134.33C45.5445 201.73 110.104 246.447 177.504 234.211C206.517 228.954 231.303 213.944 249.176 193.207C233.875 225.733 203.699 250.675 165.648 257.587C103.124 268.929 43.2404 227.455 31.899 164.932C29.3712 150.995 29.5948 137.193 31.966 124.018Z" fill="#015B70"/>
<path d="M131.869 31.0281C131.579 30.6926 131.131 30.4465 130.617 30.2675C128.603 30.536 126.568 30.8268 124.554 31.2071C119.409 32.1466 114.421 33.444 109.589 34.9876C107.978 35.9047 106.815 36.8442 106.457 37.6496C105.227 40.3339 99.7687 40.4905 98.516 44.3157C98.0015 45.8592 106.077 43.488 107.285 44.3157C110.462 45.9935 108.918 49.4384 112.385 52.1451C115.83 55.4782 109.768 55.7914 109.611 58.8561C113.481 67.7592 123.995 77.2888 124.912 70.1081C125.136 68.2738 126.635 62.4129 128.089 60.0193C132.675 52.5031 143.837 52.8834 144.821 47.3133C145.336 44.3829 141.757 44.7184 142.07 42.5709C142.898 36.9113 137.238 38.947 137.26 34.7191C137.26 33.5783 138.066 30.6031 136.97 29.6636C136.477 29.7083 136.008 29.7307 135.516 29.7754C134.241 30.4241 132.63 31.8782 131.869 31.0281Z" fill="#B1D57E"/>
<path d="M148.087 183.276C146.611 180.614 124.912 188.108 131.354 178.802C132.204 177.572 127.798 174.44 124.778 173.612C121.288 172.65 118.156 174.44 116.344 173.389C108.135 168.624 107.016 168.467 100.037 170.301C94.3772 171.778 90.0374 165.76 84.2437 176.341C82.8791 174.865 81.0673 173.478 80.5528 174.239C79.7027 175.447 79.3001 178.399 74.155 174.843C71.068 172.717 72.2088 166.499 72.1193 166.096C71.9851 165.47 65.1399 167.326 64.961 166.387C64.2228 162.338 66.1914 157.864 65.0505 156.589C64.4242 155.873 60.7331 156.902 60.6884 157.618C60.5318 160.794 60.2634 165.291 56.6395 163.367C49.2127 159.407 49.5707 143.256 52.5906 143.883C54.8723 144.353 57.1539 144.42 59.3685 144.017C59.8607 143.928 61.2923 138.134 63.4398 139.476C66.3479 141.288 67.9138 150.952 72.2311 148.536C73.1707 148.021 68.6072 134.599 69.4349 133.973C73.0364 131.289 76.2578 128.739 77.2197 127.71C80.1725 124.578 75.2063 120.484 81.4922 113.93C87.89 107.219 91.581 108.225 94.7351 102.745C96.6813 99.3671 84.6911 100.888 86.9057 98.2709C89.165 95.6313 106.524 91.4482 107.016 88.9875C107.799 85.1399 99.4105 85.7662 94.8247 75.4985C94.0865 73.8655 92.8114 80.7107 90.5967 80.0172C89.098 79.5475 89.8138 76.9973 88.248 75.767C85.228 73.3734 80.1053 71.7628 79.8369 74.4471C78.7184 85.0504 72.4773 99.1657 70.1955 96.7498C68.7191 95.2063 69.8153 92.8127 69.6363 90.7323C69.3455 87.0189 58.7199 90.6428 59.995 82.8358C61.27 74.9617 80.7094 66.8638 81.9844 58.3633C82.1634 57.1777 87.8006 58.9897 87.9795 61.6517C88.0466 62.7925 85.3623 71.7628 86.436 72.1655C94.5339 75.2972 98.18 65.8795 100.059 62.9491C102.028 59.8844 92.7889 61.2266 95.2943 58.0501C97.7103 54.9855 87.7558 50.422 90.3507 47.6706C94.3773 43.3979 98.6275 40.0425 101.916 37.6489C62.1201 53.7104 34.7171 90.8442 30.6011 133.145C38.6318 156.209 50.3312 174.328 57.0645 168.199C59.1673 166.297 60.6884 171.756 63.2162 171.308C63.8873 171.196 68.6745 171.107 71.3588 176.252C71.9404 177.37 80.6869 180.301 80.6422 179.07C80.5527 176.185 83.17 177.773 84.7583 178.578C85.6978 180.659 87.3754 183.321 86.8833 184.148C84.3331 188.555 85.3846 195.937 87.2637 197.235C97.5761 204.393 100.708 211.328 110.909 212.267C113.235 212.491 123.122 229.917 123.861 233.921C124.218 235.912 139.005 246.292 146.812 245.799C149.25 245.643 134.889 239.2 137.327 235.621C138.804 233.474 142.181 228.373 143.456 225.868C145.582 221.64 144.597 216.674 145.403 214.884C147.774 209.538 154.887 211.283 154.239 206.63C152.494 194.148 160.211 190.68 159.294 186.788C158.757 184.685 149.34 185.558 148.087 183.276Z" fill="#B1D57E"/>
<path d="M159.921 54.2708C160.189 55.7695 156.297 58.4092 155.581 58.521C152.673 59.0579 147.036 56.5525 146.767 55.0537C146.499 53.5549 151.644 53.0628 154.552 52.5483C157.438 52.0338 159.652 52.772 159.921 54.2708Z" fill="#B1D57E"/>
<path d="M176.675 63.554C176.765 63.2185 180.724 62.7934 180.232 63.5093C179.091 65.1646 179.583 65.2318 180.031 65.1423C180.679 65.0081 181.686 64.2028 182.245 64.583C182.603 64.8291 182.715 65.2094 182.805 65.612C182.916 66.1042 182.916 66.6634 183.14 67.1108C183.453 67.7819 187.994 70.6676 188.285 71.0031C188.598 71.3611 188.844 71.8979 189.337 72.0545C189.717 72.1887 190.119 72.0769 190.5 72.2558C190.858 72.4124 191.395 72.8375 191.618 73.173C191.954 73.6875 191.752 74.2467 191.909 74.7612C192.043 75.231 192.513 74.985 192.737 75.3652C193.206 76.1705 191.999 77.0877 191.372 77.2667C190.03 77.6917 188.509 77.5575 187.211 78.0496C186.675 78.2509 184.617 79.5708 184.617 79.5708C184.035 79.6602 183.856 78.497 184.505 76.8193C184.84 75.9692 184.236 74.8955 183.834 74.1125C183.565 73.5757 183.453 73.3967 183.834 72.9269C184.057 72.6361 184.214 72.3453 184.08 71.9427C183.655 70.7123 182.111 70.8689 181.172 70.3544C180.523 69.9965 178.51 68.028 177.995 67.6253C177.615 67.3121 174.707 66.0594 174.326 65.7462C173.924 65.3883 176.631 63.6882 176.675 63.554Z" fill="#B1D57E"/>
<path d="M179.897 76.7298C179.024 77.6246 176.206 78.072 176.228 77.6917C176.452 74.2915 173.566 73.5533 174.416 72.6585C174.953 72.0992 176.116 69.303 178.085 70.0412C178.465 70.1754 181.015 70.8465 180.568 71.4953C179.561 72.9493 181.597 74.4704 181.865 74.7389C182.984 75.7902 180.769 75.835 179.897 76.7298Z" fill="#B1D57E"/>
<path d="M233.338 76.9304C234.411 75.8342 235.105 74.5144 235.418 73.1275C226.09 61.3387 214.57 51.5183 201.595 44.1811C201.595 44.1811 201.506 44.4495 201.64 44.6061C201.953 44.9864 202.333 45.3219 202.691 45.6575C203.25 46.1943 204.391 46.9996 204.458 47.8497C199.09 47.201 200.365 44.1363 199.269 43.0626C199.134 42.9284 198.978 42.8389 198.844 42.7047C196.83 41.6533 194.795 40.6243 192.737 39.6848C191.081 39.6176 189.068 40.4006 188.039 39.1479C186.786 37.6267 183.095 38.6557 182.581 39.6848C181.954 40.9375 182.939 43.2863 184.012 44.8522C185.198 46.5746 186.898 50.2209 185.064 53.5987C182.514 58.2964 189.471 63.3296 190.276 62.3453C190.768 61.7413 192.58 59.3925 193.542 59.7057C194.325 59.9517 199.067 62.5019 200.387 65.0073C201.036 66.2376 203.631 64.6717 203.474 62.7032C203.318 60.7794 199.85 56.0147 196.853 55.6344C195.264 55.4331 195.242 50.9815 194.347 49.6169C194.056 49.1919 193.005 47.4247 193.229 46.7983C193.922 44.8969 196.584 46.8207 196.763 47.1786C197.323 48.2747 199.806 55.5225 202.49 55.5896C203.81 55.6344 205.756 54.2698 207.053 55.2317C210.185 57.5134 205.443 57.5358 205.465 58.5872C205.286 59.8175 209.425 62.3901 209.492 65.4547C207.769 66.864 207.545 65.5218 206.807 65.6784C206.203 65.7902 206.091 68.6312 202.669 67.8483C201.685 67.6246 198.955 67.0429 196.271 64.3138C193.743 65.9692 196.875 67.9154 198.575 69.101C199.425 69.6826 194.481 70.6668 194.884 74.3802C194.146 81.628 189.717 80.9569 187.055 81.4267C186.048 81.6057 187.301 84.6703 193.721 85.2519C193.251 86.1243 196.047 90.8667 194.593 90.5759C187.95 89.3008 183.833 92.1418 183.945 92.4102C188.33 97.6224 185.601 101.403 187.547 102.745C189.963 104.423 191.842 103.349 193.385 104.445C195.063 105.608 201.752 99.837 200.857 98.9869C198.016 96.3026 200.79 95.7209 200.79 95.0722C200.924 87.9586 205.599 89.3008 206.516 89.1443C207.389 88.9877 207.814 86.5494 208.597 86.2138C212.042 90.1509 219.222 92.03 221.236 95.9223L220.833 91.9181C219.782 88.3837 217.835 90.9562 211.08 84.1111C211.192 84.0216 212.69 83.1268 212.802 83.0149C213.048 83.7084 217.433 86.2586 222.019 88.3166C222.779 88.6521 225.553 97.2645 229.781 98.1145C230.385 98.3606 226.985 93.4169 228.282 89.8154C229.065 89.614 230.609 91.1128 230.81 92.2089C230.407 94.2893 232.622 95.7657 233.293 96.7723C234.881 99.0988 237.387 95.6315 239.78 96.4592C241.659 98.6961 243.359 101.492 244.903 104.512C242.129 104.915 237.387 108.718 230.81 104.199C226.336 104.065 231.235 109.702 229.065 110.082C226.56 109.389 220.811 105.295 218.395 105.765C215.263 102.991 218.507 99.3225 215.442 99.7922C206.539 101.112 200.588 105.698 195.533 108.919C190.5 112.14 191.708 114.333 189.493 118.874C186.719 124.578 181.664 129.231 181.776 135.83C181.82 138.335 184.326 136.121 184.147 142.675C184.057 145.919 182.312 145.717 183.431 148.446C185.466 153.345 197.882 167.483 199.448 162.83C201.237 157.484 208.395 162.45 215.845 156.276C216.605 155.649 220.207 156.857 221.124 157.663C225.911 158.155 223.965 168.266 224.502 175.961C224.77 179.742 220.05 183.366 219.67 186.609C217.947 201.373 212.981 203.61 212.981 203.61C220.028 204.438 242.755 187.84 244.478 173.053C245.35 165.492 251.815 158.96 251.972 148.558C252.128 138.604 246.536 119.5 243.717 112.722C242.934 110.821 245.216 109.143 246.402 107.555C252.061 119.724 255.573 134.018 258.235 133.369C258.727 133.257 259.152 132.989 259.488 132.609C259.175 129.701 258.817 126.793 258.28 123.884C255.886 110.642 251.278 98.3606 244.948 87.3099C240.809 82.6346 236.447 78.8989 233.338 76.9304ZM237.543 87.5336C235.843 86.5717 234.657 86.527 234.389 86.9073C234.098 87.3547 233.584 87.556 233.226 87.9139C228.193 89.5022 228.819 82.2096 227.343 79.4134C228.73 79.4358 230.117 79.0779 231.414 78.362C233.919 81.1582 237.7 85.2743 237.543 87.5336Z" fill="#B1D57E"/>
<path d="M83.5724 156.009C83.5053 156.501 79.9037 157.753 78.1142 157.463C76.2575 157.172 76.1681 155.293 73.7298 154.532C69.3006 153.145 66.9293 156.635 67.0859 155.158C67.2201 153.637 71.5598 151.467 75.989 153.302C81.1341 155.382 83.6842 155.002 83.5724 156.009Z" fill="#B1D57E"/>
<path d="M93.527 157.238C93.7284 158.289 91.6703 158.58 89.6794 158.938C87.6885 159.296 85.1607 157.26 84.9818 156.231C84.7804 155.18 86.995 154.867 89.0083 155.157C91.6703 155.538 93.3481 156.186 93.527 157.238Z" fill="#B1D57E"/>
<path d="M112.765 98.7188C113.078 100.464 109.231 98.249 107.016 98.6517C104.801 99.0543 102.363 100.307 102.05 98.5622C101.737 96.8173 104.936 93.1935 107.173 93.2382C111.535 93.3277 112.452 96.9739 112.765 98.7188Z" fill="#B1D57E"/>
<path opacity="0.28" d="M113.862 227.165C113.616 237.053 105.406 244.86 95.5187 244.614C85.6313 244.368 77.8243 236.158 78.0704 226.271C78.3164 216.383 86.526 208.576 96.4134 208.822C106.301 209.068 114.108 217.278 113.862 227.165Z" fill="#12849F"/>
<path opacity="0.28" d="M89.7917 204.393C89.7246 207.48 87.1521 209.918 84.065 209.851C80.978 209.784 78.5397 207.212 78.6068 204.125C78.6739 201.038 81.2464 198.599 84.3335 198.666C87.4205 198.734 89.8588 201.306 89.7917 204.393Z" fill="#12849F"/>
<path opacity="0.33" d="M70.2855 198.689C70.2408 200.679 68.5855 202.268 66.5722 202.201C64.5813 202.156 62.993 200.5 63.0602 198.487C63.1049 196.496 64.7602 194.908 66.7735 194.975C68.742 195.042 70.3303 196.698 70.2855 198.689Z" fill="#12849F"/>
<path d="M145.537 293.625L145.694 279.577L158.221 279.711L158.064 293.804C157.908 294.431 155.134 294.9 151.778 294.856C148.4 294.833 145.671 294.252 145.537 293.625Z" fill="#AABABC"/>
</svg>
