<svg width="282" height="101" viewBox="0 0 282 101" fill="none" xmlns="http://www.w3.org/2000/svg">
<g clip-path="url(#clip0)">
<path d="M0 75.8892L184.854 100.846L282 22.3968L115.964 0L0 75.8892Z" fill="#EFEFEF"/>
<path d="M60.9113 51.7335C60.3713 53.2533 61.6712 54.7331 63.8109 55.033C65.9506 55.313 68.1303 54.3131 68.6902 52.7933C69.2301 51.2736 67.9303 49.7938 65.7906 49.4938C63.6509 49.1938 61.4512 50.2137 60.9113 51.7335Z" fill="#999898"/>
<path d="M75.3693 42.2745C74.8294 43.7942 76.1292 45.274 78.2689 45.574C80.4086 45.8539 82.5883 44.8541 83.1482 43.3343C83.6881 41.8145 82.3883 40.3347 80.2486 40.0348C78.0889 39.7548 75.9092 40.7547 75.3693 42.2745Z" fill="#999898"/>
<path d="M46.1732 61.7113C45.6333 63.2311 46.9331 64.7109 49.0728 65.0108C51.2125 65.2908 53.3922 64.2909 53.9521 62.7711C54.492 61.2514 53.1922 59.7716 51.0525 59.4716C48.9128 59.1716 46.7332 60.1715 46.1732 61.7113Z" fill="#999898"/>
<path d="M104.785 22.617C104.245 24.1368 105.545 25.6166 107.685 25.9166C109.824 26.1965 112.004 25.1967 112.564 23.6769C113.104 22.1571 111.804 20.6773 109.664 20.3774C107.505 20.0774 105.325 21.0773 104.785 22.617Z" fill="#999898"/>
<path d="M119.243 13.1585C118.703 14.6783 120.003 16.1581 122.142 16.4581C124.282 16.738 126.462 15.7382 127.022 14.2184C127.562 12.6986 126.262 11.2188 124.122 10.9189C121.962 10.6189 119.783 11.6188 119.243 13.1585Z" fill="#999898"/>
<path d="M90.047 32.5758C89.5071 34.0956 90.8069 35.5753 92.9466 35.8753C95.0863 36.1553 97.266 35.1554 97.8259 33.6356C98.3858 32.1158 97.066 30.636 94.9263 30.3361C92.7666 30.0361 90.5869 31.056 90.047 32.5758Z" fill="#999898"/>
</g>
<defs>
<clipPath id="clip0">
<rect width="282" height="100.846" fill="white"/>
</clipPath>
</defs>
</svg>
