<svg width="153" height="253" viewBox="0 0 153 253" fill="none" xmlns="http://www.w3.org/2000/svg">
<path d="M80.0493 48.1858C80.2059 52.5926 76.761 56.2836 72.3765 56.4402C67.9697 56.5968 64.2787 53.1519 64.1221 48.7674C63.9655 44.3605 67.4104 40.6695 71.7949 40.5129C76.2017 40.3564 79.8927 43.8013 80.0493 48.1858Z" fill="#9E5151"/>
<path d="M81.3916 63.7771C81.5482 68.184 78.1033 71.875 73.7188 72.0316C69.312 72.1882 65.621 68.7432 65.4644 64.3588C65.3078 59.9519 68.7527 56.2609 73.1372 56.1043C77.544 55.9254 81.235 59.3703 81.3916 63.7771Z" fill="#9E5151"/>
<path d="M83.3822 79.6594C83.5388 84.3571 79.8701 88.2941 75.1948 88.4507C70.4972 88.6073 66.5601 84.9387 66.4035 80.2635C66.2469 75.5658 69.9156 71.6287 74.5909 71.4721C79.2886 71.2931 83.2256 74.9618 83.3822 79.6594Z" fill="#9E5151"/>
<path d="M84.8139 95.8777C84.9705 100.285 81.5254 103.976 77.1409 104.132C72.7341 104.289 69.0431 100.844 68.8865 96.4594C68.7299 92.0525 72.175 88.3615 76.5594 88.2049C80.9663 88.026 84.6573 91.4709 84.8139 95.8777Z" fill="#9E5151"/>
<path d="M84.0314 111.313C84.188 115.429 80.9669 118.874 76.8508 119.008C72.7348 119.165 69.2898 115.944 69.1556 111.828C68.999 107.712 72.2202 104.267 76.3138 104.132C80.4299 103.998 83.8972 107.219 84.0314 111.313Z" fill="#9E5151"/>
<path d="M84.076 124.847C84.2103 128.314 81.4811 131.245 78.0138 131.356C74.5465 131.468 71.6161 128.761 71.5043 125.294C71.37 121.827 74.0991 118.896 77.5664 118.785C81.0561 118.65 83.9642 121.357 84.076 124.847Z" fill="#9E5151"/>
<path d="M152.706 175.134C152.102 171.913 150.492 169.318 147.919 168.759C147.226 168.602 146.555 169.049 146.398 169.743C146.242 170.436 146.689 171.107 147.382 171.264C148.814 171.577 149.977 173.3 150.179 175.38C150.268 176.476 150.268 180.167 145.928 181.957C144.005 182.762 141.566 182.538 138.904 181.33C131.12 177.796 126.623 167.797 120.718 155.739C120.024 154.33 118.279 153.681 117.407 153.458C110.674 151.802 96.9163 149.655 82.2417 148.313C79.4902 122.587 73.4728 71.383 72.0635 45.8368C72.0859 45.6354 72.1082 45.4118 72.1305 45.2104C76.7387 46.8658 82.3088 47.0448 86.1116 45.6578C94.5674 42.5708 95.2162 24.3842 88.2816 27.8515C80.2732 31.8333 75.5531 33.9808 70.587 35.5467C70.0278 34.1374 69.3567 32.7729 68.6185 31.453C70.3186 30.1332 72.5556 28.4107 74.1215 27.2028C74.5018 27.4265 74.9268 27.5607 75.3966 27.6054C77.2756 27.762 78.7968 26.8225 78.9086 25.2119C79.0429 23.6012 77.8349 21.8564 75.9558 21.6774C74.5689 21.5432 73.0031 22.8407 72.6451 24.0934C72.5109 24.5408 72.5556 24.9882 72.6674 25.4356C71.6608 26.1514 69.1554 27.8739 67.2316 29.2608C64.6591 25.3908 61.2813 22.0801 57.2324 19.8208C58.1943 17.9193 59.4694 15.4363 60.3418 13.6915C60.7668 13.7138 61.2365 13.6691 61.6615 13.5125C63.4287 12.8414 64.3907 11.3426 63.8091 9.84386C63.2275 8.34509 61.3932 7.29371 59.6259 7.92007C58.3061 8.38983 57.4561 10.2465 57.6574 11.5216C57.7245 11.969 57.9481 12.3716 58.2613 12.7072C57.6349 13.8257 56.0468 16.5772 54.8836 18.6799C52.2439 17.5614 49.3581 16.8679 46.2487 16.7785C45.5105 13.0427 45.0856 9.06092 44.6158 2.70791C44.146 -3.46614 32.3571 1.88023 33.6546 9.10566C34.1467 11.7677 35.7798 15.0336 37.972 17.8075C36.8312 18.1207 35.6679 18.5233 34.5046 18.9931C14.2376 27.158 -6.11876 47.4698 2.13568 64.18C9.98746 80.0625 23.7896 80.3309 39.0905 75.8793C39.784 97.4661 41.4393 151.556 41.5064 153.212C41.484 153.614 41.5288 153.995 41.6183 154.352C42.1999 173.568 39.9181 180.458 43.1841 192.739C44.0789 196.072 45.3763 199.83 47.233 204.326C55.3756 230.946 49.2687 240.789 47.0318 248.104C46.4725 253.674 73.3833 252.421 73.7412 250.073C77.2309 241.527 70.6766 221.708 70.1397 208.129C82.4655 207.973 95.8201 205.713 106.848 202.805C114.521 229.873 108.705 239.022 106.714 246.426C106.334 251.996 131.545 249.983 131.791 247.612C135.146 238.53 133.961 212.201 122.91 172.181C127.339 178.646 132.708 183.411 138.032 185.044C149.373 188.466 153.556 179.608 152.706 175.134Z" fill="#FFC44D"/>
<path opacity="0.42" d="M46.875 73.2617C44.2577 74.2012 41.6852 75.0736 39.135 75.8118C39.1574 76.7513 39.2022 77.7132 39.2246 78.6751C44.2578 76.7289 48.6646 73.9998 52.3108 70.8457C50.5884 71.7629 48.7764 72.5682 46.875 73.2617Z" fill="#7F5555"/>
<path d="M33.1623 69.7503C32.9386 72.5018 32.3122 75.1414 31.3727 77.6468C19.2483 79.7048 8.66743 77.2665 2.15784 64.1131C-2.78587 54.0915 1.26301 44.1146 9.24901 36.2852C24.2591 41.6539 34.3702 55.0086 33.1623 69.7503Z" fill="#F7EEB2"/>
<path d="M33.2067 23.5572C33.0054 23.5348 32.8265 23.4901 32.6475 23.3782C31.5514 22.7071 29.292 22.4163 28.3748 22.5953C27.6813 22.7295 27.0103 22.2821 26.8761 21.5886C26.7418 20.8952 27.1893 20.2241 27.8827 20.0899C29.4262 19.7991 32.3566 20.2017 33.9672 21.2084C34.5712 21.5886 34.7502 22.3716 34.3923 22.9532C34.1462 23.3782 33.6765 23.6019 33.2067 23.5572Z" fill="#683E3E"/>
<path d="M55.1963 48.051L54.9279 48.0063C54.2568 47.805 53.8765 47.0892 54.1002 46.4181C54.4134 45.3891 53.8765 43.4205 53.116 42.8389C52.5567 42.4139 52.4673 41.6086 52.8923 41.0494C53.3174 40.4901 54.1226 40.4006 54.6819 40.8256C56.4267 42.1678 57.0978 45.3443 56.5386 47.1786C56.3373 47.7379 55.778 48.0958 55.1963 48.051Z" fill="#683E3E"/>
<path d="M33.3412 50.7352C33.1623 52.9946 34.84 54.9855 37.0993 55.1645C39.3587 55.3434 41.3495 53.6656 41.5285 51.4063C41.7074 49.147 40.0297 47.1561 37.7704 46.9771C35.511 46.7758 33.5202 48.4759 33.3412 50.7352Z" fill="#683E3E"/>
<path d="M38.1058 50.1985C38.0387 51.0933 38.6874 51.8538 39.5822 51.9209C40.477 51.988 41.2376 51.3393 41.3047 50.4445C41.3718 49.5497 40.723 48.7892 39.8282 48.7221C38.9558 48.6549 38.173 49.3037 38.1058 50.1985Z" fill="white"/>
<path d="M18.6444 36.1725C18.4879 38.1634 19.9642 39.886 21.9327 40.0649C23.9236 40.2215 25.6462 38.7451 25.8028 36.7766C25.9594 34.7856 24.4829 33.0632 22.5144 32.9066C20.5458 32.7052 18.801 34.1816 18.6444 36.1725Z" fill="#683E3E"/>
<path opacity="0.42" d="M9.87559 48.4091C9.89796 49.2145 9.56238 51.9883 9.00314 52.0107C8.42152 52.0331 7.86221 49.304 7.81747 48.4986C7.72799 47.2236 9.83085 47.0893 9.87559 48.4091Z" fill="#7F5555"/>
<path opacity="0.42" d="M20.7024 57.3796C19.8747 57.5809 16.9667 57.827 16.8325 57.2678C16.6983 56.7086 19.3827 55.5677 20.2103 55.3664C21.4854 55.0084 22.0446 57.0664 20.7024 57.3796Z" fill="#7F5555"/>
<path d="M19.6734 71.562C17.5259 71.6291 15.2666 70.7343 14.1929 68.2737C14.081 68.0276 14.1928 67.7592 14.4389 67.6473C14.685 67.5355 14.9533 67.6473 15.0652 67.8934C16.1837 70.4659 18.9799 70.9804 21.0827 70.3764C23.2973 69.7277 25.6685 67.5578 25.0421 63.5984C24.9974 63.33 25.1764 63.0839 25.4448 63.0615C25.7132 63.0168 25.9593 63.1957 25.9816 63.4642C26.6751 67.7368 24.1473 70.4883 21.3511 71.2936C20.8142 71.4502 20.255 71.5396 19.6734 71.562Z" fill="#A57E7E"/>
<path d="M42.8257 16.7111C40.2085 17.2256 37.703 14.3623 37.2109 11.6108C36.6293 8.3672 41.2374 6.19736 41.3716 8.9712C41.573 12.5504 42.2665 15.1229 42.8257 16.7111Z" fill="#E57448"/>
<path d="M71.8174 40.6469C75.7992 44.0024 79.2664 44.0247 82.2192 43.4655C88.2367 42.3246 87.9683 33.3767 83.6957 35.7032C79.8705 37.7836 77.4098 39.3718 71.8174 40.6469Z" fill="#E57448"/>
<path d="M69.0654 28.1207C68.1035 25.1231 63.5176 18.5912 57.008 18.3675C52.4894 18.2109 50.1406 16.2871 49.7827 14.0054C47.322 16.8016 47.3891 21.3203 52.4223 23.1769C47.926 23.2217 45.2864 26.3982 45.0403 27.2035C48.4852 27.1811 54.6817 30.7603 59.3346 29.8432C57.12 31.6775 52.5118 30.9393 50.7893 34.6079C54.2566 33.2657 59.7371 36.6436 63.719 35.5027C67.7008 34.3395 69.9602 30.9169 69.0654 28.1207Z" fill="#9E5151"/>
<path d="M22.7382 35.4573C22.6711 36.2179 23.2526 36.8889 24.0131 36.956C24.7737 37.0231 25.4449 36.4415 25.512 35.6809C25.5791 34.9204 24.9975 34.2493 24.2369 34.1822C23.4763 34.1151 22.7829 34.6744 22.7382 35.4573Z" fill="white"/>
<path d="M148.545 168.714C149.843 164.329 146.42 162.607 142.394 162.741C138.591 162.875 137.472 160.146 137.002 158.446C135.884 160.28 135.034 163.278 136.622 167.192C138.949 172.941 146.442 175.782 148.545 168.714Z" fill="#9E5151"/>
<path d="M145.391 172.606C140.425 174.463 136.063 171.04 135.548 167.864C137.629 169.452 139.485 169.363 140.805 169.161C142.326 168.915 145.57 171.398 145.391 172.606Z" fill="#9E5151"/>
<path d="M73.7633 250.005C73.9646 249.535 74.0988 249.021 74.233 248.484C70.363 246.829 65.9114 245.464 61.0796 244.592C56.6951 243.809 52.4449 243.496 48.5526 243.607C48.0157 245.218 47.4789 246.672 47.0538 248.037C46.517 253.607 73.4278 252.354 73.7633 250.005Z" fill="#9E5151"/>
<path d="M131.813 247.545C132.081 246.851 132.305 246.046 132.506 245.151C129.598 244.145 126.444 243.317 123.111 242.713C117.787 241.751 112.664 241.505 108.146 241.863C107.609 243.496 107.094 244.95 106.714 246.359C106.356 251.952 131.567 249.916 131.813 247.545Z" fill="#9E5151"/>
<path d="M71.0784 70.3542C71.1679 73.0833 68.9756 75.2085 66.2465 74.8506C63.8529 74.5374 61.0343 72.7254 60.9225 69.9963C60.833 67.2672 64.5464 63.0841 67.2756 62.9946C70.027 62.8828 70.9666 67.6251 71.0784 70.3542Z" fill="#F77346"/>
<path d="M68.9537 87.5568C69.2669 89.4583 67.343 91.6058 65.4192 91.6058C63.7191 91.6058 61.4151 91.1808 61.1019 89.2793C60.7887 87.3779 60.2295 83.2395 62.1085 82.9487C64.01 82.6355 68.6629 85.6778 68.9537 87.5568Z" fill="#F77346"/>
<path d="M49.0894 79.0119C50.6553 79.6158 51.3264 81.4055 50.454 82.8371C49.6934 84.1122 47.9709 85.2754 46.405 84.6491C44.8392 84.0227 43.3852 80.9133 43.9892 79.3251C44.5932 77.7592 47.5236 78.3855 49.0894 79.0119Z" fill="#F77346"/>
<path d="M52.2214 99.3677C52.0649 101.269 49.6712 102.924 47.8145 102.455C46.1592 102.03 44.0117 101.068 44.1683 99.1664C44.3248 97.2649 44.7946 93.6187 46.6737 93.2608C51.6621 92.2989 52.378 97.4663 52.2214 99.3677Z" fill="#F77346"/>
<path d="M70.2962 59.147C70.3186 60.0194 69.6251 60.6905 68.7527 60.5786C67.9921 60.4892 67.0975 59.9075 67.0527 59.0351C67.0304 58.1627 67.5224 56.9771 68.3949 56.8876C70.095 56.7087 70.2515 58.2746 70.2962 59.147Z" fill="#F77346"/>
<path d="M73.9197 108.024C74.0092 110.754 71.817 112.879 69.0879 112.521C66.672 112.208 62.6231 108.942 62.5336 106.19C62.4441 103.461 66.7168 102.611 70.1394 100.642C72.5106 99.2779 73.8303 105.295 73.9197 108.024Z" fill="#F77346"/>
<path d="M56.2251 121.021C56.0909 122.654 53.2276 123.996 50.9235 123.549C48.8878 123.146 46.2481 122.251 46.3824 120.618C46.5166 118.985 46.9641 115.853 49.2681 115.607C55.3303 114.914 56.3593 119.366 56.2251 121.021Z" fill="#F77346"/>
<path d="M73.0697 123.348C74.7921 123.035 76.9842 125.809 77.1408 128.426C77.2974 130.753 77.1185 133.885 75.3961 134.198C73.6736 134.511 70.3405 134.869 69.4234 132.431C67.0522 126.01 71.3472 123.662 73.0697 123.348Z" fill="#F77346"/>
<path d="M52.9148 152.787C50.3423 154.42 47.2105 153.704 46.1815 151.154C45.2867 148.894 46.3828 143.526 48.9553 141.893C51.5279 140.26 54.4807 143.481 58.1046 145.338C60.61 146.613 55.5097 151.154 52.9148 152.787Z" fill="#F77346"/>
<path d="M90.2497 159.566C90.3615 162.809 87.0508 165.315 82.9795 164.934C79.378 164.599 75.1948 162.474 75.083 159.252C74.9711 156.009 80.5636 151.043 84.6573 150.908C88.7733 150.73 90.1379 156.322 90.2497 159.566Z" fill="#F77346"/>
<path d="M72.5107 148.491C74.0095 149.252 74.5239 151.712 73.5396 153.055C72.6672 154.24 71.1685 155.65 69.6697 154.911C68.1709 154.151 64.972 152.428 65.7326 150.929C66.4708 149.453 71.0119 147.731 72.5107 148.491Z" fill="#F77346"/>
<path d="M56.7623 168.424C56.6057 170.325 54.2122 171.981 52.3555 171.511C50.7002 171.086 48.5527 170.124 48.7093 168.222C48.8659 166.321 49.3356 162.675 51.2147 162.317C56.2031 161.333 56.9189 166.522 56.7623 168.424Z" fill="#F77346"/>
<path d="M109.309 165.56C109.398 168.289 107.206 170.414 104.477 170.056C102.061 169.743 98.0122 166.477 97.9228 163.748C97.8333 161.019 102.106 160.169 105.528 158.2C107.9 156.813 109.219 162.809 109.309 165.56Z" fill="#F77346"/>
<path d="M101.077 179.071C101.166 181.8 94.4552 182.494 91.726 182.136C89.3101 181.823 85.2612 178.557 85.1717 175.827C85.0822 173.098 88.3259 170.392 92.7775 170.28C95.529 170.19 100.987 176.32 101.077 179.071Z" fill="#F77346"/>
<path d="M84.9705 186.252C85.9548 187.706 85.7759 191.107 83.4494 192.315C81.3914 193.388 79.1993 193.679 76.9623 192.359C75.4635 191.464 73.3383 188.445 75.195 186.633C80.094 181.846 84.0086 184.821 84.9705 186.252Z" fill="#F77346"/>
<path d="M115.282 158.871C116.601 159.385 117.138 160.862 116.422 162.092C115.774 163.166 114.342 164.128 113.022 163.613C111.702 163.099 110.494 160.481 111.009 159.161C111.523 157.842 113.962 158.356 115.282 158.871Z" fill="#F77346"/>
<path d="M139.843 185.447C139.866 183.724 138.837 182.091 137.047 181.376C135.213 180.66 132.282 179.944 130.403 180.548C132.886 182.651 135.481 184.194 138.076 184.977C138.68 185.179 139.284 185.335 139.843 185.447Z" fill="#F77346"/>
<path d="M121.635 182.986C121.433 185.492 118.301 187.639 115.841 187.035C113.671 186.498 110.852 185.223 111.054 182.718C111.255 180.212 111.859 175.425 114.342 174.956C120.896 173.68 121.836 180.458 121.635 182.986Z" fill="#F77346"/>
<path d="M106.2 189.272C105.104 190.167 102.978 189.719 102.285 188.489C101.659 187.393 101.077 185.738 102.195 184.843C103.292 183.948 105.752 182.047 106.647 183.143C107.542 184.261 107.296 188.377 106.2 189.272Z" fill="#F77346"/>
<path d="M127.965 192.313C127.205 192.112 126.332 192.067 125.258 192.269C123.044 192.694 122.507 196.966 122.328 199.203C122.149 201.44 124.654 202.581 126.601 203.051C127.719 203.319 128.972 202.961 129.978 202.246C129.397 199.069 128.726 195.758 127.965 192.313Z" fill="#F77346"/>
<path d="M51.3936 203.992C50.4988 204.148 48.9776 204.819 47.8591 206.206C49 210.143 49.8053 213.7 50.3645 216.921C51.7962 216.966 53.3174 216.452 54.1674 215.825C56.6505 214.013 57.3662 211.486 57.1649 208.667C56.9636 205.513 53.4069 203.634 51.3936 203.992Z" fill="#F77346"/>
<path d="M66.1574 217.279C67.4101 217.055 69.58 218.084 69.6918 219.851C69.7813 221.417 69.3114 222.871 67.7679 223.9C66.7165 224.594 64.0993 225.108 63.473 223.453C61.7729 219.136 64.9046 217.503 66.1574 217.279Z" fill="#F77346"/>
<path d="M64.1217 190.726C63.2716 192.023 61.0346 192.336 59.9608 191.33C59.0213 190.435 57.9476 188.981 58.7977 187.683C59.6477 186.386 61.5715 183.59 62.7794 184.395C64.0321 185.178 64.9717 189.406 64.1217 190.726Z" fill="#F77346"/>
<path d="M120.426 213.409C119.33 214.304 114.923 213.588 114.23 212.358C113.604 211.262 114.879 207.727 115.975 206.81C117.071 205.915 119.532 205.848 120.426 206.944C121.299 208.04 121.523 212.492 120.426 213.409Z" fill="#F77346"/>
<path d="M128.39 218.643C127.696 219.202 126.354 218.934 125.929 218.151C125.527 217.457 125.169 216.428 125.862 215.847C126.556 215.287 128.099 214.079 128.681 214.773C129.24 215.489 129.083 218.084 128.39 218.643Z" fill="#F77346"/>
<path d="M79.7808 178.423C78.9307 179.116 77.3871 178.87 76.9174 177.998C76.4924 177.237 76.1345 176.051 76.9846 175.358C77.8346 174.664 79.7137 173.188 80.34 173.971C80.9664 174.754 80.6308 177.729 79.7808 178.423Z" fill="#F77346"/>
</svg>
