<svg width="170" height="48" viewBox="0 0 170 48" fill="none" xmlns="http://www.w3.org/2000/svg">
<path opacity="0.19" d="M99.318 10.9999L12.9652 41.0512L0 42.82L12.8146 33.8065L93.6163 5.93799L99.318 10.9999Z" fill="#601805"/>
<path d="M98.6595 4.63985C97.6433 1.72316 95.7616 -0.290269 94.5009 0.14253L94.2562 0.255429L85.2051 3.32267L88.9121 13.8792L98.2455 10.7179C99.4686 10.2474 99.6756 7.5189 98.6595 4.63985Z" fill="#FF8B78"/>
<path d="M85.958 2.92789L89.7967 13.9172L93.6355 12.5435L89.7967 1.5542L85.958 2.92789Z" fill="#D8D7D6"/>
<path d="M2.63432 38.398L13.1532 39.2636L19.043 37.2502L16.2204 26.3926L9.42739 28.7071L1.84399 35.6507C2.10744 36.5539 2.42733 37.4759 2.63432 38.398Z" fill="#F9E098"/>
<path d="M4.66685 38.5675L3.19909 34.4277C3.19909 34.4277 -0.11276 36.7046 0.24477 37.7772C0.621117 38.8686 4.66685 38.5675 4.66685 38.5675Z" fill="black"/>
<path d="M86.0893 3.07861L9.44629 28.7078L13.5297 30.2697L11.3092 33.9767L15.3926 35.5385L13.1721 39.2456L89.8152 13.6163L86.0893 3.07861Z" fill="#FF396D"/>
<path d="M86.0893 3.07861L9.44629 28.7078L13.5297 30.2697L87.0114 5.71303L86.0893 3.07861Z" fill="#FF5A81"/>
<path d="M15.3738 35.5572L13.1533 39.2642L89.7964 13.6349L88.8743 11.0005L15.3738 35.5572Z" fill="#ED204C"/>
<path opacity="0.19" d="M169.243 15.9486L82.8902 45.9999L69.925 47.7687L82.7397 38.7552L163.541 10.8867L169.243 15.9486Z" fill="#601805"/>
<path d="M168.585 9.58858C167.568 6.67189 165.687 4.65846 164.426 5.09126L164.181 5.20416L155.13 8.2714L158.837 18.8279L168.171 15.6666C169.394 15.1962 169.601 12.4676 168.585 9.58858Z" fill="#FF8B78"/>
<path d="M155.864 7.87656L159.703 18.8659L163.542 17.4923L159.703 6.50293L155.864 7.87656Z" fill="#D8D7D6"/>
<path d="M72.5596 43.3468L83.0785 44.2124L88.9683 42.199L86.1457 31.3413L79.3527 33.6559L71.7693 40.5995C72.0327 41.5027 72.3526 42.4247 72.5596 43.3468Z" fill="#F9E098"/>
<path d="M74.5919 43.5162L73.1241 39.3765C73.1241 39.3765 69.8123 41.6534 70.1698 42.7259C70.5462 43.8174 74.5919 43.5162 74.5919 43.5162Z" fill="black"/>
<path d="M155.996 8.04541L79.3716 33.6558L83.4549 35.2176L81.2345 38.9246L85.3179 40.4865L83.0974 44.1935L159.74 18.5643L155.996 8.04541Z" fill="#1AA7D3"/>
<path d="M155.996 8.04541L79.3716 33.6558L83.4549 35.2176L156.937 10.661L155.996 8.04541Z" fill="#52BCDD"/>
<path d="M85.2988 40.5059L83.0784 44.2129L159.721 18.5836L158.799 15.9492L85.2988 40.5059Z" fill="#098AB2"/>
</svg>
