<svg width="217" height="269" viewBox="0 0 217 269" fill="none" xmlns="http://www.w3.org/2000/svg">
<path d="M110.34 268.486L5.11328 224.83L94.6274 199.708L216.018 249.462L110.34 268.486Z" fill="#7F5A90"/>
<path d="M212.179 248.747L108.91 267.658C105.316 261.429 103.396 242.725 108.421 236.459L211.671 217.058C210.523 222.684 210.712 243.704 212.179 248.747Z" fill="url(#paint0_linear)"/>
<path d="M1.21797 244.043L0.2771 212.769L109.982 235.933C103.246 240.336 107.592 266.323 110.49 268.468L1.21797 244.043Z" fill="#633E7A"/>
<path d="M214.607 217.284L109.418 236.308L0.72876 213.163L100.555 199.144L214.607 217.284Z" fill="#8F5BAA"/>
<path d="M10.0808 221.029L83.619 237.268L90.3933 234.182L17.6077 218.865L10.0808 221.029Z" fill="#F4B516"/>
<path d="M203.994 209.156L83.3558 236.121L10.2693 196.924L124.302 177.994L202.639 193.029L203.994 209.156Z" fill="#E5D8C0"/>
<path d="M83.1865 218.131L10.2693 196.905L13.2236 220.765L83.3559 236.101L83.1865 218.131Z" fill="url(#paint1_linear)"/>
<path d="M206.12 193.009C206.985 194.628 205.066 197.112 204.916 201.176C204.727 206.332 206.195 208.609 204.972 209.456L83.1108 237.305C83.9764 235.537 83.8635 229.609 83.8824 226.467C83.9012 223.324 85.2937 219.297 84.748 217.698C57.6134 208.534 38.5514 203.528 11.3979 194.364L124.151 174.456C154.165 182.02 176.087 185.426 206.12 193.009Z" fill="#F4B516"/>
<path d="M205.951 193.01L84.9928 217.698L13.9197 194.384L124.622 174.324L205.951 193.01Z" fill="#FFC826"/>
<path d="M214.249 193.5L133.936 215.347L127.444 212.863L205.837 191.354L214.249 193.5Z" fill="#40C4B7"/>
<path d="M3.15576 190.959L133.993 214.349L212.913 166.045L88.3983 151.104L3.96491 172.612L3.15576 190.959Z" fill="#E5D8C0"/>
<path d="M134.632 194.252L212.931 166.045L210.673 193.274L134.011 214.349L134.632 194.252Z" fill="url(#paint2_linear)"/>
<path d="M0.201569 172.782C-0.664029 174.664 1.51879 177.373 1.83868 181.984C2.25266 187.817 0.747276 190.489 2.10212 191.373L134.2 215.366C133.184 213.409 134.332 207.331 134.2 203.755C134.049 200.18 132.375 195.701 132.92 193.857C162.012 181.927 191.311 174.457 212.913 166.064L88.4361 147.059C56.1644 157.352 32.4921 162.47 0.201569 172.782Z" fill="#25B7B0"/>
<path d="M1.23682 172.725L133.504 193.819L212.913 166.045L88.7751 146.908L1.23682 172.725Z" fill="#40C4B7"/>
<path d="M145.679 164.144C145.679 171.991 129.891 178.351 110.396 178.351C90.9203 178.351 75.1138 171.991 75.1138 164.144C75.1138 156.297 90.9015 149.937 110.396 149.937C129.891 149.937 145.679 156.297 145.679 164.144Z" fill="#636768"/>
<path opacity="0.18" d="M162.106 168.285C162.106 175.849 142.122 182.002 117.49 182.002C92.8392 182.002 72.874 175.868 72.874 168.285C72.874 160.72 92.8581 154.585 117.49 154.585C142.122 154.567 162.106 160.701 162.106 168.285Z" fill="#720303"/>
<path d="M144.587 85.2435C144.587 92.8458 129.289 99.0179 110.415 99.0179C91.5409 99.0179 76.2424 92.8458 76.2424 85.2435C76.2424 77.6413 91.5409 71.4692 110.415 71.4692C129.27 71.4692 144.587 77.6225 144.587 85.2435Z" fill="#636768"/>
<path d="M110.396 71.0171C91.8045 71.0171 76.7506 76.8316 75.377 84.1704H78.2748C78.2748 77.6031 92.6513 72.2967 110.396 72.2967C128.141 72.2967 142.517 77.622 142.517 84.1704H145.415C144.041 76.8316 128.988 71.0171 110.396 71.0171Z" fill="#F09AB8"/>
<path d="M126.805 120.45C129.458 121.165 131.885 120.789 132.205 119.641L132.243 119.396L134.539 111.173L124.904 108.614L122.552 117.063C122.27 118.229 124.17 119.754 126.805 120.45Z" fill="#F9235C"/>
<path d="M134.463 111.945L124.452 109.235L123.53 112.754L133.541 115.464L134.463 111.945Z" fill="#D8D7D6"/>
<path d="M154.09 18.0464L148.162 25.3663L146.676 30.7105L156.084 34.0976L157.797 27.9255L156.498 18.8555C155.727 18.5921 154.899 18.3475 154.09 18.0464Z" fill="#F9E098"/>
<path d="M152.961 19.7398L156.743 20.756C156.743 20.756 156.724 17.1807 155.765 16.8984C154.767 16.6161 152.961 19.7398 152.961 19.7398Z" fill="#FF6903"/>
<path d="M134.275 111.963L157.816 27.9251L154.617 30.1268L152.998 26.6456L149.781 28.8472L148.181 25.3472L124.641 109.385L134.275 111.963Z" fill="#FF6903"/>
<path d="M95.5307 125.155C98.278 124.892 100.404 123.707 100.31 122.521L100.254 122.276L99.5388 113.771L89.6221 114.731L90.3559 123.481C90.5065 124.647 92.821 125.4 95.5307 125.155Z" fill="#F9235C"/>
<path d="M99.7455 114.523L89.4148 115.483L89.7723 119.096L100.103 118.136L99.7455 114.523Z" fill="#D8D7D6"/>
<path d="M85.4256 19.6654L82.4148 28.5848L82.8852 34.1171L92.8772 34.0042L92.3315 27.6251L87.9471 19.5713C87.138 19.5901 86.2912 19.6654 85.4256 19.6654Z" fill="#F9E098"/>
<path d="M84.8611 21.3779L88.7563 21.0016C88.7563 21.0016 87.4955 17.6521 86.4982 17.7273C85.4632 17.8026 84.8611 21.3779 84.8611 21.3779Z" fill="#F923BC"/>
<path d="M99.5762 114.599L92.3503 27.6255L90.1299 30.8056L87.4014 28.0959L85.1621 31.2949L82.4336 28.5664L89.6595 115.54L99.5762 114.599Z" fill="#F923BC"/>
<path d="M107.291 107.579C110.039 107.372 112.203 106.243 112.127 105.058L112.09 104.813L111.563 96.3076L101.627 97.0415L102.173 105.81C102.286 106.958 104.582 107.786 107.291 107.579Z" fill="#F9235C"/>
<path d="M111.751 97.0415L101.401 97.7754L101.683 101.407L112.033 100.673L111.751 97.0415Z" fill="#D8D7D6"/>
<path d="M99.5383 1.90092L96.3394 10.7451L96.6969 16.2774L106.689 16.3903L106.294 10.0112L102.097 1.86328C101.251 1.86328 100.385 1.91974 99.5383 1.90092Z" fill="#F9E098"/>
<path d="M98.9175 3.59482L102.831 3.31257C102.831 3.31257 101.646 -0.0557503 100.649 0.000701743C99.6137 0.0383364 98.9175 3.59482 98.9175 3.59482Z" fill="#F9235C"/>
<path d="M111.581 97.1167L106.294 10.0112L103.998 13.1537L101.326 10.3876L99.0302 13.5301L96.3582 10.7639L101.646 97.8694L111.581 97.1167Z" fill="#F9235C"/>
<path d="M119.899 124.477C122.646 124.515 124.904 123.574 124.942 122.389L124.923 122.144L125.149 113.62L115.176 113.469L114.95 122.238C114.95 123.424 117.17 124.44 119.899 124.477Z" fill="#F9235C"/>
<path d="M125.262 114.373L114.893 114.185L114.856 117.817L125.224 118.005L125.262 114.373Z" fill="#D8D7D6"/>
<path d="M121.536 18.5171L117.566 27.0414L117.415 32.5925L127.369 33.5898L127.539 27.1919L124.076 18.7053C123.248 18.6488 122.383 18.63 121.536 18.5171Z" fill="#F9E098"/>
<path d="M120.764 20.1541L124.678 20.2106C124.678 20.2106 123.794 16.7482 122.796 16.7105C121.78 16.6917 120.764 20.1541 120.764 20.1541Z" fill="#00A8F2"/>
<path d="M125.092 114.429L127.538 27.192L124.96 30.1275L122.552 27.1168L119.993 30.0523L117.565 27.0415L115.119 114.279L125.092 114.429Z" fill="#00A8F2"/>
<path d="M116.474 138.364C119.221 138.214 121.404 137.122 121.367 135.937L121.329 135.692L120.971 127.168L111.017 127.695L111.375 136.464C111.469 137.649 113.746 138.515 116.474 138.364Z" fill="#F9235C"/>
<path d="M121.122 127.92L110.754 128.429L110.961 132.06L121.329 131.533L121.122 127.92Z" fill="#D8D7D6"/>
<path d="M110.829 32.5356L107.461 41.3233L107.705 46.8745L117.697 47.1943L117.415 40.7965L113.369 32.5733C112.541 32.5544 111.676 32.5921 110.829 32.5356Z" fill="#F9E098"/>
<path d="M110.189 34.2294L114.103 34.0224C114.103 34.0224 112.993 30.6165 111.977 30.6541C110.942 30.6918 110.189 34.2294 110.189 34.2294Z" fill="#FFBE0C"/>
<path d="M120.953 127.996L117.415 40.7964L115.044 43.8824L112.428 41.0598L110.076 44.1459L107.461 41.3233L110.998 128.523L120.953 127.996Z" fill="#FFBE0C"/>
<path d="M135.31 169.094C138.058 168.943 140.24 167.852 140.203 166.666L140.165 166.422L139.808 157.897L129.853 158.424L130.23 167.193C130.305 168.379 132.601 169.244 135.31 169.094Z" fill="#F9235C"/>
<path d="M139.958 158.65L129.59 159.158L129.797 162.79L140.165 162.282L139.958 158.65Z" fill="#D8D7D6"/>
<path d="M129.665 63.2832L126.297 72.0709L126.541 77.6221L136.533 77.9419L136.251 71.544L132.206 63.3209C131.396 63.2832 130.531 63.3208 129.665 63.2832Z" fill="#F9E098"/>
<path d="M129.025 64.977L132.939 64.77C132.939 64.77 131.829 61.364 130.813 61.4017C129.778 61.4393 129.025 64.977 129.025 64.977Z" fill="#7C3931"/>
<path d="M139.789 158.725L136.251 71.5259L133.899 74.6307L131.283 71.7893L128.912 74.8942L126.297 72.0528L129.835 159.252L139.789 158.725Z" fill="#7C3931"/>
<path d="M97.8073 145.666C100.479 145.026 102.436 143.539 102.173 142.373L102.098 142.147L100.178 133.83L90.4873 136.182L92.4631 144.744C92.7454 145.873 95.154 146.305 97.8073 145.666Z" fill="#F9235C"/>
<path d="M100.46 134.544L90.3743 136.953L91.2399 140.472L101.326 138.063L100.46 134.544Z" fill="#D8D7D6"/>
<path d="M72.8367 42.6782L71.1243 51.9363L72.3662 57.3369L82.2453 55.8127L80.7964 49.5842L75.3205 42.2266C74.5114 42.3583 73.6834 42.5653 72.8367 42.6782Z" fill="#F9E098"/>
<path d="M72.4978 44.447L76.2989 43.525C76.2989 43.525 74.5677 40.3825 73.5892 40.6083C72.6107 40.8341 72.4978 44.447 72.4978 44.447Z" fill="#0078DB"/>
<path d="M100.31 134.639L80.8152 49.5654L79.0652 53.0466L75.9603 50.7509L74.2103 54.2133L71.1243 51.9176L90.619 136.991L100.31 134.639Z" fill="#0078DB"/>
<path d="M94.6838 152.177C97.4312 152.233 99.7081 151.311 99.7457 150.126L99.7269 149.881L100.028 141.357L90.0547 141.131L89.7537 149.9C89.7537 151.085 91.9553 152.12 94.6838 152.177Z" fill="#F9235C"/>
<path d="M100.122 142.128L89.7535 141.846L89.6782 145.477L100.047 145.76L100.122 142.128Z" fill="#D8D7D6"/>
<path d="M97.1487 46.2349L93.103 54.7403L92.9148 60.2914L102.85 61.364L103.057 54.9661L99.6702 46.4419C98.8611 46.3854 97.9955 46.3478 97.1487 46.2349Z" fill="#F9E098"/>
<path d="M96.3772 47.8718L100.291 47.9659C100.291 47.9659 99.4256 44.4847 98.4283 44.4471C97.4121 44.4094 96.3772 47.8718 96.3772 47.8718Z" fill="#5AAF3B"/>
<path d="M99.9524 142.184L103.076 54.9661L100.479 57.8639L98.0895 54.8532L95.5116 57.751L93.1217 54.7402L89.9792 141.959L99.9524 142.184Z" fill="#5AAF3B"/>
<path d="M110.396 99.4502C90.9203 99.4502 75.1138 93.09 75.1138 85.2432V164.144C75.1138 171.991 90.9015 178.351 110.396 178.351C129.872 178.351 145.679 171.991 145.679 164.144V85.2432C145.679 93.09 129.891 99.4502 110.396 99.4502Z" fill="#EA2A6F"/>
<path d="M142.518 84.1709C142.518 90.7382 128.141 96.0446 110.397 96.0446C92.6518 96.0446 78.2753 90.7193 78.2753 84.1709H75.3775C75.321 84.5284 75.114 84.8671 75.114 85.2247C75.114 93.0715 90.9018 99.4318 110.397 99.4318C129.872 99.4318 145.679 93.0715 145.679 85.2247C145.679 84.8671 145.472 84.5284 145.416 84.1709H142.518Z" fill="#F09AB8"/>
<defs>
<linearGradient id="paint0_linear" x1="151.237" y1="237.948" x2="152.56" y2="245.664" gradientUnits="userSpaceOnUse">
<stop stop-color="#DCC499"/>
<stop offset="1" stop-color="#E5D8C0"/>
</linearGradient>
<linearGradient id="paint1_linear" x1="52.5245" y1="207.633" x2="51.5426" y2="210.213" gradientUnits="userSpaceOnUse">
<stop stop-color="#DCC499"/>
<stop offset="1" stop-color="#E5D8C0"/>
</linearGradient>
<linearGradient id="paint2_linear" x1="165.983" y1="182.252" x2="166.765" y2="184.672" gradientUnits="userSpaceOnUse">
<stop stop-color="#DCC499"/>
<stop offset="1" stop-color="#E5D8C0"/>
</linearGradient>
</defs>
</svg>
