<svg width="1598" height="770" viewBox="0 0 1598 770" fill="none" xmlns="http://www.w3.org/2000/svg">
<path fill-rule="evenodd" clip-rule="evenodd" d="M596.536 190.446C577.166 168.079 544.267 161.223 517.051 175.691C515.227 176.656 513.454 177.698 511.759 178.819C511.473 175.743 510.612 172.667 509.074 169.773C502.948 158.277 488.662 153.898 477.166 160.024C473.412 162.005 470.44 164.873 468.328 168.209C454.121 154.966 434.543 148.762 415.33 151.369C415.539 147.224 414.679 143.001 412.593 139.064C406.493 127.568 392.207 123.188 380.685 129.315C376.67 131.452 373.542 134.554 371.43 138.178C359.256 136.119 346.404 137.5 334.464 142.818C336.029 137.187 335.533 130.983 332.561 125.43C326.435 113.934 312.149 109.554 300.653 115.68C296.013 118.157 292.546 121.937 290.434 126.343C271.404 102.072 237.123 94.1736 208.943 109.163C188.061 120.269 175.731 141.15 174.61 163.178C168.744 161.301 162.175 161.692 156.309 164.82C147.654 169.409 143.066 178.611 143.874 187.787C135.793 188.361 127.686 190.603 120.047 194.643C117.988 195.738 116.033 196.937 114.13 198.241C107.795 187.292 93.9003 183.251 82.6385 189.247C73.2276 194.252 68.5874 204.732 70.5686 214.664C66.554 216.437 62.5655 218.366 58.603 220.452C56.8824 221.364 55.1879 222.302 53.5195 223.267C53.5195 223.267 7.50786 206.218 0 250.639C39.1816 255.201 78.9628 258.486 118.457 261.015C202.895 266.385 288.505 268.314 373.724 268.444C418.824 268.523 464.001 268.079 509.205 267.219L676.098 258.747C676.098 258.747 662.933 218.913 619.424 225.587C619.45 225.535 627.792 190.472 596.536 190.446Z" fill="#568831"/>
<path fill-rule="evenodd" clip-rule="evenodd" d="M1471.62 140.629C1440.96 105.253 1388.9 94.3565 1345.84 117.297C1342.94 118.835 1340.15 120.478 1337.47 122.25C1337.02 117.375 1335.67 112.526 1333.22 107.938C1323.52 89.7422 1300.92 82.8079 1282.72 92.5056C1276.78 95.6599 1272.06 100.17 1268.72 105.462C1246.23 84.4763 1215.26 74.6744 1184.83 78.8194C1185.17 72.2761 1183.82 65.5764 1180.51 59.372C1170.83 41.1759 1148.23 34.2415 1130.01 43.9391C1123.68 47.302 1118.72 52.2291 1115.36 57.9903C1096.09 54.7317 1075.76 56.9476 1056.83 65.3157C1059.31 56.4262 1058.5 46.5982 1053.81 37.7869C1044.14 19.5908 1021.51 12.6825 1003.32 22.3541C995.964 26.2644 990.463 32.2603 987.152 39.2468C957.017 0.821146 902.793 -11.692 858.163 12.0568C825.134 29.6273 805.608 62.6827 803.81 97.5369C794.529 94.565 784.128 95.1906 774.873 100.118C761.187 107.391 753.914 121.963 755.217 136.458C742.417 137.37 729.591 140.916 717.521 147.329C714.263 149.075 711.134 150.952 708.163 153.012C698.152 135.702 676.15 129.289 658.319 138.778C643.433 146.703 636.082 163.283 639.21 179.002C632.85 181.792 626.515 184.842 620.284 188.179C617.573 189.612 614.888 191.124 612.229 192.636C612.229 192.636 539.418 165.655 527.531 235.963C589.549 243.184 652.505 248.398 715.019 252.386C848.674 260.885 984.155 263.935 1119.06 264.117C1190.44 264.222 1261.95 263.518 1333.48 262.162L1597.61 248.737C1597.61 248.737 1576.78 185.676 1507.91 196.234C1507.91 196.182 1521.1 140.681 1471.62 140.629Z" fill="#568831"/>
<path fill-rule="evenodd" clip-rule="evenodd" d="M799.639 171.781C817.522 152.36 847.032 147.094 870.937 160.754C872.554 161.666 874.092 162.657 875.578 163.7C875.917 160.962 876.751 158.251 878.211 155.697C883.972 145.608 896.85 142.088 906.939 147.85C910.223 149.727 912.804 152.36 914.603 155.384C927.637 143.939 945.26 138.934 962.335 141.776C962.257 138.074 963.143 134.32 965.098 130.879C970.86 120.79 983.712 117.271 993.826 123.032C997.346 125.039 1000.06 127.881 1001.86 131.192C1012.78 129.68 1024.2 131.27 1034.73 136.301C1033.48 131.244 1034.1 125.717 1036.89 120.842C1042.65 110.754 1055.51 107.234 1065.62 112.996C1069.69 115.316 1072.68 118.809 1074.46 122.798C1092.08 101.656 1122.87 95.5034 1147.63 109.633C1165.96 120.086 1176.41 139.065 1176.83 158.721C1182.1 157.209 1187.96 157.73 1193.1 160.676C1200.68 165.003 1204.54 173.345 1203.58 181.479C1210.77 182.209 1217.94 184.425 1224.64 188.231C1226.44 189.273 1228.16 190.394 1229.83 191.593C1235.77 182 1248.29 178.768 1258.17 184.398C1266.43 189.117 1270.29 198.58 1268.25 207.391C1271.8 209.06 1275.32 210.911 1278.76 212.892C1280.27 213.752 1281.76 214.638 1283.22 215.551C1283.22 215.551 1324.72 201.552 1330.25 241.385C1295.16 244.409 1259.6 246.286 1224.28 247.485C1148.81 250.04 1072.37 249.44 996.329 247.303C956.079 246.156 915.802 244.566 875.499 242.584L726.854 230.567C726.854 230.567 739.654 195.373 778.314 202.49C778.262 202.464 771.745 170.973 799.639 171.781Z" fill="#8DB031"/>
<path d="M1472.19 694.541C1295.44 731.82 1040.59 770.871 731.077 769.985C431.702 769.125 184.542 731.168 10.9489 694.541C10.9489 664.119 10.9489 633.696 10.9489 603.274H1472.19V694.541V694.541Z" fill="#568831"/>
<path d="M1470.81 253.116C1357.77 240.916 1240.88 231.166 1120.26 224.44C716.87 201.943 344.709 217.323 10.9489 253.116C10.9489 371.443 10.9489 489.77 10.9489 608.071H1470.81V253.116Z" fill="#94D04F"/>
<path d="M1472.19 659.817C1295.31 697.095 1040.23 736.147 730.452 735.26C430.841 734.374 183.473 696.417 9.72369 659.817C9.72369 629.394 9.72369 598.972 9.72369 568.549H1472.19V659.817Z" fill="#94D04F"/>
<path fill-rule="evenodd" clip-rule="evenodd" d="M120.856 290.056C124.193 290.056 126.904 295.609 126.904 302.465C126.904 309.321 124.193 314.874 120.856 314.874C117.519 314.874 114.834 309.321 114.834 302.465C114.834 295.609 117.519 290.056 120.856 290.056Z" fill="#8DB031"/>
<path fill-rule="evenodd" clip-rule="evenodd" d="M143.379 293.653C146.273 295.321 145.83 301.474 142.389 307.417C138.948 313.361 133.838 316.828 130.944 315.16C128.051 313.492 128.494 307.339 131.935 301.396C135.376 295.452 140.512 291.985 143.379 293.653Z" fill="#8DB031"/>
<path fill-rule="evenodd" clip-rule="evenodd" d="M97.889 293.653C94.9953 295.321 95.4385 301.474 98.8796 307.417C102.321 313.361 107.43 316.828 110.324 315.16C113.218 313.492 112.774 307.339 109.333 301.396C105.892 295.452 100.783 291.985 97.889 293.653Z" fill="#8DB031"/>
<path fill-rule="evenodd" clip-rule="evenodd" d="M617.156 647.905C620.493 647.905 623.204 653.457 623.204 660.314C623.204 667.17 620.493 672.722 617.156 672.722C613.819 672.722 611.134 667.17 611.134 660.314C611.134 653.457 613.819 647.905 617.156 647.905Z" fill="#568831"/>
<path fill-rule="evenodd" clip-rule="evenodd" d="M639.68 651.529C642.573 653.197 642.13 659.349 638.689 665.293C635.248 671.237 630.138 674.704 627.245 673.035C624.351 671.367 624.794 665.215 628.235 659.271C631.676 653.327 636.786 649.86 639.68 651.529Z" fill="#568831"/>
<path fill-rule="evenodd" clip-rule="evenodd" d="M594.189 651.529C591.295 653.197 591.739 659.349 595.18 665.293C598.621 671.237 603.73 674.704 606.624 673.035C609.518 671.367 609.075 665.215 605.633 659.271C602.192 653.327 597.057 649.86 594.189 651.529Z" fill="#568831"/>
<path fill-rule="evenodd" clip-rule="evenodd" d="M700.577 301.604C703.913 301.604 706.624 307.157 706.624 314.013C706.624 320.869 703.913 326.422 700.577 326.422C697.24 326.422 694.555 320.869 694.555 314.013C694.555 307.157 697.24 301.604 700.577 301.604Z" fill="#568831"/>
<path fill-rule="evenodd" clip-rule="evenodd" d="M723.1 305.228C725.994 306.897 725.551 313.049 722.109 318.993C718.668 324.936 713.559 328.404 710.665 326.735C707.772 325.067 708.215 318.914 711.656 312.971C715.097 307.027 720.206 303.56 723.1 305.228Z" fill="#568831"/>
<path fill-rule="evenodd" clip-rule="evenodd" d="M677.61 305.228C674.716 306.897 675.159 313.049 678.6 318.993C682.041 324.936 687.151 328.404 690.045 326.735C692.938 325.067 692.495 318.914 689.054 312.971C685.613 307.027 680.477 303.56 677.61 305.228Z" fill="#568831"/>
<path fill-rule="evenodd" clip-rule="evenodd" d="M896.094 497.121C899.43 497.121 902.142 502.674 902.142 509.53C902.142 516.386 899.43 521.939 896.094 521.939C892.757 521.939 890.072 516.386 890.072 509.53C890.072 502.674 892.757 497.121 896.094 497.121Z" fill="#568831"/>
<path fill-rule="evenodd" clip-rule="evenodd" d="M918.617 500.745C921.511 502.413 921.068 508.566 917.627 514.509C914.185 520.453 909.076 523.92 906.182 522.252C903.289 520.583 903.732 514.431 907.173 508.487C910.614 502.544 915.724 499.076 918.617 500.745Z" fill="#568831"/>
<path fill-rule="evenodd" clip-rule="evenodd" d="M873.127 500.745C870.233 502.413 870.676 508.566 874.117 514.509C877.558 520.453 882.668 523.92 885.562 522.252C888.455 520.583 888.012 514.431 884.571 508.487C881.13 502.544 875.994 499.076 873.127 500.745Z" fill="#568831"/>
<path fill-rule="evenodd" clip-rule="evenodd" d="M1395.68 432.836C1399.02 432.836 1401.73 438.389 1401.73 445.245C1401.73 452.101 1399.02 457.654 1395.68 457.654C1392.34 457.654 1389.66 452.101 1389.66 445.245C1389.66 438.389 1392.34 432.836 1395.68 432.836Z" fill="#8DB031"/>
<path fill-rule="evenodd" clip-rule="evenodd" d="M1418.2 436.46C1421.1 438.128 1420.65 444.28 1417.21 450.224C1413.77 456.168 1408.66 459.635 1405.77 457.967C1402.87 456.298 1403.32 450.146 1406.76 444.202C1410.2 438.258 1415.31 434.791 1418.2 436.46Z" fill="#8DB031"/>
<path fill-rule="evenodd" clip-rule="evenodd" d="M1372.71 436.46C1369.82 438.128 1370.26 444.28 1373.7 450.224C1377.14 456.168 1382.25 459.635 1385.15 457.967C1388.04 456.298 1387.6 450.146 1384.16 444.202C1380.72 438.258 1375.58 434.791 1372.71 436.46Z" fill="#8DB031"/>
<path fill-rule="evenodd" clip-rule="evenodd" d="M986.709 255.932C990.046 255.932 992.757 261.484 992.757 268.34C992.757 275.197 990.046 280.749 986.709 280.749C983.372 280.749 980.687 275.197 980.687 268.34C980.687 261.484 983.372 255.932 986.709 255.932Z" fill="#568831"/>
<path fill-rule="evenodd" clip-rule="evenodd" d="M1009.23 259.555C1012.13 261.224 1011.68 267.376 1008.24 273.32C1004.8 279.264 999.691 282.731 996.798 281.062C993.904 279.394 994.347 273.242 997.788 267.298C1001.23 261.354 1006.34 257.887 1009.23 259.555Z" fill="#568831"/>
<path fill-rule="evenodd" clip-rule="evenodd" d="M963.742 259.555C960.849 261.224 961.292 267.376 964.733 273.32C968.174 279.264 973.284 282.731 976.177 281.062C979.071 279.394 978.628 273.242 975.187 267.298C971.746 261.354 966.61 257.887 963.742 259.555Z" fill="#568831"/>
<path fill-rule="evenodd" clip-rule="evenodd" d="M82.1171 592.221C85.454 592.221 88.1651 597.773 88.1651 604.63C88.1651 611.486 85.454 617.038 82.1171 617.038C78.7803 617.038 76.0952 611.486 76.0952 604.63C76.0952 597.773 78.7803 592.221 82.1171 592.221Z" fill="#568831"/>
<path fill-rule="evenodd" clip-rule="evenodd" d="M104.641 595.844C107.534 597.513 107.091 603.665 103.65 609.609C100.209 615.553 95.0995 619.02 92.2058 617.351C89.3122 615.683 89.7553 609.531 93.1964 603.587C96.6375 597.643 101.747 594.176 104.641 595.844Z" fill="#568831"/>
<path fill-rule="evenodd" clip-rule="evenodd" d="M59.1504 595.844C56.2567 597.513 56.6999 603.665 60.141 609.609C63.5821 615.553 68.6916 619.02 71.5853 617.351C74.4789 615.683 74.0358 609.531 70.5947 603.587C67.1536 597.643 62.018 594.176 59.1504 595.844Z" fill="#568831"/>
<path fill-rule="evenodd" clip-rule="evenodd" d="M642.599 508.8C645.936 508.8 648.647 514.353 648.647 521.209C648.647 528.065 645.936 533.618 642.599 533.618C639.262 533.618 636.577 528.065 636.577 521.209C636.577 514.353 639.262 508.8 642.599 508.8Z" fill="#8DB031"/>
<path fill-rule="evenodd" clip-rule="evenodd" d="M665.123 512.424C668.016 514.092 667.573 520.245 664.132 526.188C660.691 532.132 655.581 535.599 652.688 533.931C649.794 532.263 650.237 526.11 653.678 520.166C657.119 514.223 662.229 510.756 665.123 512.424Z" fill="#8DB031"/>
<path fill-rule="evenodd" clip-rule="evenodd" d="M619.632 512.424C616.739 514.092 617.182 520.245 620.623 526.188C624.064 532.132 629.174 535.599 632.067 533.931C634.961 532.263 634.518 526.11 631.077 520.166C627.636 514.223 622.5 510.756 619.632 512.424Z" fill="#8DB031"/>
</svg>
