<svg width="371" height="180" viewBox="0 0 371 180" fill="none" xmlns="http://www.w3.org/2000/svg">
<path d="M38.8047 101.219C42.8589 100.212 47.1708 100.305 51.1547 101.594C47.9676 77.1276 71.6131 51.349 96.2429 65.8085C97.9536 54.8174 103.39 44.0135 112.624 37.8032C121.857 31.5928 135.144 30.9837 143.792 37.9909C144.049 25.9217 151.736 14.7196 162 8.39207C172.288 2.0411 184.826 0.119325 196.871 0.986431C210.158 1.94728 223.305 7.05628 233.242 16.032C244.912 26.5779 246.951 40.5453 246.084 55.8485C252.388 54.6065 258.996 54.1846 265.136 56.0828C282.571 61.4964 285.688 85.3769 281.306 100.54C292.32 98.2897 304.014 96.4149 314.583 100.211C325.152 104.008 333.799 115.491 330.542 126.248C336.776 123.694 343.15 121.139 349.876 120.788C356.601 120.436 363.843 122.733 367.756 128.193C373.052 135.575 370.662 146.192 365.389 153.597C358.335 163.487 346.946 169.697 335.065 172.322C314.583 176.821 292.062 170.869 276.478 156.808C279.384 159.432 254.801 173.4 252.458 174.173C242.592 177.431 232.539 180.829 222.087 178.275C210.815 175.509 201.089 167.986 194.27 158.612C170.577 177.618 133.199 176.775 110.374 156.737C88.2751 174.947 52.6077 173.634 31.8915 153.855C23.291 157.253 12.4877 158.753 5.64478 152.519C0.395426 147.762 -0.588882 138.997 3.4653 133.185C7.51949 127.373 16.0731 125.264 22.3536 128.521C20.3851 120.764 22.9395 112.023 28.7747 106.539C31.6103 103.938 35.102 102.133 38.8047 101.219Z" fill="white"/>
<path d="M246.084 55.8251C246.951 40.4985 244.936 26.5545 233.242 16.0087C223.305 7.03302 210.159 1.92405 196.871 0.963206C184.826 0.0961041 172.288 2.01787 162 8.36881C182.389 5.43941 204.886 6.40008 221.149 19.0316C225.297 22.2423 228.953 26.1794 231.437 30.7962C234.202 35.9988 235.398 41.9748 235.28 47.8805C234.999 61.5901 227.617 74.6903 216.861 83.1972C206.104 91.7042 192.278 95.8523 178.569 96.157C192.559 99.4145 207.745 97.1177 220.165 89.8997C232.585 82.6582 245.264 70.1674 246.084 55.8251Z" fill="#F5FBFF"/>
<path d="M143.792 37.9679C135.145 30.9608 121.857 31.5699 112.624 37.7803C103.391 43.9906 97.9538 54.7945 96.2431 65.7856C95.0948 73.1678 102.266 79.4952 108.851 83.0105C115.436 86.5258 123.24 87.2757 130.645 86.2211C123.38 85.4712 117.475 79.5421 114.639 72.7928C111.007 64.192 111.71 53.6929 117.053 46.053C122.396 38.4131 134.723 35.7416 143.792 37.9679Z" fill="#F5FBFF"/>
<path d="M51.1547 101.571C47.1708 100.282 42.8589 100.211 38.8047 101.196C35.0786 102.11 31.6103 103.938 28.7981 106.539C22.9629 112.023 20.4085 120.764 22.377 128.521C16.0966 125.264 7.54295 127.373 3.48877 133.185C-0.565418 138.997 0.418818 147.762 5.66817 152.519C12.5111 158.729 23.3144 157.229 31.9149 153.855C52.6077 173.634 88.2986 174.923 110.397 156.737C133.223 176.798 170.577 177.618 194.293 158.612C201.113 167.986 210.838 175.532 222.11 178.274C232.562 180.829 242.592 177.431 252.481 174.173C254.825 173.4 279.431 159.432 276.502 156.807C292.086 170.869 314.583 176.821 335.088 172.322C346.946 169.72 358.359 163.487 365.413 153.597C370.685 146.191 373.076 135.575 367.78 128.193C363.866 122.733 356.625 120.436 349.899 120.787C343.173 121.116 336.799 123.693 330.565 126.248C333.823 115.491 325.176 104.008 314.607 100.211C304.038 96.4146 292.344 98.2895 281.329 100.539C285.712 85.3766 282.595 61.4961 265.16 56.0826C261.527 54.9577 257.731 54.653 253.934 54.8405C256.489 67.7064 255.223 81.6972 247.912 92.5478C240.202 104.008 224.829 110.71 211.893 105.906C198.863 117.694 180.537 123.389 163.125 121.022C145.713 118.655 129.543 108.296 120.123 93.4618C110.304 100.094 95.6102 99.4144 87.6893 90.6027C79.4872 81.4864 83.5648 72.2999 88.0642 63.1601C88.1814 62.9257 88.2751 62.6913 88.3689 62.4804C66.8325 56.9028 48.3191 79.7523 51.1547 101.571Z" fill="#F5FBFF"/>
<path d="M38.8047 101.219C42.8589 100.211 47.1708 100.305 51.1547 101.594C48.3191 79.7522 66.8324 56.9031 88.3453 62.5041C80.2135 63.0197 72.363 67.0271 67.1839 73.3312C62.0049 79.6118 59.3333 87.7907 59.1927 95.9227C59.1458 99.0864 59.4739 102.297 60.6691 105.226C63.8093 112.983 72.0583 117.202 79.862 120.248C72.4801 121.936 65.0045 117.999 58.935 113.476C52.8654 108.929 46.1163 103.211 38.8047 101.219Z" fill="#DFF2FD"/>
<path d="M276.502 156.831C292.086 170.892 314.583 176.845 335.088 172.345C346.946 169.744 358.359 163.51 365.413 153.621C370.686 146.215 373.076 135.599 367.78 128.217C367.85 142.629 353.813 154.722 339.939 158.612C326.066 162.526 311.044 159.151 298.038 152.964C291.805 149.988 285.759 146.262 281.423 140.872C277.088 135.482 274.674 128.217 276.408 121.514C271.276 131.99 273.151 145.629 276.502 156.831Z" fill="#DFF2FD"/>
<path d="M194.293 158.612C170.601 177.618 133.223 176.774 110.397 156.737C88.2986 174.946 52.6311 173.634 31.9149 153.855C23.3145 157.253 12.5111 158.753 5.66817 152.519C0.418818 147.762 -0.565418 138.997 3.48877 133.185C7.07426 145.09 24.2049 150.011 34.3053 142.77C31.2119 138.27 29.6184 132.763 29.8058 127.326C40.8435 139.864 58.3257 146.379 74.8705 144.152C91.4154 141.926 106.554 131.005 113.866 115.983C114.288 125.779 112.905 135.669 109.812 144.973C131.559 166.838 166.828 172.603 194.293 158.612Z" fill="#DFF2FD"/>
</svg>
