<svg width="1255" height="967" viewBox="0 0 1255 967" fill="none" xmlns="http://www.w3.org/2000/svg">
<path d="M1239.3 622H0.302734V892H1239.3V622Z" fill="#A2E9FF"/>
<path d="M1253.3 897.304C1101.75 931.735 883.207 967.827 617.804 966.986C361.086 966.188 149.156 931.137 0.302734 897.304C0.302734 869.21 0.302734 841.094 0.302734 813H1253.3V897.304Z" fill="#A2E9FF"/>
<path opacity="0.5" d="M517.796 615.811C446.823 616.144 390.151 619.625 359.798 621.798C347.67 625.412 175.37 678.227 177.987 741.531C180.159 793.836 300.82 830.288 388.621 856.829C411.082 863.614 479.217 883.259 588.17 894.523C608.724 896.651 704.418 906.097 840.932 898.957C978.82 891.751 1028.6 874.39 1155.78 881.219C1196.33 883.392 1229.5 887.206 1251.12 890.088C1253.55 857.25 1248.77 829.845 1240.03 806.807C1165.89 611.11 721.181 614.836 517.796 615.811Z" fill="#5EBDD3"/>
<path fill-rule="evenodd" clip-rule="evenodd" d="M1253.33 841.796V836.009C478.153 855.033 250.911 786.741 219.027 726.298C218.362 725.034 217.874 723.77 217.453 722.528C214.526 739.867 228.85 759.003 272.64 782.085C343.036 819.202 738.785 902.882 1253.33 841.796Z" fill="#E3C49C"/>
<path fill-rule="evenodd" clip-rule="evenodd" d="M612.316 469.227C612.316 469.227 738.453 452.664 815.146 424.527C891.84 396.368 903.768 371.534 937.026 366.989C970.262 362.443 979.641 371.955 993.277 381.468C1006.91 390.98 1092.98 436.944 1159.46 445.636C1191.69 449.849 1225.33 453.396 1254.53 457.476V522.974C1069.19 528.362 738.852 537.564 728.453 534.881C713.975 531.156 612.316 469.227 612.316 469.227Z" fill="#92C8E2"/>
<path fill-rule="evenodd" clip-rule="evenodd" d="M518.506 484.283C518.506 484.283 738.431 452.665 815.146 424.505C891.84 396.346 906.939 370.714 940.175 366.169C951.283 364.639 956.56 365.482 963.389 366.59C957.824 412.887 925.164 470.758 1054.78 534.016C893.635 541.089 735.726 528.761 724.861 525.968C714.019 523.196 518.506 484.283 518.506 484.283Z" fill="#7EB8D4"/>
<path fill-rule="evenodd" clip-rule="evenodd" d="M0.854004 490.557C0.854004 490.557 139.851 462.997 224.371 416.124C308.891 369.251 322.039 327.899 358.667 320.316C361.195 319.783 363.656 317.012 368.955 319.539C408.31 338.231 519.237 434.549 603.78 451.267C677.036 465.746 756.856 475.391 786.921 498.14C816.964 520.89 844.214 573.949 844.214 573.949C844.214 573.949 144.817 606.055 128.853 599.847C112.89 593.638 0.854004 490.557 0.854004 490.557Z" fill="#A2D0E8"/>
<path fill-rule="evenodd" clip-rule="evenodd" d="M0.144531 491.045C76.7713 471.4 176.191 442.82 224.371 416.102C264.835 393.663 299.335 356.701 336.34 328.43C343.812 322.732 360.729 317.078 368.756 319.295C365.43 361.047 380.218 518.65 488.44 598.428C310.864 610.202 136.835 589.67 124.885 585.036C118.654 582.619 57.4816 563.949 0.144531 546.588V491.045Z" fill="#89C4DF"/>
<path fill-rule="evenodd" clip-rule="evenodd" d="M936.427 461.777C928.202 461.777 920.419 463.263 913.413 465.946C910.641 460.159 903.79 456.079 895.764 456.079C887.582 456.079 880.62 460.336 877.96 466.278C875.077 464.837 871.685 463.994 868.071 463.994C857.606 463.994 849.114 470.979 849.114 479.582C849.114 480.668 849.247 481.755 849.513 482.775C846.852 483.706 844.99 485.901 844.99 488.429C844.99 488.651 845.012 488.872 845.034 489.094C841.243 488.407 837.318 488.052 833.283 488.052C831.864 488.052 830.467 488.096 829.07 488.185C828.139 485.657 825.279 483.817 821.909 483.817C817.873 483.817 814.592 486.455 814.437 489.737C813.727 489.67 812.996 489.626 812.242 489.626C809.514 489.626 806.898 490.114 804.548 490.957C803.417 488.739 800.756 487.187 797.652 487.187C795.546 487.187 793.639 487.897 792.287 489.05C788.695 484.127 782.132 480.824 774.638 480.824C771.245 480.824 768.053 481.489 765.237 482.686C757.787 478.562 748.829 476.145 739.162 476.145C732.156 476.145 725.482 477.431 719.518 479.693C717.146 474.771 711.292 471.267 704.463 471.267C697.479 471.267 691.537 474.904 689.253 479.981C686.792 478.74 683.91 478.03 680.805 478.03C671.87 478.03 664.62 483.994 664.62 491.334C664.62 492.265 664.731 493.174 664.952 494.061C662.691 494.859 661.094 496.721 661.094 498.872C661.094 499.072 661.117 499.249 661.139 499.449C657.924 498.872 654.554 498.562 651.117 498.562C649.898 498.562 648.7 498.606 647.525 498.673C646.727 496.522 644.288 494.948 641.406 494.948C640.608 494.948 639.854 495.058 639.144 495.28C624.111 470.292 579.102 485.236 578.082 513.861C576.885 513.95 575.665 514.193 574.512 514.659C571.497 515.812 569.457 518.007 568.726 520.491C567.063 520.579 565.4 520.912 563.826 521.577C563.316 521.777 562.85 522.021 562.384 522.264C554.247 513.706 539.747 510.579 527.286 515.369C526.443 515.701 525.645 516.034 524.869 516.411C524.825 515.28 524.492 514.127 523.871 513.041C521.41 508.717 515.136 506.854 509.859 508.872C508.151 509.537 506.755 510.513 505.735 511.71C499.704 506.588 491.123 503.95 482.476 504.548C482.676 503.041 482.387 501.466 481.545 500.003C479.084 495.679 472.809 493.795 467.532 495.834C465.692 496.544 464.228 497.631 463.209 498.917C457.821 497.941 452.078 498.207 446.624 499.937C447.444 497.897 447.356 495.613 446.18 493.529C443.719 489.205 437.445 487.343 432.168 489.36C430.039 490.181 428.398 491.511 427.379 493.085C419.441 483.839 404.342 480.291 391.438 485.28C381.881 488.961 375.917 496.389 374.897 504.438C372.325 503.639 369.398 503.661 366.716 504.704C362.769 506.233 360.485 509.515 360.663 512.885C357.049 512.952 353.39 513.617 349.887 514.947C348.934 515.302 348.047 515.723 347.182 516.145C344.61 512.021 338.491 510.269 333.347 512.265C329.045 513.927 326.739 517.675 327.382 521.355C325.542 521.932 323.724 522.553 321.906 523.262C321.13 523.573 320.332 523.883 319.578 524.193V520.646C317.937 519.249 315.653 518.384 313.104 518.384C311.485 518.384 309.977 518.739 308.669 519.338C306.252 513.595 300.798 509.005 293.88 506.899C294.701 505.79 295.166 504.482 295.166 503.107C295.166 499.027 291.153 495.724 286.187 495.724C284.457 495.724 282.861 496.123 281.486 496.81C277.761 494.46 273.216 492.952 268.227 492.664C269.757 491.334 270.711 489.56 270.711 487.586C270.711 483.507 266.697 480.203 261.731 480.203C259.735 480.203 257.895 480.735 256.387 481.644C254.325 472.154 244.237 464.926 232.087 464.926C223.085 464.926 215.214 468.872 210.912 474.793C209.272 473.418 207.01 472.553 204.483 472.553C200.758 472.553 197.565 474.416 196.212 477.076C193.396 476.057 190.27 475.48 186.989 475.48C186.102 475.48 185.237 475.524 184.372 475.613C184.195 471.666 180.248 468.496 175.393 468.496C171.335 468.496 167.921 470.713 166.79 473.751C165.127 473.64 163.442 473.595 161.735 473.595C156.901 473.595 152.179 474.039 147.633 474.837C147.655 474.571 147.678 474.305 147.678 474.039C147.678 471.001 145.438 468.385 142.245 467.254C142.556 466.012 142.733 464.726 142.733 463.418C142.733 453.085 132.534 444.704 119.962 444.704C115.617 444.704 111.537 445.702 108.078 447.454C104.885 440.314 96.5266 435.214 86.7044 435.214C77.0817 435.214 68.8558 440.114 65.53 447.055C57.1268 443.839 47.7702 442.043 37.9036 442.043C23.8465 442.043 10.8315 445.68 0.144531 451.866V548.761H947.868H967.89H1254.55V498.008C1254.18 496.234 1252.73 494.77 1250.78 494.083C1251.01 493.196 1251.12 492.287 1251.12 491.356C1251.12 484.017 1243.87 478.052 1234.93 478.052C1231.83 478.052 1228.94 478.762 1226.48 480.003C1224.2 474.926 1218.26 471.289 1211.27 471.289C1204.42 471.289 1198.59 474.771 1196.22 479.715C1190.25 477.431 1183.6 476.167 1176.57 476.167C1166.91 476.167 1157.95 478.584 1150.5 482.708C1147.68 481.511 1144.49 480.846 1141.1 480.846C1133.6 480.846 1127.04 484.15 1123.45 489.072C1122.1 487.919 1120.19 487.21 1118.08 487.21C1114.98 487.21 1112.32 488.762 1111.19 490.979C1108.84 490.114 1106.24 489.648 1103.49 489.648C1102.76 489.648 1102.03 489.693 1101.3 489.759C1101.14 486.478 1097.86 483.839 1093.83 483.839C1090.46 483.839 1087.6 485.68 1086.67 488.207C1085.27 488.119 1083.87 488.074 1082.45 488.074C1078.42 488.074 1074.49 488.429 1070.7 489.116C1070.72 488.895 1070.75 488.673 1070.75 488.451C1070.75 485.923 1068.88 483.75 1066.22 482.797C1066.49 481.755 1066.62 480.691 1066.62 479.604C1066.62 471.001 1058.13 464.017 1047.64 464.017C1044.01 464.017 1040.64 464.859 1037.75 466.301C1035.09 460.336 1028.13 456.101 1019.95 456.101C1011.92 456.101 1005.07 460.181 1002.3 465.968C995.317 463.285 987.512 461.799 979.286 461.799C971.659 461.799 964.409 463.085 957.824 465.391C951.283 463.063 944.032 461.777 936.427 461.777Z" fill="#89C4DF"/>
<path d="M1254.53 555.346H190.292V615.812H1254.53V555.346Z" fill="#6AA69A"/>
<path fill-rule="evenodd" clip-rule="evenodd" d="M523.118 512.376C521.189 509.914 517.819 508.296 513.983 508.296C509.283 508.296 505.291 510.735 503.762 514.149C502.121 513.307 500.17 512.841 498.086 512.841C492.077 512.841 487.199 516.854 487.199 521.777C487.199 522.398 487.288 523.018 487.421 523.617C485.891 524.149 484.827 525.413 484.827 526.854C484.827 526.987 484.827 527.12 484.849 527.231C482.676 526.832 480.437 526.632 478.108 526.632C477.288 526.632 476.49 526.655 475.692 526.699C475.16 525.258 473.519 524.194 471.59 524.194C469.284 524.194 467.377 525.701 467.311 527.586C466.889 527.542 466.49 527.519 466.069 527.519C464.495 527.519 463.009 527.785 461.657 528.273C461.014 527.009 459.484 526.123 457.71 526.123C456.513 526.123 455.404 526.544 454.628 527.187C452.566 524.371 448.797 522.464 444.496 522.464C442.545 522.464 440.704 522.841 439.108 523.528C434.829 521.156 429.685 519.781 424.142 519.781C420.106 519.781 416.293 520.513 412.878 521.821C411.526 518.983 408.156 516.987 404.231 516.987C400.218 516.987 396.826 519.072 395.517 521.976C394.098 521.267 392.458 520.845 390.662 520.845C385.54 520.845 381.372 524.26 381.372 528.473C381.372 529.005 381.438 529.537 381.571 530.047C380.263 530.513 379.354 531.577 379.354 532.819C379.354 532.93 379.354 533.041 379.376 533.151C377.514 532.819 375.607 532.641 373.634 532.641C372.946 532.641 372.259 532.663 371.572 532.708C366.029 517.608 332.504 519.493 331.728 541.422C331.041 541.466 330.332 541.621 329.666 541.865C327.937 542.53 326.762 543.794 326.363 545.213C325.409 545.258 324.456 545.457 323.547 545.834C323.259 545.945 322.993 546.078 322.727 546.233C318.07 541.333 309.734 539.537 302.594 542.287C302.107 542.464 301.641 542.664 301.197 542.885C301.175 542.242 300.998 541.577 300.621 540.956C299.202 538.473 295.61 537.408 292.595 538.561C291.619 538.938 290.799 539.515 290.222 540.18C286.763 537.231 281.841 535.723 276.875 536.078C276.986 535.213 276.808 534.304 276.342 533.462C274.923 530.978 271.332 529.914 268.294 531.067C267.252 531.466 266.409 532.087 265.811 532.841C262.729 532.287 259.425 532.442 256.299 533.417C256.765 532.242 256.72 530.934 256.033 529.737C254.614 527.253 251.022 526.189 248.007 527.342C246.787 527.808 245.856 528.584 245.257 529.471C240.712 524.171 232.043 522.131 224.637 524.992C219.161 527.098 215.724 531.355 215.148 535.99C213.684 535.524 211.977 535.546 210.447 536.145C208.185 537.009 206.877 538.894 206.966 540.845C204.882 540.89 202.798 541.267 200.78 542.043C200.248 542.242 199.716 542.486 199.228 542.73C197.742 540.357 194.239 539.36 191.29 540.513C188.807 541.466 187.499 543.617 187.876 545.723C186.812 546.056 185.77 546.411 184.75 546.81C184.306 546.987 183.841 547.165 183.419 547.342V545.302C182.488 544.504 181.158 543.994 179.717 543.994C178.785 543.994 177.921 544.193 177.167 544.548C175.792 541.244 172.644 538.628 168.675 537.408C169.14 536.765 169.407 536.034 169.407 535.236C169.407 532.907 167.101 531.001 164.263 531.001C163.265 531.001 162.356 531.222 161.58 531.621C159.451 530.269 156.835 529.404 153.975 529.249C154.862 528.495 155.394 527.475 155.394 526.344C155.394 524.016 153.088 522.109 150.25 522.109C149.097 522.109 148.033 522.42 147.19 522.93C146.015 517.475 140.206 513.351 133.244 513.351C128.078 513.351 123.555 515.613 121.094 519.005C120.162 518.207 118.854 517.719 117.413 517.719C115.284 517.719 113.444 518.783 112.668 520.313C111.05 519.715 109.254 519.404 107.369 519.404C106.859 519.404 106.349 519.426 105.861 519.471C105.773 517.209 103.489 515.391 100.717 515.391C98.3893 515.391 96.416 516.655 95.7952 518.406C94.8418 518.34 93.8662 518.318 92.8906 518.318C90.1191 518.318 87.4142 518.562 84.7979 519.027C84.82 518.872 84.82 518.717 84.82 518.562C84.82 516.81 83.534 515.324 81.6937 514.681C81.8711 513.972 81.9598 513.24 81.9598 512.486C81.9598 506.566 76.1064 501.755 68.9005 501.755C66.395 501.755 64.0669 502.331 62.0936 503.329C60.2533 499.227 55.4642 496.3 49.8325 496.3C44.3116 496.3 39.589 499.116 37.6822 503.085C32.8708 501.245 27.5052 500.225 21.8291 500.225C13.7585 500.225 6.28649 502.309 0.166992 505.857V561.444H521.588H555.378H947.869H967.89H1254.55V522.42C1252.34 523.816 1250.89 526.012 1250.89 528.495C1250.89 529.027 1250.96 529.559 1251.09 530.069C1249.79 530.535 1248.88 531.599 1248.88 532.841C1248.88 532.952 1248.88 533.063 1248.9 533.174C1247.04 532.841 1245.13 532.664 1243.16 532.664C1242.47 532.664 1241.78 532.686 1241.09 532.73C1240.63 531.488 1239.23 530.601 1237.59 530.601C1237.13 530.601 1236.7 530.668 1236.31 530.801V523.816C1229.92 521.333 1222.29 521.112 1215.4 523.772C1206.73 527.12 1201.54 534.083 1201.27 541.466C1200.59 541.511 1199.88 541.666 1199.21 541.91C1197.48 542.575 1196.31 543.839 1195.91 545.258C1194.95 545.302 1194 545.502 1193.09 545.879C1192.8 545.989 1192.54 546.122 1192.27 546.277C1187.62 541.377 1179.28 539.582 1172.14 542.331C1171.65 542.508 1171.19 542.708 1170.74 542.929C1170.72 542.286 1170.52 541.621 1170.17 541C1168.75 538.517 1165.16 537.453 1162.12 538.606C1161.14 538.983 1160.34 539.559 1159.75 540.224C1156.26 537.275 1151.36 535.768 1146.4 536.122C1146.51 535.258 1146.35 534.349 1145.87 533.506C1144.45 531.023 1140.85 529.958 1137.84 531.111C1136.8 531.511 1135.95 532.131 1135.36 532.885C1132.27 532.331 1128.97 532.486 1125.84 533.462C1126.31 532.287 1126.27 530.978 1125.58 529.781C1124.16 527.298 1120.57 526.234 1117.55 527.387C1116.33 527.852 1115.4 528.628 1114.8 529.515C1110.26 524.216 1101.59 522.176 1094.18 525.036C1088.71 527.143 1085.27 531.4 1084.69 536.034C1083.23 535.568 1081.52 535.59 1079.99 536.189C1077.73 537.054 1076.42 538.938 1076.51 540.89C1074.43 540.934 1072.34 541.311 1070.32 542.087C1069.79 542.287 1069.26 542.53 1068.77 542.774C1067.29 540.402 1063.78 539.404 1060.84 540.535C1058.37 541.488 1057.04 543.639 1057.42 545.745C1056.36 546.078 1055.31 546.433 1054.29 546.832C1053.85 547.009 1053.39 547.187 1052.96 547.364V545.324C1052.03 544.526 1050.7 544.016 1049.24 544.016C1048.31 544.016 1047.44 544.216 1046.69 544.57C1045.31 541.267 1042.17 538.65 1038.2 537.431C1038.66 536.788 1038.93 536.056 1038.93 535.258C1038.93 532.93 1036.62 531.023 1033.79 531.023C1032.81 531.023 1031.88 531.244 1031.08 531.644C1028.95 530.291 1026.34 529.426 1023.48 529.271C1024.34 528.517 1024.89 527.475 1024.89 526.344C1024.89 524.016 1022.59 522.109 1019.75 522.109C1018.6 522.109 1017.56 522.42 1016.69 522.93C1015.52 517.475 1009.73 513.351 1002.74 513.351C997.578 513.351 993.055 515.613 990.594 519.005C989.663 518.207 988.355 517.719 986.891 517.719C984.763 517.719 982.923 518.783 982.147 520.313C980.528 519.715 978.732 519.404 976.847 519.404C976.338 519.404 975.85 519.426 975.34 519.471C968.112 498.362 940.84 510.735 940.463 519.471C939.975 519.426 939.465 519.404 938.955 519.404C937.071 519.404 935.275 519.737 933.656 520.313C932.88 518.783 931.04 517.719 928.911 517.719C927.47 517.719 926.162 518.207 925.231 519.005C922.748 515.613 918.247 513.351 913.081 513.351C906.119 513.351 900.309 517.497 899.134 522.93C898.27 522.42 897.228 522.109 896.075 522.109C893.237 522.109 890.931 523.994 890.931 526.344C890.931 527.475 891.463 528.495 892.35 529.271C889.512 529.449 886.895 530.291 884.745 531.644C883.969 531.244 883.037 531.023 882.062 531.023C879.224 531.023 876.918 532.907 876.918 535.258C876.918 536.056 877.184 536.788 877.65 537.431C873.681 538.628 870.532 541.267 869.158 544.57C868.404 544.216 867.539 544.016 866.608 544.016C865.144 544.016 863.836 544.526 862.905 545.324V547.364C862.462 547.187 862.018 547.009 861.553 546.832C860.511 546.433 859.468 546.078 858.426 545.745C858.803 543.639 857.473 541.488 855.012 540.535C852.063 539.404 848.56 540.402 847.074 542.774C846.586 542.53 846.054 542.287 845.522 542.087C843.527 541.311 841.42 540.934 839.336 540.89C839.425 538.961 838.139 537.076 835.855 536.189C834.325 535.59 832.618 535.59 831.155 536.034C830.578 531.422 827.164 527.165 821.665 525.036C814.26 522.176 805.59 524.216 801.045 529.515C800.446 528.606 799.515 527.852 798.296 527.387C795.28 526.234 791.688 527.298 790.269 529.781C789.582 530.978 789.538 532.287 790.003 533.462C786.877 532.486 783.573 532.309 780.491 532.885C779.893 532.154 779.05 531.533 778.008 531.111C774.993 529.958 771.401 531.023 769.982 533.506C769.494 534.349 769.339 535.258 769.45 536.122C764.505 535.768 759.583 537.298 756.102 540.224C755.526 539.537 754.705 538.983 753.73 538.606C750.714 537.453 747.122 538.517 745.703 541C745.349 541.621 745.149 542.286 745.127 542.929C744.684 542.708 744.218 542.508 743.73 542.331C736.591 539.582 728.254 541.377 723.598 546.277C723.332 546.122 723.066 546.012 722.777 545.879C721.868 545.502 720.915 545.302 719.962 545.258C719.54 543.839 718.387 542.575 716.636 541.91C715.971 541.643 715.283 541.511 714.574 541.466C713.798 519.537 680.274 517.653 674.731 532.752C674.043 532.708 673.356 532.686 672.669 532.686C670.695 532.686 668.766 532.863 666.926 533.196C666.948 533.085 666.948 532.974 666.948 532.863C666.948 531.621 666.039 530.557 664.731 530.092C664.864 529.582 664.931 529.071 664.931 528.517C664.931 524.304 660.784 520.89 655.64 520.89C653.867 520.89 652.204 521.289 650.807 522.021C649.499 519.094 646.084 517.032 642.093 517.032C638.169 517.032 634.799 519.027 633.446 521.865C630.01 520.557 626.196 519.826 622.183 519.826C616.64 519.826 611.496 521.2 607.217 523.573C605.598 522.885 603.758 522.508 601.829 522.508C597.527 522.508 593.758 524.393 591.696 527.231C590.92 526.566 589.834 526.167 588.614 526.167C586.841 526.167 585.311 527.054 584.668 528.318C583.315 527.83 581.83 527.542 580.255 527.542C579.834 527.542 579.413 527.564 579.014 527.608C578.925 525.724 577.04 524.216 574.735 524.216C572.806 524.216 571.165 525.28 570.633 526.721C569.834 526.677 569.036 526.655 568.216 526.655C565.91 526.655 563.648 526.854 561.476 527.253C561.498 527.12 561.498 527.009 561.498 526.876C561.498 525.413 560.433 524.171 558.904 523.639C559.059 523.041 559.125 522.442 559.125 521.799C559.125 516.854 554.247 512.863 548.239 512.863C547.906 512.863 547.596 512.885 547.285 512.908C545.246 512.353 543.117 511.954 540.922 511.755C538.927 509.67 535.845 508.318 532.364 508.318C528.439 508.296 525.069 509.914 523.118 512.376Z" fill="#6AA69A"/>
<path fill-rule="evenodd" clip-rule="evenodd" d="M0.144531 527.896C0.144531 527.896 173.375 527.896 225.014 527.896C351.883 527.896 331.684 591.82 691.626 591.82C691.626 591.82 641.716 620.889 626.506 623.594C611.296 626.299 0.144531 623.594 0.144531 623.594V527.896Z" fill="#9BC17C"/>
<path fill-rule="evenodd" clip-rule="evenodd" d="M59.566 527.896H90.0083C152.201 533.994 176.479 598.361 308.47 615.035C316.718 616.077 322.638 617.031 326.584 617.918C261.687 598.273 216.766 546.655 154.684 527.896H185.127C257.984 534.504 340.375 599.67 474.45 615.035C558.638 624.68 438.598 627.43 384.831 626.055C364.233 625.523 347.626 623.727 331.174 619.226C346.539 625.457 253.904 627.208 209.893 626.055C193.995 625.634 181.224 624.414 170.249 621.732C156.902 625.922 83.7779 627.031 46.7949 626.055C25.8201 625.501 11.0978 623.528 0.166992 618.517V536.056C53.3135 563.971 30.4984 598.96 150.449 615.035C151.137 615.124 151.78 615.213 152.445 615.301C110.983 594.548 100.629 544.371 59.566 527.896Z" fill="#89B874"/>
<path fill-rule="evenodd" clip-rule="evenodd" d="M523.118 566.122C521.189 563.661 517.819 562.042 513.983 562.042C509.283 562.042 505.291 564.481 503.762 567.896C502.121 567.053 500.17 566.588 498.086 566.588C492.077 566.588 487.199 570.601 487.199 575.523C487.199 576.144 487.288 576.765 487.421 577.364C485.891 577.896 484.827 579.16 484.827 580.601C484.827 580.734 484.827 580.867 484.849 580.978C482.676 580.579 480.437 580.379 478.108 580.379C477.288 580.379 476.49 580.401 475.692 580.446C475.16 579.004 473.519 577.94 471.59 577.94C469.284 577.94 467.377 579.448 467.311 581.333C466.889 581.288 466.49 581.266 466.069 581.266C464.495 581.266 463.009 581.532 461.657 582.02C461.014 580.756 459.484 579.869 457.71 579.869C456.513 579.869 455.404 580.29 454.628 580.933C452.566 578.095 448.797 576.211 444.496 576.211C442.545 576.211 440.704 576.588 439.108 577.275C434.829 574.903 429.685 573.528 424.142 573.528C420.106 573.528 416.293 574.26 412.878 575.568C411.526 572.73 408.156 570.734 404.231 570.734C400.218 570.734 396.826 572.818 395.517 575.723C394.098 575.013 392.458 574.592 390.662 574.592C385.54 574.592 381.372 578.007 381.372 582.22C381.372 582.752 381.438 583.284 381.571 583.794C380.263 584.259 379.354 585.324 379.354 586.565C379.354 586.676 379.354 586.787 379.376 586.898C377.514 586.565 375.607 586.388 373.634 586.388C372.946 586.388 372.259 586.41 371.572 586.454C366.029 571.355 332.504 573.24 331.728 595.168C331.041 595.213 330.332 595.368 329.666 595.612C327.937 596.277 326.762 597.541 326.363 598.96C325.409 599.004 324.456 599.204 323.547 599.581C323.259 599.692 322.993 599.825 322.727 599.98C318.07 595.08 309.734 593.284 302.594 596.033C302.107 596.211 301.641 596.41 301.197 596.632C301.175 595.989 300.998 595.324 300.621 594.703C299.202 592.219 295.61 591.155 292.595 592.308C291.619 592.685 290.799 593.261 290.222 593.949C286.763 591 281.841 589.492 276.875 589.847C276.986 588.982 276.808 588.073 276.342 587.231C274.923 584.747 271.332 583.683 268.294 584.836C267.252 585.235 266.409 585.856 265.811 586.61C262.729 586.055 259.425 586.211 256.299 587.186C256.765 586.011 256.72 584.703 256.033 583.505C254.614 581.022 251.022 579.958 248.007 581.111C246.787 581.577 245.856 582.33 245.257 583.239C240.712 577.94 232.043 575.9 224.637 578.76C219.161 580.867 215.724 585.124 215.148 589.758C213.684 589.293 211.977 589.315 210.447 589.913C208.185 590.778 206.877 592.663 206.966 594.614C204.882 594.636 202.798 595.035 200.78 595.811C200.248 596.011 199.716 596.255 199.228 596.499C197.742 594.126 194.239 593.128 191.29 594.281C188.807 595.235 187.499 597.386 187.876 599.492C186.812 599.825 185.77 600.179 184.75 600.578C184.306 600.756 183.841 600.933 183.419 601.111V599.071C182.488 598.273 181.158 597.763 179.717 597.763C178.785 597.763 177.921 597.962 177.167 598.317C175.792 595.013 172.644 592.397 168.675 591.177C169.14 590.534 169.407 589.802 169.407 589.004C169.407 586.676 167.101 584.769 164.263 584.769C163.265 584.769 162.356 584.991 161.58 585.39C159.451 584.038 156.835 583.173 153.975 583.018C154.862 582.264 155.394 581.222 155.394 580.113C155.394 577.785 153.088 575.878 150.25 575.878C149.097 575.878 148.033 576.189 147.19 576.699C146.015 571.244 140.206 567.12 133.244 567.12C128.078 567.12 123.555 569.382 121.094 572.774C120.162 571.976 118.854 571.488 117.413 571.488C115.284 571.488 113.444 572.552 112.668 574.082C111.05 573.483 109.254 573.173 107.369 573.173C106.859 573.173 106.349 573.195 105.861 573.239C105.773 570.978 103.489 569.16 100.717 569.16C98.3893 569.16 96.416 570.424 95.7952 572.175C94.8418 572.109 93.8662 572.086 92.8906 572.086C90.1191 572.086 87.4142 572.331 84.7979 572.796C84.82 572.641 84.82 572.486 84.82 572.33C84.82 570.579 83.534 569.093 81.6937 568.45C81.8711 567.741 81.9598 567.009 81.9598 566.233C81.9598 560.313 76.1064 555.501 68.9005 555.501C66.395 555.501 64.0669 556.078 62.0936 557.075C60.2533 552.974 55.4642 550.047 49.8325 550.047C44.3116 550.047 39.589 552.863 37.6822 556.832C32.8708 554.991 27.5052 553.971 21.8291 553.971C13.7585 553.971 6.28649 556.056 0.166992 559.603V615.19H521.588H555.378H947.869H967.89H1254.55V576.166C1252.34 577.563 1250.89 579.758 1250.89 582.242C1250.89 582.774 1250.96 583.306 1251.09 583.816C1249.79 584.282 1248.88 585.346 1248.88 586.588C1248.88 586.698 1248.88 586.809 1248.9 586.92C1247.04 586.588 1245.13 586.41 1243.16 586.41C1242.47 586.41 1241.78 586.432 1241.09 586.477C1240.63 585.235 1239.23 584.348 1237.59 584.348C1237.13 584.348 1236.7 584.414 1236.31 584.548V577.563C1229.92 575.08 1222.29 574.858 1215.4 577.519C1206.73 580.867 1201.54 587.851 1201.27 595.213C1200.59 595.257 1199.88 595.412 1199.21 595.656C1197.48 596.321 1196.31 597.585 1195.91 599.004C1194.95 599.049 1194 599.248 1193.09 599.625C1192.8 599.736 1192.54 599.869 1192.27 600.024C1187.62 595.124 1179.28 593.328 1172.14 596.078C1171.65 596.255 1171.19 596.455 1170.74 596.676C1170.72 596.033 1170.52 595.368 1170.17 594.747C1168.75 592.264 1165.16 591.199 1162.12 592.352C1161.14 592.729 1160.34 593.306 1159.75 593.993C1156.26 591.044 1151.36 589.536 1146.4 589.891C1146.51 589.027 1146.35 588.117 1145.87 587.275C1144.45 584.791 1140.85 583.727 1137.84 584.88C1136.8 585.279 1135.95 585.9 1135.36 586.654C1132.27 586.1 1128.97 586.255 1125.84 587.231C1126.31 586.055 1126.27 584.747 1125.58 583.55C1124.16 581.067 1120.57 580.002 1117.55 581.155C1116.33 581.621 1115.4 582.375 1114.8 583.284C1110.26 577.985 1101.59 575.945 1094.18 578.805C1088.71 580.911 1085.27 585.168 1084.69 589.802C1083.23 589.337 1081.52 589.359 1079.99 589.958C1077.73 590.823 1076.42 592.707 1076.51 594.658C1074.43 594.681 1072.34 595.08 1070.32 595.856C1069.79 596.055 1069.26 596.299 1068.77 596.543C1067.29 594.171 1063.78 593.173 1060.84 594.304C1058.37 595.257 1057.04 597.408 1057.42 599.514C1056.36 599.847 1055.31 600.201 1054.29 600.601C1053.85 600.778 1053.39 600.955 1052.96 601.133V599.093C1052.03 598.295 1050.7 597.785 1049.24 597.785C1048.31 597.785 1047.44 597.984 1046.69 598.339C1045.31 595.035 1042.17 592.419 1038.2 591.199C1038.66 590.556 1038.93 589.825 1038.93 589.026C1038.93 586.698 1036.62 584.791 1033.79 584.791C1032.81 584.791 1031.88 585.013 1031.08 585.412C1028.95 584.06 1026.34 583.195 1023.48 583.04C1024.34 582.286 1024.89 581.244 1024.89 580.135C1024.89 577.807 1022.59 575.9 1019.75 575.9C1018.6 575.9 1017.56 576.211 1016.69 576.743C1015.52 571.288 1009.73 567.164 1002.74 567.164C997.578 567.164 993.055 569.426 990.594 572.818C989.663 572.02 988.355 571.532 986.891 571.532C984.763 571.532 982.923 572.597 982.147 574.126C980.528 573.528 978.732 573.217 976.847 573.217C976.338 573.217 975.85 573.24 975.34 573.284C968.112 552.175 940.84 564.548 940.463 573.284C939.975 573.24 939.465 573.217 938.955 573.217C937.071 573.217 935.275 573.55 933.656 574.126C932.88 572.597 931.04 571.532 928.911 571.532C927.47 571.532 926.162 572.02 925.231 572.818C922.748 569.426 918.247 567.164 913.081 567.164C906.119 567.164 900.309 571.31 899.134 576.743C898.27 576.211 897.228 575.9 896.075 575.9C893.237 575.9 890.931 577.807 890.931 580.135C890.931 581.266 891.463 582.286 892.35 583.04C889.512 583.217 886.895 584.06 884.745 585.412C883.969 585.013 883.037 584.791 882.062 584.791C879.224 584.791 876.918 586.676 876.918 589.026C876.918 589.825 877.184 590.556 877.65 591.199C873.681 592.397 870.532 595.035 869.158 598.339C868.404 597.984 867.539 597.785 866.608 597.785C865.144 597.785 863.836 598.295 862.905 599.093V601.133C862.462 600.955 862.018 600.778 861.553 600.601C860.511 600.201 859.468 599.847 858.426 599.514C858.803 597.408 857.473 595.257 855.012 594.304C852.063 593.173 848.56 594.171 847.074 596.543C846.586 596.299 846.054 596.055 845.522 595.856C843.527 595.08 841.42 594.703 839.336 594.658C839.425 592.729 838.139 590.845 835.855 589.958C834.325 589.359 832.618 589.359 831.155 589.802C830.578 585.191 827.164 580.933 821.665 578.805C814.26 575.945 805.59 577.985 801.045 583.284C800.446 582.375 799.515 581.621 798.296 581.155C795.28 580.002 791.688 581.067 790.269 583.55C789.582 584.747 789.538 586.055 790.003 587.231C786.877 586.255 783.573 586.1 780.491 586.654C779.893 585.922 779.05 585.301 778.008 584.88C774.993 583.705 771.401 584.791 769.982 587.275C769.494 588.117 769.339 589.027 769.45 589.891C764.505 589.559 759.583 591.066 756.102 593.993C755.526 593.306 754.705 592.751 753.73 592.352C750.714 591.199 747.122 592.264 745.703 594.747C745.349 595.368 745.149 596.033 745.127 596.676C744.684 596.455 744.218 596.255 743.73 596.078C736.591 593.328 728.254 595.124 723.598 600.024C723.332 599.891 723.066 599.758 722.777 599.625C721.868 599.248 720.915 599.049 719.962 599.004C719.54 597.585 718.387 596.321 716.636 595.656C715.971 595.412 715.283 595.257 714.574 595.213C713.798 573.284 680.274 571.399 674.731 586.499C674.043 586.454 673.356 586.432 672.669 586.432C670.695 586.432 668.766 586.61 666.926 586.942C666.948 586.832 666.948 586.721 666.948 586.61C666.948 585.368 666.039 584.304 664.731 583.838C664.864 583.328 664.931 582.796 664.931 582.264C664.931 578.051 660.784 574.636 655.64 574.636C653.867 574.636 652.204 575.058 650.807 575.767C649.499 572.863 646.084 570.778 642.093 570.778C638.169 570.778 634.799 572.774 633.446 575.612C630.01 574.304 626.196 573.572 622.183 573.572C616.64 573.572 611.496 574.969 607.217 577.319C605.598 576.632 603.758 576.255 601.829 576.255C597.527 576.255 593.758 578.14 591.696 580.978C590.92 580.313 589.834 579.914 588.614 579.914C586.841 579.914 585.311 580.8 584.668 582.064C583.315 581.576 581.83 581.31 580.255 581.31C579.834 581.31 579.413 581.333 579.014 581.377C578.925 579.492 577.04 577.984 574.735 577.984C572.806 577.984 571.165 579.049 570.633 580.49C569.834 580.446 569.036 580.423 568.216 580.423C565.91 580.423 563.648 580.623 561.476 581.022C561.498 580.889 561.498 580.778 561.498 580.645C561.498 579.182 560.433 577.94 558.904 577.408C559.059 576.809 559.125 576.189 559.125 575.568C559.125 570.623 554.247 566.632 548.239 566.632C547.906 566.632 547.596 566.632 547.285 566.676C545.246 566.122 543.117 565.723 540.922 565.523C538.927 563.439 535.845 562.087 532.364 562.087C528.439 562.02 525.069 563.661 523.118 566.122Z" fill="#50877D"/>
<path fill-rule="evenodd" clip-rule="evenodd" d="M1254.53 681.354L393.123 649.603C367.159 655.057 342.149 661.177 318.27 667.984C191.867 704.103 144.707 756.852 393.522 801.464C445.027 810.688 498.484 817.273 551.32 822.461C624.533 829.645 698.565 834.302 772.177 837.628C869.468 842.018 966.958 844.058 1064.09 844.767C1127.64 845.233 1191.12 845.122 1254.55 844.545V681.354H1254.53Z" fill="#78A241"/>
<path fill-rule="evenodd" clip-rule="evenodd" d="M1254.53 610.956C963.078 597.297 590.853 590.025 334.389 656.21C206.012 689.336 153.775 737.983 393.522 779.734C443.165 788.382 495.003 794.545 546.398 799.446C617.593 806.23 689.896 810.687 761.933 813.902C857.118 818.159 952.813 820.244 1048.26 821.086C1117.02 821.707 1185.8 821.663 1254.55 821.153V610.956H1254.53Z" fill="#8DB031"/>
<path fill-rule="evenodd" clip-rule="evenodd" d="M1254.53 651.798L1067.49 644.902C1047.31 649.802 1049.62 655.323 1112.85 665.478C1244.62 686.675 1258.43 698.648 1144.18 725.367C1029.93 752.085 885.276 729.979 885.276 729.979C885.276 729.979 900.642 737.562 926.672 748.16C935.496 748.626 944.299 749.047 953.123 749.446C1013.92 752.196 1074.85 753.46 1135.53 753.903C1175.24 754.191 1214.91 754.125 1254.55 753.77V651.798H1254.53Z" fill="#9BC17C"/>
<path fill-rule="evenodd" clip-rule="evenodd" d="M1254.53 607.807C1223.8 606.366 1191.61 605.035 1158.59 604.038C1180.54 608.273 1156.22 621.399 1114.71 627.829C1043.83 638.804 939.554 645.257 1051.12 663.194C1182.89 684.392 1217.3 708.294 1144.18 725.389C1071.06 742.484 1077.82 736.519 1044.92 737.894C1071.81 738.493 1098.75 738.892 1125.62 739.136C1168.59 739.513 1211.56 739.513 1254.53 739.18V607.807V607.807Z" fill="#B3D09E"/>
<path fill-rule="evenodd" clip-rule="evenodd" d="M384.431 659.137C385.917 659.137 387.114 661.62 387.114 664.658C387.114 667.717 385.917 670.201 384.431 670.201C382.946 670.201 381.749 667.717 381.749 664.658C381.749 661.62 382.946 659.137 384.431 659.137Z" fill="#568831"/>
<path fill-rule="evenodd" clip-rule="evenodd" d="M394.475 660.755C395.761 661.487 395.561 664.236 394.032 666.897C392.502 669.535 390.218 671.088 388.932 670.356C387.646 669.624 387.846 666.875 389.375 664.214C390.905 661.553 393.189 660.001 394.475 660.755Z" fill="#568831"/>
<path fill-rule="evenodd" clip-rule="evenodd" d="M374.188 660.755C372.902 661.487 373.101 664.236 374.631 666.897C376.161 669.535 378.445 671.088 379.731 670.356C381.017 669.624 380.817 666.875 379.287 664.214C377.758 661.553 375.474 660.001 374.188 660.755Z" fill="#568831"/>
<path fill-rule="evenodd" clip-rule="evenodd" d="M515.092 626.875C516.577 626.875 517.774 629.359 517.774 632.419C517.774 635.479 516.577 637.962 515.092 637.962C513.606 637.962 512.409 635.479 512.409 632.419C512.409 629.359 513.606 626.875 515.092 626.875Z" fill="#568831"/>
<path fill-rule="evenodd" clip-rule="evenodd" d="M525.135 628.494C526.421 629.248 526.222 631.975 524.692 634.636C523.162 637.275 520.878 638.826 519.592 638.095C518.306 637.363 518.506 634.614 520.036 631.953C521.565 629.292 523.849 627.762 525.135 628.494Z" fill="#568831"/>
<path fill-rule="evenodd" clip-rule="evenodd" d="M504.87 628.494C503.584 629.248 503.784 631.975 505.313 634.636C506.843 637.275 509.127 638.826 510.413 638.095C511.699 637.363 511.5 634.614 509.97 631.953C508.44 629.292 506.156 627.762 504.87 628.494Z" fill="#568831"/>
<path fill-rule="evenodd" clip-rule="evenodd" d="M263.283 710.111C264.768 710.111 265.966 712.595 265.966 715.655C265.966 718.715 264.768 721.198 263.283 721.198C261.797 721.198 260.6 718.715 260.6 715.655C260.6 712.595 261.797 710.111 263.283 710.111Z" fill="#9BC17C"/>
<path fill-rule="evenodd" clip-rule="evenodd" d="M273.327 711.73C274.613 712.484 274.413 715.211 272.883 717.872C271.353 720.511 269.069 722.063 267.784 721.331C266.498 720.599 266.697 717.85 268.227 715.189C269.757 712.528 272.041 710.998 273.327 711.73Z" fill="#9BC17C"/>
<path fill-rule="evenodd" clip-rule="evenodd" d="M253.061 711.73C251.775 712.484 251.975 715.211 253.505 717.872C255.035 720.511 257.318 722.063 258.604 721.331C259.89 720.599 259.691 717.85 258.161 715.189C256.609 712.528 254.325 710.998 253.061 711.73Z" fill="#9BC17C"/>
<path fill-rule="evenodd" clip-rule="evenodd" d="M435.028 689.047C436.514 689.047 437.711 691.531 437.711 694.591C437.711 697.651 436.514 700.134 435.028 700.134C433.542 700.134 432.345 697.651 432.345 694.591C432.345 691.531 433.542 689.047 435.028 689.047Z" fill="#568831"/>
<path fill-rule="evenodd" clip-rule="evenodd" d="M445.072 690.666C446.358 691.42 446.158 694.147 444.628 696.808C443.098 699.447 440.815 700.999 439.529 700.267C438.243 699.535 438.442 696.786 439.972 694.125C441.502 691.464 443.786 689.912 445.072 690.666Z" fill="#568831"/>
<path fill-rule="evenodd" clip-rule="evenodd" d="M424.784 690.666C423.498 691.42 423.698 694.147 425.228 696.808C426.758 699.447 429.041 700.999 430.327 700.267C431.613 699.535 431.414 696.786 429.884 694.125C428.354 691.464 426.07 689.912 424.784 690.666Z" fill="#568831"/>
<path fill-rule="evenodd" clip-rule="evenodd" d="M1030.37 609.625C1031.17 609.625 1031.79 610.933 1031.79 612.574C1031.79 614.192 1031.15 615.523 1030.37 615.523C1029.57 615.523 1028.95 614.215 1028.95 612.574C1028.95 610.933 1029.57 609.625 1030.37 609.625Z" fill="#568831"/>
<path fill-rule="evenodd" clip-rule="evenodd" d="M1035.71 610.468C1036.4 610.867 1036.29 612.33 1035.49 613.727C1034.67 615.146 1033.47 615.944 1032.79 615.567C1032.1 615.168 1032.21 613.705 1033.03 612.308C1033.81 610.889 1035.03 610.068 1035.71 610.468Z" fill="#568831"/>
<path fill-rule="evenodd" clip-rule="evenodd" d="M1024.94 610.468C1024.25 610.867 1024.36 612.33 1025.18 613.727C1026 615.146 1027.2 615.944 1027.89 615.567C1028.57 615.168 1028.46 613.705 1027.67 612.308C1026.82 610.889 1025.63 610.068 1024.94 610.468Z" fill="#568831"/>
<path fill-rule="evenodd" clip-rule="evenodd" d="M1086.22 612.773C1087.02 612.773 1087.64 614.082 1087.64 615.723C1087.64 617.341 1087 618.671 1086.22 618.671C1085.42 618.671 1084.8 617.363 1084.8 615.723C1084.78 614.104 1085.42 612.773 1086.22 612.773Z" fill="#568831"/>
<path fill-rule="evenodd" clip-rule="evenodd" d="M1091.54 613.638C1092.23 614.037 1092.12 615.501 1091.32 616.898C1090.5 618.317 1089.3 619.115 1088.62 618.738C1087.93 618.339 1088.04 616.875 1088.86 615.479C1089.66 614.059 1090.86 613.239 1091.54 613.638Z" fill="#568831"/>
<path fill-rule="evenodd" clip-rule="evenodd" d="M1080.77 613.638C1080.08 614.037 1080.19 615.501 1081.01 616.898C1081.83 618.317 1083.03 619.115 1083.72 618.738C1084.4 618.339 1084.29 616.875 1083.49 615.479C1082.67 614.059 1081.46 613.239 1080.77 613.638Z" fill="#568831"/>
<path fill-rule="evenodd" clip-rule="evenodd" d="M925.275 699.336C939.975 680.511 966.205 673.638 988.754 684.192C990.262 684.902 991.725 685.677 993.144 686.498C993.233 684.014 993.809 681.509 994.94 679.092C999.396 669.558 1010.75 665.456 1020.26 669.935C1023.36 671.376 1025.89 673.571 1027.73 676.188C1038.66 664.924 1054.16 659.114 1069.77 660.445C1069.42 657.119 1069.95 653.66 1071.48 650.423C1075.93 640.889 1087.29 636.787 1096.8 641.243C1100.1 642.795 1102.76 645.168 1104.63 648.028C1114.36 645.877 1124.76 646.476 1134.62 650.245C1133.14 645.766 1133.29 640.755 1135.44 636.144C1139.9 626.609 1151.25 622.507 1160.76 626.964C1164.6 628.76 1167.57 631.687 1169.43 635.146C1183.78 614.791 1211.1 607.031 1234.42 617.962C1241.09 621.088 1246.79 625.434 1251.38 630.623V757.65H863.903C863.903 757.628 872.905 724.99 908.247 728.582C908.247 728.582 900.088 700.644 925.275 699.336Z" fill="#3E6A23"/>
<path fill-rule="evenodd" clip-rule="evenodd" d="M1254.2 519.782C1253.49 519.804 1252.78 519.804 1252.07 519.804C1227.84 519.804 1205.35 512.376 1186.75 499.693C1175.07 513.994 1157.31 523.107 1137.4 523.107C1102.21 523.107 1073.67 494.571 1073.67 459.383C1073.67 453.574 1074.45 447.964 1075.91 442.62C1073.67 442.975 1071.37 443.152 1069.02 443.152C1044.78 443.152 1025.16 423.508 1025.16 399.273C1025.16 392.51 1026.69 386.124 1029.42 380.404C1027.4 381.091 1025.25 381.446 1023.01 381.446C1011.97 381.446 1003.03 372.51 1003.03 361.468C1003.03 358.719 1003.59 356.08 1004.61 353.708C982.368 350.87 965.163 331.868 965.163 308.852C965.163 295.903 970.595 284.241 979.308 275.992C967.491 264.684 960.129 248.786 960.129 231.137C960.129 197.545 986.825 170.184 1020.17 169.12C1019.84 167.146 1019.68 165.106 1019.68 163.044C1019.68 142.335 1036.49 125.528 1057.2 125.528C1057.55 125.528 1057.93 125.528 1058.29 125.55C1058.29 125.373 1058.29 125.173 1058.29 124.996C1058.29 98.189 1080.01 76.4599 1106.82 76.4599C1108.04 76.4599 1109.26 76.5041 1110.46 76.5928C1110.21 74.2868 1110.1 71.9586 1110.1 69.5861C1110.1 31.6708 1140.83 0.917236 1178.77 0.917236C1204.4 0.917236 1226.75 14.9747 1238.54 35.7949C1243.05 31.959 1248.37 29.0546 1254.2 27.3694V519.782Z" fill="#47721F"/>
<path fill-rule="evenodd" clip-rule="evenodd" d="M1144.22 408.518C1121.92 406.944 1105.13 387.587 1106.71 365.282C1107.15 359.073 1108.97 353.264 1111.85 348.187C1109.97 348.674 1107.95 348.896 1105.89 348.741C1095.73 348.031 1088.08 339.207 1088.79 329.051C1088.97 326.524 1089.66 324.129 1090.75 322.001C1070.46 317.943 1055.87 299.34 1057.35 278.143C1058.2 266.236 1063.96 255.837 1072.52 248.831C1062.39 237.656 1056.64 222.534 1057.8 206.303C1059.99 175.372 1086.36 151.936 1117.11 153.133C1116.93 151.293 1116.91 149.408 1117.04 147.501C1118.39 128.433 1134.93 114.065 1154 115.417C1154.33 115.439 1154.69 115.462 1155 115.506C1155 115.329 1155.02 115.173 1155.02 114.996C1156.77 90.3176 1178.19 71.7369 1202.87 73.4886C1204 73.5772 1205.11 73.6882 1206.22 73.8434C1206.15 71.7148 1206.2 69.5418 1206.35 67.3689C1207.64 49.3868 1216.28 33.6663 1229.17 23.0234C1216.62 9.45369 1198.66 0.939453 1178.72 0.939453C1140.81 0.939453 1110.06 31.6708 1110.06 69.6083C1110.06 71.9808 1110.17 74.309 1110.41 76.615C1109.21 76.5263 1107.99 76.4818 1106.78 76.4818C1079.97 76.4818 1058.24 98.2111 1058.24 125.018C1058.24 125.195 1058.24 125.395 1058.24 125.572C1057.89 125.572 1057.51 125.55 1057.15 125.55C1036.45 125.55 1019.64 142.335 1019.64 163.066C1019.64 165.128 1019.82 167.168 1020.13 169.142C986.78 170.206 960.085 197.545 960.085 231.159C960.085 248.786 967.446 264.706 979.264 276.014C970.55 284.263 965.118 295.925 965.118 308.874C965.118 331.89 982.324 350.892 1004.56 353.73C1003.54 356.124 1002.99 358.741 1002.99 361.49C1002.99 372.51 1011.95 381.468 1022.96 381.468C1025.2 381.468 1027.36 381.113 1029.37 380.426C1026.65 386.146 1025.12 392.554 1025.12 399.295C1025.12 423.53 1044.76 443.174 1068.97 443.174C1071.32 443.174 1073.63 442.997 1075.87 442.642C1074.43 447.986 1073.63 453.618 1073.63 459.405C1073.63 494.593 1102.16 523.129 1137.35 523.129C1157.26 523.129 1175.02 513.994 1186.71 499.715C1196.15 506.167 1206.59 511.245 1217.77 514.704L1218.92 485.325C1213.47 486.544 1207.75 487.01 1201.87 486.589C1169.48 484.305 1145.09 456.168 1147.37 423.795C1147.75 418.452 1148.84 413.33 1150.52 408.496C1148.5 408.652 1146.37 408.674 1144.22 408.518Z" fill="#578A17"/>
<path fill-rule="evenodd" clip-rule="evenodd" d="M1250.03 323.153L1254.22 319.295V290.382L1248.9 294.262L1242.49 131.692C1242.38 129.142 1240.3 127.125 1237.72 127.125C1235.17 127.125 1233.07 129.142 1232.96 131.692L1222.62 393.397L1107.29 309.162C1105.25 307.677 1102.39 308.032 1100.79 309.983C1099.19 311.934 1099.39 314.794 1101.23 316.502L1221.29 427.077L1208.43 752.661C1208.39 754.014 1208.83 755.189 1209.77 756.164C1210.7 757.14 1211.85 757.628 1213.2 757.628H1254.22V429.05L1250.03 323.153Z" fill="#AA7742"/>
<path fill-rule="evenodd" clip-rule="evenodd" d="M1057.29 757.65C1056.51 755.455 1056.09 753.083 1056.09 750.622C1056.09 738.892 1065.6 729.38 1077.33 729.38C1079.42 729.38 1081.41 729.668 1083.32 730.245C1084.85 724.369 1090.19 720.023 1096.55 720.023C1098.71 720.023 1100.74 720.511 1102.56 721.42C1103.69 718.493 1106.04 716.143 1108.97 715.012C1108.04 713.083 1107.53 710.932 1107.53 708.649C1107.53 700.977 1113.36 694.68 1120.83 693.926C1120.57 692.485 1120.43 691.021 1120.43 689.514C1120.43 676.232 1131.19 665.478 1144.47 665.478C1155.38 665.478 1164.58 672.729 1167.53 682.662C1168.75 682.352 1170.01 682.196 1171.3 682.196C1176.44 682.196 1180.99 684.724 1183.76 688.604C1185.69 685.589 1189.06 683.593 1192.89 683.593C1196.79 683.593 1200.23 685.655 1202.14 688.759C1204.22 688.139 1206.42 687.806 1208.68 687.806C1220.52 687.806 1230.27 696.697 1231.65 708.183C1238.19 708.781 1243.33 714.28 1243.33 720.977C1243.33 722.839 1242.93 724.591 1242.23 726.187H1242.38C1246.95 726.187 1251.12 727.961 1254.2 730.866V756.098C1253.6 756.652 1252.96 757.185 1252.27 757.65H1057.29V757.65Z" fill="#94D04F"/>
<path fill-rule="evenodd" clip-rule="evenodd" d="M1198.97 205.948C1198.97 205.948 1201.21 180.228 1182.07 179.119C1174.8 196.835 1198.97 205.948 1198.97 205.948Z" fill="#578A17"/>
<path fill-rule="evenodd" clip-rule="evenodd" d="M1178.52 204.352C1178.52 204.352 1169.23 185.949 1155.78 193.244C1158.28 208.343 1178.52 204.352 1178.52 204.352Z" fill="#578A17"/>
<path fill-rule="evenodd" clip-rule="evenodd" d="M1186.73 68.2781C1186.73 68.2781 1181.78 33.6221 1156.18 38.0345C1152.03 63.6883 1186.73 68.2781 1186.73 68.2781Z" fill="#47721F"/>
<path fill-rule="evenodd" clip-rule="evenodd" d="M1186.73 46.5488C1186.73 46.5488 1200.1 28.6554 1186.55 19.0989C1173.09 28.8327 1186.73 46.5488 1186.73 46.5488Z" fill="#47721F"/>
<path fill-rule="evenodd" clip-rule="evenodd" d="M1025.91 226.813C1025.91 226.813 1001.64 218.033 1008.66 200.206C1027.82 201.07 1025.91 226.813 1025.91 226.813Z" fill="#47721F"/>
<path fill-rule="evenodd" clip-rule="evenodd" d="M1029.84 207.456C1029.84 207.456 1017.05 191.292 1029.33 182.135C1041.95 190.782 1029.84 207.456 1029.84 207.456Z" fill="#47721F"/>
<path fill-rule="evenodd" clip-rule="evenodd" d="M1058.44 374.106C1058.44 374.106 1083.1 366.479 1076.91 348.319C1057.75 348.297 1058.44 374.106 1058.44 374.106Z" fill="#47721F"/>
<path fill-rule="evenodd" clip-rule="evenodd" d="M1055.65 362.244C1055.65 362.244 1059.04 341.911 1043.87 339.827C1036.98 353.463 1055.65 362.244 1055.65 362.244Z" fill="#47721F"/>
<path fill-rule="evenodd" clip-rule="evenodd" d="M1092.1 59.3423C1092.1 59.3423 1098.68 34.3758 1080.01 30.0078C1069.84 46.2604 1092.1 59.3423 1092.1 59.3423Z" fill="#47721F"/>
<path fill-rule="evenodd" clip-rule="evenodd" d="M1074.18 58.0563C1074.18 58.0563 1056.27 47.8566 1049.08 61.3823C1059.53 72.5576 1074.18 58.0563 1074.18 58.0563Z" fill="#47721F"/>
<path fill-rule="evenodd" clip-rule="evenodd" d="M961.948 275.061C961.948 275.061 944.032 264.862 936.849 278.387C947.314 289.562 961.948 275.061 961.948 275.061Z" fill="#47721F"/>
<path fill-rule="evenodd" clip-rule="evenodd" d="M945.541 249.673C945.541 249.673 943.789 223.908 924.699 225.771C920.264 244.418 945.541 249.673 945.541 249.673Z" fill="#47721F"/>
<path fill-rule="evenodd" clip-rule="evenodd" d="M1003.74 404.195C1003.74 404.195 980.928 416.279 990.373 432.953C1009.2 429.427 1003.74 404.195 1003.74 404.195Z" fill="#47721F"/>
<path fill-rule="evenodd" clip-rule="evenodd" d="M964.764 398.452C964.764 398.452 946.849 388.252 939.665 401.778C950.108 412.953 964.764 398.452 964.764 398.452Z" fill="#47721F"/>
<path fill-rule="evenodd" clip-rule="evenodd" d="M1123.45 537.453C1123.45 537.453 1111.72 560.468 1129.04 568.672C1142.43 554.969 1123.45 537.453 1123.45 537.453Z" fill="#47721F"/>
<path fill-rule="evenodd" clip-rule="evenodd" d="M1090.08 576.3C1090.08 576.3 1072.17 566.1 1064.98 579.625C1075.42 590.8 1090.08 576.3 1090.08 576.3Z" fill="#47721F"/>
<path fill-rule="evenodd" clip-rule="evenodd" d="M1063.12 473.13C1063.12 473.13 1037.47 470.292 1035.89 489.405C1053.47 497.076 1063.12 473.13 1063.12 473.13Z" fill="#47721F"/>
<path fill-rule="evenodd" clip-rule="evenodd" d="M1040.02 500.203C1040.02 500.203 1032.59 519.426 1047 524.548C1056.51 512.553 1040.02 500.203 1040.02 500.203Z" fill="#47721F"/>
<path fill-rule="evenodd" clip-rule="evenodd" d="M1254.2 656.72C1250.61 660.113 1247.92 664.414 1246.48 669.248C1245.06 668.893 1243.56 668.694 1242.03 668.694C1235.97 668.694 1230.61 671.664 1227.33 676.254C1225.06 672.707 1221.07 670.356 1216.55 670.356C1211.94 670.356 1207.9 672.795 1205.66 676.454C1203.22 675.722 1200.63 675.345 1197.95 675.345C1184 675.345 1172.49 685.833 1170.9 699.336C1163.18 700.046 1157.15 706.52 1157.15 714.414C1157.15 716.609 1157.62 718.671 1158.46 720.556H1158.28C1147.02 720.556 1137.91 729.668 1137.91 740.932C1137.91 747.85 1141.34 753.97 1146.62 757.65H1254.22V656.72H1254.2Z" fill="#568831"/>
<path fill-rule="evenodd" clip-rule="evenodd" d="M992.9 739.535C983.454 727.717 966.781 723.548 952.591 730.4C951.638 730.865 950.706 731.353 949.819 731.885C949.731 730.311 949.354 728.715 948.622 727.207C945.718 721.198 938.512 718.693 932.503 721.597C930.552 722.528 928.978 723.947 927.825 725.61C920.818 718.559 910.952 714.99 901.085 715.943C901.285 713.837 900.93 711.642 899.932 709.602C897.05 703.593 889.822 701.087 883.835 703.97C881.751 704.968 880.088 706.498 878.935 708.316C872.749 707.03 866.164 707.473 859.956 709.934C860.865 707.096 860.732 703.903 859.335 700.999C856.431 694.99 849.225 692.484 843.238 695.367C840.821 696.542 838.959 698.405 837.806 700.622C828.56 687.828 811.222 683.105 796.499 690.201C785.613 695.456 778.895 705.877 777.875 717.096C774.926 716.01 771.556 716.098 768.496 717.562C763.995 719.735 761.445 724.347 761.689 729.047C757.543 729.18 753.353 730.156 749.384 732.085C748.32 732.595 747.277 733.171 746.302 733.792C743.286 728.072 736.258 725.721 730.404 728.559C725.504 730.932 722.91 736.187 723.731 741.309C721.646 742.129 719.562 743.038 717.5 744.036C716.613 744.457 715.727 744.923 714.84 745.366C714.84 745.366 691.67 735.721 686.947 758.271C706.88 761.397 727.123 763.858 747.277 765.942C790.313 770.377 834.015 773.082 877.561 774.856C900.597 775.787 923.701 776.474 946.804 776.94L1032.26 775.942C1032.26 775.942 1026.34 755.322 1003.96 757.849C1003.9 757.938 1008.86 740.2 992.9 739.535Z" fill="#568831"/>
</svg>
