<svg width="332" height="436" viewBox="0 0 332 436" fill="none" xmlns="http://www.w3.org/2000/svg">
<path d="M275 175.59C268.05 196.38 253.03 217.57 224.88 237.36H224.87C219.18 241.37 212.94 245.32 206.12 249.2C198.78 253.38 190.75 257.47 182.02 261.45L177.22 262.76C140.59 274.97 156.89 211.45 156.89 211.45C163.74 207.89 170.21 203.64 175.91 198.46C184.59 190.56 191.29 180.53 195.42 169.55C201.15 154.29 202.56 135.49 197.02 119.49C195.09 113.91 192.3 108.67 188.56 104.04C186.31 100.94 183.26 95.74 185.9 92C186.61 91.01 187.64 90.33 188.68 89.74C189.8 89.12 190.87 88.41 191.97 87.75C198.29 83.97 204.88 80.64 211.64 77.73C222.95 72.86 239.7 66.38 251.49 73.31C265.19 81.37 256.9 99.24 264.96 110.27C267.24 113.41 270.73 115.55 272.86 118.8C274.97 122.04 275.52 126.03 275.83 129.88C276.95 143.93 275.59 158.06 274.02 172.06C274.02 172.06 273.36 174.75 275 175.59Z" fill="#EFD3D7" stroke="black" stroke-width="0.25" stroke-miterlimit="10"/>
<path d="M262 73.5C243.87 35.1 179.03 88.72 179.03 88.72C178.42 87.89 177.59 87.09 176.62 86.31C171.2 81.98 161.52 78.75 161.52 78.75C161.52 74.39 153.67 46.48 139.72 54.33C135.29 56.82 134.46 60.1 135.39 63.43C135.43 63.48 135.46 63.53 135.44 63.6C137.52 70.56 147.21 77.63 147.55 77.88C147.16 77.71 134.49 72.02 125.58 72.6H125.55C122.49 72.8 119.87 73.74 118.36 75.91C118.36 75.91 118.36 75.91 118.35 75.91C117.45 75.94 52.9999 77.76 65.3499 153.87C60.7799 154.27 56.2099 154.25 51.7499 153.7C43.8499 152.73 36.0199 149.55 31.6299 142.57C24.8499 131.81 27.0699 117.27 31.1199 105.96C35.7899 92.94 46.6199 78.24 37.6599 64.8C37.6599 64.8 45.1899 56.58 42.0599 51.07C41.6499 50.36 41.0699 49.69 40.2799 49.1C37.9299 47.33 36.0699 47.45 34.6399 48.39C34.6299 48.4 34.6299 48.4 34.6299 48.4C31.8299 50.24 30.6899 55.2 30.6899 55.2C30.6899 55.2 28.9499 61.3 20.2199 56.94C11.4899 52.58 5.38993 63.04 9.74993 65.66C11.9399 66.97 14.2199 67.88 16.1899 69.03C18.8799 70.6 20.9999 72.63 21.4999 76.82C22.2599 83.26 18.8199 90.38 15.6699 95.74C12.1499 101.75 8.01993 107.1 4.99993 113.3C4.22993 114.87 3.52993 116.5 2.92993 118.2C1.99993 120.87 1.25993 123.6 0.789929 126.39C-2.58007 146.34 6.19993 167.27 20.8099 181.35C20.8099 181.35 20.8099 181.35 20.8099 181.36C25.7899 186.16 31.4499 190.16 37.5499 193.05C52.5599 200.19 69.0199 200.99 85.0399 198.15C85.0799 198.07 85.0999 198.03 85.0999 198.03C85.1199 198.06 85.1399 198.1 85.1599 198.13C87.1699 201.4 87.0599 205.57 86.2899 209.33C85.5399 213 84.3099 216.55 83.7999 220.27C83.6399 221.42 83.7199 222.68 84.4299 223.6C85.0599 224.42 86.0799 224.83 87.0599 225.15C91.2199 226.53 95.5099 226.82 99.8599 226.75C105.74 226.65 111.57 226 117.35 224.94C125.15 223.5 132.8 221.29 140.26 218.61C145.92 216.56 151.5 214.21 156.85 211.45C163.7 207.89 170.17 203.64 175.87 198.46C184.55 190.56 191.25 180.53 195.38 169.55C201.11 154.29 202.52 135.49 196.98 119.49C195.05 113.91 192.26 108.67 188.52 104.04C186.27 100.94 183.22 95.74 185.86 92C186.57 91.01 187.6 90.33 188.64 89.74C189.76 89.12 190.83 88.41 191.93 87.75C198.25 83.97 204.84 80.64 211.6 77.73C222.91 72.86 239.66 66.38 251.45 73.31C265.15 81.37 256.86 99.24 264.92 110.27C267.2 113.41 270.69 115.55 272.82 118.8C274.93 122.04 275.48 126.03 275.79 129.88C276.91 143.93 275.55 158.06 273.98 172.06C273.98 172.06 273.33 174.75 274.97 175.58C288.25 135.98 272.25 97.8 262 73.5ZM92.6299 90.96C95.4599 90.34 98.3999 90.03 101.31 89.9C105.85 89.72 115.59 89.75 116.25 96.1C116.35 97.14 115.99 98.25 115.16 98.88C114.34 99.5 113.2 99.57 112.21 99.28C111.22 98.99 110.35 98.4 109.52 97.79C107.69 96.44 105.69 95.33 103.61 94.41C101.91 93.67 100.14 93.07 98.3199 92.74C97.8299 92.64 92.6299 92.13 92.6299 92.7V90.96ZM83.7299 130.04C81.5599 128.99 80.0599 126.87 79.2599 124.59C78.2299 121.65 78.2499 118.39 79.0999 115.39C79.9599 112.4 81.6499 109.67 83.7899 107.41C86.6899 104.35 90.9799 101.77 95.3499 102.55C97.4299 102.92 99.3099 104.02 100.77 105.52C102.11 106.9 103.11 108.63 103.6 110.47C104.56 114.05 103.79 117.98 101.92 121.18C100.05 124.39 97.1499 126.9 93.9099 128.72C90.8099 130.46 86.9399 131.59 83.7299 130.04ZM139.72 183.4C139.72 183.4 138.75 185.62 136.89 188.95C131.47 198.62 118.44 217.64 99.6099 218.29C99.6099 218.29 98.8999 218.4 98.0099 218.3C96.4799 218.11 94.3699 217.24 94.3699 213.93C94.3699 213.93 96.7599 196.49 92.9499 196.49C101.18 194.44 109.21 191.53 116.78 188.14C122.81 185.44 128.7 182.38 134.43 179.09C135.97 181.1 138.01 182.18 140.05 182.7L139.72 183.4ZM157.99 147.59C156.31 150.9 153.56 153.58 150.44 155.58C147.44 157.51 143.64 158.85 140.34 157.49C138.11 156.57 136.49 154.53 135.55 152.31C134.36 149.43 134.17 146.18 134.86 143.14C135.54 140.11 137.06 137.28 139.06 134.9C141.77 131.67 145.91 128.85 150.32 129.37C152.42 129.61 154.37 130.6 155.92 132.02C157.34 133.32 158.43 134.99 159.03 136.8C160.21 140.32 159.68 144.28 157.99 147.59ZM169.38 133.69C168.11 132.1 166.55 130.72 165.04 129.39C160.93 125.76 156.01 122.9 152.49 118.66C151.71 117.72 150.96 116.57 151.16 115.36C151.31 114.44 152 113.66 152.83 113.26C153.67 112.87 154.64 112.81 155.56 112.93C159.76 113.5 163.21 117.42 165.44 120.74C167.93 124.44 169.66 128.61 171.13 132.81L169.38 133.69Z" fill="#CBC0D3" stroke="black" stroke-width="0.25" stroke-miterlimit="10"/>
<path d="M140.06 182.68L139.73 183.4C139.73 183.4 138.76 185.62 136.9 188.95C132.32 197.1 120.55 193.87 108.34 198.23C96.13 202.59 98.02 218.3 98.02 218.3C96.49 218.11 94.38 217.24 94.38 213.93C94.38 213.93 96.77 196.49 92.96 196.49C101.19 194.44 109.22 191.53 116.79 188.14C122.82 185.44 128.71 182.38 134.44 179.09C135.98 181.09 138.02 182.16 140.06 182.68Z" fill="#8C0003" stroke="black" stroke-width="0.25" stroke-miterlimit="10"/>
<path d="M182.82 432.99C166.9 424.4 152.6 395.18 165.9 382.02C165.9 382.02 167.13 382.03 169.15 382.41C169.18 383.94 169.47 385.44 170.35 386.67C171.54 388.34 173.63 389.41 175.7 389.18C177.38 389 179.04 388.05 180.33 386.72C181.45 387.38 182.59 388.15 183.73 389.02C182.68 390.74 182.29 392.94 182.97 394.53C183.35 395.42 184.06 396.14 184.85 396.7C185.62 397.23 186.51 397.64 187.44 397.71C188.81 397.81 190.07 397.22 191.21 396.49C194.13 400.26 196.84 405.01 199.02 410.99C209.28 439.22 183.84 433.25 182.82 432.99Z" fill="#FEEAFA" stroke="black" stroke-width="0.25" stroke-miterlimit="10"/>
<path d="M169.39 379.34C169.23 380.32 169.13 381.37 169.15 382.42C167.13 382.04 165.9 382.03 165.9 382.03C166.91 381.03 168.07 380.14 169.39 379.34Z" fill="#CBC0D3" stroke="black" stroke-width="0.25" stroke-miterlimit="10"/>
<path d="M279.51 323.42C278.98 332.53 276.58 341.44 272.86 349.75C272.7 350.11 272.55 350.46 272.38 350.81C270.67 354.51 268.67 358.04 266.5 361.46C265.54 362.96 264.66 364.49 263.7 365.94C262.55 367.7 261.28 369.37 259.64 370.79C257 373.07 253.76 374.51 250.96 376.55C247.9 378.79 245.01 381.41 242.34 384.08C238.91 387.49 235.69 391.33 232.99 395.34C230.3 399.36 228.59 403.92 226.73 408.35C225.36 411.61 223.87 414.84 221.91 417.79C219.9 420.81 217.24 423.36 214.62 425.85C210.7 429.57 206.14 432.84 200.97 434.58C195.42 436.45 189.52 436.15 184.2 433.69C183.74 433.48 183.28 433.25 182.82 432.99C183.84 433.24 209.28 439.22 199.02 411.01C196.84 405.03 194.14 400.27 191.21 396.51C191.38 396.39 191.56 396.27 191.73 396.15C192.9 395.34 194.08 394.57 195.13 393.59C197.03 391.84 198.97 389.13 197.27 386.59C195.36 383.72 191.39 383.92 189.06 386.16C188.96 386.26 188.85 386.37 188.72 386.43C188.67 386.46 188.61 386.47 188.54 386.48C188.38 386.5 188.22 386.47 188.05 386.45C186.26 386.27 184.71 387.43 183.72 389.02C182.58 388.15 181.44 387.38 180.32 386.72C181.97 385.02 183.01 382.69 182.73 380.52C182.5 378.82 181.72 377.14 180.62 375.82C184.81 375.32 189.75 375.38 195.52 376.12L197.26 371.76C204.34 356.46 211.48 346.12 218.16 339.2C218.16 339.2 200.75 313.32 165 312.45C165 312.45 160.55 311.58 160.16 312.45C160.42 329.33 157.26 353.17 155.01 367.92C153.77 376 152.79 381.35 152.79 381.35C152.79 381.35 150.93 397.64 136.66 404.72C136.66 404.72 138.84 387.45 129.25 390.07C119.66 392.69 127.94 407.46 127.94 407.46C124.91 407.95 121.52 408.09 117.73 407.77C117.73 407.77 119.66 391.82 113.55 390.08C107.46 388.34 106.81 403.82 108.42 406.13C105.49 405.27 102.66 404.03 100.21 402.34C105.08 397.17 102.19 383.11 97.85 382.24C94.21 381.52 92.39 386.25 91.89 387.84C91.48 383.98 91.92 379.94 93.21 376.42C94.9 371.75 98.77 367.87 101.36 363.65C101.41 363.57 101.46 363.48 101.52 363.4C104.56 358.33 107.12 353 109.31 347.52C110.44 344.67 111.5 341.78 112.48 338.88C115.7 329.4 118.16 319.64 120.16 309.85C122.71 297.38 123.89 282.43 134.36 273.61C135.76 272.43 137.37 271.47 139.1 270.93C132.53 272.06 134.49 266.25 134.49 266.25C137.1 258.95 135.86 251.03 131.88 244.41C130.43 242.01 128.29 239.91 125.6 239.1C117.12 236.56 108.82 246.44 104.26 252.23C110.15 235.78 117.39 224.95 117.39 224.95C125.19 223.51 132.84 221.3 140.3 218.62C145.96 216.57 151.54 214.22 156.89 211.46C156.89 211.46 140.59 274.97 177.22 262.77L182.02 261.46C190.76 257.47 198.78 253.38 206.12 249.21C212.94 245.33 219.18 241.38 224.87 237.37H224.88C226.33 238.24 227.73 239.18 229.13 240.14C232.78 242.63 236.31 245.32 239.71 248.14C244.52 252.12 249.08 256.37 253.33 260.92C258.27 266.21 262.81 271.92 266.69 278.04C270.84 284.57 274.25 291.61 276.51 299.02C278.93 306.91 279.99 315.18 279.51 323.42Z" fill="#CBC0D3" stroke="black" stroke-width="0.25" stroke-miterlimit="10"/>
<path d="M246.88 325.84C248.72 326.09 250.55 326.51 252.22 327.3C250.51 326.59 248.68 326.25 246.85 326.09L246.88 325.84Z" fill="black"/>
<path d="M218.18 339.22C230.25 326.71 240.83 325.34 246.87 325.96" stroke="black" stroke-width="0.25" stroke-miterlimit="10"/>
<path d="M260.07 336.89C261.16 339.95 261.83 343.15 262.22 346.38C262.6 349.61 262.63 352.88 262.28 356.12C261.97 359.36 261.15 362.55 259.94 365.57C259.62 366.32 259.32 367.08 258.98 367.82L257.79 369.95C257.58 370.3 257.41 370.67 257.18 371.01L256.47 372L255.04 373.99L254.85 373.83L256.28 371.87L256.99 370.89C257.22 370.56 257.4 370.19 257.6 369.84L258.8 367.73C259.14 367 259.45 366.25 259.77 365.5C260.99 362.51 261.84 359.34 262.16 356.11C262.53 352.89 262.52 349.62 262.16 346.4C261.79 343.16 261.14 339.96 260.07 336.89Z" fill="black"/>
<path d="M301.79 299.47C300.98 299.96 297.04 302.83 296.71 303.09C294.55 304.9 292.7 307.06 291.2 309.44C288.15 314.3 286.6 320.13 287.07 325.87C287.8 334.81 283.5 343.21 278.69 350.43C275.11 355.78 269.85 363.25 263.71 365.94C264.67 364.48 265.55 362.96 266.51 361.46C268.68 358.04 270.68 354.51 272.39 350.81C272.56 350.46 272.71 350.11 272.87 349.75C276.05 344.38 279.43 338.94 280.4 332.68C281.03 328.72 281.15 324.69 282 320.78C283.14 315.5 285.69 310.52 289.33 306.53C290.44 305.31 298.71 297.96 301.33 298.85C301.16 299.2 301.07 299.39 301.07 299.39C301.31 299.42 301.55 299.45 301.79 299.47Z" fill="#CBC0D3" stroke="black" stroke-width="0.25" stroke-miterlimit="10"/>
<path d="M263.71 365.94C263.69 365.95 263.68 365.96 263.66 365.97" stroke="black" stroke-width="0.25" stroke-miterlimit="10"/>
<path d="M331.59 279.33C331.59 279.33 321.38 301.45 301.8 299.47C301.88 299.42 301.92 299.39 301.94 299.39C301.8 299.12 301.59 298.95 301.33 298.85C303.16 295.07 314.81 272.94 331.59 279.33Z" fill="#8E9AAF" stroke="black" stroke-width="0.25" stroke-miterlimit="10"/>
<path d="M301.93 299.39C301.91 299.39 301.87 299.42 301.79 299.47C301.55 299.45 301.3 299.43 301.06 299.39C301.06 299.39 301.15 299.2 301.32 298.85C301.59 298.94 301.79 299.12 301.93 299.39Z" stroke="black" stroke-width="0.25" stroke-miterlimit="10"/>
<path d="M160.17 312.47C160.02 309.82 159.93 307.17 159.6 304.54C159.47 303.22 159.3 301.91 159.05 300.61C158.79 299.31 158.48 298.03 158.04 296.77C158.57 297.99 158.94 299.27 159.21 300.57C159.49 301.87 159.69 303.19 159.85 304.51C160.1 307.16 160.24 309.82 160.17 312.47Z" fill="black"/>
<path d="M136.67 404.74C134.17 405.99 131.28 406.94 127.95 407.48C127.95 407.48 119.67 392.71 129.26 390.09C138.85 387.47 136.67 404.74 136.67 404.74Z" fill="#8E9AAF" stroke="black" stroke-width="0.25" stroke-miterlimit="10"/>
<path d="M117.74 407.78C116.95 407.72 116.14 407.63 115.31 407.53C114.08 407.37 112.86 407.18 111.65 406.93C110.58 406.71 109.5 406.45 108.44 406.14C106.83 403.84 107.48 388.35 113.57 390.09C119.67 391.83 117.74 407.78 117.74 407.78Z" fill="#8E9AAF" stroke="black" stroke-width="0.25" stroke-miterlimit="10"/>
<path d="M100.23 402.34C96.9399 400.07 94.3199 396.99 92.9699 392.9C92.4399 391.3 92.0799 389.59 91.9099 387.83C92.4099 386.24 94.2299 381.51 97.8699 382.23C102.21 383.11 105.1 397.17 100.23 402.34Z" fill="#8E9AAF" stroke="black" stroke-width="0.25" stroke-miterlimit="10"/>
<path d="M139.1 270.93C140.08 270.61 141.1 270.42 142.14 270.42C143.18 270.42 144.21 270.59 145.2 270.89C147.19 271.48 148.99 272.59 150.58 273.9C152.16 275.23 153.54 276.79 154.78 278.44C156.02 280.09 157.09 281.86 158.02 283.69C157 281.91 155.88 280.17 154.64 278.54C153.39 276.92 151.99 275.39 150.41 274.09C148.85 272.77 147.1 271.65 145.14 271.04C143.21 270.42 141.09 270.35 139.1 270.93Z" fill="black"/>
<path d="M218.18 339.22C211.5 346.14 204.37 356.48 197.28 371.78L195.54 376.14C189.77 375.41 184.82 375.35 180.64 375.84C179.28 376 178 376.22 176.79 376.49C176.79 376.49 159.85 376.3 155.02 367.93C157.28 353.18 160.44 329.35 160.17 312.46C160.56 311.59 165.01 312.46 165.01 312.46C200.77 313.34 218.18 339.22 218.18 339.22Z" fill="#FEEAFA" stroke="black" stroke-width="0.25" stroke-miterlimit="10"/>
<path d="M180.34 386.74C179.05 388.07 177.39 389.02 175.71 389.2C173.64 389.43 171.55 388.35 170.36 386.69C169.48 385.46 169.18 383.95 169.16 382.43C169.13 381.38 169.24 380.33 169.4 379.35C171.45 378.13 173.9 377.15 176.8 376.5C178 376.23 179.29 376 180.65 375.85C181.75 377.17 182.53 378.85 182.76 380.55C183.03 382.71 181.99 385.04 180.34 386.74Z" fill="#8E9AAF" stroke="black" stroke-width="0.25" stroke-miterlimit="10"/>
<path d="M195.15 393.6C194.09 394.58 192.92 395.34 191.75 396.16C191.58 396.28 191.4 396.4 191.23 396.52C190.1 397.25 188.83 397.85 187.46 397.74C186.53 397.67 185.64 397.26 184.87 396.73C184.08 396.17 183.37 395.45 182.99 394.56C182.31 392.97 182.7 390.77 183.75 389.05C184.74 387.45 186.29 386.29 188.08 386.48C188.25 386.5 188.41 386.52 188.57 386.51C188.64 386.5 188.7 386.48 188.75 386.46C188.88 386.4 188.99 386.29 189.09 386.19C191.42 383.95 195.39 383.75 197.3 386.62C198.98 389.14 197.05 391.85 195.15 393.6Z" fill="#8E9AAF" stroke="black" stroke-width="0.25" stroke-miterlimit="10"/>
<path d="M182.82 432.99C182.79 432.98 182.79 432.98 182.79 432.98" stroke="black" stroke-width="0.25" stroke-miterlimit="10"/>
<path d="M214.72 368.29C216.35 368.66 217.84 369.51 219.25 370.38C220.66 371.28 221.99 372.32 223.18 373.49C224.34 374.7 225.36 376.05 226.17 377.51C226.99 378.98 227.49 380.6 227.79 382.23C227.39 380.61 226.84 379.03 226.02 377.59C225.18 376.16 224.16 374.84 222.99 373.66C221.83 372.48 220.53 371.43 219.14 370.51C218.45 370.04 217.73 369.63 216.99 369.24C216.28 368.88 215.54 368.47 214.72 368.29Z" fill="black"/>
<path d="M223.44 382.24C221.55 381.12 219.82 379.73 218.26 378.17C217.5 377.37 216.77 376.53 216.16 375.62C215.55 374.7 215.05 373.7 214.72 372.65C215.55 374.69 216.91 376.44 218.44 378C219.2 378.79 220.02 379.52 220.85 380.23C221.69 380.92 222.55 381.61 223.44 382.24Z" fill="black"/>
<path d="M206.87 370.03C207.02 371.01 207.25 371.97 207.53 372.91C207.66 373.39 207.8 373.86 207.97 374.32C208.12 374.79 208.3 375.25 208.49 375.7C209.23 377.52 210.21 379.25 211.44 380.77C212.66 382.3 214.24 383.54 215.99 384.4L217.34 384.98L218.77 385.34C219.01 385.39 219.24 385.48 219.49 385.51L220.22 385.58L221.69 385.72C219.73 385.64 217.7 385.48 215.91 384.55C214.12 383.7 212.5 382.47 211.24 380.92C210 379.36 209.05 377.6 208.32 375.75C207.61 373.92 207.09 371.99 206.87 370.03Z" fill="black"/>
<path d="M108.44 406.15C108.39 406.15 108.36 406.17 108.35 406.19C108.34 406.21 108.35 406.22 108.34 406.23C108.35 406.22 108.33 406.21 108.34 406.18C108.34 406.15 108.38 406.13 108.42 406.13C108.47 406.13 108.5 406.11 108.51 406.09C108.52 406.07 108.51 406.06 108.52 406.05C108.51 406.06 108.53 406.07 108.52 406.1C108.52 406.13 108.49 406.15 108.44 406.15Z" fill="black"/>
<path d="M100.23 402.34C100.31 402.4 100.31 402.42 100.31 402.44C100.29 402.44 100.27 402.46 100.19 402.39C100.12 402.31 100.12 402.3 100.11 402.29C100.12 402.3 100.13 402.3 100.23 402.34Z" fill="black"/>
<path d="M91.91 387.84C91.98 387.96 91.97 388.04 91.96 388.13C91.92 388.21 91.89 388.29 91.77 388.35C91.69 388.24 91.71 388.15 91.72 388.06C91.75 387.97 91.78 387.89 91.91 387.84Z" fill="black"/>
<path d="M118.79 341.25C120.91 340.91 123.06 340.81 125.2 340.87C127.34 340.94 129.49 341.15 131.59 341.63C133.68 342.14 135.71 342.89 137.59 343.94C139.44 345.04 141.06 346.5 142.34 348.23C140.99 346.56 139.35 345.17 137.51 344.08C135.63 343.06 133.61 342.35 131.53 341.87C129.46 341.37 127.32 341.13 125.19 341.04C123.06 340.97 120.92 341.01 118.79 341.25Z" fill="black"/>
<path d="M123.15 349.1C124.96 348.84 126.79 348.8 128.62 348.92C129.53 349.01 130.44 349.14 131.33 349.39C132.2 349.65 133.11 350.06 133.62 350.84C133.04 350.12 132.14 349.8 131.28 349.58C130.4 349.37 129.51 349.24 128.6 349.17C126.8 349.02 124.98 349.04 123.15 349.1Z" fill="black"/>
<path d="M119.66 351.72C119.99 352.33 120.38 352.91 120.83 353.44C121.26 353.98 121.76 354.46 122.29 354.91C123.37 355.76 124.68 356.33 126.06 356.41C127.43 356.5 128.8 356.17 130.07 355.64C130.7 355.35 131.29 354.99 131.9 354.66L133.62 353.48L131.97 354.77C131.37 355.12 130.77 355.49 130.14 355.8C128.86 356.37 127.47 356.74 126.04 356.67C124.62 356.56 123.27 355.94 122.19 355.05C121.11 354.13 120.25 352.98 119.66 351.72Z" fill="black"/>
<path d="M65.3699 153.86C66.0199 153.81 66.6599 153.74 67.3099 153.67C71.5799 153.2 75.8499 152.37 79.9999 151.3C79.9999 151.3 79.9999 151.3 80.0099 151.3C83.1299 150.5 86.1899 149.56 89.1499 148.52" stroke="black" stroke-width="0.25" stroke-miterlimit="10"/>
<path d="M108.33 167.7C108.42 165.22 108.11 162.67 107.11 160.39C106.16 158.08 104.56 156.08 102.68 154.47C100.78 152.86 98.5898 151.62 96.2898 150.66C93.9898 149.72 91.5798 149.02 89.1298 148.64H89.1198C89.0498 148.63 88.9998 148.57 89.0198 148.5C89.0298 148.43 89.0898 148.38 89.1598 148.4C91.6398 148.8 94.0498 149.53 96.3598 150.49C98.6598 151.47 100.85 152.74 102.75 154.37C104.63 156.01 106.23 158.04 107.16 160.36C108.15 162.67 108.44 165.22 108.33 167.7Z" fill="black"/>
<path d="M134.49 179.04C134.47 179.05 134.46 179.06 134.44 179.07" stroke="black" stroke-width="0.25" stroke-miterlimit="10"/>
<path d="M92.9498 196.48C90.3898 197.12 87.7998 197.67 85.2098 198.14C85.1698 198.15 85.1298 198.16 85.0898 198.16" stroke="black" stroke-width="0.25" stroke-miterlimit="10"/>
<path d="M134.44 179.07C133.59 178.13 133 176.97 132.57 175.78C132.17 174.58 131.92 173.32 131.87 172.06C132.12 173.3 132.38 174.52 132.8 175.7C133.2 176.89 133.76 178.01 134.44 179.07Z" fill="black"/>
<path d="M140.06 182.68C141.45 182.92 142.86 183.05 144.26 182.99C144.96 182.98 145.66 182.92 146.36 182.85C147.06 182.77 147.76 182.67 148.45 182.53C147.11 182.99 145.68 183.19 144.27 183.24C143.56 183.25 142.85 183.23 142.14 183.14C141.43 183.06 140.73 182.89 140.06 182.68Z" fill="black"/>
<path d="M136.89 188.95C131.47 198.62 118.44 217.64 99.6099 218.29C99.6099 218.29 98.8999 218.4 98.0099 218.3C98.0099 218.3 96.1199 202.59 108.33 198.23C120.54 193.87 132.31 197.1 136.89 188.95Z" fill="#F57171" stroke="black" stroke-width="0.25" stroke-miterlimit="10"/>
<path d="M179.84 90.09C179.64 89.63 179.37 89.17 179.03 88.72" stroke="black" stroke-width="0.25" stroke-miterlimit="10"/>
<path d="M118.37 75.9099C117.69 76.8899 117.23 78.1099 117.05 79.6299C115.31 94.4599 147.57 87.4799 147.57 87.4799" stroke="black" stroke-width="0.25" stroke-miterlimit="10"/>
<path d="M67.4 153.58C68.38 154.61 69.27 155.71 70.1 156.86C70.93 158.01 71.71 159.19 72.36 160.45C73.01 161.71 73.6 163 73.95 164.38C74.3 165.75 74.47 167.17 74.31 168.58C74.45 167.17 74.26 165.75 73.89 164.4C73.52 163.04 72.91 161.76 72.25 160.52C71.58 159.28 70.79 158.11 69.95 156.98C69.1 155.86 68.2 154.77 67.22 153.77L67.4 153.58Z" fill="black"/>
<path d="M80.05 151.19C81.42 151.95 82.65 152.92 83.76 154.02C84.86 155.12 85.8 156.38 86.5 157.77C86.88 158.45 87.11 159.2 87.37 159.93C87.53 160.69 87.76 161.44 87.78 162.22C87.97 163.77 87.71 165.32 87.4 166.83C87.69 165.31 87.93 163.76 87.72 162.23C87.69 161.45 87.45 160.71 87.29 159.96C87.02 159.24 86.78 158.5 86.4 157.83C85.69 156.47 84.74 155.23 83.64 154.15C82.54 153.08 81.29 152.13 79.95 151.41L80.05 151.19Z" fill="black"/>
<path d="M97.8599 140.67C100.29 140.37 102.75 140.36 105.18 140.6C107.61 140.84 110.04 141.3 112.34 142.19C114.63 143.08 116.76 144.44 118.39 146.28C119.21 147.2 119.86 148.26 120.37 149.37C120.89 150.49 121.17 151.69 121.4 152.88C120.92 150.49 119.89 148.2 118.26 146.39C116.63 144.59 114.51 143.27 112.24 142.42C109.98 141.52 107.58 141.02 105.16 140.76C102.75 140.52 100.3 140.47 97.8599 140.67Z" fill="black"/>
<path d="M139.1 270.93C137.37 271.47 135.76 272.43 134.36 273.61C123.89 282.43 122.71 297.37 120.16 309.85C118.15 319.64 115.69 329.4 112.48 338.88C110.54 338.24 107.45 334.28 107.45 334.28C105.41 330.63 103.71 326.96 102.31 323.27C102.27 323.17 102.23 323.05 102.2 322.95C96.69 308.26 95.95 293.45 97.57 279.93C98.55 271.82 100.37 264.18 102.54 257.32C103.09 255.58 103.67 253.88 104.26 252.24C108.82 246.46 117.12 236.58 125.6 239.11C128.29 239.92 130.43 242.02 131.88 244.42C135.86 251.04 137.1 258.96 134.49 266.26C134.49 266.25 132.54 272.06 139.1 270.93Z" fill="#FEEAFA" stroke="black" stroke-width="0.25" stroke-miterlimit="10"/>
<path d="M112.5 338.88H112.49" stroke="black" stroke-width="0.25" stroke-miterlimit="10"/>
<path d="M75.38 370.95C69.49 370.76 63.9 368.78 59.91 363.7C56.42 359.28 54.69 353.74 53.91 348.22C53.12 342.66 52.72 336.15 54.01 330.65C54.54 328.35 55.61 326.1 57.39 324.55C57.68 324.3 57.97 324.07 58.29 323.87C55.94 327.89 61.98 329.27 64.78 329.4C65.77 329.44 66.79 329.43 67.75 329.15C68.11 329.59 68.48 330.06 68.85 330.55C68.25 330.62 67.72 331.06 67.4 331.59C67.38 331.62 67.37 331.64 67.36 331.67C65.73 334.56 66.63 339.16 70.48 339.46C71.59 339.54 72.83 339.23 73.98 338.74C74.6 339.99 75.18 341.3 75.72 342.66C75.72 342.68 75.73 342.69 75.74 342.71C76.65 345.06 77.38 347.6 77.83 350.28C77.84 350.31 77.84 350.33 77.85 350.36C78.89 356.53 78.48 363.48 75.38 370.95Z" fill="#FEEAFA" stroke="black" stroke-width="0.25" stroke-miterlimit="10"/>
<path d="M101.54 363.57C101.48 363.6 101.43 363.63 101.37 363.66" stroke="black" stroke-width="0.25" stroke-miterlimit="10"/>
<path d="M112.49 338.88C111.5 341.78 110.45 344.67 109.32 347.52C107.13 353 104.58 358.33 101.53 363.4C101.48 363.49 101.43 363.57 101.37 363.65C97.21 365.73 92.92 367.59 88.47 368.97C84.29 370.26 79.75 371.1 75.38 370.95C78.48 363.48 78.89 356.53 77.84 350.35C77.83 350.32 77.83 350.3 77.82 350.27C80.19 349.7 86.13 346.7 83.91 342.99C81.76 339.41 77.24 341.72 75.71 342.65C75.18 341.28 74.59 339.97 73.97 338.73C74.91 338.33 75.8 337.81 76.52 337.26C78.03 336.12 79 334.46 78.67 332.52C78.46 331.26 77.93 329.83 76.61 329.39C75.29 328.95 74.02 329.57 72.94 330.29C72.27 330.73 71.5 331.14 70.72 331.01C70.16 330.92 69.66 330.57 69.1 330.53C69.01 330.52 68.93 330.53 68.85 330.54C68.48 330.05 68.11 329.59 67.75 329.14C67.89 329.11 68.03 329.05 68.17 329C70.94 327.92 71 324.69 70.05 322.29C72.5 322.67 74.89 323.28 76.93 323.79C84.13 325.59 90.64 325.3 95.24 324.6C99.37 323.96 101.97 323.01 102.2 322.93C102.23 323.03 102.27 323.15 102.31 323.25C103.71 326.94 105.41 330.61 107.45 334.26C107.46 334.27 110.54 338.24 112.49 338.88Z" fill="#CBC0D3" stroke="black" stroke-width="0.25" stroke-miterlimit="10"/>
<path d="M102.22 322.94C102.22 322.94 102.21 322.94 102.2 322.95" stroke="black" stroke-width="0.25" stroke-miterlimit="10"/>
<path d="M77.82 350.28C77.37 347.6 76.63 345.06 75.73 342.71C75.72 342.69 75.71 342.68 75.71 342.66C77.24 341.73 81.75 339.42 83.91 343C86.13 346.71 80.19 349.71 77.82 350.28Z" fill="#8E9AAF" stroke="black" stroke-width="0.25" stroke-miterlimit="10"/>
<path d="M75.3799 370.95C75.3799 370.96 75.3699 370.96 75.3699 370.97" stroke="black" stroke-width="0.25" stroke-miterlimit="10"/>
<path d="M68.17 329.01C68.03 329.06 67.89 329.11 67.75 329.15C66.79 329.44 65.77 329.45 64.78 329.4C61.98 329.27 55.94 327.89 58.29 323.87C59.22 323.23 60.24 322.79 61.32 322.48C64.02 321.71 67.08 321.84 70.05 322.3C70.99 324.71 70.94 327.93 68.17 329.01Z" fill="#8E9AAF" stroke="black" stroke-width="0.25" stroke-miterlimit="10"/>
<path d="M76.52 337.26C75.8 337.8 74.92 338.32 73.97 338.73C72.82 339.23 71.58 339.53 70.47 339.45C66.62 339.15 65.72 334.55 67.35 331.66C67.36 331.63 67.38 331.61 67.39 331.58C67.7 331.06 68.24 330.61 68.84 330.54C68.92 330.53 69.01 330.52 69.09 330.53C69.66 330.56 70.15 330.92 70.71 331.01C71.49 331.14 72.26 330.72 72.93 330.29C74.01 329.57 75.28 328.95 76.6 329.39C77.92 329.83 78.45 331.26 78.66 332.52C79 334.46 78.03 336.12 76.52 337.26Z" fill="#8E9AAF" stroke="black" stroke-width="0.25" stroke-miterlimit="10"/>
<path d="M81.29 338.63C82.1 338.8 82.88 339.09 83.62 339.47C84.36 339.85 85.06 340.32 85.64 340.94C86.21 341.56 86.64 342.32 86.8 343.15C86.99 343.99 86.77 344.83 86.52 345.61C86.68 344.81 86.83 343.98 86.61 343.19C86.42 342.41 86.02 341.69 85.46 341.11C84.92 340.51 84.23 340.05 83.53 339.64C82.82 339.24 82.07 338.9 81.29 338.63Z" fill="black"/>
<path d="M76.0598 327.3C76.8398 327.24 77.6498 327.49 78.2998 327.95C78.6198 328.19 78.9098 328.48 79.1098 328.82C79.3298 329.15 79.4598 329.53 79.5498 329.91C79.1998 329.22 78.7698 328.58 78.1498 328.15C77.8598 327.92 77.5198 327.75 77.1698 327.6C76.8098 327.47 76.4398 327.36 76.0598 327.3Z" fill="black"/>
<path d="M89.5699 325.07C91.0199 326.58 92.3099 328.23 93.3299 330.05C93.8399 330.96 94.2599 331.92 94.4899 332.94C94.7299 333.95 94.7599 335.04 94.3699 336.01C94.7399 335.03 94.6799 333.95 94.4299 332.95C94.1799 331.95 93.7399 331 93.2199 330.11C92.1799 328.32 90.8499 326.7 89.3999 325.24L89.5699 325.07Z" fill="black"/>
<path d="M101.35 332.53C100.54 332.23 99.7199 331.88 99.0399 331.34C98.3499 330.82 97.7099 330.2 97.1999 329.49C96.1599 328.08 95.4599 326.43 95.1299 324.7V324.69V324.68V324.62H95.3799V324.68V324.66C95.6699 326.34 96.3199 328 97.3099 329.41C97.7999 330.13 98.4099 330.75 99.0899 331.28C99.7499 331.85 100.55 332.21 101.35 332.53Z" fill="black"/>
<path d="M139.17 270.92C139.14 270.92 139.13 270.93 139.1 270.93" stroke="black" stroke-width="0.25" stroke-miterlimit="10"/>
<path d="M197.02 119.49C197.02 119.49 220.83 95.32 247.86 114.5" stroke="black" stroke-width="0.25" stroke-miterlimit="10"/>
<path d="M102.55 257.31C100.38 264.17 98.5599 271.81 97.5799 279.92L96.9999 279.33C93.4099 276.73 89.2599 274.95 85.0999 273.44C75.1499 269.83 64.6099 267.79 54.1599 266.21C49.7699 265.55 44.8799 265.62 40.6899 264.22C37.6399 263.2 34.8599 261.45 32.5399 259.21C32.7799 258.99 37.6299 254.82 35.0799 251.42C32.4599 247.93 27.0799 251.07 27.0799 251.07C26.4999 249.66 26.0599 248.19 25.7499 246.7C26.0599 246.71 33.3199 246.94 32.4699 240.95C31.7499 235.87 26.7799 237.44 25.1399 238.11C25.2399 236.57 25.4499 235.04 25.7399 233.53C42.5599 233.96 32.4599 222.05 32.4599 222.05C34.9599 220.31 38.0399 219.36 41.5099 219.29C41.5899 219.28 41.6699 219.28 41.7499 219.28C48.2899 219.21 54.7699 221.36 60.9199 224.53C68.3199 228.33 75.2399 233.6 81.1399 238.21C88.6499 244.1 95.8899 250.46 102.55 257.31Z" fill="#CBC0D3" stroke="black" stroke-width="0.25" stroke-miterlimit="10"/>
<path d="M25.73 233.54C25.89 232.76 26.07 231.99 26.27 231.22C27.34 227.2 29.51 224.09 32.45 222.06C32.46 222.06 42.56 233.96 25.73 233.54Z" fill="#8E9AAF" stroke="black" stroke-width="0.25" stroke-miterlimit="10"/>
<path d="M25.7399 246.71C25.1299 243.91 24.9499 241.01 25.1299 238.12C26.7599 237.45 31.7299 235.88 32.4599 240.96C33.3099 246.94 26.0499 246.71 25.7399 246.71Z" fill="#8E9AAF" stroke="black" stroke-width="0.25" stroke-miterlimit="10"/>
<path d="M32.5298 259.21C30.7398 257.49 29.2398 255.49 28.1098 253.32C27.7298 252.59 27.3798 251.84 27.0698 251.07C27.0698 251.07 32.4498 247.93 35.0698 251.42C37.6298 254.82 32.7798 258.99 32.5298 259.21Z" fill="#8E9AAF" stroke="black" stroke-width="0.25" stroke-miterlimit="10"/>
<path d="M25.74 246.71V246.83L25.73 246.71L25.74 246.58V246.71Z" fill="black"/>
<path d="M25.1299 238.12C25.0799 238.25 24.9999 238.3 24.9199 238.35C24.8299 238.37 24.7399 238.4 24.6099 238.35C24.6499 238.22 24.7399 238.17 24.8199 238.12C24.9099 238.09 25.0099 238.06 25.1299 238.12Z" fill="black"/>
<path d="M69.0799 241.83C67.9899 243.07 67.0799 244.44 66.2899 245.88C65.5099 247.32 64.9099 248.86 64.5199 250.45C64.2799 251.23 64.1799 252.05 64.0399 252.85C63.9999 253.67 63.8799 254.48 63.9399 255.3C63.9399 256.94 64.3099 258.55 64.7199 260.15C64.2199 258.59 63.7899 256.97 63.7799 255.31C63.6999 254.48 63.7999 253.66 63.8299 252.83C63.9599 252.01 64.0499 251.19 64.2799 250.39C65.1499 247.19 66.7799 244.19 69.0799 241.83Z" fill="black"/>
<path d="M76.0599 241.83C75.0999 242.68 74.2699 243.68 73.5699 244.75C72.8799 245.83 72.3699 247.02 72.0699 248.25C71.7499 249.48 71.5999 250.77 71.7399 252.04C71.8199 253.32 72.1799 254.56 72.5599 255.79C72.3499 255.18 72.0799 254.59 71.9099 253.97C71.7799 253.34 71.5999 252.71 71.5699 252.06C71.3999 250.77 71.5199 249.46 71.8299 248.2C72.5099 245.68 74.0099 243.4 76.0599 241.83Z" fill="black"/>
<path d="M77.8 244.45C78.09 245.81 78.1 247.23 77.89 248.61C77.76 249.3 77.58 249.98 77.28 250.62C76.98 251.25 76.56 251.83 76.05 252.3C76.94 251.23 77.43 249.92 77.64 248.57C77.77 247.9 77.81 247.21 77.84 246.52C77.86 245.83 77.86 245.14 77.8 244.45Z" fill="black"/>
<path d="M125.57 72.59C122.51 72.79 119.89 73.73 118.38 75.9C118.38 75.9 118.38 75.9 118.37 75.9C117.47 75.93 53.02 77.75 65.37 153.86C60.8 154.26 56.23 154.24 51.77 153.69C43.87 152.72 36.04 149.54 31.65 142.56C24.87 131.8 27.09 117.26 31.14 105.95C35.81 92.93 46.64 78.23 37.68 64.79C37.68 64.79 45.21 56.57 42.08 51.06C42.86 50.18 79.67 9.07997 90.88 18.57C102.21 28.15 120.14 72.4 125.57 72.59Z" fill="#EFD3D7" stroke="black" stroke-width="0.25" stroke-miterlimit="10"/>
<path d="M147.56 77.87C147.17 77.7 134.5 72.01 125.59 72.59H125.56C120.13 72.4 102.2 28.15 90.8799 18.57C79.6599 9.07997 42.8599 50.18 42.0799 51.06C41.6699 50.35 41.0899 49.68 40.2999 49.09C37.9499 47.32 36.0899 47.44 34.6599 48.38C35.3299 47.56 83.1499 -10.98 98.7399 1.99997C114.44 15.08 125.77 61.3 134.5 63.05C134.5 63.05 135.21 63.19 135.41 63.42C135.43 63.47 135.44 63.53 135.46 63.59C137.54 70.55 147.22 77.62 147.56 77.87Z" fill="#CBC0D3" stroke="black" stroke-width="0.25" stroke-miterlimit="10"/>
<path d="M42.0798 51.0701C42.0798 51.0701 42.0798 51.0801 42.0798 51.0701" stroke="black" stroke-width="0.25" stroke-miterlimit="10"/>
<path d="M15.71 95.75C12.19 101.76 8.06001 107.11 5.04001 113.31C4.65001 109.26 4.35001 105.32 3.71001 101.33C3.08001 97.39 2.79001 93.29 3.93001 89.41C5.05001 85.59 7.43001 82.34 9.75001 79.16C12.14 75.9 14.06 72.44 16.22 69.04C18.91 70.61 21.03 72.64 21.53 76.83C22.3 83.26 18.86 90.38 15.71 95.75Z" fill="#CBC0D3" stroke="black" stroke-width="0.25" stroke-miterlimit="10"/>
<path d="M85.0999 198.16C84.2399 199.86 74.3699 218.84 60.9199 224.55C54.7699 221.38 48.2899 219.23 41.7499 219.3C41.6699 219.3 41.5899 219.3 41.5099 219.31C29.8799 206.91 21.0699 181.91 20.8699 181.37C25.8499 186.17 31.5099 190.17 37.6099 193.06C52.6099 200.2 69.0699 200.99 85.0999 198.16Z" fill="#EFD3D7" stroke="black" stroke-width="0.25" stroke-miterlimit="10"/>
<path d="M103.61 110.48C103.11 108.64 102.12 106.9 100.78 105.53C99.3099 104.02 97.4399 102.92 95.3599 102.56C90.9899 101.78 86.6899 104.36 83.7999 107.42C81.6499 109.68 79.9699 112.41 79.1099 115.4C78.2599 118.4 78.2399 121.66 79.2699 124.6C80.0699 126.88 81.5699 129 83.7399 130.05C86.9499 131.6 90.8199 130.48 93.9299 128.74C97.1699 126.92 100.07 124.41 101.94 121.2C103.8 117.98 104.57 114.06 103.61 110.48ZM94.8999 118.15C93.7999 120.04 92.0899 121.53 90.1799 122.59C88.3499 123.62 86.0699 124.27 84.1799 123.37C82.8999 122.75 82.0199 121.49 81.5499 120.16C80.9399 118.42 80.9499 116.51 81.4499 114.74C81.9599 112.98 82.9499 111.36 84.2099 110.04C85.9099 108.23 88.4499 106.72 91.0199 107.18C92.2399 107.4 93.3499 108.04 94.2099 108.92C94.9999 109.74 95.5899 110.76 95.8799 111.84C96.4499 113.95 95.9999 116.27 94.8999 118.15Z" fill="white" stroke="black" stroke-width="0.25" stroke-miterlimit="10"/>
<path d="M159.04 136.8C158.44 134.99 157.35 133.32 155.93 132.02C154.38 130.6 152.43 129.61 150.33 129.37C145.93 128.85 141.78 131.67 139.07 134.9C137.06 137.28 135.55 140.11 134.87 143.14C134.18 146.18 134.36 149.44 135.56 152.31C136.49 154.53 138.12 156.57 140.35 157.49C143.65 158.85 147.45 157.51 150.45 155.58C153.57 153.58 156.32 150.9 158 147.59C159.68 144.28 160.21 140.32 159.04 136.8ZM151.08 144.97C150.31 147.01 148.87 148.76 147.17 150.13C145.54 151.45 143.4 152.48 141.39 151.9C140.02 151.51 138.94 150.43 138.25 149.18C137.36 147.58 137.05 145.68 137.26 143.86C137.46 142.04 138.17 140.28 139.19 138.76C140.57 136.7 142.81 134.77 145.42 134.8C146.67 134.81 147.87 135.25 148.86 135.99C149.78 136.66 150.53 137.57 151 138.59C151.9 140.56 151.85 142.92 151.08 144.97Z" fill="white" stroke="black" stroke-width="0.25" stroke-miterlimit="10"/>
<path d="M171.12 132.82L169.38 133.69C168.11 132.1 166.55 130.72 165.04 129.39C160.93 125.76 156.01 122.9 152.49 118.66C151.71 117.72 150.96 116.57 151.16 115.36C151.31 114.44 152 113.66 152.83 113.26C153.67 112.87 154.64 112.81 155.56 112.93C159.76 113.5 163.21 117.42 165.44 120.74C167.92 124.45 169.65 128.62 171.12 132.82Z" fill="#8E9AAF" stroke="black" stroke-width="0.25" stroke-miterlimit="10"/>
<path d="M116.25 96.1C116.35 97.14 115.99 98.25 115.16 98.88C114.34 99.5 113.2 99.57 112.21 99.28C111.22 98.99 110.35 98.4 109.52 97.79C107.69 96.44 105.69 95.33 103.61 94.41C101.91 93.67 100.14 93.07 98.3199 92.74C97.8299 92.64 92.6299 92.13 92.6299 92.7V90.96C95.4599 90.34 98.3999 90.03 101.31 89.9C105.85 89.72 115.59 89.75 116.25 96.1Z" fill="#8E9AAF" stroke="black" stroke-width="0.25" stroke-miterlimit="10"/>
<path d="M94.2799 108.63C93.3899 107.72 92.2599 107.05 90.9899 106.83C88.3499 106.36 85.7399 107.92 83.9899 109.77C82.6899 111.14 81.6699 112.79 81.1499 114.6C80.6299 116.41 80.6199 118.39 81.2399 120.17C81.7199 121.55 82.6299 122.84 83.9499 123.47C85.8899 124.41 88.2399 123.73 90.1199 122.67C92.0799 121.57 93.8399 120.05 94.9699 118.11C96.0999 116.17 96.5699 113.8 95.9899 111.63C95.6899 110.51 95.0899 109.47 94.2799 108.63Z" fill="black" stroke="black" stroke-width="0.25" stroke-miterlimit="10"/>
<path d="M141.28 152.38C143.39 152.99 145.64 151.91 147.35 150.52C149.13 149.08 150.64 147.25 151.44 145.1C152.24 142.95 152.31 140.49 151.35 138.41C150.86 137.34 150.07 136.39 149.11 135.69C148.06 134.92 146.8 134.45 145.5 134.44C142.76 134.42 140.41 136.44 138.97 138.6C137.9 140.2 137.16 142.03 136.95 143.95C136.74 145.86 137.07 147.85 138 149.53C138.71 150.83 139.85 151.97 141.28 152.38Z" fill="black" stroke="black" stroke-width="0.25" stroke-miterlimit="10"/>
<path d="M145.08 142.5C146.527 142.5 147.7 141.327 147.7 139.88C147.7 138.433 146.527 137.26 145.08 137.26C143.633 137.26 142.46 138.433 142.46 139.88C142.46 141.327 143.633 142.5 145.08 142.5Z" fill="white" stroke="black" stroke-width="0.25" stroke-miterlimit="10"/>
<path d="M91.0099 114.6C92.4569 114.6 93.6299 113.427 93.6299 111.98C93.6299 110.533 92.4569 109.36 91.0099 109.36C89.5629 109.36 88.3899 110.533 88.3899 111.98C88.3899 113.427 89.5629 114.6 91.0099 114.6Z" fill="white" stroke="black" stroke-width="0.25" stroke-miterlimit="10"/>
</svg>
