<svg id="Capa_1" data-name="Capa 1" xmlns="http://www.w3.org/2000/svg" xmlns:xlink="http://www.w3.org/1999/xlink" viewBox="0 0 290 694"><defs><style>.cls-1{fill:url(#Degradado_sin_nombre_2);}.cls-2{fill:#a2e9ff;}.cls-3{fill:#5ebdd3;opacity:0.5;}.cls-4{fill:#fff;}.cls-5{fill:#f5fbff;}.cls-6{fill:#dff2fd;}.cls-7{fill:#e3c49c;}.cls-10,.cls-11,.cls-13,.cls-14,.cls-15,.cls-16,.cls-17,.cls-18,.cls-19,.cls-7,.cls-8,.cls-9{fill-rule:evenodd;}.cls-8{fill:#92c8e2;}.cls-9{fill:#7eb8d4;}.cls-10{fill:#a2d0e8;}.cls-11{fill:#89c4df;}.cls-12,.cls-13{fill:#6aa69a;}.cls-14{fill:#9bc17c;}.cls-15{fill:#89b874;}.cls-16{fill:#50877d;}.cls-17{fill:#78a241;}.cls-18{fill:#8db031;}.cls-19{fill:#568831;}.cls-20{fill:none;}</style><linearGradient id="Degradado_sin_nombre_2" x1="146" y1="694" x2="146" y2="17" gradientUnits="userSpaceOnUse"><stop offset="0" stop-color="#fff"/><stop offset="0.11" stop-color="#e1f7fc"/><stop offset="0.26" stop-color="#c1edf9"/><stop offset="0.41" stop-color="#a7e6f7"/><stop offset="0.57" stop-color="#95e1f5"/><stop offset="0.73" stop-color="#8adef4"/><stop offset="0.92" stop-color="#87ddf4"/></linearGradient></defs><rect class="cls-1" x="2" y="17" width="288" height="677"/><rect class="cls-2" x="1.92" y="561.7" width="288" height="132.3"/><path class="cls-3" d="M826,1768.54v118.85h-.08l-1.92,0c-46.11,1.15-77.71-2-85.3-2.76-46.5-4.81-75.57-13.19-85.16-16.09-37.48-11.32-89-26.88-89.9-49.21-1.06-25.64,65.18-47.26,76.31-50.7h0l1.27-.4,1.07-.09h.18c11.24-.79,30-1.92,53.37-2.32h0q6.2-.11,12.8-.14l7.27,0c12.4,0,26.53-.09,41.76.11h0c20.61.26,43.23,1,66.29,2.58l1.92.14Z" transform="translate(-536 -1202)"/><path class="cls-4" d="M826,1664.71v27.63c-.67,0-1.34-.08-2-.14a103,103,0,0,1-18.53-3.23,14.11,14.11,0,0,1-11.87,4,20,20,0,0,1-6.49-1.93l-.77-.38a29.41,29.41,0,0,1-4.47-2.93,3.82,3.82,0,0,1,0,1.17,1.7,1.7,0,0,1-.06.31,2.54,2.54,0,0,1-.13.45,1.55,1.55,0,0,1-.08.23c0,.11-.09.22-.14.33a5.84,5.84,0,0,1-1.18,1.64l0,0-.31.28c-.13.11-.26.22-.4.32h0l0,0a5.09,5.09,0,0,1-.45.31,7.09,7.09,0,0,1-.72.38,16.43,16.43,0,0,1-6.91,1h-1l-2.22,0h-3.38l-63.15-.3a77.91,77.91,0,0,1-14.88-1,6.3,6.3,0,0,1-3.5-1.58c-1.37-1.49-1.1-4,.12-5.61q.27-.35.57-.66l.4-.39c.2-.17.41-.34.63-.5h0a15.73,15.73,0,0,1,3.41-1.76,46.47,46.47,0,0,1,26.08-2.37l.4.08.33.07a13.75,13.75,0,0,1,17.85-4.43,11.25,11.25,0,0,1,13.88-16.63c-6.94-5.77-10.5-15-10.18-23.95,0-.69.07-1.37.14-2.05a28.31,28.31,0,0,1,.52-3.3h0a27.29,27.29,0,0,1,4.3-10c8.34-11.87,26.21-15.74,38.71-8.38,5,2.92,9.25,7.83,9.54,13.59,0-1.68,7.48-2.65,8.62-2.48a13.09,13.09,0,0,1,2.85.84l.6.25.68.3c.3.13.59.27.87.41.86.41,1.67.83,2.37,1.18,16.66,8.45,15.26,33.61-.56,42.34,1.16-.4,2.33-.75,3.51-1.07l1.18-.31.47-.12h0a60,60,0,0,1,13.47-1.68C824.67,1664.69,825.33,1664.69,826,1664.71Z" transform="translate(-536 -1202)"/><path class="cls-5" d="M826,1669.79v22.55c-.67,0-1.34-.08-2-.14a103,103,0,0,1-18.53-3.23,14.11,14.11,0,0,1-11.87,4,20,20,0,0,1-6.49-1.93l-.77-.38a29.41,29.41,0,0,1-4.47-2.93,3.82,3.82,0,0,1,0,1.17,1.7,1.7,0,0,1-.06.31,2.54,2.54,0,0,1-.13.45,1.55,1.55,0,0,1-.08.23c0,.11-.09.22-.14.33a5.84,5.84,0,0,1-1.18,1.64l0,0-.31.28c-.13.11-.26.22-.4.32h0l0,0a5.09,5.09,0,0,1-.45.31,7.09,7.09,0,0,1-.72.38,16.43,16.43,0,0,1-6.91,1h-1l-2.22,0h-3.38l-63.15-.3a77.91,77.91,0,0,1-14.88-1,6.3,6.3,0,0,1-3.5-1.58c-1.37-1.49-1.1-4,.12-5.61q.27-.35.57-.66l.4-.39c.2-.17.41-.34.63-.5h0c7.08,2.07,14.87,1.32,22.23,0,2.51-.45,5.19-1.05,6.92-2.94a4.16,4.16,0,0,0,.69-1l.05-.1.33.07a13.75,13.75,0,0,1,17.85-4.43,11.25,11.25,0,0,1,13.88-16.63c-6.94-5.77-10.5-15-10.18-23.95,0-.69.07-1.37.14-2.05a28.31,28.31,0,0,1,.52-3.3,42.28,42.28,0,0,0,8.08,20c5.31,6.77,13.61,11.47,22.21,11.23a28.16,28.16,0,0,1,14.85-21c-4.31,3.29-4.42,10.46-.74,14.43s10.14,4.66,15,2.3,8.19-7.31,9.47-12.58c1.9-7.84-.78-14.43-4.87-20.75l.6.25.68.3c.3.13.59.27.87.41.86.41,1.67.83,2.37,1.18,16.66,8.45,15.26,33.61-.56,42.34,1.16-.4,2.33-.75,3.51-1.07l1.18-.31.47-.12h0c4.32,1.14,9,2,13.47,3Z" transform="translate(-536 -1202)"/><path class="cls-6" d="M805.36,1667.87c15.82-8.73,17.22-33.89.56-42.34-1.26-.64-2.91-1.5-4.52-2.14,8.33,4,12.65,13.66,12.79,22.93.08,4.79-.75,9.89-3.88,13.52-2.83,3.27-7.21,4.91-11.52,5.17a36.83,36.83,0,0,1-12.75-2C790.94,1667.65,799.47,1671.12,805.36,1667.87Z" transform="translate(-536 -1202)"/><path class="cls-6" d="M733,1675.72a11.25,11.25,0,0,1,13.88-16.63c-3.28-.6-6.4,2.49-7.06,5.75s.7,6.64,2.67,9.33a9.65,9.65,0,0,0,3,2.86,11.39,11.39,0,0,0,6.15,1c4.81-.23,10.26-1.58,12.47-5.86.42,3.3-1.84,6.5-4.75,8.11s-6.35,1.93-9.67,2a30,30,0,0,1-9.34-1A13.88,13.88,0,0,1,733,1675.72Z" transform="translate(-536 -1202)"/><path class="cls-6" d="M683.34,1685.68c-1.22,1.63-1.49,4.12-.12,5.61a6.3,6.3,0,0,0,3.5,1.58,77.91,77.91,0,0,0,14.88,1l69.79.33a16.43,16.43,0,0,0,6.91-1c2.13-1,3.9-3.17,3.57-5.49-3.69,2.59-8.08,3.1-12.59,3.27-5.45.2-11,.19-16.29-1.08s-10.43-3.93-13.8-8.22a9.86,9.86,0,0,0,4.38,9.22c-15.74-1.94-31.68-.12-47.55-.43C691.41,1690.46,685.05,1690,683.34,1685.68Z" transform="translate(-536 -1202)"/><path class="cls-6" d="M826,1685.71v6.63c-.67,0-1.34-.08-2-.14a103,103,0,0,1-18.53-3.23,14.11,14.11,0,0,1-11.87,4,20,20,0,0,1-6.49-1.93l-.77-.38a29.41,29.41,0,0,1-4.47-2.93c-4.51-3.57-6.38-11-5.17-16.58a17.5,17.5,0,0,0,13.76,16.32,10,10,0,0,0,6.79-.76,5.61,5.61,0,0,0,3-5.8,58.32,58.32,0,0,0,13,3.87l.85.15a58.21,58.21,0,0,0,10,.77C824.67,1685.76,825.33,1685.74,826,1685.71Z" transform="translate(-536 -1202)"/><path class="cls-4" d="M610.45,1446.61c-.9,6-7.64,9.23-13,10.07-1.68.26-16.39-2.8-15.1-4-9.6,8.83-25.91,9-35.74.48a37,37,0,0,1-6.6,6.51c-.65.5-1.32,1-2,1.44v-44.55c.69.53,1.36,1.1,2,1.7a32.32,32.32,0,0,1,3.87,4.23c13.31-8.82,33.88-3.08,40.69,11.36a14,14,0,0,1,6.79-2.22h.09l.7,0C601.18,1431.21,611.89,1437.08,610.45,1446.61Z" transform="translate(-536 -1202)"/><path class="cls-5" d="M610.45,1446.61c-.9,6-7.64,9.23-13,10.07-1.68.26-16.39-2.8-15.1-4-9.6,8.83-25.91,9-35.74.48a37,37,0,0,1-6.6,6.51c-.65.5-1.32,1-2,1.44v-37.29c.69.49,1.36,1,2,1.54a29,29,0,0,1,8.68,12.26,9.3,9.3,0,0,0,2,3.79,7.52,7.52,0,0,0,3.18,1.52,55.22,55.22,0,0,0,17.3,2c4.89-.2,10.35-1.44,13-5.59,1.73,2.53,4.24,4.72,7.27,5.18s6.49-1.31,7.13-4.3c.51-2.36-.8-4.82-2.67-6.34-.68-.55-3.09-1.41-4.46-2.28h.08l.7,0C601.18,1431.21,611.89,1437.08,610.45,1446.61Z" transform="translate(-536 -1202)"/><path class="cls-6" d="M546.6,1453.17a37,37,0,0,1-6.6,6.51c-.65.5-1.32,1-2,1.44v-6.18c.67-.43,1.34-.87,2-1.33,3.12-2.2,6-4.89,6.63-8.55C546.77,1447.47,546.46,1450.76,546.6,1453.17Z" transform="translate(-536 -1202)"/><path class="cls-6" d="M546.6,1453.17c9.83,8.57,26.14,8.35,35.74-.48-1.29,1.19,13.42,4.25,15.1,4,5.37-.84,12.11-4.09,13-10.07,1.48-9.81-9.91-15.74-19.1-15,4.54,1.13,9.19,2.86,11.58,6.87s1.93,9.92-1.9,12.59c-2.52,1.76-5.85,1.82-8.89,1.36-3.67-.55-7.57-2-9.27-5.33-4.37,4.69-10.75,7.13-17.13,7.79S552.88,1454.42,546.6,1453.17Z" transform="translate(-536 -1202)"/><path class="cls-7" d="M826,1863.53v11.61h-.08l-1.92-.06c-123.93-4.27-210.26-24.75-231.42-35.9-10.59-5.57-17.35-10.64-21.14-15.35-3.3-4.08-4.36-7.88-3.75-11.51a10.33,10.33,0,0,0,.71,1.71c10.94,20.72,72.83,43.5,255.6,49.44l1.92.07Z" transform="translate(-536 -1202)"/><path class="cls-8" d="M826,1681.64v46l-2,0-7.38.1c-10.81.13-17.52.1-18.46-.14-1.82-.47-6.72-3-12.83-6.38-5.33-3-11.58-6.57-17.52-10-10.85-6.39-20.66-12.35-21.9-13.1l-.13-.08,2.51-.34.64-.1c3.68-.52,10.34-1.51,18.65-2.92l2.77-.48h.06c2.88-.51,5.92-1.06,9.09-1.66h0c2.47-.46,5-1,7.6-1.47,8.71-1.74,18-3.78,26.94-6.11,3.38-.88,6.71-1.79,10-2.75Z" transform="translate(-536 -1202)"/><path class="cls-9" d="M826,1681.49v44.68l-.24,0-1.76-.1c-15.59-1-25.71-1.94-27.45-2.39-1-.25-5.14-1.12-11.22-2.37-12.92-2.65-34.45-7-52.19-10.52l-29.67-5.91s18.57-2.67,42.44-6.72l2.38-.42.64-.1c5.66-1,11.57-2,17.58-3.12l1.58-.3h0c4-.74,8.09-1.51,12.14-2.29l6.07-1.2c9.4-1.89,18.57-3.87,26.86-5.88,3.81-.92,7.43-1.85,10.8-2.79Z" transform="translate(-536 -1202)"/><path class="cls-10" d="M826,1712.26v34.13l-2,.09-36.17,1.61-12.3.54-6.06.26c-17.21.75-36.07,1.56-55.43,2.37h0l-29,1.2c-15.45.63-30.86,1.24-45.65,1.8h0c-7.13.28-14.11.54-20.89.79l-6,.21-6.84.25h-.1l-9.75.35h0l-12.76.42h-.05l-6.43.2h0c-7.75.23-14.81.43-21,.57l-1.91,0-1.2,0c-5.65.12-10.48.19-14.33.2v-68.69a240.66,240.66,0,0,0,31-13.54l.33-.18,1.47-.8c38.13-21.14,44.06-39.79,60.58-43.21.52-.11,1-.42,1.67-.63a3.53,3.53,0,0,1,2.45.08h0a3.2,3.2,0,0,1,.39.16l.09,0c13.68,6.5,46.58,33.83,78.41,49.44l.35.18c9.32,4.55,18.54,8.08,27.15,9.78l.44.09c7.42,1.45,14.94,2.81,22.35,4.14h0l1.74.31,1.07.2c11.69,2.12,22.93,4.22,32.58,6.67,10.16,2.58,18.55,5.55,23.84,9.33l.54.4C825,1711.47,825.51,1711.86,826,1712.26Z" transform="translate(-536 -1202)"/><path class="cls-11" d="M689.92,1756.34c-12.83.85-25.62,1.33-38.08,1.52-19.13.29-37.48-.09-54-.81-5.18-.22-10.17-.48-14.94-.77h-.05q-4.39-.27-8.53-.55-6.71-.46-12.67-1l-3.52-.3h0l-1.63-.14h0l-1-.1c-3.3-.31-6.36-.61-9.18-.92h0c-3.06-.33-5.82-.65-8.25-1V1687.9c12.12-4.22,22.94-8.56,31-12.81l.33-.18,1.47-.8c18.25-10.12,33.81-26.79,50.51-39.54a26,26,0,0,1,11.74-4.3,9.71,9.71,0,0,1,2.45.08h0l.39.09v.07c-.92,11.66,1.28,43,14.49,73.83a148.84,148.84,0,0,0,8.39,16.69,128.41,128.41,0,0,0,8.62,12.92q1.11,1.49,2.28,2.94c.76.93,1.54,1.86,2.33,2.78q3.6,4.2,7.66,8.08l.71.67c1.48,1.38,3,2.73,4.57,4S688.23,1755.09,689.92,1756.34Z" transform="translate(-536 -1202)"/><path class="cls-11" d="M826,1705.94v28H538v-33.62a35.74,35.74,0,0,1,4.55-.29c.77,0,1.53,0,2.28.07a4,4,0,0,1,3.88-2.36c2.18,0,4,1.42,4,3.2.39,0,.78,0,1.18,0a12.33,12.33,0,0,1,4.17.72,4.13,4.13,0,0,1,3.73-2,4.51,4.51,0,0,1,2.9,1,11.78,11.78,0,0,1,9.55-4.45c5.48,0,10,3.25,11,7.54a4.66,4.66,0,0,1,2.41-.65c2.24,0,4.05,1.48,4.05,3.32a3,3,0,0,1-1.12,2.29,12.67,12.67,0,0,1,6,1.87,4.73,4.73,0,0,1,2.12-.49c2.23,0,4.05,1.49,4.05,3.33a2.84,2.84,0,0,1-.58,1.71,10.32,10.32,0,0,1,6.67,5.61,4.66,4.66,0,0,1,2-.44,4.48,4.48,0,0,1,2.92,1v1.6l1-.42c.82-.32,1.64-.6,2.47-.86a3.8,3.8,0,0,1,2.69-4.1,5.28,5.28,0,0,1,6.24,1.75c.39-.19.79-.38,1.22-.54a14.17,14.17,0,0,1,4.86-.94,3.9,3.9,0,0,1,2.73-3.69,5.73,5.73,0,0,1,3.7-.11c.45-3.63,3.14-7,7.46-8.64a15.55,15.55,0,0,1,4.27-1,14.35,14.35,0,0,1,11.94,4.49,4.42,4.42,0,0,1,2.16-1.67,5.22,5.22,0,0,1,6.32,1.88,3.25,3.25,0,0,1,.2,2.89,15.63,15.63,0,0,1,7.48-.46,4.65,4.65,0,0,1,2-1.39,5.23,5.23,0,0,1,6.31,1.88,3.35,3.35,0,0,1,.43,2.06,14.74,14.74,0,0,1,10.39,3.16l.09.07a4.45,4.45,0,0,1,1.86-1.28l.08,0a5.29,5.29,0,0,1,6,1.5,2.8,2.8,0,0,1,.27.4,3.29,3.29,0,0,1,.45,1.51c.35-.17.72-.33,1.09-.47a15.34,15.34,0,0,1,14.06,1.58,11.8,11.8,0,0,1,1.78,1.52c.2-.11.42-.21.64-.31a6.65,6.65,0,0,1,2.22-.48,4.13,4.13,0,0,1,2.6-2.63,5.75,5.75,0,0,1,1.62-.36,12.79,12.79,0,0,1,2.79-7.45c5.89-7.54,19.45-9.74,24.75-.93a3.4,3.4,0,0,1,1-.15,2.88,2.88,0,0,1,2.76,1.68c.54,0,1.08,0,1.62,0a25.76,25.76,0,0,1,4.52.4,2.11,2.11,0,0,1,0-.26.82.82,0,0,1,0-.22,2.43,2.43,0,0,1,1.73-2,5.08,5.08,0,0,1-.16-1.24c0-3.31,3.27-6,7.3-6a8.58,8.58,0,0,1,3.81.88,8,8,0,0,1,13.65-.13,23.87,23.87,0,0,1,6-1.43,22.21,22.21,0,0,1,2.84-.17,24.32,24.32,0,0,1,11.76,3,10.83,10.83,0,0,1,4.24-.84,10.62,10.62,0,0,1,5,1.21A8.5,8.5,0,0,1,826,1705.94Z" transform="translate(-536 -1202)"/><rect class="cls-12" x="19.44" y="534.9" width="270.56" height="27.28"/><path class="cls-13" d="M826,1725.41v14.27H538V1722a2,2,0,0,1,1.69,1.83,1.73,1.73,0,0,1-.15.68l0,0a2.22,2.22,0,0,1-.47.59,7.41,7.41,0,0,1,3.43,1.07,2.92,2.92,0,0,1,1.17-.28h0a2.58,2.58,0,0,1,1.79.69h0a1.71,1.71,0,0,1,.53,1.21,1.64,1.64,0,0,1-.34,1,5.91,5.91,0,0,1,3.83,3.22,2.69,2.69,0,0,1,1.15-.25,2.57,2.57,0,0,1,1.67.59v.92l.61-.25c.47-.18.94-.34,1.41-.49a1.92,1.92,0,0,1,.54-1.68,2.71,2.71,0,0,1,1-.67,3,3,0,0,1,3.57,1,7.65,7.65,0,0,1,.71-.32,8.16,8.16,0,0,1,2.78-.53,2.24,2.24,0,0,1,1.57-2.12,3.29,3.29,0,0,1,2.12-.07,5,5,0,0,1,.26-1.08,6,6,0,0,1,1.83-2.59,7.61,7.61,0,0,1,2.19-1.28,8.64,8.64,0,0,1,8.82,1.52c.17.16.33.33.48.5a2.12,2.12,0,0,1,.4-.45,2.7,2.7,0,0,1,.84-.51,3.06,3.06,0,0,1,3.48.86,1.07,1.07,0,0,1,.15.22,1.85,1.85,0,0,1,.11,1.66,9,9,0,0,1,4.3-.27,2.61,2.61,0,0,1,1.12-.79l.24-.08h0a3.1,3.1,0,0,1,2.71.44h0a2.15,2.15,0,0,1,.64.7,2,2,0,0,1,.25,1.18,8.48,8.48,0,0,1,6,1.86,2.7,2.7,0,0,1,1.07-.74,3,3,0,0,1,3.62,1.08,1.79,1.79,0,0,1,.26.87,6,6,0,0,1,.63-.27,8.65,8.65,0,0,1,4.37-.49h0a8.13,8.13,0,0,1,2.86.91h0a6.69,6.69,0,0,1,1.8,1.35c.12-.07.24-.12.37-.18a3.47,3.47,0,0,1,.76-.22l.51-.06a2.43,2.43,0,0,1,1.5-1.51,3.3,3.3,0,0,1,.92-.2c.36-9.89,15.48-10.74,18-3.93l.93,0a14.71,14.71,0,0,1,2.6.23.76.76,0,0,1,0-.15,1.38,1.38,0,0,1,1-1.25,2.69,2.69,0,0,1-.09-.7c0-1.9,1.87-3.45,4.19-3.45a4.83,4.83,0,0,1,2.18.51,4.57,4.57,0,0,1,7.83-.07,14.78,14.78,0,0,1,5.09-.93,13.89,13.89,0,0,1,6.74,1.7,6.25,6.25,0,0,1,2.44-.49,5.65,5.65,0,0,1,4.56,2.13,2.15,2.15,0,0,1,1.39-.48,2,2,0,0,1,1.78,1,5.9,5.9,0,0,1,2-.34l.57,0a1.81,1.81,0,0,1,1.93-1.53,1.91,1.91,0,0,1,1.85,1.13c.36,0,.73,0,1.09,0a16.77,16.77,0,0,1,3,.27,1,1,0,0,1,0-.17,1.63,1.63,0,0,1,1.17-1.47,3.68,3.68,0,0,1-.1-.82c0-2.23,2.2-4,4.91-4a5.78,5.78,0,0,1,2.56.59,3.92,3.92,0,0,1,.79-1.13,4.79,4.79,0,0,1,2-1.21l.08,0a5.72,5.72,0,0,1,1.78-.28,5.26,5.26,0,0,1,4.13,1.85l.06-.07a5.25,5.25,0,0,1,4.06-1.78,5.34,5.34,0,0,1,3.86,1.55,16.72,16.72,0,0,1,2.87.52l.43,0a4.92,4.92,0,0,1,4.65,2.75,3.3,3.3,0,0,1,.26,1.29,3.18,3.18,0,0,1-.1.82,1.63,1.63,0,0,1,1.17,1.47,1,1,0,0,1,0,.17,16.77,16.77,0,0,1,3-.27c.36,0,.73,0,1.09,0a1.92,1.92,0,0,1,1.85-1.13,1.81,1.81,0,0,1,1.93,1.53l.57,0a5.85,5.85,0,0,1,2,.34,2,2,0,0,1,1.78-1,2.15,2.15,0,0,1,1.39.48,5.65,5.65,0,0,1,4.56-2.13,6.25,6.25,0,0,1,2.44.49,13.89,13.89,0,0,1,6.74-1.7,14.08,14.08,0,0,1,5.09.93,4.57,4.57,0,0,1,7.83.07,4.83,4.83,0,0,1,2.18-.51c2.32,0,4.19,1.55,4.19,3.45a2.69,2.69,0,0,1-.09.7,1.38,1.38,0,0,1,1,1.25.76.76,0,0,1,0,.15,14.79,14.79,0,0,1,2.6-.23c.31,0,.62,0,.92,0,2.5-6.81,17.62-6,18,3.93a3.3,3.3,0,0,1,.92.2,2.43,2.43,0,0,1,1.5,1.51,3.77,3.77,0,0,1,1.27.28c.13.06.25.11.37.18A8.59,8.59,0,0,1,805,1731a6,6,0,0,1,.63.27,1.9,1.9,0,0,1,.26-.87,3,3,0,0,1,3.62-1.08,2.63,2.63,0,0,1,1.07.74,8.49,8.49,0,0,1,6-1.86,1.55,1.55,0,0,1,0-.43,1.83,1.83,0,0,1,.24-.75,3,3,0,0,1,3.62-1.07,2.55,2.55,0,0,1,1.12.79,9.15,9.15,0,0,1,2.4-.11,8.89,8.89,0,0,1,1.9.38,1.86,1.86,0,0,1-.14-.9A2.07,2.07,0,0,1,826,1725.41Z" transform="translate(-536 -1202)"/><path class="cls-14" d="M781.56,1753.36s-7,4.06-14.33,7.88h0c-1.65.85-3.31,1.69-4.92,2.46l-.43.21-.56.27c-1.26.59-2.47,1.14-3.6,1.63h0a29.36,29.36,0,0,1-5.51,1.88c-1.92.34-24.81.49-56.81.53H686l-43.49,0h-9.74l-24,0c-19.21,0-38.36-.1-56-.15l-14.34,0h-.44v-4.25H538v-39.17h33.11c3.06,0,5.93.08,8.64.24l.88,0c1.49.1,2.93.21,4.32.35q3.07.3,5.92.74h0l2.71.44h0a134.72,134.72,0,0,1,16.85,4.19h0l2.86.91h0l2.93,1L621,1734c2.89,1,5.9,1.94,9.12,2.94,2.95.92,6.07,1.85,9.44,2.78a291.16,291.16,0,0,0,30.74,6.66l1.64.26h0c2.49.39,5.07.78,7.77,1.15l.95.13c9.65,1.31,20.65,2.46,33.35,3.37h0C732.58,1752.57,754.73,1753.36,781.56,1753.36Z" transform="translate(-536 -1202)"/><path class="cls-15" d="M686,1768.23c-11.89.73-30.93.87-42.81.57-1.09,0-2.16-.06-3.2-.11h0c-2.52-.11-4.9-.27-7.2-.5a82.73,82.73,0,0,1-13.78-2.47c2.74,1.11-2.13,1.91-10.24,2.43-12.42.8-32.45,1-44.46.65a114.29,114.29,0,0,1-11.57-.8,57,57,0,0,1-6.31-1.15,45.45,45.45,0,0,1-8,1.1l-.36,0h-.08v-4.09h.15l.3,0-.08,0-.29-.15-.08,0v0H538v-27.52l5.4,3.5c3.7,2.38,7.65,4.87,12,7.32,3.25,1.81,6.75,3.61,10.57,5.32h0c2.62,1.18,5.39,2.32,8.34,3.41l2.09.75h0a155.49,155.49,0,0,0,31.31,7.22l1,.13.61.08,2.06.27c2.37.34,4.18.65,5.5,1-1-.3-2-.62-2.95-1l-.77-.27-.59-.21a109.3,109.3,0,0,1-14.72-6.65c-.73-.39-1.45-.79-2.17-1.19h0c-2.84-1.59-5.62-3.26-8.37-5h0l-2.37-1.5h0l-1.48-.94c-4.53-2.91-9-5.89-13.52-8.76q-2.21-1.41-4.44-2.78c-1.65-1-3.3-2-5-2.94-1.86-1.06-3.73-2.09-5.64-3.06a99.3,99.3,0,0,0-9.4-4.25h0l-1.83-.69c-1.36-.49-2.73-1-4.13-1.38l-.14,0h13.73a80.62,80.62,0,0,1,13.8,2.59,185.3,185.3,0,0,1,19.82,6.84c2.38.94,4.79,1.92,7.26,2.94,2.2.9,4.44,1.84,6.72,2.78,6.91,2.88,14.2,5.89,21.95,8.8,5.33,2,10.87,4,16.67,5.78h0c4,1.27,8.2,2.48,12.5,3.6a228,228,0,0,0,30.68,5.84l1.08.13.69.08,2.22.27a52.75,52.75,0,0,1,9.35,1.7h0C698.75,1767,694,1767.73,686,1768.23Z" transform="translate(-536 -1202)"/><path class="cls-16" d="M826,1749.64v14.27H537.92v-.21H538v-17.45a2,2,0,0,1,1.69,1.83,1.78,1.78,0,0,1-.64,1.32,7.19,7.19,0,0,1,3.43,1.07,2.66,2.66,0,0,1,1.21-.28,2.15,2.15,0,0,1,2.33,1.91,1.66,1.66,0,0,1-.34,1c.19.06.38.12.57.2h0a5.74,5.74,0,0,1,3.25,3,2.69,2.69,0,0,1,1.15-.25,2.56,2.56,0,0,1,1.67.58v.92l.61-.24.59-.22.82-.27a2.08,2.08,0,0,1,1.09-2.12,2.47,2.47,0,0,1,.46-.23,3.86,3.86,0,0,1,.58-.17h0a3.19,3.19,0,0,1,1.63.14h0a2.51,2.51,0,0,1,1.3,1,7.6,7.6,0,0,1,.71-.31,7.35,7.35,0,0,1,1.51-.41,7.81,7.81,0,0,1,1.27-.13,2.23,2.23,0,0,1,1.57-2.11,3,3,0,0,1,1.48-.19h0a2.2,2.2,0,0,1,.63.12,6.38,6.38,0,0,1,4.28-5,8.52,8.52,0,0,1,9.3,2,2.56,2.56,0,0,1,1.24-1,3.24,3.24,0,0,1,2-.1,2.72,2.72,0,0,1,1.48.94h0l.15.23a1.85,1.85,0,0,1,.11,1.66,8.53,8.53,0,0,1,2.11-.39h0a9.3,9.3,0,0,1,2.18.13,2.55,2.55,0,0,1,1.12-.8,3,3,0,0,1,3.62,1.08,1.94,1.94,0,0,1,.25,1.18,8.48,8.48,0,0,1,6,1.85,2.68,2.68,0,0,1,1.07-.73,3,3,0,0,1,3.62,1.08,1.83,1.83,0,0,1,.26.83v0l.1,0c.17-.09.34-.16.53-.24a8.91,8.91,0,0,1,6.31,0,7.35,7.35,0,0,1,2.77,1.8,2.53,2.53,0,0,1,.37-.18,3.77,3.77,0,0,1,1.27-.28,2.41,2.41,0,0,1,1.5-1.51l.13,0a2.71,2.71,0,0,1,.79-.16,8,8,0,0,1,3.43-6.41c4.71-3.33,12.78-2.34,14.54,2.47l.93,0a15.71,15.71,0,0,1,2.6.23.61.61,0,0,1,0-.14,1.38,1.38,0,0,1,1-1.25,2.76,2.76,0,0,1-.09-.71c0-1.9,1.87-3.44,4.19-3.44a4.83,4.83,0,0,1,2.18.5,4.57,4.57,0,0,1,7.83-.07,14.3,14.3,0,0,1,5.09-.92,13.89,13.89,0,0,1,6.74,1.69,6.25,6.25,0,0,1,2.44-.48h.18a5.8,5.8,0,0,1,1.64.26h0a5.18,5.18,0,0,1,2.72,1.85,2.15,2.15,0,0,1,1.39-.49,2,2,0,0,1,1.78,1,5.9,5.9,0,0,1,2-.35,5.44,5.44,0,0,1,.57,0,.64.64,0,0,1,0-.2,1.2,1.2,0,0,1,.24-.54,2,2,0,0,1,1.66-.79,1.9,1.9,0,0,1,1.85,1.13c.36,0,.73,0,1.09,0a17.72,17.72,0,0,1,3,.27.91.91,0,0,1,0-.17,1.6,1.6,0,0,1,1.17-1.46,3.85,3.85,0,0,1-.1-.83c0-2.23,2.2-4,4.91-4a5.64,5.64,0,0,1,2.56.59,5,5,0,0,1,4.6-2.64,5.25,5.25,0,0,1,4.13,1.84,5.22,5.22,0,0,1,4.12-1.84,5.3,5.3,0,0,1,3.86,1.55,16.71,16.71,0,0,1,2.87.51h.43c2.71,0,4.91,1.8,4.91,4a3.31,3.31,0,0,1-.1.83,1.6,1.6,0,0,1,1.17,1.46.91.91,0,0,1,0,.17,17.72,17.72,0,0,1,3-.27c.36,0,.73,0,1.09,0a1.91,1.91,0,0,1,1.85-1.13,1.81,1.81,0,0,1,1.93,1.53,5.44,5.44,0,0,1,.57,0,5.86,5.86,0,0,1,2,.35,2,2,0,0,1,1.78-1,2.15,2.15,0,0,1,1.39.49,5.62,5.62,0,0,1,4.56-2.13,6.25,6.25,0,0,1,2.44.48,13.89,13.89,0,0,1,6.74-1.69,14.3,14.3,0,0,1,5.09.92,4.57,4.57,0,0,1,7.83.07,4.83,4.83,0,0,1,2.18-.5c2.25,0,4.08,1.45,4.18,3.28a.86.86,0,0,1,0,.16,2.82,2.82,0,0,1-.09.71,1.38,1.38,0,0,1,1,1.25.76.76,0,0,1,0,.15,14.79,14.79,0,0,1,2.6-.24c.31,0,.62,0,.92,0a5.54,5.54,0,0,1,1.63-2.32c2.93-2.57,8.49-2.82,12.3-.54a8,8,0,0,1,4,6.8,3,3,0,0,1,.92.2,2.41,2.41,0,0,1,1.5,1.51,3.77,3.77,0,0,1,1.27.28,2.53,2.53,0,0,1,.37.18,8.57,8.57,0,0,1,9.08-1.79c.22.09.43.18.63.28a1.87,1.87,0,0,1,.26-.87,3,3,0,0,1,3.62-1.08,2.61,2.61,0,0,1,1.07.73,8.49,8.49,0,0,1,6-1.85,1.86,1.86,0,0,1,.24-1.18,3,3,0,0,1,3.62-1.08,2.49,2.49,0,0,1,1.12.8,9.6,9.6,0,0,1,2.4-.12,8.89,8.89,0,0,1,1.9.38A1.83,1.83,0,0,1,826,1749.64Z" transform="translate(-536 -1202)"/><path class="cls-17" d="M826,1786v78.56h-.08l-1.92-.08-6.12-.27c-33.2-1.5-66.59-3.6-99.61-6.84-23.83-2.34-47.94-5.31-71.17-9.47-42.94-7.7-66.33-15.93-75.66-24.08-7.05-6.16-6.06-12.27.61-18.07,7.56-6.56,22.41-12.7,41.11-18,10.77-3.07,22.06-5.82,33.76-8.29L824,1785.94l1.92.07Z" transform="translate(-536 -1202)"/><path class="cls-18" d="M826,1758.57v95.49h-.08L824,1854l-10.74-.46c-32.49-1.45-65.1-3.46-97.21-6.52-23.18-2.21-46.56-5-68.95-8.9-59.74-10.4-79.28-21.75-75.05-32.35,3.44-8.58,22.48-16.67,48.38-23.36a643.78,643.78,0,0,1,75-14.17q10.15-1.37,20.56-2.52,7.3-.79,14.71-1.52l2.84-.27,2.25-.21q15.54-1.42,31.48-2.46h0c18.66-1.22,37.65-2.07,56.77-2.61Z" transform="translate(-536 -1202)"/><path class="cls-19" d="M643,1783.71c.67,0,1.21,1.12,1.21,2.5s-.54,2.5-1.21,2.5-1.21-1.12-1.21-2.5S642.33,1783.71,643,1783.71Z" transform="translate(-536 -1202)"/><path class="cls-19" d="M647.53,1784.44c.58.34.49,1.57-.2,2.77s-1.72,1.89-2.3,1.55-.49-1.57.2-2.76S647,1784.11,647.53,1784.44Z" transform="translate(-536 -1202)"/><path class="cls-19" d="M638.38,1784.44c-.57.34-.49,1.57.2,2.77s1.72,1.89,2.3,1.55.49-1.57-.2-2.76S639,1784.11,638.38,1784.44Z" transform="translate(-536 -1202)"/><path class="cls-19" d="M701.94,1769.17c.67,0,1.21,1.12,1.21,2.49s-.54,2.5-1.21,2.5-1.22-1.12-1.22-2.5S701.27,1769.17,701.94,1769.17Z" transform="translate(-536 -1202)"/><path class="cls-19" d="M706.46,1769.9c.58.33.49,1.57-.19,2.76s-1.72,1.89-2.3,1.56-.49-1.57.2-2.77S705.88,1769.56,706.46,1769.9Z" transform="translate(-536 -1202)"/><path class="cls-19" d="M697.32,1769.9c-.58.33-.49,1.57.2,2.76s1.72,1.89,2.3,1.56.49-1.57-.2-2.77S697.9,1769.56,697.32,1769.9Z" transform="translate(-536 -1202)"/><path class="cls-14" d="M588.36,1806.71c.67,0,1.22,1.12,1.22,2.5s-.55,2.49-1.22,2.49-1.21-1.12-1.21-2.49S587.69,1806.71,588.36,1806.71Z" transform="translate(-536 -1202)"/><path class="cls-14" d="M592.89,1807.44c.58.33.49,1.57-.2,2.76s-1.71,1.89-2.3,1.56-.49-1.57.2-2.77S592.31,1807.1,592.89,1807.44Z" transform="translate(-536 -1202)"/><path class="cls-14" d="M583.75,1807.44c-.58.33-.49,1.57.19,2.76s1.72,1.89,2.3,1.56.49-1.57-.2-2.77S584.33,1807.1,583.75,1807.44Z" transform="translate(-536 -1202)"/><path class="cls-19" d="M665.82,1797.21c.67,0,1.21,1.11,1.21,2.49s-.54,2.5-1.21,2.5-1.21-1.12-1.21-2.5S665.15,1797.21,665.82,1797.21Z" transform="translate(-536 -1202)"/><path class="cls-19" d="M670.35,1797.93c.58.34.49,1.58-.2,2.77s-1.72,1.89-2.3,1.55-.49-1.57.2-2.76S669.77,1797.6,670.35,1797.93Z" transform="translate(-536 -1202)"/><path class="cls-19" d="M661.2,1797.93c-.58.34-.49,1.58.2,2.77s1.72,1.89,2.3,1.55.49-1.57-.2-2.76S661.78,1797.6,661.2,1797.93Z" transform="translate(-536 -1202)"/><path class="cls-19" d="M826,1799.55v34.11a.11.11,0,0,1-.08,0l-1.92-.15q-8.71-.69-17.37-1.58c-9.08-.93-18.22-2.05-27.21-3.46,2.13-10.17,12.58-5.82,12.58-5.82l1.2-.6c.93-.45,1.87-.86,2.81-1.23a5.44,5.44,0,0,1,10.19-3.39,12.4,12.4,0,0,1,1.39-.77,13.67,13.67,0,0,1,5.55-1.37,5.44,5.44,0,0,1,7.3-5.39,15,15,0,0,1,3.56-8.42,14.09,14.09,0,0,1,1.92-1.86A.21.21,0,0,1,826,1799.55Z" transform="translate(-536 -1202)"/><line class="cls-20" y1="214.57"/></svg>