<svg width="1366" height="719" viewBox="0 0 1366 719" fill="none" xmlns="http://www.w3.org/2000/svg">
<path d="M1366 0H0V510.608H1366V0Z" fill="#9C6936"/>
<path d="M1341.93 205.011C1332.01 206.66 1322.26 208.629 1312.51 211.485C1302.32 214.464 1292.18 217.836 1281.97 220.692C1262.63 226.132 1243.13 229.751 1223.36 226.009C1204.09 222.366 1185.55 214.488 1166.75 208.235C1147.82 201.958 1128.94 198.659 1109.39 199.496C1089.38 200.333 1069.56 203.927 1049.67 206.315C1030.04 208.703 1010.58 208.851 990.909 208.211C978.887 207.842 966.793 207.3 954.747 207.718C944.294 209.048 933.865 211.706 923.34 211.362C910.474 210.943 897.51 207.595 884.982 204.026C866.007 198.61 847.299 191.643 828.18 187.261C809.35 182.953 791.124 182.19 772.271 186.966C737.291 195.828 704.581 214.464 668.757 218.082C630.785 221.898 592.233 220.593 554.888 210.254C536.734 205.232 518.798 198.561 501.658 189.28C484.278 179.876 466.703 168.7 447.898 164.983C410.022 157.499 376.371 189.255 339.605 195.484C302.743 201.736 266.195 193.563 229.332 194.917C190.153 196.345 152.832 212.248 114.425 220.347C76.1383 228.372 37.9726 212.839 0 204.764L0.893189 718.111L1366 715.625L1365.11 202.278C1357.33 202.598 1349.63 203.706 1341.93 205.011Z" fill="#8C582A"/>
<path d="M1288.87 416.744C1273.11 433.312 1258.36 453.621 1238.49 464.699C1219.93 475.038 1196.83 477.205 1176.5 472.355C1134.33 462.262 1103.86 427.01 1068.04 403.451C1046.26 389.124 1021.83 377.824 996.22 386.465C973.48 394.146 952.84 407.168 928.144 404.263C903.811 401.408 881.964 389.788 859.007 381.418C846.116 376.692 832.573 372.605 818.837 372.901C804.16 373.245 789.338 377.258 775.385 382.009C745.113 392.275 716.724 407.685 688.963 424.203C664.46 438.802 639.354 450.273 611.134 452.218C582.504 454.163 554.091 448.353 527.102 438.112C499.365 427.551 472.014 413.199 442.636 408.891C427.379 406.651 411.784 406.627 396.793 410.689C381.319 414.873 367.028 422.456 352.206 428.733C328.694 438.728 304.577 447.122 279.399 450.15C254.076 453.203 228.391 453.375 202.947 455.492C178.131 457.56 152.953 459.653 128.088 457.092C107.279 454.951 84.4426 450.249 68.7514 433.927C52.9637 417.458 49.2461 406.479 33.048 390.527C24.1402 381.763 10.3079 381.911 0.193115 379.646L0.65178 646.252L1365.76 643.766L1365.3 377.16C1336.02 382.157 1310.38 394.121 1288.87 416.744Z" fill="#7E4A20"/>
</svg>
