<svg width="338" height="216" viewBox="0 0 338 216" fill="none" xmlns="http://www.w3.org/2000/svg">
<path d="M178.992 61.0059C178.992 62.3532 178.593 63.6703 177.844 64.7905C177.095 65.9107 176.031 66.7839 174.786 67.2994C173.542 67.815 172.172 67.9499 170.85 67.6871C169.528 67.4242 168.315 66.7753 167.362 65.8227C166.409 64.87 165.76 63.6563 165.497 62.3349C165.234 61.0136 165.369 59.6438 165.885 58.3991C166.4 57.1544 167.274 56.0905 168.394 55.342C169.514 54.5935 170.832 54.194 172.179 54.194C173.986 54.194 175.719 54.9117 176.997 56.1892C178.274 57.4667 178.992 59.1993 178.992 61.0059Z" fill="white"/>
<path d="M137.381 119.813C140.191 119.813 142.469 117.535 142.469 114.726C142.469 111.916 140.191 109.638 137.381 109.638C134.57 109.638 132.292 111.916 132.292 114.726C132.292 117.535 134.57 119.813 137.381 119.813Z" fill="white"/>
<path d="M142.469 27.5496C142.469 28.5558 142.17 29.5394 141.611 30.376C141.052 31.2127 140.257 31.8647 139.328 32.2498C138.398 32.6348 137.375 32.7357 136.388 32.5394C135.401 32.3431 134.494 31.8586 133.783 31.1471C133.071 30.4356 132.586 29.529 132.39 28.5422C132.194 27.5553 132.295 26.5323 132.68 25.6027C133.065 24.6731 133.717 23.8786 134.554 23.3196C135.39 22.7606 136.374 22.4622 137.381 22.4622C138.73 22.4622 140.024 22.9981 140.978 23.9522C141.933 24.9063 142.469 26.2003 142.469 27.5496Z" fill="white"/>
<path d="M193.696 104.68C194.339 104.68 194.86 104.159 194.86 103.516C194.86 102.873 194.339 102.352 193.696 102.352C193.053 102.352 192.532 102.873 192.532 103.516C192.532 104.159 193.053 104.68 193.696 104.68Z" fill="white"/>
<path d="M10.2626 210.87C10.2626 211.884 9.96166 212.876 9.39783 213.72C8.83399 214.564 8.0326 215.221 7.09498 215.609C6.15735 215.998 5.12561 216.099 4.13023 215.901C3.13485 215.703 2.22055 215.215 1.50292 214.497C0.785294 213.78 0.296591 212.866 0.0985982 211.87C-0.0993944 210.875 0.00222544 209.844 0.390602 208.906C0.778978 207.969 1.43666 207.168 2.2805 206.604C3.12434 206.04 4.11643 205.739 5.1313 205.739C5.80676 205.733 6.4766 205.862 7.10175 206.118C7.72691 206.374 8.29486 206.751 8.7725 207.229C9.25013 207.707 9.6279 208.274 9.88373 208.899C10.1396 209.524 10.2684 210.194 10.2626 210.87Z" fill="white"/>
<path d="M5.13131 10.2612C7.96526 10.2612 10.2626 7.96414 10.2626 5.1306C10.2626 2.29705 7.96526 0 5.13131 0C2.29736 0 0 2.29705 0 5.1306C0 7.96414 2.29736 10.2612 5.13131 10.2612Z" fill="white"/>
<path d="M324.048 193.064C325.525 193.064 326.722 191.867 326.722 190.391C326.722 188.914 325.525 187.717 324.048 187.717C322.572 187.717 321.375 188.914 321.375 190.391C321.375 191.867 322.572 193.064 324.048 193.064Z" fill="white"/>
<path d="M295.761 71.3102C295.761 72.0009 295.557 72.6761 295.173 73.2504C294.789 73.8247 294.243 74.2722 293.605 74.5365C292.967 74.8008 292.265 74.87 291.587 74.7353C290.91 74.6005 290.287 74.2679 289.799 73.7795C289.31 73.2912 288.978 72.6689 288.843 71.9915C288.708 71.3141 288.777 70.6118 289.042 69.9737C289.306 69.3356 289.754 68.7903 290.328 68.4066C290.903 68.0228 291.578 67.8181 292.269 67.8181C293.192 67.8292 294.073 68.2008 294.726 68.8533C295.379 69.5058 295.75 70.3875 295.761 71.3102Z" fill="white"/>
<path d="M280.798 37.0778C280.798 37.9305 280.546 38.7641 280.072 39.4731C279.598 40.1821 278.924 40.7346 278.137 41.0609C277.349 41.3872 276.482 41.4726 275.645 41.3062C274.809 41.1399 274.04 40.7293 273.437 40.1263C272.834 39.5234 272.424 38.7551 272.257 37.9188C272.091 37.0825 272.176 36.2157 272.503 35.4279C272.829 34.6401 273.382 33.9668 274.091 33.493C274.8 33.0193 275.634 32.7665 276.486 32.7665C277.63 32.7665 278.727 33.2206 279.535 34.0292C280.344 34.8377 280.798 35.9344 280.798 37.0778Z" fill="white"/>
<path d="M305.291 34.879C305.291 35.3224 305.159 35.756 304.913 36.1246C304.667 36.4933 304.316 36.7806 303.907 36.9503C303.497 37.12 303.046 37.1644 302.611 37.0779C302.176 36.9914 301.777 36.7779 301.463 36.4644C301.15 36.1508 300.936 35.7513 300.849 35.3164C300.763 34.8815 300.807 34.4307 300.977 34.021C301.147 33.6114 301.434 33.2612 301.803 33.0149C302.172 32.7686 302.605 32.6372 303.049 32.6372C303.345 32.6313 303.639 32.6852 303.914 32.7958C304.188 32.9064 304.438 33.0713 304.647 33.2807C304.857 33.49 305.022 33.7395 305.132 34.0142C305.243 34.2889 305.297 34.583 305.291 34.879Z" fill="white"/>
<path d="M274.417 109.681C275.798 109.681 276.918 108.562 276.918 107.181C276.918 105.8 275.798 104.68 274.417 104.68C273.036 104.68 271.916 105.8 271.916 107.181C271.916 108.562 273.036 109.681 274.417 109.681Z" fill="white"/>
<path d="M336.639 107.181C337.33 107.181 337.89 106.621 337.89 105.931C337.89 105.24 337.33 104.68 336.639 104.68C335.949 104.68 335.389 105.24 335.389 105.931C335.389 106.621 335.949 107.181 336.639 107.181Z" fill="white"/>
<path d="M278.858 156.719C279.93 156.719 280.799 155.85 280.799 154.778C280.799 153.707 279.93 152.838 278.858 152.838C277.787 152.838 276.918 153.707 276.918 154.778C276.918 155.85 277.787 156.719 278.858 156.719Z" fill="white"/>
</svg>
