<svg width="239" height="176" viewBox="0 0 239 176" fill="none" xmlns="http://www.w3.org/2000/svg">
<path d="M79.9922 61.0059C79.9922 62.3532 79.5927 63.6703 78.844 64.7905C78.0954 65.9107 77.0314 66.7839 75.7865 67.2994C74.5415 67.815 73.1716 67.9499 71.8501 67.6871C70.5285 67.4242 69.3145 66.7753 68.3617 65.8227C67.4089 64.87 66.76 63.6563 66.4971 62.3349C66.2342 61.0136 66.3692 59.6438 66.8848 58.3991C67.4005 57.1544 68.2737 56.0905 69.3941 55.342C70.5145 54.5935 71.8317 54.194 73.1792 54.194C74.9861 54.194 76.7191 54.9117 77.9967 56.1892C79.2744 57.4667 79.9922 59.1993 79.9922 61.0059Z" fill="white"/>
<path d="M38.3806 119.813C41.1907 119.813 43.4687 117.535 43.4687 114.726C43.4687 111.916 41.1907 109.638 38.3806 109.638C35.5704 109.638 33.2924 111.916 33.2924 114.726C33.2924 117.535 35.5704 119.813 38.3806 119.813Z" fill="white"/>
<path d="M43.4687 27.5495C43.4687 28.5557 43.1703 29.5394 42.6112 30.376C42.0521 31.2126 41.2575 31.8647 40.3277 32.2497C39.398 32.6348 38.3749 32.7356 37.3879 32.5393C36.4009 32.343 35.4943 31.8585 34.7827 31.147C34.0711 30.4355 33.5865 29.529 33.3901 28.5421C33.1938 27.5553 33.2946 26.5323 33.6797 25.6027C34.0648 24.673 34.717 23.8786 35.5537 23.3196C36.3904 22.7606 37.3742 22.4621 38.3805 22.4621C39.73 22.4621 41.0242 22.9981 41.9784 23.9522C42.9327 24.9063 43.4687 26.2003 43.4687 27.5495Z" fill="white"/>
<path d="M94.6959 104.68C95.3389 104.68 95.8601 104.159 95.8601 103.516C95.8601 102.873 95.3389 102.352 94.6959 102.352C94.0529 102.352 93.5316 102.873 93.5316 103.516C93.5316 104.159 94.0529 104.68 94.6959 104.68Z" fill="white"/>
<path d="M196.761 71.3102C196.761 72.0009 196.557 72.6761 196.173 73.2504C195.789 73.8247 195.244 74.2722 194.605 74.5365C193.967 74.8008 193.265 74.87 192.587 74.7353C191.91 74.6005 191.287 74.2679 190.799 73.7795C190.311 73.2912 189.978 72.6689 189.843 71.9915C189.708 71.3141 189.778 70.6118 190.042 69.9737C190.306 69.3356 190.754 68.7903 191.328 68.4066C191.903 68.0228 192.578 67.8181 193.269 67.8181C194.192 67.8292 195.073 68.2008 195.726 68.8533C196.379 69.5058 196.75 70.3875 196.761 71.3102Z" fill="white"/>
<path d="M181.798 37.0778C181.798 37.9305 181.546 38.764 181.072 39.473C180.598 40.182 179.924 40.7345 179.137 41.0608C178.349 41.3871 177.482 41.4726 176.645 41.3062C175.809 41.1399 175.04 40.7292 174.437 40.1263C173.834 39.5233 173.424 38.7551 173.257 37.9188C173.091 37.0825 173.176 36.2157 173.503 35.4279C173.829 34.6401 174.382 33.9667 175.091 33.493C175.8 33.0193 176.634 32.7664 177.486 32.7664C178.63 32.7664 179.727 33.2206 180.535 34.0291C181.344 34.8377 181.798 35.9343 181.798 37.0778Z" fill="white"/>
<path d="M206.291 34.879C206.291 35.3224 206.159 35.7559 205.913 36.1246C205.667 36.4933 205.316 36.7805 204.907 36.9502C204.497 37.1199 204.046 37.1644 203.611 37.0779C203.176 36.9914 202.777 36.7779 202.463 36.4643C202.15 36.1508 201.936 35.7512 201.849 35.3164C201.763 34.8815 201.807 34.4307 201.977 34.021C202.147 33.6114 202.434 33.2612 202.803 33.0149C203.172 32.7685 203.605 32.6371 204.049 32.6371C204.345 32.6313 204.639 32.6852 204.914 32.7958C205.188 32.9064 205.438 33.0713 205.647 33.2806C205.857 33.49 206.022 33.7395 206.132 34.0142C206.243 34.2888 206.297 34.583 206.291 34.879Z" fill="white"/>
<path d="M175.417 109.681C176.798 109.681 177.918 108.562 177.918 107.181C177.918 105.8 176.798 104.68 175.417 104.68C174.036 104.68 172.916 105.8 172.916 107.181C172.916 108.562 174.036 109.681 175.417 109.681Z" fill="white"/>
<path d="M237.64 107.181C238.33 107.181 238.89 106.621 238.89 105.931C238.89 105.24 238.33 104.68 237.64 104.68C236.949 104.68 236.389 105.24 236.389 105.931C236.389 106.621 236.949 107.181 237.64 107.181Z" fill="white"/>
<path d="M179.858 156.719C180.93 156.719 181.799 155.85 181.799 154.778C181.799 153.707 180.93 152.838 179.858 152.838C178.787 152.838 177.918 153.707 177.918 154.778C177.918 155.85 178.787 156.719 179.858 156.719Z" fill="white"/>
</svg>
