<svg width="519" height="648" viewBox="0 0 519 648" fill="none" xmlns="http://www.w3.org/2000/svg">
<g filter="url(#filter0_d)">
<path d="M349.902 136.382C340.976 130.48 330.964 126.409 320.449 124.408C319.239 122.028 317.568 119.291 317.299 118.869C313.797 113.054 309.033 107.719 302.816 104.796C296.932 101.995 290.472 101.969 284.248 103.517C282.225 103.91 280.315 104.745 278.652 105.96C270.757 112.357 281.687 119.802 290.433 124.299C284.442 125.38 278.593 127.138 272.998 129.538C254.133 137.627 239.011 152.521 230.649 171.252C222.286 189.983 221.297 211.175 227.878 230.602C193.226 221.404 192.323 174.825 199.366 168.793C208.285 161.156 198.086 159.883 198.086 159.883C198.086 159.883 191.683 167.52 187.899 159.883C184.115 152.245 173.883 153.525 177.706 161.162C181.528 168.799 178.986 170.072 178.986 170.072C173.659 177.799 171.841 194.328 175.51 212.072C178.365 225.933 184.576 240.517 195.128 252.254L195.339 252.478C203.577 261.544 214.067 268.275 225.746 271.988C232.452 274.088 239.4 275.32 246.42 275.653C250.87 275.896 255.083 275.96 259.072 275.87C261.249 275.819 263.356 275.73 265.405 275.589C268.209 275.416 270.879 275.147 273.453 274.815C274.471 275.096 274.234 278.045 274.042 279.74C273.978 280.226 273.927 280.604 273.914 280.796C273.735 283.098 273.402 285.401 273.274 287.723C273.178 289.309 272.845 291.561 274.196 292.744C274.688 293.133 275.261 293.408 275.873 293.55C282.871 295.507 290.158 293.217 296.855 291.209C302.31 289.578 307.657 287.621 312.932 285.452C329.71 283.818 345.569 277.029 358.325 266.018C371.081 255.008 380.107 240.319 384.161 223.972C388.215 207.625 387.098 190.425 380.962 174.739C374.827 159.053 363.976 145.652 349.902 136.382ZM265.558 159.857C266.839 163.695 265.558 175.132 255.365 173.859C245.172 172.586 232.437 184.042 232.437 184.042C234.985 168.768 265.558 159.857 265.558 159.857ZM254.091 227.308C246.35 227.308 240.082 218.475 240.082 207.581C240.082 207.294 240.082 206.999 240.082 206.705V206.564C240.075 206.479 240.075 206.394 240.082 206.308C240.053 203.615 240.589 200.946 241.657 198.473C244 192.159 248.7 187.861 254.091 187.861C261.838 187.861 268.107 196.688 268.107 207.581C268.107 218.475 261.838 227.308 254.091 227.308ZM317.888 263.487C317.888 263.563 317.85 263.627 317.824 263.704C316.666 267.705 314.62 271.394 311.838 274.495C309.276 277.296 306.261 279.647 302.919 281.448C300.126 282.97 297.184 284.202 294.14 285.126C291.209 286.006 288.211 286.648 285.176 287.045C285.125 287.06 285.07 287.063 285.017 287.054C284.964 287.045 284.913 287.024 284.869 286.994C284.817 286.933 284.79 286.856 284.792 286.776C284.613 285.58 284.434 284.371 284.229 283.162C284.094 282.273 283.928 281.397 283.736 280.514C283.263 278.079 282.448 275.723 281.316 273.516C300.242 269.678 311.953 261.824 319.047 254.544C319.071 257.564 318.681 260.573 317.888 263.487ZM334.343 227.308C326.602 227.308 320.334 218.475 320.334 207.581C320.334 207.294 320.334 206.999 320.334 206.705V206.564C320.327 206.479 320.327 206.394 320.334 206.308C320.305 203.615 320.844 200.945 321.916 198.473C324.259 192.159 328.959 187.861 334.343 187.861C342.091 187.861 348.359 196.688 348.359 207.581C348.359 218.475 342.091 227.308 334.343 227.308ZM329.221 166.222C336.757 157.439 354.192 188.264 354.685 189.115C329.253 175.132 321.608 175.132 329.253 166.222H329.221Z" fill="#CBC0D3" stroke="black" stroke-width="0.5" stroke-miterlimit="10"/>
<path d="M259.188 275.666C259.188 275.666 259.188 275.743 259.098 275.884" stroke="black" stroke-width="0.5" stroke-miterlimit="10"/>
<path d="M320.334 233.673C320.334 233.673 322.793 237.357 328.997 238.758C332.443 239.458 335.994 239.458 339.44 238.758" stroke="black" stroke-width="0.5" stroke-miterlimit="10"/>
<path d="M263.01 228.581C259.878 229.524 256.698 230.297 253.483 230.897C245.466 232.4 238.475 232.515 232.398 231.536C230.857 231.299 229.331 230.974 227.827 230.564" stroke="black" stroke-width="0.5" stroke-miterlimit="10"/>
<path d="M329.253 238.764C329.256 238.777 329.256 238.79 329.253 238.803C329.087 239.372 326.82 246.613 319.073 254.557" stroke="black" stroke-width="0.5" stroke-miterlimit="10"/>
<path d="M269.381 219.671C269.381 219.671 287.212 209.494 305.044 217.112" stroke="black" stroke-width="0.5" stroke-miterlimit="10"/>
<path d="M253.489 230.903C253.489 230.903 260.462 242.564 255.365 247.681" stroke="black" stroke-width="0.5" stroke-miterlimit="10"/>
<path d="M242.63 232.4C242.63 232.4 246.472 238.764 242.63 245.129" stroke="black" stroke-width="0.5" stroke-miterlimit="10"/>
<path d="M232.392 231.549C233.142 233.065 233.536 234.733 233.543 236.424C233.551 238.116 233.173 239.787 232.437 241.31" stroke="black" stroke-width="0.5" stroke-miterlimit="10"/>
<path d="M266.832 231.127C266.832 231.127 275.745 240.037 271.955 247.668" stroke="black" stroke-width="0.5" stroke-miterlimit="10"/>
<path d="M273.203 226.035C273.203 226.035 297.406 224.756 299.954 237.491" stroke="black" stroke-width="0.5" stroke-miterlimit="10"/>
<path d="M240.082 206.308C240.075 206.394 240.075 206.479 240.082 206.564C240.177 203.802 240.704 201.072 241.644 198.473C240.581 200.947 240.049 203.616 240.082 206.308V206.308Z" stroke="black" stroke-width="0.5" stroke-miterlimit="10"/>
<path d="M320.334 206.308C320.327 206.394 320.327 206.479 320.334 206.564C320.428 203.802 320.958 201.071 321.903 198.473C320.835 200.946 320.301 203.616 320.334 206.308V206.308Z" stroke="black" stroke-width="0.5" stroke-miterlimit="10"/>
<path d="M312.945 285.465C317.671 283.546 322.306 281.448 326.929 279.28C329.413 278.109 331.897 276.913 334.343 275.666" stroke="black" stroke-width="0.5" stroke-miterlimit="10"/>
<path d="M320.334 206.308C320.327 206.394 320.327 206.479 320.334 206.564C320.428 203.802 320.958 201.071 321.903 198.473C320.835 200.946 320.301 203.616 320.334 206.308V206.308Z" stroke="black" stroke-width="0.5" stroke-miterlimit="10"/>
<path d="M240.082 206.308C240.075 206.394 240.075 206.479 240.082 206.564C240.177 203.802 240.704 201.072 241.644 198.473C240.581 200.947 240.049 203.616 240.082 206.308V206.308Z" stroke="black" stroke-width="0.5" stroke-miterlimit="10"/>
<path d="M260.462 301.123C258.451 299.339 257.088 296.939 256.588 294.298C256.588 294.298 254.385 295.917 250.691 298.866C239.36 307.93 228.588 317.671 218.434 328.034C195.384 351.643 170.413 384.527 170.144 416.382C169.99 432.373 176.067 448.108 191.734 462.27C198.374 468.264 206.73 473.995 217.076 479.323C207.94 398.197 280.413 313.718 285.074 308.377L285.202 308.236L286.815 306.618C273.799 305.652 263.445 303.663 260.462 301.123ZM218.421 395.293C216.909 395.293 215.43 394.844 214.173 394.005C212.916 393.165 211.936 391.972 211.357 390.576C210.779 389.18 210.628 387.645 210.923 386.163C211.219 384.681 211.948 383.32 213.017 382.252C214.087 381.185 215.45 380.458 216.933 380.164C218.417 379.87 219.954 380.022 221.351 380.601C222.748 381.18 223.941 382.16 224.781 383.417C225.62 384.674 226.067 386.151 226.066 387.662C226.064 389.686 225.258 391.627 223.825 393.058C222.391 394.489 220.447 395.293 218.421 395.293ZM233.711 367.295C232.199 367.295 230.72 366.847 229.463 366.008C228.206 365.168 227.226 363.975 226.647 362.579C226.069 361.183 225.918 359.647 226.213 358.165C226.509 356.684 227.238 355.323 228.307 354.255C229.377 353.187 230.74 352.46 232.223 352.166C233.707 351.872 235.244 352.024 236.641 352.604C238.038 353.183 239.231 354.162 240.07 355.419C240.91 356.676 241.357 358.153 241.356 359.664C241.354 361.689 240.548 363.63 239.114 365.06C237.681 366.491 235.737 367.295 233.711 367.295Z" fill="#F4E6FF" stroke="black" stroke-width="0.5" stroke-miterlimit="10"/>
<path d="M232.398 486.366C226.871 484.11 221.759 481.765 217.064 479.33C207.927 398.203 280.4 313.725 285.061 308.384L285.189 308.243L286.803 306.625C294.038 307.187 302.105 307.424 310.154 307.264C310.154 307.29 215.79 406.902 232.398 486.366Z" fill="#4381C1" stroke="black" stroke-width="0.5" stroke-miterlimit="10"/>
<path d="M373.272 362.894C371.361 363.284 369.415 363.479 367.465 363.477C359.841 363.493 352.51 360.538 347.031 355.241C341.553 349.944 338.357 342.722 338.124 335.109C337.89 327.495 340.637 320.091 345.781 314.469C350.925 308.847 358.061 305.45 365.672 305C363.988 296.422 362.727 291.35 362.727 291.35C361.718 293.577 360.302 295.597 358.552 297.305C351.823 304.021 330.982 306.938 310.154 307.29C310.154 307.29 215.79 406.902 232.398 486.391C236.97 488.259 241.845 490.061 247.022 491.796C249.02 487.824 251.037 484.057 252.785 480.878C255.756 475.409 257.907 471.679 257.907 471.679C258.189 471.206 258.496 470.733 258.835 470.266C262.363 465.302 268.901 460.671 273.844 457.78C278.128 455.134 282.957 453.494 287.968 452.983C297.387 452.209 308.796 457.083 313.765 465.43C314.094 465.972 314.393 466.532 314.661 467.106C316.492 471.04 316.723 475.556 316.031 479.835C314.873 487.089 311.998 493.818 308.226 500.118C315.613 499.153 322.793 496.993 329.484 493.722C337.037 489.958 343.742 484.695 349.191 478.255C372.715 450.757 375.885 403.173 373.272 362.894ZM331.597 358.98C331.015 359.77 330.323 360.472 329.541 361.065C328.31 363.636 326.434 365.846 324.096 367.48C321.758 369.113 319.037 370.116 316.197 370.39C313.356 370.664 310.494 370.2 307.886 369.043C305.278 367.886 303.014 366.076 301.313 363.787C299.612 361.499 298.531 358.81 298.177 355.982C297.822 353.153 298.205 350.281 299.288 347.644C300.371 345.007 302.119 342.695 304.36 340.931C306.601 339.167 309.261 338.012 312.081 337.577C313.651 335.617 315.861 334.27 318.324 333.771C320.064 333.388 321.862 333.344 323.619 333.643C325.975 334.072 327.326 335.044 327.684 336.528C327.906 337.473 327.783 338.467 327.339 339.33C327.121 339.766 326.806 340.146 326.417 340.44C326.028 340.734 325.577 340.934 325.098 341.025H324.982C326.497 342.243 327.783 343.72 328.779 345.387C329.9 345.945 330.875 346.756 331.629 347.755C332.382 348.754 332.893 349.914 333.12 351.144C333.478 352.48 333.527 353.88 333.263 355.237C332.999 356.595 332.429 357.875 331.597 358.98Z" fill="#F4E6FF" stroke="black" stroke-width="0.5" stroke-miterlimit="10"/>
<path d="M285.292 308.121L285.176 308.25" stroke="black" stroke-width="0.5" stroke-miterlimit="10"/>
<path d="M373.272 362.894C371.361 363.284 369.415 363.479 367.465 363.476C359.841 363.493 352.51 360.538 347.031 355.241C341.553 349.944 338.357 342.722 338.124 335.108C337.89 327.495 340.637 320.091 345.781 314.469C350.925 308.847 358.061 305.45 365.672 305C366.114 307.302 366.601 309.861 367.1 312.637C364.187 312.889 361.355 313.728 358.775 315.103C356.195 316.478 353.92 318.36 352.088 320.637C350.257 322.914 348.905 325.538 348.116 328.351C347.327 331.164 347.116 334.107 347.496 337.003C347.877 339.9 348.84 342.689 350.329 345.204C351.818 347.718 353.801 349.905 356.159 351.633C358.517 353.36 361.2 354.593 364.048 355.257C366.896 355.92 369.848 356.001 372.728 355.494C372.735 355.617 372.735 355.741 372.728 355.865C372.958 358.161 373.125 360.515 373.272 362.894Z" fill="#4381C1" stroke="black" stroke-width="0.5" stroke-miterlimit="10"/>
<path d="M233.711 367.302C237.933 367.302 241.356 363.882 241.356 359.664C241.356 355.446 237.933 352.027 233.711 352.027C229.489 352.027 226.066 355.446 226.066 359.664C226.066 363.882 229.489 367.302 233.711 367.302Z" fill="#4381C1" stroke="black" stroke-width="0.5" stroke-miterlimit="10"/>
<path d="M218.421 395.299C222.643 395.299 226.066 391.88 226.066 387.662C226.066 383.444 222.643 380.024 218.421 380.024C214.199 380.024 210.776 383.444 210.776 387.662C210.776 391.88 214.199 395.299 218.421 395.299Z" fill="#4381C1" stroke="black" stroke-width="0.5" stroke-miterlimit="10"/>
<path d="M257.331 571.727C256.942 572.251 256.514 572.745 256.05 573.204C248.841 580.394 234.761 582 225.144 581.52C205.744 580.503 187.515 566.443 178.942 549.314C177.13 545.712 177.322 539.553 180.305 534.179C180.286 534.147 193.047 591.645 257.331 571.727Z" fill="#8E9AAF" stroke="black" stroke-width="0.5" stroke-miterlimit="10"/>
<path d="M270.77 546.262C267.159 552.358 264.105 558.774 261.057 565.177C260.054 567.487 258.804 569.683 257.331 571.727C193.047 591.645 180.286 534.147 180.286 534.147C183.609 528.154 190.422 523.152 201.851 523.83C214.438 524.565 224.017 521.438 231.073 515.924C237.623 517.363 259.949 523.83 270.77 546.262Z" fill="#F4E6FF" stroke="black" stroke-width="0.5" stroke-miterlimit="10"/>
<path d="M276.232 538.081C275.419 539.111 274.625 540.179 273.876 541.28C272.793 542.923 271.75 544.58 270.77 546.269C259.949 523.836 237.623 517.369 231.073 515.93C233.488 514.05 235.655 511.87 237.521 509.444C242.131 511.216 270.437 522.73 276.232 538.081Z" fill="#4381C1" stroke="black" stroke-width="0.5" stroke-miterlimit="10"/>
<path d="M298.039 514.21C295.696 517.043 293.289 519.807 290.932 522.48C286.13 527.924 280.726 532.382 276.206 538.056C270.412 522.749 242.105 511.191 237.508 509.438C239.538 506.807 241.257 503.95 242.63 500.924C244.013 497.879 245.518 494.777 247.022 491.771C249.02 487.799 251.037 484.031 252.785 480.852C253.374 480.788 270.789 479.048 288.749 500.681C292.215 504.926 295.323 509.451 298.039 514.21Z" fill="#F4E6FF" stroke="black" stroke-width="0.5" stroke-miterlimit="10"/>
<path d="M304.993 505.095C302.816 508.242 300.46 511.267 298.04 514.21C295.316 509.455 292.202 504.934 288.73 500.694C270.802 479.048 253.355 480.788 252.766 480.865C255.736 475.396 257.888 471.667 257.888 471.667C258.17 471.193 258.477 470.72 258.816 470.253C258.816 470.253 285.439 474.462 302.355 500.719C303.277 502.107 304.154 503.54 304.993 505.095Z" fill="#4381C1" stroke="black" stroke-width="0.5" stroke-miterlimit="10"/>
<path d="M316.025 479.809C314.866 487.063 311.991 493.792 308.22 500.093C307.202 501.788 306.12 503.464 304.98 505.095C304.141 503.566 303.264 502.107 302.361 500.707C285.452 474.449 258.823 470.24 258.823 470.24C262.351 465.276 268.888 460.645 273.831 457.754C278.115 455.108 282.944 453.468 287.955 452.957C297.374 452.183 308.783 457.057 313.752 465.404C314.081 465.947 314.38 466.506 314.648 467.08C316.499 471.014 316.729 475.53 316.025 479.809Z" fill="#F4E6FF" stroke="black" stroke-width="0.5" stroke-miterlimit="10"/>
<path d="M128.641 511.318C126.53 512.933 124.144 514.153 121.598 514.92C70.6449 511.082 63 472.927 63 472.927C63.2934 471.245 63.7216 469.589 64.2806 467.976C64.6327 469.07 75.3574 504.014 128.641 511.318Z" fill="#8E9AAF" stroke="black" stroke-width="0.5" stroke-miterlimit="10"/>
<path d="M143.752 492.206C140.743 494.975 138.22 497.963 136.894 500.924C135.095 505.047 132.25 508.63 128.641 511.318C75.3574 504.014 64.6135 469.102 64.3126 467.976C71.9191 446.036 98.6827 453.833 98.6827 453.833C105.471 453.018 112.123 451.323 118.474 448.793C118.858 456.52 121.739 484.811 143.752 492.206Z" fill="#F4E6FF" stroke="black" stroke-width="0.5" stroke-miterlimit="10"/>
<path d="M155.162 483.628C151.124 486.162 147.307 489.032 143.752 492.206C121.739 484.811 118.858 456.52 118.474 448.793C121.918 447.513 125.318 445.985 128.641 444.354C128.641 444.354 133.956 481.613 155.162 483.628Z" fill="#4381C1" stroke="black" stroke-width="0.5" stroke-miterlimit="10"/>
<path d="M177.776 472.543C173.617 474.648 169.321 476.475 164.919 478.012C164.919 478.012 160.527 480.206 155.162 483.628C133.956 481.613 128.641 444.354 128.641 444.354C136.118 440.645 143.32 436.408 150.193 431.676C150.193 431.676 153.689 464.522 177.776 472.543Z" fill="#F4E6FF" stroke="black" stroke-width="0.5" stroke-miterlimit="10"/>
<path d="M184.474 468.648C182.317 470.072 180.081 471.373 177.776 472.543C153.689 464.522 150.193 431.676 150.193 431.676C153.548 429.399 156.641 427.147 159.419 425.049C159.394 425.049 159.458 461.816 184.474 468.648Z" fill="#4381C1" stroke="black" stroke-width="0.5" stroke-miterlimit="10"/>
<path d="M191.721 462.283C189.661 464.781 187.219 466.94 184.486 468.679C159.471 461.848 159.407 425.081 159.407 425.081C163.953 421.633 167.634 418.576 170.144 416.427C169.978 432.392 176.054 448.121 191.721 462.283Z" fill="#F4E6FF" stroke="black" stroke-width="0.5" stroke-miterlimit="10"/>
<path d="M329.541 361.071C328.31 363.643 326.434 365.852 324.096 367.486C321.758 369.12 319.037 370.122 316.197 370.396C313.356 370.67 310.494 370.206 307.886 369.049C305.278 367.892 303.014 366.082 301.313 363.794C299.612 361.505 298.531 358.816 298.177 355.988C297.822 353.16 298.205 350.288 299.288 347.651C300.371 345.014 302.119 342.701 304.36 340.937C306.601 339.173 309.261 338.018 312.081 337.583L311.812 337.923C311.001 338.997 310.444 340.242 310.184 341.562C309.923 342.883 309.965 344.245 310.307 345.547C310.541 346.771 311.095 347.911 311.914 348.85C312.733 349.79 313.787 350.495 314.969 350.895C316.202 351.321 318.377 351.617 321.493 351.784C323.798 351.899 325.047 352.334 325.226 353.063C325.572 354.592 324.79 355.57 322.87 356.012C321.764 356.183 320.639 356.183 319.534 356.012C318.444 355.835 317.333 355.835 316.243 356.012C315.772 356.103 315.328 356.297 314.941 356.578C314.553 356.86 314.233 357.224 314.002 357.643C313.533 358.479 313.4 359.463 313.63 360.393C314.04 362.133 315.622 363.195 318.381 363.547C320.538 363.826 322.728 363.707 324.842 363.195C326.545 362.84 328.15 362.115 329.541 361.071Z" fill="#CCCCCC" stroke="black" stroke-width="0.5" stroke-miterlimit="10"/>
<path d="M331.597 358.98C331.015 359.77 330.323 360.472 329.541 361.065C328.153 362.12 326.548 362.857 324.842 363.221C322.728 363.732 320.538 363.852 318.381 363.572C315.622 363.221 314.04 362.159 313.63 360.419C313.4 359.488 313.533 358.505 314.002 357.669C314.233 357.249 314.554 356.886 314.941 356.604C315.328 356.322 315.772 356.129 316.243 356.037C317.333 355.86 318.444 355.86 319.534 356.037C320.639 356.208 321.764 356.208 322.87 356.037C324.79 355.596 325.572 354.617 325.226 353.089C325.047 352.34 323.798 351.905 321.493 351.809C318.381 351.656 316.206 351.359 314.969 350.92C313.787 350.521 312.733 349.815 311.914 348.876C311.095 347.936 310.541 346.797 310.307 345.573C309.963 344.269 309.92 342.904 310.181 341.581C310.441 340.258 310.999 339.012 311.812 337.935L312.081 337.596C313.651 335.636 315.861 334.289 318.324 333.79C320.064 333.407 321.862 333.364 323.619 333.662C325.975 334.091 327.326 335.063 327.684 336.547C327.906 337.493 327.783 338.486 327.339 339.349C327.121 339.785 326.806 340.165 326.417 340.459C326.028 340.753 325.577 340.953 325.098 341.044H324.982C324.158 341.161 323.322 341.161 322.498 341.044C321.624 340.904 320.734 340.904 319.86 341.044C318.432 341.364 317.837 342.035 318.068 343.027C318.196 343.551 319.419 343.865 321.724 343.993C324.65 344.134 326.846 344.517 328.293 345.151C328.461 345.219 328.624 345.3 328.779 345.394C329.9 345.952 330.875 346.762 331.629 347.761C332.382 348.76 332.893 349.921 333.12 351.151C333.477 352.486 333.525 353.884 333.261 355.24C332.997 356.597 332.428 357.876 331.597 358.98Z" fill="#4381C1" stroke="black" stroke-width="0.5" stroke-miterlimit="10"/>
<path d="M328.792 345.419C328.637 345.325 328.474 345.244 328.305 345.176C326.858 344.536 324.662 344.159 321.736 344.018C319.431 343.89 318.208 343.577 318.08 343.052C317.85 342.061 318.445 341.389 319.873 341.07C320.747 340.929 321.637 340.929 322.511 341.07C323.335 341.186 324.171 341.186 324.995 341.07C326.509 342.284 327.794 343.756 328.792 345.419Z" fill="#CCCCCC" stroke="black" stroke-width="0.5" stroke-miterlimit="10"/>
<path d="M362.727 291.35C361.718 293.577 360.302 295.596 358.552 297.305C351.823 304.021 330.982 306.938 310.154 307.29C302.105 307.43 294.038 307.194 286.803 306.65C273.799 305.671 263.445 303.682 260.462 301.143C258.451 299.358 257.088 296.958 256.588 294.318C254.91 286.719 258.509 277.431 259.098 275.902C261.275 275.851 263.381 275.761 265.43 275.621C268.22 277.183 271.104 278.57 274.068 279.772C274.004 280.258 273.952 280.636 273.94 280.827C273.76 283.13 273.427 285.433 273.299 287.755C273.203 289.341 272.87 291.593 274.221 292.776C274.714 293.165 275.287 293.44 275.899 293.582C282.897 295.539 290.183 293.249 296.881 291.241C302.336 289.61 307.682 287.653 312.958 285.484C329.257 283.932 344.703 277.488 357.265 266.998C360.204 270.779 367.183 281.269 362.727 291.35Z" fill="#4381C1" stroke="black" stroke-width="0.5" stroke-miterlimit="10"/>
<path d="M474.174 194.027V194.078L473.943 196.944C473.949 196.978 473.949 197.012 473.943 197.046C471.766 220.669 463.526 244.745 446.302 266.263C437.2 277.503 426.496 287.347 414.532 295.482C411.919 297.269 409.205 299.021 406.387 300.74C399.999 304.618 393.401 308.14 386.622 311.288L385.982 311.518L380.277 313.616L377.793 314.537L372.773 316.379L368.06 318.125C367.74 316.206 367.42 314.371 367.119 312.624C366.62 309.848 366.133 307.29 365.691 304.987C364.007 296.409 362.746 291.337 362.746 291.337C367.228 281.256 360.249 270.766 357.272 266.966C367.04 258.824 374.766 248.511 379.833 236.852C384.899 225.194 387.164 212.513 386.448 199.823C385.732 187.134 382.054 174.787 375.708 163.772C369.362 152.756 360.525 143.376 349.902 136.382C361.811 119.316 391.898 82.255 423.534 91.1397C423.534 91.1397 426.095 100.05 436.276 105.135C445.924 109.971 474.103 172.701 474.174 194.027Z" fill="#EFD3D7" stroke="black" stroke-width="0.5" stroke-miterlimit="10"/>
<path d="M474.174 194.027C474.135 172.701 445.957 109.971 436.288 105.116C426.095 99.9989 423.547 91.1206 423.547 91.1206C391.93 82.2359 361.843 119.265 349.915 136.363C345.976 133.758 341.815 131.504 337.481 129.627C350.286 113.809 383.107 77.5537 415.889 74.5729C440.751 72.3277 478.572 131.137 474.174 194.027Z" fill="#CBC0D3" stroke="black" stroke-width="0.5" stroke-miterlimit="10"/>
<path d="M474.174 194.078C474.182 195.039 474.105 195.998 473.943 196.944" stroke="black" stroke-width="0.5" stroke-miterlimit="10"/>
<path d="M372.728 355.475C369.848 355.982 366.896 355.901 364.048 355.238C361.2 354.574 358.517 353.341 356.159 351.614C353.801 349.886 351.818 347.699 350.329 345.185C348.84 342.67 347.877 339.881 347.496 336.984C347.116 334.088 347.327 331.145 348.116 328.332C348.905 325.519 350.257 322.895 352.088 320.618C353.92 318.341 356.195 316.458 358.775 315.083C361.355 313.709 364.187 312.87 367.1 312.618C367.401 314.364 367.74 316.194 368.041 318.119C369.808 328.596 371.569 341.46 372.728 355.475Z" fill="#F4E6FF" stroke="black" stroke-width="0.5" stroke-miterlimit="10"/>
<path d="M383.197 352.839C379.809 353.933 376.32 354.937 372.754 355.845C372.76 355.722 372.76 355.598 372.754 355.474C371.595 341.46 369.808 328.609 368.067 318.138L372.779 316.392C372.779 316.392 386.193 333.291 383.197 352.839Z" fill="#F4E6FF" stroke="black" stroke-width="0.5" stroke-miterlimit="10"/>
<path d="M388.485 351.061C386.75 351.701 384.983 352.27 383.197 352.839C386.193 333.291 372.754 316.379 372.754 316.379L377.773 314.537L380.258 313.616C380.258 313.616 399.312 322.091 388.485 351.061Z" fill="#4381C1" stroke="black" stroke-width="0.5" stroke-miterlimit="10"/>
<path d="M417.829 337.795C409.638 342.349 401.128 346.306 392.365 349.634C391.085 350.114 389.804 350.6 388.492 351.061C399.319 322.091 380.264 313.629 380.264 313.629L385.969 311.531L386.609 311.3C393.377 308.158 399.965 304.643 406.343 300.772C406.343 300.772 422.311 317.192 417.829 337.795Z" fill="#F4E6FF" stroke="black" stroke-width="0.5" stroke-miterlimit="10"/>
<path d="M426.755 332.543C423.925 334.308 420.954 336.068 417.791 337.795C422.273 317.192 406.311 300.753 406.311 300.753C409.128 299.047 411.843 297.294 414.455 295.495C414.903 296.096 429.937 317.102 426.755 332.543Z" fill="#4381C1" stroke="black" stroke-width="0.5" stroke-miterlimit="10"/>
<path d="M461.733 304.936C461.733 304.936 449.081 318.682 426.755 332.543C429.956 317.102 414.903 296.083 414.487 295.495C426.451 287.36 437.155 277.516 446.258 266.276C446.258 266.276 468.104 279.484 461.733 304.936Z" fill="#F4E6FF" stroke="black" stroke-width="0.5" stroke-miterlimit="10"/>
<path d="M400.241 459.66C391.616 468.999 364.436 494.79 329.471 493.696C337.024 489.932 343.73 484.669 349.179 478.229C358.642 474.858 384.022 465.123 395.765 453.705C397.257 453.756 399.293 454.435 399.293 457.652C399.281 458.038 399.361 458.421 399.525 458.77C399.69 459.119 399.935 459.424 400.241 459.66Z" fill="#F4E6FF" stroke="black" stroke-width="0.5" stroke-miterlimit="10"/>
<path d="M434.982 418.198C434.982 418.198 433.702 443.656 403.135 456.379C403.135 456.379 402.13 457.658 400.241 459.66C399.939 459.422 399.697 459.116 399.536 458.767C399.375 458.418 399.298 458.036 399.312 457.652C399.312 454.454 397.276 453.756 395.784 453.705C396.581 452.943 397.334 452.135 398.038 451.287C398.038 451.287 403.135 419.471 434.982 418.198Z" fill="#8E9AAF" stroke="black" stroke-width="0.5" stroke-miterlimit="10"/>
<path d="M238.282 299.441C230.638 301.085 221.814 305.729 219.177 318.138C214.106 314.607 209.09 310.995 204.13 307.303L201.338 305.204C217.345 306.733 233.66 285.215 233.66 285.215C236.029 289.974 238.065 295.2 238.282 299.441Z" fill="#F4E6FF" stroke="black" stroke-width="0.5" stroke-miterlimit="10"/>
<path d="M233.66 285.216C233.66 285.216 217.377 306.733 201.338 305.205C197.734 302.467 194.167 299.71 190.639 296.889C191.344 296.8 217.198 293.608 227.942 275.243C230.025 278.463 231.933 281.792 233.66 285.216Z" fill="#4381C1" stroke="black" stroke-width="0.5" stroke-miterlimit="10"/>
<path d="M227.929 275.186C217.185 293.55 191.331 296.742 190.627 296.832C185.825 292.994 181.104 289.036 176.464 284.96C175.292 283.943 174.133 282.906 172.987 281.864L175.548 280.629C175.548 280.629 202.068 272.486 203.189 259.847C209.877 265.274 217.53 269.393 225.746 271.988C225.746 271.988 226.642 273.222 227.929 275.186Z" fill="#F4E6FF" stroke="black" stroke-width="0.5" stroke-miterlimit="10"/>
<path d="M203.202 259.885C202.081 272.525 175.561 280.668 175.561 280.668L173 281.902C170.865 279.983 168.746 278.028 166.642 276.036L168.249 275.186C174.011 272.768 192.08 264.395 194.846 253.7L195.339 252.453C197.76 255.133 200.389 257.619 203.202 259.885Z" fill="#4381C1" stroke="black" stroke-width="0.5" stroke-miterlimit="10"/>
<path d="M195.128 252.254C195.066 252.75 194.972 253.242 194.846 253.726C192.08 264.421 173.992 272.794 168.249 275.211C167.135 275.678 166.488 275.921 166.488 275.921C163.581 273.171 160.741 270.359 157.966 267.484C153.574 262.93 148.784 258.312 145.16 253.105C139.705 245.225 140.679 233.826 146.025 225.997C147.025 224.506 148.206 223.144 149.54 221.941C154.227 217.752 160.213 215.206 166.238 213.626C169.255 212.818 172.339 212.287 175.452 212.04C178.365 225.933 184.576 240.517 195.128 252.254Z" fill="#F4E6FF" stroke="black" stroke-width="0.5" stroke-miterlimit="10"/>
<path d="M166.617 276.037L166.488 275.921" stroke="black" stroke-width="0.5" stroke-miterlimit="10"/>
<path d="M250.678 298.853C239.347 307.917 228.575 317.658 218.421 328.021C218.264 324.704 218.518 321.38 219.177 318.125C221.814 305.716 230.638 301.072 238.282 299.428C242.356 298.569 246.542 298.374 250.678 298.853Z" fill="#F4E6FF" stroke="black" stroke-width="0.5" stroke-miterlimit="10"/>
<path d="M223.518 204.402C223.509 213.304 224.965 222.147 227.827 230.577C193.175 221.379 192.272 174.799 199.315 168.767C208.234 161.13 198.035 159.857 198.035 159.857C198.035 159.857 191.632 167.495 187.848 159.857C184.064 152.22 173.832 153.499 177.655 161.136C181.477 168.774 178.935 170.047 178.935 170.047C173.608 177.774 171.79 194.302 175.458 212.046C172.345 212.293 169.261 212.824 166.245 213.632C160.22 215.212 154.233 217.758 149.546 221.948C148.212 223.15 147.031 224.512 146.031 226.003C134.506 210.568 127.29 196.189 123.506 182.84C123.064 172.301 124.705 161.779 128.334 151.874C133.238 138.384 141.332 126.218 150.808 115.517C159.527 105.795 169.234 97.0058 179.774 89.2911C187.79 83.3488 196.363 78.2444 204.886 73.108C205.614 72.5656 206.478 72.2336 207.383 72.1486C208.124 72.1909 208.844 72.4103 209.483 72.7882C216.065 76.0312 221.251 81.1036 226.028 86.5343C235.356 97.1972 243.174 109.171 250.512 121.235C253.636 126.352 256.678 131.534 259.572 136.785C248.467 144.233 239.369 154.297 233.081 166.09C226.793 177.883 223.509 191.041 223.518 204.402Z" fill="#EFD3D7" stroke="black" stroke-width="0.5" stroke-miterlimit="10"/>
<path d="M272.947 129.506C268.272 131.511 263.794 133.948 259.572 136.785C256.678 131.534 253.636 126.365 250.512 121.235C243.174 109.171 235.356 97.1973 226.027 86.5343C221.251 81.0717 216.065 76.0313 209.483 72.7883C208.844 72.4104 208.124 72.191 207.383 72.1486C206.478 72.2337 205.614 72.5656 204.885 73.1081C196.363 78.2253 187.79 83.3425 179.774 89.2912C169.234 97.0058 159.527 105.795 150.808 115.517C141.332 126.218 133.238 138.384 128.334 151.874C124.705 161.779 123.064 172.301 123.506 182.84C106.071 121.357 160.962 81.9672 195.493 63.1488C232.513 42.9934 265.571 112.581 272.947 129.506Z" fill="#CBC0D3" stroke="black" stroke-width="0.5" stroke-miterlimit="10"/>
<path d="M348.359 207.581C348.359 218.455 342.091 227.308 334.343 227.308C326.596 227.308 320.334 218.475 320.334 207.581C320.334 207.294 320.334 206.999 320.334 206.705C320.462 213.908 324.118 219.671 328.6 219.671C333.082 219.671 336.879 213.69 336.879 206.309C336.879 198.927 333.172 192.946 328.6 192.946C325.847 192.946 323.401 195.127 321.903 198.473C324.246 192.16 328.946 187.861 334.331 187.861C342.091 187.861 348.359 196.688 348.359 207.581Z" fill="white" stroke="black" stroke-width="0.5" stroke-miterlimit="10"/>
<path d="M328.613 192.946C325.86 192.946 323.414 195.127 321.916 198.473C320.971 201.071 320.441 203.802 320.347 206.564V206.705C320.475 213.907 324.131 219.671 328.613 219.671C333.095 219.671 336.892 213.69 336.892 206.308C336.892 198.927 333.184 192.946 328.613 192.946ZM328.107 212.04C325.924 212.04 324.157 209.187 324.157 205.675C324.157 202.163 325.924 199.311 328.107 199.311C330.29 199.311 332.038 202.163 332.038 205.675C332.038 209.187 330.271 212.04 328.107 212.04Z" fill="black" stroke="black" stroke-width="0.5" stroke-miterlimit="10"/>
<path d="M332.032 205.675C332.032 209.187 330.265 212.04 328.101 212.04C325.936 212.04 324.15 209.187 324.15 205.675C324.15 202.163 325.917 199.311 328.101 199.311C330.284 199.311 332.032 202.163 332.032 205.675Z" fill="white" stroke="black" stroke-width="0.5" stroke-miterlimit="10"/>
<path d="M268.107 207.581C268.107 218.455 261.838 227.308 254.091 227.308C246.344 227.308 240.082 218.475 240.082 207.581C240.082 207.294 240.082 206.999 240.082 206.705C240.21 213.908 243.866 219.671 248.348 219.671C252.83 219.671 256.626 213.69 256.626 206.309C256.626 198.927 252.919 192.946 248.348 192.946C245.594 192.946 243.149 195.127 241.644 198.473C243.987 192.16 248.687 187.861 254.078 187.861C261.838 187.861 268.107 196.688 268.107 207.581Z" fill="white" stroke="black" stroke-width="0.5" stroke-miterlimit="10"/>
<path d="M248.36 192.946C245.607 192.946 243.161 195.127 241.657 198.473C240.717 201.072 240.19 203.802 240.094 206.564V206.705C240.222 213.907 243.878 219.671 248.36 219.671C252.842 219.671 256.639 213.69 256.639 206.308C256.639 198.927 252.932 192.946 248.36 192.946ZM247.848 212.04C245.671 212.04 243.904 209.187 243.904 205.675C243.904 202.163 245.671 199.311 247.848 199.311C250.025 199.311 251.786 202.163 251.786 205.675C251.786 209.187 250.019 212.04 247.848 212.04Z" fill="black" stroke="black" stroke-width="0.5" stroke-miterlimit="10"/>
<path d="M251.786 205.675C251.786 209.187 250.019 212.04 247.848 212.04C245.678 212.04 243.904 209.187 243.904 205.675C243.904 202.163 245.671 199.311 247.848 199.311C250.025 199.311 251.786 202.163 251.786 205.675Z" fill="white" stroke="black" stroke-width="0.5" stroke-miterlimit="10"/>
<path d="M255.365 173.859C245.178 172.58 232.437 184.042 232.437 184.042C234.998 168.767 265.558 159.857 265.558 159.857C266.832 163.676 265.558 175.132 255.365 173.859Z" fill="#8E9AAF" stroke="black" stroke-width="0.5" stroke-miterlimit="10"/>
<path d="M354.717 189.115C329.253 175.132 321.608 175.132 329.253 166.222C336.789 157.439 354.243 188.264 354.717 189.115Z" fill="#8E9AAF" stroke="black" stroke-width="0.5" stroke-miterlimit="10"/>
<path d="M319.06 254.557C319.081 257.582 318.686 260.595 317.888 263.512C317.888 263.589 317.85 263.653 317.824 263.73C300.153 267.446 287.315 277.514 283.749 280.552C283.276 278.118 282.461 275.762 281.328 273.555C300.255 269.685 311.966 261.836 319.06 254.557Z" fill="#8C0003" stroke="black" stroke-width="0.5" stroke-miterlimit="10"/>
<path d="M317.824 263.704C316.666 267.705 314.62 271.394 311.838 274.495C309.276 277.296 306.261 279.647 302.918 281.448C300.126 282.97 297.184 284.202 294.14 285.126C291.209 286.006 288.211 286.648 285.176 287.045C285.125 287.06 285.07 287.063 285.017 287.054C284.964 287.045 284.913 287.024 284.869 286.994C284.817 286.933 284.79 286.856 284.792 286.776C284.613 285.58 284.434 284.371 284.229 283.162C284.094 282.273 283.928 281.397 283.736 280.514C287.315 277.489 300.152 267.42 317.824 263.704Z" fill="#F57171" stroke="black" stroke-width="0.5" stroke-miterlimit="10"/>
<path d="M308.867 142.043C308.867 142.043 308.867 136.926 297.406 148.439C295.176 150.721 292.445 152.452 289.428 153.495C286.411 154.538 283.193 154.863 280.029 154.446C278.039 154.232 276.176 153.368 274.727 151.989C273.425 150.554 272.673 148.706 272.601 146.77C272.268 140.866 276.443 136.171 281.316 133.433C284.167 131.885 287.191 130.677 290.324 129.832C291.797 129.423 293.276 129.071 294.806 128.764C295.632 128.585 297.912 127.76 298.706 128.079C297.316 127.504 294.051 126.16 290.42 124.299C281.674 119.822 270.745 112.357 278.639 105.96C280.302 104.745 282.213 103.91 284.235 103.517C290.472 101.975 296.932 102.001 302.803 104.796C309.02 107.745 313.784 113.08 317.286 118.868C317.555 119.316 319.207 122.028 320.437 124.408C321.301 126.135 321.954 127.689 321.621 128.047" stroke="black" stroke-width="0.5" stroke-miterlimit="10"/>
<path opacity="0.25" d="M203.445 135.813C205.889 129.434 209.094 123.373 212.991 117.762C223.441 102.761 238.194 91.2734 255.307 84.8136C266.832 80.4832 279.772 78.5962 291.541 82.287C319.521 91.0566 318.74 123.129 309.545 145.683C299.602 170.066 280.317 190.97 259.264 206.379C253.547 210.562 247.24 214.413 240.203 215.206C228.416 216.524 217.224 208.809 210.245 199.266C201.697 187.548 197.804 172.708 198.598 158.226C199.053 150.551 200.688 142.991 203.445 135.813Z" fill="white"/>
<g opacity="0.4">
<path opacity="0.4" d="M356.177 282.58C391.456 268.38 419.66 241.93 428.266 199.784C437.729 153.403 414.084 97.3571 371.985 74.1699C336.815 54.7949 291.445 54.2832 255.135 70.8949C228.704 82.9842 206.339 103.274 190.383 127.549C179.787 143.661 171.86 161.719 168.806 180.748C165.752 199.778 167.73 219.831 175.964 237.267C185.62 257.736 203.496 273.727 223.985 283.265C244.474 292.802 267.524 296.256 290.132 295.591C312.913 294.925 335.733 290.812 356.177 282.58Z" stroke="black" stroke-miterlimit="10"/>
</g>
</g>
<defs>
<filter id="filter0_d" x="0.745667" y="0.5" width="536.03" height="647.348" filterUnits="userSpaceOnUse" color-interpolation-filters="sRGB">
<feFlood flood-opacity="0" result="BackgroundImageFix"/>
<feColorMatrix in="SourceAlpha" type="matrix" values="0 0 0 0 0 0 0 0 0 0 0 0 0 0 0 0 0 0 127 0" result="hardAlpha"/>
<feOffset dy="4"/>
<feGaussianBlur stdDeviation="31"/>
<feComposite in2="hardAlpha" operator="out"/>
<feColorMatrix type="matrix" values="0 0 0 0 0.970833 0 0 0 0 0.930382 0 0 0 0 0.930382 0 0 0 0.3 0"/>
<feBlend mode="normal" in2="BackgroundImageFix" result="effect1_dropShadow"/>
<feBlend mode="normal" in="SourceGraphic" in2="effect1_dropShadow" result="shape"/>
</filter>
</defs>
</svg>
