<svg width="1366" height="768" viewBox="0 0 1366 768" fill="none" xmlns="http://www.w3.org/2000/svg">
<g clip-path="url(#clip0)">
<rect width="1366" height="768" fill="white"/>
<path d="M1368 -19H-44V912H1368V-19Z" fill="#306EE5"/>
<path d="M1356 -66.9952C907.279 -169.668 441.163 -169.668 -7.55847 -66.9952V26.1666H1356V-66.9952Z" fill="#306EE5"/>
<path opacity="0.3" d="M1365 379.81V615.349C1348.23 625.886 1330.43 634.717 1311.88 641.707C1228.38 674.536 1135.29 689.316 1063.96 743.577C1045.05 758.22 1027.74 774.784 1012.31 793H-5V404.332C43.4055 395.374 92.7137 392.642 141.48 398.733C225.857 409.236 308.474 448 361.686 513.882C396.1 556.431 417.313 608.609 453.419 649.836C515.252 720.444 618.878 750.34 710.476 728.214C802.074 706.089 878.846 634.63 911.703 546.958C981.051 361.94 861.154 237.273 939.099 27.6885C960.053 -27.7242 991.154 -78.813 1030.83 -123C1053.13 -121.089 1076.15 -118.641 1099.89 -115.655C1137.19 -110.885 1172.57 -105.04 1205.95 -98.5235C1176.32 -90.081 1109.23 -66.5002 1056.78 -2.40887C1034.35 24.8893 978.839 92.4517 998.404 164.627C1012.96 218.373 1062.45 256.442 1114.28 277.828C1166.12 299.215 1222.36 308.329 1274.89 328.058C1307.39 340.285 1338.94 357.192 1365 379.81Z" fill="#24166E"/>
<path opacity="0.3" d="M202.532 -108.973C282.657 -120.374 342.42 -125.123 414.638 -130.969C500.273 -137.914 551.659 -142.17 624.033 -142.707C663.278 -143.043 748.869 -142.707 748.891 -142.707C748.891 -142.707 680.549 -82.4734 598.565 -44.1469C570.032 -31.5143 542.439 -16.8571 515.998 -0.287584C508.449 4.48363 500.923 9.56845 492.971 15.2581C453.502 43.5941 422.164 81.5846 387.69 115.767C353.217 149.95 313.031 181.646 265.498 191.658C216.912 202.007 165.392 188.321 122.922 162.538C80.4513 136.756 46.0673 99.6167 15.4016 60.5062C7.83036 50.8517 0.371147 40.9733 -7.55847 31.5877V-70.9374C47.9713 -83.1678 119.159 -97.0782 202.532 -108.973Z" fill="#24166E"/>
<path opacity="0.5" d="M232.749 514.219C226.186 521.902 217.069 526.965 207.908 531.221C188.992 540.392 168.506 545.888 147.54 547.416C119.831 548.984 92.4802 541.793 65.6226 534.805C40.8257 528.353 15.4913 522.014 -10 522.798V321.892C0.920423 326.287 10.9366 332.658 19.5457 340.686C37.4657 357.441 48.1953 380.065 60.3138 401.323C72.4322 422.58 87.1938 443.883 109.347 454.344C137.392 467.784 170.388 461.064 201.367 463.64C217.047 464.984 235.169 471.009 239.94 486.04C242.986 495.694 239.313 506.446 232.749 514.219Z" fill="#231553"/>
<path opacity="0.5" d="M1365.45 -56V70.2915C1362.43 70.0227 1359.45 69.7987 1356.49 69.6419C1333.91 68.3875 1308.85 72.1731 1294.04 89.2644C1276.77 109.156 1279.66 138.724 1280.33 165.066C1281 191.409 1274.75 223.105 1250.18 232.58C1231.72 239.725 1208.38 228.1 1202.96 209.082C1198.93 195.015 1203.79 180.186 1206.84 165.873C1209.88 151.559 1210.42 134.759 1200.12 124.388C1195.91 120.132 1190.28 117.488 1185.98 113.3C1175.14 102.727 1175.32 84.9635 1180.18 70.5827C1191.49 37.2738 1222.09 14.3138 1253.45 -2.03828C1284.81 -18.3903 1318.59 -30.6431 1345.78 -53.0656C1346.95 -54.0288 1348.02 -55.0144 1349.23 -56H1365.45Z" fill="#231553"/>
<path d="M128.746 497.912C129.08 497.912 129.351 497.641 129.351 497.307C129.351 496.973 129.08 496.702 128.746 496.702C128.412 496.702 128.141 496.973 128.141 497.307C128.141 497.641 128.412 497.912 128.746 497.912Z" fill="white"/>
<path d="M1238.13 34.2757C1238.13 34.8428 1237.96 35.3971 1237.65 35.8686C1237.33 36.3401 1236.88 36.7076 1236.36 36.9246C1235.84 37.1417 1235.26 37.1985 1234.7 37.0878C1234.15 36.9772 1233.64 36.7041 1233.24 36.3031C1232.84 35.9021 1232.56 35.3912 1232.45 34.8351C1232.34 34.2789 1232.4 33.7024 1232.61 33.1785C1232.83 32.6546 1233.2 32.2068 1233.67 31.8917C1234.14 31.5767 1234.7 31.4085 1235.26 31.4085C1235.64 31.4055 1236.02 31.4776 1236.36 31.6207C1236.71 31.7637 1237.03 31.9748 1237.3 32.2416C1237.56 32.5085 1237.78 32.8257 1237.92 33.175C1238.06 33.5242 1238.13 33.8984 1238.13 34.2757Z" fill="white"/>
<path d="M1324.64 18.8645C1324.64 19.0399 1324.6 19.2136 1324.54 19.3755C1324.47 19.5373 1324.37 19.684 1324.24 19.807C1324.12 19.93 1323.97 20.0269 1323.81 20.092C1323.65 20.157 1323.47 20.189 1323.3 20.1861C1323.12 20.1891 1322.95 20.157 1322.79 20.0917C1322.62 20.0263 1322.48 19.9291 1322.35 19.8057C1322.23 19.6824 1322.13 19.5355 1322.07 19.3738C1322 19.2121 1321.97 19.0389 1321.97 18.8645C1321.97 18.689 1322 18.5148 1322.07 18.3518C1322.13 18.1889 1322.23 18.0405 1322.35 17.9154C1322.48 17.7903 1322.62 17.691 1322.78 17.6232C1322.95 17.5553 1323.12 17.5204 1323.3 17.5204C1323.65 17.5204 1323.99 17.662 1324.25 17.9141C1324.5 18.1661 1324.64 18.508 1324.64 18.8645V18.8645Z" fill="white"/>
<path d="M1288.37 45.6325C1288.38 46.0055 1288.27 46.3715 1288.07 46.6839C1287.86 46.9962 1287.57 47.2409 1287.23 47.3867C1286.88 47.5326 1286.51 47.5731 1286.14 47.503C1285.77 47.433 1285.44 47.2555 1285.17 46.9933C1284.9 46.7311 1284.72 46.3959 1284.65 46.0303C1284.57 45.6647 1284.61 45.2852 1284.75 44.9401C1284.89 44.595 1285.14 44.2997 1285.45 44.092C1285.75 43.8842 1286.12 43.7733 1286.49 43.7733C1286.99 43.7732 1287.46 43.9684 1287.82 44.3164C1288.17 44.6645 1288.37 45.1373 1288.37 45.6325Z" fill="white"/>
<path d="M1248.01 32.4388C1248.01 32.7061 1247.9 32.9625 1247.71 33.1515C1247.52 33.3406 1247.27 33.4468 1247 33.4468C1246.73 33.4468 1246.48 33.3406 1246.29 33.1515C1246.1 32.9625 1245.99 32.7061 1245.99 32.4388C1245.99 32.1714 1246.1 31.9151 1246.29 31.726C1246.48 31.537 1246.73 31.4308 1247 31.4308C1247.27 31.4308 1247.52 31.537 1247.71 31.726C1247.9 31.9151 1248.01 32.1714 1248.01 32.4388V32.4388Z" fill="white"/>
<path d="M1252.76 22.6499C1253.44 22.6499 1253.99 22.0983 1253.99 21.4179C1253.99 20.7375 1253.44 20.1859 1252.76 20.1859C1252.08 20.1859 1251.53 20.7375 1251.53 21.4179C1251.53 22.0983 1252.08 22.6499 1252.76 22.6499Z" fill="white"/>
<path d="M1105.5 36.9636C1107.03 36.9636 1108.28 35.72 1108.28 34.186C1108.28 32.652 1107.03 31.4084 1105.5 31.4084C1103.97 31.4084 1102.72 32.652 1102.72 34.186C1102.72 35.72 1103.97 36.9636 1105.5 36.9636Z" fill="white"/>
<path d="M1110.67 70.4962C1110.67 70.6863 1110.6 70.8687 1110.46 71.0031C1110.33 71.1375 1110.15 71.213 1109.96 71.213C1109.77 71.213 1109.59 71.1375 1109.45 71.0031C1109.32 70.8687 1109.24 70.6863 1109.24 70.4962C1109.25 70.3079 1109.32 70.1288 1109.46 69.9956C1109.59 69.8624 1109.77 69.785 1109.96 69.7794C1110.15 69.7794 1110.33 69.855 1110.46 69.9894C1110.6 70.1238 1110.67 70.3061 1110.67 70.4962V70.4962Z" fill="white"/>
<path d="M1114.48 57.482C1114.49 58.0013 1114.34 58.5102 1114.05 58.9441C1113.77 59.378 1113.36 59.7174 1112.88 59.9192C1112.4 60.121 1111.87 60.1761 1111.36 60.0776C1110.85 59.979 1110.39 59.7311 1110.02 59.3655C1109.65 58.9999 1109.4 58.533 1109.29 58.024C1109.19 57.515 1109.24 56.9869 1109.44 56.5067C1109.64 56.0265 1109.97 55.6159 1110.4 55.3269C1110.84 55.0379 1111.34 54.8836 1111.86 54.8836C1112.55 54.8836 1113.22 55.1566 1113.71 55.6433C1114.2 56.1299 1114.48 56.7908 1114.48 57.482Z" fill="white"/>
<path d="M1131.15 54.8833C1131.84 54.8833 1132.4 54.3217 1132.4 53.6289C1132.4 52.9362 1131.84 52.3745 1131.15 52.3745C1130.46 52.3745 1129.89 52.9362 1129.89 53.6289C1129.89 54.3217 1130.46 54.8833 1131.15 54.8833Z" fill="white"/>
<path d="M1138.72 40.5251C1138.72 40.6995 1138.69 40.8727 1138.63 41.0345C1138.56 41.1962 1138.46 41.3431 1138.34 41.4664C1138.22 41.5898 1138.07 41.687 1137.91 41.7523C1137.75 41.8177 1137.57 41.8498 1137.4 41.8467C1137.22 41.8467 1137.05 41.8126 1136.89 41.7462C1136.73 41.6797 1136.59 41.5824 1136.46 41.4597C1136.34 41.3369 1136.24 41.1912 1136.18 41.0309C1136.11 40.8706 1136.08 40.6987 1136.08 40.5251C1136.08 40.1764 1136.22 39.8436 1136.47 39.597C1136.72 39.3504 1137.05 39.2093 1137.4 39.2036C1137.57 39.2036 1137.74 39.2377 1137.9 39.3041C1138.06 39.3706 1138.21 39.4679 1138.33 39.5906C1138.46 39.7134 1138.55 39.859 1138.62 40.0194C1138.69 40.1797 1138.72 40.3516 1138.72 40.5251V40.5251Z" fill="white"/>
<path d="M1343.7 202.992C1344.8 202.992 1345.7 202.1 1345.7 200.999C1345.7 199.898 1344.8 199.005 1343.7 199.005C1342.6 199.005 1341.71 199.898 1341.71 200.999C1341.71 202.1 1342.6 202.992 1343.7 202.992Z" fill="white"/>
<path d="M1347.31 190.986C1347.31 191.146 1347.26 191.302 1347.17 191.434C1347.08 191.567 1346.96 191.67 1346.81 191.731C1346.66 191.792 1346.5 191.808 1346.34 191.777C1346.19 191.746 1346.04 191.669 1345.93 191.556C1345.82 191.444 1345.74 191.3 1345.71 191.143C1345.68 190.987 1345.7 190.825 1345.76 190.677C1345.82 190.53 1345.92 190.404 1346.05 190.316C1346.19 190.227 1346.34 190.18 1346.5 190.18C1346.72 190.18 1346.92 190.265 1347.07 190.416C1347.22 190.567 1347.31 190.772 1347.31 190.986Z" fill="white"/>
<path d="M1308.96 206.42C1308.96 206.735 1308.87 207.044 1308.69 207.306C1308.51 207.568 1308.26 207.772 1307.97 207.891C1307.68 208.011 1307.36 208.041 1307.05 207.978C1306.74 207.915 1306.46 207.761 1306.24 207.536C1306.02 207.312 1305.87 207.026 1305.81 206.716C1305.75 206.406 1305.78 206.086 1305.91 205.796C1306.03 205.505 1306.24 205.259 1306.5 205.087C1306.77 204.915 1307.08 204.825 1307.39 204.83C1307.81 204.835 1308.21 205.006 1308.5 205.303C1308.8 205.601 1308.96 206.002 1308.96 206.42V206.42Z" fill="white"/>
<path d="M1345.72 263.764C1345.72 264.381 1345.54 264.985 1345.2 265.5C1344.86 266.015 1344.38 266.417 1343.81 266.656C1343.24 266.896 1342.62 266.96 1342.01 266.843C1341.41 266.725 1340.85 266.43 1340.41 265.996C1339.97 265.561 1339.67 265.007 1339.55 264.402C1339.43 263.797 1339.49 263.17 1339.73 262.6C1339.96 262.03 1340.36 261.542 1340.87 261.199C1341.38 260.856 1341.99 260.673 1342.6 260.673C1343.01 260.67 1343.42 260.747 1343.79 260.902C1344.17 261.056 1344.52 261.283 1344.8 261.57C1345.09 261.857 1345.32 262.199 1345.48 262.576C1345.64 262.952 1345.72 263.356 1345.72 263.764Z" fill="white"/>
<path d="M1233.81 380.087C1234.59 380.087 1235.22 379.456 1235.22 378.676C1235.22 377.897 1234.59 377.265 1233.81 377.265C1233.03 377.265 1232.4 377.897 1232.4 378.676C1232.4 379.456 1233.03 380.087 1233.81 380.087Z" fill="white"/>
<path d="M1250.32 366.356C1250.32 366.619 1250.24 366.875 1250.09 367.093C1249.95 367.311 1249.74 367.48 1249.5 367.579C1249.25 367.679 1248.99 367.704 1248.73 367.651C1248.47 367.598 1248.24 367.47 1248.05 367.283C1247.87 367.096 1247.74 366.858 1247.7 366.6C1247.65 366.342 1247.68 366.076 1247.78 365.835C1247.88 365.594 1248.06 365.389 1248.28 365.247C1248.5 365.104 1248.75 365.03 1249.02 365.035C1249.19 365.035 1249.36 365.069 1249.52 365.136C1249.68 365.203 1249.82 365.3 1249.94 365.423C1250.06 365.546 1250.16 365.692 1250.22 365.852C1250.29 366.013 1250.32 366.184 1250.32 366.356Z" fill="white"/>
<path d="M1148.93 326.842C1148.93 327.494 1148.74 328.13 1148.38 328.672C1148.02 329.213 1147.5 329.635 1146.9 329.885C1146.3 330.134 1145.64 330.199 1145 330.072C1144.36 329.945 1143.77 329.631 1143.31 329.171C1142.85 328.71 1142.54 328.124 1142.41 327.485C1142.28 326.846 1142.35 326.184 1142.6 325.582C1142.85 324.981 1143.27 324.466 1143.81 324.105C1144.35 323.743 1144.99 323.55 1145.64 323.55C1146.07 323.55 1146.5 323.635 1146.9 323.8C1147.3 323.966 1147.66 324.208 1147.97 324.514C1148.28 324.82 1148.52 325.183 1148.68 325.582C1148.85 325.982 1148.93 326.41 1148.93 326.842V326.842Z" fill="white"/>
<path d="M1136.66 389.182C1137.01 389.182 1137.29 388.901 1137.29 388.555C1137.29 388.208 1137.01 387.927 1136.66 387.927C1136.31 387.927 1136.03 388.208 1136.03 388.555C1136.03 388.901 1136.31 389.182 1136.66 389.182Z" fill="white"/>
<path d="M1147.25 377.96C1147.26 378.103 1147.22 378.245 1147.14 378.366C1147.07 378.487 1146.95 378.583 1146.82 378.64C1146.69 378.697 1146.54 378.713 1146.4 378.686C1146.26 378.659 1146.13 378.59 1146.03 378.489C1145.93 378.387 1145.86 378.257 1145.83 378.116C1145.81 377.975 1145.82 377.829 1145.88 377.697C1145.94 377.565 1146.03 377.454 1146.15 377.377C1146.27 377.3 1146.42 377.261 1146.56 377.265C1146.74 377.265 1146.92 377.339 1147.05 377.469C1147.18 377.599 1147.25 377.776 1147.25 377.96V377.96Z" fill="white"/>
<path d="M1149.7 371.8C1150.12 371.8 1150.46 371.459 1150.46 371.038C1150.46 370.617 1150.12 370.276 1149.7 370.276C1149.28 370.276 1148.93 370.617 1148.93 371.038C1148.93 371.459 1149.28 371.8 1149.7 371.8Z" fill="white"/>
<path d="M1101.36 416.219C1101.36 416.534 1101.26 416.841 1101.09 417.103C1100.91 417.364 1100.66 417.568 1100.37 417.688C1100.08 417.809 1099.76 417.84 1099.46 417.779C1099.15 417.718 1098.86 417.566 1098.64 417.344C1098.42 417.121 1098.27 416.838 1098.21 416.529C1098.14 416.221 1098.18 415.901 1098.3 415.61C1098.42 415.32 1098.62 415.071 1098.88 414.897C1099.14 414.722 1099.45 414.629 1099.77 414.629C1099.97 414.629 1100.18 414.67 1100.37 414.75C1100.57 414.83 1100.74 414.947 1100.89 415.094C1101.04 415.242 1101.16 415.417 1101.23 415.61C1101.31 415.803 1101.36 416.01 1101.36 416.219V416.219Z" fill="white"/>
<path d="M1111.35 362.503C1112.1 362.503 1112.71 361.891 1112.71 361.137C1112.71 360.382 1112.1 359.77 1111.35 359.77C1110.59 359.77 1109.98 360.382 1109.98 361.137C1109.98 361.891 1110.59 362.503 1111.35 362.503Z" fill="white"/>
<path d="M1351.7 105.284C1351.7 105.877 1351.52 106.458 1351.19 106.951C1350.86 107.445 1350.39 107.829 1349.85 108.057C1349.3 108.284 1348.69 108.343 1348.11 108.227C1347.53 108.112 1346.99 107.826 1346.58 107.406C1346.16 106.986 1345.87 106.451 1345.75 105.869C1345.64 105.287 1345.7 104.683 1345.92 104.135C1346.15 103.586 1346.54 103.118 1347.03 102.788C1347.52 102.458 1348.1 102.282 1348.7 102.282C1349.09 102.282 1349.48 102.36 1349.85 102.51C1350.21 102.661 1350.54 102.882 1350.82 103.161C1351.1 103.44 1351.32 103.771 1351.47 104.135C1351.62 104.499 1351.7 104.889 1351.7 105.284Z" fill="white"/>
<path d="M1142.44 131.962C1142.45 132.624 1142.32 133.282 1142.06 133.888C1141.73 134.71 1141.2 135.434 1140.51 135.99C1139.83 136.547 1139.01 136.918 1138.14 137.068C1137.27 137.218 1136.38 137.141 1135.54 136.846C1134.71 136.55 1133.97 136.045 1133.39 135.38C1132.81 134.714 1132.41 133.911 1132.22 133.046C1132.04 132.181 1132.09 131.285 1132.35 130.442C1132.62 129.599 1133.1 128.839 1133.74 128.235C1134.39 127.63 1135.17 127.201 1136.03 126.989C1136.44 126.878 1136.86 126.825 1137.29 126.832C1138.65 126.832 1139.96 127.372 1140.92 128.333C1141.89 129.295 1142.43 130.6 1142.44 131.962Z" fill="white"/>
<g style="mix-blend-mode:multiply" opacity="0.2">
<path d="M1142.06 133.888C1141.73 134.71 1141.2 135.434 1140.51 135.991C1139.83 136.547 1139.01 136.919 1138.14 137.068C1137.27 137.218 1136.38 137.141 1135.54 136.846C1134.71 136.55 1133.97 136.045 1133.39 135.38C1132.81 134.715 1132.41 133.911 1132.22 133.046C1132.04 132.181 1132.09 131.285 1132.35 130.442C1132.62 129.6 1133.1 128.839 1133.74 128.235C1134.39 127.63 1135.17 127.201 1136.03 126.989L1135.9 127.303C1135.69 127.941 1135.63 128.619 1135.72 129.284C1135.82 129.949 1136.07 130.582 1136.46 131.133C1137.35 132.287 1138.63 133.081 1140.06 133.373C1140.71 133.62 1141.41 133.754 1142.06 133.888Z" fill="#4E2A67"/>
</g>
<path d="M1254.42 266.945C1254.82 267.471 1255.12 268.073 1255.29 268.715C1255.62 269.875 1255.53 271.115 1255.04 272.218C1254.56 273.321 1253.69 274.217 1252.61 274.75C1251.53 275.283 1250.29 275.42 1249.12 275.135C1247.95 274.851 1246.91 274.164 1246.19 273.195C1245.49 272.294 1245.1 271.182 1245.1 270.036C1245.1 268.891 1245.49 267.778 1246.19 266.878C1246.45 266.543 1246.75 266.248 1247.09 266.004C1247.63 265.576 1248.25 265.26 1248.91 265.075C1249.58 264.891 1250.27 264.841 1250.95 264.928C1251.63 265.016 1252.29 265.24 1252.89 265.586C1253.48 265.932 1254 266.395 1254.42 266.945V266.945Z" fill="white"/>
<g style="mix-blend-mode:multiply" opacity="0.2">
<path d="M1255.2 268.714C1255.53 269.875 1255.44 271.114 1254.95 272.217C1254.47 273.32 1253.6 274.216 1252.52 274.75C1251.44 275.283 1250.2 275.419 1249.03 275.135C1247.86 274.851 1246.82 274.164 1246.11 273.194C1245.4 272.294 1245.01 271.182 1245.01 270.036C1245.01 268.89 1245.4 267.778 1246.11 266.877V267.213C1246.32 267.853 1246.68 268.434 1247.16 268.908C1247.64 269.383 1248.22 269.739 1248.86 269.946C1250.28 270.319 1251.78 270.192 1253.12 269.588C1254.03 269.319 1254.66 269.005 1255.2 268.714Z" fill="#4E2A67"/>
</g>
<path d="M1248.99 103.044C1247.9 110.122 1247.83 113.124 1238.09 114.244C1247.9 116.013 1247.96 118.007 1249.08 126.653C1250.36 118.231 1251.32 115.453 1259.93 113.818C1252.76 112.631 1250.47 110.145 1248.99 103.044Z" fill="white"/>
<path d="M79.9922 653.006C79.9922 654.353 79.5927 655.67 78.844 656.79C78.0954 657.911 77.0314 658.784 75.7865 659.299C74.5415 659.815 73.1716 659.95 71.8501 659.687C70.5285 659.424 69.3145 658.775 68.3617 657.823C67.4089 656.87 66.76 655.656 66.4971 654.335C66.2342 653.014 66.3692 651.644 66.8848 650.399C67.4005 649.154 68.2737 648.091 69.3941 647.342C70.5145 646.593 71.8317 646.194 73.1792 646.194C74.9861 646.194 76.7191 646.912 77.9967 648.189C79.2744 649.467 79.9922 651.199 79.9922 653.006V653.006Z" fill="white"/>
<path d="M38.3806 711.813C41.1907 711.813 43.4687 709.535 43.4687 706.726C43.4687 703.916 41.1907 701.638 38.3806 701.638C35.5704 701.638 33.2924 703.916 33.2924 706.726C33.2924 709.535 35.5704 711.813 38.3806 711.813Z" fill="white"/>
<path d="M43.4687 619.55C43.4687 620.556 43.1703 621.539 42.6112 622.376C42.0521 623.213 41.2575 623.865 40.3277 624.25C39.398 624.635 38.3749 624.736 37.3879 624.539C36.4009 624.343 35.4943 623.859 34.7827 623.147C34.0711 622.436 33.5865 621.529 33.3901 620.542C33.1938 619.555 33.2946 618.532 33.6797 617.603C34.0648 616.673 34.717 615.879 35.5537 615.32C36.3904 614.761 37.3742 614.462 38.3805 614.462C39.73 614.462 41.0242 614.998 41.9784 615.952C42.9327 616.906 43.4687 618.2 43.4687 619.55V619.55Z" fill="white"/>
<path d="M94.6959 696.68C95.3389 696.68 95.8601 696.159 95.8601 695.516C95.8601 694.873 95.3389 694.352 94.6959 694.352C94.0529 694.352 93.5316 694.873 93.5316 695.516C93.5316 696.159 94.0529 696.68 94.6959 696.68Z" fill="white"/>
<path d="M196.761 663.31C196.761 664.001 196.557 664.676 196.173 665.25C195.789 665.825 195.244 666.272 194.605 666.536C193.967 666.801 193.265 666.87 192.587 666.735C191.91 666.601 191.287 666.268 190.799 665.78C190.311 665.291 189.978 664.669 189.843 663.991C189.708 663.314 189.778 662.612 190.042 661.974C190.306 661.336 190.754 660.79 191.328 660.407C191.903 660.023 192.578 659.818 193.269 659.818C194.192 659.829 195.073 660.201 195.726 660.853C196.379 661.506 196.75 662.388 196.761 663.31V663.31Z" fill="white"/>
<path d="M181.798 629.078C181.798 629.93 181.546 630.764 181.072 631.473C180.598 632.182 179.924 632.735 179.137 633.061C178.349 633.387 177.482 633.473 176.645 633.306C175.809 633.14 175.04 632.729 174.437 632.126C173.834 631.523 173.424 630.755 173.257 629.919C173.091 629.082 173.176 628.216 173.503 627.428C173.829 626.64 174.382 625.967 175.091 625.493C175.8 625.019 176.634 624.766 177.486 624.766C178.63 624.766 179.727 625.221 180.535 626.029C181.344 626.838 181.798 627.934 181.798 629.078Z" fill="white"/>
<path d="M206.291 626.879C206.291 627.322 206.159 627.756 205.913 628.125C205.667 628.493 205.316 628.781 204.907 628.95C204.497 629.12 204.046 629.164 203.611 629.078C203.176 628.991 202.777 628.778 202.463 628.464C202.15 628.151 201.936 627.751 201.849 627.316C201.763 626.881 201.807 626.431 201.977 626.021C202.147 625.611 202.434 625.261 202.803 625.015C203.172 624.769 203.605 624.637 204.049 624.637C204.345 624.631 204.639 624.685 204.914 624.796C205.188 624.906 205.438 625.071 205.647 625.281C205.857 625.49 206.022 625.74 206.132 626.014C206.243 626.289 206.297 626.583 206.291 626.879V626.879Z" fill="white"/>
<path d="M175.417 701.681C176.798 701.681 177.918 700.562 177.918 699.181C177.918 697.8 176.798 696.68 175.417 696.68C174.036 696.68 172.916 697.8 172.916 699.181C172.916 700.562 174.036 701.681 175.417 701.681Z" fill="white"/>
<path d="M237.64 699.181C238.33 699.181 238.89 698.621 238.89 697.931C238.89 697.24 238.33 696.68 237.64 696.68C236.949 696.68 236.389 697.24 236.389 697.931C236.389 698.621 236.949 699.181 237.64 699.181Z" fill="white"/>
<path d="M179.858 748.719C180.93 748.719 181.799 747.85 181.799 746.778C181.799 745.707 180.93 744.838 179.858 744.838C178.787 744.838 177.918 745.707 177.918 746.778C177.918 747.85 178.787 748.719 179.858 748.719Z" fill="white"/>
<path d="M825.992 356.006C825.992 357.353 825.593 358.67 824.844 359.79C824.095 360.911 823.031 361.784 821.786 362.299C820.542 362.815 819.172 362.95 817.85 362.687C816.528 362.424 815.315 361.775 814.362 360.823C813.409 359.87 812.76 358.656 812.497 357.335C812.234 356.014 812.369 354.644 812.885 353.399C813.401 352.154 814.274 351.091 815.394 350.342C816.515 349.593 817.832 349.194 819.179 349.194C820.986 349.194 822.719 349.912 823.997 351.189C825.274 352.467 825.992 354.199 825.992 356.006V356.006Z" fill="white"/>
<path d="M784.381 414.813C787.191 414.813 789.469 412.535 789.469 409.726C789.469 406.916 787.191 404.638 784.381 404.638C781.57 404.638 779.292 406.916 779.292 409.726C779.292 412.535 781.57 414.813 784.381 414.813Z" fill="white"/>
<path d="M789.469 322.55C789.469 323.556 789.17 324.539 788.611 325.376C788.052 326.213 787.257 326.865 786.328 327.25C785.398 327.635 784.375 327.736 783.388 327.539C782.401 327.343 781.494 326.859 780.783 326.147C780.071 325.436 779.586 324.529 779.39 323.542C779.194 322.555 779.295 321.532 779.68 320.603C780.065 319.673 780.717 318.879 781.554 318.32C782.39 317.761 783.374 317.462 784.381 317.462C785.73 317.462 787.024 317.998 787.978 318.952C788.933 319.906 789.469 321.2 789.469 322.55V322.55Z" fill="white"/>
<path d="M840.696 399.68C841.339 399.68 841.86 399.159 841.86 398.516C841.86 397.873 841.339 397.352 840.696 397.352C840.053 397.352 839.532 397.873 839.532 398.516C839.532 399.159 840.053 399.68 840.696 399.68Z" fill="white"/>
<path d="M657.263 505.87C657.263 506.884 656.962 507.876 656.398 508.72C655.834 509.564 655.033 510.221 654.095 510.609C653.157 510.998 652.126 511.099 651.13 510.901C650.135 510.703 649.221 510.215 648.503 509.497C647.785 508.78 647.297 507.866 647.099 506.87C646.901 505.875 647.002 504.844 647.391 503.906C647.779 502.969 648.437 502.168 649.281 501.604C650.124 501.04 651.116 500.739 652.131 500.739C652.807 500.733 653.477 500.862 654.102 501.118C654.727 501.374 655.295 501.751 655.772 502.229C656.25 502.707 656.628 503.274 656.884 503.899C657.14 504.524 657.268 505.194 657.263 505.87V505.87Z" fill="white"/>
<path d="M652.131 305.261C654.965 305.261 657.263 302.964 657.263 300.131C657.263 297.297 654.965 295 652.131 295C649.297 295 647 297.297 647 300.131C647 302.964 649.297 305.261 652.131 305.261Z" fill="white"/>
<path d="M971.048 488.064C972.525 488.064 973.722 486.867 973.722 485.391C973.722 483.914 972.525 482.717 971.048 482.717C969.572 482.717 968.375 483.914 968.375 485.391C968.375 486.867 969.572 488.064 971.048 488.064Z" fill="white"/>
<path d="M942.761 366.31C942.761 367.001 942.557 367.676 942.173 368.25C941.789 368.825 941.243 369.272 940.605 369.536C939.967 369.801 939.265 369.87 938.587 369.735C937.91 369.601 937.287 369.268 936.799 368.78C936.31 368.291 935.978 367.669 935.843 366.991C935.708 366.314 935.777 365.612 936.042 364.974C936.306 364.336 936.754 363.79 937.328 363.407C937.903 363.023 938.578 362.818 939.269 362.818C940.192 362.829 941.073 363.201 941.726 363.853C942.379 364.506 942.75 365.388 942.761 366.31V366.31Z" fill="white"/>
<path d="M927.798 332.078C927.798 332.931 927.546 333.764 927.072 334.473C926.598 335.182 925.924 335.735 925.137 336.061C924.349 336.387 923.482 336.473 922.645 336.306C921.809 336.14 921.04 335.729 920.437 335.126C919.834 334.523 919.424 333.755 919.257 332.919C919.091 332.082 919.176 331.216 919.503 330.428C919.829 329.64 920.382 328.967 921.091 328.493C921.8 328.019 922.634 327.766 923.486 327.766C924.63 327.766 925.727 328.221 926.535 329.029C927.344 329.838 927.798 330.934 927.798 332.078Z" fill="white"/>
<path d="M952.291 329.879C952.291 330.322 952.159 330.756 951.913 331.125C951.667 331.493 951.316 331.781 950.907 331.95C950.497 332.12 950.046 332.164 949.611 332.078C949.176 331.991 948.777 331.778 948.463 331.464C948.15 331.151 947.936 330.751 947.849 330.316C947.763 329.881 947.807 329.431 947.977 329.021C948.147 328.611 948.434 328.261 948.803 328.015C949.172 327.769 949.605 327.637 950.049 327.637C950.345 327.631 950.639 327.685 950.914 327.796C951.188 327.906 951.438 328.071 951.647 328.281C951.857 328.49 952.022 328.74 952.132 329.014C952.243 329.289 952.297 329.583 952.291 329.879V329.879Z" fill="white"/>
<path d="M921.417 404.681C922.798 404.681 923.918 403.562 923.918 402.181C923.918 400.8 922.798 399.68 921.417 399.68C920.036 399.68 918.916 400.8 918.916 402.181C918.916 403.562 920.036 404.681 921.417 404.681Z" fill="white"/>
<path d="M983.639 402.181C984.33 402.181 984.89 401.621 984.89 400.931C984.89 400.24 984.33 399.68 983.639 399.68C982.949 399.68 982.389 400.24 982.389 400.931C982.389 401.621 982.949 402.181 983.639 402.181Z" fill="white"/>
<path d="M925.858 451.719C926.93 451.719 927.799 450.85 927.799 449.778C927.799 448.707 926.93 447.838 925.858 447.838C924.787 447.838 923.918 448.707 923.918 449.778C923.918 450.85 924.787 451.719 925.858 451.719Z" fill="white"/>
<path d="M1220.99 634.006C1220.99 635.353 1220.59 636.67 1219.84 637.79C1219.1 638.911 1218.03 639.784 1216.79 640.299C1215.54 640.815 1214.17 640.95 1212.85 640.687C1211.53 640.424 1210.31 639.775 1209.36 638.823C1208.41 637.87 1207.76 636.656 1207.5 635.335C1207.23 634.014 1207.37 632.644 1207.88 631.399C1208.4 630.154 1209.27 629.091 1210.39 628.342C1211.51 627.593 1212.83 627.194 1214.18 627.194C1215.99 627.194 1217.72 627.912 1219 629.189C1220.27 630.467 1220.99 632.199 1220.99 634.006V634.006Z" fill="white"/>
<path d="M1179.38 692.813C1182.19 692.813 1184.47 690.535 1184.47 687.726C1184.47 684.916 1182.19 682.638 1179.38 682.638C1176.57 682.638 1174.29 684.916 1174.29 687.726C1174.29 690.535 1176.57 692.813 1179.38 692.813Z" fill="white"/>
<path d="M1184.47 600.55C1184.47 601.556 1184.17 602.539 1183.61 603.376C1183.05 604.213 1182.26 604.865 1181.33 605.25C1180.4 605.635 1179.37 605.736 1178.39 605.539C1177.4 605.343 1176.49 604.859 1175.78 604.147C1175.07 603.436 1174.59 602.529 1174.39 601.542C1174.19 600.555 1174.29 599.532 1174.68 598.603C1175.06 597.673 1175.72 596.879 1176.55 596.32C1177.39 595.761 1178.37 595.462 1179.38 595.462C1180.73 595.462 1182.02 595.998 1182.98 596.952C1183.93 597.906 1184.47 599.2 1184.47 600.55V600.55Z" fill="white"/>
<path d="M1235.7 677.68C1236.34 677.68 1236.86 677.159 1236.86 676.516C1236.86 675.873 1236.34 675.352 1235.7 675.352C1235.05 675.352 1234.53 675.873 1234.53 676.516C1234.53 677.159 1235.05 677.68 1235.7 677.68Z" fill="white"/>
<path d="M1047.13 583.261C1049.97 583.261 1052.26 580.964 1052.26 578.131C1052.26 575.297 1049.97 573 1047.13 573C1044.3 573 1042 575.297 1042 578.131C1042 580.964 1044.3 583.261 1047.13 583.261Z" fill="white"/>
<path d="M1366.05 766.064C1367.52 766.064 1368.72 764.867 1368.72 763.391C1368.72 761.914 1367.52 760.717 1366.05 760.717C1364.57 760.717 1363.37 761.914 1363.37 763.391C1363.37 764.867 1364.57 766.064 1366.05 766.064Z" fill="white"/>
<path d="M1337.76 644.31C1337.76 645.001 1337.56 645.676 1337.17 646.25C1336.79 646.825 1336.24 647.272 1335.61 647.536C1334.97 647.801 1334.26 647.87 1333.59 647.735C1332.91 647.601 1332.29 647.268 1331.8 646.78C1331.31 646.291 1330.98 645.669 1330.84 644.991C1330.71 644.314 1330.78 643.612 1331.04 642.974C1331.31 642.336 1331.75 641.79 1332.33 641.407C1332.9 641.023 1333.58 640.818 1334.27 640.818C1335.19 640.829 1336.07 641.201 1336.73 641.853C1337.38 642.506 1337.75 643.388 1337.76 644.31V644.31Z" fill="white"/>
<path d="M1322.8 610.078C1322.8 610.93 1322.55 611.764 1322.07 612.473C1321.6 613.182 1320.92 613.735 1320.14 614.061C1319.35 614.387 1318.48 614.473 1317.65 614.306C1316.81 614.14 1316.04 613.729 1315.44 613.126C1314.83 612.523 1314.42 611.755 1314.26 610.919C1314.09 610.082 1314.18 609.216 1314.5 608.428C1314.83 607.64 1315.38 606.967 1316.09 606.493C1316.8 606.019 1317.63 605.766 1318.49 605.766C1319.63 605.766 1320.73 606.221 1321.54 607.029C1322.34 607.838 1322.8 608.934 1322.8 610.078Z" fill="white"/>
<path d="M1347.29 607.879C1347.29 608.322 1347.16 608.756 1346.91 609.125C1346.67 609.493 1346.32 609.781 1345.91 609.95C1345.5 610.12 1345.05 610.164 1344.61 610.078C1344.18 609.991 1343.78 609.778 1343.46 609.464C1343.15 609.151 1342.94 608.751 1342.85 608.316C1342.76 607.881 1342.81 607.431 1342.98 607.021C1343.15 606.611 1343.43 606.261 1343.8 606.015C1344.17 605.769 1344.61 605.637 1345.05 605.637C1345.34 605.631 1345.64 605.685 1345.91 605.796C1346.19 605.906 1346.44 606.071 1346.65 606.281C1346.86 606.49 1347.02 606.74 1347.13 607.014C1347.24 607.289 1347.3 607.583 1347.29 607.879V607.879Z" fill="white"/>
<path d="M1316.42 682.681C1317.8 682.681 1318.92 681.562 1318.92 680.181C1318.92 678.8 1317.8 677.68 1316.42 677.68C1315.04 677.68 1313.92 678.8 1313.92 680.181C1313.92 681.562 1315.04 682.681 1316.42 682.681Z" fill="white"/>
<path d="M1320.86 729.719C1321.93 729.719 1322.8 728.85 1322.8 727.778C1322.8 726.707 1321.93 725.838 1320.86 725.838C1319.79 725.838 1318.92 726.707 1318.92 727.778C1318.92 728.85 1319.79 729.719 1320.86 729.719Z" fill="white"/>
<path d="M721.898 694.006C721.898 695.353 722.297 696.67 723.046 697.79C723.795 698.911 724.859 699.784 726.103 700.299C727.348 700.815 728.718 700.95 730.04 700.687C731.361 700.424 732.575 699.775 733.528 698.823C734.481 697.87 735.13 696.656 735.393 695.335C735.656 694.014 735.521 692.644 735.005 691.399C734.489 690.154 733.616 689.091 732.496 688.342C731.375 687.593 730.058 687.194 728.711 687.194C726.904 687.194 725.171 687.912 723.893 689.189C722.615 690.467 721.898 692.199 721.898 694.006V694.006Z" fill="white"/>
<path d="M763.509 752.813C760.699 752.813 758.421 750.535 758.421 747.726C758.421 744.916 760.699 742.638 763.509 742.638C766.32 742.638 768.598 744.916 768.598 747.726C768.598 750.535 766.32 752.813 763.509 752.813Z" fill="white"/>
<path d="M758.421 660.55C758.421 661.556 758.72 662.539 759.279 663.376C759.838 664.213 760.633 664.865 761.562 665.25C762.492 665.635 763.515 665.736 764.502 665.539C765.489 665.343 766.396 664.859 767.107 664.147C767.819 663.436 768.304 662.529 768.5 661.542C768.696 660.555 768.595 659.532 768.21 658.603C767.825 657.673 767.173 656.879 766.336 656.32C765.5 655.761 764.516 655.462 763.509 655.462C762.16 655.462 760.866 655.998 759.912 656.952C758.957 657.906 758.421 659.2 758.421 660.55V660.55Z" fill="white"/>
<path d="M707.194 737.68C706.551 737.68 706.03 737.159 706.03 736.516C706.03 735.873 706.551 735.352 707.194 735.352C707.837 735.352 708.358 735.873 708.358 736.516C708.358 737.159 707.837 737.68 707.194 737.68Z" fill="white"/>
<path d="M895.759 643.261C892.925 643.261 890.627 640.964 890.627 638.131C890.627 635.297 892.925 633 895.759 633C898.593 633 900.89 635.297 900.89 638.131C900.89 640.964 898.593 643.261 895.759 643.261Z" fill="white"/>
<path d="M605.129 704.31C605.129 705.001 605.333 705.676 605.717 706.25C606.101 706.825 606.646 707.272 607.285 707.536C607.923 707.801 608.625 707.87 609.303 707.735C609.98 707.601 610.603 707.268 611.091 706.78C611.579 706.291 611.912 705.669 612.047 704.991C612.182 704.314 612.112 703.612 611.848 702.974C611.584 702.336 611.136 701.79 610.562 701.407C609.987 701.023 609.312 700.818 608.621 700.818C607.698 700.829 606.817 701.201 606.164 701.853C605.511 702.506 605.14 703.388 605.129 704.31V704.31Z" fill="white"/>
<path d="M620.092 670.078C620.092 670.93 620.344 671.764 620.818 672.473C621.292 673.182 621.965 673.735 622.753 674.061C623.541 674.387 624.408 674.473 625.245 674.306C626.081 674.14 626.85 673.729 627.453 673.126C628.056 672.523 628.466 671.755 628.633 670.919C628.799 670.082 628.714 669.216 628.387 668.428C628.061 667.64 627.508 666.967 626.799 666.493C626.09 666.019 625.256 665.766 624.404 665.766C623.26 665.766 622.163 666.221 621.354 667.029C620.546 667.838 620.092 668.934 620.092 670.078Z" fill="white"/>
<path d="M595.599 667.879C595.599 668.322 595.731 668.756 595.977 669.125C596.223 669.493 596.574 669.781 596.983 669.95C597.393 670.12 597.844 670.164 598.279 670.078C598.714 669.991 599.113 669.778 599.427 669.464C599.74 669.151 599.954 668.751 600.04 668.316C600.127 667.881 600.083 667.431 599.913 667.021C599.743 666.611 599.456 666.261 599.087 666.015C598.718 665.769 598.285 665.637 597.841 665.637C597.545 665.631 597.251 665.685 596.976 665.796C596.702 665.906 596.452 666.071 596.243 666.281C596.033 666.49 595.868 666.74 595.758 667.014C595.647 667.289 595.593 667.583 595.599 667.879V667.879Z" fill="white"/>
<path d="M626.473 742.681C625.092 742.681 623.972 741.562 623.972 740.181C623.972 738.8 625.092 737.68 626.473 737.68C627.854 737.68 628.974 738.8 628.974 740.181C628.974 741.562 627.854 742.681 626.473 742.681Z" fill="white"/>
<path d="M564.251 740.181C563.56 740.181 563 739.621 563 738.931C563 738.24 563.56 737.68 564.251 737.68C564.941 737.68 565.501 738.24 565.501 738.931C565.501 739.621 564.941 740.181 564.251 740.181Z" fill="white"/>
<path d="M1014.9 82.0059C1014.9 83.3532 1015.3 84.6703 1016.05 85.7905C1016.79 86.9107 1017.86 87.7839 1019.1 88.2994C1020.35 88.815 1021.72 88.9499 1023.04 88.6871C1024.36 88.4242 1025.58 87.7753 1026.53 86.8227C1027.48 85.87 1028.13 84.6563 1028.39 83.3349C1028.66 82.0136 1028.52 80.6438 1028.01 79.3991C1027.49 78.1544 1026.62 77.0905 1025.5 76.342C1024.38 75.5935 1023.06 75.194 1021.71 75.194C1019.9 75.194 1018.17 75.9117 1016.89 77.1892C1015.62 78.4667 1014.9 80.1993 1014.9 82.0059V82.0059Z" fill="white"/>
<path d="M1056.51 140.813C1053.7 140.813 1051.42 138.535 1051.42 135.726C1051.42 132.916 1053.7 130.638 1056.51 130.638C1059.32 130.638 1061.6 132.916 1061.6 135.726C1061.6 138.535 1059.32 140.813 1056.51 140.813Z" fill="white"/>
<path d="M1051.42 48.5496C1051.42 49.5558 1051.72 50.5394 1052.28 51.376C1052.84 52.2127 1053.63 52.8647 1054.56 53.2498C1055.49 53.6348 1056.51 53.7357 1057.5 53.5394C1058.49 53.3431 1059.4 52.8586 1060.11 52.1471C1060.82 51.4356 1061.3 50.529 1061.5 49.5422C1061.7 48.5553 1061.6 47.5323 1061.21 46.6027C1060.83 45.6731 1060.17 44.8786 1059.34 44.3196C1058.5 43.7606 1057.52 43.4622 1056.51 43.4622C1055.16 43.4622 1053.87 43.9981 1052.91 44.9522C1051.96 45.9063 1051.42 47.2003 1051.42 48.5496V48.5496Z" fill="white"/>
<path d="M1000.19 125.68C999.551 125.68 999.03 125.159 999.03 124.516C999.03 123.873 999.551 123.352 1000.19 123.352C1000.84 123.352 1001.36 123.873 1001.36 124.516C1001.36 125.159 1000.84 125.68 1000.19 125.68Z" fill="white"/>
<path d="M1183.63 231.87C1183.63 232.884 1183.93 233.876 1184.49 234.72C1185.06 235.564 1185.86 236.221 1186.79 236.609C1187.73 236.998 1188.76 237.099 1189.76 236.901C1190.76 236.703 1191.67 236.215 1192.39 235.497C1193.1 234.78 1193.59 233.866 1193.79 232.87C1193.99 231.875 1193.89 230.844 1193.5 229.906C1193.11 228.969 1192.45 228.168 1191.61 227.604C1190.77 227.04 1189.77 226.739 1188.76 226.739C1188.08 226.733 1187.41 226.862 1186.79 227.118C1186.16 227.374 1185.6 227.751 1185.12 228.229C1184.64 228.707 1184.26 229.274 1184.01 229.899C1183.75 230.524 1183.62 231.194 1183.63 231.87V231.87Z" fill="white"/>
<path d="M1188.76 31.2612C1185.92 31.2612 1183.63 28.9641 1183.63 26.1306C1183.63 23.2971 1185.92 21 1188.76 21C1191.59 21 1193.89 23.2971 1193.89 26.1306C1193.89 28.9641 1191.59 31.2612 1188.76 31.2612Z" fill="white"/>
<path d="M869.842 214.064C868.365 214.064 867.168 212.867 867.168 211.391C867.168 209.914 868.365 208.717 869.842 208.717C871.318 208.717 872.515 209.914 872.515 211.391C872.515 212.867 871.318 214.064 869.842 214.064Z" fill="white"/>
<path d="M898.128 92.3102C898.128 93.0009 898.333 93.6761 898.717 94.2504C899.101 94.8247 899.646 95.2722 900.285 95.5365C900.923 95.8008 901.625 95.87 902.303 95.7353C902.98 95.6005 903.602 95.2679 904.091 94.7795C904.579 94.2912 904.912 93.6689 905.047 92.9915C905.182 92.3141 905.112 91.6118 904.848 90.9737C904.584 90.3356 904.136 89.7903 903.562 89.4066C902.987 89.0228 902.312 88.8181 901.621 88.8181C900.698 88.8292 899.816 89.2008 899.164 89.8533C898.511 90.5058 898.14 91.3875 898.128 92.3102V92.3102Z" fill="white"/>
<path d="M913.091 58.0778C913.091 58.9305 913.344 59.7641 913.818 60.4731C914.292 61.1821 914.965 61.7346 915.753 62.0609C916.541 62.3872 917.408 62.4726 918.245 62.3062C919.081 62.1399 919.849 61.7293 920.453 61.1263C921.056 60.5234 921.466 59.7551 921.633 58.9188C921.799 58.0825 921.714 57.2157 921.387 56.4279C921.061 55.6401 920.508 54.9668 919.799 54.493C919.09 54.0193 918.256 53.7665 917.403 53.7665C916.26 53.7665 915.163 54.2206 914.354 55.0292C913.546 55.8377 913.091 56.9344 913.091 58.0778Z" fill="white"/>
<path d="M888.599 55.879C888.599 56.3224 888.731 56.756 888.977 57.1246C889.223 57.4933 889.573 57.7806 889.983 57.9503C890.393 58.12 890.844 58.1644 891.279 58.0779C891.714 57.9914 892.113 57.7779 892.427 57.4644C892.74 57.1508 892.954 56.7513 893.04 56.3164C893.127 55.8815 893.083 55.4307 892.913 55.021C892.743 54.6114 892.456 54.2612 892.087 54.0149C891.718 53.7686 891.285 53.6372 890.841 53.6372C890.545 53.6313 890.251 53.6852 889.976 53.7958C889.702 53.9064 889.452 54.0713 889.243 54.2807C889.033 54.49 888.868 54.7395 888.758 55.0142C888.647 55.2889 888.593 55.583 888.599 55.879V55.879Z" fill="white"/>
<path d="M919.473 130.681C918.092 130.681 916.972 129.562 916.972 128.181C916.972 126.8 918.092 125.68 919.473 125.68C920.854 125.68 921.974 126.8 921.974 128.181C921.974 129.562 920.854 130.681 919.473 130.681Z" fill="white"/>
<path d="M857.25 128.181C856.56 128.181 856 127.621 856 126.931C856 126.24 856.56 125.68 857.25 125.68C857.941 125.68 858.501 126.24 858.501 126.931C858.501 127.621 857.941 128.181 857.25 128.181Z" fill="white"/>
<path d="M915.031 177.719C913.96 177.719 913.091 176.85 913.091 175.778C913.091 174.707 913.96 173.838 915.031 173.838C916.103 173.838 916.972 174.707 916.972 175.778C916.972 176.85 916.103 177.719 915.031 177.719Z" fill="white"/>
<path d="M468.949 68.4739C468.949 69.3015 468.703 70.1105 468.244 70.7986C467.784 71.4867 467.13 72.0231 466.365 72.3398C465.601 72.6565 464.759 72.7393 463.947 72.5779C463.136 72.4164 462.39 72.0178 461.805 71.4326C461.219 70.8474 460.821 70.1019 460.659 69.2902C460.498 68.4786 460.581 67.6372 460.897 66.8726C461.214 66.108 461.751 65.4545 462.439 64.9947C463.127 64.5349 463.936 64.2896 464.764 64.2896C465.874 64.2896 466.938 64.7304 467.723 65.5151C468.508 66.2998 468.949 67.3641 468.949 68.4739V68.4739Z" fill="white"/>
<path d="M443.388 104.597C445.114 104.597 446.514 103.198 446.514 101.472C446.514 99.7462 445.114 98.347 443.388 98.347C441.662 98.347 440.263 99.7462 440.263 101.472C440.263 103.198 441.662 104.597 443.388 104.597Z" fill="white"/>
<path d="M446.514 47.9228C446.514 48.5408 446.33 49.145 445.987 49.659C445.644 50.1729 445.155 50.5734 444.584 50.8099C444.013 51.0465 443.385 51.1084 442.778 50.9878C442.172 50.8672 441.615 50.5696 441.178 50.1326C440.741 49.6955 440.443 49.1387 440.323 48.5325C440.202 47.9263 440.264 47.2979 440.501 46.7268C440.737 46.1558 441.138 45.6678 441.652 45.3244C442.166 44.9811 442.77 44.7977 443.388 44.7977C444.217 44.7977 445.012 45.127 445.598 45.713C446.184 46.2991 446.514 47.0939 446.514 47.9228V47.9228Z" fill="white"/>
<path d="M477.981 95.3016C478.376 95.3016 478.696 94.9815 478.696 94.5866C478.696 94.1917 478.376 93.8715 477.981 93.8715C477.586 93.8715 477.266 94.1917 477.266 94.5866C477.266 94.9815 477.586 95.3016 477.981 95.3016Z" fill="white"/>
<path d="M365.304 160.53C365.304 161.153 365.119 161.763 364.773 162.281C364.426 162.799 363.934 163.203 363.358 163.442C362.782 163.68 362.148 163.743 361.537 163.621C360.926 163.499 360.364 163.199 359.923 162.758C359.482 162.318 359.182 161.756 359.061 161.145C358.939 160.533 359.001 159.9 359.24 159.324C359.478 158.748 359.882 158.256 360.401 157.91C360.919 157.563 361.529 157.379 362.152 157.379C362.567 157.375 362.978 157.454 363.362 157.611C363.746 157.768 364.095 158 364.389 158.294C364.682 158.587 364.914 158.936 365.071 159.32C365.228 159.704 365.308 160.115 365.304 160.53V160.53Z" fill="white"/>
<path d="M362.152 37.3031C363.893 37.3031 365.304 35.8921 365.304 34.1516C365.304 32.411 363.893 31 362.152 31C360.411 31 359 32.411 359 34.1516C359 35.8921 360.411 37.3031 362.152 37.3031Z" fill="white"/>
<path d="M558.052 149.592C558.959 149.592 559.694 148.857 559.694 147.95C559.694 147.044 558.959 146.308 558.052 146.308C557.145 146.308 556.41 147.044 556.41 147.95C556.41 148.857 557.145 149.592 558.052 149.592Z" fill="white"/>
<path d="M540.676 74.8034C540.676 75.2277 540.55 75.6424 540.315 75.9952C540.079 76.348 539.744 76.6229 539.352 76.7852C538.96 76.9476 538.528 76.9901 538.112 76.9073C537.696 76.8246 537.314 76.6203 537.014 76.3203C536.714 76.0203 536.509 75.638 536.426 75.2219C536.344 74.8058 536.386 74.3744 536.549 73.9825C536.711 73.5905 536.986 73.2555 537.339 73.0198C537.692 72.7841 538.106 72.6583 538.531 72.6583C539.098 72.6652 539.639 72.8934 540.04 73.2942C540.441 73.695 540.669 74.2367 540.676 74.8034V74.8034Z" fill="white"/>
<path d="M531.485 53.7756C531.485 54.2994 531.33 54.8114 531.039 55.2469C530.747 55.6825 530.334 56.0218 529.85 56.2223C529.366 56.4227 528.833 56.4752 528.319 56.373C527.806 56.2708 527.334 56.0186 526.963 55.6482C526.593 55.2778 526.341 54.8059 526.238 54.2922C526.136 53.7785 526.189 53.2461 526.389 52.7621C526.59 52.2782 526.929 51.8646 527.365 51.5736C527.8 51.2826 528.312 51.1273 528.836 51.1273C529.539 51.1273 530.212 51.4063 530.709 51.9029C531.206 52.3996 531.485 53.0732 531.485 53.7756Z" fill="white"/>
<path d="M546.53 52.425C546.53 52.6974 546.449 52.9636 546.298 53.1901C546.146 53.4166 545.931 53.593 545.68 53.6973C545.428 53.8015 545.151 53.8288 544.884 53.7757C544.617 53.7225 544.371 53.5914 544.179 53.3988C543.986 53.2062 543.855 52.9608 543.802 52.6936C543.748 52.4265 543.776 52.1496 543.88 51.898C543.984 51.6463 544.161 51.4312 544.387 51.2799C544.614 51.1286 544.88 51.0479 545.152 51.0479C545.334 51.0443 545.515 51.0774 545.684 51.1453C545.853 51.2133 546.006 51.3146 546.134 51.4432C546.263 51.5718 546.364 51.725 546.432 51.8937C546.5 52.0625 546.533 52.2431 546.53 52.425V52.425Z" fill="white"/>
<path d="M527.565 98.3736C528.414 98.3736 529.101 97.6858 529.101 96.8375C529.101 95.9892 528.414 95.3015 527.565 95.3015C526.717 95.3015 526.029 95.9892 526.029 96.8375C526.029 97.6858 526.717 98.3736 527.565 98.3736Z" fill="white"/>
<path d="M565.786 96.8376C566.21 96.8376 566.554 96.4938 566.554 96.0696C566.554 95.6454 566.21 95.3015 565.786 95.3015C565.362 95.3015 565.018 95.6454 565.018 96.0696C565.018 96.4938 565.362 96.8376 565.786 96.8376Z" fill="white"/>
<path d="M530.293 127.267C530.952 127.267 531.485 126.733 531.485 126.075C531.485 125.417 530.952 124.883 530.293 124.883C529.635 124.883 529.101 125.417 529.101 126.075C529.101 126.733 529.635 127.267 530.293 127.267Z" fill="white"/>
</g>
<defs>
<clipPath id="clip0">
<rect width="1366" height="768" fill="white"/>
</clipPath>
</defs>
</svg>
