<svg width="458" height="454" viewBox="0 0 458 454" fill="none" xmlns="http://www.w3.org/2000/svg">
<g style="mix-blend-mode:screen" opacity="0.85">
<circle cx="207.5" cy="167.5" r="147.5" fill="url(#paint0_radial)"/>
</g>
<path d="M154.53 433.572C155.254 433.572 155.841 432.985 155.841 432.26C155.841 431.536 155.254 430.948 154.53 430.948C153.805 430.948 153.218 431.536 153.218 432.26C153.218 432.985 153.805 433.572 154.53 433.572Z" fill="white"/>
<path d="M104.697 411.038C104.697 411.311 104.616 411.578 104.464 411.806C104.312 412.033 104.096 412.21 103.844 412.314C103.592 412.419 103.314 412.446 103.046 412.393C102.778 412.339 102.532 412.208 102.339 412.015C102.146 411.822 102.014 411.576 101.961 411.308C101.908 411.04 101.935 410.762 102.04 410.51C102.144 410.257 102.321 410.042 102.548 409.89C102.775 409.738 103.042 409.657 103.315 409.657C103.682 409.657 104.033 409.803 104.292 410.062C104.551 410.321 104.697 410.672 104.697 411.038Z" fill="white"/>
<path d="M130.361 395.433C130.365 395.652 130.304 395.868 130.186 396.053C130.067 396.238 129.896 396.383 129.695 396.47C129.494 396.557 129.271 396.582 129.055 396.542C128.839 396.502 128.64 396.399 128.483 396.245C128.326 396.092 128.219 395.895 128.174 395.68C128.13 395.465 128.15 395.242 128.233 395.039C128.316 394.835 128.458 394.662 128.64 394.539C128.822 394.417 129.036 394.351 129.256 394.351C129.4 394.348 129.543 394.374 129.677 394.427C129.811 394.48 129.933 394.559 130.036 394.66C130.139 394.761 130.22 394.881 130.276 395.014C130.332 395.146 130.361 395.289 130.361 395.433Z" fill="white"/>
<path d="M132.018 429.567C132.018 429.84 131.937 430.107 131.785 430.334C131.634 430.562 131.418 430.739 131.166 430.843C130.913 430.948 130.636 430.975 130.368 430.922C130.1 430.868 129.854 430.737 129.661 430.544C129.467 430.351 129.336 430.105 129.283 429.837C129.229 429.569 129.257 429.291 129.361 429.039C129.466 428.786 129.643 428.571 129.87 428.419C130.097 428.267 130.364 428.186 130.637 428.186C131.003 428.186 131.355 428.332 131.614 428.591C131.873 428.85 132.018 429.201 132.018 429.567Z" fill="white"/>
<path d="M124.377 413.801C124.377 414.167 124.231 414.518 123.972 414.777C123.713 415.036 123.362 415.182 122.996 415.182C122.63 415.182 122.278 415.036 122.019 414.777C121.76 414.518 121.615 414.167 121.615 413.801C121.615 413.434 121.76 413.083 122.019 412.824C122.278 412.565 122.63 412.42 122.996 412.42C123.362 412.42 123.713 412.565 123.972 412.824C124.231 413.083 124.377 413.434 124.377 413.801Z" fill="white"/>
<path d="M318.757 413.777C320.791 413.777 322.44 412.129 322.44 410.095C322.44 408.061 320.791 406.412 318.757 406.412C316.723 406.412 315.074 408.061 315.074 410.095C315.074 412.129 316.723 413.777 318.757 413.777Z" fill="white"/>
<path d="M281.561 427.243C281.561 427.698 281.426 428.143 281.173 428.521C280.92 428.9 280.561 429.195 280.14 429.369C279.72 429.543 279.257 429.589 278.81 429.5C278.364 429.411 277.954 429.192 277.632 428.87C277.31 428.548 277.091 428.138 277.002 427.692C276.913 427.245 276.959 426.782 277.133 426.362C277.307 425.941 277.602 425.582 277.981 425.329C278.359 425.076 278.804 424.941 279.259 424.941C279.87 424.941 280.455 425.183 280.887 425.615C281.319 426.047 281.561 426.632 281.561 427.243Z" fill="white"/>
<path d="M250.534 390.761C250.534 391.361 250.356 391.949 250.022 392.449C249.688 392.948 249.214 393.338 248.658 393.568C248.103 393.798 247.492 393.858 246.903 393.74C246.314 393.623 245.772 393.334 245.347 392.909C244.923 392.484 244.633 391.943 244.516 391.353C244.399 390.764 244.459 390.153 244.689 389.598C244.919 389.043 245.308 388.568 245.808 388.234C246.307 387.9 246.895 387.722 247.496 387.722C248.302 387.722 249.074 388.042 249.644 388.612C250.214 389.182 250.534 389.955 250.534 390.761Z" fill="white"/>
<path d="M223.235 453.16C224.036 453.16 224.685 452.511 224.685 451.71C224.685 450.909 224.036 450.26 223.235 450.26C222.434 450.26 221.785 450.909 221.785 451.71C221.785 452.511 222.434 453.16 223.235 453.16Z" fill="white"/>
<path d="M239.854 425.194C239.854 425.261 239.827 425.326 239.78 425.373C239.733 425.421 239.668 425.447 239.601 425.447C239.534 425.447 239.469 425.421 239.422 425.373C239.374 425.326 239.348 425.261 239.348 425.194C239.348 425.127 239.374 425.063 239.422 425.015C239.469 424.968 239.534 424.941 239.601 424.941C239.668 424.941 239.733 424.968 239.78 425.015C239.827 425.063 239.854 425.127 239.854 425.194Z" fill="white"/>
<path d="M245.194 416.609C245.588 416.609 245.908 416.289 245.908 415.895C245.908 415.501 245.588 415.182 245.194 415.182C244.8 415.182 244.481 415.501 244.481 415.895C244.481 416.289 244.8 416.609 245.194 416.609Z" fill="white"/>
<path d="M254.908 409.657C255.797 409.657 256.519 408.936 256.519 408.046C256.519 407.156 255.797 406.435 254.908 406.435C254.018 406.435 253.296 407.156 253.296 408.046C253.296 408.936 254.018 409.657 254.908 409.657Z" fill="white"/>
<path d="M188.526 307.07C190.445 307.07 192.001 305.514 192.001 303.594C192.001 301.675 190.445 300.119 188.526 300.119C186.606 300.119 185.05 301.675 185.05 303.594C185.05 305.514 186.606 307.07 188.526 307.07Z" fill="white"/>
<path d="M199.136 314.32C199.797 314.32 200.333 313.784 200.333 313.123C200.333 312.462 199.797 311.926 199.136 311.926C198.475 311.926 197.939 312.462 197.939 313.123C197.939 313.784 198.475 314.32 199.136 314.32Z" fill="white"/>
<path d="M214.604 305.343C214.604 305.689 214.707 306.028 214.899 306.315C215.091 306.603 215.364 306.827 215.684 306.96C216.004 307.092 216.356 307.127 216.695 307.059C217.034 306.992 217.346 306.825 217.591 306.58C217.835 306.336 218.002 306.024 218.069 305.685C218.137 305.345 218.102 304.994 217.97 304.674C217.837 304.354 217.613 304.081 217.325 303.889C217.038 303.697 216.7 303.594 216.354 303.594C215.89 303.594 215.445 303.778 215.117 304.106C214.789 304.435 214.604 304.879 214.604 305.343Z" fill="white"/>
<path d="M217.873 294.203C218.724 294.203 219.415 293.512 219.415 292.661C219.415 291.809 218.724 291.118 217.873 291.118C217.021 291.118 216.331 291.809 216.331 292.661C216.331 293.512 217.021 294.203 217.873 294.203Z" fill="white"/>
<path d="M226.803 246.857C227.985 246.857 228.944 245.898 228.944 244.716C228.944 243.534 227.985 242.576 226.803 242.576C225.621 242.576 224.662 243.534 224.662 244.716C224.662 245.898 225.621 246.857 226.803 246.857Z" fill="white"/>
<path d="M201.277 246.857C202.459 246.857 203.417 245.898 203.417 244.716C203.417 243.534 202.459 242.576 201.277 242.576C200.094 242.576 199.136 243.534 199.136 244.716C199.136 245.898 200.094 246.857 201.277 246.857Z" fill="white"/>
<path d="M155.841 273.05C155.855 273.704 155.674 274.347 155.321 274.897C154.967 275.447 154.458 275.88 153.858 276.14C153.258 276.399 152.594 276.474 151.951 276.355C151.308 276.236 150.715 275.928 150.248 275.471C149.781 275.013 149.46 274.427 149.328 273.787C149.195 273.147 149.256 272.481 149.503 271.876C149.75 271.27 150.172 270.752 150.714 270.387C151.257 270.023 151.896 269.828 152.55 269.828C153.411 269.827 154.238 270.165 154.853 270.767C155.469 271.369 155.823 272.189 155.841 273.05Z" fill="white"/>
<path d="M362.076 230.1C362.203 230.1 362.306 229.997 362.306 229.87C362.306 229.743 362.203 229.64 362.076 229.64C361.949 229.64 361.845 229.743 361.845 229.87C361.845 229.997 361.949 230.1 362.076 230.1Z" fill="white"/>
<path d="M332.752 232.655C332.756 233.258 332.581 233.848 332.249 234.351C331.917 234.855 331.443 235.248 330.887 235.48C330.33 235.713 329.718 235.775 329.126 235.659C328.535 235.542 327.991 235.253 327.565 234.826C327.139 234.4 326.849 233.856 326.732 233.265C326.616 232.673 326.678 232.061 326.911 231.505C327.144 230.948 327.537 230.474 328.04 230.142C328.543 229.81 329.133 229.635 329.736 229.64C330.534 229.646 331.298 229.965 331.862 230.529C332.426 231.094 332.745 231.857 332.752 232.655Z" fill="white"/>
<path d="M275.6 239.905C275.6 240.452 275.438 240.986 275.135 241.44C274.831 241.894 274.4 242.248 273.895 242.457C273.39 242.666 272.835 242.721 272.299 242.614C271.763 242.508 271.271 242.245 270.885 241.858C270.499 241.472 270.236 240.98 270.129 240.444C270.022 239.908 270.077 239.353 270.286 238.848C270.495 238.344 270.849 237.912 271.303 237.609C271.758 237.305 272.292 237.143 272.838 237.143C273.202 237.14 273.562 237.209 273.899 237.347C274.235 237.485 274.541 237.688 274.798 237.945C275.055 238.202 275.258 238.508 275.396 238.845C275.534 239.181 275.603 239.542 275.6 239.905Z" fill="white"/>
<path d="M369.81 232.655C370.649 232.655 371.329 231.975 371.329 231.136C371.329 230.297 370.649 229.616 369.81 229.616C368.971 229.616 368.29 230.297 368.29 231.136C368.29 231.975 368.971 232.655 369.81 232.655Z" fill="white"/>
<path d="M344.145 232.655C344.984 232.655 345.664 231.975 345.664 231.136C345.664 230.297 344.984 229.616 344.145 229.616C343.306 229.616 342.626 230.297 342.626 231.136C342.626 231.975 343.306 232.655 344.145 232.655Z" fill="white"/>
<path d="M335.191 334.368C336.526 334.368 337.608 333.286 337.608 331.951C337.608 330.617 336.526 329.535 335.191 329.535C333.856 329.535 332.774 330.617 332.774 331.951C332.774 333.286 333.856 334.368 335.191 334.368Z" fill="white"/>
<path d="M347.299 276.319C348.201 276.319 348.933 275.587 348.933 274.685C348.933 273.782 348.201 273.05 347.299 273.05C346.396 273.05 345.664 273.782 345.664 274.685C345.664 275.587 346.396 276.319 347.299 276.319Z" fill="white"/>
<path d="M174.071 189.382C175.672 189.382 176.971 188.084 176.971 186.482C176.971 184.88 175.672 183.582 174.071 183.582C172.469 183.582 171.17 184.88 171.17 186.482C171.17 188.084 172.469 189.382 174.071 189.382Z" fill="white"/>
<path d="M181.528 231.918C181.528 232.373 181.393 232.818 181.14 233.197C180.887 233.575 180.528 233.87 180.107 234.045C179.687 234.219 179.224 234.264 178.777 234.176C178.331 234.087 177.921 233.868 177.599 233.546C177.277 233.224 177.058 232.814 176.969 232.367C176.88 231.921 176.926 231.458 177.1 231.037C177.274 230.617 177.569 230.257 177.948 230.004C178.326 229.751 178.771 229.616 179.226 229.616C179.837 229.616 180.422 229.859 180.854 230.291C181.286 230.722 181.528 231.308 181.528 231.918Z" fill="white"/>
<path d="M204.407 222.412C204.407 222.547 204.354 222.676 204.259 222.77C204.164 222.865 204.035 222.919 203.901 222.919C203.835 222.919 203.771 222.906 203.71 222.88C203.65 222.854 203.596 222.817 203.551 222.769C203.506 222.722 203.47 222.666 203.448 222.604C203.425 222.543 203.414 222.478 203.418 222.412C203.418 222.284 203.468 222.161 203.559 222.071C203.65 221.98 203.773 221.929 203.901 221.929C203.966 221.926 204.032 221.936 204.093 221.959C204.154 221.982 204.21 222.017 204.258 222.062C204.305 222.107 204.343 222.162 204.368 222.222C204.394 222.282 204.407 222.347 204.407 222.412Z" fill="white"/>
<path d="M208.021 215.853C208.015 216.034 207.941 216.206 207.813 216.334C207.684 216.463 207.512 216.537 207.331 216.543C207.148 216.543 206.972 216.47 206.842 216.341C206.713 216.211 206.64 216.036 206.64 215.853C206.637 215.761 206.653 215.67 206.686 215.585C206.72 215.499 206.771 215.422 206.835 215.357C206.9 215.292 206.977 215.242 207.063 215.208C207.148 215.174 207.239 215.159 207.331 215.162C207.421 215.162 207.511 215.18 207.595 215.215C207.679 215.249 207.755 215.3 207.819 215.364C207.883 215.428 207.934 215.505 207.969 215.588C208.003 215.672 208.021 215.762 208.021 215.853Z" fill="white"/>
<path d="M92.5668 270.725C92.5668 270.982 92.465 271.228 92.2837 271.409C92.1024 271.59 91.8565 271.692 91.6001 271.692C91.4742 271.692 91.3496 271.667 91.2336 271.618C91.1176 271.569 91.0125 271.498 90.9245 271.408C90.8366 271.318 90.7676 271.211 90.7215 271.094C90.6755 270.977 90.6533 270.851 90.6564 270.725C90.6564 270.475 90.7558 270.235 90.9328 270.058C91.1098 269.881 91.3498 269.782 91.6001 269.782C91.726 269.779 91.8512 269.801 91.9683 269.847C92.0855 269.893 92.1923 269.962 92.2823 270.05C92.3724 270.138 92.444 270.243 92.4929 270.359C92.5417 270.475 92.5669 270.6 92.5668 270.725Z" fill="white"/>
<path d="M244.826 207.359C245.194 207.359 245.493 207.06 245.493 206.691C245.493 206.323 245.194 206.024 244.826 206.024C244.457 206.024 244.158 206.323 244.158 206.691C244.158 207.06 244.457 207.359 244.826 207.359Z" fill="white"/>
<path d="M79.6079 340.215C79.6125 340.876 79.4206 341.523 79.0567 342.075C78.6927 342.627 78.1731 343.058 77.5636 343.314C76.9542 343.57 76.2824 343.64 75.6335 343.514C74.9846 343.388 74.3878 343.071 73.9187 342.606C73.4496 342.14 73.1295 341.545 72.9988 340.897C72.8682 340.249 72.9329 339.577 73.1848 338.966C73.4367 338.355 73.8645 337.832 74.4138 337.464C74.9632 337.096 75.6093 336.9 76.2704 336.9C77.1516 336.9 77.997 337.248 78.6223 337.869C79.2475 338.49 79.6018 339.333 79.6079 340.215Z" fill="white"/>
<path d="M70.1705 21.7249C70.1705 22.2348 70.0193 22.7332 69.736 23.1571C69.4528 23.5811 69.0502 23.9115 68.5791 24.1066C68.1081 24.3017 67.5897 24.3528 67.0896 24.2533C66.5896 24.1538 66.1302 23.9083 65.7697 23.5478C65.4092 23.1873 65.1637 22.7279 65.0642 22.2278C64.9647 21.7278 65.0158 21.2094 65.2109 20.7384C65.406 20.2673 65.7364 19.8647 66.1604 19.5814C66.5843 19.2982 67.0827 19.147 67.5926 19.147C68.2763 19.147 68.932 19.4186 69.4154 19.902C69.8989 20.3855 70.1705 21.0412 70.1705 21.7249Z" fill="white"/>
<path d="M69.9639 57.7698C69.9639 58.266 69.8168 58.751 69.5411 59.1636C69.2654 59.5762 68.8736 59.8978 68.4152 60.0876C67.9567 60.2775 67.4523 60.3272 66.9656 60.2304C66.4789 60.1336 66.0319 59.8947 65.681 59.5438C65.3301 59.1929 65.0912 58.7459 64.9944 58.2592C64.8976 57.7725 64.9473 57.2681 65.1372 56.8096C65.327 56.3512 65.6486 55.9594 66.0612 55.6837C66.4738 55.408 66.9588 55.2609 67.455 55.2609C67.7845 55.2609 68.1108 55.3258 68.4152 55.4518C68.7195 55.5779 68.9961 55.7627 69.2291 55.9957C69.4621 56.2287 69.6469 56.5052 69.773 56.8096C69.899 57.114 69.9639 57.4403 69.9639 57.7698Z" fill="white"/>
<path d="M93.7865 41.2668C95.5153 41.2668 96.9168 39.8653 96.9168 38.1365C96.9168 36.4077 95.5153 35.0062 93.7865 35.0062C92.0576 35.0062 90.6561 36.4077 90.6561 38.1365C90.6561 39.8653 92.0576 41.2668 93.7865 41.2668Z" fill="white"/>
<path d="M96.9167 110.318C96.9122 110.936 96.7247 111.539 96.378 112.051C96.0313 112.563 95.5408 112.96 94.9685 113.194C94.3961 113.427 93.7674 113.486 93.1617 113.363C92.556 113.239 92.0004 112.939 91.5649 112.501C91.1294 112.062 90.8335 111.504 90.7146 110.897C90.5957 110.291 90.659 109.663 90.8966 109.092C91.1342 108.521 91.5354 108.034 92.0497 107.691C92.564 107.348 93.1682 107.165 93.7864 107.165C94.1994 107.165 94.6084 107.247 94.9897 107.405C95.371 107.564 95.7171 107.797 96.0081 108.09C96.299 108.383 96.5291 108.731 96.6851 109.113C96.841 109.496 96.9198 109.905 96.9167 110.318Z" fill="white"/>
<path d="M80.2294 134.21C80.2294 134.602 80.1133 134.985 79.8958 135.31C79.6782 135.636 79.3691 135.889 79.0074 136.039C78.6457 136.189 78.2477 136.228 77.8637 136.152C77.4797 136.076 77.127 135.887 76.8502 135.61C76.5733 135.333 76.3848 134.981 76.3084 134.597C76.232 134.213 76.2712 133.815 76.4211 133.453C76.5709 133.091 76.8246 132.782 77.1501 132.565C77.4757 132.347 77.8584 132.231 78.2499 132.231C78.7749 132.231 79.2784 132.44 79.6496 132.811C80.0208 133.182 80.2294 133.685 80.2294 134.21Z" fill="white"/>
<path d="M293.567 256.781C340.839 209.509 340.839 132.866 293.567 85.5936C246.295 38.3216 169.652 38.3216 122.38 85.5936C75.1076 132.866 75.1076 209.509 122.38 256.781C169.652 304.053 246.295 304.053 293.567 256.781Z" fill="#FCE288"/>
<g style="mix-blend-mode:multiply" opacity="0.4">
<path d="M135.333 145.995C176.487 139.78 215.755 121.32 249.038 96.6229C259.134 89.1786 268.687 81.0253 277.625 72.2246C270.726 67.3527 263.336 63.2176 255.575 59.8874C235.895 79.7513 209.011 93.0092 182.863 101.318C158.695 109.006 130.085 114.3 104.605 108.224C97.375 120.044 92.2434 133.025 89.4362 146.593C104.683 148.617 120.143 148.416 135.333 145.995Z" fill="#FCE288"/>
</g>
<g style="mix-blend-mode:multiply">
<path d="M158.834 207.681C203.487 195.045 242.271 170.853 279.099 143.233C291.499 134.119 303.294 124.209 314.407 113.564C311.073 107.432 307.223 101.595 302.899 96.1165C272.723 120.584 236.977 138.629 200.748 152.071C166.222 164.846 124.791 176.401 86.9509 170.347V171.176C86.9368 186.482 89.8348 201.652 95.4902 215.875C116.903 216.47 138.277 213.705 158.834 207.681Z" fill="#FCE288"/>
</g>
<g style="mix-blend-mode:multiply" opacity="0.4">
<path d="M122.604 256.938C142.976 255.334 163.075 251.237 182.449 244.739C223.88 231.435 262.204 210.558 300.044 189.498C309.85 184.02 319.609 178.265 329.046 172.074C329.046 171.797 329.046 171.544 329.046 171.268C329.046 167.723 328.908 164.225 328.609 160.749C298.163 186.217 263.393 206.011 225.952 219.19C188.134 232.862 146.565 240.849 106.262 236.66C110.97 243.983 116.449 250.781 122.604 256.938Z" fill="#FCE288"/>
</g>
<g style="mix-blend-mode:multiply">
<path d="M177.339 287.988C201.714 285.825 224.501 275.973 245.884 264.58C265.081 254.314 284.438 243.312 302.599 231.297C308.307 227.522 313.762 223.448 319.079 219.167C321.461 213.682 323.43 208.027 324.972 202.249C300.325 220.871 273.749 236.791 245.7 249.734C216.1 263.544 184.244 274.546 151.606 278.275C159.581 282.519 168.003 285.862 176.718 288.242C176.914 288.132 177.122 288.047 177.339 287.988Z" fill="#FCE288"/>
</g>
<g style="mix-blend-mode:multiply">
<path d="M192.669 73.5826C201.325 67.2423 208.732 59.3522 214.512 50.3122C212.349 50.3122 210.162 50.1281 207.975 50.1281C190.86 50.1139 173.938 53.739 158.331 60.7629C142.723 67.7868 128.788 78.0489 117.449 90.8686C142.699 98.05 171.585 88.6359 192.669 73.5826Z" fill="#FCE288"/>
</g>
<g style="mix-blend-mode:multiply">
<g style="mix-blend-mode:multiply">
<path d="M281.93 75.3779C286.29 83.7091 289.348 92.6593 290.998 101.917C296.604 132.624 293.494 164.288 282.022 193.318C274.817 211.018 266.899 226.394 254.217 240.895C244.275 251.902 232.894 261.518 220.381 269.482C207.333 277.927 193.075 284.337 178.099 288.494C205.081 295.359 233.604 292.713 258.863 281.002C284.121 269.29 304.57 249.23 316.765 224.201C328.959 199.172 332.152 170.705 325.807 143.596C319.462 116.487 303.965 92.3946 281.93 75.3779Z" fill="#FCE288"/>
</g>
<g style="mix-blend-mode:multiply">
<path d="M293.668 131.839C300.827 126.039 307.801 119.962 314.384 113.425C311.05 107.294 307.199 101.457 302.875 95.9783C299.169 99.0166 295.349 101.94 291.482 104.771C292.917 113.723 293.648 122.773 293.668 131.839Z" fill="#FCE288"/>
</g>
<g style="mix-blend-mode:multiply" opacity="0.4">
<path d="M328.585 160.657C314.085 172.966 298.465 183.893 281.93 193.295C280.848 195.965 279.628 198.589 278.592 201.167C285.727 197.285 292.832 193.357 299.906 189.382C309.711 183.904 319.471 178.15 328.908 171.958C328.908 171.682 328.908 171.429 328.908 171.153C329.023 167.631 328.885 164.132 328.585 160.657Z" fill="#FCE288"/>
</g>
<g style="mix-blend-mode:multiply">
<path d="M245.7 249.733C237.858 257.041 229.385 263.642 220.381 269.459C208.255 277.302 195.082 283.393 181.252 287.551C204.269 284.72 225.606 275.329 245.838 264.534C265.035 254.268 284.392 243.266 302.553 231.251C308.261 227.476 313.716 223.402 319.033 219.121C321.415 213.635 323.384 207.981 324.926 202.203C300.296 220.838 273.735 236.773 245.7 249.733Z" fill="#FCE288"/>
</g>
</g>
<g style="mix-blend-mode:soft-light">
<path d="M158.902 77.9329C146.289 80.2346 135.885 97.4515 130.108 107.717C122.489 121.044 115.077 135.338 111.878 150.414C106.032 178.035 113.996 206.599 129.67 229.524C129.801 229.691 129.987 229.804 130.195 229.844C130.402 229.883 130.617 229.846 130.8 229.739C130.982 229.633 131.12 229.464 131.187 229.263C131.255 229.063 131.247 228.845 131.166 228.65C120.026 205.402 115.054 178.564 123.801 153.683C128.036 141.483 135.448 129.998 143.02 119.594C146.439 114.836 150.291 110.405 154.529 106.359C158.971 102.124 165.278 99.8223 169.007 95.1268C175.36 86.9787 169.444 76.0685 158.902 77.9329Z" fill="#F6F6F6"/>
</g>
<path d="M101.589 226.786L104.467 232.54C93.3547 242.952 84.3316 255.389 77.8817 269.183C67.1096 292.201 62.0919 325.207 113.098 301.408C164.104 277.608 234.491 232.356 276.866 193.664C319.24 154.972 379.638 99.5693 371.236 66.1713C362.835 32.7733 289.686 81.6159 289.686 81.6159L279.674 72.8463C279.674 72.8463 333.511 31.9217 392.758 26.2364C452.004 20.5512 471.407 35.6275 448.413 76.5751C425.419 117.523 373.722 187.91 284.646 256.11C195.569 324.31 101.589 374.05 56.3606 381.231C11.1317 388.413 -13.3126 376.214 7.51803 330.225C28.3486 284.237 82.9225 235.417 101.589 226.786Z" fill="#EB9426"/>
<g style="mix-blend-mode:multiply">
<path d="M245.884 263.268C218.779 284.066 190.235 302.918 160.467 319.683C130.959 336.647 100.484 355.981 67.1553 364.337C51.4576 368.249 27.7268 369.561 24.2282 348.616C21.8344 334.046 29.5452 317.128 35.6447 304.354C49.1328 276.111 69.7102 255.856 94.3617 237.281C94.4998 237.281 94.3617 236.982 94.2466 237.051C72.5874 248.56 53.8053 267.986 40.2252 288.103C29.0848 304.653 11.983 331.974 20.3383 352.69C29.1999 374.855 58.3858 368.088 75.7868 362.633C104.904 353.426 131.512 337.199 158.073 322.514C188.963 305.481 220.059 287.206 246.989 264.304C247.795 263.728 246.667 262.669 245.884 263.268Z" fill="#EFA951"/>
</g>
<g style="mix-blend-mode:multiply">
<path d="M439.459 40.0467C430.413 31.3231 412.46 31.162 400.836 31.8295C367.83 33.7169 333.419 47.5963 303.911 61.7519C303.911 61.7519 303.911 61.913 303.911 61.89C332.337 50.7267 361.845 38.3204 392.412 34.8218C405.578 33.3256 438.654 32.2668 439.436 50.7497C439.989 63.4092 426.846 78.6236 420.102 88.6821C387.99 136.64 350.274 180.599 307.755 219.627C306.581 220.709 308.33 222.458 309.504 221.376C334.427 198.257 357.816 173.538 379.522 147.376C400.238 122.218 423.255 96.1166 439.206 67.5292C443.901 59.1049 447.377 47.6884 439.459 40.0467Z" fill="#EFA951"/>
</g>
<g style="mix-blend-mode:multiply">
<path d="M313.187 184.066C291.412 201.075 271.456 220.548 249.935 237.926C227.75 255.965 204.624 272.814 180.653 288.403C158.101 303.224 134.42 316.254 109.829 327.371C96.3183 333.356 79.3777 338.88 65.8435 329.903C47.844 318.21 55.5318 294.779 61.9306 278.851C56.6366 290.889 50.8363 304.17 55.0254 317.497C58.2939 327.877 67.2015 334.069 77.6744 335.726C90.3108 337.752 102.556 332.826 113.904 327.808C128.819 321.202 143.366 313.722 157.636 305.758C186.522 289.316 214.211 270.856 240.498 250.516C266.393 230.768 293.438 210.351 316.271 187.035C318.204 185.078 315.304 182.362 313.187 184.066Z" fill="#EFA951"/>
</g>
<g style="mix-blend-mode:multiply">
<path d="M371.697 45.7551C371.66 45.7551 371.625 45.7697 371.599 45.7956C371.573 45.8215 371.559 45.8566 371.559 45.8932C371.559 45.9299 371.573 45.965 371.599 45.9909C371.625 46.0168 371.66 46.0313 371.697 46.0313C386.221 45.1337 400.376 52.4071 400.031 68.7954C399.755 81.8462 391.307 93.585 383.366 103.321C368.428 121.597 351.142 137.847 335.997 155.939C335.099 156.997 336.549 158.517 337.562 157.504C350.291 144.683 362.214 131.057 374.39 117.661C383.597 107.395 393.724 96.5542 399.064 83.5725C407.926 61.7291 395.174 44.259 371.697 45.7551Z" fill="#EFA951"/>
</g>
<g style="mix-blend-mode:multiply">
<path d="M413.243 54.4555C413.243 54.2713 412.898 54.4555 412.99 54.6166C415.346 59.7097 416.298 65.3399 415.747 70.9245C415.197 76.5091 413.164 81.8451 409.859 86.3804C409.422 87.0018 410.458 87.8305 410.941 87.209C414.647 82.6492 416.856 77.0574 417.268 71.196C417.68 65.3346 416.275 59.4888 413.243 54.4555Z" fill="#EFA951"/>
</g>
<g style="mix-blend-mode:multiply">
<path d="M79.4929 346.521C69.0891 351.999 49.7086 357.892 43.3789 343.851C39.3739 334.99 42.8725 324.448 43.3789 315.149C43.3789 314.988 43.1027 314.988 43.1027 315.149C42.3431 326.197 35.6451 341.826 46.0258 350.618C55.2327 358.444 71.3448 353.38 80.3906 348.087C81.4264 347.511 80.5287 345.969 79.4929 346.521Z" fill="#EFA951"/>
</g>
<g style="mix-blend-mode:multiply">
<path d="M342.096 140.149C323.683 160.703 300.919 176.976 282.781 197.83C282.643 197.991 282.781 198.244 283.011 198.083C302.599 178.588 324.557 161.693 342.856 140.839C343.201 140.379 342.511 139.689 342.096 140.149Z" fill="#EFA951"/>
</g>
<g style="mix-blend-mode:multiply">
<path d="M362.49 147.33C338.441 176.988 311.218 203.926 281.308 227.66C281.147 227.66 281.308 228.029 281.492 227.914C312.495 205.457 340.16 178.721 363.664 148.504C364.262 147.676 363.134 146.502 362.49 147.33Z" fill="#EFA951"/>
</g>
<g style="mix-blend-mode:multiply">
<path d="M241.88 227.706C217.397 250.232 190.743 270.278 162.309 287.551C148.729 295.668 134.781 303.141 120.464 309.97C103.086 318.256 82.0021 328.522 64.7622 314.09L64.6011 314.251C74.1762 324.77 88.7922 324.471 101.429 320.373C118.876 314.734 135.724 305.228 151.675 296.343C184.964 277.904 216.091 255.809 244.481 230.468C246.322 228.742 243.652 226.095 241.88 227.706Z" fill="#EFA951"/>
</g>
<g style="mix-blend-mode:multiply" opacity="0.61">
<g style="mix-blend-mode:multiply" opacity="0.61">
<path d="M77.8815 269.183C84.3314 255.389 93.3545 242.952 104.466 232.54L101.589 226.785C99.4876 227.828 97.4508 228.996 95.4897 230.284C86.2828 236.959 79.884 246.511 72.1502 254.728C60.9178 266.628 50.514 278.459 42.7572 293.052C37.6704 302.581 33.1821 315.931 36.7037 326.749C40.4325 338.258 54.45 339.731 64.7617 339.202C91.4847 337.82 116.228 317.957 137.726 303.755C161.779 287.896 186.477 273.05 210.185 256.639C257.163 224.092 302.645 188.185 342.119 146.731C360.786 127.121 382.929 104.679 391.86 78.5313C396.739 64.2836 398.143 44.9492 380.742 40.0235C365.574 35.7423 348.656 38.4813 332.406 43.0617C313.905 51.1393 296.32 61.1704 279.95 72.9842L289.962 81.7537C289.962 81.7537 363.226 32.8881 371.512 66.3092C379.799 99.7302 319.401 155.018 277.142 193.802C234.882 232.586 164.357 277.838 113.374 301.545C62.3909 325.253 67.1095 292.154 77.8815 269.183Z" fill="#EB9426"/>
</g>
<g style="mix-blend-mode:multiply" opacity="0.61">
<path d="M59.3529 268.861C69.9521 257.174 81.6959 246.579 94.4082 237.235C94.5463 237.235 94.4082 236.936 94.2931 237.005C89.0947 239.795 84.1095 242.964 79.3779 246.488C77.0762 249.273 74.6364 252.081 72.1505 254.728C67.6621 259.401 63.3809 264.05 59.3529 268.861Z" fill="#EFA951"/>
</g>
<g style="mix-blend-mode:multiply" opacity="0.61">
<path d="M303.911 61.7749C303.911 61.7749 303.911 61.936 303.911 61.913C325.984 53.2125 348.748 43.7754 372.157 38.3664C369.864 38.0969 367.56 37.9432 365.252 37.906C344.123 43.9856 323.592 51.9749 303.911 61.7749Z" fill="#EFA951"/>
</g>
<g style="mix-blend-mode:multiply" opacity="0.61">
<path d="M65.8436 329.903C47.8442 318.21 55.5319 294.778 61.9307 278.85C56.6368 290.888 50.8364 304.169 55.0255 317.496C58.294 327.877 67.2017 334.069 77.6745 335.726C78.894 335.923 80.1235 336.054 81.3573 336.117C82.9915 335.611 84.6257 335.035 86.2369 334.437C79.1189 335.338 71.9092 333.735 65.8436 329.903Z" fill="#EFA951"/>
</g>
<g style="mix-blend-mode:multiply" opacity="0.61">
<path d="M371.697 45.7549C371.66 45.7549 371.625 45.7694 371.599 45.7953C371.573 45.8212 371.559 45.8563 371.559 45.893C371.559 45.9296 371.573 45.9647 371.599 45.9906C371.625 46.0165 371.66 46.0311 371.697 46.0311C380.19 45.5017 388.568 47.8034 393.977 53.0743C393.839 52.614 393.701 52.1537 393.54 51.6933C387.285 46.9957 379.469 44.8708 371.697 45.7549Z" fill="#EFA951"/>
</g>
<g style="mix-blend-mode:multiply" opacity="0.61">
<path d="M43.1256 315.149C42.7573 320.443 41.0311 326.818 40.4786 332.964C40.8009 333.286 41.1461 333.585 41.4914 333.885C41.4914 327.647 43.0566 321.133 43.4018 315.149C43.4018 314.987 43.1256 314.987 43.1256 315.149Z" fill="#EFA951"/>
</g>
<g style="mix-blend-mode:multiply" opacity="0.61">
<path d="M342.096 140.149C323.683 160.703 300.919 176.976 282.781 197.83C282.643 197.991 282.781 198.244 283.011 198.083C302.599 178.587 324.557 161.693 342.856 140.839C343.201 140.379 342.511 139.688 342.096 140.149Z" fill="#EFA951"/>
</g>
<g style="mix-blend-mode:multiply" opacity="0.61">
<path d="M64.7616 313.975L64.6005 314.136C74.1756 324.655 88.7916 324.355 101.428 320.258C113.331 316.181 124.847 311.051 135.839 304.929L137.588 303.755C161.641 287.896 186.339 273.05 210.046 256.639C217.719 251.345 225.291 245.974 232.764 240.527C236.723 237.189 240.636 233.829 244.48 230.376C246.276 228.765 243.606 226.095 241.833 227.729C217.35 250.255 190.697 270.301 162.263 287.574C148.682 295.691 134.734 303.164 120.417 309.993C103.085 318.164 82.0015 328.406 64.7616 313.975Z" fill="#EFA951"/>
</g>
</g>
<defs>
<radialGradient id="paint0_radial" cx="0" cy="0" r="1" gradientUnits="userSpaceOnUse" gradientTransform="translate(207.5 162.583) rotate(-169.939) scale(154.797)">
<stop stop-color="white"/>
<stop offset="1" stop-color="white" stop-opacity="0"/>
</radialGradient>
</defs>
</svg>
