<svg width="129" height="183" viewBox="0 0 129 183" fill="none" xmlns="http://www.w3.org/2000/svg">
<path opacity="0.7" d="M47.3986 66.6123C65.5462 66.6123 80.2577 51.9003 80.2577 33.7522C80.2577 15.6041 65.5462 0.89209 47.3986 0.89209C29.2511 0.89209 14.5396 15.6041 14.5396 33.7522C14.5396 51.9003 29.2511 66.6123 47.3986 66.6123Z" fill="#CFF4FF"/>
<path opacity="0.7" d="M71.8324 24.3508C72.1206 26.4794 71.7659 29.1624 69.7926 29.9828C68.3735 30.5814 66.6885 29.894 65.5799 28.8076C64.4935 27.7211 63.8061 26.2799 63.0079 24.9717C58.5734 17.8543 48.862 14.3508 41.1017 17.5215C39.328 18.2532 37.665 19.2732 35.8248 19.7831C33.9845 20.2931 31.7895 20.1824 30.3927 18.852C28.8628 17.3886 28.8184 14.8384 29.794 12.9538C30.7696 11.0691 32.5655 9.76107 34.4058 8.69678C41.1462 4.83873 49.106 3.26442 56.2898 6.43512C64.0279 9.84971 70.6351 15.4596 71.8324 24.3508Z" fill="#CFF4FF"/>
<path opacity="0.7" d="M121.591 111.785C125.399 100.715 119.513 88.6542 108.443 84.846C97.3732 81.0378 85.3122 86.9245 81.5041 97.9945C77.696 109.064 83.5828 121.126 94.6524 124.934C105.722 128.742 117.783 122.855 121.591 111.785Z" fill="#CFF4FF"/>
<path opacity="0.7" d="M118.483 105.813C118.083 107.144 117.197 108.629 115.8 108.607C114.802 108.585 113.982 107.742 113.627 106.811C113.272 105.88 113.25 104.86 113.117 103.884C112.363 98.5182 107.552 93.9287 102.142 93.7514C100.9 93.707 99.6583 93.8844 98.4389 93.707C97.2194 93.5296 95.9557 92.8863 95.4901 91.7333C94.9801 90.4694 95.6009 88.9619 96.6873 88.0971C97.7516 87.2546 99.1484 86.944 100.523 86.8109C105.512 86.3009 110.611 87.4539 114.026 91.2011C117.684 95.2145 120.101 100.248 118.483 105.813Z" fill="#CFF4FF"/>
<path opacity="0.7" d="M23.1605 178.885C31.2862 176.614 36.0328 168.186 33.7624 160.06C31.492 151.934 23.0643 147.187 14.9385 149.458C6.81282 151.728 2.06605 160.156 4.33647 168.282C6.60688 176.408 15.0347 181.155 23.1605 178.885Z" fill="#CFF4FF"/>
<path opacity="0.7" d="M31.0799 164.948C30.7917 165.901 30.1486 166.966 29.1508 166.966C28.4413 166.944 27.8428 166.345 27.5989 165.68C27.3328 165.014 27.3327 164.283 27.2218 163.573C26.6897 159.715 23.2087 156.389 19.3285 156.279C18.4417 156.256 17.5327 156.367 16.668 156.234C15.7811 156.101 14.872 155.636 14.5394 154.815C14.1625 153.906 14.6281 152.819 15.4042 152.199C16.1802 151.578 17.1779 151.356 18.1535 151.267C21.7454 150.913 25.426 151.733 27.8871 154.438C30.4813 157.32 32.2329 160.935 31.0799 164.948Z" fill="#CFF4FF"/>
</svg>
