<svg width="116" height="165" viewBox="0 0 116 165" fill="none" xmlns="http://www.w3.org/2000/svg">
<path opacity="0.7" d="M73.2238 59.5327C89.5468 59.5327 102.779 46.3004 102.779 29.9771C102.779 13.6537 89.5468 0.420898 73.2238 0.420898C56.9008 0.420898 43.6685 13.6537 43.6685 29.9771C43.6685 46.3004 56.9008 59.5327 73.2238 59.5327Z" fill="#CFF4FF"/>
<path opacity="0.7" d="M51.2512 21.5073C50.9851 23.4363 51.2955 25.831 53.0915 26.5848C54.3775 27.117 55.8851 26.4962 56.8829 25.5206C57.8584 24.545 58.4792 23.2589 59.2109 22.0838C63.2019 15.6759 71.9377 12.5274 78.9219 15.3876C80.5183 16.0306 82.0038 16.9617 83.6667 17.4273C85.3296 17.893 87.303 17.7824 88.5446 16.585C89.9193 15.2769 89.9636 12.9706 89.0989 11.2855C88.2342 9.60041 86.6156 8.40316 84.9527 7.47192C78.8776 4.01301 71.716 2.57198 65.2639 5.43223C58.2797 8.46985 52.3376 13.5252 51.2512 21.5073Z" fill="#CFF4FF"/>
<path opacity="0.7" d="M30.581 112.012C40.539 108.586 45.8345 97.7359 42.4088 87.7775C38.983 77.8192 28.1333 72.5233 18.1752 75.9491C8.21715 79.3749 2.92169 90.2251 6.34741 100.183C9.77312 110.142 20.6229 115.438 30.581 112.012Z" fill="#CFF4FF"/>
<path opacity="0.7" d="M9.27928 94.7879C9.63403 95.9852 10.4322 97.3154 11.696 97.2932C12.5829 97.271 13.3146 96.5172 13.6472 95.6746C13.9798 94.832 13.9798 93.923 14.1128 93.0361C14.778 88.2245 19.1237 84.0778 23.9794 83.9226C25.088 83.8783 26.2188 84.0334 27.3052 83.8782C28.4139 83.723 29.5446 83.1469 29.9659 82.1048C30.4315 80.9739 29.855 79.5987 28.9016 78.8448C27.9482 78.0688 26.6844 77.8032 25.4649 77.6701C20.9861 77.2267 16.3744 78.2462 13.3146 81.6387C10.011 85.2751 7.81591 89.7989 9.27928 94.7879Z" fill="#CFF4FF"/>
<path opacity="0.7" d="M111.983 151.313C114.026 144.001 109.754 136.417 102.443 134.374C95.1306 132.331 87.547 136.602 85.5039 143.915C83.4609 151.227 87.7321 158.811 95.044 160.854C102.356 162.897 109.94 158.625 111.983 151.313Z" fill="#CFF4FF"/>
<path opacity="0.7" d="M87.9234 147.98C88.1673 148.845 88.7659 149.798 89.6528 149.776C90.2958 149.754 90.8279 149.222 91.0496 148.601C91.2935 148.003 91.2935 147.337 91.3822 146.694C91.87 143.213 94.9741 140.242 98.4773 140.131C99.2755 140.109 100.096 140.22 100.872 140.087C101.67 139.976 102.49 139.555 102.779 138.801C103.111 137.98 102.712 137.005 102.003 136.451C101.315 135.897 100.406 135.697 99.5194 135.608C96.2823 135.275 92.9786 136.029 90.7614 138.468C88.4333 141.129 86.8591 144.388 87.9234 147.98Z" fill="#CFF4FF"/>
</svg>
