<svg width="1272" height="718" viewBox="0 0 1272 718" fill="none" xmlns="http://www.w3.org/2000/svg">
<g opacity="0.6">
<path opacity="0.6" d="M296.072 327.412C297.557 320.449 299.309 313.309 301.327 306.015C305.916 296.103 310.173 284.707 301.637 282.29C293.322 279.94 296.094 300.205 297.602 308.742C296.515 312.777 295.54 316.746 294.608 320.693C293.722 312.378 292.192 302.622 286.56 299.651C280.884 296.658 290.529 316.636 293.965 323.487C292.835 328.542 291.837 333.509 290.972 338.365C290.108 329.939 288.622 319.784 282.857 316.746C277.048 313.687 287.292 334.684 290.507 341.048C290.218 342.688 289.952 344.329 289.708 345.948C289.487 346.147 289.354 346.258 289.354 346.258C289.465 346.258 289.553 346.236 289.664 346.236C289.043 350.227 288.489 354.152 288.023 358.032C287.159 349.429 285.784 338.609 279.82 335.46C273.811 332.289 284.941 354.772 287.757 360.338C287.558 362.045 287.38 363.752 287.225 365.438C287.092 365.571 287.003 365.637 287.003 365.637C287.07 365.615 287.136 365.571 287.225 365.549C286.848 369.384 286.538 373.153 286.294 376.834C285.429 368.231 284.055 357.411 278.09 354.262C271.993 351.047 283.567 374.307 286.139 379.384C285.917 383.265 285.762 387.056 285.673 390.759C283.168 382.2 277.314 364.285 273.878 369.983C269.687 376.945 278.977 386.657 285.629 393.686C285.562 399.051 285.607 404.195 285.784 409.14C283.766 401.291 280.862 392.555 275.119 390.493C269.022 388.298 281.704 407.122 285.961 413.242C285.961 413.442 285.984 413.641 285.984 413.841C285.673 414.129 285.474 414.306 285.474 414.306C285.651 414.24 285.828 414.173 286.006 414.107C286.161 417.233 286.36 420.249 286.604 423.176C284.675 417.61 282.015 412.687 277.913 411.224C272.348 409.229 282.436 424.728 287.469 432.111C288.001 436.945 288.622 441.423 289.265 445.57C287.292 439.228 284.52 433.286 279.93 431.646C273.789 429.451 286.715 448.563 290.861 454.528C293.877 470.004 297.092 478.718 297.203 478.962L299.908 477.942C299.797 477.654 295.606 466.279 292.347 446.412C301.57 443.552 314.098 439.65 313.876 431.646C313.677 424.506 297.735 439.627 292.147 445.148C291.438 440.692 290.773 435.814 290.218 430.537C298.466 427.322 309.907 422.976 311.437 415.881C312.812 409.473 295.473 424.883 290.13 429.761C289.598 424.528 289.154 418.94 288.888 412.998C296.937 409.849 306.936 405.614 308.355 399.029C309.619 393.22 295.407 405.393 288.799 411.313C288.578 406.058 288.489 400.537 288.555 394.772C297.823 391.867 311.238 388.009 310.994 379.717C310.772 372.245 293.367 389.14 288.578 393.93C288.622 390.138 288.755 386.258 288.932 382.267C298.09 379.407 310.107 375.526 309.863 367.677C309.663 360.892 295.251 374.24 289.021 380.315C289.309 375.149 289.731 369.828 290.285 364.329C298.333 361.18 308.466 356.945 309.885 350.316C311.127 344.551 297.158 356.502 290.484 362.466C291.061 357.1 291.793 351.58 292.702 345.948C304.32 344.994 319.641 343.598 317.157 333.975C315.095 325.97 300.262 337.123 293.167 342.999C293.943 338.409 294.808 333.753 295.806 329.008C303.965 325.837 314.63 321.536 316.115 314.707C317.291 308.809 302.48 321.625 296.072 327.412Z" fill="#31697A"/>
<path opacity="0.6" d="M349.573 395.97C353.076 392.533 356.801 389.097 360.77 385.66C367.289 381.669 374.162 376.702 369.75 372.245C365.448 367.922 359.661 380.449 357.444 385.859C355.271 387.766 353.187 389.673 351.169 391.602C353.697 386.547 356.358 380.427 353.963 376.724C351.546 372.977 350.127 387.832 349.728 392.976C347.156 395.437 344.695 397.921 342.345 400.382C344.939 395.26 347.777 388.963 345.316 385.149C342.833 381.313 341.414 396.968 341.059 401.757C340.283 402.6 339.507 403.42 338.731 404.262C338.509 404.307 338.398 404.307 338.398 404.307C338.465 404.329 338.531 404.373 338.598 404.396C336.735 406.458 334.939 408.498 333.21 410.515C335.871 405.305 339.019 398.653 336.469 394.706C333.92 390.737 332.478 407.544 332.168 411.735C331.414 412.644 330.66 413.553 329.951 414.44C329.818 414.462 329.729 414.484 329.729 414.484C329.773 414.484 329.84 414.506 329.884 414.506C328.221 416.569 326.647 418.586 325.117 420.604C327.778 415.393 330.926 408.741 328.399 404.795C325.805 400.759 324.363 418.187 324.097 422.001C322.523 424.129 321.015 426.236 319.596 428.32C321.215 422.555 324.208 410.227 319.973 412.245C314.785 414.706 316.958 423.575 318.488 429.983C316.448 433.021 314.585 435.97 312.856 438.83C314.497 433.619 315.938 427.61 313.144 424.373C310.173 420.936 311.06 436.213 311.437 441.224C311.371 441.335 311.304 441.468 311.238 441.579C310.927 441.624 310.75 441.668 310.75 441.668C310.883 441.69 311.016 441.712 311.149 441.734C310.085 443.574 309.087 445.371 308.156 447.122C309.02 443.264 309.198 439.495 307.18 437.189C304.453 434.041 304.985 446.501 305.362 452.51C303.899 455.459 302.613 458.231 301.482 460.825C302.613 456.501 303.078 452.111 300.839 449.539C297.846 446.08 298.777 461.623 299.132 466.501C295.274 476.39 294.032 482.532 294.01 482.709L296.072 483.086C296.116 482.887 297.713 474.905 303.056 462.399C309.841 464.084 319.064 466.368 321.88 461.712C324.386 457.565 308.887 460.47 303.389 461.601C304.608 458.807 306.005 455.792 307.601 452.577C313.92 453.708 322.634 455.348 326.204 451.845C329.441 448.696 312.967 451.246 307.845 452.089C309.442 448.918 311.26 445.57 313.277 442.089C319.441 443.198 327.224 444.373 330.549 441.114C333.476 438.253 320.151 440.094 313.854 441.091C315.672 438.009 317.645 434.839 319.84 431.579C326.669 433.264 336.425 435.881 339.352 431.069C341.99 426.746 324.918 430.094 320.173 431.114C321.614 428.985 323.122 426.812 324.718 424.595C331.458 426.258 340.349 428.364 343.121 423.797C345.516 419.85 331.614 422.289 325.494 423.508C327.578 420.67 329.818 417.788 332.212 414.861C338.376 415.97 346.225 417.189 349.573 413.908C352.478 411.07 339.374 412.866 333.033 413.863C335.383 411.025 337.888 408.143 340.527 405.238C348.088 408.874 358.109 413.575 360.149 407.212C361.834 401.912 348.487 402.932 341.924 403.73C344.097 401.402 346.38 399.052 348.753 396.702C355.005 397.833 363.209 399.207 366.646 395.859C369.639 393.021 355.693 394.994 349.573 395.97Z" fill="#31697A"/>
</g>
<path d="M260.441 320.294C262.193 316.17 260.308 311.425 256.162 309.652C252.038 307.9 247.271 309.807 245.519 313.931C243.28 319.186 238.202 328.476 229.4 331.669C225.121 333.221 219.312 332.556 215.742 329.784C224.234 321.868 230.243 312.09 234.766 301.58C244.433 304.219 258.933 305.971 268.223 295.173C272.724 289.94 274.055 283.709 275.208 278.21C276.072 274.197 276.871 270.383 278.733 268.388C281.793 265.106 281.593 259.985 278.312 256.925C275.008 253.865 269.886 254.064 266.849 257.346C261.927 262.645 260.53 269.142 259.332 274.862C258.49 278.809 257.714 282.534 255.918 284.618C252.947 288.055 246.672 287.767 240.309 286.215C242.238 279.829 243.834 273.399 245.297 267.146C246.029 264.02 246.694 260.871 247.404 257.723C253.834 258.831 261.173 259.075 268.09 256.06C287.003 247.834 288.555 222.734 289.154 213.267C289.442 208.788 286.028 204.929 281.571 204.663C277.092 204.375 273.257 207.79 272.968 212.246C272.303 222.823 270.418 237.346 261.616 241.16C258.556 242.49 254.898 242.468 250.796 241.803C253.568 228.388 256.14 214.885 258.446 201.337C260.086 201.271 261.816 201.293 263.612 201.315C269.554 201.382 276.294 201.448 282.835 198.588C289.309 195.772 294.608 190.451 298.089 183.511C306.603 185.595 316.026 182.912 322.035 176.371C328.886 168.899 330.372 157.413 325.627 148.455C323.521 144.509 318.621 142.979 314.652 145.086C310.683 147.192 309.175 152.092 311.282 156.061C312.789 158.921 312.279 163.023 310.084 165.396C308.266 167.369 305.184 168.3 302.479 167.835C303.144 161.604 302.856 155.462 302.59 149.852C302.368 145.374 298.577 141.915 294.098 142.136C289.619 142.358 286.161 146.15 286.382 150.629C286.715 157.657 287.092 164.952 285.429 171.316C283.877 177.28 280.485 181.892 276.361 183.71C272.99 185.174 268.711 185.129 263.789 185.085C262.902 185.085 261.993 185.063 261.084 185.063C263.7 168.123 265.94 151.161 267.758 134.221C268.246 129.764 265.008 125.751 260.574 125.285C256.117 124.797 252.104 128.034 251.639 132.469C249 156.792 245.519 181.183 241.262 205.417C232.837 205.905 225.099 196.881 223.303 188.1C220.975 176.748 224.81 164.065 228.203 152.89C229.489 148.611 227.072 144.066 222.793 142.779C218.491 141.493 213.968 143.91 212.682 148.19C208.935 160.584 204.279 175.994 207.428 191.36C209.423 201.138 215.631 210.872 224.256 216.593C228.447 219.364 233.192 221.182 238.313 221.604C237.803 224.242 237.316 226.903 236.783 229.541C231.972 230.517 226.917 230.428 222.194 229.164C218.558 228.211 215.964 226.681 214.9 224.907C214.5 224.22 214.523 223.2 214.678 222.778C218.403 220.495 219.644 215.661 217.472 211.847C215.254 207.945 210.288 206.593 206.408 208.81C202.749 210.894 200.089 214.42 198.958 218.743C197.694 223.555 198.426 228.943 200.931 233.178C202.638 236.06 205.033 238.521 208.048 240.517C210.864 242.379 214.212 243.843 218.026 244.841C222.549 246.038 227.294 246.548 231.994 246.37C231.773 247.767 231.906 249.164 232.371 250.428C231.418 254.774 230.464 259.097 229.467 263.421C227.649 271.248 225.609 279.385 222.882 287.212C222.615 287.656 222.394 288.122 222.194 288.61C222.017 289.12 221.884 289.607 221.817 290.117C217.117 302.667 210.532 314.108 200.155 321.625C194.28 325.882 187.184 328.964 179.646 332.223C173.194 335.017 166.653 337.855 160.689 341.558C159.27 334.13 156.299 326.414 151.864 318.675C158.538 318.454 165.278 317.611 171.952 315.461C173.039 315.106 174.081 314.729 175.123 314.33C176.852 314.152 178.449 313.421 179.69 312.29C190.311 306.902 198.182 298.276 201.419 288.144C203.038 283.088 203.414 277.967 203.747 273.465L204.966 256.836C205.299 252.379 201.951 248.477 197.472 248.144C193.016 247.812 189.113 251.16 188.781 255.639L187.539 272.268C187.251 276.237 186.963 279.984 185.943 283.221C184.125 288.92 179.358 294.02 172.994 297.457C170.777 296.259 169.181 293.998 168.316 291.936C167.163 289.186 166.675 285.262 168.759 282.468C171.442 278.876 170.688 273.798 167.097 271.115C163.527 268.499 158.427 269.186 155.744 272.778C150.578 279.696 149.669 289.452 153.35 298.21C153.949 299.629 154.658 300.96 155.434 302.246C150.512 302.667 145.501 302.578 140.557 302.268C139.869 301.359 139.204 300.45 138.517 299.563C135.501 295.594 132.552 291.691 129.87 287.789C129.426 286.459 128.65 285.35 127.652 284.441C124.548 279.541 121.976 274.508 120.336 269.142C119.671 266.991 119.227 264.774 118.85 262.534C127.009 265.86 135.679 268.565 144.902 268.987C159.026 269.63 171.974 264.308 179.513 254.774C186.564 245.883 188.182 234.752 189.468 225.794L192.994 201.315C193.637 196.881 190.555 192.779 186.12 192.114C181.686 191.471 177.562 194.553 176.919 198.987L173.393 223.444C172.396 230.317 171.243 238.033 167.584 243.466C166.032 242.313 164.103 241.67 162.019 241.869C154.725 242.535 146.898 238.322 143.417 231.869C139.936 225.417 140.712 216.57 145.279 210.827C148.073 207.324 147.496 202.225 143.971 199.431C140.446 196.659 135.346 197.235 132.575 200.739C124.016 211.493 122.597 227.479 129.138 239.585C131.865 244.619 135.878 248.876 140.667 252.047C140.778 252.113 140.889 252.18 140.978 252.246C133.439 251.071 125.901 248.056 118.784 244.841C118.54 244.73 118.274 244.663 118.03 244.574C118.207 240.849 118.518 237.124 118.872 233.444C120.269 218.787 122.242 204.109 124.748 189.497C136.499 192.49 150.711 194.397 163.593 188.61C183.149 179.83 190.843 157.99 194.945 142.314C197.539 132.381 199.667 122.181 201.242 112.048C201.929 107.613 198.891 103.489 194.479 102.78C190.045 102.092 185.898 105.13 185.211 109.543C183.726 119.143 181.708 128.788 179.247 138.212C178.16 142.336 177.007 146.061 175.744 149.454C164.879 146.704 158.893 142.912 158.028 138.167C157.452 135.063 158.937 131.271 160.645 126.881C162.396 122.38 164.369 117.303 164.569 111.582C164.724 107.103 161.199 103.356 156.72 103.201C152.241 103.046 148.494 106.571 148.339 111.05C148.25 113.999 146.92 117.392 145.523 120.984C143.239 126.837 140.667 133.467 142.064 141.072C143.483 148.833 148.273 154.176 153.882 157.901C158.583 161.005 163.837 162.979 168.183 164.243C164.902 168.721 161.199 171.848 156.942 173.777C148.516 177.568 138.428 176.26 127.697 173.444C130.779 157.857 134.481 142.38 138.761 127.037C141.288 125.085 142.552 121.715 141.643 118.434C141.576 118.212 141.466 118.013 141.399 117.813C144.503 107.281 147.918 96.8373 151.554 86.5048C154.525 87.9682 157.917 88.7665 161.576 88.7887C169.979 88.8108 178.426 84.7532 183.637 78.2344C191.752 68.0793 192.727 54.7313 193.459 44.9753C193.792 40.4964 190.422 36.6164 185.965 36.2838C181.486 35.9512 177.606 39.299 177.274 43.7779C176.542 53.6891 175.544 62.3586 170.955 68.1235C168.87 70.7399 165.012 72.5803 161.598 72.5803C159.669 72.5803 158.228 72.0037 157.363 70.8951L157.341 70.8729C164.968 51.0061 173.571 31.5385 183.149 12.736C185.189 8.74496 183.593 3.84495 179.602 1.82724C175.611 -0.212657 170.733 1.384 168.693 5.37509C151.288 39.5433 136.965 75.707 125.967 112.868C119.804 111.427 113.972 105.573 111.799 99.2985C108.208 88.9217 110.669 76.6823 113.573 66.0616C114.105 64.1326 114.637 62.2038 115.192 60.2748C118.318 49.2771 121.533 37.9245 121.023 25.7517C120.823 21.2728 117.054 17.7917 112.575 17.9912C108.097 18.1908 104.616 21.9603 104.815 26.4392C105.214 35.9956 102.487 45.6186 99.5826 55.8403C99.0283 57.8358 98.4518 59.809 97.9197 61.7824C94.3722 74.7978 91.4454 90.0528 96.4785 104.598C99.4717 113.223 104.815 119.609 111.046 123.755C114.371 125.972 117.963 127.48 121.577 128.389C120.491 132.447 119.449 136.505 118.451 140.584C106.434 140.54 94.5939 134.775 87.2106 125.241C79.4725 115.218 76.9671 101.494 80.692 89.3874C82.0001 85.108 79.6056 80.5625 75.3263 79.2543C71.0471 77.9461 66.5018 80.3411 65.1937 84.6204C60.6706 99.3431 62.6882 115.751 70.3154 129.054C66.3023 128.699 62.3778 127.17 59.3403 124.576C54.1963 120.186 51.6244 112.758 52.9104 106.128C53.7751 101.716 50.8927 97.4583 46.5026 96.6157C42.1126 95.751 37.8333 98.6332 36.9908 103.023C34.574 115.418 39.208 128.722 48.7864 136.926C49.8506 137.835 50.9592 138.678 52.1122 139.431C61.0253 145.329 72.5105 146.97 82.7318 143.733C84.2839 145.019 85.8581 146.238 87.5431 147.347C95.6138 152.69 105.037 155.928 114.704 156.66C113.573 161.804 112.487 166.948 111.489 172.114C110.137 173.112 109.05 174.508 108.518 176.238C107.786 178.61 108.23 181.072 109.471 183.001C106.988 197.058 104.993 211.16 103.485 225.262C89.4499 224.286 81.4015 220.761 78.4304 214.375C76.2132 209.608 76.9892 203.089 77.987 196.814C79.5169 187.147 81.4015 177.413 83.6409 167.856C84.6608 163.488 81.9558 159.143 77.5879 158.123C73.22 157.103 68.8521 159.808 67.8543 164.176C65.5263 174.109 63.553 184.242 61.9787 194.287C61.6018 196.726 61.2471 199.253 61.0254 201.87C57.8769 201.337 54.4846 199.032 52.733 195.772C50.0502 190.805 49.7176 183.954 51.7574 175.373C52.7995 171.005 50.0945 166.637 45.7266 165.618C41.3587 164.575 36.9908 167.28 35.9709 171.648C32.9998 184.22 33.8202 194.93 38.4542 203.488C40.627 207.501 43.9528 211.116 47.9882 213.777C52.2895 216.637 57.367 218.344 62.5774 218.278C62.91 219.276 63.2869 220.251 63.7304 221.226C66.258 226.659 70.0715 230.628 74.4838 233.555C82.9979 239.186 93.7735 240.938 101.999 241.493C101.445 250.473 101.534 259.696 103.551 268.831C100.514 268.233 97.6315 266.769 95.5251 264.596C92.0219 260.982 90.5364 255.262 91.8002 250.384C92.931 246.038 90.3368 241.625 85.9911 240.472C81.6676 239.341 77.2331 241.936 76.0802 246.282C73.3974 256.592 76.4349 268.211 83.8183 275.86C85.326 277.435 87.011 278.831 88.8291 280.029C89.5386 280.494 90.2925 280.916 91.0242 281.337C85.7916 280.317 80.6255 278.876 75.6367 276.969C69.5394 274.641 65.6815 272.312 63.1095 269.43C56.3027 261.758 57.5443 248.322 59.2516 236.348C59.8724 231.914 56.7905 227.812 52.3561 227.169C47.9216 226.548 43.8198 229.63 43.1768 234.064C40.9596 249.63 39.5628 267.324 50.9592 280.184C53.1321 282.645 55.571 284.641 58.0986 286.326C62.0896 288.964 66.258 290.76 69.8498 292.135C85.1264 297.944 101.6 300.25 117.875 298.942C120.38 302.512 122.996 305.971 125.59 309.385C126.411 310.472 127.187 311.491 127.985 312.556C128.539 314.241 129.626 315.705 131.067 316.702C132.442 318.587 133.794 320.45 135.058 322.379C141.599 332.201 146.765 345.194 145.058 356.214C144.548 356.99 144.06 357.766 143.594 358.586C142.707 360.161 142.441 361.89 142.641 363.553C142.375 364.063 142.109 364.573 141.798 365.061C140.911 366.436 140.512 367.966 140.512 369.474C143.639 371.469 146.809 373.442 150.002 375.349C150.734 375.793 151.487 376.236 152.241 376.68C153.505 376.059 154.636 375.105 155.456 373.842C157.607 370.493 159.159 366.857 160.179 362.999C166.055 355.793 175.81 351.58 186.054 347.145C191.486 344.795 197.029 342.378 202.328 339.429C203.791 341.07 205.454 342.511 207.272 343.709C215.321 349.052 226.207 350.072 234.877 346.924C245.719 342.977 254.787 333.531 260.441 320.294Z" fill="#EA5A5A"/>
<g opacity="0.47">
<g opacity="0.47">
<path opacity="0.47" d="M114.083 33.7561C113.706 36.9712 112.376 39.4546 111.134 39.3216C109.893 39.1663 109.183 36.439 109.56 33.2239C109.937 30.0088 111.267 27.5254 112.509 27.6584C113.773 27.7915 114.46 30.5188 114.083 33.7561Z" fill="white"/>
<path opacity="0.47" d="M104.593 64.9749C103.285 67.9461 101.312 69.9417 100.159 69.4317C99.0061 68.9217 99.117 66.1056 100.425 63.1344C101.733 60.1633 103.707 58.1677 104.859 58.6777C106.012 59.1877 105.902 62.0038 104.593 64.9749Z" fill="white"/>
<path opacity="0.47" d="M106.966 79.964C106.412 83.1568 104.97 85.5733 103.729 85.3516C102.487 85.1299 101.933 82.3805 102.465 79.1878C103.019 75.9951 104.46 73.5785 105.702 73.8002C106.966 74.022 107.52 76.7713 106.966 79.964Z" fill="white"/>
<path opacity="0.47" d="M115.369 49.3655C114.549 51.2501 112.775 52.2923 111.445 51.7158C110.092 51.1172 109.693 49.1217 110.514 47.2371C111.334 45.3524 113.108 44.3102 114.438 44.8867C115.79 45.4853 116.212 47.4809 115.369 49.3655Z" fill="white"/>
<path opacity="0.47" d="M104.128 98.19C103.308 100.075 101.534 101.117 100.204 100.541C98.851 99.9419 98.4519 97.9462 99.2723 96.0614C100.093 94.1767 101.866 93.1344 103.197 93.7109C104.527 94.3096 104.948 96.3053 104.128 98.19Z" fill="white"/>
</g>
<g opacity="0.47">
<path opacity="0.47" d="M199.025 114.842C198.116 117.946 196.386 120.185 195.189 119.831C193.969 119.476 193.748 116.66 194.657 113.556C195.566 110.451 197.295 108.212 198.492 108.567C199.69 108.944 199.934 111.738 199.025 114.842Z" fill="white"/>
<path opacity="0.47" d="M184.457 144.043C182.684 146.748 180.378 148.389 179.336 147.701C178.271 147.014 178.87 144.265 180.644 141.537C182.418 138.832 184.724 137.192 185.766 137.879C186.808 138.589 186.231 141.338 184.457 144.043Z" fill="white"/>
<path opacity="0.47" d="M184.28 159.231C183.216 162.291 181.376 164.42 180.178 163.999C178.981 163.577 178.892 160.762 179.979 157.702C181.043 154.642 182.883 152.513 184.081 152.934C185.256 153.377 185.344 156.194 184.28 159.231Z" fill="white"/>
<path opacity="0.47" d="M192.018 131.958C190.887 133.688 188.98 134.42 187.761 133.621C186.541 132.823 186.453 130.761 187.584 129.054C188.714 127.324 190.621 126.593 191.841 127.391C193.06 128.189 193.149 130.251 192.018 131.958Z" fill="white"/>
<path opacity="0.47" d="M178.427 176.726C177.296 178.455 175.389 179.187 174.17 178.388C172.95 177.59 172.861 175.529 173.992 173.821C175.123 172.092 177.03 171.36 178.249 172.158C179.491 172.957 179.557 175.018 178.427 176.726Z" fill="white"/>
</g>
<g opacity="0.47">
<path opacity="0.47" d="M220.243 155.861C220.531 159.076 219.755 161.804 218.491 161.914C217.228 162.025 215.986 159.498 215.698 156.283C215.41 153.068 216.186 150.34 217.449 150.23C218.713 150.119 219.955 152.646 220.243 155.861Z" fill="white"/>
<path opacity="0.47" d="M217.361 188.366C216.695 191.537 215.143 193.888 213.924 193.644C212.682 193.378 212.239 190.606 212.904 187.435C213.569 184.264 215.099 181.914 216.341 182.158C217.56 182.424 218.026 185.195 217.361 188.366Z" fill="white"/>
<path opacity="0.47" d="M222.748 202.579C222.859 205.816 221.95 208.477 220.686 208.521C219.422 208.565 218.314 205.971 218.203 202.734C218.092 199.497 219.001 196.836 220.265 196.792C221.507 196.748 222.637 199.342 222.748 202.579Z" fill="white"/>
<path opacity="0.47" d="M219.977 174.353C219.556 176.371 218.048 177.746 216.607 177.457C215.166 177.147 214.345 175.285 214.767 173.267C215.188 171.249 216.696 169.874 218.137 170.162C219.6 170.45 220.398 172.336 219.977 174.353Z" fill="white"/>
<path opacity="0.47" d="M231.218 207.213C230.797 209.23 229.289 210.605 227.848 210.317C226.407 210.006 225.587 208.144 226.008 206.126C226.429 204.109 227.937 202.734 229.378 203.023C230.819 203.311 231.64 205.195 231.218 207.213Z" fill="white"/>
<path opacity="0.47" d="M186.985 201.736C186.564 203.754 185.056 205.129 183.615 204.841C182.174 204.53 181.353 202.667 181.774 200.65C182.196 198.632 183.703 197.257 185.145 197.545C186.586 197.834 187.406 199.718 186.985 201.736Z" fill="white"/>
<path opacity="0.47" d="M188.648 216.903C188.227 218.92 186.719 220.295 185.278 220.007C183.837 219.696 183.016 217.834 183.438 215.816C183.859 213.798 185.367 212.424 186.808 212.712C188.249 213.022 189.069 214.885 188.648 216.903Z" fill="white"/>
</g>
<g opacity="0.47">
<path opacity="0.47" d="M76.8115 172.003C76.7672 175.085 75.7473 177.502 74.5056 177.413C73.264 177.324 72.3107 174.753 72.355 171.671C72.3993 168.589 73.4192 166.171 74.6609 166.26C75.8803 166.371 76.8559 168.921 76.8115 172.003Z" fill="white"/>
<path opacity="0.47" d="M70.7589 202.136C69.8055 205.018 68.0538 206.992 66.9009 206.57C65.7258 206.149 65.5484 203.444 66.524 200.583C67.4774 197.701 69.2068 195.728 70.3819 196.149C71.5571 196.57 71.7123 199.276 70.7589 202.136Z" fill="white"/>
<path opacity="0.47" d="M74.5949 216.326C74.3953 219.386 73.2202 221.759 72.0007 221.604C70.7813 221.448 69.9387 218.854 70.1605 215.794C70.36 212.734 71.5351 210.362 72.7546 210.517C73.974 210.673 74.7944 213.267 74.5949 216.326Z" fill="white"/>
<path opacity="0.47" d="M79.65 186.814C79.0292 188.632 77.4328 189.719 76.0803 189.209C74.7057 188.699 74.107 186.814 74.7278 184.996C75.3486 183.178 76.945 182.091 78.2975 182.601C79.65 183.111 80.2708 184.996 79.65 186.814Z" fill="white"/>
<path opacity="0.47" d="M82.1554 225.683C81.5346 227.501 79.9382 228.588 78.5857 228.078C77.211 227.568 76.6124 225.683 77.2332 223.865C77.854 222.046 79.4504 220.96 80.8029 221.47C82.1554 221.958 82.7762 223.842 82.1554 225.683Z" fill="white"/>
</g>
<g opacity="0.47">
<path opacity="0.47" d="M171.797 17.2593C170.489 20.2303 168.516 22.2258 167.363 21.7159C166.21 21.2059 166.321 18.3899 167.629 15.4189C168.937 12.4478 170.91 10.4529 172.063 10.9629C173.216 11.4728 173.083 14.2883 171.797 17.2593Z" fill="white"/>
<path opacity="0.47" d="M168.893 35.7515C167.584 38.7225 165.611 40.718 164.436 40.2081C163.283 39.6981 163.394 36.8821 164.702 33.9111C166.01 30.9401 167.983 28.9446 169.136 29.4545C170.311 29.9645 170.178 32.7805 168.893 35.7515Z" fill="white"/>
<path opacity="0.47" d="M156.654 64.2877C155.346 67.259 153.372 69.2547 152.197 68.7447C151.044 68.2347 151.155 65.4189 152.463 62.4476C153.771 59.4763 155.745 57.4807 156.898 57.9907C158.073 58.5007 157.94 61.3164 156.654 64.2877Z" fill="white"/>
<path opacity="0.47" d="M156.631 47.991C155.811 49.8756 154.037 50.9173 152.707 50.3408C151.354 49.7422 150.955 47.7472 151.776 45.8625C152.596 43.9779 154.37 42.9357 155.7 43.5122C157.03 44.0887 157.452 46.1064 156.631 47.991Z" fill="white"/>
<path opacity="0.47" d="M146.233 81.4491C145.457 84.5975 143.816 86.9035 142.597 86.5931C141.377 86.2827 141.023 83.4889 141.799 80.3405C142.575 77.192 144.215 74.8865 145.435 75.197C146.654 75.5295 147.009 78.3228 146.233 81.4491Z" fill="white"/>
<path opacity="0.47" d="M132.863 111.227C131.2 113.999 128.961 115.729 127.896 115.086C126.81 114.442 127.298 111.671 128.961 108.877C130.623 106.105 132.863 104.376 133.927 105.019C135.014 105.662 134.548 108.456 132.863 111.227Z" fill="white"/>
<path opacity="0.47" d="M133.329 126.416C132.375 129.52 130.646 131.737 129.427 131.36C128.229 130.983 128.007 128.19 128.961 125.085C129.914 121.981 131.644 119.764 132.863 120.141C134.061 120.496 134.282 123.311 133.329 126.416Z" fill="white"/>
<path opacity="0.47" d="M145.545 97.1033C144.481 98.8771 142.619 99.6755 141.355 98.9216C140.091 98.1677 139.936 96.1277 141 94.3538C142.064 92.58 143.927 91.7594 145.191 92.5133C146.432 93.3115 146.587 95.3516 145.545 97.1033Z" fill="white"/>
<path opacity="0.47" d="M128.207 144.132C127.143 145.906 125.28 146.726 124.016 145.972C122.753 145.219 122.597 143.178 123.662 141.404C124.726 139.63 126.588 138.81 127.852 139.564C129.094 140.318 129.271 142.358 128.207 144.132Z" fill="white"/>
</g>
<g opacity="0.47">
<path opacity="0.47" d="M122.996 153.533C122.486 156.726 121.045 159.165 119.803 158.966C118.562 158.766 117.963 156.017 118.495 152.802C119.005 149.609 120.446 147.169 121.688 147.369C122.929 147.568 123.506 150.34 122.996 153.533Z" fill="white"/>
<path opacity="0.47" d="M124.792 172.181C124.282 175.374 122.841 177.813 121.599 177.613C120.357 177.414 119.759 174.664 120.291 171.449C120.801 168.256 122.242 165.817 123.484 166.017C124.725 166.216 125.324 168.966 124.792 172.181Z" fill="white"/>
<path opacity="0.47" d="M120.069 202.845C119.559 206.038 118.118 208.477 116.876 208.278C115.635 208.078 115.036 205.329 115.568 202.114C116.078 198.921 117.519 196.481 118.761 196.681C120.003 196.903 120.601 199.652 120.069 202.845Z" fill="white"/>
<path opacity="0.47" d="M115.99 187.08C115.657 189.12 114.216 190.561 112.775 190.339C111.334 190.095 110.425 188.277 110.757 186.237C111.09 184.197 112.531 182.756 113.972 182.978C115.413 183.222 116.322 185.04 115.99 187.08Z" fill="white"/>
<path opacity="0.47" d="M114.283 222.091C114.305 225.328 113.307 227.967 112.043 227.967C110.779 227.967 109.737 225.351 109.715 222.113C109.693 218.876 110.691 216.237 111.955 216.237C113.218 216.237 114.26 218.854 114.283 222.091Z" fill="white"/>
<path opacity="0.47" d="M108.784 254.242C107.875 257.346 106.145 259.586 104.926 259.209C103.729 258.854 103.485 256.038 104.394 252.934C105.303 249.829 107.032 247.59 108.252 247.967C109.471 248.344 109.715 251.138 108.784 254.242Z" fill="white"/>
<path opacity="0.47" d="M113.019 268.853C112.886 272.091 111.733 274.663 110.491 274.619C109.249 274.574 108.318 271.891 108.473 268.654C108.606 265.417 109.759 262.844 111.001 262.889C112.243 262.933 113.174 265.616 113.019 268.853Z" fill="white"/>
<path opacity="0.47" d="M117.519 237.412C116.943 239.386 115.324 240.65 113.928 240.229C112.531 239.807 111.866 237.878 112.442 235.905C113.018 233.931 114.637 232.667 116.034 233.088C117.431 233.51 118.096 235.439 117.519 237.412Z" fill="white"/>
<path opacity="0.47" d="M112.487 287.279C111.91 289.252 110.292 290.516 108.895 290.095C107.498 289.673 106.833 287.745 107.409 285.771C107.986 283.798 109.604 282.534 111.001 282.955C112.398 283.376 113.063 285.305 112.487 287.279Z" fill="white"/>
</g>
<g opacity="0.47">
<path opacity="0.47" d="M263.212 140.251C262.481 143.4 260.884 145.728 259.665 145.44C258.445 145.152 258.046 142.358 258.778 139.209C259.51 136.061 261.106 133.733 262.326 134.021C263.545 134.309 263.944 137.081 263.212 140.251Z" fill="white"/>
<path opacity="0.47" d="M263.767 158.965C263.035 162.114 261.439 164.441 260.219 164.153C259 163.865 258.601 161.071 259.332 157.923C260.064 154.774 261.66 152.446 262.88 152.735C264.099 153.023 264.498 155.817 263.767 158.965Z" fill="white"/>
<path opacity="0.47" d="M257.026 189.253C256.295 192.401 254.698 194.729 253.479 194.441C252.259 194.153 251.86 191.359 252.592 188.211C253.324 185.062 254.92 182.734 256.139 183.022C257.337 183.31 257.758 186.104 257.026 189.253Z" fill="white"/>
<path opacity="0.47" d="M253.989 173.245C253.523 175.24 251.993 176.614 250.552 176.282C249.133 175.949 248.335 174.065 248.8 172.047C249.266 170.052 250.796 168.677 252.237 169.01C253.678 169.364 254.454 171.249 253.989 173.245Z" fill="white"/>
<path opacity="0.47" d="M249.954 208.078C249.754 211.315 248.601 213.865 247.337 213.799C246.074 213.732 245.209 211.049 245.409 207.812C245.608 204.575 246.761 202.025 248.025 202.092C249.266 202.158 250.131 204.841 249.954 208.078Z" fill="white"/>
<path opacity="0.47" d="M242.326 239.785C241.195 242.823 239.333 244.929 238.158 244.485C236.983 244.042 236.938 241.227 238.047 238.189C239.178 235.151 241.04 233.045 242.215 233.488C243.391 233.932 243.435 236.748 242.326 239.785Z" fill="white"/>
<path opacity="0.47" d="M245.564 254.64C245.209 257.855 243.901 260.361 242.637 260.206C241.395 260.073 240.664 257.345 241.018 254.13C241.373 250.915 242.681 248.41 243.945 248.565C245.209 248.698 245.94 251.403 245.564 254.64Z" fill="white"/>
<path opacity="0.47" d="M252.148 223.577C251.439 225.506 249.732 226.658 248.357 226.148C246.982 225.638 246.45 223.665 247.16 221.736C247.869 219.807 249.577 218.655 250.951 219.165C252.348 219.675 252.88 221.648 252.148 223.577Z" fill="white"/>
<path opacity="0.47" d="M243.812 273C243.102 274.929 241.417 276.082 240.043 275.572C238.668 275.062 238.136 273.088 238.845 271.159C239.555 269.23 241.262 268.078 242.637 268.588C243.989 269.075 244.521 271.071 243.812 273Z" fill="white"/>
</g>
<path opacity="0.47" d="M71.9117 91.6714C72.2665 94.8865 71.5348 97.6138 70.2931 97.7468C69.0515 97.8799 67.7434 95.3964 67.3664 92.1591C67.0117 88.944 67.7433 86.2167 68.985 86.0837C70.2488 85.9506 71.557 88.4563 71.9117 91.6714Z" fill="white"/>
<path opacity="0.47" d="M77.1886 119.963C76.59 123.156 75.1045 125.551 73.8628 125.307C72.6212 125.085 72.1113 122.313 72.7099 119.12C73.3085 115.927 74.7941 113.533 76.0357 113.777C77.2551 114.021 77.7651 116.77 77.1886 119.963Z" fill="white"/>
<path opacity="0.47" d="M73.8849 136.283C76.9669 137.302 79.1397 139.099 78.7406 140.296C78.3416 141.493 75.5257 141.627 72.4659 140.607C69.384 139.587 67.2111 137.791 67.6102 136.593C67.9872 135.396 70.803 135.263 73.8849 136.283Z" fill="white"/>
<path opacity="0.47" d="M76.7007 106.593C76.3238 108.611 74.8383 110.03 73.3971 109.764C71.9559 109.498 71.0913 107.635 71.4682 105.618C71.8451 103.6 73.3306 102.181 74.7718 102.447C76.2129 102.713 77.0776 104.575 76.7007 106.593Z" fill="white"/>
<path opacity="0.47" d="M85.1705 133.866C84.7936 135.883 83.308 137.302 81.8669 137.036C80.4257 136.77 79.561 134.908 79.9379 132.89C80.3148 130.872 81.8003 129.453 83.2415 129.719C84.6827 129.985 85.5474 131.826 85.1705 133.866Z" fill="white"/>
</g>
<path d="M1240.58 235.483C1234.13 239.341 1235.99 265.039 1222.47 269.008C1221.6 269.252 1220.8 269.607 1220.05 270.05C1222.89 256.059 1223.91 239.629 1223.91 239.629C1223.91 239.629 1216.21 190.007 1213.4 180.45L1201.2 139.054C1196.52 123.134 1171.43 120.14 1172.93 136.992C1174.44 153.843 1183.24 172.003 1189.81 194.308C1196.37 216.592 1194.68 234.397 1193.95 255.372C1193.2 276.348 1171.12 307.079 1137.26 337.477C1136.55 338.12 1135.88 338.764 1135.24 339.429C1136.44 332.356 1137.81 324.684 1139.3 316.413C1144.53 287.19 1142.09 267.146 1133.67 238.499C1125.24 209.851 1105 188.122 1095.62 156.282C1086.24 124.442 1065.44 89.0541 1062.45 114.154C1059.46 139.253 1066.37 167.102 1086.44 207.412C1106.53 247.745 1094.87 236.06 1102.96 272.866C1111.05 309.673 1107.97 305.682 1095.26 351.602C1094.44 354.573 1093.82 357.5 1093.38 360.36C1088.41 348.808 1082.29 337.278 1074.38 328.52C1053.49 305.416 1042.98 247.9 1025.93 225.239C1008.88 202.579 971.234 168.699 971.234 168.699C972.364 196.038 992.585 217.767 1021.81 261.403C1051.01 305.039 1045.24 302.6 1053.49 365.903C1055.58 381.912 1060.7 393.929 1067.17 402.931C1064.42 400.736 1062.29 396.945 1056.86 389.118C1044.87 371.89 1042.05 362.334 1034.18 347.367C1026.31 332.378 1021.41 304.773 1007.4 303.354C993.384 301.935 990.479 276.347 983.428 273.753C976.355 271.159 951.567 274.152 983.805 315.172C1016.04 356.192 1018.84 365.726 1021.65 375.282C1024.47 384.839 1037.4 405.237 1037.4 405.237C1037.4 405.237 1049.59 434.75 1076.64 439.827C1077.04 439.738 1077.48 439.649 1078.01 439.516C1081.81 438.696 1085.53 437.632 1089.23 436.479C1097.26 433.974 1105.09 430.847 1113.02 428.031C1125.97 423.419 1139.36 421.113 1152.91 419.073C1162.98 417.543 1173.42 416.967 1183 413.286C1186.68 411.867 1190.07 409.827 1193.26 407.344C1207.65 394.24 1211.76 374.683 1211.76 374.683C1211.76 374.683 1220.69 352.245 1221.71 342.334C1222.71 332.422 1223.71 322.511 1247.83 276.281C1271.98 230.006 1247.05 231.625 1240.58 235.483ZM1204.26 317.19C1199.3 333.376 1198.3 343.265 1189.67 362.422C1181.29 381.047 1184.51 378.741 1165.53 385.881L1176.19 366.169C1176.19 366.169 1176.19 340.405 1189.1 332.91C1198.56 327.434 1203.31 310.56 1208.19 298.321C1207.01 305.039 1205.93 311.779 1204.26 317.19Z" fill="#6DCCA3"/>
<path opacity="0.18" d="M1071.05 431.025C1067.82 427.943 1064.6 424.905 1061.76 421.712C1049.35 407.744 1042.54 390.626 1033.91 374.24C1016.44 341.048 988.085 314.197 975.269 278.588C974.671 276.925 974.36 275.35 974.249 273.842C966.622 276.459 961.367 286.57 983.828 315.172C1016.07 356.192 1018.86 365.726 1021.68 375.282C1024.49 384.839 1037.42 405.238 1037.42 405.238C1037.42 405.238 1049.55 434.572 1076.42 439.761C1074.58 436.9 1072.78 433.974 1071.05 431.025Z" fill="#173D4C"/>
<path opacity="0.18" d="M1080.45 366.591C1080.59 366.968 1080.72 367.345 1080.83 367.744C1081.1 362.999 1081.52 358.254 1082.07 353.442C1082.54 349.451 1083.16 345.482 1083.82 341.491C1080.99 336.813 1077.88 332.4 1074.4 328.542C1053.51 305.438 1043 247.922 1025.95 225.262C1010.83 205.173 979.571 176.282 972.653 169.985C982.564 189.963 996.532 207.036 1010.59 224.286C1026.86 244.242 1040.28 264.995 1051.01 288.476C1062.6 313.842 1071.72 340.139 1080.45 366.591Z" fill="#173D4C"/>
<path opacity="0.18" d="M1175.62 382.377C1173.31 383.331 1170.36 384.418 1166.46 385.925L1176.97 366.125C1176.97 366.125 1176.75 340.36 1189.61 332.777C1189.63 332.755 1189.65 332.733 1189.7 332.711C1196.08 314.241 1203.58 296.17 1211.93 278.676C1215.02 272.224 1218.41 265.927 1221.67 259.607C1223.13 248.809 1223.66 239.186 1223.66 239.186C1223.66 239.186 1215.57 189.63 1212.67 180.096L1200.14 138.81C1198.23 132.491 1193.09 128.256 1187.72 126.504C1188.83 130.252 1189.96 133.999 1191.07 137.746C1195.37 152.336 1198.25 167.28 1199.92 182.402C1201.47 196.637 1201.74 210.96 1201.45 225.262C1201.14 240.384 1201.05 255.927 1197.68 270.738C1192.16 295.017 1177.12 314.95 1166.64 337.101C1164.6 341.402 1161.6 344.019 1158.26 345.283C1151.67 355.26 1145.86 365.815 1142.4 377.034C1137.7 392.289 1137.88 406.879 1143.22 421.069C1146.86 420.404 1150.52 419.783 1154.2 419.207C1159.3 418.386 1164.51 417.81 1169.65 416.945C1171.07 405.349 1173.09 393.819 1175.62 382.377Z" fill="#173D4C"/>
<path opacity="0.18" d="M1252.69 234.774C1248.36 249.807 1241.09 263.443 1233.53 277.922C1212.11 319.008 1195.5 364.529 1188.21 410.759C1189.96 409.739 1191.65 408.586 1193.29 407.322C1207.68 394.218 1211.78 374.661 1211.78 374.661C1211.78 374.661 1220.71 352.223 1221.73 342.312C1222.73 332.401 1223.73 322.489 1247.85 276.259C1262.46 248.255 1259.07 237.812 1252.69 234.774Z" fill="#173D4C"/>
<path opacity="0.18" d="M1122 315.726C1121.09 325.992 1119.17 336.125 1117.53 346.303C1123.93 333.908 1131.83 322.312 1140.16 311.048C1144.15 284.707 1141.56 265.394 1133.67 238.543C1125.24 209.896 1105 188.167 1095.62 156.327C1089.72 136.327 1079.34 114.93 1071.67 108.012C1071.74 109.653 1071.85 111.294 1071.98 112.935C1074.09 138.7 1083.93 163.001 1093.25 186.858C1103.91 214.131 1114.8 241.559 1119.61 270.583C1122.09 285.527 1123.33 300.56 1122 315.726Z" fill="#173D4C"/>
<path d="M1075.71 433.996C1057.68 433.042 1042.81 398.63 1030.85 371.003C1027.37 362.977 1024.09 355.394 1021.28 350.006C1009.41 327.434 1007.53 325.283 990.745 308.92C973.983 292.6 972.808 275.86 972.764 275.151L974.471 275.04C974.493 275.195 975.69 291.846 991.943 307.678C1008.9 324.196 1010.83 326.391 1022.81 349.185C1025.67 354.617 1028.95 362.223 1032.45 370.293C1043.6 396.058 1058.88 431.357 1075.82 432.266L1075.71 433.996Z" fill="white"/>
<path d="M1095.82 430.67C1087.55 429.184 1086.73 423.287 1085.22 412.555C1084.53 407.655 1083.69 401.535 1081.92 394.174C1076.35 370.759 1070.19 349.851 1057.53 311.359C1049.59 287.19 1045.11 279.896 1039.92 271.47C1036.86 266.481 1033.69 261.314 1029.5 252.157C1020.39 232.179 1015.91 227.79 1005.13 217.147C1002.76 214.819 1000.1 212.18 997.042 209.031C980.036 191.603 973.252 173.488 973.185 173.311L974.804 172.712C974.87 172.89 981.544 190.672 998.284 207.834C1001.34 210.982 1004 213.599 1006.35 215.927C1017.31 226.725 1021.83 231.204 1031.08 251.448C1035.22 260.517 1038.35 265.638 1041.39 270.583C1046.4 278.742 1051.14 286.459 1059.15 310.827C1071.83 349.385 1077.97 370.316 1083.56 393.797C1085.33 401.247 1086.2 407.411 1086.88 412.355C1088.37 422.932 1089.03 427.743 1096.08 429.007L1095.82 430.67Z" fill="white"/>
<path d="M1120.61 420.692C1119.92 420.492 1104.04 415.348 1112.6 367.588C1116.15 347.766 1119.32 340.316 1121.41 335.393C1124.38 328.409 1125.37 326.037 1123.05 299.828C1119.01 254.685 1112.25 236.215 1101.54 211.16C1099.26 205.794 1096.09 198.965 1092.4 191.049C1079.28 162.779 1061.32 124.043 1065 111.272L1066.64 111.738C1063.14 123.888 1080.94 162.291 1093.96 190.318C1097.64 198.233 1100.81 205.085 1103.11 210.473C1113.56 234.951 1120.7 254.375 1124.75 299.651C1127.13 326.303 1126 328.941 1122.98 336.037C1120.92 340.892 1117.79 348.232 1114.29 367.855C1106.06 413.819 1120.94 418.962 1121.1 419.007L1120.61 420.692Z" fill="white"/>
<path d="M1146.77 416.391C1146.59 416.058 1129.08 382.333 1154 349.784C1161.27 340.272 1167.3 333.154 1172.62 326.857C1185.46 311.691 1192.51 303.354 1198.01 284.086C1205.86 256.481 1203.24 172.446 1179.05 130.074L1180.54 129.231C1204.95 171.98 1207.59 256.725 1199.65 284.574C1194.06 304.197 1186.5 313.155 1173.93 327.988C1168.61 334.263 1162.6 341.38 1155.35 350.848C1131.12 382.511 1148.1 415.282 1148.28 415.615L1146.77 416.391Z" fill="white"/>
<path d="M1191 403.686L1189.38 403.131C1189.43 402.976 1194.46 388.098 1204.95 361.424C1210.23 348.01 1212 337.234 1213.73 326.835C1215.48 316.237 1217.14 306.237 1222.22 294.064C1226.79 283.133 1232.73 275.018 1237.99 267.856C1244.3 259.209 1249.78 251.758 1250.54 242.269L1252.24 242.402C1251.44 252.379 1245.83 260.007 1239.36 268.876C1234.17 275.971 1228.3 283.998 1223.8 294.752C1218.78 306.725 1217.14 316.636 1215.41 327.123C1213.69 337.633 1211.89 348.476 1206.55 362.067C1196.06 388.697 1191.05 403.553 1191 403.686Z" fill="white"/>
<path d="M960.547 280.273C961.478 282.202 962.498 284.086 963.695 285.838C964.893 287.59 966.179 289.275 967.709 290.694C969.238 292.068 971.012 293.221 972.919 293.598C974.826 293.997 976.821 293.576 978.573 292.645L978.728 292.578L978.972 292.556C981.123 292.379 983.362 291.026 984.67 289.097C986.067 287.168 986.821 284.773 987.286 282.334C987.663 279.873 987.819 277.324 987.708 274.796C987.619 273.532 987.663 272.246 987.508 270.982C987.375 269.718 987.242 268.432 987.131 267.146C987.752 269.629 988.306 272.157 988.595 274.729C988.883 277.301 988.905 279.918 988.683 282.534C988.306 285.128 987.597 287.789 986.023 290.073C984.448 292.334 981.965 294.086 978.972 294.241L979.371 294.153C978.329 294.663 977.243 295.084 976.09 295.261C974.937 295.439 973.717 295.394 972.586 295.128C970.28 294.596 968.374 293.177 966.844 291.58C965.314 289.962 964.072 288.166 963.03 286.259C962.032 284.33 961.146 282.357 960.547 280.273Z" fill="white"/>
<path d="M971.434 311.092C973.407 312.489 975.513 313.664 977.708 314.574C979.903 315.483 982.187 316.148 984.515 316.303C986.843 316.414 989.127 315.948 991.122 314.928C993.207 313.975 994.759 312.201 996.222 310.471L996.333 310.36L996.466 310.272C998.55 308.787 1000.26 306.503 1001.17 303.997C1002.1 301.492 1002.23 298.698 1001.79 295.993C1001.68 294.618 1001.19 293.31 1000.83 291.958C1000.37 290.649 999.814 289.363 999.237 288.077C998.572 286.836 997.974 285.549 997.264 284.33C996.51 283.132 995.756 281.935 995.003 280.716C995.912 281.824 996.776 282.933 997.663 284.064C998.506 285.217 999.237 286.458 1000.01 287.656C1000.68 288.919 1001.32 290.228 1001.9 291.558C1002.36 292.933 1002.92 294.286 1003.14 295.749C1003.74 298.609 1003.72 301.691 1002.7 304.551C1001.68 307.39 999.925 309.917 997.331 311.691L997.574 311.469C995.956 313.354 994.204 315.305 991.81 316.325C989.504 317.434 986.887 317.833 984.404 317.522C981.921 317.19 979.549 316.392 977.376 315.261C975.225 314.108 973.185 312.755 971.434 311.092Z" fill="white"/>
<path d="M986.422 326.968C988.129 328.675 989.992 330.183 992.009 331.446C994.027 332.71 996.155 333.752 998.417 334.307C1000.68 334.817 1003.01 334.728 1005.16 334.063C1007.35 333.465 1009.19 332.001 1010.94 330.515L1011.06 330.404L1011.21 330.338C1013.49 329.229 1015.6 327.256 1016.89 324.95C1018.24 322.622 1018.84 319.917 1018.86 317.167C1018.97 315.793 1018.73 314.418 1018.62 313.044C1018.37 311.669 1018.06 310.316 1017.71 308.942C1017.24 307.611 1016.89 306.236 1016.4 304.928C1015.84 303.62 1015.31 302.312 1014.78 300.981C1015.49 302.223 1016.15 303.465 1016.84 304.729C1017.46 306.015 1018 307.345 1018.55 308.675C1018.99 310.028 1019.41 311.425 1019.75 312.844C1019.97 314.285 1020.3 315.704 1020.28 317.19C1020.37 320.116 1019.84 323.154 1018.35 325.793C1016.86 328.409 1014.71 330.626 1011.85 331.934L1012.12 331.757C1010.19 333.354 1008.15 334.972 1005.62 335.571C1003.16 336.28 1000.52 336.214 998.107 335.504C995.712 334.75 993.517 333.553 991.566 332.09C989.659 330.604 987.885 328.919 986.422 326.968Z" fill="white"/>
<path d="M1000.46 353.354C1002.16 355.061 1004.03 356.569 1006.04 357.833C1008.06 359.096 1010.19 360.139 1012.45 360.693C1014.71 361.203 1017.04 361.114 1019.19 360.449C1021.39 359.85 1023.23 358.386 1024.98 356.901L1025.09 356.813L1025.25 356.746C1027.53 355.637 1029.64 353.664 1030.92 351.358C1032.27 349.03 1032.87 346.325 1032.89 343.575C1033.01 342.2 1032.76 340.826 1032.65 339.451C1032.41 338.077 1032.1 336.724 1031.74 335.349C1031.28 334.019 1030.92 332.645 1030.43 331.336C1029.88 330.028 1029.35 328.72 1028.82 327.39C1029.52 328.631 1030.19 329.873 1030.88 331.137C1031.5 332.423 1032.03 333.753 1032.58 335.083C1033.03 336.436 1033.45 337.833 1033.78 339.252C1034 340.693 1034.34 342.112 1034.31 343.597C1034.4 346.524 1033.87 349.562 1032.38 352.201C1030.9 354.817 1028.75 357.034 1025.89 358.342L1026.15 358.165C1024.23 359.761 1022.19 361.38 1019.66 361.978C1017.2 362.688 1014.56 362.621 1012.14 361.912C1009.75 361.158 1007.55 359.961 1005.6 358.498C1003.67 356.968 1001.9 355.283 1000.46 353.354Z" fill="white"/>
<path d="M1015.13 379.473C1016.84 381.181 1018.7 382.688 1020.72 383.952C1022.74 385.216 1024.87 386.258 1027.13 386.812C1029.39 387.322 1031.72 387.234 1033.87 386.568C1036.06 385.992 1037.91 384.506 1039.66 383.043L1039.77 382.932L1039.92 382.866C1042.21 381.757 1044.31 379.783 1045.6 377.477C1046.95 375.149 1047.55 372.444 1047.57 369.695C1047.68 368.32 1047.44 366.946 1047.33 365.571C1047.08 364.196 1046.77 362.844 1046.42 361.469C1045.95 360.139 1045.6 358.764 1045.11 357.456C1044.56 356.147 1044.02 354.84 1043.49 353.509C1044.2 354.751 1044.87 355.992 1045.55 357.256C1046.18 358.542 1046.71 359.873 1047.26 361.203C1047.71 362.556 1048.13 363.952 1048.46 365.371C1048.68 366.812 1049.01 368.231 1048.99 369.717C1049.08 372.644 1048.55 375.682 1047.06 378.32C1045.58 380.937 1043.43 383.154 1040.57 384.462L1040.83 384.285C1038.9 385.881 1036.86 387.499 1034.34 388.098C1031.87 388.808 1029.24 388.741 1026.82 388.032C1024.42 387.278 1022.23 386.08 1020.28 384.617C1018.35 383.087 1016.58 381.402 1015.13 379.473Z" fill="white"/>
<path d="M1031.85 418.253C1033.56 419.961 1035.42 421.468 1037.44 422.732C1039.46 423.996 1041.59 425.038 1043.85 425.592C1046.11 426.102 1048.44 426.014 1050.59 425.348C1052.78 424.75 1054.62 423.286 1056.37 421.801L1056.49 421.69L1056.64 421.624C1058.92 420.515 1061.03 418.541 1062.32 416.235C1063.67 413.907 1064.27 411.202 1064.29 408.453C1064.4 407.078 1064.16 405.704 1064.05 404.329C1063.8 402.954 1063.49 401.601 1063.14 400.227C1062.67 398.896 1062.32 397.522 1061.83 396.214C1061.27 394.906 1060.74 393.597 1060.21 392.267C1060.92 393.509 1061.59 394.75 1062.27 396.014C1062.89 397.3 1063.43 398.631 1063.98 399.961C1064.42 401.313 1064.84 402.71 1065.18 404.129C1065.4 405.57 1065.73 406.989 1065.71 408.475C1065.8 411.402 1065.27 414.44 1063.78 417.078C1062.29 419.694 1060.14 421.912 1057.28 423.22L1057.55 423.042C1055.62 424.639 1053.58 426.257 1051.05 426.856C1048.59 427.565 1045.95 427.499 1043.54 426.789C1041.14 426.035 1038.95 424.839 1037 423.375C1035.07 421.868 1033.29 420.204 1031.85 418.253Z" fill="white"/>
<path d="M961.944 189.808C963.651 191.515 965.514 193.023 967.531 194.287C969.549 195.55 971.678 196.593 973.939 197.147C976.201 197.657 978.529 197.568 980.679 196.903C982.874 196.326 984.715 194.841 986.466 193.377L986.577 193.267L986.732 193.2C989.016 192.091 991.122 190.118 992.408 187.812C993.761 185.484 994.36 182.779 994.382 180.03C994.493 178.655 994.249 177.28 994.138 175.905C993.894 174.53 993.584 173.178 993.229 171.803C992.763 170.473 992.408 169.098 991.921 167.79C991.366 166.482 990.834 165.174 990.302 163.843C991.012 165.085 991.677 166.326 992.364 167.59C992.985 168.876 993.517 170.207 994.071 171.537C994.515 172.89 994.936 174.286 995.269 175.705C995.49 177.147 995.823 178.566 995.801 180.051C995.889 182.978 995.357 186.016 993.872 188.655C992.386 191.271 990.236 193.488 987.375 194.796L987.641 194.619C985.712 196.215 983.673 197.834 981.145 198.433C978.684 199.142 976.045 199.076 973.629 198.366C971.234 197.612 969.039 196.415 967.088 194.952C965.181 193.422 963.385 191.737 961.944 189.808Z" fill="white"/>
<path d="M1048.19 127.325C1049.9 129.032 1051.76 130.54 1053.78 131.804C1055.8 133.068 1057.93 134.109 1060.19 134.664C1062.45 135.174 1064.78 135.085 1066.93 134.42C1069.12 133.821 1070.96 132.358 1072.72 130.872L1072.83 130.761L1072.98 130.695C1075.27 129.587 1077.37 127.613 1078.66 125.307C1080.01 122.979 1080.61 120.274 1080.63 117.524C1080.74 116.15 1080.5 114.775 1080.39 113.401C1080.14 112.026 1079.83 110.673 1079.48 109.299C1079.01 107.968 1078.66 106.593 1078.17 105.285C1077.62 103.977 1077.08 102.669 1076.55 101.338C1077.26 102.58 1077.93 103.822 1078.61 105.086C1079.23 106.372 1079.77 107.702 1080.32 109.033C1080.76 110.407 1081.19 111.782 1081.52 113.201C1081.74 114.642 1082.07 116.061 1082.05 117.547C1082.14 120.473 1081.61 123.511 1080.12 126.15C1078.64 128.766 1076.49 130.983 1073.62 132.292L1073.89 132.114C1071.96 133.711 1069.92 135.329 1067.39 135.928C1064.93 136.637 1062.29 136.571 1059.88 135.861C1057.48 135.107 1055.29 133.91 1053.34 132.446C1051.43 130.939 1049.63 129.254 1048.19 127.325Z" fill="white"/>
<path d="M1165.08 141.914C1166.79 143.622 1168.65 145.129 1170.67 146.393C1172.69 147.657 1174.82 148.699 1177.08 149.254C1179.34 149.764 1181.67 149.675 1183.82 149.009C1186.01 148.411 1187.86 146.948 1189.61 145.462L1189.72 145.351L1189.87 145.285C1192.16 144.176 1194.26 142.203 1195.55 139.897C1196.9 137.569 1197.5 134.864 1197.52 132.114C1197.63 130.74 1197.39 129.365 1197.28 127.99C1197.03 126.615 1196.72 125.263 1196.37 123.888C1195.9 122.558 1195.55 121.183 1195.06 119.875C1194.51 118.567 1193.97 117.259 1193.44 115.928C1194.15 117.17 1194.82 118.411 1195.5 119.675C1196.13 120.961 1196.66 122.292 1197.21 123.622C1197.66 124.997 1198.08 126.372 1198.41 127.791C1198.63 129.232 1198.96 130.651 1198.94 132.136C1199.03 135.063 1198.5 138.101 1197.01 140.739C1195.53 143.355 1193.38 145.573 1190.52 146.881L1190.78 146.704C1188.85 148.3 1186.81 149.919 1184.29 150.518C1181.82 151.227 1179.19 151.16 1176.77 150.451C1174.37 149.697 1172.18 148.5 1170.23 147.036C1168.32 145.529 1166.53 143.866 1165.08 141.914Z" fill="white"/>
<path d="M1177.52 171.227C1178.59 173.4 1179.87 175.44 1181.38 177.28C1182.87 179.12 1184.55 180.806 1186.53 182.047C1188.5 183.245 1190.74 183.932 1193 183.998C1195.28 184.153 1197.5 183.333 1199.63 182.513L1199.78 182.446L1199.94 182.424C1202.47 182.114 1205.08 180.916 1207.06 179.165C1209.07 177.413 1210.52 175.018 1211.42 172.446C1211.98 171.183 1212.2 169.808 1212.51 168.455C1212.73 167.081 1212.87 165.684 1212.98 164.287C1212.98 162.89 1213.09 161.471 1213.02 160.052C1212.91 158.633 1212.84 157.236 1212.78 155.795C1213.04 157.192 1213.29 158.589 1213.51 160.008C1213.69 161.427 1213.75 162.846 1213.86 164.287C1213.84 165.728 1213.77 167.169 1213.64 168.611C1213.4 170.03 1213.24 171.493 1212.73 172.89C1211.89 175.683 1210.38 178.389 1208.14 180.407C1205.88 182.402 1203.13 183.799 1200.01 184.109L1200.32 184.043C1197.99 184.929 1195.53 185.817 1192.93 185.551C1190.38 185.418 1187.9 184.508 1185.84 183.067C1183.82 181.582 1182.11 179.741 1180.76 177.724C1179.41 175.706 1178.26 173.533 1177.52 171.227Z" fill="white"/>
<path d="M1184.77 204.863C1185.84 207.036 1187.12 209.076 1188.63 210.916C1190.12 212.756 1191.8 214.441 1193.78 215.683C1195.75 216.88 1197.99 217.568 1200.25 217.634C1202.53 217.79 1204.75 216.969 1206.88 216.148L1207.03 216.082L1207.19 216.06C1209.72 215.75 1212.33 214.552 1214.31 212.8C1216.32 211.049 1217.77 208.655 1218.67 206.083C1219.23 204.819 1219.45 203.444 1219.76 202.092C1219.98 200.717 1220.12 199.32 1220.23 197.923C1220.23 196.526 1220.34 195.107 1220.27 193.688C1220.16 192.269 1220.09 190.872 1220.03 189.431C1220.29 190.828 1220.54 192.225 1220.76 193.644C1220.94 195.063 1221 196.504 1221.11 197.923C1221.09 199.364 1221.02 200.805 1220.89 202.246C1220.65 203.665 1220.49 205.129 1219.98 206.526C1219.14 209.32 1217.63 212.025 1215.39 214.042C1213.13 216.038 1210.38 217.434 1207.26 217.745L1207.57 217.679C1205.24 218.566 1202.78 219.452 1200.18 219.186C1197.63 219.053 1195.15 218.144 1193.09 216.703C1191.07 215.217 1189.36 213.377 1188.01 211.359C1186.66 209.32 1185.51 207.169 1184.77 204.863Z" fill="white"/>
<path d="M1187.5 241.137C1188.56 243.31 1189.85 245.35 1191.36 247.191C1192.84 249.031 1194.53 250.716 1196.5 251.958C1198.48 253.155 1200.72 253.842 1202.98 253.909C1205.26 254.064 1207.48 253.244 1209.61 252.423L1209.76 252.357L1209.92 252.335C1212.44 252.024 1215.06 250.827 1217.03 249.075C1219.05 247.324 1220.49 244.929 1221.4 242.357C1221.96 241.093 1222.18 239.718 1222.49 238.366C1222.71 236.991 1222.84 235.595 1222.95 234.198C1222.95 232.801 1223.06 231.382 1223 229.962C1222.89 228.543 1222.82 227.147 1222.75 225.706C1223.02 227.102 1223.26 228.5 1223.49 229.919C1223.66 231.338 1223.73 232.779 1223.84 234.198C1223.82 235.639 1223.75 237.08 1223.62 238.521C1223.38 239.94 1223.22 241.404 1222.71 242.8C1221.87 245.594 1220.36 248.299 1218.12 250.317C1215.86 252.313 1213.11 253.709 1209.98 254.02L1210.29 253.953C1207.97 254.84 1205.5 255.727 1202.91 255.461C1200.36 255.328 1197.88 254.419 1195.82 252.978C1193.8 251.492 1192.09 249.652 1190.74 247.634C1189.39 245.617 1188.25 243.443 1187.5 241.137Z" fill="white"/>
<path d="M1057.24 145.573C1057.99 147.857 1058.95 150.074 1060.17 152.114C1061.39 154.154 1062.8 156.061 1064.56 157.591C1066.35 159.076 1068.46 160.074 1070.68 160.451C1072.91 160.939 1075.22 160.451 1077.44 159.941L1077.59 159.897H1077.75C1080.3 159.963 1083.05 159.165 1085.26 157.702C1087.53 156.261 1089.3 154.11 1090.56 151.671C1091.3 150.496 1091.72 149.165 1092.23 147.879C1092.63 146.549 1092.98 145.196 1093.29 143.822C1093.49 142.425 1093.8 141.05 1093.96 139.653C1094.07 138.234 1094.18 136.837 1094.33 135.418C1094.4 136.837 1094.42 138.256 1094.44 139.697C1094.42 141.116 1094.27 142.558 1094.18 143.977C1093.96 145.396 1093.69 146.815 1093.34 148.212C1092.87 149.586 1092.52 151.006 1091.83 152.314C1090.59 154.952 1088.7 157.413 1086.2 159.076C1083.67 160.739 1080.76 161.715 1077.62 161.582L1077.93 161.56C1075.49 162.092 1072.92 162.624 1070.39 161.981C1067.88 161.493 1065.55 160.229 1063.74 158.5C1061.94 156.748 1060.54 154.686 1059.48 152.469C1058.48 150.251 1057.64 147.946 1057.24 145.573Z" fill="white"/>
<path d="M1070.85 185.551C1072.52 187.613 1074.44 189.431 1076.57 190.917C1078.7 192.402 1081.05 193.555 1083.54 194.065C1086.02 194.597 1088.59 194.553 1091.03 193.821C1092.27 193.6 1093.4 192.956 1094.58 192.491C1095.71 191.936 1096.77 191.183 1097.88 190.54L1098.01 190.451L1098.12 190.407C1100.79 189.431 1103.4 187.746 1105.37 185.595C1107.39 183.444 1108.86 180.806 1109.68 177.945C1110.54 175.085 1110.61 172.025 1110.43 168.987C1110.28 167.48 1110.05 165.972 1109.83 164.442C1109.45 162.957 1109.1 161.471 1108.77 159.963C1109.3 161.405 1109.81 162.868 1110.32 164.331C1110.67 165.839 1111.07 167.347 1111.34 168.877C1111.69 171.981 1111.8 175.174 1111.05 178.278C1110.3 181.36 1108.79 184.309 1106.62 186.682C1104.42 189.054 1101.78 190.917 1098.63 192.003L1098.88 191.892C1097.7 192.579 1096.57 193.355 1095.33 193.932C1094.07 194.442 1092.83 195.063 1091.45 195.307C1090.12 195.706 1088.75 195.75 1087.35 195.839C1085.97 195.75 1084.6 195.639 1083.27 195.24C1080.63 194.508 1078.19 193.2 1076.13 191.493C1074.05 189.808 1072.21 187.835 1070.85 185.551Z" fill="white"/>
<path d="M1082.6 216.526C1084.27 218.588 1086.2 220.406 1088.32 221.892C1090.45 223.377 1092.8 224.53 1095.29 225.04C1097.77 225.572 1100.34 225.528 1102.76 224.796C1104 224.575 1105.13 223.931 1106.31 223.466C1107.44 222.911 1108.5 222.158 1109.61 221.515L1109.74 221.448L1109.85 221.404C1112.51 220.428 1115.13 218.743 1117.1 216.593C1119.12 214.442 1120.59 211.803 1121.41 208.943C1122.27 206.082 1122.34 203.023 1122.16 199.985C1122 198.478 1121.78 196.97 1121.56 195.44C1121.18 193.954 1120.83 192.469 1120.5 190.961C1121.03 192.402 1121.54 193.865 1122.05 195.329C1122.4 196.837 1122.8 198.344 1123.07 199.874C1123.42 202.978 1123.53 206.171 1122.78 209.275C1122.03 212.357 1120.52 215.306 1118.35 217.679C1116.15 220.051 1113.51 221.914 1110.36 223L1110.61 222.889C1109.43 223.577 1108.3 224.353 1107.06 224.929C1105.8 225.439 1104.55 226.06 1103.18 226.304C1101.85 226.703 1100.48 226.747 1099.08 226.836C1097.7 226.725 1096.33 226.636 1095 226.237C1092.36 225.506 1089.92 224.197 1087.86 222.49C1085.82 220.783 1083.98 218.81 1082.6 216.526Z" fill="white"/>
<path d="M1094.38 247.501C1096.09 249.586 1098.08 251.426 1100.3 252.889C1102.49 254.352 1104.95 255.461 1107.5 255.927C1110.05 256.37 1112.69 256.281 1115.18 255.505C1116.46 255.261 1117.59 254.574 1118.79 254.109C1119.94 253.532 1121.03 252.778 1122.16 252.113L1122.29 252.047L1122.4 252.002C1125.13 250.982 1127.81 249.297 1129.88 247.124C1131.98 244.973 1133.56 242.335 1134.51 239.452C1135.42 236.548 1135.64 233.444 1135.49 230.362C1135.4 228.81 1135.13 227.28 1134.95 225.728C1134.58 224.22 1134.22 222.69 1133.89 221.138C1134.42 222.623 1134.93 224.109 1135.42 225.617C1135.73 227.169 1136.17 228.699 1136.37 230.273C1136.7 233.444 1136.66 236.681 1135.86 239.852C1134.98 242.978 1133.33 245.927 1131.1 248.299C1128.81 250.672 1126.11 252.512 1122.94 253.643L1123.16 253.532C1121.96 254.22 1120.81 254.995 1119.54 255.616C1118.24 256.126 1116.99 256.792 1115.6 257.036C1112.91 257.834 1109.96 257.833 1107.26 257.168C1104.53 256.525 1102.01 255.24 1099.85 253.554C1097.7 251.825 1095.8 249.829 1094.38 247.501Z" fill="white"/>
<path d="M1179.59 263C1179.65 265.705 1180.1 268.366 1180.94 270.894C1181.78 273.399 1183.02 275.771 1184.77 277.7C1186.53 279.607 1188.65 281.181 1191.09 282.046C1192.25 282.622 1193.58 282.777 1194.82 283.154C1196.1 283.398 1197.41 283.465 1198.7 283.643L1198.83 283.665L1198.94 283.709C1201.71 284.573 1204.88 284.884 1207.83 284.441C1210.83 284.041 1213.69 282.911 1216.19 281.204C1218.7 279.452 1220.78 277.146 1222.53 274.618C1223.4 273.332 1224.13 271.958 1224.95 270.627C1225.59 269.208 1226.24 267.767 1226.92 266.348C1226.43 267.834 1225.92 269.341 1225.39 270.827C1224.71 272.246 1224.08 273.731 1223.29 275.084C1221.62 277.789 1219.58 280.339 1217.01 282.334C1214.4 284.263 1211.31 285.594 1208.08 286.081C1204.82 286.569 1201.56 286.348 1198.34 285.306L1198.59 285.35C1197.21 285.15 1195.82 285.062 1194.46 284.796C1193.11 284.397 1191.74 284.175 1190.47 283.51C1187.86 282.49 1185.55 280.694 1183.8 278.521C1182.05 276.348 1180.83 273.776 1180.16 271.137C1179.56 268.454 1179.27 265.705 1179.59 263Z" fill="white"/>
<path d="M1162.98 300.316C1163.04 303.021 1163.49 305.682 1164.33 308.209C1165.17 310.715 1166.42 313.088 1168.17 315.017C1169.92 316.923 1172.05 318.498 1174.49 319.362C1175.64 319.939 1176.97 320.094 1178.21 320.471C1179.5 320.715 1180.8 320.781 1182.09 320.959L1182.22 320.981L1182.33 321.025C1185.11 321.89 1188.28 322.201 1191.23 321.757C1194.22 321.358 1197.08 320.227 1199.58 318.52C1202.09 316.768 1204.17 314.463 1205.93 311.935C1206.79 310.649 1207.52 309.274 1208.34 307.944C1208.99 306.525 1209.63 305.083 1210.32 303.664C1209.83 305.15 1209.32 306.657 1208.79 308.143C1208.1 309.562 1207.48 311.048 1206.68 312.4C1205.02 315.105 1202.98 317.655 1200.4 319.651C1197.79 321.58 1194.71 322.91 1191.47 323.398C1188.21 323.886 1184.95 323.664 1181.74 322.622L1181.98 322.666C1180.61 322.466 1179.21 322.378 1177.86 322.112C1176.5 321.713 1175.13 321.491 1173.86 320.826C1171.25 319.806 1168.94 318.01 1167.19 315.837C1165.44 313.664 1164.22 311.092 1163.55 308.454C1162.98 305.749 1162.69 302.999 1162.98 300.316Z" fill="white"/>
<path d="M1099.77 271.359C1100.61 273.931 1101.81 276.348 1103.36 278.521C1104.89 280.694 1106.77 282.601 1109.01 283.931C1111.23 285.261 1113.73 286.126 1116.33 286.282C1117.61 286.503 1118.92 286.282 1120.21 286.259C1121.49 286.126 1122.78 285.816 1124.07 285.616L1124.2 285.594H1124.31C1127.21 285.616 1130.32 284.995 1133.02 283.709C1135.77 282.467 1138.17 280.561 1140.1 278.188C1141.98 275.793 1143.31 272.978 1144.26 270.029C1144.73 268.543 1145.04 267.013 1145.42 265.505C1145.62 263.953 1145.82 262.401 1146.06 260.849C1146.02 262.423 1145.97 263.997 1145.88 265.572C1145.62 267.124 1145.46 268.721 1145.11 270.273C1144.29 273.355 1143.07 276.37 1141.18 279.031C1139.23 281.625 1136.66 283.798 1133.71 285.195C1130.74 286.592 1127.55 287.346 1124.18 287.257L1124.44 287.235C1123.07 287.457 1121.72 287.767 1120.32 287.9C1118.92 287.922 1117.53 288.1 1116.13 287.834C1113.33 287.612 1110.61 286.547 1108.3 284.973C1106 283.399 1104.09 281.292 1102.69 278.942C1101.34 276.57 1100.28 274.042 1099.77 271.359Z" fill="white"/>
<path d="M1100.56 305.571C1101.41 308.143 1102.6 310.56 1104.16 312.733C1105.69 314.906 1107.57 316.813 1109.81 318.143C1112.03 319.473 1114.53 320.338 1117.13 320.493C1118.41 320.715 1119.72 320.493 1121.01 320.471C1122.29 320.338 1123.58 320.028 1124.86 319.828L1125 319.806H1125.11C1128.01 319.828 1131.12 319.208 1133.82 317.922C1136.57 316.68 1138.97 314.773 1140.89 312.401C1142.78 310.006 1144.11 307.19 1145.06 304.241C1145.53 302.755 1145.84 301.226 1146.22 299.718C1146.42 298.166 1146.62 296.614 1146.86 295.062C1146.81 296.636 1146.77 298.21 1146.68 299.784C1146.42 301.336 1146.26 302.933 1145.91 304.485C1145.09 307.567 1143.87 310.582 1141.98 313.243C1140.03 315.837 1137.46 318.01 1134.51 319.407C1131.54 320.804 1128.35 321.558 1124.98 321.469L1125.24 321.447C1123.87 321.668 1122.51 321.979 1121.12 322.112C1119.72 322.134 1118.32 322.312 1116.93 322.045C1114.13 321.824 1111.41 320.759 1109.1 319.185C1106.79 317.611 1104.89 315.505 1103.49 313.154C1102.14 310.782 1101.07 308.232 1100.56 305.571Z" fill="white"/>
<path d="M1104.09 340.427C1104.51 344.329 1105.97 348.165 1108.72 350.737C1110.1 351.979 1111.72 352.999 1113.51 353.509C1114.38 353.886 1115.33 353.907 1116.24 354.129C1117.17 354.262 1118.12 354.262 1119.08 354.329H1119.21L1119.32 354.351C1121.34 354.839 1123.62 354.972 1125.73 354.595C1127.86 354.241 1129.9 353.398 1131.69 352.134C1133.44 350.826 1134.95 349.163 1136.17 347.278C1136.79 346.347 1137.28 345.327 1137.86 344.329C1138.3 343.287 1138.74 342.223 1139.21 341.181C1138.92 342.289 1138.63 343.398 1138.3 344.529C1137.83 345.593 1137.48 346.702 1136.93 347.744C1135.82 349.806 1134.35 351.69 1132.54 353.265C1130.65 354.75 1128.39 355.793 1126.02 356.258C1123.62 356.702 1121.23 356.657 1118.81 356.014L1119.06 356.058C1118.04 355.97 1117.02 355.947 1116 355.792C1115 355.548 1113.96 355.438 1113 355.016C1111.03 354.396 1109.23 353.154 1107.84 351.646C1106.44 350.138 1105.4 348.298 1104.8 346.369C1104.27 344.418 1103.96 342.4 1104.09 340.427Z" fill="white"/>
<path d="M1133.05 360.626C1133.47 364.529 1134.93 368.364 1137.68 370.936C1139.05 372.178 1140.67 373.198 1142.47 373.708C1143.33 374.085 1144.29 374.107 1145.2 374.329C1146.13 374.462 1147.08 374.462 1148.03 374.529H1148.17L1148.28 374.551C1150.3 375.038 1152.58 375.171 1154.69 374.794C1156.81 374.44 1158.85 373.575 1160.65 372.333C1162.4 371.025 1163.91 369.362 1165.13 367.477C1165.75 366.546 1166.24 365.527 1166.81 364.529C1167.26 363.487 1167.7 362.422 1168.17 361.38C1167.88 362.489 1167.59 363.597 1167.26 364.728C1166.79 365.792 1166.44 366.901 1165.88 367.943C1164.77 370.005 1163.31 371.89 1161.49 373.464C1159.61 374.95 1157.35 375.992 1154.97 376.457C1152.58 376.901 1150.18 376.857 1147.77 376.214L1148.01 376.258C1146.99 376.169 1145.97 376.147 1144.95 375.992C1143.95 375.748 1142.91 375.637 1141.96 375.215C1139.99 374.595 1138.19 373.353 1136.79 371.845C1135.4 370.337 1134.35 368.497 1133.76 366.568C1133.2 364.595 1132.89 362.6 1133.05 360.626Z" fill="white"/>
<path d="M1149.03 329.407C1149.45 333.309 1150.92 337.145 1153.67 339.717C1155.04 340.959 1156.66 341.979 1158.46 342.489C1159.32 342.866 1160.27 342.888 1161.18 343.11C1162.11 343.243 1163.07 343.243 1164.02 343.31H1164.15L1164.26 343.332C1166.28 343.82 1168.57 343.952 1170.67 343.575C1172.8 343.221 1174.84 342.356 1176.64 341.114C1178.39 339.806 1179.9 338.143 1181.12 336.259C1181.74 335.327 1182.22 334.307 1182.8 333.309C1183.24 332.267 1183.69 331.203 1184.15 330.161C1183.86 331.27 1183.58 332.378 1183.24 333.509C1182.78 334.573 1182.42 335.682 1181.87 336.724C1180.76 338.786 1179.3 340.671 1177.48 342.245C1175.59 343.731 1173.33 344.773 1170.96 345.238C1168.57 345.682 1166.17 345.638 1163.75 344.995L1164 345.039C1162.98 344.951 1161.96 344.928 1160.94 344.773C1159.94 344.529 1158.9 344.418 1157.95 343.997C1155.97 343.376 1154.18 342.135 1152.78 340.627C1151.38 339.119 1150.34 337.278 1149.74 335.349C1149.19 333.398 1148.88 331.402 1149.03 329.407Z" fill="white"/>
<path d="M1210.56 285.838C1211.03 289.718 1212.51 293.554 1215.28 296.126C1216.68 297.367 1218.3 298.365 1220.09 298.853C1220.96 299.208 1221.91 299.252 1222.82 299.452C1223.75 299.563 1224.71 299.563 1225.66 299.629H1225.79L1225.9 299.651C1227.92 300.139 1230.2 300.25 1232.31 299.829C1234.44 299.452 1236.48 298.587 1238.25 297.323C1240 296.015 1241.49 294.33 1242.69 292.423C1243.31 291.492 1243.8 290.45 1244.35 289.474C1244.77 288.432 1245.21 287.368 1245.68 286.303C1245.41 287.412 1245.13 288.543 1244.79 289.652C1244.35 290.716 1243.99 291.847 1243.44 292.866C1242.35 294.929 1240.89 296.835 1239.09 298.432C1237.23 299.94 1234.97 301.004 1232.6 301.469C1230.2 301.935 1227.81 301.913 1225.39 301.27L1225.64 301.314C1224.62 301.226 1223.6 301.226 1222.58 301.07C1221.58 300.826 1220.54 300.738 1219.58 300.317C1217.59 299.718 1215.81 298.476 1214.4 296.991C1212.98 295.483 1211.93 293.665 1211.31 291.736C1210.76 289.807 1210.43 287.811 1210.56 285.838Z" fill="white"/>
<path d="M1226.77 251.825C1227.19 255.727 1228.65 259.563 1231.4 262.135C1232.78 263.376 1234.39 264.396 1236.19 264.906C1237.06 265.283 1238.01 265.305 1238.92 265.527C1239.85 265.66 1240.8 265.66 1241.76 265.727H1241.89L1242 265.749C1244.02 266.237 1246.3 266.369 1248.41 265.993C1250.54 265.638 1252.58 264.796 1254.37 263.532C1256.12 262.224 1257.63 260.561 1258.85 258.676C1259.47 257.745 1259.96 256.725 1260.54 255.727C1260.98 254.685 1261.42 253.621 1261.89 252.579C1261.6 253.687 1261.31 254.796 1260.98 255.927C1260.51 256.991 1260.16 258.1 1259.6 259.142C1258.5 261.204 1257.03 263.088 1255.21 264.663C1253.33 266.148 1251.07 267.19 1248.7 267.655C1246.3 268.099 1243.91 268.055 1241.49 267.412L1241.73 267.456C1240.71 267.368 1239.69 267.345 1238.67 267.19C1237.68 266.946 1236.63 266.835 1235.68 266.414C1233.71 265.793 1231.91 264.552 1230.51 263.044C1229.12 261.536 1228.08 259.696 1227.48 257.767C1226.92 255.793 1226.61 253.798 1226.77 251.825Z" fill="white"/>
<path d="M1196.64 324.662C1197.06 328.565 1198.52 332.4 1201.27 334.972C1202.64 336.214 1204.26 337.234 1206.06 337.744C1206.92 338.121 1207.88 338.143 1208.79 338.365C1209.72 338.498 1210.67 338.498 1211.6 338.565H1211.73L1211.85 338.586C1213.86 339.074 1216.15 339.207 1218.25 338.831C1220.38 338.476 1222.42 337.611 1224.22 336.369C1225.97 335.061 1227.48 333.398 1228.7 331.513C1229.32 330.582 1229.81 329.562 1230.38 328.565C1230.83 327.522 1231.27 326.458 1231.73 325.416C1231.45 326.524 1231.16 327.633 1230.83 328.764C1230.36 329.828 1230 330.937 1229.45 331.979C1228.34 334.041 1226.88 335.926 1225.06 337.5C1223.18 338.986 1220.91 340.028 1218.54 340.494C1216.15 340.937 1213.75 340.892 1211.34 340.249L1211.58 340.294C1210.56 340.205 1209.54 340.183 1208.52 340.028C1207.52 339.784 1206.48 339.673 1205.53 339.252C1203.55 338.631 1201.76 337.389 1200.36 335.881C1198.96 334.374 1197.92 332.533 1197.32 330.604C1196.79 328.653 1196.5 326.658 1196.64 324.662Z" fill="white"/>
<path d="M1187.32 360.538C1187.74 364.44 1189.21 368.276 1191.96 370.848C1193.33 372.089 1194.95 373.109 1196.75 373.619C1197.61 373.996 1198.56 374.019 1199.47 374.24C1200.4 374.373 1201.36 374.374 1202.29 374.44H1202.42L1202.53 374.462C1204.55 374.95 1206.83 375.083 1208.94 374.706C1211.07 374.351 1213.11 373.487 1214.91 372.245C1216.66 370.937 1218.16 369.274 1219.38 367.389C1220 366.458 1220.49 365.438 1221.07 364.44C1221.51 363.398 1221.96 362.334 1222.42 361.292C1222.13 362.4 1221.85 363.508 1221.51 364.639C1221.05 365.704 1220.69 366.813 1220.14 367.855C1219.03 369.917 1217.57 371.802 1215.75 373.376C1213.86 374.861 1211.6 375.903 1209.23 376.369C1206.83 376.812 1204.44 376.768 1202.02 376.125L1202.27 376.17C1201.25 376.081 1200.23 376.058 1199.21 375.903C1198.21 375.659 1197.17 375.549 1196.21 375.128C1194.24 374.507 1192.45 373.265 1191.05 371.757C1189.65 370.249 1188.61 368.409 1188.01 366.48C1187.48 364.506 1187.19 362.511 1187.32 360.538Z" fill="white"/>
<path d="M1097.79 382.022C1098.21 385.925 1099.68 389.761 1102.43 392.333C1103.8 393.575 1105.42 394.595 1107.22 395.105C1108.08 395.482 1109.03 395.504 1109.94 395.725C1110.87 395.858 1111.83 395.859 1112.78 395.925H1112.91L1113.02 395.947C1115.04 396.435 1117.33 396.568 1119.43 396.191C1121.56 395.837 1123.6 394.972 1125.4 393.73C1127.15 392.422 1128.66 390.759 1129.87 388.874C1130.5 387.943 1130.98 386.923 1131.56 385.925C1132 384.883 1132.45 383.819 1132.91 382.777C1132.62 383.885 1132.34 384.994 1132 386.125C1131.54 387.189 1131.18 388.298 1130.63 389.34C1129.52 391.402 1128.06 393.287 1126.24 394.861C1124.35 396.346 1122.09 397.389 1119.72 397.854C1117.33 398.298 1114.93 398.253 1112.51 397.61L1112.76 397.655C1111.74 397.566 1110.72 397.544 1109.7 397.388C1108.7 397.144 1107.66 397.034 1106.71 396.613C1104.73 395.992 1102.94 394.75 1101.54 393.242C1100.14 391.734 1099.1 389.894 1098.5 387.965C1097.95 386.013 1097.66 383.996 1097.79 382.022Z" fill="white"/>
<path d="M976.577 208.011C978.284 209.719 980.147 211.226 982.164 212.49C984.182 213.754 986.311 214.796 988.572 215.351C990.834 215.861 993.162 215.772 995.312 215.107C997.507 214.508 999.348 213.045 1001.1 211.559L1001.21 211.448L1001.37 211.382C1003.65 210.273 1005.76 208.3 1007.04 205.994C1008.39 203.666 1008.99 200.961 1009.01 198.211C1009.13 196.836 1008.88 195.462 1008.77 194.087C1008.53 192.712 1008.22 191.36 1007.86 189.985C1007.4 188.655 1007.04 187.28 1006.55 185.972C1006 184.664 1005.47 183.355 1004.94 182.025C1005.64 183.267 1006.31 184.508 1007 185.772C1007.62 187.058 1008.15 188.388 1008.7 189.719C1009.15 191.071 1009.57 192.469 1009.9 193.888C1010.12 195.329 1010.46 196.748 1010.43 198.233C1010.52 201.138 1009.99 204.198 1008.5 206.836C1007.02 209.453 1004.87 211.67 1002.01 212.978L1002.27 212.801C1000.35 214.397 998.306 216.016 995.778 216.615C993.317 217.324 990.678 217.258 988.262 216.548C985.867 215.794 983.672 214.597 981.721 213.133C979.814 211.626 978.018 209.963 976.577 208.011Z" fill="white"/>
<path d="M993.029 229.674C994.737 231.381 996.599 232.889 998.617 234.153C1000.63 235.417 1002.76 236.459 1005.02 237.013C1007.29 237.523 1009.61 237.434 1011.76 236.769C1013.96 236.171 1015.8 234.708 1017.55 233.244L1017.66 233.133L1017.82 233.067C1020.1 231.958 1022.21 229.985 1023.49 227.679C1024.85 225.351 1025.44 222.646 1025.47 219.896C1025.58 218.521 1025.33 217.146 1025.22 215.772C1024.98 214.397 1024.67 213.044 1024.31 211.67C1023.85 210.339 1023.49 208.965 1023.01 207.657C1022.45 206.349 1021.92 205.04 1021.39 203.71C1022.1 204.952 1022.76 206.193 1023.45 207.457C1024.07 208.743 1024.6 210.073 1025.16 211.404C1025.6 212.756 1026.02 214.153 1026.35 215.572C1026.58 217.013 1026.91 218.433 1026.89 219.918C1026.97 222.845 1026.44 225.883 1024.96 228.521C1023.47 231.137 1021.32 233.355 1018.46 234.663L1018.73 234.485C1016.8 236.082 1014.76 237.7 1012.23 238.299C1009.77 239.009 1007.13 238.943 1004.71 238.233C1002.32 237.479 1000.12 236.282 998.173 234.818C996.266 233.288 994.493 231.603 993.029 229.674Z" fill="white"/>
<path d="M1007.37 255.905C1009.08 257.612 1010.94 259.12 1012.96 260.384C1014.98 261.648 1017.11 262.689 1019.37 263.244C1021.63 263.754 1023.96 263.665 1026.11 263C1028.3 262.401 1030.14 260.938 1031.9 259.474L1032.01 259.363L1032.16 259.297C1034.45 258.189 1036.55 256.215 1037.84 253.909C1039.19 251.581 1039.79 248.875 1039.81 246.126C1039.92 244.751 1039.68 243.377 1039.57 242.002C1039.32 240.627 1039.01 239.275 1038.66 237.9C1038.19 236.569 1037.84 235.195 1037.35 233.886C1036.8 232.578 1036.26 231.27 1035.73 229.939C1036.44 231.181 1037.11 232.423 1037.79 233.687C1038.42 234.973 1038.95 236.304 1039.5 237.634C1039.94 238.987 1040.37 240.383 1040.7 241.802C1040.92 243.244 1041.25 244.663 1041.23 246.148C1041.32 249.075 1040.79 252.113 1039.3 254.752C1037.82 257.368 1035.67 259.585 1032.81 260.894L1033.07 260.716C1031.14 262.313 1029.1 263.931 1026.58 264.53C1024.11 265.239 1021.48 265.173 1019.06 264.463C1016.66 263.709 1014.47 262.512 1012.52 261.048C1010.61 259.518 1008.84 257.856 1007.37 255.905Z" fill="white"/>
<path d="M1018.53 276.392C1019.61 278.543 1020.9 280.583 1022.41 282.423C1023.92 284.263 1025.6 285.948 1027.57 287.168C1029.57 288.365 1031.79 289.053 1034.05 289.097C1036.33 289.252 1038.53 288.432 1040.66 287.589L1040.81 287.523L1040.97 287.501C1043.49 287.19 1046.11 285.993 1048.08 284.219C1050.1 282.445 1051.54 280.073 1052.43 277.479C1052.98 276.215 1053.18 274.84 1053.51 273.487C1053.71 272.113 1053.87 270.715 1053.96 269.319C1053.96 267.922 1054.05 266.503 1054 265.084C1053.89 263.665 1053.8 262.268 1053.74 260.827C1054 262.224 1054.25 263.62 1054.49 265.039C1054.69 266.458 1054.73 267.877 1054.85 269.319C1054.82 270.76 1054.78 272.201 1054.65 273.643C1054.4 275.062 1054.25 276.525 1053.76 277.922C1052.92 280.716 1051.43 283.421 1049.19 285.461C1046.93 287.478 1044.2 288.876 1041.08 289.208L1041.39 289.142C1039.06 290.029 1036.6 290.915 1034 290.671C1031.45 290.561 1028.97 289.651 1026.91 288.21C1024.87 286.747 1023.18 284.906 1021.81 282.889C1020.43 280.849 1019.28 278.698 1018.53 276.392Z" fill="white"/>
<path d="M1033.23 303.864C1034.31 306.015 1035.6 308.054 1037.11 309.895C1038.61 311.735 1040.3 313.421 1042.27 314.64C1044.27 315.837 1046.49 316.525 1048.75 316.569C1051.03 316.724 1053.23 315.904 1055.35 315.061L1055.51 314.995L1055.67 314.972C1058.19 314.662 1060.81 313.465 1062.78 311.691C1064.8 309.917 1066.24 307.545 1067.13 304.95C1067.68 303.686 1067.88 302.312 1068.21 300.959C1068.41 299.584 1068.57 298.188 1068.66 296.791C1068.66 295.394 1068.75 293.975 1068.7 292.556C1068.59 291.137 1068.5 289.74 1068.44 288.298C1068.7 289.695 1068.95 291.092 1069.19 292.512C1069.39 293.931 1069.43 295.35 1069.54 296.791C1069.52 298.232 1069.48 299.673 1069.35 301.114C1069.1 302.533 1068.95 303.997 1068.46 305.394C1067.62 308.187 1066.13 310.893 1063.89 312.933C1061.63 314.95 1058.9 316.347 1055.78 316.68L1056.09 316.613C1053.76 317.5 1051.3 318.387 1048.7 318.143C1046.15 318.032 1043.65 317.123 1041.61 315.682C1039.57 314.219 1037.88 312.378 1036.51 310.36C1035.13 308.32 1033.98 306.148 1033.23 303.864Z" fill="white"/>
<path d="M1043.8 333.398C1044.89 335.549 1046.18 337.589 1047.68 339.429C1049.19 341.27 1050.88 342.954 1052.85 344.174C1054.84 345.371 1057.06 346.059 1059.32 346.103C1061.61 346.258 1063.8 345.438 1065.93 344.596L1066.09 344.529L1066.24 344.507C1068.77 344.196 1071.39 342.999 1073.36 341.225C1075.38 339.451 1076.82 337.079 1077.7 334.485C1078.26 333.221 1078.46 331.846 1078.79 330.493C1078.99 329.119 1079.15 327.722 1079.23 326.325C1079.23 324.928 1079.32 323.509 1079.28 322.09C1079.17 320.671 1079.08 319.274 1079.01 317.833C1079.28 319.229 1079.52 320.626 1079.77 322.045C1079.97 323.464 1080.01 324.884 1080.12 326.325C1080.1 327.766 1080.05 329.207 1079.92 330.649C1079.68 332.068 1079.52 333.531 1079.03 334.928C1078.19 337.722 1076.71 340.427 1074.47 342.445C1072.21 344.463 1069.48 345.859 1066.35 346.192L1066.66 346.125C1064.33 347.012 1061.87 347.899 1059.28 347.655C1056.73 347.544 1054.25 346.636 1052.18 345.194C1050.14 343.731 1048.46 341.89 1047.08 339.872C1045.71 337.855 1044.56 335.682 1043.8 333.398Z" fill="white"/>
<path d="M1055.29 372.4C1056.37 374.551 1057.66 376.591 1059.17 378.431C1060.68 380.272 1062.36 381.957 1064.33 383.176C1066.33 384.374 1068.55 385.061 1070.81 385.106C1073.09 385.261 1075.29 384.44 1077.42 383.597L1077.57 383.531L1077.73 383.509C1080.25 383.198 1082.87 382.001 1084.84 380.227C1086.86 378.453 1088.3 376.081 1089.19 373.487C1089.74 372.223 1089.94 370.848 1090.28 369.496C1090.48 368.121 1090.63 366.724 1090.72 365.327C1090.72 363.93 1090.81 362.511 1090.76 361.092C1090.65 359.673 1090.56 358.276 1090.5 356.835C1090.76 358.232 1091.01 359.629 1091.25 361.048C1091.45 362.467 1091.49 363.886 1091.61 365.327C1091.58 366.768 1091.54 368.209 1091.41 369.65C1091.16 371.07 1091.01 372.533 1090.52 373.93C1089.68 376.724 1088.19 379.429 1085.95 381.469C1083.69 383.487 1080.96 384.883 1077.84 385.216L1078.15 385.149C1075.82 386.036 1073.36 386.924 1070.76 386.68C1068.21 386.569 1065.73 385.66 1063.67 384.218C1061.63 382.755 1059.94 380.915 1058.57 378.897C1057.19 376.857 1056.04 374.706 1055.29 372.4Z" fill="white"/>
<path d="M1179.07 300.516C1179.01 314.108 1178.94 327.7 1178.88 341.292C1158.7 345.194 1138.5 349.074 1118.32 352.977C1115.97 353.42 1113.53 353.93 1111.67 355.415C1109.54 357.123 1108.52 359.828 1107.59 362.378C1100.94 380.826 1105.66 409.938 1087.66 417.721C1061.21 429.162 1021.1 453.108 1012.01 478.363C1067.39 492.199 1173.11 513.175 1230.14 510.78C1237.39 510.469 1245.79 509.383 1249.58 503.175C1251.38 500.226 1251.73 496.656 1252.04 493.219C1256.9 438.697 1261.73 384.174 1266.59 329.651C1267.56 318.587 1268.34 306.591 1262.31 297.256C1254.42 285.039 1240.91 289.008 1229.25 291.159C1224.68 292.024 1179.1 297.811 1179.07 300.516Z" fill="#B0DFEB"/>
<path d="M1197.68 356.48C1183.13 350.493 1167.17 349.141 1151.6 350.604C1143.75 351.336 1135.97 352.777 1128.32 354.706C1123.6 355.881 1116.06 356.724 1112.36 359.917C1115.29 361.424 1120.27 360.404 1123.47 360.116C1130.23 359.518 1136.79 357.987 1143.49 356.945C1152.51 355.548 1161.65 354.795 1170.78 354.728C1178.54 354.662 1190.45 353.487 1197.68 356.48Z" fill="#B0DFEB"/>
<path d="M1158.68 437.433C1151.78 435.171 1144.89 432.887 1137.83 431.246C1132.71 430.049 1127.5 429.207 1122.31 428.364C1106.86 425.837 1090.87 423.309 1075.71 427.256C1079.72 424.24 1084 420.936 1088.97 419.739C1095.77 418.098 1104.47 419.938 1111.32 420.87C1120.47 422.111 1129.85 423.797 1138.52 427.078C1145.46 429.695 1151.85 435.171 1158.68 437.433Z" fill="#B0DFEB"/>
<path d="M1215.17 304.263C1210.18 301.447 1204.68 299.43 1198.96 298.875C1194.26 298.432 1186.61 298.654 1182.87 301.98C1184.2 302.712 1186.37 302.268 1187.85 302.223C1190.89 302.135 1193.93 302.179 1196.97 302.357C1203.06 302.689 1209.12 303.465 1215.17 304.263Z" fill="#B0DFEB"/>
<path d="M1229.25 291.203C1227.23 291.58 1217.17 292.911 1206.57 294.529C1212.18 298.52 1217.19 301.358 1220.87 308.919C1225.17 317.81 1226.52 327.788 1227.65 337.611C1227.88 339.495 1228.08 341.424 1227.54 343.243C1226.06 348.209 1219.81 350.005 1214.64 349.429C1209.47 348.852 1204.46 346.724 1199.3 347.212C1207.17 352.356 1215.7 358.431 1217.59 367.655C1218.45 371.823 1217.79 376.147 1216.99 380.337C1215.61 387.654 1213.84 394.905 1211.69 402.022C1209.74 408.519 1207.03 415.459 1201.14 418.829C1196.39 421.557 1190.56 421.357 1185.08 421.047C1164.6 419.894 1144.11 418.253 1123.69 416.124C1139.08 422.266 1154.44 428.408 1169.83 434.55C1175 436.612 1180.45 438.895 1183.71 443.396C1186.48 447.21 1187.28 452.088 1187.99 456.744C1190.76 474.926 1193.51 493.086 1196.28 511.267C1207.59 511.445 1218.87 511.312 1230.16 510.824C1237.41 510.513 1245.81 509.427 1249.6 503.218C1251.4 500.269 1251.75 496.7 1252.07 493.263C1256.92 438.74 1261.75 384.218 1266.61 329.695C1267.59 318.631 1268.36 306.635 1262.33 297.301C1254.42 285.084 1240.93 289.053 1229.25 291.203Z" fill="#B0DFEB"/>
<path d="M83.2415 337.323C93.8397 336.458 104.771 335.615 114.925 338.786C126.388 342.333 135.745 350.604 144.303 359.008C155.212 369.717 165.478 381.091 175.056 392.998C179.823 398.94 184.612 405.193 191.286 408.896C206.164 417.144 225.387 410.27 241.328 416.191C254.233 421.002 262.614 433.197 270.174 444.705C279.354 458.696 288.533 472.665 297.69 486.656C208.092 491.534 118.273 492.554 28.5873 489.694C25.7271 489.605 22.5343 489.361 20.5832 487.277C19.275 485.88 18.7872 483.951 18.3438 482.111C13.8207 463.109 9.65231 444.04 5.81654 424.883C3.04503 411.069 0.473087 397.144 0.362227 383.042C0.29571 371.801 1.98078 360.094 8.322 350.803C16.1266 339.362 25.5719 338.32 37.7 339.296C52.7105 340.493 68.0092 338.564 83.2415 337.323Z" fill="#B0DFEB"/>
<path opacity="0.7" d="M87.92 340.604C98.6735 339.629 109.804 340.094 119.848 344.085C104.66 345.372 89.4721 346.68 74.2842 347.966C68.1647 348.498 57.9655 349.761 53.2207 344.861C56.99 343.863 61.6461 344.595 65.6814 343.908C73.0647 342.666 80.448 341.292 87.92 340.604Z" fill="#B0DFEB"/>
<path opacity="0.7" d="M194.989 412.222C190.51 419.384 185.455 426.346 178.826 431.579C172.196 436.812 163.771 440.182 155.368 439.339C162.485 436.124 167.873 430.537 173.881 425.747C177.185 423.109 180.644 420.626 184.214 418.364C186.63 416.812 193.57 414.506 194.989 412.222Z" fill="#B0DFEB"/>
<path opacity="0.7" d="M225.853 419.827C227.826 419.029 229.866 418.364 231.994 418.342C234.81 418.32 237.493 419.473 240.043 420.714C250.264 425.681 260.352 433.042 263.7 443.906C259.776 439.361 255.674 434.905 250.752 431.468C245.83 428.031 240.021 425.614 234.012 425.636C224.899 425.636 216.762 431.002 209.268 436.146C206.718 437.898 204.19 439.782 201.53 441.401C205.321 431.268 216.186 423.73 225.853 419.827Z" fill="#B0DFEB"/>
<path d="M241.661 489.206C229.178 475.725 216.562 462.355 203.747 449.162C201.02 446.368 198.16 443.486 194.501 442.133C191.242 440.936 187.65 441.047 184.169 441.202C169.846 441.8 155.545 442.399 141.222 442.998C154.724 435.725 167.518 427.122 179.313 417.344C162.95 422.022 146.587 426.723 130.224 431.402C127.009 432.333 123.55 433.242 120.38 432.133C117.653 431.158 115.657 428.83 113.928 426.524C99.3829 407.012 93.7734 381.336 76.6122 364.063C62.5772 349.939 43.7088 344.396 24.9955 339.562C18.6322 340.649 13.1557 343.753 8.29996 350.848C1.95875 360.138 0.251469 371.846 0.340157 383.087C0.428846 397.167 3.02299 411.114 5.79451 424.927C9.63028 444.085 13.7986 463.153 18.3217 482.155C18.7652 483.995 19.253 485.946 20.5611 487.321C22.5344 489.405 25.7051 489.649 28.5653 489.738C99.6046 491.955 170.666 491.778 241.661 489.206Z" fill="#B0DFEB"/>
<path d="M906.58 501.068C891.126 452.798 863.167 408.586 826.228 373.886C823.412 371.247 819.443 370.138 815.696 371.158C803.391 374.484 790.509 381.358 785.498 392.334C785.054 393.287 784.766 394.329 784.589 395.437C783.746 400.715 786.318 405.903 790.708 408.941C829.975 436.08 863.211 471.889 887.334 513.064C893.609 511.867 902.522 505.991 906.58 501.068Z" fill="#F0D43A"/>
<path d="M794.057 389.583C796.651 386.279 800.109 383.752 803.679 381.513C807.249 379.273 810.996 377.234 815.054 376.147C816.739 375.681 818.801 375.504 819.976 376.79C821.107 378.032 820.796 379.983 820.264 381.579C817.071 391.49 808.624 399.539 798.58 402.244C795.764 402.998 790.509 403.796 790.154 399.938C789.822 396.324 791.906 392.31 794.057 389.583Z" fill="#BF872E"/>
<path d="M942.077 492.687C928.907 465.947 919.351 437.433 913.675 408.165C912.3 401.048 911.147 393.908 910.216 386.724C909.351 379.939 910.637 371.336 905.05 367.323C893.542 359.075 873.299 362.09 863.898 372.268C858.599 377.988 860.972 382.511 862.967 389.54C866.869 403.287 872.301 416.569 878.621 429.384C891.414 455.282 907.866 479.162 924.273 502.864C929.24 500.492 938.441 496.833 942.077 492.687Z" fill="#F0D43A"/>
<path d="M928.507 461.113C924.827 464.328 920.725 467.033 916.956 469.117C912.522 471.578 908.309 472.798 904.096 473.131C906.668 477.055 909.262 480.958 911.901 484.86C916.668 483.973 921.302 482.266 925.448 479.716C928.33 477.942 930.969 475.769 933.319 473.33C931.634 469.294 930.015 465.215 928.507 461.113Z" fill="#F29335"/>
<path d="M904.052 447.167C910.305 444.617 915.826 440.381 920.06 435.126C919.018 431.423 918.043 427.676 917.134 423.951C911.524 429.228 903.919 432.998 897.378 435.348C892.035 437.255 887.246 437.677 882.567 437.078C884.873 441.468 887.29 445.791 889.773 450.071C894.651 449.96 899.529 449.007 904.052 447.167Z" fill="#F29335"/>
<path d="M884.053 400.626C876.647 401.38 870.772 399.872 865.229 396.879C866.958 402.178 868.887 407.389 871.015 412.533C876.425 414.063 882.146 414.528 887.711 413.708C897.156 412.333 905.981 407.366 912.256 400.182C911.746 397.1 911.258 394.019 910.837 390.937C903.653 397.056 892.744 399.739 884.053 400.626Z" fill="#F29335"/>
<path d="M929.106 500.647C917.111 479.206 905.582 457.588 897.711 434.329C892.811 419.85 887.866 404.883 888.953 389.628C878.576 391.291 867.512 387.034 860.705 379.074C860.528 382.2 861.814 385.46 862.967 389.54C866.869 403.287 872.301 416.568 878.62 429.384C891.436 455.282 907.865 479.162 924.273 502.864C925.625 502.221 927.31 501.467 929.106 500.647Z" fill="#F0D43A"/>
<path d="M898.066 368.874C900.615 369.85 903.431 372.244 902.389 374.772C902.145 375.348 901.724 375.836 901.303 376.28C896.802 381.047 890.438 384.018 883.898 384.439C876.359 384.927 864.674 378.94 873.521 372.067C880.173 366.923 890.372 365.948 898.066 368.874Z" fill="#BF872E"/>
<path d="M851.682 450.98C855.185 448.697 858.378 445.947 861.415 443.064C865.65 439.029 869.752 434.351 872.368 429.184C869.641 424.971 866.825 420.803 863.876 416.745C862.612 419.228 860.994 421.557 859.154 423.641C855.384 427.92 850.772 431.379 846.072 434.617C841.638 437.699 836.782 440.692 831.705 442.466C835.939 446.523 840.041 450.714 844.054 454.993C846.693 453.907 849.265 452.555 851.682 450.98Z" fill="#F29335"/>
<path d="M876.47 482.488C879.995 480.226 883.21 477.499 886.248 474.638C888.731 472.31 891.17 469.761 893.299 467.033C891.059 462.178 888.665 457.388 886.159 452.666C885.516 453.53 884.829 454.395 884.119 455.193C880.328 459.45 875.672 462.865 870.971 466.08C867.357 468.541 863.455 470.958 859.397 472.71C862.923 477.078 866.337 481.534 869.641 486.057C872.013 485.059 874.297 483.885 876.47 482.488Z" fill="#F29335"/>
<path d="M843.278 391.335C839.953 387.655 836.582 384.041 833.079 380.56C832.37 384.75 830.574 388.764 828.224 392.333C825.075 397.101 820.973 401.136 816.761 404.994C811.972 409.406 806.561 413.774 800.597 416.08C805.342 419.628 809.976 423.309 814.521 427.1C818.135 425.304 821.528 423.087 824.565 420.426C827.736 417.677 830.507 414.528 833.124 411.246C837.824 405.415 842.103 398.541 843.278 391.335Z" fill="#F29335"/>
<path opacity="0.5" d="M893.521 467.521C877.357 432.399 854.431 400.36 826.228 373.885C825.008 372.755 823.59 371.912 822.06 371.402C822.37 372.156 822.636 372.91 822.836 373.664C823.723 377.145 823.7 380.892 822.836 384.373C822.592 385.326 819.222 394.151 817.825 393.508C823.434 396.08 828.711 399.428 833.412 403.42C837.248 406.679 840.706 410.337 844.143 413.995C855.961 426.523 867.757 439.029 879.574 451.556C884.408 456.723 889.263 461.889 893.521 467.521Z" fill="#F0D43A"/>
<path d="M968.308 500.536C983.762 452.266 1011.72 408.054 1048.66 373.353C1051.48 370.715 1055.44 369.606 1059.19 370.626C1071.5 373.952 1084.38 380.825 1089.39 391.801C1089.83 392.754 1090.12 393.797 1090.3 394.905C1091.14 400.182 1088.57 405.371 1084.18 408.409C1044.91 435.548 1011.68 471.357 987.553 512.532C981.278 511.334 972.387 505.458 968.308 500.536Z" fill="#F0D43A"/>
<path d="M1080.85 389.051C1078.26 385.747 1074.8 383.22 1071.23 380.981C1067.66 378.741 1063.91 376.701 1059.86 375.615C1058.17 375.149 1056.11 374.972 1054.93 376.258C1053.8 377.5 1054.11 379.451 1054.65 381.047C1057.84 390.958 1066.29 399.007 1076.33 401.712C1079.15 402.466 1084.4 403.264 1084.76 399.406C1085.09 395.792 1082.98 391.778 1080.85 389.051Z" fill="#BF872E"/>
<path d="M932.832 492.155C946.002 465.414 955.558 436.901 961.234 407.633C962.609 400.537 963.762 393.376 964.693 386.192C965.558 379.407 964.272 370.804 969.859 366.791C981.367 358.543 1001.61 361.558 1011.01 371.735C1016.31 377.456 1013.94 381.979 1011.94 389.008C1008.04 402.755 1002.61 416.036 996.289 428.852C983.495 454.75 967.044 478.629 950.636 502.332C945.648 499.96 936.468 496.301 932.832 492.155Z" fill="#F0D43A"/>
<path d="M946.401 460.581C950.082 463.796 954.184 466.501 957.953 468.586C962.387 471.047 966.6 472.266 970.813 472.599C968.241 476.523 965.646 480.426 963.008 484.328C958.241 483.441 953.607 481.734 949.461 479.184C946.579 477.41 943.94 475.237 941.59 472.798C943.275 468.763 944.871 464.683 946.401 460.581Z" fill="#F29335"/>
<path d="M970.857 446.635C964.604 444.085 959.084 439.85 954.849 434.595C955.891 430.892 956.866 427.144 957.775 423.419C963.385 428.697 970.99 432.466 977.531 434.817C982.874 436.723 987.663 437.145 992.342 436.546C990.036 440.936 987.619 445.26 985.136 449.539C980.236 449.428 975.38 448.475 970.857 446.635Z" fill="#F29335"/>
<path d="M990.834 400.094C998.239 400.848 1004.11 399.34 1009.66 396.346C1007.93 401.646 1006 406.856 1003.87 412C998.461 413.53 992.741 413.996 987.175 413.176C977.73 411.801 968.906 406.834 962.631 399.65C963.141 396.568 963.629 393.486 964.05 390.404C971.234 396.524 982.165 399.207 990.834 400.094Z" fill="#F29335"/>
<path d="M945.803 500.115C957.798 478.674 969.327 457.056 977.198 433.797C982.098 419.318 987.043 404.351 985.956 389.096C996.333 390.759 1007.4 386.502 1014.2 378.542C1014.38 381.668 1013.09 384.928 1011.94 389.008C1008.04 402.755 1002.61 416.036 996.289 428.852C983.495 454.75 967.044 478.629 950.636 502.332C949.262 501.689 947.577 500.935 945.803 500.115Z" fill="#F0D43A"/>
<path d="M976.822 368.342C974.272 369.318 971.456 371.712 972.498 374.24C972.742 374.816 973.163 375.304 973.584 375.748C978.085 380.515 984.449 383.486 990.99 383.908C998.528 384.395 1010.21 378.409 1001.37 371.535C994.737 366.391 984.537 365.415 976.822 368.342Z" fill="#BF872E"/>
<path d="M1023.21 450.448C1019.7 448.164 1016.51 445.415 1013.47 442.532C1009.24 438.497 1005.14 433.818 1002.52 428.652C1005.25 424.439 1008.06 420.271 1011.01 416.213C1012.27 418.696 1013.89 421.025 1015.73 423.109C1019.5 427.388 1024.11 430.847 1028.82 434.084C1033.25 437.166 1038.11 440.16 1043.18 441.934C1038.95 445.991 1034.85 450.182 1030.86 454.461C1028.19 453.374 1025.62 452.022 1023.21 450.448Z" fill="#F29335"/>
<path d="M998.44 481.955C994.914 479.694 991.699 476.966 988.662 474.106C986.178 471.778 983.739 469.228 981.611 466.501C983.85 461.645 986.245 456.856 988.75 452.133C989.393 452.998 990.081 453.863 990.79 454.661C994.582 458.918 999.238 462.332 1003.94 465.547C1007.55 468.008 1011.45 470.425 1015.51 472.177C1011.99 476.545 1008.57 481.002 1005.27 485.525C1002.87 484.527 1000.59 483.352 998.44 481.955Z" fill="#F29335"/>
<path d="M1031.61 390.803C1034.93 387.123 1038.3 383.509 1041.81 380.028C1042.52 384.218 1044.31 388.231 1046.66 391.801C1049.81 396.568 1053.91 400.604 1058.13 404.462C1062.92 408.875 1068.33 413.243 1074.29 415.549C1069.55 419.096 1064.91 422.777 1060.37 426.568C1056.75 424.772 1053.36 422.533 1050.32 419.894C1047.15 417.145 1044.38 413.996 1041.76 410.715C1037.09 404.883 1032.78 398.01 1031.61 390.803Z" fill="#F29335"/>
<path opacity="0.5" d="M981.389 466.989C997.553 431.867 1020.48 399.828 1048.68 373.353C1049.9 372.222 1051.32 371.38 1052.85 370.87C1052.54 371.624 1052.27 372.377 1052.07 373.131C1051.19 376.612 1051.21 380.36 1052.07 383.841C1052.32 384.794 1055.69 393.619 1057.08 392.976C1051.48 395.548 1046.2 398.896 1041.5 402.887C1037.66 406.146 1034.2 409.805 1030.77 413.463C1018.95 425.991 1007.15 438.497 995.335 451.024C990.502 456.191 985.646 461.357 981.389 466.989Z" fill="#F0D43A"/>
<path d="M443.583 405.438C458.771 381.048 470.3 352.112 463.249 323.909C462.54 321.026 461.387 318.21 459.591 315.838C449.303 302.091 431.521 311.026 422.519 322.49C401.589 349.163 401.744 387.078 384.406 416.213C384.361 416.302 384.317 416.369 384.25 416.457C378.486 425.969 363.785 419.717 366.424 408.919L376.601 367.278C377.31 364.418 377.998 361.314 375.648 358.72C373.009 355.793 368.575 355.682 365.271 357.833C359.75 361.425 358.642 368.165 357.489 374.285C355.404 385.327 352.322 396.192 348.265 406.679C346.912 410.183 345.139 414.018 340.726 414.395C338.088 414.617 335.538 413.309 333.853 411.269C330.35 407.012 330.483 401.468 330.638 396.258C331.858 356.657 330.195 316.968 325.649 277.612C325.095 272.734 323.078 268.055 319.619 264.574C308.732 253.599 294.786 263.177 289.287 274.308C279.62 293.909 285.54 317.456 293.478 337.811C301.837 359.252 312.501 381.136 309.109 404.151C308.732 406.657 307.624 409.051 305.672 410.67C298.733 416.435 290.618 408.209 286.693 401.003C278.955 386.812 271.55 371.07 256.517 364.174C247.094 359.85 235.808 361.092 228.403 368.32C221.418 375.128 222.66 382.755 224.5 389.894C232.815 421.779 254.544 449.96 283.279 466.08C309.996 481.09 349.108 487.964 378.973 477.987C405.846 469.073 429.371 428.253 443.583 405.438Z" fill="#2EFFB2"/>
<path d="M315.783 301.558C317.978 304.707 319.02 308.498 320.04 312.201C319.596 308.232 318.687 304.33 317.335 300.582C316.005 296.924 313.898 293.11 310.24 291.802C307.468 290.826 304.253 291.558 301.97 293.398C299.686 295.261 298.356 298.099 298.023 301.004C298.311 298.52 304.253 295.66 306.47 295.771C310.151 295.971 313.765 298.653 315.783 301.558Z" fill="#94FFD7"/>
<path opacity="0.4" d="M267.714 427.676C263.612 421.335 259.466 414.927 256.916 407.832C255.741 404.595 254.92 401.113 255.541 397.743C256.184 394.373 258.579 391.136 261.949 390.448C267.071 389.406 271.372 394.174 274.41 398.431C278.777 404.528 283.168 410.626 287.535 416.701C290.374 420.648 293.322 424.705 297.424 427.299C301.548 429.893 307.158 430.736 311.215 428.031C316.337 424.616 316.936 417.432 316.891 411.268C316.78 394.86 315.805 378.298 311.193 362.577C305.916 344.617 295.85 326.968 298.511 308.432C299.264 303.243 303.1 297.013 308.089 298.565C310.617 299.341 312.124 301.868 313.255 304.263C327.29 333.797 320.372 368.475 322.944 401.069C323.632 409.805 325.073 418.63 328.953 426.479C329.818 428.208 330.815 429.915 332.301 431.157C336.868 434.882 344.207 432.355 347.666 427.588C351.125 422.82 351.857 416.679 352.766 410.847C353.675 405.016 355.094 398.83 359.44 394.861C362.411 400.626 359.994 407.543 357.799 413.663C355.604 419.761 353.874 427.122 357.799 432.266C360.726 436.102 366.202 437.41 370.925 436.368C375.647 435.326 379.727 432.311 383.142 428.896C398.817 413.242 402.631 389.717 410.347 368.941C413.805 359.606 419.193 349.717 428.705 346.768C429.681 346.458 430.723 346.258 431.676 346.569C432.696 346.901 433.406 347.788 434.049 348.63C438.505 354.728 440.878 362.333 440.7 369.894C440.545 376.191 438.683 382.333 436.665 388.32C431.144 404.794 424.492 420.869 416.799 436.434C413.029 444.04 408.95 451.578 403.562 458.142C397.997 464.904 391.101 470.491 383.962 475.547C372.543 483.662 360.06 490.691 346.38 493.751C337.955 495.658 329.042 495.946 320.594 494.106C310.994 492.021 307.335 489.028 302.369 481.179C291.017 463.219 279.265 445.503 267.714 427.676Z" fill="#15BD7F"/>
<path opacity="0.4" d="M288.954 448.098C287.602 445.459 286.294 442.643 286.493 439.672C286.538 438.94 286.693 438.209 287.092 437.588C287.757 436.568 288.999 436.08 290.218 435.903C295.251 435.215 299.752 439.073 302.834 443.109C305.916 447.144 308.621 451.845 313.166 454.106C313.743 454.395 314.386 454.638 315.029 454.616C317.135 454.505 317.956 451.778 317.823 449.65C317.69 447.543 317.379 445.038 318.975 443.641C320.594 442.244 323.232 443.064 324.585 444.705C325.937 446.346 326.337 448.541 326.824 450.603C327.312 452.665 328.044 454.838 329.729 456.124C332.811 458.43 337.312 456.523 340.039 453.818C342.788 451.113 344.895 447.61 348.376 445.969C348.753 445.792 349.129 445.636 349.551 445.658C350.105 445.681 350.615 446.058 350.97 446.479C354.251 450.315 348.819 456.169 350.127 461.047C354.163 461.557 357.91 459.162 361.368 457.055C368.042 453.02 375.137 449.716 382.521 447.211C383.164 446.989 383.917 446.79 384.494 447.122C385.004 447.41 385.248 448.031 385.381 448.63C386.401 453.131 383.851 457.698 380.725 461.091C371.767 470.913 358.198 475.015 345.161 477.587C334.407 479.716 319.508 482.243 309.308 476.611C300.417 471.733 293.478 456.9 288.954 448.098Z" fill="#15BD7F"/>
<path d="M251.611 641.52C294.746 644.712 338.06 642.937 381.262 643.476C428.331 644.06 475.511 644.802 522.489 641.003C570.075 637.137 617.278 628.011 661.873 610.657C704.918 593.911 746.636 573.77 789.771 557.114C872.938 524.97 958.645 500.581 1047.16 488.96C1121.59 479.182 1196.53 481.407 1271.35 479.811V462.503C1239.41 454.029 911.555 483.677 813.62 494.265C715.685 504.852 596.463 492.152 394.21 477.339C191.956 462.525 19.5073 477.339 19.5073 477.339V649.725C91.2335 620.211 176.941 636.013 251.611 641.52Z" fill="white"/>
<path d="M18.7881 488.802C18.7881 488.802 191.236 473.989 393.49 488.802C595.744 503.616 714.965 516.316 812.901 505.729C910.836 495.141 1238.69 465.492 1270.63 473.967V717.429H18.7881V488.802Z" fill="#F9C169"/>
<path opacity="0.26" d="M250.847 653.029C293.982 656.221 337.296 654.445 380.498 654.985C427.566 655.569 474.747 656.311 521.725 652.512C569.31 648.646 616.513 639.52 661.109 622.167C704.154 605.42 745.872 585.28 789.007 568.623C872.174 536.479 957.881 512.09 1046.4 500.469C1120.82 490.691 1195.76 492.916 1270.59 491.32V474.012C1238.65 465.537 910.791 495.187 812.856 505.774C714.92 516.361 595.699 503.661 393.445 488.848C191.192 474.034 18.7432 488.848 18.7432 488.848V661.234C90.4693 631.72 176.177 647.522 250.847 653.029Z" fill="white"/>
<path opacity="0.24" d="M1177.56 507.212C1123.07 507.864 1069.08 511.168 1015.27 520.159C928.638 534.613 845.066 561.699 763.854 594.675C720.36 612.343 678.012 634.214 632.967 647.701C588.192 661.098 541.528 667.033 494.954 669.258C447.706 671.506 400.391 670.09 353.098 669.73C312.234 669.415 271.886 669.978 231.134 666.471C162.802 660.604 83.6136 648.263 18.8105 677.62V717.474H1270.63V506.268C1239.59 506.875 1208.55 506.83 1177.56 507.212Z" fill="#EA5A5A"/>
<path opacity="0.26" d="M284.047 677.777C330.755 680.385 377.441 683.779 424.24 684.431C470.701 685.083 516.645 681.464 562.769 675.934C657.535 664.56 752.391 643.273 838.03 599.913C878.76 579.277 917.646 556.26 960.264 539.446C980.336 531.534 1000.97 524.655 1021.94 519.058C1019.72 519.418 1017.49 519.755 1015.27 520.137C928.638 534.591 845.066 561.677 763.854 594.653C720.36 612.321 678.012 634.192 632.967 647.679C588.191 661.076 541.528 667.01 494.954 669.236C447.706 671.483 400.391 670.067 353.098 669.708C312.234 669.393 271.886 669.955 231.134 666.448C162.802 660.582 83.6136 648.241 18.8105 677.597V697.266C104.068 670.764 195.282 672.81 284.047 677.777Z" fill="white"/>
</svg>
