<svg width="1563" height="1042" viewBox="0 0 1563 1042" fill="none" xmlns="http://www.w3.org/2000/svg">
<path opacity="0.23" d="M1541.03 61.5481C1485.47 87.3793 1449.95 144.718 1410.64 189.329C1368.69 236.956 1317.98 272.92 1257.39 292.588C1226.81 302.521 1194.91 306.822 1164.22 316.135C1131.67 326.002 1100.67 340.303 1068.17 350.326C1000.01 371.301 922.012 370.702 854.01 349.239C822.969 339.439 795.321 324.472 767.162 308.463C755.079 301.59 742.84 294.716 729.891 289.572C714.038 283.297 697.498 280.371 680.957 276.535C542.869 244.65 415.424 175.227 289.797 111.836C240.62 87.0244 191.242 62.1021 138.672 45.14C95.5919 31.2377 43.7314 19.3312 0.141113 33.7878V53.7211C14.7303 53.7654 29.3196 54.0092 43.8866 54.7409C100.071 57.5347 155.279 67.6233 206.12 92.4789C233.103 105.672 257.337 122.922 280.707 141.68C307.313 163.01 335.139 183.143 363.586 201.945C391.722 220.548 421.012 237.577 451.432 252.189C481.431 266.601 513.691 275.803 545.707 284.495C578.433 293.386 611.403 301.634 643.243 313.474C673.264 324.627 701.999 338.973 730.468 353.518C783.969 380.835 837.004 410.325 895.339 426.112C924.318 433.961 953.851 437.952 983.895 437.287C1015.93 436.577 1047.73 426.511 1077.15 414.404C1107.02 402.099 1135.46 386.578 1164.31 372.143C1191.54 358.507 1219.45 347.62 1248.52 338.552C1301.4 322.033 1361.49 309.461 1402.41 269.395C1445.43 227.289 1471.24 170.549 1518.57 132.368C1532.32 121.281 1546.8 112.124 1562.05 104.275V52.9892C1554.94 55.539 1547.93 58.3552 1541.03 61.5481Z" fill="white"/>
<path opacity="0.15" d="M1371.13 23.2999C1341.82 30.6391 1315.83 40.2175 1290.31 56.2705C1259.54 75.6051 1225.79 90.1726 1190.98 100.549C1156.93 110.682 1121.89 117.002 1086.97 123.365C1046.33 130.793 1005.84 139.374 964.604 142.633C925.781 145.693 886.67 143.321 848.622 134.762C811.307 126.359 775.41 111.525 739.114 99.5739C667.609 76.0043 593.865 53.6098 528.59 15.2731C522.138 11.4816 519.123 5.93834 518.635 0.217773H423.229C442.208 6.86959 460.832 14.4308 479.257 22.7012C530.386 45.5835 578.588 74.2527 627.589 101.237C671.445 125.383 715.058 146.891 764.346 157.467C808.646 166.979 854.165 167.822 899.308 166.624C922.411 166.003 945.492 164.85 968.573 163.875C992.164 162.877 1015.91 163.01 1039.44 160.793C1083.93 156.58 1127.33 143.454 1168.9 127.556C1210.49 111.658 1250.71 92.4568 1291.64 74.9403C1333.59 57.0026 1376.5 42.7896 1419.42 27.5125C1441.77 19.5747 1463.99 10.9051 1485.14 0.239968H1467.33C1435.58 9.81859 1402.08 15.5617 1371.13 23.2999Z" fill="white"/>
<path opacity="0.1" d="M1510.06 200.083C1471.79 246.757 1443.06 300.415 1388.71 330.947C1336.14 360.503 1275.79 370.791 1219.98 392.232C1190.85 403.429 1163.56 419.46 1135.57 433.207C1105.73 447.863 1075 461.588 1042.76 470.036C913.365 503.96 796.829 432.254 685.37 377.354C656.08 362.942 626.481 350.725 595.151 341.368C562.78 331.701 529.832 324.006 497.55 314.006C431.277 293.475 371.036 258.774 314.697 218.753C265.43 183.764 220.598 140.527 163.195 118.931C110.979 99.2859 55.4827 95.539 0.185547 95.3838V1041.54H1562.08V151.902C1542.3 165.028 1525.27 181.525 1510.06 200.083Z" fill="white"/>
<path opacity="0.18" d="M1526.38 138.731C1512.01 167.755 1502.77 199.284 1499.15 231.435C1496.82 252.166 1495.96 275.204 1481.3 290.082C1468.33 303.252 1446.87 307.066 1437.03 322.698C1426.27 339.749 1434.34 362.498 1428.93 381.921C1418.78 418.373 1369.02 426.732 1346.98 457.508C1337.23 471.144 1332.22 489.592 1324.88 504.891L1324.66 457.819C1324.28 458.04 1323.88 458.24 1323.5 458.462C1324.01 447.553 1324.5 426.577 1320.2 431.499C1318.14 433.85 1316.92 439.526 1316.19 445.823L1298.74 451.832L1262.09 411.943C1262.58 384.782 1257.03 351.788 1235.39 321.301L1155.37 327L1153.47 303.008L1148.23 304.25L1142.93 255.958L1139.59 265.891L1147.97 304.317L1143.11 305.47C1143.11 305.47 1144.04 314.006 1145.53 327.709L1055.84 334.095C1055.84 334.095 1061.94 340.37 1069.79 352.033L1023.25 534.27C976.977 539.702 945.382 541.654 945.382 541.654C946.135 574.07 968.529 588.305 968.529 588.305C968.973 588.815 969.505 589.281 970.037 589.769C942.189 582.008 914.673 577.44 888.266 587.485C875.273 592.429 861.815 600.877 848.578 596.686C838.046 593.36 831.661 583.116 824.721 574.536C805.808 551.143 776.585 536.377 746.476 534.98C734.569 534.426 721.577 535.578 711.865 528.683C704.061 523.139 700.314 513.672 694.837 505.822C677.631 481.122 644.462 473.717 614.33 472.408C584.198 471.1 552.736 473.672 525.154 461.543C457.751 431.899 437.109 326.046 363.719 319.549C355.404 318.818 346.513 319.439 339.285 315.27C330.993 310.503 327.135 300.747 320.55 293.807C299.73 271.834 262.393 284.628 233.68 274.96C179.779 256.823 180.844 173.764 133.44 142.434C95.1707 117.135 40.8047 135.626 0.141113 114.363V826.906H1560.3L1562.05 102.678C1547.51 109.685 1533.54 124.274 1526.38 138.731ZM1168.92 476.665C1168.57 484.581 1180.96 409.903 1181.56 392.808C1182.16 375.713 1184.35 459.947 1179.5 476.754L1189.19 454.892L1190.89 474.049C1190.89 474.049 1199.07 459.06 1202.2 446.577C1205.33 434.094 1200.45 474.382 1200.45 474.382C1200.45 474.382 1212.13 461.411 1214.95 454.072C1213.95 458.174 1212.31 465.025 1212.31 465.025C1212.31 465.025 1223.35 458.484 1229.69 434.803C1236.04 411.123 1225.17 467.175 1225.17 467.175L1251.82 469.947C1251.82 469.947 1261.27 446.089 1262.11 413.407L1297.74 452.164L1274.99 459.992C1274.86 454.182 1273.97 450.502 1271.49 453.517C1266.77 459.26 1264.55 475.513 1263.68 484.515C1234.42 494.736 1202.25 503.25 1169.92 510.323L1165.77 457.996C1167.57 464.914 1169.08 473.162 1168.92 476.665ZM1120.3 520.101C1115.13 521.011 1110.01 521.898 1104.93 522.74L1108.88 490.657L1123.09 487.885L1120.3 520.101ZM1123.98 487.707L1138.97 484.78L1137.3 516.975C1131.89 517.995 1126.53 518.993 1121.18 519.947L1123.98 487.707ZM1144.73 418.529C1143.71 407.043 1151.23 467.84 1150.05 478.55C1149.08 487.508 1156.19 470.79 1159.08 457.331C1161.32 479.925 1163.16 499.614 1164.04 511.61C1155.4 513.45 1146.75 515.179 1138.17 516.82L1139.83 484.603L1159.72 480.701L1159.65 479.615L1139.88 483.495L1142.18 438.861C1143.89 430.923 1145.13 422.874 1144.73 418.529ZM1129.34 425.978L1129.54 423.606C1130.9 429.549 1136.04 452.896 1135.73 459.792C1135.53 464.071 1138.5 455.003 1141.07 443.961L1139.03 483.65L1124.09 486.577L1126.42 459.703C1128.26 451.521 1129.63 440.479 1129.34 425.978ZM1116.99 451.211L1118.46 479.548C1118.46 479.548 1122.03 475.313 1125.09 464.825L1123.18 486.754L1109.01 489.526L1110.74 475.446C1113.05 468.816 1115.29 460.745 1116.99 451.211ZM1109.41 479.149L1108.1 489.703L1104.53 490.412C1106.02 487.486 1107.7 483.716 1109.41 479.149ZM1101.25 491.056L1098.41 491.61L1098.48 492.696L1101.1 492.186C1100.79 494.204 1100.45 496.244 1100.05 498.284C1100.05 498.284 1101.65 496.067 1103.93 491.61L1107.99 490.811L1104.05 522.873C1079.48 526.953 1056 530.235 1035.02 532.829L1090.17 390.99C1100.32 417.043 1107.28 451.056 1101.25 491.056ZM1070.48 352.986C1076.6 362.21 1083.67 374.605 1089.7 389.793L1034.03 532.962C1030.7 533.383 1027.42 533.76 1024.23 534.137L1070.48 352.986ZM1273.79 480.878C1274.15 477.463 1274.57 472.652 1274.81 467.974L1302.62 457.508L1309.98 465.512C1298.72 470.989 1286.59 476.111 1273.79 480.878ZM1315.23 462.874C1313.82 463.606 1312.37 464.315 1310.91 465.047L1303.62 457.109L1315.61 452.586C1315.39 456.288 1315.28 459.881 1315.23 462.874Z" fill="#173D4C"/>
<path opacity="0.2" d="M1562.05 701.585C1539.55 694.379 1506.02 697.993 1483.19 700.499C1482.54 690.144 1482.01 679.701 1481.64 669.257C1484.65 670.521 1487.95 671.541 1491.39 671.541C1492.54 671.541 1493.7 671.431 1494.87 671.165C1496.27 670.854 1497.64 670.255 1498.91 669.457C1500.1 670.854 1501.72 671.919 1503.63 672.406C1504.52 672.65 1505.43 672.761 1506.31 672.761C1509.2 672.761 1511.97 671.564 1513.85 669.413C1518.53 664.069 1517.8 655.821 1514.67 650.411C1513.85 649.014 1512.17 648.593 1510.88 649.48C1509.59 650.366 1509.22 652.229 1510.04 653.648C1511.99 657.019 1512.48 662.273 1509.88 665.222C1508.75 666.508 1506.76 667.018 1504.92 666.53C1504.5 666.419 1503.7 666.131 1503.05 665.51C1503.79 664.513 1504.41 663.426 1504.87 662.273C1506.31 658.703 1506.2 655.067 1504.56 652.008C1503.79 650.566 1502.1 650.1 1500.79 650.965C1499.48 651.808 1499.06 653.67 1499.84 655.089C1500.77 656.797 1500.37 658.592 1499.86 659.812C1499.48 660.743 1498.93 661.608 1498.26 662.362C1497.89 662.606 1497.56 662.938 1497.33 663.315C1496.27 664.269 1495.03 664.956 1493.79 665.222C1489.86 666.065 1485.78 664.712 1481.41 662.606C1481.39 662.229 1481.39 661.83 1481.37 661.453C1487.2 661.364 1492.7 656.42 1494.87 650.566C1495.14 649.834 1495.36 649.103 1495.56 648.371C1501.55 648.216 1507.36 644.291 1510.02 638.304C1513.05 631.453 1511.59 622.673 1506.53 617.44C1505.43 616.287 1503.7 616.354 1502.65 617.573C1501.61 618.793 1501.66 620.699 1502.77 621.83C1506.07 625.245 1507.07 631.209 1505.07 635.688C1503.5 639.258 1500.08 641.763 1496.47 642.273C1496.69 637.994 1496.14 633.715 1495.54 629.79C1495.29 628.15 1493.87 627.041 1492.37 627.307C1490.88 627.573 1489.86 629.147 1490.11 630.788C1490.77 635.223 1491.35 639.812 1490.79 644.047C1490.7 644.291 1490.62 644.535 1490.59 644.779C1490.57 645.001 1490.55 645.2 1490.57 645.4C1490.37 646.375 1490.11 647.351 1489.77 648.282C1488.35 652.096 1484.74 655.466 1481.15 655.422C1480.99 649.812 1480.88 644.203 1480.82 638.615C1480.79 636.974 1479.57 635.644 1478.07 635.644H1478.02C1476.51 635.666 1475.29 637.041 1475.32 638.704C1475.34 640.855 1475.41 643.005 1475.43 645.134C1475.32 645.2 1475.18 645.245 1475.07 645.334C1473.5 646.42 1471.75 646.264 1470.57 645.954C1468.22 645.311 1466.03 643.515 1464.83 641.231C1464.47 640.544 1464.19 639.79 1463.92 639.014C1467.27 638.305 1470.46 636.154 1472.79 632.828C1476.07 628.172 1476.96 622.252 1475.09 617.418C1474.5 615.888 1472.9 615.156 1471.5 615.822C1470.11 616.465 1469.46 618.238 1470.04 619.768C1471.13 622.606 1470.51 626.176 1468.44 629.125C1466.96 631.232 1465.01 632.606 1463.01 633.072C1462.97 630.81 1463.17 628.305 1463.63 625.511C1463.9 623.87 1462.92 622.296 1461.44 622.008C1459.95 621.697 1458.51 622.784 1458.24 624.424C1457.58 628.415 1457.38 631.985 1457.62 635.178C1457.56 635.356 1457.51 635.533 1457.49 635.733C1457.38 636.509 1457.58 637.262 1457.96 637.883C1458.38 640.234 1459.06 642.34 1460.06 644.247C1462.01 647.95 1465.43 650.788 1469.24 651.83C1470.26 652.096 1471.26 652.229 1472.23 652.229C1473.37 652.229 1474.47 652.029 1475.52 651.675C1475.56 653.426 1475.6 655.2 1475.65 656.952C1475.43 657.684 1475.47 658.438 1475.72 659.103C1475.74 659.746 1475.76 660.366 1475.78 661.009C1475.21 661.298 1474.72 661.786 1474.43 662.451C1474.32 662.739 1474.25 663.027 1474.21 663.315C1467.98 664.49 1462.04 665.222 1457.51 662.318C1455.21 660.832 1453.57 657.462 1453.61 654.313C1453.63 652.916 1453.99 651.032 1455.63 650.034C1456.96 649.236 1457.45 647.395 1456.71 645.932C1455.98 644.468 1454.32 643.937 1452.99 644.757C1452.24 645.223 1451.57 645.777 1450.97 646.398C1451.04 641.409 1449.31 636.398 1445.96 632.939C1444.85 631.786 1443.12 631.852 1442.08 633.072C1441.04 634.291 1441.08 636.198 1442.19 637.329C1445.5 640.744 1446.49 646.708 1444.5 651.187C1442.92 654.757 1439.49 657.262 1435.89 657.772C1436.12 653.493 1435.56 649.214 1434.96 645.289C1434.72 643.648 1433.3 642.539 1431.79 642.806C1430.31 643.072 1429.29 644.646 1429.53 646.287C1430.2 650.699 1430.77 655.311 1430.22 659.546C1430.13 659.79 1430.04 660.034 1430.02 660.278C1430 660.5 1429.97 660.699 1430 660.898C1429.8 661.874 1429.53 662.85 1429.2 663.781C1427.78 667.595 1424.17 670.965 1420.57 670.92C1420.42 665.311 1420.31 659.701 1420.24 654.114C1420.22 652.473 1419 651.143 1417.49 651.143H1417.45C1415.94 651.165 1414.72 652.54 1414.74 654.203C1414.76 656.353 1414.83 658.504 1414.85 660.633C1414.74 660.699 1414.61 660.744 1414.5 660.832C1412.92 661.919 1411.17 661.763 1410 661.453C1407.65 660.81 1405.45 659.014 1404.26 656.73C1403.9 656.043 1403.61 655.289 1403.35 654.513C1406.69 653.803 1409.89 651.652 1412.21 648.327C1415.5 643.67 1416.38 637.75 1414.52 632.917C1413.92 631.387 1412.33 630.655 1410.93 631.32C1409.53 631.963 1408.89 633.737 1409.47 635.267C1410.55 638.105 1409.93 641.675 1407.87 644.624C1406.38 646.73 1404.43 648.105 1402.44 648.571C1402.39 646.309 1402.59 643.803 1403.06 641.009C1403.32 639.369 1402.35 637.795 1400.86 637.507C1399.38 637.196 1397.94 638.282 1397.67 639.923C1397 643.914 1396.81 647.484 1397.05 650.677C1396.98 650.854 1396.94 651.032 1396.92 651.231C1396.81 652.007 1397 652.761 1397.38 653.382C1397.8 655.732 1398.49 657.839 1399.49 659.746C1401.44 663.449 1404.85 666.287 1408.67 667.329C1409.69 667.595 1410.68 667.728 1411.66 667.728C1412.79 667.728 1413.9 667.528 1414.94 667.173C1414.99 668.925 1415.03 670.699 1415.08 672.451C1414.85 673.182 1414.9 673.936 1415.14 674.601C1415.16 675.244 1415.19 675.865 1415.21 676.508C1414.63 676.796 1414.14 677.284 1413.86 677.95C1413.74 678.238 1413.68 678.526 1413.63 678.814C1407.4 679.989 1401.46 680.721 1396.94 677.816C1394.63 676.331 1392.99 672.96 1393.04 669.812C1393.06 668.415 1393.41 666.508 1395.05 665.533C1396.38 664.734 1396.87 662.894 1396.14 661.431C1395.41 659.968 1393.75 659.435 1392.42 660.256C1389.38 662.096 1387.6 665.555 1387.56 669.746C1387.49 675.112 1390.15 680.455 1394.17 683.049C1397.49 685.2 1401.08 685.931 1404.85 685.931C1408.16 685.931 1411.57 685.377 1415.05 684.712C1415.21 684.69 1415.34 684.623 1415.47 684.579C1415.65 689.302 1415.85 694.002 1416.09 698.725C1391.66 693.603 1367.69 684.8 1343.26 679.191L1332.59 558.084C1332.59 558.084 1329.71 572.385 1329.71 592.407C1329.71 603.626 1330.62 610.345 1331.91 616.619C1332.93 621.542 1334.19 626.176 1335.48 632.473C1338.36 646.775 1329.71 661.076 1329.71 661.076C1329.71 661.076 1326.83 643.914 1323.95 635.334C1321.07 626.753 1318.18 606.731 1312.42 580.988C1306.65 555.246 1303.77 543.805 1303.77 543.805C1303.77 543.805 1298.01 555.245 1298.01 566.686C1298.01 578.128 1295.12 586.709 1300.89 601.01C1306.65 615.312 1306.65 632.473 1306.65 652.495V672.983C1305.61 672.85 1304.57 672.761 1303.51 672.628C1294.5 648.26 1269.18 578.926 1269.18 569.525V580.966C1269.18 592.407 1274.95 600.988 1277.83 615.289C1279.32 622.651 1280.8 634.579 1281.89 644.402C1282.91 653.67 1283.59 661.054 1283.59 661.054C1283.59 661.054 1274.95 646.752 1269.18 638.171C1263.42 629.59 1237.48 606.708 1237.48 606.708L1240.36 621.01C1240.36 621.01 1251.89 641.032 1254.77 658.193C1255.5 662.561 1256.61 666.176 1257.85 669.479C1247.17 669.08 1236.48 668.837 1225.84 668.615C1186.99 667.772 1146.68 667.173 1111.14 682.805C1090.03 692.073 1070.96 706.929 1048.19 710.676C1045.71 711.076 1043.23 711.341 1040.74 711.474C1040.83 711.186 1044.27 700.521 1044.4 695.843C1044.56 691.12 1044.71 686.397 1054.69 663.692C1064.67 640.987 1052.83 642.584 1049.88 644.624C1046.93 646.664 1048.66 658.77 1042.34 661.098C1036.02 663.426 1037.09 676.708 1035.24 684.513C1033.4 692.34 1033.25 697.062 1029.79 706.419C1028.99 708.548 1028.46 710.122 1028.02 711.32C1027.86 711.32 1027.73 711.297 1027.57 711.297C1028.84 706.885 1029.35 701.63 1028.55 695.355C1024.74 665.289 1022.36 667.085 1030.63 643.56C1038.9 620.012 1045.64 607.618 1042.87 594.913C1042.87 594.913 1029.52 614.979 1024.36 627.44C1019.19 639.879 1021.25 667.573 1014.38 680.699C1011.76 685.666 1010.35 691.696 1009.41 697.594C1008.86 696.33 1008.22 695.067 1007.49 693.803C996.067 674.224 995.136 676.442 994.448 658.548C993.761 640.677 989.77 647.418 994.204 626.487C998.639 605.556 998.484 591.941 994.071 580.766C989.659 569.591 984.293 588.349 983.806 604.092C983.296 619.835 976.555 632.229 976.09 646.42C975.646 660.588 976.932 670.1 982.875 682.894C984.56 686.508 986.112 689.879 987.531 692.983C987.154 692.761 986.755 692.539 986.356 692.317C967.021 682.384 953.075 670.921 950.215 661.364C947.333 651.808 944.428 643.848 944.783 632.828C945.138 621.808 947.022 612.407 945.692 604.491C944.362 596.575 933.098 600.943 932.854 608.815L932.211 629.281C932.056 634.003 934.473 657.728 934.473 657.728C934.473 657.728 936.934 665.156 939.927 671.253C939.528 671.142 939.107 671.076 938.686 671.054C931.945 670.854 929.728 658.814 926.269 657.817C922.81 656.819 911.081 659.058 927.821 677.417C939.462 690.189 943.807 696.22 945.936 700.189C902.035 699.635 857.048 707.107 817.05 690.167C763.903 667.661 733.483 607.285 679.006 588.15C638.875 574.048 592.89 585.223 553.179 569.969C523.58 558.594 502.161 534.536 479.679 511.654C482.495 502.63 485.244 480.368 485.244 460.812C485.244 440.79 482.362 389.305 482.362 389.305C482.362 389.305 476.597 403.607 473.715 417.908C470.832 432.209 473.715 446.511 473.715 466.533C473.715 486.554 462.185 500.856 462.185 492.275C462.185 483.694 459.303 472.253 459.303 452.231C459.303 432.209 450.656 369.261 450.656 369.261C450.656 369.261 447.773 395.003 444.891 415.025C442.009 435.047 439.126 446.488 439.126 446.488L437.308 475.468C412.741 460.08 384.738 452.808 355.892 447.309C357.267 445.38 357.976 443.961 357.976 443.961C357.976 443.961 364.828 434.715 366.468 430.28C368.109 425.846 369.794 421.411 386.512 403.052C403.252 384.693 391.523 382.454 388.064 383.451C384.605 384.449 382.388 396.489 375.648 396.688C375.226 396.711 374.805 396.777 374.406 396.888C377.399 390.791 379.86 383.363 379.86 383.363C379.86 383.363 382.277 359.638 382.122 354.915L381.479 334.45C381.235 326.578 369.971 322.21 368.641 330.126C367.311 338.042 369.195 347.443 369.55 358.463C369.905 369.483 366.978 377.465 364.118 387.021C361.258 396.578 347.312 408.041 327.978 417.974C327.578 418.174 327.179 418.396 326.802 418.64C328.221 415.536 329.773 412.165 331.459 408.551C337.401 395.757 338.687 386.245 338.243 372.077C337.8 357.909 331.037 345.514 330.527 329.749C330.017 314.007 324.652 295.248 320.262 306.423C315.849 317.598 315.694 331.212 320.129 352.143C324.563 373.074 320.572 366.312 319.885 384.205C319.197 402.077 318.244 399.881 306.848 419.46C306.116 420.724 305.473 421.987 304.919 423.251C304.01 417.353 302.568 411.323 299.952 406.356C293.079 393.252 295.118 365.558 289.975 353.097C284.808 340.658 271.461 320.569 271.461 320.569C268.689 333.274 275.43 345.669 283.7 369.217C291.97 392.764 289.575 390.946 285.784 421.012C285.141 426.067 285.341 430.457 286.117 434.271C285.828 434.205 285.562 434.138 285.274 434.072C285.052 433.473 284.831 432.808 284.542 432.076C281.061 422.719 280.906 417.997 279.088 410.17C277.248 402.343 278.312 389.061 271.993 386.755C265.674 384.449 267.426 372.321 264.455 370.281C261.506 368.241 249.666 366.644 259.643 389.349C269.621 412.054 269.776 416.777 269.931 421.5C269.998 423.739 270.818 427.353 271.683 430.546C257.914 426.644 244.477 421.832 231.152 416.622C231.307 416.067 231.462 415.535 231.64 415.003C234.522 406.422 231.64 394.981 231.64 386.401C231.64 377.82 228.757 352.077 220.11 357.797C219.356 358.285 218.713 359.061 218.137 359.993C217.095 349.749 215.033 337.576 211.463 323.452C208.936 313.452 208.581 334.893 205.698 349.195C202.816 363.496 208.581 374.937 205.698 392.099C204.767 397.62 203.26 401.633 201.619 404.582C199.18 403.562 196.763 402.564 194.324 401.544C194.568 391.079 195.255 375.336 197.051 366.356C199.934 352.055 185.522 280.526 185.522 280.526C185.522 280.526 185.522 311.989 173.992 352.033C167.186 375.713 167.407 386.4 168.738 391.167C159.669 387.642 150.534 384.294 141.266 381.301C127.542 376.866 113.241 373.296 98.7846 371.034C98.6294 367.531 98.4521 364.05 98.319 360.547C102.576 362.343 107.232 363.762 112.066 363.762C113.684 363.762 115.325 363.607 116.966 363.252C118.939 362.831 120.868 361.966 122.642 360.835C124.349 362.809 126.633 364.294 129.293 365.004C130.535 365.336 131.821 365.491 133.085 365.491C137.142 365.491 141.045 363.806 143.705 360.791C150.29 353.274 149.27 341.634 144.88 334.006C143.727 332.033 141.333 331.434 139.537 332.698C137.741 333.962 137.209 336.578 138.34 338.574C141.089 343.341 141.776 350.747 138.118 354.893C136.544 356.689 133.728 357.443 131.112 356.733C130.513 356.578 129.404 356.179 128.495 355.292C129.515 353.873 130.38 352.343 131.045 350.724C133.085 345.691 132.93 340.547 130.602 336.246C129.515 334.228 127.143 333.563 125.302 334.76C123.462 335.958 122.864 338.574 123.95 340.591C125.258 342.986 124.682 345.536 123.994 347.265C123.462 348.574 122.686 349.793 121.755 350.858C121.201 351.19 120.779 351.656 120.425 352.21C118.917 353.54 117.165 354.516 115.436 354.893C109.893 356.091 104.172 354.183 97.9864 351.212C97.9643 350.658 97.9421 350.126 97.9421 349.571C106.146 349.438 113.906 342.476 116.988 334.228C117.365 333.208 117.675 332.166 117.964 331.146C126.411 330.924 134.593 325.403 138.34 316.955C142.619 307.288 140.557 294.916 133.44 287.532C131.888 285.914 129.426 286.003 127.963 287.71C126.5 289.417 126.566 292.1 128.118 293.719C132.774 298.53 134.171 306.934 131.378 313.231C129.16 318.264 124.327 321.811 119.272 322.499C119.582 316.468 118.806 310.437 117.964 304.894C117.609 302.588 115.613 301.013 113.507 301.412C111.401 301.812 109.982 303.984 110.336 306.312C111.29 312.543 112.088 319.017 111.29 325.004C111.157 325.337 111.046 325.67 111.001 326.047C110.957 326.335 110.957 326.645 110.957 326.933C110.691 328.33 110.314 329.683 109.826 330.991C107.831 336.379 102.731 341.123 97.676 341.057C97.4765 333.141 97.2991 325.226 97.2104 317.354C97.1883 315.026 95.4588 313.164 93.3525 313.164H93.3081C91.1796 313.186 89.4724 315.115 89.4946 317.465C89.5389 320.481 89.6054 323.519 89.6719 326.534C89.5167 326.623 89.3393 326.689 89.1841 326.8C86.9669 328.352 84.5058 328.131 82.8429 327.665C79.5393 326.756 76.4352 324.206 74.7501 320.991C74.2401 320.015 73.8411 318.951 73.4863 317.842C78.209 316.844 82.6877 313.807 85.9914 309.128C90.6253 302.543 91.867 294.228 89.2507 287.421C88.4081 285.248 86.1466 284.251 84.1732 285.16C82.1999 286.069 81.2909 288.574 82.1112 290.725C83.6411 294.716 82.7764 299.771 79.8497 303.918C77.7655 306.889 74.994 308.818 72.1781 309.461C72.1116 306.29 72.3999 302.743 73.065 298.796C73.442 296.49 72.0673 294.273 69.9609 293.852C67.8546 293.43 65.8369 294.96 65.46 297.266C64.5066 302.898 64.2405 307.931 64.5953 312.432C64.5066 312.676 64.4622 312.942 64.4179 313.231C64.2627 314.339 64.5288 315.403 65.0609 316.246C65.6374 319.55 66.6351 322.543 68.032 325.226C70.7813 330.459 75.6148 334.45 80.9804 335.913C82.3995 336.29 83.8185 336.49 85.2153 336.49C86.8117 336.49 88.3638 336.201 89.8493 335.714C89.9158 338.197 89.9601 340.68 90.0267 343.164C89.6941 344.184 89.7606 345.248 90.1154 346.179C90.1375 347.066 90.1819 347.975 90.204 348.862C89.3837 349.261 88.6964 349.949 88.2751 350.902C88.0977 351.301 88.009 351.7 87.9647 352.122C79.1845 353.785 70.8035 354.826 64.4401 350.724C61.203 348.64 58.897 343.895 58.9414 339.438C58.9636 337.465 59.4735 334.804 61.7794 333.407C63.6419 332.277 64.3292 329.683 63.3093 327.643C62.2894 325.581 59.917 324.827 58.0545 325.98C53.7753 328.574 51.2699 333.452 51.2034 339.35C51.1147 346.911 54.8617 354.427 60.5156 358.086C65.1939 361.101 70.2713 362.143 75.5926 362.143C80.2488 362.143 85.0601 361.345 89.9823 360.414C90.1819 360.37 90.3814 360.303 90.581 360.237C90.6918 363.474 90.8692 366.733 91.0022 369.97C59.4735 366.157 27.6344 369.128 0.0966797 384.117V775.443H1561.99V701.585H1562.05ZM335.294 443.517L342.611 435.735C342.611 435.735 345.715 423.894 352.589 422.01C357.644 420.613 361.856 413.429 365.604 408.396C364.229 411.345 362.921 414.316 361.502 416.6C357.245 423.429 355.604 427.863 349.307 435.624C343.188 443.185 344.939 442.52 335.294 443.517ZM958.596 700.521C956.756 697.439 955.226 694.512 953.009 690.942C951.59 688.659 950.282 685.688 948.907 682.739C952.632 687.772 956.867 694.956 961.922 696.353C964.383 697.04 966.356 698.991 967.886 701.231C964.782 700.92 961.7 700.676 958.596 700.521ZM1420.86 676.93C1426.69 676.841 1432.19 671.896 1434.36 666.043C1434.63 665.311 1434.85 664.579 1435.05 663.847C1440.24 663.714 1445.3 660.743 1448.27 656.043C1448.58 659.169 1449.8 662.162 1451.61 664.491C1451.17 664.535 1450.75 664.668 1450.35 664.934C1449.06 665.821 1448.69 667.684 1449.51 669.103C1451.46 672.473 1451.95 677.728 1449.35 680.677C1448.22 681.963 1446.23 682.472 1444.39 681.985C1443.97 681.874 1443.17 681.586 1442.52 680.965C1443.26 679.967 1443.88 678.881 1444.34 677.728C1445.78 674.158 1445.67 670.522 1444.01 667.462C1443.23 666.021 1441.55 665.555 1440.24 666.42C1438.93 667.262 1438.51 669.125 1439.29 670.544C1440.22 672.251 1439.82 674.047 1439.31 675.267C1438.93 676.198 1438.38 677.062 1437.71 677.816C1437.34 678.06 1437 678.393 1436.78 678.792C1435.72 679.745 1434.48 680.433 1433.23 680.699C1429.31 681.541 1425.23 680.189 1420.86 678.082C1420.91 677.705 1420.88 677.329 1420.86 676.93ZM1450.31 702.694C1440.68 702.583 1431.17 701.43 1421.77 699.701C1421.53 694.712 1421.31 689.701 1421.11 684.712C1424.12 685.976 1427.45 686.996 1430.86 686.996C1432.01 686.996 1433.17 686.885 1434.34 686.619C1435.74 686.308 1437.11 685.71 1438.38 684.912C1439.58 686.308 1441.19 687.373 1443.1 687.883C1443.99 688.127 1444.9 688.237 1445.78 688.237C1448.67 688.237 1451.44 687.04 1453.32 684.889C1457.51 680.1 1457.36 672.96 1455.03 667.639C1458.29 669.679 1461.81 670.388 1465.49 670.388C1468.8 670.388 1472.21 669.834 1475.69 669.169C1475.85 669.147 1475.98 669.08 1476.11 669.036C1476.51 679.745 1477.05 690.455 1477.71 701.098C1468.53 702.029 1459.35 702.805 1450.31 702.694Z" fill="#173D4C"/>
</svg>
