<svg width="197" height="152" viewBox="0 0 197 152" fill="none" xmlns="http://www.w3.org/2000/svg">
<path d="M132.936 73.3507C132.936 73.3507 184.153 40.9118 180.738 53.7276C177.324 66.5213 161.116 89.5813 179.896 105.79C198.676 121.998 164.531 123.705 132.093 99.8247C132.093 99.8025 120.985 78.4725 132.936 73.3507Z" fill="#EA5A5A"/>
<path d="M136.35 94.6816C136.35 94.6816 180.739 117.719 196.104 113.461" stroke="#31697A" stroke-miterlimit="10"/>
<path d="M138.922 85.3018C138.922 85.3018 170.495 99.8037 185.018 93.8389" stroke="#31697A" stroke-miterlimit="10"/>
<path d="M139.765 77.6079C139.765 77.6079 177.324 84.4369 185.86 78.4729" stroke="#31697A" stroke-miterlimit="10"/>
<path d="M142.337 72.4868C142.337 72.4868 180.739 66.5217 189.275 53.7056" stroke="#31697A" stroke-miterlimit="10"/>
<path d="M0.634766 91.267C0.634766 91.267 54.4021 7.63144 154.265 0.802246C154.265 0.802246 98.7907 29.8262 102.205 36.6554C105.62 43.4846 123.535 46.8993 133.778 54.5711C144.022 62.2428 156.815 88.7173 127.814 105.79C98.7907 122.863 124.399 144.193 129.521 150.18C129.521 150.157 52.717 167.231 0.634766 91.267Z" fill="#F9C169"/>
<path opacity="0.44" d="M23.7603 118.073C25.4675 113.55 27.3078 109.049 29.1037 104.482C34.7355 90.158 36.6423 78.2066 32.6956 63.1957C32.1191 61.0228 31.4984 58.85 30.8554 56.6992C10.9226 75.28 0.634766 91.2889 0.634766 91.2889C7.95156 101.932 15.7561 110.778 23.7603 118.073Z" fill="#EA5A5A"/>
<path opacity="0.44" d="M48.4824 135.9C51.5643 137.607 54.6463 139.137 57.7061 140.512C66.4419 125.945 75.2884 111.222 77.683 94.9916C79.5011 82.708 75.2664 70.8237 71.8519 59.2052C69.0139 49.5157 66.6635 39.7597 65.9318 29.8042C62.1626 32.1323 58.5486 34.5269 55.0898 36.9659C58.1495 47.764 62.4287 58.6061 63.8699 68.7168C66.0649 84.0381 63.1825 98.0294 57.5951 112.331C54.5575 120.091 50.8548 127.851 48.4824 135.9Z" fill="#EA5A5A"/>
<path opacity="0.44" d="M75.9756 146.81C76.5964 146.965 77.1951 147.098 77.8159 147.231C83.1373 135.191 91.0083 125.479 94.312 111.732C97.8595 96.9652 97.8152 81.799 95.3319 66.788C93.9572 58.4732 92.3165 50.2251 90.8531 41.999C90.1657 41.2451 89.6115 40.4689 89.2568 39.6264C88.9685 38.9169 89.2567 37.9412 89.9441 36.7882C88.8576 30.1807 87.9708 23.5956 87.5052 17.0103C86.3522 17.5424 85.2214 18.0523 84.0906 18.6066C84.0906 18.8505 84.0906 19.0724 84.0684 19.3163C81.6516 47.121 96.2632 71.9099 92.7156 100.025C90.5206 117.475 83.1594 132.065 75.9756 146.81Z" fill="white"/>
<path opacity="0.44" d="M127.814 105.79C156.837 88.7171 144.022 62.2648 133.778 54.5709C123.535 46.8991 105.62 43.4843 102.205 36.6551C99.6555 31.5554 129.943 14.0832 145.441 5.56885C140.674 7.01008 135.885 8.47352 131.14 10.0478C120.564 13.5511 109.722 17.7641 100.831 24.682C96.7952 27.8084 92.9152 31.5779 90.1437 35.8794C89.9219 36.212 89.7889 36.5222 89.7002 36.8105C89.9441 37.4313 90.1658 38.0523 90.3875 38.6732C91.1635 39.4714 91.9396 40.2692 92.7822 41.0453C93.3808 41.5774 93.4695 41.6884 93.4695 41.7105C93.536 41.7549 93.8242 41.9321 94.7998 42.6194C96.1966 43.6172 97.6156 44.5708 99.0568 45.5242C105.509 49.8035 112.382 53.8389 117.947 59.2712C134.665 75.6347 125.708 95.3245 110.121 108.473C107.238 110.912 103.824 113.417 103.491 114.969C102.671 118.916 104.91 124.193 106.817 127.896C111.163 136.322 117.26 143.705 123.224 151.133C127.26 150.69 129.521 150.179 129.521 150.179C124.399 144.193 98.7908 122.863 127.814 105.79Z" fill="#EA5A5A"/>
<path d="M44.6019 80.1807C44.6019 85.8348 40.2119 90.4243 34.7797 90.4243C29.3697 90.4243 24.9575 85.8348 24.9575 80.1807C24.9575 74.5266 29.3476 69.9365 34.7797 69.9365C40.2119 69.9365 44.6019 74.5266 44.6019 80.1807Z" fill="white"/>
<path d="M42.2516 80.1805C42.2516 84.4821 38.9036 87.9634 34.7796 87.9634C30.6556 87.9634 27.3076 84.4821 27.3076 80.1805C27.3076 75.8788 30.6556 72.3976 34.7796 72.3976C38.9036 72.3754 42.2516 75.8788 42.2516 80.1805Z" fill="#31697A"/>
<path d="M12.5854 105.79C12.5854 105.79 27.0861 107.497 34.7798 99.8252" stroke="#31697A" stroke-miterlimit="10"/>
<path d="M56.1318 86.1443C56.1318 86.1443 90.2769 116.876 95.3986 108.339C100.52 99.8028 83.4478 94.6811 91.1415 94.6811C98.813 94.6811 106.507 87.8518 98.8131 83.5946C91.1416 79.3375 95.3986 73.3508 100.52 72.5082C105.62 71.6435 92.8266 56.2775 56.1318 86.1443Z" fill="#EA5A5A"/>
<path d="M56.1318 86.1445C56.1318 86.1445 84.2904 98.9385 97.1058 98.0959" stroke="#31697A" stroke-miterlimit="10"/>
<path d="M58.6816 81.8882C58.6816 81.8882 92.8267 77.6305 102.205 81.0231" stroke="#31697A" stroke-miterlimit="10"/>
</svg>
