<svg width="119" height="92" viewBox="0 0 119 92" fill="none" xmlns="http://www.w3.org/2000/svg">
<path d="M80.1393 44.4055C80.1393 44.4055 111.091 24.8044 109.029 32.5428C106.967 40.2811 97.1674 54.2057 108.52 64.0061C119.872 73.8066 99.2294 74.849 79.6292 60.3922C79.6292 60.3922 72.9333 47.5098 80.1393 44.4055Z" fill="#F9C169"/>
<path d="M82.2012 57.3101C82.2012 57.3101 109.029 71.2345 118.297 68.6625" stroke="#31697A" stroke-miterlimit="10"/>
<path d="M83.7529 51.6343C83.7529 51.6343 102.843 60.3921 111.601 56.8002" stroke="#31697A" stroke-miterlimit="10"/>
<path d="M84.2627 46.978C84.2627 46.978 106.967 51.1006 112.111 47.4878" stroke="#31697A" stroke-miterlimit="10"/>
<path d="M85.8154 43.8955C85.8154 43.8955 109.029 40.2817 114.196 32.5435" stroke="#31697A" stroke-miterlimit="10"/>
<path d="M0.186523 55.2481C0.186523 55.2481 32.6908 4.69444 93.0432 0.570312C93.0432 0.570312 59.519 18.109 61.581 22.2331C63.643 26.3572 74.4851 28.4191 80.6712 33.0753C86.8572 37.7094 94.5952 53.7181 77.0571 64.0284C59.519 74.3387 74.995 87.2434 78.0991 90.8576C78.0769 90.8354 31.6487 101.146 0.186523 55.2481Z" fill="#EA5A5A"/>
<path opacity="0.44" d="M14.1549 71.4346C15.1748 68.7073 16.3055 65.9801 17.3919 63.2307C20.7842 54.561 21.9594 47.3548 19.5648 38.286C19.2101 36.9556 18.8332 35.6474 18.4562 34.3613C6.41684 45.5809 0.186523 55.2703 0.186523 55.2703C4.62093 61.6784 9.32137 67.0221 14.1549 71.4346Z" fill="white"/>
<path opacity="0.44" d="M29.1211 82.2096C30.9835 83.2517 32.846 84.1609 34.6862 85.0034C39.9631 76.2008 45.3064 67.3098 46.7698 57.4872C47.8783 50.0594 45.3065 42.8754 43.2445 35.8688C41.5151 30.0152 40.1183 24.1172 39.6749 18.1084C37.3912 19.5275 35.2183 20.9686 33.112 22.432C34.9522 28.9508 37.5464 35.5142 38.4111 41.6339C39.7414 50.88 37.9898 59.3497 34.6197 67.9971C32.7794 72.6534 30.5401 77.3538 29.1211 82.2096Z" fill="white"/>
<path opacity="0.44" d="M45.7056 88.7949C46.0825 88.8836 46.4373 88.9725 46.8142 89.0391C50.0292 81.7664 54.7962 75.8908 56.7917 67.5982C58.9424 58.6626 58.9203 49.5053 57.4126 40.4367C56.57 35.4035 55.5944 30.4146 54.7075 25.4479C54.2862 25.0044 53.9537 24.5163 53.7541 24.0063C53.5767 23.5851 53.7541 22.9864 54.1754 22.299C53.5102 18.3079 52.9781 14.3171 52.7121 10.3481C52.0247 10.6586 51.3151 10.991 50.6499 11.3236C50.6499 11.4567 50.65 11.6117 50.6279 11.7448C49.1645 28.5517 58.0112 43.5183 55.8605 60.5247C54.508 71.0789 50.0513 79.8815 45.7056 88.7949Z" fill="white"/>
<path opacity="0.44" d="M77.0571 64.0063C94.5952 53.696 86.8571 37.7095 80.6711 33.0532C74.4851 28.4191 63.643 26.3573 61.581 22.211C60.029 19.129 78.3431 8.57426 87.7218 3.43018C84.8395 4.29491 81.9571 5.1823 79.0747 6.13573C72.667 8.24214 66.1262 10.792 60.7605 14.9826C58.3216 16.8673 55.9714 19.1507 54.3085 21.7449C54.1755 21.9444 54.0868 22.144 54.0425 22.2992C54.1755 22.6761 54.3307 23.0531 54.4638 23.43C54.9294 23.9178 55.395 24.4059 55.905 24.8494C56.2597 25.182 56.3261 25.2484 56.3261 25.2484C56.3705 25.2705 56.548 25.3814 57.1466 25.8027C57.9892 26.4013 58.8538 26.9779 59.7185 27.5544C63.6208 30.1486 67.767 32.5655 71.1372 35.8692C81.2476 45.7582 75.8155 57.6648 66.4145 65.6027C64.6629 67.0661 62.6009 68.596 62.4014 69.5273C61.8914 71.9219 63.266 75.0927 64.419 77.3321C67.0353 82.4319 70.7159 86.8888 74.33 91.3677C76.7689 91.1016 78.1435 90.7912 78.1435 90.7912C74.9951 87.2213 59.519 74.3166 77.0571 64.0063Z" fill="white"/>
<path d="M20.8284 54.7158C24.1101 54.7158 26.7705 51.9461 26.7705 48.5295C26.7705 45.113 24.1101 42.3433 20.8284 42.3433C17.5466 42.3433 14.8862 45.113 14.8862 48.5295C14.8862 51.9461 17.5466 54.7158 20.8284 54.7158Z" fill="white"/>
<path d="M25.3296 48.5298C25.3296 51.1239 23.3119 53.2305 20.8065 53.2305C18.3232 53.2305 16.2832 51.1239 16.2832 48.5298C16.2832 45.9356 18.301 43.8296 20.8065 43.8296C23.3119 43.8296 25.3296 45.9356 25.3296 48.5298Z" fill="#31697A"/>
<path d="M7.41455 64.0062C7.41455 64.0062 16.1727 65.0264 20.8289 60.3926" stroke="#31697A" stroke-miterlimit="10"/>
<path d="M33.7109 52.1438C33.7109 52.1438 54.353 70.7242 57.435 65.558C60.5391 60.3917 50.2069 57.3097 54.8631 57.3097C59.497 57.3097 64.1532 53.1855 59.4971 50.6135C54.8631 48.0414 57.435 44.4272 60.5391 43.9173C63.6432 43.3851 55.9052 34.0952 33.7109 52.1438Z" fill="#F9C169"/>
<path d="M33.7109 52.144C33.7109 52.144 50.739 59.8828 58.4771 59.3728" stroke="#31697A" stroke-miterlimit="10"/>
<path d="M35.2627 49.5718C35.2627 49.5718 55.9051 46.9999 61.559 49.0619" stroke="#31697A" stroke-miterlimit="10"/>
</svg>
