<svg id="Capa_1" data-name="Capa 1" xmlns="http://www.w3.org/2000/svg" xmlns:xlink="http://www.w3.org/1999/xlink" viewBox="0 0 323.52 450.06"><defs><style>.cls-1,.cls-2,.cls-5{fill:none;}.cls-10,.cls-11,.cls-12,.cls-13,.cls-14,.cls-2,.cls-4,.cls-5,.cls-6,.cls-7,.cls-8,.cls-9{stroke:#000;stroke-miterlimit:10;}.cls-3{fill:#edd9fe;}.cls-4{fill:#cbc0d3;}.cls-10,.cls-11,.cls-12,.cls-13,.cls-14,.cls-4,.cls-5,.cls-6,.cls-7,.cls-8,.cls-9{stroke-width:0.5px;}.cls-6{fill:#f4e6ff;}.cls-7{fill:#4381c1;}.cls-8{fill:#8e9aaf;}.cls-9{fill:#ccc;}.cls-10{fill:#efd3d7;}.cls-11,.cls-15{fill:#fff;}.cls-13{fill:#8c0003;}.cls-14{fill:#f57171;}.cls-15{opacity:0.25;}.cls-16{opacity:0.4;}.cls-17{clip-path:url(#clip-path);}.cls-18{clip-path:url(#clip-path-2);}.cls-19{clip-path:url(#clip-path-3);}.cls-20{fill:#e5caff;}</style><clipPath id="clip-path" transform="translate(-46.39 -30.17)"><path class="cls-1" d="M276.79,245c27.69-11.16,49.83-31.94,56.58-65.06,7.43-36.45-11.13-80.48-44.17-98.71C261.59,66.05,226,65.65,197.47,78.7c-20.75,9.5-38.31,25.44-50.84,44.52-8.31,12.66-14.54,26.85-16.94,41.8s-.84,30.71,5.63,44.41c7.58,16.07,21.61,28.64,37.71,36.15s34.17,10.2,51.93,9.68S260.74,251.51,276.79,245Z"/></clipPath><clipPath id="clip-path-2" transform="translate(-46.39 -30.17)"><path class="cls-2" d="M276.79,245c27.69-11.16,49.83-31.94,56.58-65.06,7.43-36.45-11.13-80.48-44.17-98.71C261.59,66.05,226,65.65,197.47,78.7c-20.75,9.5-38.31,25.44-50.84,44.52-8.31,12.66-14.54,26.85-16.94,41.8s-.84,30.71,5.63,44.41c7.58,16.07,21.61,28.64,37.71,36.15s34.17,10.2,51.93,9.68S260.74,251.51,276.79,245Z"/></clipPath><clipPath id="clip-path-3" transform="translate(-46.39 -30.17)"><path class="cls-3" d="M341.9,173.3a51.58,51.58,0,0,0-2.59-8.37,78.85,78.85,0,0,0-9.93-33.88,110,110,0,0,0-4.78-15.17,74.43,74.43,0,0,0-38.08-39.69,6.17,6.17,0,0,0-4.14-.28c-.44-.26-.88-.52-1.34-.76-11.39-6.07-24.52-8.05-37.3-7.53A183.65,183.65,0,0,0,199.1,75c-12.83,3.91-23.84,12.91-34,21.35-19.83,16.39-33.8,38.81-37.9,64.4a106.82,106.82,0,0,0-1.42,17.49c0,3.47-.09,7.7.89,11.41a60.76,60.76,0,0,0,2.18,18.12l-4.52,22.83a6.07,6.07,0,0,0,5.74,7.54c5.62.47,9-2.94,11.12-7.33,13.24,15.06,33.62,22.5,53.35,25.47A165.21,165.21,0,0,0,274.72,248c21-7.61,41-19.59,54.79-37.5C337.68,199.94,344.7,187.08,341.9,173.3ZM233.53,232.79l-1.63-.11-.61-.28c.76.11,1.52.19,2.29.26C233.56,232.71,233.55,232.75,233.53,232.79Zm-31.47-8.87c-1.49-.21-3-.38-4.48-.52l-2.27-1c1.76.27,3.5.63,5.21,1.06C201,223.61,201.54,223.77,202.06,223.92Zm-40.72-20.14c.11.47.23.92.37,1.36-.21-.16-.41-.32-.63-.46C161.17,204.39,161.25,204.08,161.34,203.78Zm124.19-9.28a32,32,0,0,1-2.59,3.48l.15-.73C283.93,196.36,284.74,195.44,285.53,194.5ZM274,177.9l.13-.17c.34-.43.67-.87,1-1.31-.14.73-.29,1.45-.43,2.17a7.17,7.17,0,0,0-1.12-.15Zm2.14,25.74a7.56,7.56,0,0,0,.95.05c-1.88,1.57-3.84,3-5.76,4.37l-2.45,1.67a5.31,5.31,0,0,0,.69-1.39A78.34,78.34,0,0,0,276.16,203.64ZM263,212.19a6.75,6.75,0,0,0,2.15-.05c-1.77,1.07-3.55,2.09-5.37,3l.12-1.41C260.93,213.25,262,212.72,263,212.19Zm-15.64,6.68.38.86a43,43,0,0,1-6.47,1.06C243.3,220.2,245.34,219.57,247.35,218.87Zm-31.3-47.93a2.72,2.72,0,0,1,0,.28l-.58-.46c0-.29,0-.59,0-.88C215.64,170.24,215.85,170.59,216.05,170.94Zm-36,36.81.55.71a18,18,0,0,1-3.15-1.37c.14-.84.28-1.67.4-2.51C178.51,205.66,179.25,206.72,180,207.75Z"/></clipPath></defs><path class="cls-4" d="M271.86,130.16a63.5,63.5,0,0,0-23.14-9.41h0c-1-1.87-2.26-4-2.47-4.35-2.75-4.57-6.49-8.76-11.37-11.08-4.62-2.2-9.69-2.22-14.59-1a11,11,0,0,0-4.39,1.92c-6.2,5,2.38,10.88,9.25,14.41A63.69,63.69,0,0,0,201,130.48,64.08,64.08,0,0,0,176,204.18c-27.2-7.23-27.91-43.83-22.38-48.57,7-6-1-7-1-7s-5,6-8,0-11-5-8,1,1,7,1,7c-4.18,6.07-5.61,19.06-2.73,33,2.26,10.9,7.16,22.38,15.44,31.6l.17.18a54.56,54.56,0,0,0,23.89,15.34,64.75,64.75,0,0,0,16.23,2.88c3.49.19,6.8.24,9.93.17,1.71,0,3.36-.11,5-.22,2.2-.14,4.3-.35,6.32-.61.8.22.61,2.54.46,3.87-.05.38-.09.68-.1.83-.14,1.81-.4,3.62-.51,5.44-.08,1.25-.34,3,.72,3.95a3.36,3.36,0,0,0,1.32.63c5.49,1.54,11.21-.26,16.47-1.84,4.28-1.28,8.48-2.82,12.62-4.52a64,64,0,0,0,29-117.15Zm-66.21,18.45c1,3,0,12-8,11s-18,8-18,8C181.65,155.61,205.65,148.61,205.65,148.61Zm-9,53c-6.08,0-11-6.94-11-15.5,0-.23,0-.46,0-.69v-.11a1.27,1.27,0,0,1,0-.2,15.13,15.13,0,0,1,1.24-6.16c1.84-5,5.51-8.34,9.76-8.34,6.08,0,11,6.94,11,15.5S202.73,201.61,196.65,201.61ZM246.73,230l0,.17a21.81,21.81,0,0,1-4.7,8.48,26.51,26.51,0,0,1-7,5.46,36.15,36.15,0,0,1-6.89,2.89,44.24,44.24,0,0,1-7,1.52.29.29,0,0,1-.24,0,.25.25,0,0,1-.06-.17c-.14-.94-.28-1.89-.44-2.84-.11-.7-.24-1.39-.39-2.08a20.61,20.61,0,0,0-1.9-5.5c14.86-3,24.05-9.19,29.62-14.91A26,26,0,0,1,246.73,230Zm12.92-28.43c-6.08,0-11-6.94-11-15.5,0-.23,0-.46,0-.69v-.11a1.27,1.27,0,0,1,0-.2,15.13,15.13,0,0,1,1.24-6.16c1.84-5,5.51-8.34,9.76-8.34,6.08,0,11,6.94,11,15.5S265.73,201.61,259.65,201.61Zm-4-48c5.92-6.9,19.62,17.32,20,18C255.65,160.61,249.65,160.61,255.65,153.61Z" transform="translate(-46.39 -30.17)"/><path class="cls-5" d="M200.65,239.61s0,.06-.07.17" transform="translate(-46.39 -30.17)"/><path class="cls-5" d="M248.65,206.61s1.93,2.9,6.8,4a20.49,20.49,0,0,0,8.2,0" transform="translate(-46.39 -30.17)"/><path class="cls-5" d="M203.65,202.61a71.57,71.57,0,0,1-7.48,1.82,48.41,48.41,0,0,1-16.55.51,32.52,32.52,0,0,1-3.59-.76" transform="translate(-46.39 -30.17)"/><path class="cls-5" d="M255.65,210.61v0c-.13.45-1.91,6.14-8,12.38" transform="translate(-46.39 -30.17)"/><path class="cls-5" d="M208.65,195.61s14-8,28-2" transform="translate(-46.39 -30.17)"/><path class="cls-5" d="M196.17,204.43s5.48,9.18,1.48,13.18" transform="translate(-46.39 -30.17)"/><path class="cls-5" d="M187.65,205.61s3,5,0,10" transform="translate(-46.39 -30.17)"/><path class="cls-5" d="M179.61,204.94a8.74,8.74,0,0,1,0,7.67" transform="translate(-46.39 -30.17)"/><path class="cls-5" d="M206.65,204.61s7,7,4,13" transform="translate(-46.39 -30.17)"/><path class="cls-5" d="M211.65,200.61s19-1,21,9" transform="translate(-46.39 -30.17)"/><path class="cls-5" d="M185.65,185.11a1.27,1.27,0,0,0,0,.2,20.77,20.77,0,0,1,1.23-6.36A15.13,15.13,0,0,0,185.65,185.11Z" transform="translate(-46.39 -30.17)"/><path class="cls-5" d="M248.65,185.11a1.27,1.27,0,0,0,0,.2,20.77,20.77,0,0,1,1.23-6.36A15.13,15.13,0,0,0,248.65,185.11Z" transform="translate(-46.39 -30.17)"/><path class="cls-5" d="M242.85,247.31c3.71-1.51,7.35-3.16,11-4.86,1.95-.92,3.9-1.86,5.82-2.84" transform="translate(-46.39 -30.17)"/><path class="cls-5" d="M248.65,185.11a1.27,1.27,0,0,0,0,.2,20.77,20.77,0,0,1,1.23-6.36A15.13,15.13,0,0,0,248.65,185.11Z" transform="translate(-46.39 -30.17)"/><path class="cls-5" d="M185.65,185.11a1.27,1.27,0,0,0,0,.2,20.77,20.77,0,0,1,1.23-6.36A15.13,15.13,0,0,0,185.65,185.11Z" transform="translate(-46.39 -30.17)"/><path class="cls-6" d="M201.65,259.61a9.49,9.49,0,0,1-3-5.36s-1.73,1.27-4.63,3.59h0a281.71,281.71,0,0,0-25.32,22.92h0c-18.08,18.55-37.68,44.39-37.91,69.42-.12,12.57,4.65,24.93,16.95,36.06a93.18,93.18,0,0,0,19.89,13.4C160.41,335.9,217.3,269.52,221,265.32l.1-.11,1.27-1.27C212.12,263.17,204,261.61,201.65,259.61Zm-33,74a6,6,0,1,1,6-6A6,6,0,0,1,168.65,333.61Zm12-22a6,6,0,1,1,6-6A6,6,0,0,1,180.65,311.61Z" transform="translate(-46.39 -30.17)"/><path class="cls-7" d="M179.62,405.17q-6.51-2.66-12-5.52C160.41,335.9,217.3,269.52,221,265.32l.1-.11,1.27-1.27c5.68.44,12,.63,18.33.52C240.66,264.46,166.58,342.73,179.62,405.17Z" transform="translate(-46.39 -30.17)"/><path class="cls-6" d="M290.21,308.15a23,23,0,1,1-6-45.49c-1.32-6.74-2.31-10.73-2.31-10.73a15.39,15.39,0,0,1-3.28,4.68c-5.28,5.28-21.64,7.57-38,7.85,0,0-74.08,78.27-61,140.71q5.38,2.2,11.48,4.25c1.57-3.12,3.15-6.08,4.51-8.58,2.33-4.3,4-7.23,4-7.23.22-.37.46-.74.73-1.11,2.77-3.9,7.9-7.52,11.78-9.81a26.11,26.11,0,0,1,11.09-3.77c7.39-.61,16.35,3.22,20.25,9.78a13.91,13.91,0,0,1,.7,1.32,17.26,17.26,0,0,1,1.08,10A45,45,0,0,1,239.15,416a53.8,53.8,0,0,0,16.69-5,48.8,48.8,0,0,0,15.47-12.15C289.77,377.19,292.26,339.8,290.21,308.15Zm-32.72-3.07a8.08,8.08,0,0,1-1.61,1.64,13,13,0,1,1-13.71-18.46h0a8.46,8.46,0,0,1,4.9-3,10.92,10.92,0,0,1,4.16-.1c1.85.34,2.91,1.1,3.19,2.27a3.23,3.23,0,0,1-.27,2.2A2.48,2.48,0,0,1,252.4,291l-.09,0a12.87,12.87,0,0,1,3,3.43A6.35,6.35,0,0,1,258.7,299,7.16,7.16,0,0,1,257.49,305.08Z" transform="translate(-46.39 -30.17)"/><path class="cls-5" d="M221.15,265.11l-.09.1" transform="translate(-46.39 -30.17)"/><path class="cls-7" d="M290.21,308.15a23,23,0,1,1-6-45.49c.35,1.81.73,3.82,1.12,6a17,17,0,1,0,4.42,33.66,2.64,2.64,0,0,1,0,.29C290,304.43,290.09,306.28,290.21,308.15Z" transform="translate(-46.39 -30.17)"/><circle class="cls-7" cx="134.25" cy="275.44" r="6"/><circle class="cls-7" cx="122.25" cy="297.44" r="6"/><path class="cls-8" d="M199.19,472.25a10.11,10.11,0,0,1-1,1.16c-5.66,5.65-16.71,6.91-24.26,6.51-15.23-.8-29.54-11.85-36.27-25.31-1.42-2.83-1.27-7.67,1.07-11.89C138.72,442.72,148.73,487.9,199.19,472.25Z" transform="translate(-46.39 -30.17)"/><path class="cls-6" d="M209.74,452.24c-2.83,4.79-5.23,9.83-7.62,14.86a27.51,27.51,0,0,1-2.93,5.15c-50.46,15.65-60.47-29.53-60.47-29.53,2.61-4.71,8-8.64,16.93-8.11,9.88.58,17.4-1.88,22.94-6.21C183.72,429.53,201.25,434.61,209.74,452.24Z" transform="translate(-46.39 -30.17)"/><path class="cls-7" d="M214,445.79c-.64.81-1.26,1.65-1.85,2.53-.85,1.29-1.67,2.59-2.44,3.92-8.49-17.63-26-22.71-31.15-23.84a28.4,28.4,0,0,0,5.06-5.1C187.26,424.7,209.48,433.76,214,445.79Z" transform="translate(-46.39 -30.17)"/><path class="cls-6" d="M231.15,427.05c-1.84,2.23-3.73,4.4-5.58,6.5-3.77,4.28-8,7.78-11.54,12.24-4.55-12-26.77-21.09-30.38-22.49a33.66,33.66,0,0,0,4-6.69c1.09-2.39,2.27-4.83,3.45-7.19,1.57-3.12,3.15-6.08,4.51-8.58.46,0,14.13-1.42,28.23,15.59A77.83,77.83,0,0,1,231.15,427.05Z" transform="translate(-46.39 -30.17)"/><path class="cls-7" d="M236.61,419.89c-1.71,2.47-3.56,4.85-5.46,7.16a77.83,77.83,0,0,0-7.31-10.62c-14.1-17-27.77-15.64-28.23-15.59,2.33-4.3,4-7.23,4-7.23.22-.37.46-.74.73-1.11a54.51,54.51,0,0,1,34.17,23.94C235.26,417.54,236,418.69,236.61,419.89Z" transform="translate(-46.39 -30.17)"/><path class="cls-6" d="M245.28,400A45,45,0,0,1,239.15,416c-.8,1.33-1.65,2.65-2.54,3.93-.66-1.2-1.35-2.35-2.06-3.45a54.51,54.51,0,0,0-34.17-23.94c2.77-3.9,7.9-7.52,11.78-9.81a26.11,26.11,0,0,1,11.09-3.77c7.39-.61,16.35,3.22,20.25,9.78a13.91,13.91,0,0,1,.7,1.32A17.26,17.26,0,0,1,245.28,400Z" transform="translate(-46.39 -30.17)"/><path class="cls-8" d="M98.17,424.78a17.35,17.35,0,0,1-5.52,2.83c-40-3-46-33-46-33a25.31,25.31,0,0,1,1-3.89C47.92,391.58,56.34,419,98.17,424.78Z" transform="translate(-46.39 -30.17)"/><path class="cls-6" d="M110,409.76a22.38,22.38,0,0,0-5.38,6.85,20.33,20.33,0,0,1-6.48,8.17c-41.83-5.74-50.25-33.2-50.5-34.06,6-17.24,27-11.11,27-11.11a62,62,0,0,0,15.54-4C90.49,381.72,92.75,404,110,409.76Z" transform="translate(-46.39 -30.17)"/><path class="cls-7" d="M119,403a67.07,67.07,0,0,0-9,6.74c-17.28-5.81-19.54-28-19.84-34.11,2.7-1,5.37-2.21,8-3.49C98.17,372.16,102.34,401.44,119,403Z" transform="translate(-46.39 -30.17)"/><path class="cls-6" d="M136.74,394.31a82.66,82.66,0,0,1-10.09,4.3S123.2,400.33,119,403c-16.65-1.58-20.82-30.86-20.82-30.86a138.62,138.62,0,0,0,16.9-10S117.83,388,136.74,394.31Z" transform="translate(-46.39 -30.17)"/><path class="cls-7" d="M142,391.25a53.62,53.62,0,0,1-5.26,3.06c-18.91-6.3-21.67-32.11-21.67-32.11,2.63-1.79,5.06-3.56,7.24-5.21C122.31,357,122.36,385.88,142,391.25Z" transform="translate(-46.39 -30.17)"/><path class="cls-6" d="M147.69,386.25a24.36,24.36,0,0,1-5.68,5h0C122.36,385.88,122.31,357,122.31,357c3.57-2.71,6.46-5.11,8.43-6.8C130.62,362.76,135.39,375.12,147.69,386.25Z" transform="translate(-46.39 -30.17)"/><path class="cls-5" d="M47.67,390.72v0" transform="translate(-46.39 -30.17)"/><path class="cls-5" d="M195.61,400.84h0" transform="translate(-46.39 -30.17)"/><path class="cls-9" d="M255.88,306.72a13,13,0,1,1-13.71-18.46l-.21.27a7,7,0,0,0-1.18,6,5.51,5.51,0,0,0,3.66,4.2,20,20,0,0,0,5.12.7c1.81.09,2.79.43,2.93,1,.27,1.2-.34,2-1.85,2.32a8.62,8.62,0,0,1-2.62,0,7.75,7.75,0,0,0-2.58,0,2.55,2.55,0,0,0-1.76,1.28,3,3,0,0,0-.29,2.16q.48,2.06,3.73,2.48a13.9,13.9,0,0,0,5.07-.28A9.35,9.35,0,0,0,255.88,306.72Z" transform="translate(-46.39 -30.17)"/><path class="cls-7" d="M257.49,305.08a8.08,8.08,0,0,1-1.61,1.64,9.35,9.35,0,0,1-3.69,1.69,13.9,13.9,0,0,1-5.07.28q-3.26-.42-3.73-2.48a3,3,0,0,1,.29-2.16,2.55,2.55,0,0,1,1.76-1.28,7.75,7.75,0,0,1,2.58,0,8.62,8.62,0,0,0,2.62,0c1.51-.35,2.12-1.12,1.85-2.32-.14-.59-1.12-.93-2.93-1a20,20,0,0,1-5.12-.7,5.51,5.51,0,0,1-3.66-4.2,7,7,0,0,1,1.18-6l.21-.27h0a8.46,8.46,0,0,1,4.9-3,10.92,10.92,0,0,1,4.16-.1c1.85.34,2.91,1.1,3.19,2.27a3.23,3.23,0,0,1-.27,2.2A2.48,2.48,0,0,1,252.4,291l-.09,0a7,7,0,0,1-1.95,0,6.54,6.54,0,0,0-2.07,0c-1.12.25-1.59.78-1.41,1.56.1.41,1.06.66,2.87.76a15.37,15.37,0,0,1,5.16.91,2.69,2.69,0,0,1,.38.19A6.35,6.35,0,0,1,258.7,299,7.16,7.16,0,0,1,257.49,305.08Z" transform="translate(-46.39 -30.17)"/><path class="cls-9" d="M255.29,294.42a2.69,2.69,0,0,0-.38-.19,15.37,15.37,0,0,0-5.16-.91c-1.81-.1-2.77-.35-2.87-.76-.18-.78.29-1.31,1.41-1.56a6.54,6.54,0,0,1,2.07,0,7,7,0,0,0,1.95,0A12.87,12.87,0,0,1,255.29,294.42Z" transform="translate(-46.39 -30.17)"/><path class="cls-7" d="M281.93,251.93a15.39,15.39,0,0,1-3.28,4.68c-5.28,5.28-21.64,7.57-38,7.85-6.32.11-12.65-.08-18.33-.52-10.21-.77-18.34-2.33-20.68-4.33a9.49,9.49,0,0,1-3-5.36c-1.32-6,1.49-13.27,2-14.47,1.71,0,3.36-.11,5-.22a60.4,60.4,0,0,0,6.78,3.26c-.05.38-.09.68-.1.83-.14,1.81-.4,3.62-.51,5.44-.08,1.25-.34,3,.72,3.95a3.36,3.36,0,0,0,1.32.63c5.49,1.54,11.21-.26,16.47-1.84,4.28-1.28,8.48-2.82,12.62-4.52a63.65,63.65,0,0,0,34.78-14.53C280,235.77,285.43,244,281.93,251.93Z" transform="translate(-46.39 -30.17)"/><path class="cls-10" d="M369.39,175.46v0l-.18,2.25a.22.22,0,0,1,0,.08h0a100.75,100.75,0,0,1-21.7,54.39,116,116,0,0,1-24.94,23q-3.07,2.1-6.39,4.13a158.87,158.87,0,0,1-15.52,8.29l-.48.18-4.48,1.65-1.95.72-3.94,1.45L286.1,273c-.25-1.51-.5-3-.74-4.32-.39-2.18-.77-4.19-1.12-6-1.32-6.74-2.31-10.73-2.31-10.73,3.5-7.92-2-16.16-4.3-19.15a64,64,0,0,0-5.77-102.62c9.35-13.41,33-42.53,57.79-35.55a19.63,19.63,0,0,0,10,11C347.24,109.41,369.36,158.7,369.39,175.46Z" transform="translate(-46.39 -30.17)"/><path class="cls-4" d="M369.39,175.46c0-16.76-22.15-66.05-29.74-69.85a19.63,19.63,0,0,1-10-11c-24.82-7-48.44,22.14-57.79,35.55a62.9,62.9,0,0,0-9.76-5.29c10.08-12.43,35.82-40.92,61.55-43.26C343.18,79.83,372.87,126,369.39,175.46Z" transform="translate(-46.39 -30.17)"/><path class="cls-5" d="M369.39,175.5a12.74,12.74,0,0,1-.18,2.25" transform="translate(-46.39 -30.17)"/><path class="cls-6" d="M289.78,302.32a17,17,0,1,1-4.42-33.66c.24,1.37.49,2.81.74,4.32C287.47,281.2,288.87,291.31,289.78,302.32Z" transform="translate(-46.39 -30.17)"/><path class="cls-6" d="M298,300.25c-2.66.86-5.4,1.65-8.2,2.36a2.64,2.64,0,0,0,0-.29c-.91-11-2.31-21.12-3.68-29.34l3.7-1.37S300.35,284.89,298,300.25Z" transform="translate(-46.39 -30.17)"/><path class="cls-7" d="M302.15,298.85c-1.36.48-2.75.95-4.15,1.4,2.35-15.36-8.2-28.64-8.2-28.64l3.94-1.45,1.95-.72S310.65,276.09,302.15,298.85Z" transform="translate(-46.39 -30.17)"/><path class="cls-6" d="M325.18,288.43a152.93,152.93,0,0,1-20,9.3c-1,.38-2,.76-3,1.12,8.5-22.76-6.46-29.41-6.46-29.41l4.48-1.65.48-.18a158.87,158.87,0,0,0,15.52-8.29S328.72,272.24,325.18,288.43Z" transform="translate(-46.39 -30.17)"/><path class="cls-7" d="M332.19,284.3c-2.22,1.39-4.55,2.77-7,4.13,3.54-16.19-9-29.11-9-29.11q3.31-2,6.39-4.13C322.89,255.66,334.69,272.17,332.19,284.3Z" transform="translate(-46.39 -30.17)"/><path class="cls-6" d="M359.65,262.61s-9.93,10.79-27.46,21.69c2.5-12.13-9.3-28.64-9.63-29.11a116,116,0,0,0,24.94-23S364.65,242.61,359.65,262.61Z" transform="translate(-46.39 -30.17)"/><path class="cls-5" d="M322.56,255.19h0" transform="translate(-46.39 -30.17)"/><path class="cls-6" d="M311.38,384.19c-6.77,7.31-28.11,27.6-55.54,26.74a48.8,48.8,0,0,0,15.47-12.15c7.43-2.65,27.35-10.3,36.57-19.27,1.17,0,2.77.57,2.77,3.1A1.92,1.92,0,0,0,311.38,384.19Z" transform="translate(-46.39 -30.17)"/><path class="cls-8" d="M338.65,351.61s-1,20-25,30c0,0-.79,1-2.27,2.58a1.92,1.92,0,0,1-.73-1.58c0-2.53-1.6-3.06-2.77-3.1a23.76,23.76,0,0,0,1.77-1.9S313.65,352.61,338.65,351.61Z" transform="translate(-46.39 -30.17)"/><path class="cls-6" d="M184.24,258.29c-6,1.29-12.93,4.94-15,14.69q-6-4.16-11.81-8.51l-2.19-1.65c12.59,1.2,25.37-15.71,25.37-15.71C182.47,250.85,184.07,255,184.24,258.29Z" transform="translate(-46.39 -30.17)"/><path class="cls-7" d="M180.61,247.11S167.83,264,155.24,262.82h0c-2.83-2.15-5.63-4.32-8.4-6.55.55-.07,20.85-2.58,29.28-17A84.13,84.13,0,0,1,180.61,247.11Z" transform="translate(-46.39 -30.17)"/><path class="cls-6" d="M176.11,239.25h0c-8.43,14.43-28.73,16.94-29.28,17h0q-5.65-4.54-11.12-9.33-1.38-1.2-2.73-2.43l2-1s20.82-6.4,21.7-16.33a53.86,53.86,0,0,0,17.72,9.52S175.1,237.69,176.11,239.25Z" transform="translate(-46.39 -30.17)"/><path class="cls-7" d="M156.7,227.21c-.88,9.93-21.7,16.33-21.7,16.33l-2,1c-1.68-1.51-3.35-3-5-4.61l1.28-.65c4.51-1.9,18.71-8.48,20.88-16.88l.39-1A54.11,54.11,0,0,0,156.7,227.21Z" transform="translate(-46.39 -30.17)"/><path class="cls-6" d="M150.36,221.21a9.12,9.12,0,0,1-.22,1.16c-2.17,8.4-16.37,15-20.88,16.88-.87.37-1.38.56-1.38.56q-3.42-3.24-6.69-6.63c-3.45-3.58-7.21-7.21-10-11.3-4.28-6.19-3.5-15.15.68-21.3a17.25,17.25,0,0,1,2.76-3.19,31.48,31.48,0,0,1,13.11-6.53,40.37,40.37,0,0,1,7.23-1.25C137.18,200.51,142.08,212,150.36,221.21Z" transform="translate(-46.39 -30.17)"/><path class="cls-5" d="M128,239.9l-.1-.09" transform="translate(-46.39 -30.17)"/><path class="cls-6" d="M194,257.84a281.71,281.71,0,0,0-25.32,22.92,31.64,31.64,0,0,1,.59-7.78c2.07-9.75,9-13.4,15-14.69A30.23,30.23,0,0,1,194,257.84Z" transform="translate(-46.39 -30.17)"/><path class="cls-10" d="M172.65,183.61A63.87,63.87,0,0,0,176,204.18c-27.2-7.23-27.91-43.83-22.38-48.57,7-6-1-7-1-7s-5,6-8,0-11-5-8,1,1,7,1,7c-4.18,6.07-5.61,19.06-2.73,33a40.37,40.37,0,0,0-7.23,1.25,31.48,31.48,0,0,0-13.11,6.53,17.25,17.25,0,0,0-2.76,3.19c-9.06-12.13-14.71-23.43-17.68-33.92a63,63,0,0,1,3.79-24.33c3.85-10.6,10.2-20.16,17.64-28.57a147.66,147.66,0,0,1,22.74-20.6c6.29-4.67,13-8.68,19.71-12.72a3.92,3.92,0,0,1,2-.75,3.64,3.64,0,0,1,1.65.5c5.17,2.55,9.24,6.51,13,10.8,7.32,8.38,13.46,17.79,19.22,27.27,2.45,4,4.84,8.09,7.11,12.22A63.94,63.94,0,0,0,172.65,183.61Z" transform="translate(-46.39 -30.17)"/><path class="cls-4" d="M211.45,124.76a63.8,63.8,0,0,0-10.5,5.72c-2.27-4.13-4.66-8.19-7.11-12.22-5.76-9.48-11.9-18.89-19.22-27.27-3.75-4.29-7.82-8.25-13-10.8a3.64,3.64,0,0,0-1.65-.5,3.92,3.92,0,0,0-2,.75c-6.69,4-13.42,8-19.71,12.72a147.66,147.66,0,0,0-22.74,20.6c-7.44,8.41-13.79,18-17.64,28.57a63,63,0,0,0-3.79,24.33c-13.69-48.31,29.4-79.26,56.51-94C179.71,56.76,205.66,111.46,211.45,124.76Z" transform="translate(-46.39 -30.17)"/><path class="cls-11" d="M270.65,186.11c0,8.56-4.92,15.5-11,15.5s-11-6.94-11-15.5c0-.23,0-.46,0-.69.1,5.66,3,10.19,6.49,10.19s6.5-4.7,6.5-10.5-2.91-10.5-6.5-10.5c-2.16,0-4.08,1.71-5.26,4.34,1.84-5,5.51-8.34,9.76-8.34C265.73,170.61,270.65,177.55,270.65,186.11Z" transform="translate(-46.39 -30.17)"/><path class="cls-12" d="M255.15,174.61c-2.16,0-4.08,1.71-5.26,4.34a20.77,20.77,0,0,0-1.23,6.36v.11c.1,5.66,3,10.19,6.49,10.19s6.5-4.7,6.5-10.5S258.74,174.61,255.15,174.61Zm-.4,15c-1.71,0-3.1-2.24-3.1-5s1.39-5,3.1-5,3.09,2.24,3.09,5S256.45,189.61,254.75,189.61Z" transform="translate(-46.39 -30.17)"/><path class="cls-11" d="M257.84,184.61c0,2.76-1.39,5-3.09,5s-3.1-2.24-3.1-5,1.39-5,3.1-5S257.84,181.85,257.84,184.61Z" transform="translate(-46.39 -30.17)"/><path class="cls-11" d="M207.65,186.11c0,8.56-4.92,15.5-11,15.5s-11-6.94-11-15.5c0-.23,0-.46,0-.69.1,5.66,3,10.19,6.49,10.19s6.5-4.7,6.5-10.5-2.91-10.5-6.5-10.5c-2.16,0-4.08,1.71-5.26,4.34,1.84-5,5.51-8.34,9.76-8.34C202.73,170.61,207.65,177.55,207.65,186.11Z" transform="translate(-46.39 -30.17)"/><path class="cls-12" d="M192.15,174.61c-2.16,0-4.08,1.71-5.26,4.34a20.77,20.77,0,0,0-1.23,6.36v.11c.1,5.66,3,10.19,6.49,10.19s6.5-4.7,6.5-10.5S195.74,174.61,192.15,174.61Zm-.4,15c-1.71,0-3.1-2.24-3.1-5s1.39-5,3.1-5,3.09,2.24,3.09,5S193.45,189.61,191.75,189.61Z" transform="translate(-46.39 -30.17)"/><path class="cls-11" d="M194.84,184.61c0,2.76-1.39,5-3.09,5s-3.1-2.24-3.1-5,1.39-5,3.1-5S194.84,181.85,194.84,184.61Z" transform="translate(-46.39 -30.17)"/><path class="cls-8" d="M197.65,159.61c-8-1-18,8-18,8,2-12,26-19,26-19C206.65,151.61,205.65,160.61,197.65,159.61Z" transform="translate(-46.39 -30.17)"/><path class="cls-8" d="M275.64,171.6c-20-11-26-11-20-18S275.27,170.93,275.64,171.6Z" transform="translate(-46.39 -30.17)"/><path class="cls-13" d="M247.65,223a26,26,0,0,1-.92,7l0,.17a63.58,63.58,0,0,0-26.75,13.22,20.61,20.61,0,0,0-1.9-5.5C232.89,234.91,242.08,228.74,247.65,223Z" transform="translate(-46.39 -30.17)"/><path class="cls-14" d="M246.68,230.21a21.81,21.81,0,0,1-4.7,8.48,26.51,26.51,0,0,1-7,5.46,36.15,36.15,0,0,1-6.89,2.89,44.24,44.24,0,0,1-7,1.52.29.29,0,0,1-.24,0,.25.25,0,0,1-.06-.17c-.14-.94-.28-1.89-.44-2.84-.11-.7-.24-1.39-.39-2.08A63.58,63.58,0,0,1,246.68,230.21Z" transform="translate(-46.39 -30.17)"/><path class="cls-5" d="M239.65,134.61s0-4-9,5A16.1,16.1,0,0,1,217,144.33a7.13,7.13,0,0,1-4.16-1.93,6.46,6.46,0,0,1-1.67-4.1c-.26-4.64,3-8.33,6.84-10.48a32.74,32.74,0,0,1,7.07-2.83c1.16-.32,2.32-.6,3.5-.84.65-.14,2.44-.79,3.06-.54-1.09-.45-3.65-1.51-6.5-3h0c-6.87-3.53-15.45-9.38-9.25-14.41a11,11,0,0,1,4.39-1.92c4.9-1.21,10-1.19,14.59,1,4.88,2.32,8.62,6.51,11.37,11.08.21.35,1.52,2.48,2.47,4.35h0c.68,1.36,1.19,2.58.93,2.86" transform="translate(-46.39 -30.17)"/><path class="cls-15" d="M156.89,129.71a66.78,66.78,0,0,1,7.49-14.18A71.15,71.15,0,0,1,197.6,89.64c9.07-3.41,19.21-4.89,28.45-2,22,6.9,21.35,32.09,14.13,49.82-7.8,19.16-22.94,35.58-39.47,47.69-4.49,3.29-9.44,6.32-15,6.94-9.25,1-18-5-23.52-12.53a50.48,50.48,0,0,1-9.14-32.24A59.23,59.23,0,0,1,156.89,129.71Z" transform="translate(-46.39 -30.17)"/><g class="cls-16"><g class="cls-18"><path class="cls-2" d="M136.72,70.11c-6.44,0-6.45,10,0,10S143.16,70.11,136.72,70.11Z" transform="translate(-46.39 -30.17)"/><path class="cls-2" d="M183.58,99.68" transform="translate(-46.39 -30.17)"/><path class="cls-3" d="M341.9,173.3a51.58,51.58,0,0,0-2.59-8.37,78.85,78.85,0,0,0-9.93-33.88,110,110,0,0,0-4.78-15.17,74.43,74.43,0,0,0-38.08-39.69,6.17,6.17,0,0,0-4.14-.28c-.44-.26-.88-.52-1.34-.76-11.39-6.07-24.52-8.05-37.3-7.53A183.65,183.65,0,0,0,199.1,75c-12.83,3.91-23.84,12.91-34,21.35-19.83,16.39-33.8,38.81-37.9,64.4a106.82,106.82,0,0,0-1.42,17.49c0,3.47-.09,7.7.89,11.41a60.76,60.76,0,0,0,2.18,18.12l-4.52,22.83a6.07,6.07,0,0,0,5.74,7.54c5.62.47,9-2.94,11.12-7.33,13.24,15.06,33.62,22.5,53.35,25.47A165.21,165.21,0,0,0,274.72,248c21-7.61,41-19.59,54.79-37.5C337.68,199.94,344.7,187.08,341.9,173.3ZM233.53,232.79l-1.63-.11-.61-.28c.76.11,1.52.19,2.29.26C233.56,232.71,233.55,232.75,233.53,232.79Zm-31.47-8.87c-1.49-.21-3-.38-4.48-.52l-2.27-1c1.76.27,3.5.63,5.21,1.06C201,223.61,201.54,223.77,202.06,223.92Zm-40.72-20.14c.11.47.23.92.37,1.36-.21-.16-.41-.32-.63-.46C161.17,204.39,161.25,204.08,161.34,203.78Zm124.19-9.28a32,32,0,0,1-2.59,3.48l.15-.73C283.93,196.36,284.74,195.44,285.53,194.5ZM274,177.9l.13-.17c.34-.43.67-.87,1-1.31-.14.73-.29,1.45-.43,2.17a7.17,7.17,0,0,0-1.12-.15Zm2.14,25.74a7.56,7.56,0,0,0,.95.05c-1.88,1.57-3.84,3-5.76,4.37l-2.45,1.67a5.31,5.31,0,0,0,.69-1.39A78.34,78.34,0,0,0,276.16,203.64ZM263,212.19a6.75,6.75,0,0,0,2.15-.05c-1.77,1.07-3.55,2.09-5.37,3l.12-1.41C260.93,213.25,262,212.72,263,212.19Zm-15.64,6.68.38.86a43,43,0,0,1-6.47,1.06C243.3,220.2,245.34,219.57,247.35,218.87Zm-31.3-47.93a2.72,2.72,0,0,1,0,.28l-.58-.46c0-.29,0-.59,0-.88C215.64,170.24,215.85,170.59,216.05,170.94Zm-36,36.81.55.71a18,18,0,0,1-3.15-1.37c.14-.84.28-1.67.4-2.51C178.51,205.66,179.25,206.72,180,207.75Z" transform="translate(-46.39 -30.17)"/><g class="cls-19"><path class="cls-20" d="M346.42,191.53Q344,176.16,340.47,161q-2.75-11.73-6.17-23.29a152.81,152.81,0,0,0-4.36-17.82q.46-6,.71-12.06c.19-4.95-4.19-6.58-7.7-5.27l-.18-.37a5.39,5.39,0,0,0-1.65-1.92,6.19,6.19,0,0,0-8.05-2,241.25,241.25,0,0,0-14.81-21,42.76,42.76,0,0,0-16-12.94,5.38,5.38,0,0,0-5.85-3.62,13.19,13.19,0,0,0-3.75-4.12A15,15,0,0,0,263.37,54c-3-2.82-6-5.55-9-8.22a5.88,5.88,0,0,0-3.63-1.45q-5-6.11-10-12.17c-4.91-5.93-13.17,2.53-8.41,8.42q6.71,8.3,12.62,17.18c-3,0-6.11,0-9.17.17a6.16,6.16,0,0,0-5.33.35c-1.91.17-3.81.36-5.7.61-6.79.87-7.94,9-1.59,11.69a102.62,102.62,0,0,1,18.19,9.88c9.11,12.6,13.63,27.62,15.46,43.26a5.55,5.55,0,0,0,.39,3.71,170.41,170.41,0,0,1,.63,17.07A293.81,293.81,0,0,1,242.5,233.7q-2.28,6.86-4.92,13.58c-.6.25-1.2.51-1.78.78-3.71,1.74-3.7,5.47-1.84,8.08q-5.61,13.1-12.42,25.66c-3.66,6.73,6.62,12.75,10.28,6Q237.88,276.64,243,265a5.88,5.88,0,0,0,3.63-2.48c1.76,3.64,7.8,5.33,10.79.82,3.58-5.4,7.2-10.77,11.73-15.32a35.6,35.6,0,0,0,5.64-3.71l.24-.2c-.37,1.74-.75,3.48-1.16,5.21a6,6,0,0,0,8.74,6.72,12,12,0,0,0,5.32-5.42,17.87,17.87,0,0,0,6.41-6.91c.39-.67.74-1.36,1.11-2a78.3,78.3,0,0,0,9.71-13.77,5.84,5.84,0,0,0,4.11-.68,14.88,14.88,0,0,0,4.48-3.84c-.42,2.1-.88,4.21-1.4,6.3a6,6,0,0,0,8.75,6.73c7.9-4.07,10.19-12.71,11.37-20.9,1.3,3.79,3.31,7.08,6.66,8.88,3,1.63,8.14.42,8.75-3.56C349.41,211,348,201.33,346.42,191.53Zm-79.59-83.12c.66,1.79,1.3,3.59,1.9,5.41.27,3.78.47,7.57.62,11.35l-.28-.53a139.63,139.63,0,0,0-2.92-17.47C266.37,107.59,266.61,108,266.83,108.41Zm27.62,87.65c0,.56-.07,1.12-.1,1.68-.66,1.07-1.33,2.12-2,3.18q.13-3.69.17-7.38a6.54,6.54,0,0,0,2,1.6Z" transform="translate(-46.39 -30.17)"/></g></g><path class="cls-2" d="M276.79,245c27.69-11.16,49.83-31.94,56.58-65.06,7.43-36.45-11.13-80.48-44.17-98.71C261.59,66.05,226,65.65,197.47,78.7c-20.75,9.5-38.31,25.44-50.84,44.52-8.31,12.66-14.54,26.85-16.94,41.8s-.84,30.71,5.63,44.41c7.58,16.07,21.61,28.64,37.71,36.15s34.17,10.2,51.93,9.68S260.74,251.51,276.79,245Z" transform="translate(-46.39 -30.17)"/></g></svg>