<svg width="451" height="391" viewBox="0 0 451 391" fill="none" xmlns="http://www.w3.org/2000/svg">
<g filter="url(#filter0_d)">
<path d="M243.431 105.478C243.431 106.119 243.241 106.745 242.885 107.278C242.529 107.811 242.023 108.226 241.431 108.471C240.839 108.716 240.188 108.78 239.56 108.655C238.931 108.53 238.354 108.222 237.901 107.769C237.448 107.316 237.14 106.739 237.015 106.11C236.89 105.482 236.954 104.831 237.199 104.239C237.444 103.647 237.86 103.141 238.392 102.785C238.925 102.429 239.551 102.239 240.192 102.239C241.051 102.239 241.875 102.581 242.482 103.188C243.089 103.795 243.431 104.619 243.431 105.478Z" fill="white"/>
<path d="M287.629 119.254C288.964 119.254 290.047 118.171 290.047 116.835C290.047 115.499 288.964 114.416 287.629 114.416C286.293 114.416 285.21 115.499 285.21 116.835C285.21 118.171 286.293 119.254 287.629 119.254Z" fill="white"/>
<path d="M287.629 77.8034C288.964 77.8034 290.047 76.7204 290.047 75.3844C290.047 74.0484 288.964 72.9654 287.629 72.9654C286.293 72.9654 285.21 74.0484 285.21 75.3844C285.21 76.7204 286.293 77.8034 287.629 77.8034Z" fill="white"/>
<path d="M224.755 164.99C226.102 164.99 227.195 163.897 227.195 162.55C227.195 161.203 226.102 160.111 224.755 160.111C223.408 160.111 222.316 161.203 222.316 162.55C222.316 163.897 223.408 164.99 224.755 164.99Z" fill="white"/>
<path d="M224.755 67.1846C226.102 67.1846 227.195 66.0924 227.195 64.7451C227.195 63.3978 226.102 62.3056 224.755 62.3056C223.408 62.3056 222.316 63.3978 222.316 64.7451C222.316 66.0924 223.408 67.1846 224.755 67.1846Z" fill="white"/>
<path d="M138.471 101.522C138.471 101.639 138.436 101.754 138.371 101.852C138.306 101.95 138.213 102.026 138.104 102.071C137.995 102.116 137.876 102.128 137.761 102.105C137.645 102.082 137.539 102.025 137.456 101.942C137.373 101.859 137.316 101.753 137.293 101.638C137.271 101.522 137.282 101.403 137.327 101.294C137.372 101.186 137.449 101.093 137.546 101.027C137.644 100.962 137.759 100.927 137.877 100.927C137.955 100.927 138.032 100.943 138.104 100.972C138.176 101.002 138.242 101.046 138.297 101.101C138.352 101.156 138.396 101.222 138.426 101.294C138.456 101.366 138.471 101.444 138.471 101.522Z" fill="white"/>
<path d="M215.879 235.468C215.879 236.024 215.714 236.568 215.404 237.031C215.095 237.493 214.655 237.853 214.14 238.065C213.626 238.277 213.06 238.331 212.515 238.221C211.97 238.111 211.469 237.842 211.077 237.447C210.685 237.052 210.419 236.55 210.313 236.003C210.207 235.457 210.266 234.892 210.482 234.379C210.697 233.866 211.061 233.429 211.525 233.123C211.99 232.817 212.535 232.656 213.091 232.66C213.459 232.66 213.823 232.732 214.163 232.874C214.502 233.015 214.81 233.222 215.07 233.483C215.329 233.745 215.534 234.054 215.673 234.395C215.811 234.736 215.882 235.1 215.879 235.468Z" fill="white"/>
<path d="M309.379 248.055C309.359 248.451 309.224 248.833 308.991 249.154C308.758 249.475 308.437 249.721 308.067 249.863C307.697 250.006 307.294 250.038 306.906 249.955C306.518 249.873 306.163 249.68 305.882 249.4C305.602 249.119 305.409 248.764 305.326 248.376C305.244 247.988 305.276 247.584 305.418 247.214C305.561 246.844 305.807 246.523 306.128 246.291C306.449 246.058 306.831 245.923 307.227 245.903C307.513 245.888 307.8 245.934 308.067 246.037C308.335 246.14 308.578 246.298 308.781 246.5C308.984 246.703 309.142 246.947 309.245 247.214C309.348 247.482 309.394 247.769 309.379 248.055Z" fill="white"/>
<path d="M308.637 133.758C324.631 91.8738 303.643 44.954 261.758 28.9599C219.874 12.9658 172.954 33.954 156.96 75.8384C140.966 117.723 161.954 164.643 203.838 180.637C245.723 196.631 292.643 175.643 308.637 133.758Z" fill="#A627E1"/>
<g style="mix-blend-mode:multiply" opacity="0.6">
<path d="M223.259 26.3895C231.274 30.4895 237.424 37.1315 244.702 42.1745C259.359 52.3219 277.051 54.2694 294.23 51.7479C286.611 42.9043 277.171 35.8121 266.556 30.9575C255.941 26.1029 244.402 23.6005 232.73 23.622C228.251 23.6154 223.78 23.9857 219.364 24.729C220.737 25.221 222.029 25.7745 223.259 26.3895Z" fill="#A627E1"/>
</g>
<g style="mix-blend-mode:multiply">
<path d="M297.1 55.2739C289.849 58.8914 281.956 61.0439 273.873 61.6084C240.663 63.8634 209.995 42.2974 177.052 45.8029C174.709 48.0227 172.499 50.3773 170.431 52.8549C172.665 52.8549 174.818 52.9779 176.847 52.9984C188.423 52.8202 199.937 54.7299 210.836 58.6359C216.412 60.6859 221.578 63.7198 226.969 66.2618C232.712 69.0085 238.653 71.3179 244.743 73.1703C255.985 76.7854 267.904 77.788 279.593 76.1018C288.407 74.5759 296.794 71.1863 304.193 66.1594C302.123 62.3474 299.751 58.7072 297.1 55.2739Z" fill="#A627E1"/>
</g>
<g style="mix-blend-mode:multiply" opacity="0.6">
<path d="M283.18 100.804C271.609 102.786 259.73 101.942 248.556 98.3443C238.306 94.8183 229.245 88.7093 220.471 82.4568C210.979 75.7124 201.467 68.8039 190.479 64.6834C182.308 61.8701 173.759 60.3081 165.121 60.0504C162.796 63.5524 160.74 67.2256 158.971 71.0384C161.126 70.8709 163.29 70.8366 165.449 70.9359C173.257 71.4449 180.903 73.3982 187.999 76.6964C196.834 80.6529 204.583 86.2493 212.824 91.2103C229.153 100.987 247.277 107.386 266.124 110.029C267.293 110.214 266.862 111.854 265.858 111.956C257.497 112.365 249.128 111.338 241.114 108.922C213.706 101.645 176.867 81.1448 151.611 102.014C151.611 102.984 151.611 103.948 151.611 104.904C151.611 107.651 151.755 110.357 152.021 113.104C158.854 107.928 167.254 105.251 175.822 105.519C187.266 105.758 198.581 107.992 209.257 112.12C220.922 116.22 231.623 123.108 243.861 125.568C260.528 128.91 277.912 125.22 293.163 118.168C300.946 114.523 307.992 109.478 313.95 103.285C313.866 98.9861 313.434 94.7014 312.659 90.4723C303.569 95.737 293.568 99.242 283.18 100.804Z" fill="#A627E1"/>
</g>
<g style="mix-blend-mode:multiply">
<path d="M274.509 153.12C263.14 156.284 251.116 156.22 239.782 152.936C229.532 149.799 220.84 143.67 212.373 137.397C203.907 131.124 195.502 124.523 185.723 120.71C175.187 116.61 163.932 117.471 153.026 119.521C154.314 126.562 156.534 133.401 159.627 139.857C165.05 137.715 170.893 136.852 176.704 137.335C192.017 138.401 207.822 145.31 220.348 153.961C227.687 159.024 234.882 164.887 243.759 166.896C254.111 169.233 263.685 165.871 273.484 162.96C273.709 162.898 273.95 162.92 274.161 163.023C274.371 163.125 274.537 163.301 274.628 163.517C274.718 163.733 274.727 163.975 274.652 164.197C274.577 164.419 274.424 164.606 274.222 164.723C266.82 169.449 258.497 172.545 249.806 173.805C242.394 174.895 234.859 174.846 227.461 173.661C222.053 172.586 216.775 170.937 211.717 168.741C202.41 165.174 188.142 158.84 178.917 165.42C188.275 173.754 199.434 179.809 211.521 183.111C223.609 186.412 236.297 186.871 248.591 184.45C260.886 182.03 272.453 176.797 282.387 169.16C292.322 161.523 300.353 151.69 305.853 140.431C295.891 145.773 285.382 150.027 274.509 153.12Z" fill="#A627E1"/>
</g>
<g style="mix-blend-mode:multiply">
<g style="mix-blend-mode:multiply">
<path d="M293.512 50.928C296.383 57.0989 298.351 63.6509 299.355 70.3825C302.597 90.2177 299.088 110.567 289.392 128.172C279.782 144.568 265.646 157.843 248.679 166.404C233.984 173.892 217.967 178.432 201.529 179.77C218.498 186.832 237.36 187.927 255.032 182.876C272.704 177.825 288.138 166.926 298.811 151.963C309.484 137 314.764 118.858 313.786 100.505C312.809 82.1513 305.632 64.6728 293.43 50.928H293.512Z" fill="#A627E1"/>
</g>
<g style="mix-blend-mode:multiply">
<path d="M299.17 69.2139C300.872 68.2709 302.553 67.164 304.193 66.1595C302.123 62.3475 299.751 58.7073 297.1 55.274L295.624 55.9915C297.228 60.2746 298.416 64.7026 299.17 69.2139Z" fill="#A627E1"/>
</g>
<g style="mix-blend-mode:multiply" opacity="0.6">
<path d="M294.537 117.204C301.779 113.632 308.347 108.833 313.951 103.018C313.866 98.7197 313.434 94.4349 312.659 90.2059C308.543 92.617 304.229 94.6743 299.765 96.3558C298.891 103.495 297.135 110.498 294.537 117.204Z" fill="#A627E1"/>
</g>
<g style="mix-blend-mode:multiply">
<path d="M274.509 153.12C271.895 153.797 269.247 154.33 266.575 154.719C261.03 159.223 255.033 163.139 248.679 166.404L246.629 167.409C255.874 168.598 264.566 165.584 273.443 162.96C273.669 162.898 273.909 162.92 274.12 163.023C274.331 163.125 274.497 163.301 274.587 163.517C274.678 163.733 274.686 163.975 274.611 164.197C274.537 164.419 274.383 164.606 274.181 164.723C266.779 169.449 258.456 172.545 249.765 173.805C243.28 174.757 236.696 174.84 230.188 174.051C220.888 177.058 211.271 178.977 201.529 179.77C220.633 187.704 242.044 188.051 261.396 180.741C280.747 173.43 296.581 159.014 305.669 140.431C295.765 145.761 285.319 150.015 274.509 153.12Z" fill="#A627E1"/>
</g>
</g>
<g style="mix-blend-mode:soft-light">
<path d="M219.979 29.6492C215.592 29.6492 211.102 32.2117 207.248 34.0977C203.358 35.983 199.64 38.2055 196.138 40.7396C189.131 46.0301 182.984 52.371 177.913 59.538C167.157 74.7548 161.763 93.1145 162.579 111.731C162.626 122.328 165.251 132.755 170.226 142.112C170.255 142.163 170.303 142.202 170.359 142.221C170.415 142.24 170.476 142.238 170.531 142.216C170.586 142.193 170.631 142.152 170.658 142.099C170.685 142.046 170.691 141.985 170.677 141.927C167.94 133.194 166.261 124.164 165.675 115.031C165.327 105.909 166.682 96.8019 169.672 88.1764C174.853 72.7601 184.822 59.4012 198.126 50.0466C201.734 47.4199 205.522 45.0498 209.462 42.9536C211.389 41.9286 213.337 40.9036 215.346 40.1451C217.679 39.4454 219.922 38.4753 222.029 37.2546C225.186 35.0816 224.304 29.5467 219.979 29.6492Z" fill="#F6F6F6"/>
</g>
</g>
<defs>
<filter id="filter0_d" x="0.282043" y="-109.403" width="450.718" height="500.403" filterUnits="userSpaceOnUse" color-interpolation-filters="sRGB">
<feFlood flood-opacity="0" result="BackgroundImageFix"/>
<feColorMatrix in="SourceAlpha" type="matrix" values="0 0 0 0 0 0 0 0 0 0 0 0 0 0 0 0 0 0 127 0" result="hardAlpha"/>
<feOffset dy="4"/>
<feGaussianBlur stdDeviation="68.5"/>
<feComposite in2="hardAlpha" operator="out"/>
<feColorMatrix type="matrix" values="0 0 0 0 1 0 0 0 0 1 0 0 0 0 1 0 0 0 0.2 0"/>
<feBlend mode="normal" in2="BackgroundImageFix" result="effect1_dropShadow"/>
<feBlend mode="normal" in="SourceGraphic" in2="effect1_dropShadow" result="shape"/>
</filter>
</defs>
</svg>
