<svg width="347" height="351" viewBox="0 0 347 351" fill="none" xmlns="http://www.w3.org/2000/svg">
<g style="mix-blend-mode:screen" opacity="0.85">
<circle cx="170.5" cy="181.5" r="165.5" fill="url(#paint0_radial)"/>
</g>
<path d="M139.028 3.14426C139.028 3.76612 138.843 4.37398 138.498 4.89103C138.152 5.40808 137.661 5.81111 137.087 6.04908C136.512 6.28705 135.88 6.3493 135.27 6.22798C134.66 6.10666 134.1 5.80722 133.66 5.36751C133.221 4.92779 132.921 4.3675 132.8 3.7576C132.678 3.14769 132.741 2.51553 132.979 1.94101C133.217 1.36649 133.62 0.875435 134.137 0.529951C134.654 0.184467 135.262 6.89408e-05 135.884 6.89408e-05C136.297 -0.00267974 136.707 0.0767905 137.09 0.233826C137.473 0.39086 137.82 0.622321 138.113 0.914832C138.405 1.20734 138.637 1.55509 138.794 1.93779C138.951 2.3205 139.03 2.7306 139.028 3.14426Z" fill="white"/>
<path d="M189.934 82.9269C191.145 82.9269 192.127 81.9453 192.127 80.7343C192.127 79.5234 191.145 78.5417 189.934 78.5417C188.723 78.5417 187.741 79.5234 187.741 80.7343C187.741 81.9453 188.723 82.9269 189.934 82.9269Z" fill="white"/>
<path d="M188.838 16.4238C189.443 16.4238 189.934 15.933 189.934 15.3275C189.934 14.722 189.443 14.2312 188.838 14.2312C188.232 14.2312 187.741 14.722 187.741 15.3275C187.741 15.933 188.232 16.4238 188.838 16.4238Z" fill="white"/>
<path d="M179.136 28.4006C179.136 28.5275 179.099 28.6514 179.028 28.7569C178.958 28.8623 178.857 28.9445 178.74 28.9931C178.623 29.0416 178.494 29.0543 178.37 29.0296C178.245 29.0048 178.131 28.9438 178.042 28.8541C177.952 28.7644 177.891 28.6501 177.866 28.5258C177.841 28.4014 177.854 28.2724 177.903 28.1553C177.951 28.0381 178.033 27.9379 178.139 27.8675C178.244 27.797 178.368 27.7594 178.495 27.7594C178.665 27.7594 178.828 27.8269 178.948 27.9472C179.069 28.0675 179.136 28.2306 179.136 28.4006Z" fill="white"/>
<path d="M195.602 24.7393C195.602 25.0829 195.5 25.4189 195.309 25.7046C195.118 25.9904 194.847 26.213 194.529 26.3446C194.212 26.4761 193.862 26.5105 193.525 26.4435C193.188 26.3764 192.878 26.211 192.635 25.9679C192.392 25.7249 192.227 25.4153 192.16 25.0782C192.093 24.7412 192.127 24.3918 192.259 24.0744C192.39 23.7569 192.613 23.4855 192.899 23.2946C193.184 23.1036 193.52 23.0017 193.864 23.0017C194.323 23.0071 194.762 23.1919 195.087 23.5166C195.411 23.8413 195.596 24.2801 195.602 24.7393Z" fill="white"/>
<path d="M208.013 46.9554C208.017 47.1207 207.971 47.2835 207.882 47.4226C207.793 47.5618 207.664 47.6711 207.512 47.7363C207.36 47.8014 207.192 47.8195 207.029 47.7883C206.867 47.757 206.718 47.6778 206.601 47.5609C206.484 47.4439 206.404 47.2946 206.373 47.1322C206.342 46.9698 206.36 46.8017 206.425 46.6497C206.49 46.4977 206.6 46.3687 206.739 46.2794C206.878 46.1901 207.041 46.1445 207.206 46.1486C207.42 46.1486 207.625 46.2336 207.776 46.3849C207.928 46.5362 208.013 46.7414 208.013 46.9554Z" fill="white"/>
<path d="M198.994 55.5191C199.634 55.5191 200.152 55.0004 200.152 54.3607C200.152 53.7209 199.634 53.2023 198.994 53.2023C198.354 53.2023 197.836 53.7209 197.836 54.3607C197.836 55.0004 198.354 55.5191 198.994 55.5191Z" fill="white"/>
<path d="M343.46 98.8751C343.46 99.1219 343.361 99.3587 343.187 99.5332C343.012 99.7078 342.776 99.8059 342.529 99.8059C342.282 99.8059 342.045 99.7078 341.871 99.5332C341.696 99.3587 341.598 99.1219 341.598 98.8751C341.598 98.6282 341.696 98.3914 341.871 98.2169C342.045 98.0423 342.282 97.9442 342.529 97.9442C342.774 97.9495 343.008 98.0492 343.181 98.2227C343.355 98.3961 343.454 98.6299 343.46 98.8751Z" fill="white"/>
<path d="M298.655 95.6482C298.655 95.9993 298.516 96.336 298.268 96.5843C298.019 96.8325 297.683 96.972 297.331 96.972C297.07 96.972 296.814 96.8944 296.596 96.7489C296.378 96.6034 296.209 96.3967 296.108 96.1548C296.008 95.9129 295.982 95.6467 296.033 95.3899C296.084 95.1331 296.21 94.8972 296.395 94.712C296.581 94.5269 296.816 94.4008 297.073 94.3497C297.33 94.2986 297.596 94.3248 297.838 94.425C298.08 94.5252 298.287 94.6949 298.432 94.9126C298.578 95.1303 298.655 95.3863 298.655 95.6482Z" fill="white"/>
<path d="M291.622 117.657C292.274 117.657 292.802 117.13 292.802 116.478C292.802 115.827 292.274 115.299 291.622 115.299C290.971 115.299 290.443 115.827 290.443 116.478C290.443 117.13 290.971 117.657 291.622 117.657Z" fill="white"/>
<path d="M338.144 86.8985C338.144 87.1113 338.08 87.3192 337.962 87.4961C337.844 87.673 337.676 87.8109 337.48 87.8923C337.283 87.9737 337.067 87.995 336.858 87.9535C336.649 87.912 336.458 87.8096 336.307 87.6592C336.157 87.5087 336.054 87.317 336.013 87.1084C335.971 86.8997 335.993 86.6834 336.074 86.4869C336.156 86.2904 336.293 86.1224 336.47 86.0042C336.647 85.886 336.855 85.8229 337.068 85.8229C337.353 85.8229 337.627 85.9362 337.829 86.1379C338.03 86.3397 338.144 86.6133 338.144 86.8985Z" fill="white"/>
<path d="M344.349 84.3751C345.354 84.3751 346.169 83.5601 346.169 82.5547C346.169 81.5494 345.354 80.7344 344.349 80.7344C343.344 80.7344 342.529 81.5494 342.529 82.5547C342.529 83.5601 343.344 84.3751 344.349 84.3751Z" fill="white"/>
<path d="M325.526 98.3993C325.528 98.5848 325.494 98.769 325.424 98.9409C325.354 99.1128 325.251 99.269 325.12 99.4001C324.989 99.5313 324.832 99.6348 324.66 99.7045C324.489 99.7742 324.304 99.8087 324.119 99.8059C323.932 99.8087 323.747 99.7743 323.574 99.7048C323.401 99.6354 323.244 99.5322 323.111 99.4013C322.978 99.2704 322.873 99.1144 322.801 98.9424C322.729 98.7704 322.692 98.5858 322.692 98.3993C322.692 98.0208 322.842 97.6577 323.11 97.3901C323.377 97.1224 323.74 96.972 324.119 96.972C324.305 96.972 324.49 97.0091 324.662 97.0811C324.834 97.153 324.99 97.2585 325.121 97.3913C325.252 97.5241 325.355 97.6816 325.424 97.8547C325.494 98.0277 325.528 98.2129 325.526 98.3993Z" fill="white"/>
<path d="M124.424 44.6182C123.41 51.1547 123.348 53.9265 114.35 54.9608C123.41 56.5949 123.472 58.4152 124.507 66.4204C125.686 58.6428 126.575 56.0777 134.518 54.547C127.899 53.4714 125.789 51.1754 124.424 44.6182Z" fill="white"/>
<path d="M202.439 318.181C278.39 300.255 325.429 224.152 307.503 148.201C289.576 72.2494 213.474 25.2106 137.522 43.1368C61.5708 61.0629 14.532 137.166 32.4582 213.117C50.3843 289.069 126.487 336.107 202.439 318.181Z" fill="#F8BE3B"/>
<g style="mix-blend-mode:multiply">
<path d="M56.1627 103.819C95.9197 145.189 154.397 160.393 209.854 165.482C243.353 168.336 277.027 168.481 310.549 165.916C309.786 158.604 308.451 151.363 306.557 144.259C225.471 151.767 144.033 143.555 76.0619 92.0699C72.8143 89.629 74.5725 83.0925 79.1026 84.8508C145.481 110.811 221.831 130.358 291.498 108.473C274.29 79.4891 247.285 57.6129 215.361 46.7943C183.436 35.9758 148.696 36.928 117.412 49.479C163.56 72.2328 216.969 76.8042 267.503 87.1054C271.227 87.8708 271.31 94.035 267.503 94.7176C203.731 106.219 134.601 103.343 79.7231 71.9639C69.0052 80.8841 59.6649 91.3397 52.0049 102.992C52.6929 102.655 53.4724 102.554 54.2235 102.703C54.9747 102.853 55.656 103.245 56.1627 103.819Z" fill="#FCE288"/>
</g>
<g style="mix-blend-mode:multiply" opacity="0.8">
<path d="M62.0993 195.165C138.759 238.707 226.34 231.881 308.253 209.5C309.426 203.949 310.262 198.333 310.756 192.682C218.273 205.094 105.352 209.665 32.4573 148.106C28.1714 166.222 27.5175 185.007 30.5336 203.377C90.3139 245.988 163.209 257.82 233.849 271.038C238.461 271.886 236.972 278.526 232.794 278.774C197.174 280.843 161.285 282.353 125.83 277.471C99.6033 273.811 74.0544 266.326 49.9984 255.255C62.1664 274.836 78.9423 291.14 98.8617 302.745C118.781 314.35 141.238 320.903 164.273 321.831C187.308 322.759 210.219 318.035 231.008 308.071C251.797 298.106 269.83 283.205 283.534 264.667C205.655 261.585 118.384 252.38 57.2796 201.37C53.7631 198.392 58.3346 193.096 62.0993 195.165Z" fill="#F8BE3B"/>
</g>
<g style="mix-blend-mode:multiply">
<g style="mix-blend-mode:multiply">
<path d="M256.727 69.1091C275.157 107.646 276.295 154.911 262.932 194.813C247.531 241.296 214.418 279.828 170.78 302.045C158.675 308.111 146.073 313.129 133.112 317.042C164.623 325.578 198.117 322.937 227.901 309.569C257.685 296.202 281.92 272.932 296.487 243.715C311.054 214.499 315.053 181.14 307.804 149.308C300.556 117.477 282.507 89.1378 256.727 69.1091Z" fill="#F8BE3B"/>
</g>
<g style="mix-blend-mode:multiply">
<path d="M269.593 167.633C283.245 167.453 296.897 166.881 310.549 165.916C309.786 158.604 308.451 151.362 306.557 144.258C294.953 145.334 283.328 146.058 271.744 146.327C271.458 153.466 270.739 160.581 269.593 167.633Z" fill="#FCE288"/>
</g>
<g style="mix-blend-mode:multiply">
<path d="M263.656 86.3399L267.503 87.1052C271.227 87.8706 271.309 94.0348 267.503 94.7174L266.221 94.9449C267.898 101.164 269.204 107.477 270.13 113.851C277.349 112.464 284.483 110.668 291.498 108.473C282.454 93.3228 270.662 79.9939 256.726 69.1711C259.396 74.7422 261.711 80.4766 263.656 86.3399Z" fill="#FCE288"/>
</g>
<g style="mix-blend-mode:multiply" opacity="0.8">
<path d="M217.693 268.018L233.869 271.038C238.482 271.886 236.993 278.526 232.814 278.774C223.299 279.354 213.784 279.871 204.248 280.222C193.951 288.737 182.723 296.058 170.779 302.045C158.661 308.112 146.045 313.129 133.07 317.042C160.511 324.465 189.553 323.437 216.401 314.093C243.248 304.749 266.653 287.523 283.555 264.667C264.297 263.902 244.46 262.764 224.581 260.716C222.347 263.219 220.051 265.639 217.693 268.018Z" fill="#F8BE3B"/>
</g>
<g style="mix-blend-mode:multiply" opacity="0.8">
<path d="M261.753 198.04C258.864 206.248 255.409 214.245 251.41 221.973C270.594 218.857 289.596 214.714 308.336 209.562C309.508 204.012 310.344 198.396 310.839 192.745C294.932 194.792 278.487 196.675 261.753 198.04Z" fill="#F8BE3B"/>
</g>
</g>
<g style="mix-blend-mode:soft-light">
<path d="M151.273 60.0905C132.657 68.2198 113.088 76.2457 97.2643 89.3601C83.1971 101.108 71.7766 115.7 63.7542 132.178C56.3486 147.104 51.5894 163.201 49.6883 179.754C48.0542 194.689 47.2268 215.126 55.5215 228.365C55.7882 228.778 56.1795 229.096 56.6387 229.272C57.0979 229.448 57.6012 229.473 58.0758 229.344C58.5503 229.215 58.9715 228.938 59.2784 228.554C59.5852 228.17 59.7619 227.698 59.7827 227.206C61.4375 211.155 58.2726 195.951 61.9546 179.775C65.142 165.313 71.1062 151.607 79.5163 139.418C99.0432 111.617 131.333 97.4687 161.844 85.0989C180.067 77.7764 169.642 52.0647 151.273 60.0905Z" fill="#F6F6F6"/>
</g>
<defs>
<radialGradient id="paint0_radial" cx="0" cy="0" r="1" gradientUnits="userSpaceOnUse" gradientTransform="translate(170.5 175.983) rotate(-169.939) scale(173.687)">
<stop stop-color="white"/>
<stop offset="1" stop-color="white" stop-opacity="0"/>
</radialGradient>
</defs>
</svg>
