<svg width="461" height="138" viewBox="0 0 461 138" fill="none" xmlns="http://www.w3.org/2000/svg">
<path d="M236.358 3.78996C214.119 10.5393 193.965 27.3424 188.294 48.6451C175.592 43.5831 161.391 40.7238 148.314 44.6844C135.238 48.645 123.989 60.9487 124.552 74.7755C112.905 72.2445 101.047 69.7134 89.1889 70.8851C77.8231 71.9866 65.4261 77.3299 58.6535 87.079C56.5444 90.1256 55.2321 93.9455 55.9117 97.6014C46.7957 91.3208 34.6565 89.8677 23.9235 91.1333C17.7367 91.8597 11.4564 93.6876 6.72257 97.7888C1.98878 101.89 -0.893739 108.616 0.793551 114.686C3.72287 125.325 17.1041 127.997 27.9778 128.723C48.0612 130.082 68.168 131.419 88.2514 132.778C143.979 136.527 200.081 140.254 255.598 133.95C260.144 133.434 265.44 132.309 267.315 128.091C269.049 124.177 266.659 119.396 263.097 117.076C259.535 114.756 255.129 114.287 250.934 113.865C276.361 113.889 301.811 113.936 327.237 113.959C347.602 113.983 367.943 114.006 388.308 113.772C409.704 113.514 431.545 112.905 451.605 105.382C455.495 103.929 459.807 101.585 460.557 97.4372C461.26 93.4532 458.049 89.61 454.276 88.2273C450.503 86.8681 446.355 87.3367 442.395 87.8523C452.519 87.3601 456.081 71.8226 449.285 64.1827C442.489 56.5428 430.748 55.9802 420.905 58.4643C411.063 60.9485 401.853 65.8465 391.823 67.3464C384.488 53.2149 369.584 42.7629 353.765 41.9192C344.321 41.4036 311.067 47.4265 308.279 59.4722C313.598 36.4822 297.803 11.6173 275.869 3.69613C263.73 -0.686265 249.669 -0.240903 236.358 3.78996Z" fill="white"/>
<path d="M58.677 87.0788C56.5679 90.1254 55.2556 93.9453 55.9352 97.6012C46.8191 91.3206 34.68 89.8676 23.9469 91.1331C17.7602 91.8596 11.4798 93.6874 6.74601 97.7886C2.01222 101.89 -0.870301 108.616 0.816989 114.685C3.74631 125.325 17.1275 127.997 28.0012 128.723C48.0846 130.082 68.1915 131.418 88.2749 132.778C144.002 136.527 200.105 140.254 255.621 133.949C260.168 133.434 265.464 132.309 267.339 128.091C269.073 124.177 266.682 119.396 263.12 117.076C259.558 114.756 255.153 114.287 250.958 113.865C276.384 113.912 301.834 113.936 327.261 113.959C347.625 113.982 367.967 114.006 388.331 113.772C409.727 113.514 431.568 112.904 451.628 105.382C455.518 103.929 459.83 101.585 460.58 97.437C461.283 93.453 458.073 89.6098 454.3 88.2271C450.527 86.8679 446.379 87.3365 442.418 87.8521C452.542 87.3599 456.104 71.8224 449.308 64.1825C442.512 56.5426 430.771 55.98 420.929 58.4641C411.086 60.9483 401.876 65.8463 391.846 67.3462C388.777 61.4405 384.394 56.1909 379.168 52.0194C372.865 64.6745 362.834 75.4313 350.531 82.2275C333.494 91.6251 310.177 92.5859 291.922 85.9537C299.655 78.2435 305.56 68.4711 308.818 58.019C308.607 58.5111 308.419 58.9798 308.302 59.4954C310.271 50.965 309.333 42.2 306.287 34.1148C303.147 45.4809 298.811 56.4957 291.523 65.612C281.962 77.564 266.237 85.5553 251.497 81.876C244.865 80.2121 238.912 76.3453 233.851 71.7051C218.032 57.1284 211.26 32.8024 217.306 12.4371C203.386 21.0379 192.278 33.74 188.317 48.6683C188.364 63.1279 194.316 77.6107 204.815 87.4301C182.482 94.5076 156.376 94.1328 134.254 86.446C140.839 95.3514 150.33 102.007 160.852 105.147C138.589 113.115 113.467 112.623 91.5323 103.765C85.4159 101.304 79.0417 97.648 76.8857 91.3439C74.6829 84.9695 77.7059 77.7045 82.5334 73.0643C83.049 72.5721 83.5646 72.1269 84.1036 71.6817C74.2611 73.6971 64.4185 78.7827 58.677 87.0788Z" fill="#F5FBFF"/>
<path d="M442.418 87.8515C452.542 87.3594 456.104 71.8218 449.308 64.1819C442.512 56.542 430.771 55.9794 420.929 58.4636C424.186 58.487 428.264 58.8856 431.123 60.4558C433.982 62.026 436.325 64.838 436.771 68.1189C437.005 69.8765 436.7 71.6579 436.161 73.3452C433.747 80.8445 426.811 86.047 419.499 88.789C408.555 92.8901 396.533 92.4918 384.863 92.023C404.149 94.6712 422.967 88.7889 442.418 87.8515Z" fill="#DFF2FD"/>
<path d="M263.12 117.075C266.682 119.395 269.073 124.176 267.339 128.09C265.464 132.308 260.168 133.433 255.621 133.949C200.105 140.229 144.026 136.503 88.2749 132.777C68.1915 131.418 48.0846 130.082 28.0012 128.722C17.151 127.996 3.74631 125.301 0.816989 114.685C-0.870302 108.592 2.01222 101.889 6.74601 97.788C4.54316 102.17 6.44131 107.56 9.76902 111.146C13.0967 114.732 17.7603 116.7 22.4003 118.176C43.4914 124.949 66.1526 124.082 88.2515 123.145C81.1976 122.161 74.7297 117.567 71.402 111.193C99.4297 123.848 131.043 124.903 161.719 125.746C180.373 126.262 199.238 126.754 217.423 122.489C208.705 122.653 199.988 119.934 192.84 114.872C216.486 119.841 239.756 123.356 263.12 117.075Z" fill="#DFF2FD"/>
<path d="M250.934 113.865C276.361 113.912 301.811 113.936 327.237 113.959C347.602 113.983 367.943 114.006 388.308 113.772C409.704 113.514 431.544 112.904 451.604 105.382C455.495 103.929 459.807 101.585 460.557 97.437C461.26 93.453 458.049 89.6097 454.276 88.2271C454.37 91.3908 451.651 94.0155 449.027 95.7028C446.402 97.3902 443.285 98.0933 440.215 98.7026C405.743 105.593 370.357 105.452 335.228 105.288C321.543 105.217 306.943 104.889 295.601 97.1089C282.407 106.858 267.268 113.537 250.934 113.865Z" fill="#DFF2FD"/>
</svg>
