<svg width="340" height="140" viewBox="0 0 340 140" fill="none" xmlns="http://www.w3.org/2000/svg">
<path d="M278.99 58.6048C263.031 24.7643 214.849 11.2891 183.658 31.9589C165.637 8.38309 134.023 -3.96734 104.801 1.14154C75.5777 6.25042 50.034 28.6309 41.1054 56.9172C25.3339 54.2925 7.33611 61.9793 1.54776 76.8841C-4.24058 91.7889 6.93771 111.662 22.9201 111.522C28.1695 111.475 33.4892 109.506 38.5511 110.865C42.6287 111.943 45.8158 114.99 49.0029 117.732C89.076 152.065 157.435 145.315 190.009 103.811C213.045 123.895 251.267 123.38 273.764 102.687C270.741 105.475 305.213 112.646 309.127 112.037C321.711 110.069 337.53 102.452 339.639 88.4378C344.091 59.1203 299.425 44.614 278.99 58.6048Z" fill="white"/>
<path d="M339.685 88.4617C337.576 102.476 321.781 110.093 309.174 112.061C305.26 112.671 270.788 105.499 273.811 102.711C251.313 123.404 213.092 123.919 190.055 103.835C157.458 145.339 89.1229 152.089 49.0497 117.756C45.8626 115.014 42.652 111.967 38.5978 110.889C33.536 109.53 28.2164 111.499 22.967 111.546C6.98458 111.686 -4.1937 91.8128 1.59464 76.908C7.38298 62.0032 25.3807 54.3164 41.1522 56.9411C43.9409 48.0826 48.3701 39.8101 54.0178 32.4514C52.518 49.1607 57.8377 66.5026 68.8988 79.1342C74.7809 85.8602 82.2096 91.3206 90.5992 94.3671C102.715 98.773 116.049 98.0465 128.844 96.4764C137.421 95.4218 146.139 93.969 153.779 89.9147C161.418 85.8604 167.91 78.7829 169.199 70.229C170.3 62.9641 167.582 55.6523 164.067 49.2076C158.677 39.3414 151.271 30.5765 142.436 23.6162C165.988 27.6002 186.822 44.9656 194.953 67.4166C196.102 70.5804 197.109 73.9786 199.547 76.2987C201.562 78.1969 204.327 79.1109 206.999 79.8609C220.146 83.5871 233.878 85.2042 247.541 84.6183C259.023 84.1496 271.795 81.2434 277.912 71.5178C281.966 77.4235 287.871 82.5793 294.949 83.6574C302.049 84.7354 310.158 80.5875 311.658 73.5569C312.853 68.0262 309.759 62.2844 305.377 58.6988C303.807 57.4098 298.112 55.4178 294.925 53.3789C316.462 51.5978 343.13 65.4717 339.685 88.4617Z" fill="#F5FBFF"/>
<path d="M190.032 103.836C157.435 145.339 89.0995 152.089 49.0263 117.756C45.8392 115.014 42.6287 111.968 38.5745 110.89C33.5126 109.53 28.1929 111.499 22.9436 111.546C6.96115 111.687 -4.21714 91.813 1.5712 76.9082C4.03183 87.2197 13.3354 96.1251 23.0842 100.297C32.833 104.468 44.5268 103.765 53.6898 98.4219C56.9472 109.179 66.157 117.405 76.5151 121.787C86.8732 126.17 98.3327 127.177 109.581 127.318C117.385 127.435 125.236 127.13 132.828 125.466C145.881 122.584 157.692 115.694 169.011 108.57C178.245 102.758 188.134 95.5627 190.126 84.8528C190.431 90.4772 189.704 98.1874 190.032 103.836Z" fill="#DFF2FD"/>
<path d="M190.032 103.835C213.068 123.919 251.29 123.404 273.787 102.711C270.764 105.499 305.237 112.671 309.15 112.061C321.735 110.093 337.553 102.476 339.662 88.4619C343.107 65.4718 316.438 51.5745 294.902 53.379C305.541 56.0272 316.438 60.0815 322.039 69.479C327.664 78.8766 326.562 92.7271 317.563 98.9843C311.658 103.109 303.854 103.25 296.73 102.172C288.153 100.883 278.99 97.3905 275.006 89.6803C264.765 100.672 249.814 106.39 234.863 107.937C219.958 109.483 204.773 106.788 190.032 103.835Z" fill="#DFF2FD"/>
</svg>
