<svg width="420" height="178" viewBox="0 0 420 178" fill="none" xmlns="http://www.w3.org/2000/svg">
<path d="M325.598 6.13225C300.218 -2.25758 270.644 8.19444 253.677 28.8643C237.601 6.53053 207.464 -4.6479 180.702 1.82024C153.963 8.28837 132.239 32.0048 128.162 59.2366C114.171 55.1354 98.8688 53.7996 85.1127 58.6507C71.3566 63.5018 59.522 75.4068 57.6473 89.8664C47.4063 87.7572 36.9076 85.6247 26.573 87.0777C16.2149 88.5307 5.83342 94.2956 1.73237 103.904C-4.3372 118.176 6.37245 135.425 20.9487 140.744C35.5016 146.064 51.9292 142.08 65.8494 135.261C78.5978 151.454 98.0485 162.211 118.553 164.414C139.059 166.617 160.337 160.219 176.226 147.072C193.075 165.984 218.361 177.093 243.694 176.671C269.027 176.249 293.938 164.297 310.131 144.822C327.356 158.251 366.937 174.257 385.427 155.087C393.23 147.002 395.48 134.019 390.84 123.777C402.182 123.871 413.243 116.489 417.485 105.967C421.727 95.444 418.891 82.4609 410.666 74.6569C394.004 58.885 376.193 69.7588 364.031 83.9137C364.265 52.5573 361.359 17.3108 325.598 6.13225Z" fill="white"/>
<path d="M128.185 59.2367C114.194 55.1355 98.8921 53.7997 85.136 58.6508C71.3799 63.5019 59.5455 75.4069 57.6707 89.8665C47.4298 87.7573 36.9311 85.6248 26.5964 87.0778C16.2383 88.5308 5.85687 94.2957 1.75582 103.904C-4.31374 118.176 6.39575 135.425 20.972 140.745C35.5249 146.064 51.9527 142.08 65.8728 135.261C78.6212 151.455 98.0719 162.211 118.577 164.414C139.082 166.617 160.361 160.219 176.249 147.072C193.099 165.984 218.385 177.093 243.718 176.671C269.05 176.249 293.961 164.297 310.155 144.823C327.379 158.251 366.96 174.257 385.45 155.087C393.254 147.002 395.503 134.019 390.863 123.777C402.206 123.871 413.267 116.489 417.508 105.967C421.75 95.4441 418.915 82.461 410.689 74.657C394.027 58.8851 376.217 69.7589 364.054 83.9138C364.195 59.6115 362.484 32.9892 345.049 17.0298C346.619 34.6062 343.502 52.7686 333.917 67.486C322.809 84.5703 302.163 96.03 281.986 93.1005C273.995 91.9522 266.074 88.4371 261.059 82.133C254.451 73.8604 254.779 61.8144 248.217 53.7996C242.968 47.3783 233.945 44.4724 226.938 40.6524C234.906 44.9645 238.374 55.3464 236.242 64.1581C234.109 72.9697 227.313 80.0941 219.369 84.4765C207.605 90.9681 192.818 91.9521 180.514 86.562C168.211 81.1719 158.791 69.3605 156.822 56.0727C154.666 41.5897 161.157 26.8022 171.141 16.0454C177.023 9.71788 184.006 4.60895 191.435 0.179688C187.85 0.437476 184.264 0.976653 180.749 1.82032C153.987 8.28846 132.263 32.0284 128.185 59.2367Z" fill="#F5FBFF"/>
<path d="M310.178 144.822C327.402 158.251 366.983 174.257 385.473 155.087C393.277 147.002 395.527 134.018 390.887 123.777C402.229 123.871 413.29 116.489 417.532 105.967C421.773 95.444 418.938 82.4609 410.712 74.657C411.767 82.3906 410.009 89.2572 406.353 96.1472C402.698 103.037 395.761 108.451 387.957 108.966C380.177 109.482 372.022 104.303 370.287 96.7096C367.944 101.186 370.217 106.717 373.217 110.771C376.24 114.825 380.107 118.505 381.466 123.379C383.528 130.738 378.888 138.706 372.373 142.713C365.858 146.721 357.937 147.611 350.298 147.916C336.026 148.478 323.7 149.627 310.178 144.822Z" fill="#DFF2FD"/>
<path d="M243.741 176.671C218.408 177.093 193.123 166.008 176.273 147.072C160.384 160.196 139.106 166.594 118.601 164.415C98.0957 162.212 78.645 151.478 65.8966 135.261C51.9765 142.057 35.5488 146.041 20.9959 140.745C6.44303 135.425 -4.29004 118.177 1.77952 103.905C2.31852 116.278 15.1373 126.262 27.089 129.59C39.0172 132.918 51.7655 130.855 63.8109 128.02C61.2331 120.684 60.6237 112.646 62.1236 105.006C71.4271 117.942 82.5585 130.621 97.5801 135.941C106.438 139.081 116.023 139.409 125.443 139.526C136.95 139.667 148.644 139.479 159.658 136.105C170.649 132.73 181.03 125.676 185.928 115.271C178.593 130.855 201.114 151.338 211.73 158.931C222.533 166.664 234.742 172.172 246.928 177.491" fill="#DFF2FD"/>
</svg>
