<?xml version="1.0" encoding="utf-8"?>
<!-- Generator: Adobe Illustrator 24.1.0, SVG Export Plug-In . SVG Version: 6.00 Build 0)  -->
<svg version="1.1" id="Capa_1" xmlns="http://www.w3.org/2000/svg" xmlns:xlink="http://www.w3.org/1999/xlink" x="0px" y="0px"
	 viewBox="0 0 1500 1500" style="enable-background:new 0 0 1500 1500;" xml:space="preserve">
<style type="text/css">
	.st0{fill:#3CB5AB;}
	.st1{fill:#EC6B74;}
	.st2{fill:#FCCA77;}
	.st3{fill:#3C3C3B;}
	.st4{fill:#F7EFE4;}
</style>
<g>
	<path class="st0" d="M1416,750.06c0,176.76-70,337.24-183.77,455.13c-0.83-16.03,0.29-32.35-0.83-48.48
		c-0.15-2.74-0.39-5.49-0.73-8.19c-7.5-61.66-57.2-110.93-112.59-139.01c-55.44-28.04-117.49-39.56-176.76-58.13
		c-25.59-8.04-51.71-18.09-72.4-34.61c26.42-14.21,52.2-31.86,76.08-50.39c36.81-47.06,80.73-88.67,130.14-123.33
		c0.1-0.1,0.15-0.15,0.15-0.15c61.52-43.18,131.56-75.73,207.29-94.8c39.41-9.9,80.34-16.18,122.4-18.38
		C1412.23,668.74,1416,708.94,1416,750.06z"/>
	<path class="st1" d="M1231.4,1156.71c-22.99-13.19-57.45-8.53-79.75,8.68c-29.36,22.7-44.16,58.77-62.06,91.27
		c-19.36,35.15-45.64,69.31-83.23,83.23c-37.65,13.97-87.74-0.59-100.83-38.53c-11.91-34.41,9.21-70.54,16.27-106.32
		c4.31-21.81,3.04-44.61-3.24-65.93c29.07,1.96,54.9,20.15,66.37,47.06c3.68,8.63,12.94,13.38,22.16,11.67l1.32-0.25
		c12.65-2.4,19.8-15.83,14.85-27.74c-20.15-48.67-71.03-79.07-124.7-72.01c-0.1-0.1-0.15-0.15-0.2-0.24
		c-20.1-27.84-49.75-47.25-72.55-72.94c-17.35-19.56-29.95-42.84-37.65-67.74c26.62-4.75,54.02-15.69,80.73-30.15
		c20.69,16.52,46.81,26.57,72.4,34.61c59.26,18.58,121.32,30.1,176.76,58.13c55.39,28.09,105.09,77.35,112.59,139.01
		C1231.01,1151.22,1231.25,1153.96,1231.4,1156.71z"/>
	<path class="st2" d="M1232.23,1205.19c-119.21,123.47-286.46,200.29-471.65,200.29c-79.85,0-156.37-14.26-227.15-40.44
		c-86.47-92.64-139.36-217-139.36-353.61c0-183.18,95.05-344.3,238.47-436.5c1.32-0.83,2.65-1.67,3.97-2.5
		c75.04-48.43,124.7-132.84,124.7-228.76c0-39.16-8.28-76.37-23.19-110.09c-2.99-7.06-4.66-14.9-4.66-23.04
		c0-32.69,26.52-59.21,59.16-59.21c18.92,0,35.73,8.87,46.62,22.7c9.31,11.22,23.33,18.38,39.02,18.38
		c15.64,0,29.56-7.06,38.82-18.19c0.39-0.44,0.73-0.88,1.08-1.27c10.83-13.19,27.3-21.62,45.68-21.62
		c32.65,0,59.16,26.52,59.16,59.16c18.19,29.85,9.75,90.49-174.3,286.26c-8.58,9.22-17.6,18.68-27.01,28.48
		C611.33,743.69,632.85,821.53,632.85,821.53c0,43.28,21.47,81.57,54.36,104.75c0.69,0.49,1.37,1.03,2.06,1.52
		c21.86,15.64,46.18,22.11,71.61,21.81c1.81,0.05,3.63-0.05,5.44-0.05c2.06-0.15,4.17-0.29,6.27-0.49c1.32-0.1,2.65-0.25,3.97-0.44
		c3.87-0.44,7.75-0.98,11.62-1.72c7.69,24.9,20.29,48.18,37.65,67.74c22.79,25.69,52.45,45.1,72.55,72.94
		c0.05,0.1,0.1,0.15,0.2,0.24c-2.21,0.29-4.41,0.64-6.62,1.03c-56.08,10.49-95.49,58.92-96.66,113.77
		c-0.25,11.57,9.02,20.78,20.1,20.78c1.28,0,2.55-0.1,3.82-0.34c9.17-1.72,16.13-9.51,16.42-18.87
		c1.13-35.68,26.86-67.06,63.43-73.87c0.2-0.05,0.44-0.1,0.64-0.15c6.37-1.13,12.69-1.47,18.87-1.08
		c6.27,21.32,7.55,44.12,3.24,65.93c-7.06,35.78-28.18,71.91-16.27,106.32c13.09,37.94,63.18,52.5,100.83,38.53
		c37.6-13.92,63.87-48.09,83.23-83.23c17.89-32.5,32.69-68.58,62.06-91.27c22.3-17.21,56.76-21.86,79.75-8.68
		C1232.53,1172.84,1231.4,1189.16,1232.23,1205.19z"/>
	<path class="st3" d="M1008.42,1187.59l-1.32,0.25c-9.21,1.72-18.48-3.04-22.16-11.67c-11.47-26.91-37.3-45.1-66.37-47.06
		c-6.18-0.39-12.5-0.05-18.87,1.08c-0.2,0.05-0.44,0.1-0.64,0.15c-36.57,6.81-62.3,38.18-63.43,73.87
		c-0.29,9.36-7.25,17.16-16.42,18.87c-1.28,0.25-2.55,0.34-3.82,0.34c-11.08,0-20.34-9.22-20.1-20.78
		c1.18-54.85,40.59-103.28,96.66-113.77c2.21-0.39,4.41-0.74,6.62-1.03c53.67-7.06,104.55,23.33,124.7,72.01
		C1028.22,1171.76,1021.07,1185.19,1008.42,1187.59z"/>
	<path class="st4" d="M1404.97,629.72c-42.06,2.21-82.99,8.48-122.4,18.38c-75.73,19.07-145.78,51.62-207.29,94.8
		c0,0-0.05,0.05-0.15,0.15c-49.41,34.66-93.33,76.27-130.14,123.33c-23.87,18.53-49.66,36.17-76.08,50.39
		c-26.71,14.46-54.12,25.39-80.73,30.15c-3.87,0.74-7.75,1.27-11.62,1.72c-1.32,0.2-2.65,0.34-3.97,0.44
		c-2.11,0.2-4.21,0.34-6.27,0.49c-1.81,0-3.63,0.1-5.44,0.05c-25.44,0.29-49.75-6.18-71.61-21.81c-0.69-0.49-1.37-1.03-2.06-1.52
		c-32.89-23.19-54.36-61.47-54.36-104.75c0,0-21.52-77.84,188.76-296.31c9.41-9.8,18.43-19.26,27.01-28.48
		c184.06-195.78,192.49-256.41,174.3-286.26c0-32.65-26.52-59.16-59.16-59.16c-18.38,0-34.85,8.43-45.68,21.62
		c-0.34,0.39-0.69,0.83-1.08,1.27c-9.26,11.13-23.19,18.19-38.82,18.19c-15.69,0-29.7-7.16-39.02-18.38
		c-10.88-13.82-27.69-22.7-46.62-22.7c-32.65,0-59.16,26.52-59.16,59.21c0,8.14,1.67,15.98,4.66,23.04
		c14.9,33.72,23.19,70.93,23.19,110.09c0,95.93-49.66,180.33-124.7,228.76c-1.32,0.83-2.65,1.67-3.97,2.5
		c-143.42,92.2-238.47,253.32-238.47,436.5c0,136.61,52.89,260.97,139.36,353.61c-250.04-92.35-428.31-332.83-428.31-614.97
		c0-361.99,293.47-655.46,655.46-655.46C1081.46,94.6,1348.45,325.18,1404.97,629.72z"/>
	<circle class="st2" cx="1072.64" cy="1145.22" r="18.21"/>
	<circle class="st2" cx="1065.98" cy="1072.37" r="18.21"/>
	<circle class="st2" cx="1103.8" cy="1105.04" r="18.21"/>
</g>
</svg>
