<svg width="215" height="316" viewBox="0 0 215 316" fill="none" xmlns="http://www.w3.org/2000/svg">
<path opacity="0.7" d="M53.6344 74.3589C74.1452 74.3589 90.7726 57.7311 90.7726 37.2197C90.7726 16.7083 74.1452 0.0805664 53.6344 0.0805664C33.1235 0.0805664 16.4961 16.7083 16.4961 37.2197C16.4961 57.7311 33.1235 74.3589 53.6344 74.3589Z" fill="#CFF4FF"/>
<path opacity="0.7" d="M81.2387 26.5774C81.5712 28.9943 81.1722 32.0095 78.9328 32.9408C77.3142 33.606 75.4296 32.8297 74.188 31.6102C72.9463 30.3685 72.1924 28.7721 71.2612 27.2865C66.2503 19.2377 55.2752 15.2907 46.495 18.8606C44.4774 19.681 42.6149 20.8343 40.5307 21.4108C38.4466 21.9873 35.9633 21.8544 34.4112 20.3688C32.6818 18.7058 32.6153 15.8454 33.7239 13.7168C34.8325 11.5882 36.8502 10.1022 38.9343 8.92704C46.5615 4.58109 55.5634 2.78526 63.6784 6.35515C72.4142 10.2133 79.8862 16.5329 81.2387 26.5774Z" fill="#CFF4FF"/>
<path opacity="0.7" d="M137.52 125.395C141.826 112.877 135.17 99.2391 122.653 94.9329C110.136 90.6267 96.4979 97.2832 92.1918 109.801C87.8858 122.318 94.5422 135.957 107.059 140.263C119.576 144.569 133.214 137.913 137.52 125.395Z" fill="#CFF4FF"/>
<path opacity="0.7" d="M133.942 118.616C133.498 120.124 132.478 121.809 130.904 121.765C129.773 121.743 128.864 120.789 128.443 119.724C128.044 118.682 128.022 117.529 127.867 116.399C127.024 110.345 121.592 105.135 115.472 104.958C114.075 104.913 112.657 105.113 111.282 104.891C109.907 104.691 108.466 103.96 107.956 102.674C107.38 101.255 108.089 99.5254 109.308 98.572C110.506 97.6186 112.102 97.2634 113.632 97.1082C119.264 96.5317 125.051 97.8399 128.886 102.075C133.033 106.665 135.782 112.341 133.942 118.616Z" fill="#CFF4FF"/>
<path opacity="0.7" d="M26.2196 201.238C35.3949 198.674 40.7547 189.157 38.191 179.982C35.6273 170.806 26.111 165.446 16.9356 168.01C7.76033 170.574 2.40055 180.09 4.96423 189.266C7.52791 198.441 17.0443 203.802 26.2196 201.238Z" fill="#CFF4FF"/>
<path opacity="0.7" d="M35.1868 185.423C34.8764 186.509 34.1447 187.706 33.014 187.684C32.1936 187.662 31.5506 186.975 31.2402 186.221C30.952 185.467 30.9298 184.624 30.8189 183.826C30.2203 179.458 26.2959 175.711 21.9058 175.578C20.9081 175.556 19.8881 175.689 18.8904 175.534C17.8926 175.378 16.8727 174.868 16.4958 173.937C16.0745 172.917 16.5845 171.675 17.4714 170.988C18.3361 170.301 19.489 170.035 20.5976 169.924C24.6551 169.525 28.8235 170.456 31.595 173.493C34.5439 176.819 36.5172 180.922 35.1868 185.423Z" fill="#CFF4FF"/>
<path opacity="0.7" d="M181.501 234.158C194.187 234.158 204.471 223.874 204.471 211.187C204.471 198.5 194.187 188.216 181.501 188.216C168.815 188.216 158.531 198.5 158.531 211.187C158.531 223.874 168.815 234.158 181.501 234.158Z" fill="#CFF4FF"/>
<path opacity="0.7" d="M164.429 204.601C164.229 206.087 164.473 207.949 165.848 208.548C166.845 208.969 168.021 208.482 168.797 207.728C169.573 206.974 170.038 205.976 170.593 205.045C173.697 200.078 180.481 197.617 185.913 199.834C187.155 200.344 188.308 201.054 189.616 201.408C190.902 201.763 192.432 201.697 193.408 200.765C194.472 199.745 194.516 197.95 193.829 196.641C193.142 195.333 191.9 194.402 190.614 193.67C185.891 190.987 180.326 189.856 175.315 192.074C169.883 194.468 165.271 198.393 164.429 204.601Z" fill="#CFF4FF"/>
<path opacity="0.7" d="M148.36 274.945C156.106 272.28 160.226 263.84 157.561 256.093C154.896 248.347 146.456 244.227 138.709 246.892C130.963 249.557 126.844 257.997 129.508 265.744C132.173 273.491 140.613 277.61 148.36 274.945Z" fill="#CFF4FF"/>
<path opacity="0.7" d="M131.813 261.541C132.079 262.473 132.722 263.515 133.698 263.492C134.385 263.47 134.962 262.894 135.205 262.228C135.449 261.585 135.472 260.876 135.56 260.166C136.07 256.419 139.44 253.204 143.232 253.071C144.096 253.049 144.961 253.16 145.826 253.027C146.691 252.894 147.555 252.45 147.888 251.652C148.243 250.765 147.799 249.701 147.067 249.102C146.314 248.504 145.338 248.282 144.385 248.193C140.904 247.839 137.334 248.637 134.939 251.275C132.39 254.158 130.682 257.661 131.813 261.541Z" fill="#CFF4FF"/>
<path opacity="0.7" d="M211.619 305.484C213.207 299.799 209.886 293.903 204.202 292.315C198.517 290.727 192.621 294.047 191.033 299.732C189.445 305.417 192.766 311.313 198.45 312.901C204.134 314.489 210.03 311.169 211.619 305.484Z" fill="#CFF4FF"/>
<path opacity="0.7" d="M192.92 302.894C193.119 303.559 193.563 304.313 194.272 304.291C194.782 304.291 195.181 303.847 195.359 303.382C195.536 302.916 195.558 302.406 195.625 301.896C196.001 299.191 198.418 296.885 201.145 296.796C201.766 296.774 202.387 296.863 203.008 296.774C203.629 296.685 204.249 296.353 204.493 295.776C204.759 295.133 204.427 294.379 203.895 293.958C203.363 293.537 202.653 293.382 201.966 293.315C199.46 293.071 196.888 293.648 195.159 295.532C193.341 297.55 192.099 300.1 192.92 302.894Z" fill="#CFF4FF"/>
</svg>
