<svg width="366" height="384" viewBox="0 0 366 384" fill="none" xmlns="http://www.w3.org/2000/svg">
<g opacity="0.73">
<path opacity="0.73" d="M346.869 71.2794C342.723 76.1795 335.361 76.7778 330.461 72.6316C325.561 68.4854 324.963 61.1244 329.109 56.2243C333.255 51.3243 340.616 50.7254 345.516 54.8716C350.416 59.0178 351.015 66.3793 346.869 71.2794ZM346.159 70.6585C349.973 66.1575 349.396 59.4171 344.918 55.6035C340.417 51.7898 333.676 52.3664 329.863 56.8452C326.049 61.3462 326.626 68.0861 331.105 71.8997C335.583 75.7134 342.346 75.1595 346.159 70.6585Z" fill="white"/>
</g>
<path opacity="0.46" d="M360.926 33.7851C368.11 25.3151 367.045 12.6323 358.576 5.4483C350.106 -1.73565 337.423 -0.671235 330.24 7.79874C323.056 16.2687 324.12 28.9516 332.59 36.1355C341.06 43.2973 353.742 42.255 360.926 33.7851Z" fill="white"/>
<path opacity="0.65" d="M329.796 21.5904C330.062 21.3909 331.06 20.5485 331.614 20.1494C331.836 20.349 332.08 20.5486 332.301 20.7481C334.984 23.1427 337.623 25.5374 341.237 26.3578C345.183 27.2447 349.551 26.1581 353.343 25.0717C356.38 24.2069 359.285 22.8101 361.635 20.6815C361.812 20.5263 361.968 20.349 362.123 20.1938C362.278 24.1849 361.014 28.2421 358.22 31.5237C352.301 38.508 341.835 39.3952 334.829 33.4751C331.304 30.504 329.353 26.3797 329.02 22.1225C329.308 21.9452 329.552 21.79 329.796 21.5904Z" fill="white"/>
<path opacity="0.46" d="M308.267 83.6737C312.125 79.1283 311.549 72.2995 307.004 68.4415C302.458 64.5835 295.629 65.1596 291.771 69.7049C287.913 74.2503 288.49 81.0796 293.035 84.9376C297.58 88.7956 304.409 88.2412 308.267 83.6737Z" fill="white"/>
<path opacity="0.65" d="M291.528 77.1327C291.661 77.0218 292.215 76.5782 292.503 76.3564C292.636 76.4673 292.747 76.5563 292.88 76.6672C294.321 77.9532 295.74 79.2389 297.692 79.6824C299.82 80.1702 302.148 79.5719 304.188 78.9954C305.829 78.5298 307.381 77.7758 308.645 76.645C308.733 76.5563 308.822 76.4673 308.911 76.3786C308.999 78.5294 308.312 80.7023 306.804 82.454C303.611 86.2233 298.002 86.6894 294.233 83.4966C292.348 81.9001 291.284 79.6828 291.106 77.399C291.262 77.3325 291.395 77.2436 291.528 77.1327Z" fill="white"/>
<g opacity="0.73">
<path opacity="0.73" d="M198.449 238.439C195.611 241.787 190.577 242.209 187.23 239.371C183.882 236.532 183.46 231.5 186.298 228.152C189.136 224.804 194.169 224.382 197.517 227.22C200.865 230.058 201.264 235.091 198.449 238.439ZM197.939 238.018C200.533 234.936 200.156 230.324 197.074 227.73C193.992 225.136 189.38 225.513 186.786 228.595C184.192 231.677 184.569 236.289 187.651 238.883C190.733 241.477 195.345 241.1 197.939 238.018Z" fill="white"/>
</g>
<path opacity="0.46" d="M208.049 212.808C212.949 207.021 212.24 198.351 206.431 193.429C200.644 188.529 191.974 189.238 187.052 195.047C182.152 200.835 182.861 209.504 188.648 214.426C194.457 219.304 203.127 218.595 208.049 212.808Z" fill="white"/>
<path opacity="0.65" d="M186.764 204.471C186.941 204.338 187.629 203.762 188.005 203.496C188.161 203.629 188.316 203.762 188.471 203.895C190.311 205.535 192.107 207.176 194.591 207.73C197.296 208.329 200.266 207.598 202.861 206.844C204.945 206.245 206.94 205.291 208.537 203.85C208.647 203.739 208.758 203.629 208.869 203.518C208.98 206.245 208.115 209.017 206.209 211.256C202.151 216.045 195.012 216.644 190.223 212.587C187.828 210.547 186.476 207.731 186.254 204.826C186.431 204.715 186.586 204.604 186.764 204.471Z" fill="white"/>
<path opacity="0.46" d="M172.042 246.932C174.68 243.827 174.281 239.149 171.177 236.51C168.073 233.872 163.394 234.271 160.756 237.375C158.117 240.479 158.517 245.157 161.621 247.796C164.747 250.412 169.403 250.036 172.042 246.932Z" fill="white"/>
<path opacity="0.65" d="M160.601 242.453C160.689 242.387 161.066 242.076 161.266 241.921C161.355 241.987 161.443 242.076 161.51 242.142C162.508 243.029 163.461 243.894 164.791 244.205C166.233 244.537 167.851 244.138 169.248 243.739C170.357 243.428 171.443 242.918 172.308 242.12C172.374 242.054 172.419 242.01 172.485 241.943C172.529 243.407 172.064 244.892 171.044 246.111C168.871 248.683 165.013 248.994 162.441 246.821C161.155 245.735 160.423 244.204 160.312 242.652C160.423 242.564 160.512 242.52 160.601 242.453Z" fill="white"/>
<g opacity="0.73">
<path opacity="0.73" d="M323.921 224.537C320.151 228.994 313.455 229.549 308.977 225.779C304.52 222.01 303.966 215.314 307.735 210.835C311.504 206.378 318.2 205.824 322.679 209.593C327.158 213.363 327.69 220.081 323.921 224.537ZM323.255 223.983C326.714 219.881 326.204 213.74 322.125 210.259C318.023 206.8 311.881 207.31 308.4 211.389C304.941 215.491 305.451 221.633 309.531 225.114C313.633 228.595 319.797 228.085 323.255 223.983Z" fill="white"/>
</g>
<path opacity="0.46" d="M356.225 164.871C368.863 149.949 367.001 127.599 352.079 114.96C337.157 102.322 314.808 104.184 302.17 119.106C289.532 134.028 291.394 156.379 306.316 169.017C321.238 181.656 343.587 179.793 356.225 164.871Z" fill="white"/>
<path opacity="0.65" d="M301.393 143.407C301.859 143.03 303.633 141.589 304.608 140.879C305.008 141.234 305.407 141.567 305.806 141.921C310.551 146.134 315.162 150.347 321.548 151.788C328.488 153.363 336.182 151.433 342.878 149.504C348.221 147.974 353.365 145.536 357.489 141.788C357.799 141.5 358.065 141.212 358.354 140.924C358.62 147.953 356.38 155.092 351.48 160.879C341.037 173.208 322.59 174.738 310.285 164.294C304.098 159.061 300.64 151.789 300.041 144.294C300.507 144.028 300.95 143.739 301.393 143.407Z" fill="white"/>
<path opacity="0.46" d="M263.435 252.807C270.22 244.781 269.222 232.763 261.218 225.978C253.192 219.193 241.174 220.191 234.39 228.196C227.605 236.222 228.581 248.24 236.607 255.025C244.633 261.832 256.628 260.834 263.435 252.807Z" fill="white"/>
<path opacity="0.65" d="M233.946 241.255C234.19 241.056 235.143 240.279 235.675 239.902C235.897 240.08 236.119 240.279 236.319 240.457C238.868 242.718 241.352 244.98 244.788 245.756C248.513 246.599 252.659 245.557 256.251 244.537C259.134 243.716 261.883 242.408 264.1 240.391C264.255 240.235 264.411 240.08 264.566 239.925C264.699 243.694 263.501 247.53 260.863 250.656C255.253 257.286 245.343 258.107 238.713 252.497C235.387 249.681 233.525 245.778 233.214 241.743C233.48 241.588 233.724 241.433 233.946 241.255Z" fill="white"/>
<g opacity="0.73">
<path opacity="0.73" d="M94.9049 348.017C91.1356 352.474 84.4175 353.028 79.9609 349.259C75.5044 345.489 74.9501 338.771 78.7193 334.315C82.4886 329.858 89.1845 329.304 93.6632 333.073C98.142 336.842 98.6963 343.56 94.9049 348.017ZM94.2619 347.463C97.7208 343.361 97.2108 337.219 93.1311 333.738C89.0293 330.279 82.8877 330.789 79.4066 334.869C75.9478 338.971 76.4578 345.112 80.5374 348.593C84.6393 352.052 90.7809 351.542 94.2619 347.463Z" fill="white"/>
</g>
<path opacity="0.46" d="M127.21 288.35C139.848 273.428 137.986 251.078 123.064 238.439C108.142 225.801 85.7926 227.664 73.1545 242.586C60.5164 257.508 62.3788 279.858 77.3007 292.497C92.2225 305.135 114.572 303.272 127.21 288.35Z" fill="white"/>
<path opacity="0.65" d="M72.3783 266.887C72.844 266.532 74.6178 265.068 75.5933 264.359C75.9924 264.691 76.4137 265.046 76.7906 265.401C81.5354 269.614 86.1472 273.827 92.5327 275.268C99.4726 276.843 107.166 274.913 113.862 272.984C119.206 271.455 124.35 269.016 128.474 265.268C128.784 264.98 129.05 264.692 129.339 264.403C129.605 271.432 127.365 278.572 122.465 284.359C112.022 296.687 93.5749 298.217 81.2694 287.774C75.0834 282.541 71.6245 275.268 71.0259 267.774C71.5137 267.485 71.9571 267.219 72.3783 266.887Z" fill="white"/>
<path opacity="0.46" d="M34.4198 376.265C41.2044 368.238 40.2067 356.221 32.2026 349.436C24.1762 342.651 12.1589 343.649 5.37418 351.654C-1.41049 359.68 -0.412748 371.697 7.59139 378.482C15.6177 385.289 27.6351 384.292 34.4198 376.265Z" fill="white"/>
<path opacity="0.65" d="M4.95326 364.735C5.19715 364.535 6.15061 363.76 6.68274 363.383C6.90446 363.56 7.12613 363.76 7.32568 363.937C9.87546 366.199 12.3587 368.46 15.7954 369.236C19.5203 370.079 23.6664 369.036 27.2583 368.017C30.1407 367.196 32.8901 365.888 35.1073 363.871C35.2625 363.715 35.4176 363.56 35.5728 363.405C35.7058 367.174 34.5086 371.01 31.8701 374.136C26.2606 380.766 16.3497 381.586 9.72029 375.977C6.39449 373.161 4.53209 369.258 4.22168 365.223C4.48774 365.068 4.73154 364.912 4.95326 364.735Z" fill="white"/>
</svg>
