<svg width="172" height="536" viewBox="0 0 172 536" fill="none" xmlns="http://www.w3.org/2000/svg">
<g opacity="0.73">
<path opacity="0.73" d="M118.203 49.7604C124.788 50.7582 129.333 56.9442 128.335 63.5295C127.337 70.1147 121.152 74.6602 114.566 73.6624C107.981 72.6647 103.436 66.4786 104.434 59.8934C105.431 53.3082 111.617 48.7626 118.203 49.7604ZM114.722 72.687C120.775 73.5961 126.451 69.4277 127.36 63.3746C128.269 57.3215 124.1 51.6455 118.047 50.7364C111.994 49.8273 106.318 53.9957 105.409 60.0488C104.5 66.1019 108.669 71.7779 114.722 72.687Z" fill="white"/>
</g>
<path opacity="0.46" d="M164.573 33.4295C168.306 22.5147 162.483 10.6403 151.569 6.90744C140.654 3.17458 128.781 8.99672 125.048 19.9115C121.315 30.8263 127.137 42.7006 138.051 46.4334C148.966 50.1663 160.84 44.3443 164.573 33.4295Z" fill="white"/>
<path opacity="0.65" d="M154.986 39.3173C154.964 38.9626 154.92 37.6099 154.853 36.9225C154.543 36.8782 154.232 36.8342 153.922 36.7899C150.219 36.3243 146.539 35.9026 143.435 33.6188C140.042 31.1355 137.914 26.9893 136.184 23.2643C134.787 20.2932 133.878 17.0559 133.945 13.7743C133.945 13.5304 133.967 13.2869 133.989 13.043C130.774 15.6594 128.468 19.4063 127.781 23.8408C126.362 33.2642 132.836 42.0449 142.237 43.4639C146.96 44.1734 151.55 42.9092 155.097 40.2484C155.053 39.938 155.008 39.6278 154.986 39.3173Z" fill="white"/>
<path opacity="0.46" d="M121.129 98.6074C122.061 92.4878 127.781 88.2528 133.901 89.1841C140.02 90.1153 144.255 95.8359 143.324 101.956C142.393 108.075 136.672 112.31 130.553 111.379C124.411 110.448 120.198 104.727 121.129 98.6074Z" fill="white"/>
<path opacity="0.65" d="M137.67 107.211C137.67 107.033 137.648 106.301 137.603 105.925C137.426 105.902 137.271 105.88 137.093 105.858C135.098 105.614 133.125 105.37 131.462 104.151C129.644 102.82 128.491 100.581 127.559 98.5852C126.805 96.9888 126.318 95.2592 126.362 93.4854C126.362 93.3523 126.384 93.2195 126.384 93.0864C124.655 94.4833 123.413 96.5013 123.058 98.8959C122.282 103.951 125.763 108.674 130.841 109.45C133.391 109.827 135.852 109.14 137.758 107.721C137.714 107.565 137.692 107.388 137.67 107.211Z" fill="white"/>
<g opacity="0.73">
<path opacity="0.73" d="M84.457 283.373C88.9579 284.06 92.062 288.273 91.3968 292.774C90.7095 297.275 86.4968 300.401 81.9959 299.714C77.495 299.026 74.3909 294.814 75.056 290.313C75.7212 285.789 79.956 282.685 84.457 283.373ZM82.0845 299.049C86.2307 299.67 90.0887 296.809 90.7317 292.685C91.3525 288.539 88.4923 284.681 84.3683 284.038C80.2222 283.417 76.3642 286.277 75.7212 290.401C75.0782 294.548 77.9384 298.428 82.0845 299.049Z" fill="white"/>
</g>
<path opacity="0.46" d="M88.5587 265.257C89.7338 257.453 97.0284 252.086 104.811 253.284C112.615 254.459 117.981 261.754 116.784 269.537C115.609 277.341 108.314 282.707 100.532 281.51C92.727 280.334 87.3614 273.062 88.5587 265.257Z" fill="white"/>
<path opacity="0.65" d="M109.6 276.233C109.578 275.989 109.555 275.08 109.511 274.592C109.289 274.57 109.09 274.525 108.868 274.503C106.34 274.171 103.835 273.905 101.684 272.33C99.3563 270.645 97.915 267.785 96.7177 265.236C95.7643 263.196 95.1435 261 95.1878 258.739C95.1878 258.561 95.2101 258.406 95.2322 258.251C93.0372 260.025 91.463 262.597 90.9974 265.634C90.0218 272.064 94.4562 278.073 100.886 279.049C104.123 279.537 107.249 278.672 109.688 276.854C109.644 276.654 109.622 276.455 109.6 276.233Z" fill="white"/>
<path opacity="0.46" d="M86.4525 316.765C87.0955 312.574 90.9978 309.691 95.1883 310.334C99.3789 310.977 102.261 314.88 101.618 319.07C100.975 323.261 97.073 326.144 92.8825 325.501C88.6919 324.858 85.8095 320.955 86.4525 316.765Z" fill="white"/>
<path opacity="0.65" d="M97.7604 322.663C97.7604 322.53 97.7382 322.042 97.7161 321.776C97.6052 321.754 97.4944 321.732 97.3835 321.732C96.031 321.554 94.6785 321.399 93.5255 320.579C92.2839 319.67 91.5079 318.14 90.8649 316.765C90.355 315.679 90.0224 314.481 90.0446 313.284C90.0446 313.195 90.0667 313.106 90.0667 313.018C88.8916 313.971 88.0269 315.368 87.783 316.987C87.2509 320.445 89.6454 323.683 93.1043 324.193C94.8337 324.459 96.5188 323.993 97.8269 323.017C97.8047 322.884 97.7826 322.774 97.7604 322.663Z" fill="white"/>
<g opacity="0.73">
<path opacity="0.73" d="M12.7079 173.351C18.7166 174.26 22.8628 179.892 21.9537 185.879C21.0447 191.888 15.4129 196.034 9.42645 195.125C3.41781 194.216 -0.728363 188.584 0.180693 182.598C1.08975 176.589 6.72148 172.442 12.7079 173.351ZM9.55948 194.238C15.0803 195.081 20.2464 191.267 21.0668 185.746C21.9093 180.225 18.0957 175.059 12.5749 174.238C7.05403 173.396 1.88796 177.209 1.0676 182.73C0.225057 188.251 4.03863 193.418 9.55948 194.238Z" fill="white"/>
</g>
<path opacity="0.46" d="M24.814 116.545C27.8516 96.457 46.6091 82.6214 66.7192 85.6812C86.8071 88.7189 100.643 107.477 97.5828 127.587C94.5452 147.676 75.7876 161.511 55.6776 158.452C35.5897 155.392 21.7542 136.634 24.814 116.545Z" fill="white"/>
<path opacity="0.65" d="M79.0692 144.793C79.047 144.172 78.9583 141.8 78.8475 140.558C78.2932 140.47 77.7611 140.403 77.2068 140.336C70.6882 139.494 64.2139 138.762 58.7153 134.749C52.7288 130.381 49.0039 123.042 45.922 116.501C43.4609 111.268 41.8645 105.569 41.9754 99.7821C41.9754 99.3386 42.0419 98.9394 42.064 98.5181C36.388 103.108 32.3305 109.738 31.1554 117.52C28.6499 134.106 40.0464 149.583 56.6311 152.11C64.9678 153.374 73.0163 151.113 79.291 146.456C79.1801 145.902 79.1136 145.348 79.0692 144.793Z" fill="white"/>
<path opacity="0.46" d="M19.4038 249.249C21.0445 238.451 31.1328 231.023 41.9306 232.664C52.7284 234.304 60.1561 244.393 58.5154 255.192C56.8746 265.99 46.7863 273.418 35.9885 271.777C25.1907 270.136 17.7631 260.047 19.4038 249.249Z" fill="white"/>
<path opacity="0.65" d="M48.5601 264.437C48.5379 264.104 48.4935 262.818 48.4492 262.153C48.161 262.109 47.8505 262.064 47.5623 262.02C44.0591 261.576 40.5781 261.178 37.6292 259.027C34.4143 256.677 32.3966 252.73 30.7559 249.205C29.4477 246.389 28.583 243.329 28.6273 240.225C28.6273 240.003 28.6495 239.759 28.6717 239.537C25.6119 241.998 23.4391 245.568 22.7961 249.759C21.4436 258.672 27.5853 266.987 36.4984 268.339C40.9772 269.027 45.3007 267.807 48.6709 265.301C48.6266 265.035 48.5822 264.725 48.5601 264.437Z" fill="white"/>
<g opacity="0.73">
<path opacity="0.73" d="M72.5727 436.963C78.5814 437.873 82.7275 443.504 81.8185 449.491C80.9094 455.5 75.2777 459.646 69.2912 458.737C63.2825 457.828 59.1364 452.196 60.0454 446.209C60.9545 440.2 66.564 436.054 72.5727 436.963ZM69.4021 457.85C74.923 458.693 80.089 454.879 80.9094 449.358C81.7519 443.837 77.9383 438.671 72.4175 437.85C66.8966 437.008 61.7305 440.821 60.9101 446.342C60.0897 451.841 63.9034 457.007 69.4021 457.85Z" fill="white"/>
</g>
<path opacity="0.46" d="M84.6566 380.156C87.6941 360.068 106.452 346.232 126.562 349.292C146.65 352.33 160.485 371.088 157.425 391.198C154.388 411.287 135.63 425.123 115.52 422.063C95.4322 419.003 81.619 400.245 84.6566 380.156Z" fill="white"/>
<path opacity="0.65" d="M138.934 408.404C138.912 407.783 138.823 405.411 138.712 404.169C138.158 404.081 137.626 404.014 137.071 403.948C130.553 403.105 124.079 402.373 118.58 398.36C112.594 393.992 108.869 386.653 105.787 380.112C103.326 374.879 101.729 369.181 101.84 363.394C101.84 362.951 101.907 362.552 101.929 362.13C96.2527 366.72 92.1952 373.35 91.0201 381.132C88.5147 397.717 99.9111 413.194 116.496 415.721C124.832 416.985 132.881 414.723 139.156 410.067C139.045 409.513 138.956 408.959 138.934 408.404Z" fill="white"/>
<path opacity="0.46" d="M79.2464 512.86C80.8871 502.062 90.9754 494.635 101.773 496.275C112.571 497.916 119.999 508.005 118.358 518.803C116.717 529.601 106.629 537.028 95.8311 535.388C85.0555 533.747 77.6278 523.659 79.2464 512.86Z" fill="white"/>
<path opacity="0.65" d="M108.425 528.027C108.403 527.694 108.358 526.408 108.314 525.743C108.026 525.698 107.715 525.654 107.427 525.61C103.924 525.166 100.443 524.767 97.494 522.616C94.279 520.266 92.2613 516.319 90.6206 512.794C89.3124 509.978 88.4477 506.918 88.4921 503.813C88.4921 503.592 88.5142 503.348 88.5364 503.126C85.4767 505.587 83.3038 509.157 82.6608 513.348C81.3083 522.261 87.45 530.576 96.3632 531.929C100.842 532.616 105.166 531.397 108.536 528.891C108.491 528.625 108.447 528.337 108.425 528.027Z" fill="white"/>
</svg>
