<svg id="Capa_1" data-name="Capa 1" xmlns="http://www.w3.org/2000/svg" viewBox="0 0 1292.87 1292.87"><defs><style>.cls-1{fill:#3cb5ab;}.cls-2{fill:#ec6b74;}.cls-3{fill:#fcca77;}.cls-4{fill:#3c3c3b;}.cls-5{fill:#f1f6ed;}</style></defs><path class="cls-1" d="M1421,717.06c0,174.33-69,332.61-181.24,448.88-.83-15.81.29-31.91-.83-47.81-.14-2.71-.38-5.42-.72-8.08-7.4-60.82-56.42-109.4-111-137.1s-115.88-39-174.33-57.34c-25.23-7.93-51-17.84-71.4-34.13,26.06-14,51.48-31.42,75-49.7a601.56,601.56,0,0,1,128.35-121.63l.15-.15a618.6,618.6,0,0,1,204.45-93.5,630.5,630.5,0,0,1,120.71-18.12A648.1,648.1,0,0,1,1421,717.06Z" transform="translate(-128.13 -70.6)"/><path class="cls-2" d="M1238.93,1118.13c-22.67-13-56.65-8.42-78.65,8.55-29,22.39-43.56,58-61.21,90-19.09,34.66-45,68.36-82.08,82.09s-86.54-.58-99.45-38c-11.75-33.94,9.09-69.57,16.05-104.86a137,137,0,0,0-3.19-65,76.91,76.91,0,0,1,65.46,46.41,19.72,19.72,0,0,0,21.85,11.5l1.31-.24a20,20,0,0,0,14.64-27.36,116.84,116.84,0,0,0-123-71,.85.85,0,0,1-.2-.24c-19.82-27.46-49.07-46.6-71.55-71.94a180.84,180.84,0,0,1-37.12-66.81c26.25-4.69,53.27-15.47,79.62-29.73,20.4,16.29,46.17,26.2,71.4,34.13,58.45,18.32,119.66,29.68,174.33,57.34s103.65,76.28,111,137.1C1238.55,1112.71,1238.79,1115.42,1238.93,1118.13Z" transform="translate(-128.13 -70.6)"/><path class="cls-3" d="M1239.76,1165.94c-117.58,121.78-282.53,197.53-465.17,197.53a644.73,644.73,0,0,1-224-39.88A509.52,509.52,0,0,1,413.12,974.83c0-180.66,93.74-339.57,235.19-430.5l3.92-2.47a268.65,268.65,0,0,0,100.12-334.2,58.38,58.38,0,0,1,99.73-58.74,49.87,49.87,0,0,0,76.77.19c.39-.43.73-.87,1.07-1.26a58.33,58.33,0,0,1,103.41,37c17.93,29.44,9.62,89.24-171.92,282.33-8.46,9.09-17.35,18.42-26.63,28.09C627.38,710.78,648.6,787.55,648.6,787.55a126.16,126.16,0,0,0,53.62,103.31c.67.48,1.35,1,2,1.5,21.56,15.42,45.54,21.8,70.63,21.51,1.79,0,3.57,0,5.36,0,2-.14,4.11-.29,6.19-.48,1.31-.1,2.61-.24,3.92-.44,3.82-.43,7.64-1,11.46-1.69A180.84,180.84,0,0,0,838.93,978c22.48,25.34,51.73,44.48,71.55,71.94a.85.85,0,0,0,.2.24c-2.18.29-4.35.63-6.53,1a116.87,116.87,0,0,0-95.33,112.2,20,20,0,0,0,19.82,20.5,19.3,19.3,0,0,0,3.77-.34A19.72,19.72,0,0,0,848.6,1165a76.65,76.65,0,0,1,62.56-72.85l.63-.15a78.17,78.17,0,0,1,18.61-1.06,137,137,0,0,1,3.19,65c-7,35.29-27.8,70.92-16.05,104.86,12.91,37.42,62.32,51.78,99.45,38s63-47.43,82.08-82.09c17.65-32,32.25-67.63,61.21-90,22-17,56-21.56,78.65-8.55C1240.05,1134,1238.93,1150.13,1239.76,1165.94Z" transform="translate(-128.13 -70.6)"/><path class="cls-4" d="M1019,1148.58l-1.31.24a19.72,19.72,0,0,1-21.85-11.5,76.91,76.91,0,0,0-65.46-46.41,78.17,78.17,0,0,0-18.61,1.06l-.63.15A76.65,76.65,0,0,0,848.6,1165a19.72,19.72,0,0,1-16.19,18.61,19.3,19.3,0,0,1-3.77.34,20,20,0,0,1-19.82-20.5,116.87,116.87,0,0,1,95.33-112.2c2.18-.39,4.35-.73,6.53-1a116.84,116.84,0,0,1,123,71A20,20,0,0,1,1019,1148.58Z" transform="translate(-128.13 -70.6)"/><path class="cls-5" d="M1410.12,598.38a630.5,630.5,0,0,0-120.71,18.12A618.6,618.6,0,0,0,1085,710l-.15.15A601.56,601.56,0,0,0,956.46,831.78c-23.55,18.28-49,35.68-75,49.7-26.35,14.26-53.37,25-79.62,29.73-3.82.73-7.64,1.26-11.46,1.69-1.31.2-2.61.34-3.92.44-2.08.19-4.16.34-6.19.48-1.79,0-3.57.1-5.36,0-25.09.29-49.07-6.09-70.63-21.51-.68-.49-1.36-1-2-1.5A126.16,126.16,0,0,1,648.6,787.55s-21.22-76.77,186.18-292.24c9.28-9.67,18.17-19,26.63-28.09C1043,274.13,1051.26,214.33,1033.33,184.89a58.33,58.33,0,0,0-103.41-37c-.34.39-.68.83-1.07,1.26a49.87,49.87,0,0,1-76.77-.19,58.39,58.39,0,0,0-99.73,58.74,268.65,268.65,0,0,1-100.12,334.2l-3.92,2.47c-141.45,90.93-235.19,249.84-235.19,430.5a509.52,509.52,0,0,0,137.44,348.76C304,1232.51,128.13,995.33,128.13,717.06c0-357,289.44-646.46,646.46-646.46C1091.05,70.6,1354.38,298,1410.12,598.38Z" transform="translate(-128.13 -70.6)"/><circle class="cls-3" cx="954.22" cy="1036.19" r="17.96"/><circle class="cls-3" cx="947.66" cy="964.34" r="17.96"/><circle class="cls-3" cx="984.96" cy="996.56" r="17.96"/></svg>