<svg width="1480" height="974" viewBox="0 0 1480 974" fill="none" xmlns="http://www.w3.org/2000/svg">
<path opacity="0.2" d="M1422.98 498.198C1373.09 512.3 1321.72 524.251 1269.5 523.985C1217.27 523.719 1163.59 510.149 1124.54 478.464C1112.39 468.598 1101.4 456.89 1086.45 451.036C1073.06 445.782 1057.98 445.849 1043.42 446.004C995.368 446.514 947.344 447.001 899.297 447.511C959.804 431.015 1020.6 414.385 1077.45 389.286C1116.85 371.88 1156.85 349.885 1200.57 351.77C1228.37 352.967 1254.83 363.898 1282.63 365.051C1312.3 366.293 1341.85 360.683 1369.59 357.978C1364.82 351.858 1360.17 345.672 1355.78 339.309C1353.82 336.493 1348.57 332.923 1351.85 331.459C1290.5 333.433 1228.97 330.373 1168.22 322.324C1146.03 319.375 1123.43 315.783 1101.35 319.264C1070.35 324.164 1044.21 342.324 1017.52 357.512C917.389 414.518 792.627 434.274 677.332 411.37C648.641 405.671 620.416 397.423 591.193 394.829C519.09 388.399 448.405 416.58 375.991 417.866C321.536 418.842 268.279 404.629 214.268 398.288C175.045 393.698 130.014 395.162 103.053 421.592C96.8445 427.689 92.8979 435.405 89.8603 443.609C131.743 441.414 173.56 436.159 215.51 434.23C235.464 433.299 255.708 432.722 275.13 436.913C291.272 440.372 306.393 447.023 322.379 451.081C345.571 456.957 369.96 457.223 394.039 457.467C414.171 457.666 434.548 457.822 454.148 453.653C479.424 448.265 502.66 435.782 528.38 432.611C551.128 429.818 574.077 434.518 596.448 439.174C621.214 444.341 645.958 449.507 670.725 454.673C621.902 454.717 573.079 459.573 525.387 469.085C509.822 472.19 494.235 475.826 479.845 482.078C463.903 488.996 449.758 498.907 434.215 506.557C393.596 526.557 345.637 529.927 299.542 528.286C253.424 526.646 207.395 520.415 161.321 522.854C127.664 524.628 94.6273 531.014 61.8791 538.53C59.928 548.22 57.7994 557.909 54.4736 567.465C143.539 548.641 236.44 545.071 326.924 556.978C346.857 559.594 366.989 562.987 387.033 561.013C418.318 557.931 446.055 542.233 474.346 529.661C548.202 496.824 632.5 483.83 714.049 492.766C771.209 499.018 827.37 515.759 884.907 513.741C952.709 511.346 1021 483.054 1086.32 499.816C1121.75 508.907 1151.73 530.415 1185.78 543.142C1271.21 575.071 1367.97 548.33 1455.48 521.479C1456.95 510.415 1455.71 499.04 1452.71 487.732C1443.02 492.012 1432.76 495.426 1422.98 498.198Z" fill="#66DEFF"/>
<path opacity="0.5" d="M488.692 155.94C430.623 161.106 370.958 170.818 314.752 156.782C283.999 149.088 255.685 134.543 224.511 128.246C197.373 122.77 169.125 123.745 141.455 126.384C126.333 127.825 110.214 129.953 96.8223 136.805C90.5476 140.02 85.7362 144.743 79.1955 147.093C72.3886 149.532 66.1361 145.519 61.3913 153.257C58.0211 158.756 58.6863 165.43 59.551 171.638C62.6773 194.232 68.1981 218.444 87.1331 233.721C88.9068 235.163 90.8801 236.537 93.186 237.092C96.0684 237.779 99.1282 237.114 102.011 236.449C145.756 226.516 190.965 219.664 235.974 222.702C290.651 226.382 343.797 244.52 398.584 242.701C494.811 239.531 575.074 176.649 668.153 154.676C608.465 150.197 548.29 150.619 488.692 155.94ZM315.993 209.908C299.763 210.218 283.356 209.886 267.636 206.272C255.131 203.389 243.291 198.489 230.764 195.651C199.324 188.534 164.292 195.607 139.348 214.077C134.604 217.602 129.593 221.726 123.407 221.771C103.297 221.948 87.7539 174.033 94.7159 160.13C105.913 137.714 154.98 142.57 176.176 146.25C187.129 148.157 197.794 151.151 208.392 154.255C280.784 175.452 354.085 202.636 430.091 197.536C392.642 205.03 354.373 209.176 315.993 209.908Z" fill="#66DEFF"/>
<path opacity="0.4" d="M1206.2 215.252C1192.66 215.23 1178.78 215.185 1166.03 211.815C1140.75 205.119 1118.51 185.629 1092.75 191.261C1141.84 165.673 1207.93 172.813 1267.73 168.312C1305.47 165.474 1344.76 154.277 1382.98 152.902C1382.8 146.183 1382.54 139.488 1382.09 132.792C1310.81 134.122 1239.55 136.228 1168.33 139.088C1126.47 140.773 1083.86 142.835 1044.77 154.01C966.988 176.25 908.343 232.923 825.375 239.265C805.353 240.795 786.973 241.571 767.661 246.094C755.045 249.043 729.636 259.73 716.953 256.737C785.953 273.012 860.894 263.189 932.909 268.954C959.449 271.083 985.812 275.362 1012.53 275.03C1034.35 274.763 1055.88 271.415 1077.12 267.712C1122.13 259.863 1167.07 250.351 1213.3 249.11C1236.38 248.489 1259.59 249.952 1282.56 248.09C1316.33 245.385 1348.24 235.673 1379.61 226.05C1380.32 220.13 1380.87 214.187 1381.36 208.245C1323.91 215.296 1264.69 215.318 1206.2 215.252Z" fill="#66DEFF"/>
<path opacity="0.7" d="M319.585 66.2736C340.848 71.1516 361.601 77.7145 382.82 82.7256C415.723 90.486 449.491 94.4106 483.171 98.313C525.985 103.28 568.777 108.246 611.591 113.213C540.042 119.355 467.939 120.552 396.079 116.827C359.051 114.898 321.802 111.617 286.238 101.75C269.742 97.1601 253.69 91.1954 237.061 87.0491C193.625 76.251 147.951 78.3573 103.163 75.2975C97.4429 74.8984 91.2569 74.2335 87.0886 70.5972C80.06 64.4554 83.1198 52.8587 90.7248 47.4707C98.3298 42.0827 108.596 41.2402 118.24 40.8855C185.91 38.4021 254.111 51.2627 319.585 66.2736Z" fill="#66DEFF"/>
<path opacity="0.7" d="M1376.4 24.101C1371.34 18.3804 1363.31 16.5399 1355.82 15.0544C1340.37 11.9945 1324.87 9.15625 1309.35 6.53988C1282.1 1.95015 1254.32 -1.99625 1226.89 1.32964C1190.86 5.69765 1157.6 22.2385 1125.19 38.5353C1116.23 43.0364 1107.25 47.5371 1098.29 52.0603C1101.86 50.2643 1121.88 55.0094 1127.23 55.4972C1137.69 56.4284 1147.89 56.8054 1158.47 56.6502C1183.1 56.3176 1207.73 55.1648 1232.25 52.9254C1281.12 48.4687 1329.75 39.6218 1376.4 24.101Z" fill="#66DEFF"/>
<path opacity="0.2" d="M34.8068 900.433C87.4877 915.334 141.698 927.95 196.84 927.662C251.982 927.373 308.676 913.049 349.894 879.613C362.732 869.192 374.328 856.842 390.092 850.656C404.238 845.113 420.136 845.179 435.523 845.334C486.253 845.866 536.96 846.398 587.69 846.93C523.812 829.503 459.624 811.964 399.604 785.468C357.987 767.086 315.794 743.872 269.631 745.845C240.298 747.109 212.339 758.639 183.005 759.858C151.698 761.166 120.502 755.269 91.2126 752.386C96.2457 745.934 101.146 739.393 105.78 732.674C107.842 729.703 113.385 725.934 109.926 724.382C174.691 726.466 239.655 723.229 303.799 714.737C327.234 711.633 351.069 707.819 374.395 711.522C407.121 716.688 434.703 735.845 462.906 751.898C568.622 812.075 700.346 832.939 822.071 808.749C852.358 802.74 882.158 794.027 913.021 791.277C989.138 784.492 1063.77 814.226 1140.24 815.601C1197.73 816.621 1253.96 801.609 1310.99 794.935C1352.41 790.08 1399.92 791.632 1428.39 819.525C1434.95 825.955 1439.1 834.093 1442.31 842.784C1398.08 840.478 1353.94 834.935 1309.66 832.873C1288.59 831.898 1267.22 831.299 1246.71 835.689C1229.66 839.348 1213.7 846.376 1196.82 850.656C1172.35 856.864 1146.58 857.152 1121.17 857.396C1099.91 857.595 1078.4 857.773 1057.72 853.361C1031.04 847.662 1006.52 834.492 979.36 831.144C955.348 828.195 931.113 833.139 907.5 838.084C881.359 843.538 855.218 848.993 829.1 854.447C880.65 854.514 932.178 859.613 982.553 869.657C999.004 872.939 1015.43 876.775 1030.64 883.382C1047.47 890.677 1062.42 901.165 1078.8 909.236C1121.68 930.344 1172.3 933.914 1220.99 932.184C1269.68 930.455 1318.28 923.87 1366.93 926.442C1402.45 928.327 1437.32 935.067 1471.91 943.005C1473.97 953.227 1476.21 963.448 1479.74 973.559C1385.71 953.692 1287.64 949.923 1192.1 962.495C1171.06 965.267 1149.8 968.836 1128.64 966.752C1095.63 963.493 1066.32 946.93 1036.48 933.648C958.496 898.97 869.519 885.267 783.403 894.691C723.051 901.298 663.762 918.97 603.011 916.841C531.417 914.313 459.336 884.447 390.381 902.141C352.976 911.742 321.337 934.424 285.374 947.861C195.178 981.563 93.0307 953.337 0.639593 924.978C-0.890281 913.293 0.417889 901.276 3.56633 889.347C13.6325 893.915 24.4746 897.529 34.8068 900.433Z" fill="#66DEFF"/>
<path opacity="0.2" d="M949.694 632.542C936.612 632.52 923.22 632.476 910.915 628.44C886.503 620.48 865.063 597.31 840.186 603.984C887.545 573.563 951.356 582.033 1009.07 576.712C1045.5 573.341 1083.41 560.015 1120.31 558.375C1120.15 550.392 1119.89 542.432 1119.47 534.45C1050.67 536.047 981.887 538.53 913.154 541.944C872.756 543.94 831.627 546.401 793.89 559.683C718.816 586.112 662.21 653.518 582.147 661.057C562.835 662.875 545.097 663.784 526.428 669.172C514.256 672.675 489.734 685.38 477.495 681.832C544.1 701.167 616.425 689.482 685.912 696.378C711.543 698.906 736.975 704.005 762.761 703.606C783.824 703.274 804.599 699.305 825.109 694.893C868.544 685.58 911.935 674.249 956.545 672.764C978.828 672.032 1001.22 673.762 1023.39 671.567C1055.99 668.352 1086.78 656.8 1117.07 645.381C1117.76 638.33 1118.29 631.279 1118.78 624.205C1063.3 632.565 1006.14 632.609 949.694 632.542Z" fill="#66DEFF"/>
</svg>
