<svg width="143" height="98" viewBox="0 0 143 98" fill="none" xmlns="http://www.w3.org/2000/svg">
<path d="M103.87 36.5808C103.87 36.5808 125.244 20.1509 135.088 20.1509C144.955 20.1509 143.314 33.2992 133.447 38.2216C123.581 43.144 151.517 59.5961 140.01 61.2369C128.503 62.8777 107.151 46.4477 107.151 46.4477L103.87 36.5808Z" fill="#EA5A5A"/>
<path d="M107.173 46.4478C107.173 46.4478 121.962 5.36164 97.3068 2.08008C72.6515 -1.20149 52.9406 -1.20134 21.7001 34.9403L0.326172 41.5033C0.326172 41.5033 1.96687 44.7848 15.1149 48.0664C28.263 51.3479 85.7774 107.224 110.433 72.7227C110.455 72.7449 120.321 64.5186 107.173 46.4478Z" fill="#F9C169"/>
<path opacity="0.43" d="M102.428 70.8376C101.298 67.0017 99.2357 63.5207 97.7945 59.8179C95.9986 55.2503 95.7989 50.9046 96.4641 46.0488C98.0383 34.519 102.739 23.6986 103.87 12.058C104.136 9.4195 104.114 6.82533 103.87 4.31982C118.969 13.6323 107.173 46.4477 107.173 46.4477C120.322 64.5184 110.455 72.7446 110.455 72.7446C108.215 75.871 105.732 78.2435 103.005 79.9951C103.515 77.157 103.404 74.1191 102.428 70.8376Z" fill="#31697A"/>
<path opacity="0.43" d="M72.629 61.0597C70.8774 56.6916 68.5938 52.0793 68.1282 47.3343C67.7512 43.3433 68.8598 39.175 70.0349 35.4057C72.8951 26.2927 77.7507 17.9113 80.234 8.66527C80.9435 6.00454 81.4313 3.36638 81.653 0.75C82.806 0.772173 83.9589 0.793912 85.1118 0.86043C89.4797 14.1862 81.1652 29.8625 79.2806 43.7426C77.9503 53.5208 79.4802 61.5474 83.4933 70.4609C84.0033 71.5695 84.7792 73.21 85.0897 74.0304C85.3114 74.6069 86.0209 77.29 85.9322 76.5362C86.0209 77.4896 86.0431 77.4006 85.7327 77.9106C84.7793 79.507 82.8946 80.6604 81.3648 81.6582C80.7661 82.0573 80.2563 82.4782 79.8128 82.9438C78.283 82.6113 76.7531 82.212 75.2232 81.7242C76.3983 74.9172 75.4892 68.1993 72.629 61.0597Z" fill="#31697A"/>
<path opacity="0.43" d="M58.3061 74.4956C53.783 72.101 49.3264 69.4403 45.0915 66.7574C44.2933 54.9393 39.9475 42.944 43.6724 31.4142C44.0494 30.2612 44.4263 29.1303 44.8254 27.9995C45.6458 25.871 46.4219 23.7426 47.087 21.5919C48.506 17.5121 49.7255 13.4987 50.2576 9.28592C54.9138 6.46999 59.3704 4.4744 63.7383 3.14404C61.6098 13.5209 54.8693 23.9863 52.3861 33.5649C49.9471 43.0105 50.4571 52.0795 53.9381 61.1481C55.7341 65.7379 57.8183 70.0389 58.3061 74.4956Z" fill="#31697A"/>
<path d="M77.5962 62.877C77.5962 62.877 103.892 94.0968 92.3849 97.4006C80.8776 100.682 75.9333 72.744 77.5962 62.877Z" fill="#EA5A5A"/>
<path opacity="0.44" d="M98.3711 10.3723C98.3711 10.3723 60.4124 -5.32587 35.2471 28.2881C35.2471 28.2881 62.6075 4.80693 98.3711 10.3723Z" fill="#EA5A5A"/>
<path opacity="0.44" d="M71.0109 72.7446C71.0109 72.7446 39.7926 64.5182 33.2075 46.4473C33.2075 46.4473 57.8628 69.463 71.0109 72.7446Z" fill="#EA5A5A"/>
<path d="M47.5747 32.4122C46.7987 37.0462 42.5416 40.1951 38.1071 39.4412C33.6727 38.6874 30.7017 34.319 31.4777 29.685C32.2537 25.0509 36.5108 21.9026 40.9452 22.6564C45.3797 23.4103 48.3507 27.7781 47.5747 32.4122Z" fill="white"/>
<path d="M45.6456 32.0798C45.047 35.6054 41.832 38 38.4397 37.4457C35.0696 36.8691 32.808 33.5434 33.4066 30.0178C34.0053 26.4921 37.2202 24.097 40.6125 24.6735C43.9827 25.2279 46.2443 28.5541 45.6456 32.0798Z" fill="#31697A"/>
<path d="M17.7754 48.9754C17.7754 48.9754 29.4379 52.3896 36.7991 47.1572" stroke="#31697A" stroke-miterlimit="10"/>
</svg>
