<svg width="1366" height="170" viewBox="0 0 1366 170" fill="none" xmlns="http://www.w3.org/2000/svg">
<mask id="mask0" style="mask-type:alpha" maskUnits="userSpaceOnUse" x="0" y="0" width="1366" height="170">
<path d="M1366 76.9294C916.475 -25.6431 449.525 -25.6431 0 76.9294V170H1366V76.9294Z" fill="#071D47"/>
</mask>
<g mask="url(#mask0)">
<path d="M1366 76.9294C916.475 -25.6431 449.525 -25.6431 0 76.9294V170H1366V76.9294Z" fill="#306EE5"/>
<path opacity="0.3" d="M1409 550.234V803.773C1390.96 815.115 1371.81 824.621 1351.85 832.145C1262.01 867.483 1161.85 883.393 1085.11 941.8C1064.76 957.562 1046.14 975.392 1029.54 995H-65V576.63C-12.9199 566.988 40.1314 564.047 92.5996 570.603C183.382 581.909 272.271 623.635 329.522 694.552C366.548 740.353 389.372 796.518 428.219 840.896C494.746 916.899 606.238 949.08 704.789 925.263C803.341 901.447 885.941 824.528 921.292 730.156C995.904 530.999 866.906 396.805 950.768 171.204C973.312 111.557 1006.77 56.5637 1049.46 9C1073.46 11.057 1098.22 13.6921 1123.76 16.9063C1163.9 22.0408 1201.96 28.3325 1237.88 35.347C1206 44.4346 1133.81 69.8175 1077.38 138.807C1053.25 168.191 993.525 240.916 1014.57 318.607C1030.24 376.46 1083.48 417.439 1139.25 440.459C1195.02 463.48 1255.53 473.291 1312.05 494.528C1347.02 507.689 1380.96 525.888 1409 550.234Z" fill="#24166E"/>
<path opacity="0.5" d="M1388.45 100V226.291C1385.43 226.023 1382.45 225.799 1379.49 225.642C1356.91 224.387 1331.85 228.173 1317.04 245.264C1299.77 265.156 1302.66 294.724 1303.33 321.066C1304 347.409 1297.75 379.105 1273.18 388.58C1254.72 395.725 1231.38 384.1 1225.96 365.082C1221.93 351.015 1226.79 336.186 1229.84 321.873C1232.88 307.559 1233.42 290.759 1223.12 280.388C1218.91 276.132 1213.28 273.488 1208.98 269.3C1198.14 258.727 1198.32 240.964 1203.18 226.583C1214.49 193.274 1245.09 170.314 1276.45 153.962C1307.81 137.61 1341.59 125.357 1368.78 102.934C1369.95 101.971 1371.02 100.986 1372.23 100H1388.45Z" fill="#231553"/>
<path opacity="0.3" d="M159.626 33.7995C253.685 20.4078 323.842 14.8297 408.619 7.96292C509.146 -0.194708 569.468 -5.19383 654.429 -5.82459C700.498 -6.21926 800.974 -5.82459 801 -5.82459C801 -5.82459 720.773 64.926 624.532 109.945C591.036 124.783 558.645 141.999 527.606 161.462C518.744 167.066 509.909 173.039 500.574 179.722C454.241 213.005 417.453 257.629 376.984 297.78C336.516 337.931 289.342 375.162 233.542 386.922C176.507 399.078 116.027 383.002 66.1717 352.717C16.3151 322.434 -24.0484 278.81 -60.0471 232.87C-68.935 221.53 -77.6914 209.927 -87 198.903V78.4763C-21.8133 64.1104 61.7543 47.7712 159.626 33.7995Z" fill="#24166E"/>
<path d="M90.9138 71.7251C90.9138 73.4501 89.5119 74.8517 87.7865 74.8517C86.0611 74.8517 84.6592 73.4501 84.6592 71.7251C84.6592 70 86.0611 68.5984 87.7865 68.5984C89.5119 68.5984 90.9138 70 90.9138 71.7251Z" fill="white"/>
<path d="M71.8696 98.6361C73.156 98.6361 74.1989 97.5934 74.1989 96.3073C74.1989 95.0211 73.156 93.9784 71.8696 93.9784C70.5831 93.9784 69.5403 95.0211 69.5403 96.3073C69.5403 97.5934 70.5831 98.6361 71.8696 98.6361Z" fill="white"/>
<path d="M74.1989 56.4151C74.1989 57.7089 73.1636 58.7439 71.8696 58.7439C70.5755 58.7439 69.5403 57.7089 69.5403 56.4151C69.5403 55.1213 70.5755 54.0862 71.8696 54.0862C73.1636 54.0862 74.1989 55.1213 74.1989 56.4151Z" fill="white"/>
<path d="M97.643 91.7143C97.9407 91.7143 98.1821 91.4729 98.1821 91.1752C98.1821 90.8775 97.9407 90.6361 97.643 90.6361C97.3452 90.6361 97.1038 90.8775 97.1038 91.1752C97.1038 91.4729 97.3452 91.7143 97.643 91.7143Z" fill="white"/>
<path d="M13.6802 140.297C13.6802 141.59 12.6234 142.647 11.3293 142.647C10.0352 142.647 9 141.59 9 140.297C9 139.003 10.0568 137.946 11.3509 137.946C12.6449 137.946 13.6802 139.003 13.6802 140.297Z" fill="white"/>
<path d="M11.3509 48.5013C12.6492 48.5013 13.7017 47.449 13.7017 46.1509C13.7017 44.8528 12.6492 43.8005 11.3509 43.8005C10.0525 43.8005 9 44.8528 9 46.1509C9 47.449 10.0525 48.5013 11.3509 48.5013Z" fill="white"/>
<path d="M157.299 132.146C157.978 132.146 158.528 131.595 158.528 130.916C158.528 130.238 157.978 129.687 157.299 129.687C156.62 129.687 156.07 130.238 156.07 130.916C156.07 131.595 156.62 132.146 157.299 132.146Z" fill="white"/>
<path d="M144.358 76.4474C144.358 77.3315 143.647 78.0431 142.762 78.0431C141.878 78.0431 141.166 77.3315 141.166 76.4474C141.166 75.5633 141.878 74.8517 142.762 74.8517C143.647 74.8517 144.358 75.5633 144.358 76.4474Z" fill="white"/>
<path d="M137.5 60.7709C137.5 61.8922 136.594 62.7978 135.472 62.7978C134.351 62.7978 133.445 61.8922 133.445 60.7709C133.445 59.6496 134.351 58.7439 135.472 58.7439C136.594 58.7439 137.5 59.6496 137.5 60.7709Z" fill="white"/>
<path d="M148.693 59.7574C148.693 60.3181 148.24 60.7709 147.68 60.7709C147.119 60.7709 146.666 60.3181 146.666 59.7574C146.666 59.1968 147.119 58.7439 147.68 58.7439C148.24 58.7439 148.693 59.1968 148.693 59.7574Z" fill="white"/>
<path d="M134.588 93.9784C135.219 93.9784 135.731 93.4668 135.731 92.8356C135.731 92.2044 135.219 91.6927 134.588 91.6927C133.957 91.6927 133.445 92.2044 133.445 92.8356C133.445 93.4668 133.957 93.9784 134.588 93.9784Z" fill="white"/>
<path d="M163.057 92.8356C163.367 92.8356 163.618 92.5846 163.618 92.2749C163.618 91.9653 163.367 91.7143 163.057 91.7143C162.748 91.7143 162.497 91.9653 162.497 92.2749C162.497 92.5846 162.748 92.8356 163.057 92.8356Z" fill="white"/>
<path d="M136.615 115.52C137.104 115.52 137.5 115.124 137.5 114.636C137.5 114.148 137.104 113.752 136.615 113.752C136.127 113.752 135.731 114.148 135.731 114.636C135.731 115.124 136.127 115.52 136.615 115.52Z" fill="white"/>
<path d="M218.529 160.394C218.529 160.933 218.098 161.364 217.559 161.364C217.019 161.364 216.588 160.933 216.588 160.394C216.588 159.854 217.019 159.423 217.559 159.423C218.098 159.423 218.529 159.854 218.529 160.394Z" fill="white"/>
<path d="M413.069 63.9838C413.069 64.6307 412.53 65.1698 411.883 65.1698C411.236 65.1698 410.697 64.6307 410.697 63.9838C410.697 63.3369 411.236 62.7979 411.883 62.7979C412.53 62.7979 413.069 63.3369 413.069 63.9838Z" fill="white"/>
<path d="M428.188 50.8733C428.843 50.8733 429.374 50.3423 429.374 49.6873C429.374 49.0323 428.843 48.5013 428.188 48.5013C427.533 48.5013 427.002 49.0323 427.002 49.6873C427.002 50.3423 427.533 50.8733 428.188 50.8733Z" fill="white"/>
<path d="M429.374 77.6334C429.374 78.2803 428.835 78.8194 428.188 78.8194C427.541 78.8194 427.002 78.2803 427.002 77.6334C427.002 76.9865 427.541 76.4474 428.188 76.4474C428.857 76.4474 429.374 76.9865 429.374 77.6334Z" fill="white"/>
<path d="M440.784 63.3801C440.784 63.7035 440.525 63.9623 440.201 63.9623C439.878 63.9623 439.619 63.7035 439.619 63.3801C439.619 63.0566 439.878 62.7979 440.201 62.7979C440.525 62.7979 440.784 63.0566 440.784 63.3801Z" fill="white"/>
<path d="M429.137 61.8491C429.137 62.4313 428.663 62.9272 428.059 62.9272C427.476 62.9272 426.98 62.4528 426.98 61.8491C426.98 61.2453 427.455 60.7709 428.059 60.7709C428.663 60.7709 429.137 61.2453 429.137 61.8491Z" fill="white"/>
<path d="M408.497 118.043C408.497 119.423 407.375 120.566 405.973 120.566C404.593 120.566 403.45 119.445 403.45 118.043C403.45 116.642 404.571 115.52 405.973 115.52C407.375 115.52 408.497 116.642 408.497 118.043Z" fill="white"/>
<path d="M482.323 50.8733C483.621 50.8733 484.674 49.821 484.674 48.5229C484.674 47.2248 483.621 46.1725 482.323 46.1725C481.024 46.1725 479.972 47.2248 479.972 48.5229C479.972 49.821 481.024 50.8733 482.323 50.8733Z" fill="white"/>
<path d="M484.674 104.458C484.674 105.105 484.156 105.644 483.488 105.644C482.84 105.644 482.301 105.127 482.301 104.458C482.301 103.811 482.819 103.272 483.488 103.272C484.135 103.272 484.674 103.811 484.674 104.458Z" fill="white"/>
<path d="M452.775 128.049C452.775 128.954 452.042 129.709 451.115 129.709C450.209 129.709 449.454 128.976 449.454 128.049C449.454 127.121 450.187 126.388 451.115 126.388C452.042 126.388 452.775 127.143 452.775 128.049Z" fill="white"/>
<path d="M468.174 79.8976C468.174 80.5014 467.7 80.9758 467.096 80.9758C466.492 80.9758 466.018 80.5014 466.018 79.8976C466.018 79.2938 466.492 78.8194 467.096 78.8194C467.7 78.8194 468.174 79.2938 468.174 79.8976Z" fill="white"/>
<path d="M416.326 117.288C416.814 117.288 417.21 116.893 417.21 116.404C417.21 115.916 416.814 115.52 416.326 115.52C415.838 115.52 415.442 115.916 415.442 116.404C415.442 116.893 415.838 117.288 416.326 117.288Z" fill="white"/>
<path d="M421.416 107.779C422.011 107.779 422.494 107.296 422.494 106.701C422.494 106.105 422.011 105.623 421.416 105.623C420.82 105.623 420.337 106.105 420.337 106.701C420.337 107.296 420.82 107.779 421.416 107.779Z" fill="white"/>
<path d="M548.708 51.283C548.708 52.8356 547.457 54.0862 545.904 54.0862C544.351 54.0862 543.1 52.8356 543.1 51.283C543.1 49.7304 544.351 48.4798 545.904 48.4798C547.457 48.5013 548.708 49.752 548.708 51.283Z" fill="white"/>
<path d="M560.678 23.8329C562.191 23.8329 563.417 22.6068 563.417 21.0943C563.417 19.5819 562.191 18.3558 560.678 18.3558C559.165 18.3558 557.939 19.5819 557.939 21.0943C557.939 22.6068 559.165 23.8329 560.678 23.8329Z" fill="white"/>
<path d="M581.901 107.456C581.901 109.116 580.563 110.453 578.903 110.453C577.242 110.453 575.905 109.116 575.905 107.456C575.905 105.795 577.242 104.458 578.903 104.458C580.563 104.458 581.901 105.795 581.901 107.456Z" fill="white"/>
<path d="M629.436 120.135C630.019 120.135 630.492 119.662 630.492 119.078C630.492 118.495 630.019 118.022 629.436 118.022C628.852 118.022 628.379 118.495 628.379 119.078C628.379 119.662 628.852 120.135 629.436 120.135Z" fill="white"/>
<path d="M620.183 131.542C620.183 131.887 619.902 132.146 619.579 132.146C619.234 132.146 618.975 131.865 618.975 131.542C618.975 131.197 619.255 130.938 619.579 130.938C619.902 130.916 620.183 131.197 620.183 131.542Z" fill="white"/>
<path d="M635.884 128.049C635.884 128.954 635.151 129.709 634.223 129.709C633.318 129.709 632.563 128.976 632.563 128.049C632.563 127.121 633.296 126.388 634.223 126.388C635.151 126.388 635.884 127.143 635.884 128.049Z" fill="white"/>
<path d="M647.725 149.245C647.725 149.677 647.38 150.022 646.948 150.022C646.517 150.022 646.172 149.677 646.172 149.245C646.172 148.814 646.517 148.469 646.948 148.469C647.38 148.469 647.725 148.814 647.725 149.245Z" fill="white"/>
<path d="M639.119 157.418C639.727 157.418 640.219 156.925 640.219 156.318C640.219 155.711 639.727 155.218 639.119 155.218C638.512 155.218 638.019 155.711 638.019 156.318C638.019 156.925 638.512 157.418 639.119 157.418Z" fill="white"/>
<path d="M143.064 -15.8005C142.094 -9.54717 142.029 -6.91644 133.445 -5.90296C142.094 -4.32884 142.158 -2.60377 143.129 5.02965C144.25 -2.4097 145.156 -4.88949 152.662 -6.2911C146.364 -7.34771 144.358 -9.54717 143.064 -15.8005Z" fill="white"/>
<path d="M567.989 147.003C567.019 153.256 566.954 155.887 558.37 156.9C567.019 158.474 567.083 160.199 568.054 167.833C569.175 160.394 570.081 157.914 577.587 156.512C571.311 155.456 569.283 153.256 567.989 147.003Z" fill="white"/>
<path d="M597.914 51.7251C597.914 53.4501 596.512 54.8517 594.786 54.8517C593.061 54.8517 591.659 53.4501 591.659 51.7251C591.659 50 593.061 48.5984 594.786 48.5984C596.512 48.5984 597.914 50 597.914 51.7251Z" fill="white"/>
<path d="M578.87 78.6361C580.156 78.6361 581.199 77.5934 581.199 76.3073C581.199 75.0211 580.156 73.9784 578.87 73.9784C577.583 73.9784 576.54 75.0211 576.54 76.3073C576.54 77.5934 577.583 78.6361 578.87 78.6361Z" fill="white"/>
<path d="M581.199 36.4151C581.199 37.7089 580.164 38.7439 578.87 38.7439C577.576 38.7439 576.54 37.7089 576.54 36.4151C576.54 35.1213 577.576 34.0862 578.87 34.0862C580.164 34.0862 581.199 35.1213 581.199 36.4151Z" fill="white"/>
<path d="M604.643 71.7143C604.941 71.7143 605.182 71.4729 605.182 71.1752C605.182 70.8775 604.941 70.6361 604.643 70.6361C604.345 70.6361 604.104 70.8775 604.104 71.1752C604.104 71.4729 604.345 71.7143 604.643 71.7143Z" fill="white"/>
<path d="M520.68 120.297C520.68 121.59 519.623 122.647 518.329 122.647C517.035 122.647 516 121.59 516 120.297C516 119.003 517.057 117.946 518.351 117.946C519.645 117.946 520.68 119.003 520.68 120.297Z" fill="white"/>
<path d="M518.351 28.5013C519.649 28.5013 520.702 27.449 520.702 26.1509C520.702 24.8528 519.649 23.8005 518.351 23.8005C517.053 23.8005 516 24.8528 516 26.1509C516 27.449 517.053 28.5013 518.351 28.5013Z" fill="white"/>
<path d="M664.299 112.146C664.978 112.146 665.528 111.595 665.528 110.916C665.528 110.238 664.978 109.687 664.299 109.687C663.62 109.687 663.07 110.238 663.07 110.916C663.07 111.595 663.62 112.146 664.299 112.146Z" fill="white"/>
<path d="M651.358 56.4474C651.358 57.3315 650.647 58.0431 649.762 58.0431C648.878 58.0431 648.166 57.3315 648.166 56.4474C648.166 55.5633 648.878 54.8517 649.762 54.8517C650.647 54.8517 651.358 55.5633 651.358 56.4474Z" fill="white"/>
<path d="M644.5 40.7709C644.5 41.8922 643.594 42.7978 642.472 42.7978C641.351 42.7978 640.445 41.8922 640.445 40.7709C640.445 39.6496 641.351 38.7439 642.472 38.7439C643.594 38.7439 644.5 39.6496 644.5 40.7709Z" fill="white"/>
<path d="M655.693 39.7574C655.693 40.3181 655.24 40.7709 654.68 40.7709C654.119 40.7709 653.666 40.3181 653.666 39.7574C653.666 39.1968 654.119 38.7439 654.68 38.7439C655.24 38.7439 655.693 39.1968 655.693 39.7574Z" fill="white"/>
<path d="M641.588 73.9784C642.219 73.9784 642.731 73.4668 642.731 72.8356C642.731 72.2044 642.219 71.6927 641.588 71.6927C640.957 71.6927 640.445 72.2044 640.445 72.8356C640.445 73.4668 640.957 73.9784 641.588 73.9784Z" fill="white"/>
<path d="M670.057 72.8356C670.367 72.8356 670.618 72.5846 670.618 72.2749C670.618 71.9653 670.367 71.7143 670.057 71.7143C669.748 71.7143 669.497 71.9653 669.497 72.2749C669.497 72.5846 669.748 72.8356 670.057 72.8356Z" fill="white"/>
<path d="M643.615 95.5202C644.104 95.5202 644.5 95.1244 644.5 94.6361C644.5 94.1479 644.104 93.752 643.615 93.752C643.127 93.752 642.731 94.1479 642.731 94.6361C642.731 95.1244 643.127 95.5202 643.615 95.5202Z" fill="white"/>
<path d="M725.529 140.394C725.529 140.933 725.098 141.364 724.559 141.364C724.019 141.364 723.588 140.933 723.588 140.394C723.588 139.854 724.019 139.423 724.559 139.423C725.098 139.423 725.529 139.854 725.529 140.394Z" fill="white"/>
<path d="M793.532 157.601C794.14 157.601 794.632 157.109 794.632 156.501C794.632 155.894 794.14 155.402 793.532 155.402C792.925 155.402 792.432 155.894 792.432 156.501C792.432 157.109 792.925 157.601 793.532 157.601Z" fill="white"/>
<path d="M920.069 43.9838C920.069 44.6307 919.53 45.1698 918.883 45.1698C918.236 45.1698 917.697 44.6307 917.697 43.9838C917.697 43.3369 918.236 42.7979 918.883 42.7979C919.53 42.7979 920.069 43.3369 920.069 43.9838Z" fill="white"/>
<path d="M935.188 30.8733C935.843 30.8733 936.374 30.3423 936.374 29.6873C936.374 29.0323 935.843 28.5013 935.188 28.5013C934.533 28.5013 934.002 29.0323 934.002 29.6873C934.002 30.3423 934.533 30.8733 935.188 30.8733Z" fill="white"/>
<path d="M936.374 57.6334C936.374 58.2803 935.835 58.8194 935.188 58.8194C934.541 58.8194 934.002 58.2803 934.002 57.6334C934.002 56.9865 934.541 56.4474 935.188 56.4474C935.857 56.4474 936.374 56.9865 936.374 57.6334Z" fill="white"/>
<path d="M947.784 43.3801C947.784 43.7035 947.525 43.9623 947.201 43.9623C946.878 43.9623 946.619 43.7035 946.619 43.3801C946.619 43.0566 946.878 42.7979 947.201 42.7979C947.525 42.7979 947.784 43.0566 947.784 43.3801Z" fill="white"/>
<path d="M936.137 41.8491C936.137 42.4313 935.663 42.9272 935.059 42.9272C934.476 42.9272 933.98 42.4528 933.98 41.8491C933.98 41.2453 934.455 40.7709 935.059 40.7709C935.663 40.7709 936.137 41.2453 936.137 41.8491Z" fill="white"/>
<path d="M915.497 98.0431C915.497 99.4232 914.375 100.566 912.973 100.566C911.593 100.566 910.45 99.4447 910.45 98.0431C910.45 96.6415 911.571 95.5202 912.973 95.5202C914.375 95.5202 915.497 96.6415 915.497 98.0431Z" fill="white"/>
<path d="M989.323 30.8733C990.621 30.8733 991.674 29.821 991.674 28.5229C991.674 27.2248 990.621 26.1725 989.323 26.1725C988.024 26.1725 986.972 27.2248 986.972 28.5229C986.972 29.821 988.024 30.8733 989.323 30.8733Z" fill="white"/>
<path d="M991.674 84.4582C991.674 85.1051 991.156 85.6442 990.488 85.6442C989.84 85.6442 989.301 85.1267 989.301 84.4582C989.301 83.8113 989.819 83.2722 990.488 83.2722C991.135 83.2722 991.674 83.8113 991.674 84.4582Z" fill="white"/>
<path d="M959.775 108.049C959.775 108.954 959.042 109.709 958.115 109.709C957.209 109.709 956.454 108.976 956.454 108.049C956.454 107.121 957.187 106.388 958.115 106.388C959.042 106.388 959.775 107.143 959.775 108.049Z" fill="white"/>
<path d="M975.174 59.8976C975.174 60.5014 974.7 60.9758 974.096 60.9758C973.492 60.9758 973.018 60.5014 973.018 59.8976C973.018 59.2938 973.492 58.8194 974.096 58.8194C974.7 58.8194 975.174 59.2938 975.174 59.8976Z" fill="white"/>
<path d="M923.326 97.2884C923.814 97.2884 924.21 96.8926 924.21 96.4043C924.21 95.916 923.814 95.5202 923.326 95.5202C922.838 95.5202 922.442 95.916 922.442 96.4043C922.442 96.8926 922.838 97.2884 923.326 97.2884Z" fill="white"/>
<path d="M928.416 87.779C929.011 87.779 929.494 87.2963 929.494 86.7008C929.494 86.1054 929.011 85.6227 928.416 85.6227C927.82 85.6227 927.337 86.1054 927.337 86.7008C927.337 87.2963 927.82 87.779 928.416 87.779Z" fill="white"/>
<path d="M1055.71 31.283C1055.71 32.8356 1054.46 34.0862 1052.9 34.0862C1051.35 34.0862 1050.1 32.8356 1050.1 31.283C1050.1 29.7304 1051.35 28.4798 1052.9 28.4798C1054.46 28.5013 1055.71 29.752 1055.71 31.283Z" fill="white"/>
<path d="M1067.68 3.83286C1069.19 3.83286 1070.42 2.60677 1070.42 1.09431C1070.42 -0.418142 1069.19 -1.64423 1067.68 -1.64423C1066.17 -1.64423 1064.94 -0.418142 1064.94 1.09431C1064.94 2.60677 1066.17 3.83286 1067.68 3.83286Z" fill="white"/>
<path d="M1088.9 87.4555C1088.9 89.1159 1087.56 90.4528 1085.9 90.4528C1084.24 90.4528 1082.9 89.1159 1082.9 87.4555C1082.9 85.7951 1084.24 84.4582 1085.9 84.4582C1087.56 84.4582 1088.9 85.7951 1088.9 87.4555Z" fill="white"/>
<path d="M1137.49 163.553C1138.65 163.553 1139.58 162.616 1139.58 161.461C1139.58 160.306 1138.65 159.369 1137.49 159.369C1136.34 159.369 1135.4 160.306 1135.4 161.461C1135.4 162.616 1136.34 163.553 1137.49 163.553Z" fill="white"/>
<path d="M1136.44 100.135C1137.02 100.135 1137.49 99.6617 1137.49 99.0782C1137.49 98.4946 1137.02 98.0216 1136.44 98.0216C1135.85 98.0216 1135.38 98.4946 1135.38 99.0782C1135.38 99.6617 1135.85 100.135 1136.44 100.135Z" fill="white"/>
<path d="M1127.18 111.542C1127.18 111.887 1126.9 112.146 1126.58 112.146C1126.23 112.146 1125.98 111.865 1125.98 111.542C1125.98 111.197 1126.26 110.938 1126.58 110.938C1126.9 110.916 1127.18 111.197 1127.18 111.542Z" fill="white"/>
<path d="M1142.88 108.049C1142.88 108.954 1142.15 109.709 1141.22 109.709C1140.32 109.709 1139.56 108.976 1139.56 108.049C1139.56 107.121 1140.3 106.388 1141.22 106.388C1142.15 106.388 1142.88 107.143 1142.88 108.049Z" fill="white"/>
<path d="M1154.72 129.245C1154.72 129.677 1154.38 130.022 1153.95 130.022C1153.52 130.022 1153.17 129.677 1153.17 129.245C1153.17 128.814 1153.52 128.469 1153.95 128.469C1154.38 128.469 1154.72 128.814 1154.72 129.245Z" fill="white"/>
<path d="M1146.12 137.418C1146.73 137.418 1147.22 136.925 1147.22 136.318C1147.22 135.711 1146.73 135.218 1146.12 135.218C1145.51 135.218 1145.02 135.711 1145.02 136.318C1145.02 136.925 1145.51 137.418 1146.12 137.418Z" fill="white"/>
<path d="M1328.15 164.933C1328.15 165.687 1327.52 166.313 1326.77 166.313C1326.01 166.313 1325.39 165.687 1325.39 164.933C1325.39 164.178 1326.01 163.553 1326.77 163.553C1327.55 163.553 1328.15 164.178 1328.15 164.933Z" fill="white"/>
<path d="M1278.89 167.348C1278.89 167.908 1278.44 168.383 1277.85 168.383C1277.29 168.383 1276.82 167.93 1276.82 167.348C1276.82 166.787 1277.27 166.313 1277.85 166.313C1278.42 166.313 1278.89 166.787 1278.89 167.348Z" fill="white"/>
<path d="M1284.8 164.954C1285.76 164.954 1286.55 164.172 1286.55 163.208C1286.55 162.243 1285.76 161.461 1284.8 161.461C1283.83 161.461 1283.05 162.243 1283.05 163.208C1283.05 164.172 1283.83 164.954 1284.8 164.954Z" fill="white"/>
<path d="M1074.99 127.003C1074.02 133.256 1073.95 135.887 1065.37 136.9C1074.02 138.474 1074.08 140.199 1075.05 147.833C1076.18 140.394 1077.08 137.914 1084.59 136.512C1078.31 135.456 1076.28 133.256 1074.99 127.003Z" fill="white"/>
</g>
</svg>
