<svg xmlns="http://www.w3.org/2000/svg" viewBox="0 0 1937.65 1331.8"><defs><style>.cls-1{isolation:isolate;}.cls-2{fill:#306ee5;}.cls-3{fill:#24166e;opacity:0.3;}.cls-4{fill:#231553;opacity:0.5;}.cls-5{fill:#fff;}.cls-6{fill:#4e2a67;opacity:0.2;mix-blend-mode:multiply;}</style></defs><g class="cls-1"><g id="Capa_1" data-name="Capa 1"><rect class="cls-2" x="0.21" y="213.97" width="1935.91" height="1117.5"/><path class="cls-2" d="M1973.9,380C1739.54,326,1401.59,269.31,991.16,270.61c-397,1.26-724.72,56.3-954.91,109.41V512.39H1973.9Z" transform="translate(-36.25 -270.59)"/><path class="cls-3" d="M1972.16,1014.93v334.83c-23.26,15.23-49.13,27.23-74.92,37.46-117.86,46.66-249.11,67.66-349.72,144.78-27,20.69-50.79,44.68-72.87,70.39H39.73v-552.6c68.25-12.72,137.82-16.59,206.59-8,119,15,235.55,70.09,310.61,163.69,48.54,60.55,78.48,134.65,129.39,193.25,87.24,100.35,233.41,142.84,362.6,111.33s237.49-133,283.84-257.63c97.81-263-71.3-440.2,38.65-738.09,36-97.44,89.33-168.73,129.39-214.19q47.19,4,97.4,10.43c52.62,6.79,102.54,15.09,149.58,24.36-41.79,12-136.44,45.52-210.42,136.6-31.59,38.9-109.89,134.91-82.37,237.49,20.54,76.52,90.34,130.4,163.46,160.9S1770.88,913.34,1845,941.4C1890.9,958.76,1935.4,982.8,1972.16,1014.93Z" transform="translate(-36.25 -270.59)"/><path class="cls-3" d="M334.8,320.31c113.85-16.23,198.76-23,301.39-31.28,121.69-9.86,194.73-15.77,297.57-16.67,55.77-.49,177.38,0,177.42,0h0s-97.1,85.58-213.61,139.89c-22.74,10.6-63.54,28.54-117.26,62.49-10.75,6.79-21.43,14-32.72,22.11C691.48,537.11,647,591.09,597.85,639.66s-106,93.44-173.58,107.83c-69.06,14.7-142.26-4.73-202.6-41.39s-109.23-89.43-152.8-145C58.11,547.39,47.51,533.35,36.25,520V374.33C115.17,357,216.3,337.2,334.8,320.31Z" transform="translate(-36.25 -270.59)"/><path class="cls-4" d="M381.73,1205.86c-9.34,10.92-22.27,18.11-35.31,24.17-27,12.56-56,21.36-85.77,23-39.38,2.21-78.26-8-116.42-17.94C109,1226,73,1217,36.77,1218.05V932.57a135.46,135.46,0,0,1,42,26.65c25.32,23.8,40.72,56,57.94,86.16s38.32,60.37,69.68,75.33c39.85,19,86.75,9.49,130.76,13.22,22.4,1.9,48,10.48,54.82,31.9C396.29,1179.54,391.07,1194.92,381.73,1205.86Z" transform="translate(-36.25 -270.59)"/><path class="cls-4" d="M1973.9,390.64V570.12q-6.42-.58-12.8-1c-32.09-1.77-67.68,3.61-88.75,27.89-24.54,28.28-20.43,70.29-19.48,107.71s-7.92,82.49-42.82,96c-26.24,10.14-59.4-6.37-67.11-33.4-5.72-20,1.19-41.06,5.51-61.4s5.08-44.2-9.55-59c-6-6-14-9.8-20.08-15.74-15.43-15-15.17-40.28-8.24-60.7,16.12-47.44,59.72-80,104.09-103.2s92.56-40.65,131.21-72.52q2.49-2,4.91-4.17Z" transform="translate(-36.25 -270.59)"/><path class="cls-5" d="M219.1,1150.46a5,5,0,1,1-5-5A5,5,0,0,1,219.1,1150.46Z" transform="translate(-36.25 -270.59)"/><circle class="cls-5" cx="152.12" cy="919.53" r="3.75"/><path class="cls-5" d="M192.12,1125.76a3.75,3.75,0,1,1-3.75-3.75A3.75,3.75,0,0,1,192.12,1125.76Z" transform="translate(-36.25 -270.59)"/><circle class="cls-5" cx="193.7" cy="911.25" r="0.86"/><path class="cls-5" d="M379.41,1008.09a2.38,2.38,0,1,1-2.38-2.38A2.37,2.37,0,0,1,379.41,1008.09Z" transform="translate(-36.25 -270.59)"/><path class="cls-5" d="M192.54,1016a2.09,2.09,0,1,1-2.08-2.08A2.08,2.08,0,0,1,192.54,1016Z" transform="translate(-36.25 -270.59)"/><path class="cls-5" d="M94.52,1261.09a3.78,3.78,0,1,1-3.78-3.78A3.77,3.77,0,0,1,94.52,1261.09Z" transform="translate(-36.25 -270.59)"/><circle class="cls-5" cx="54.49" cy="838.62" r="3.77"/><circle class="cls-5" cx="289.91" cy="975.38" r="1.98"/><path class="cls-5" d="M305.3,1158.07a2.59,2.59,0,1,1-2.59-2.58A2.59,2.59,0,0,1,305.3,1158.07Z" transform="translate(-36.25 -270.59)"/><path class="cls-5" d="M294.24,1132.78a3.28,3.28,0,1,1-3.28-3.27A3.28,3.28,0,0,1,294.24,1132.78Z" transform="translate(-36.25 -270.59)"/><path class="cls-5" d="M312.28,1131.15a1.64,1.64,0,1,1-1.64-1.64A1.63,1.63,0,0,1,312.28,1131.15Z" transform="translate(-36.25 -270.59)"/><circle class="cls-5" cx="253.28" cy="913.94" r="1.84"/><circle class="cls-5" cx="299.21" cy="913.02" r="0.92"/><circle class="cls-5" cx="256.55" cy="949.08" r="1.44"/><path class="cls-5" d="M424.91,1293.5a1.56,1.56,0,1,1-1.56-1.55A1.56,1.56,0,0,1,424.91,1293.5Z" transform="translate(-36.25 -270.59)"/><circle class="cls-5" cx="498.35" cy="1048.89" r="1.78"/><path class="cls-5" d="M514.81,1400.23a2.1,2.1,0,1,1-2.1-2.1A2.1,2.1,0,0,1,514.81,1400.23Z" transform="translate(-36.25 -270.59)"/><path class="cls-5" d="M738.7,1138a1.91,1.91,0,1,1-1.9-1.9A1.9,1.9,0,0,1,738.7,1138Z" transform="translate(-36.25 -270.59)"/><circle class="cls-5" cx="726.85" cy="844.31" r="1.92"/><path class="cls-5" d="M765,1160a1.92,1.92,0,1,1-1.91-1.92A1.9,1.9,0,0,1,765,1160Z" transform="translate(-36.25 -270.59)"/><path class="cls-5" d="M783.41,1137a1,1,0,1,1-1-1A1,1,0,0,1,783.41,1137Z" transform="translate(-36.25 -270.59)"/><path class="cls-5" d="M764.64,1134.51a1.73,1.73,0,1,1-1.73-1.73A1.73,1.73,0,0,1,764.64,1134.51Z" transform="translate(-36.25 -270.59)"/><path class="cls-5" d="M731.34,1225.17a4.06,4.06,0,1,1-4.05-4.06A4,4,0,0,1,731.34,1225.17Z" transform="translate(-36.25 -270.59)"/><circle class="cls-5" cx="814.14" cy="842.43" r="3.8"/><path class="cls-5" d="M854.2,1203.26a1.91,1.91,0,1,1-1.9-1.9A1.9,1.9,0,0,1,854.2,1203.26Z" transform="translate(-36.25 -270.59)"/><path class="cls-5" d="M802.75,1241.33a2.67,2.67,0,1,1-2.67-2.67A2.67,2.67,0,0,1,802.75,1241.33Z" transform="translate(-36.25 -270.59)"/><path class="cls-5" d="M827.59,1163.64a1.74,1.74,0,1,1-1.74-1.74A1.74,1.74,0,0,1,827.59,1163.64Z" transform="translate(-36.25 -270.59)"/><circle class="cls-5" cx="707.71" cy="951.96" r="1.44"/><circle class="cls-5" cx="715.9" cy="936.31" r="1.74"/><path class="cls-5" d="M1813.75,436.65a1.91,1.91,0,1,1-1.9-1.91A1.9,1.9,0,0,1,1813.75,436.65Z" transform="translate(-36.25 -270.59)"/><path class="cls-5" d="M1840.06,413.59a1.92,1.92,0,1,1-1.91-1.92A1.91,1.91,0,0,1,1840.06,413.59Z" transform="translate(-36.25 -270.59)"/><path class="cls-5" d="M1840.06,458.67a1.92,1.92,0,1,1-1.91-1.91A1.91,1.91,0,0,1,1840.06,458.67Z" transform="translate(-36.25 -270.59)"/><circle class="cls-5" cx="1821.25" cy="165.1" r="0.95"/><path class="cls-5" d="M1839.69,433.19a1.73,1.73,0,1,1-1.73-1.72A1.73,1.73,0,0,1,1839.69,433.19Z" transform="translate(-36.25 -270.59)"/><path class="cls-5" d="M1806.39,523.85a4.06,4.06,0,1,1-4.05-4.06A4.05,4.05,0,0,1,1806.39,523.85Z" transform="translate(-36.25 -270.59)"/><path class="cls-5" d="M1929.25,411.7a3.81,3.81,0,1,1-3.81-3.8A3.81,3.81,0,0,1,1929.25,411.7Z" transform="translate(-36.25 -270.59)"/><path class="cls-5" d="M1929.25,501.94a1.91,1.91,0,1,1-1.91-1.9A1.9,1.9,0,0,1,1929.25,501.94Z" transform="translate(-36.25 -270.59)"/><path class="cls-5" d="M1877.8,540a2.67,2.67,0,1,1-2.67-2.67A2.67,2.67,0,0,1,1877.8,540Z" transform="translate(-36.25 -270.59)"/><path class="cls-5" d="M1902.64,462.32a1.74,1.74,0,1,1-1.74-1.73A1.74,1.74,0,0,1,1902.64,462.32Z" transform="translate(-36.25 -270.59)"/><path class="cls-5" d="M1820.45,521.23a1.44,1.44,0,1,1-1.44-1.44A1.44,1.44,0,0,1,1820.45,521.23Z" transform="translate(-36.25 -270.59)"/><circle class="cls-5" cx="1790.95" cy="234.99" r="1.74"/><circle class="cls-5" cx="163.54" cy="658.66" r="1.81"/><path class="cls-5" d="M130.74,899.91a1.91,1.91,0,1,1-1.9-1.91A1.9,1.9,0,0,1,130.74,899.91Z" transform="translate(-36.25 -270.59)"/><path class="cls-5" d="M166.37,878.34a1.51,1.51,0,1,1-1.51-1.51A1.51,1.51,0,0,1,166.37,878.34Z" transform="translate(-36.25 -270.59)"/><path class="cls-5" d="M168.67,925.54a1.91,1.91,0,1,1-1.91-1.9A1.91,1.91,0,0,1,168.67,925.54Z" transform="translate(-36.25 -270.59)"/><path class="cls-5" d="M158.08,903.72a1.91,1.91,0,1,1-1.9-1.91A1.9,1.9,0,0,1,158.08,903.72Z" transform="translate(-36.25 -270.59)"/><path class="cls-5" d="M957.5,1117.5A4.51,4.51,0,1,1,953,1113,4.51,4.51,0,0,1,957.5,1117.5Z" transform="translate(-36.25 -270.59)"/><circle class="cls-5" cx="940.53" cy="798.18" r="4.41"/><path class="cls-5" d="M1011,1208.09a4.83,4.83,0,1,1-4.83-4.83A4.83,4.83,0,0,1,1011,1208.09Z" transform="translate(-36.25 -270.59)"/><circle class="cls-5" cx="1053.14" cy="1056.9" r="3.38"/><circle class="cls-5" cx="1051.45" cy="956.27" r="1.69"/><path class="cls-5" d="M1072.76,1247a1,1,0,1,1-1-1A1,1,0,0,1,1072.76,1247Z" transform="translate(-36.25 -270.59)"/><path class="cls-5" d="M1098.1,1241.33a2.67,2.67,0,1,1-2.67-2.67A2.67,2.67,0,0,1,1098.1,1241.33Z" transform="translate(-36.25 -270.59)"/><path class="cls-5" d="M1117.2,1275.52a1.25,1.25,0,1,1-1.25-1.25A1.25,1.25,0,0,1,1117.2,1275.52Z" transform="translate(-36.25 -270.59)"/><circle class="cls-5" cx="1067.06" cy="1016.33" r="1.79"/><path class="cls-5" d="M1325.61,1355.43a1.43,1.43,0,1,1-1.43-1.43A1.43,1.43,0,0,1,1325.61,1355.43Z" transform="translate(-36.25 -270.59)"/><path class="cls-5" d="M1256.68,1350.45a2,2,0,1,1-2-2A2,2,0,0,1,1256.68,1350.45Z" transform="translate(-36.25 -270.59)"/><circle class="cls-5" cx="1209.6" cy="1111.91" r="1.82"/><path class="cls-5" d="M1396.93,1333.1a2.23,2.23,0,1,1-2.23-2.23A2.23,2.23,0,0,1,1396.93,1333.1Z" transform="translate(-36.25 -270.59)"/><circle class="cls-5" cx="1308.07" cy="1106.06" r="1.56"/><path class="cls-5" d="M1317.45,1337a1.66,1.66,0,1,1-1.66-1.66A1.65,1.65,0,0,1,1317.45,1337Z" transform="translate(-36.25 -270.59)"/><circle class="cls-5" cx="1290.74" cy="1059.71" r="2.8"/><path class="cls-5" d="M1298,1354.68a2.19,2.19,0,1,1-2.18-2.19A2.18,2.18,0,0,1,1298,1354.68Z" transform="translate(-36.25 -270.59)"/><circle class="cls-5" cx="1301.45" cy="1227.21" r="2.51"/><circle class="cls-5" cx="1386.64" cy="1191.34" r="4.43"/><path class="cls-5" d="M1413.28,1574.51a2.14,2.14,0,1,1-2.13-2.13A2.13,2.13,0,0,1,1413.28,1574.51Z" transform="translate(-36.25 -270.59)"/><path class="cls-5" d="M1409,1532.79a2.07,2.07,0,1,1-2.07-2.06A2.07,2.07,0,0,1,1409,1532.79Z" transform="translate(-36.25 -270.59)"/><circle class="cls-5" cx="1334.24" cy="1277.06" r="1.64"/><path class="cls-5" d="M1392.47,1544a1.48,1.48,0,1,1-1.47-1.47A1.47,1.47,0,0,1,1392.47,1544Z" transform="translate(-36.25 -270.59)"/><path class="cls-5" d="M574.86,1485.7a1.63,1.63,0,1,1-1.63-1.63A1.63,1.63,0,0,1,574.86,1485.7Z" transform="translate(-36.25 -270.59)"/><circle class="cls-5" cx="696.65" cy="1133.93" r="2.19"/><path class="cls-5" d="M673.7,1544.28a1.74,1.74,0,1,1-1.73-1.74A1.73,1.73,0,0,1,673.7,1544.28Z" transform="translate(-36.25 -270.59)"/><path class="cls-5" d="M673.7,1529.84a.87.87,0,1,1-.86-.87A.86.86,0,0,1,673.7,1529.84Z" transform="translate(-36.25 -270.59)"/><circle class="cls-5" cx="621.27" cy="1255.14" r="3.23"/><path class="cls-5" d="M646.71,1544.28a1.74,1.74,0,1,1-1.73-1.74A1.73,1.73,0,0,1,646.71,1544.28Z" transform="translate(-36.25 -270.59)"/><path class="cls-5" d="M527.08,1517.21a2.54,2.54,0,1,1-2.54-2.54A2.54,2.54,0,0,1,527.08,1517.21Z" transform="translate(-36.25 -270.59)"/><path class="cls-5" d="M631.85,1418.82a2.66,2.66,0,1,1-2.66-2.66A2.66,2.66,0,0,1,631.85,1418.82Z" transform="translate(-36.25 -270.59)"/><circle class="cls-5" cx="542.45" cy="1192.22" r="1.18"/><circle class="cls-5" cx="540.53" cy="1179.97" r="1.92"/><path class="cls-5" d="M902.69,930.65a1.62,1.62,0,1,1-1.62-1.63A1.62,1.62,0,0,1,902.69,930.65Z" transform="translate(-36.25 -270.59)"/><circle class="cls-5" cx="1024.49" cy="578.88" r="2.19"/><path class="cls-5" d="M1001.54,989.22a1.74,1.74,0,1,1-1.74-1.73A1.74,1.74,0,0,1,1001.54,989.22Z" transform="translate(-36.25 -270.59)"/><circle class="cls-5" cx="964.42" cy="704.2" r="0.87"/><circle class="cls-5" cx="949.1" cy="700.08" r="3.23"/><path class="cls-5" d="M974.55,989.22a1.74,1.74,0,1,1-1.74-1.73A1.74,1.74,0,0,1,974.55,989.22Z" transform="translate(-36.25 -270.59)"/><path class="cls-5" d="M959.68,863.77a2.66,2.66,0,1,1-2.66-2.66A2.66,2.66,0,0,1,959.68,863.77Z" transform="translate(-36.25 -270.59)"/><path class="cls-5" d="M907.71,907.76a1.18,1.18,0,1,1-1.18-1.18A1.18,1.18,0,0,1,907.71,907.76Z" transform="translate(-36.25 -270.59)"/><circle class="cls-5" cx="868.36" cy="624.92" r="1.92"/><circle class="cls-5" cx="549.09" cy="1325.24" r="1.92"/><circle class="cls-5" cx="390.65" cy="628.03" r="5.1"/><path class="cls-5" d="M375.47,922.33a3.21,3.21,0,1,1-3.21-3.21A3.21,3.21,0,0,1,375.47,922.33Z" transform="translate(-36.25 -270.59)"/><path class="cls-5" d="M332.56,871.85a4.19,4.19,0,1,1-4.19-4.18A4.19,4.19,0,0,1,332.56,871.85Z" transform="translate(-36.25 -270.59)"/><circle class="cls-5" cx="258.55" cy="685.57" r="2"/><path class="cls-5" d="M317.79,919.47a.36.36,0,1,1-.35-.35A.36.36,0,0,1,317.79,919.47Z" transform="translate(-36.25 -270.59)"/><circle class="cls-5" cx="288.93" cy="636.02" r="0.99"/><circle class="cls-5" cx="302.37" cy="625.17" r="2.24"/><path class="cls-5" d="M1122.23,581.37a5,5,0,1,1-5-5A5,5,0,0,1,1122.23,581.37Z" transform="translate(-36.25 -270.59)"/><circle class="cls-5" cx="1154.62" cy="328.43" r="3.75"/><circle class="cls-5" cx="1154.62" cy="264.07" r="3.75"/><path class="cls-5" d="M853.68,573.46a.86.86,0,1,1-.86-.86A.86.86,0,0,1,853.68,573.46Z" transform="translate(-36.25 -270.59)"/><path class="cls-5" d="M1431.78,375.11a2.39,2.39,0,1,1-2.39-2.38A2.38,2.38,0,0,1,1431.78,375.11Z" transform="translate(-36.25 -270.59)"/><path class="cls-5" d="M1195,424.94a2.08,2.08,0,1,1-2.08-2.08A2.09,2.09,0,0,1,1195,424.94Z" transform="translate(-36.25 -270.59)"/><circle class="cls-5" cx="1056.99" cy="399.4" r="3.77"/><circle class="cls-5" cx="1056.99" cy="247.52" r="3.77"/><circle class="cls-5" cx="1292.41" cy="384.28" r="1.98"/><path class="cls-5" d="M928.17,549.7a2.59,2.59,0,1,1-2.59-2.59A2.59,2.59,0,0,1,928.17,549.7Z" transform="translate(-36.25 -270.59)"/><path class="cls-5" d="M917.11,524.41a3.28,3.28,0,1,1-3.28-3.27A3.27,3.27,0,0,1,917.11,524.41Z" transform="translate(-36.25 -270.59)"/><path class="cls-5" d="M935.15,522.78a1.64,1.64,0,1,1-1.64-1.64A1.63,1.63,0,0,1,935.15,522.78Z" transform="translate(-36.25 -270.59)"/><path class="cls-5" d="M914.23,576.16a1.84,1.84,0,1,1-1.83-1.84A1.83,1.83,0,0,1,914.23,576.16Z" transform="translate(-36.25 -270.59)"/><path class="cls-5" d="M959.25,575.24a.92.92,0,1,1-.92-.92A.92.92,0,0,1,959.25,575.24Z" transform="translate(-36.25 -270.59)"/><circle class="cls-5" cx="1259.04" cy="357.98" r="1.44"/><path class="cls-5" d="M1427.41,702.4a1.56,1.56,0,1,1-1.56-1.55A1.56,1.56,0,0,1,1427.41,702.4Z" transform="translate(-36.25 -270.59)"/><circle class="cls-5" cx="1500.84" cy="457.79" r="1.78"/><circle class="cls-5" cx="1531.39" cy="92.46" r="5.1"/><path class="cls-5" d="M1378,331.23a3.21,3.21,0,1,1-3.21-3.21A3.21,3.21,0,0,1,1378,331.23Z" transform="translate(-36.25 -270.59)"/><circle class="cls-5" cx="1261.05" cy="94.47" r="2"/><path class="cls-5" d="M1320.29,328.37a.36.36,0,1,1-.71,0,.36.36,0,0,1,.71,0Z" transform="translate(-36.25 -270.59)"/><circle class="cls-5" cx="1126.39" cy="103.99" r="0.99"/><path class="cls-5" d="M1202.62,351.46a2.24,2.24,0,1,1-2.24-2.24A2.24,2.24,0,0,1,1202.62,351.46Z" transform="translate(-36.25 -270.59)"/><circle class="cls-5" cx="210.57" cy="480.74" r="4.81"/><circle class="cls-5" cx="225.24" cy="493.9" r="1.67"/><path class="cls-5" d="M282.88,753.74a2.41,2.41,0,1,0,2.4-2.41A2.4,2.4,0,0,0,282.88,753.74Z" transform="translate(-36.25 -270.59)"/><circle class="cls-5" cx="251.15" cy="465.6" r="2.12"/><circle class="cls-5" cx="263.51" cy="399.31" r="2.95"/><circle class="cls-5" cx="228.19" cy="399.31" r="2.95"/><path class="cls-5" d="M201.6,709.08a4.53,4.53,0,1,1-4.53-4.53A4.53,4.53,0,0,1,201.6,709.08Z" transform="translate(-36.25 -270.59)"/><circle class="cls-5" cx="450.57" cy="378.76" r="0.32"/><path class="cls-5" d="M446.27,653.23a4.2,4.2,0,1,1-4.19-4.19A4.19,4.19,0,0,1,446.27,653.23Z" transform="translate(-36.25 -270.59)"/><path class="cls-5" d="M367.22,663.14a3.81,3.81,0,1,1-3.81-3.81A3.8,3.8,0,0,1,367.22,663.14Z" transform="translate(-36.25 -270.59)"/><path class="cls-5" d="M680.07,669.9a3,3,0,1,1-3-2.95A3,3,0,0,1,680.07,669.9Z" transform="translate(-36.25 -270.59)"/><circle class="cls-5" cx="461.28" cy="380.54" r="2.1"/><circle class="cls-5" cx="425.76" cy="380.54" r="2.1"/><circle class="cls-5" cx="413.38" cy="519.93" r="3.36"/><circle class="cls-5" cx="430.12" cy="440.75" r="2.26"/><circle class="cls-5" cx="190.56" cy="318.77" r="4"/><path class="cls-5" d="M237.14,652.2A3.17,3.17,0,1,1,234,649,3.16,3.16,0,0,1,237.14,652.2Z" transform="translate(-36.25 -270.59)"/><path class="cls-5" d="M268.77,639.06a.69.69,0,1,1-.69-.69A.69.69,0,0,1,268.77,639.06Z" transform="translate(-36.25 -270.59)"/><path class="cls-5" d="M273.77,630a1,1,0,1,1-1-1A1,1,0,0,1,273.77,630Z" transform="translate(-36.25 -270.59)"/><path class="cls-5" d="M114.1,705.87a1.33,1.33,0,1,1-1.32-1.32A1.32,1.32,0,0,1,114.1,705.87Z" transform="translate(-36.25 -270.59)"/><circle class="cls-5" cx="288.43" cy="346.72" r="0.92"/><path class="cls-5" d="M96.19,802a4.61,4.61,0,1,1-4.61-4.61A4.6,4.6,0,0,1,96.19,802Z" transform="translate(-36.25 -270.59)"/><path class="cls-5" d="M1286.59,755.84a2.1,2.1,0,1,0,2.1-2.1A2.1,2.1,0,0,0,1286.59,755.84Z" transform="translate(-36.25 -270.59)"/><path class="cls-5" d="M1079.49,783.22a4.35,4.35,0,1,1-4.35-4.35A4.35,4.35,0,0,1,1079.49,783.22Z" transform="translate(-36.25 -270.59)"/><path class="cls-5" d="M1594.62,544.79a4.78,4.78,0,1,1-4.78-4.78A4.78,4.78,0,0,1,1594.62,544.79Z" transform="translate(-36.25 -270.59)"/><circle class="cls-5" cx="1581.67" cy="253.15" r="3.95"/><path class="cls-5" d="M1572.73,607.87a5.1,5.1,0,1,1-5.09-5.1A5.09,5.09,0,0,1,1572.73,607.87Z" transform="translate(-36.25 -270.59)"/><path class="cls-5" d="M1625.28,575.33a1,1,0,1,1-1-1A1,1,0,0,1,1625.28,575.33Z" transform="translate(-36.25 -270.59)"/><path class="cls-5" d="M1630.7,556.85a3.72,3.72,0,1,1-3.72-3.72A3.72,3.72,0,0,1,1630.7,556.85Z" transform="translate(-36.25 -270.59)"/><circle class="cls-5" cx="1618.15" cy="280.76" r="1.78"/><path class="cls-5" d="M1665.05,532.78a1.88,1.88,0,1,1-1.88-1.87A1.88,1.88,0,0,1,1665.05,532.78Z" transform="translate(-36.25 -270.59)"/><path class="cls-5" d="M1604.47,536.81a1.6,1.6,0,1,1-1.6-1.6A1.6,1.6,0,0,1,1604.47,536.81Z" transform="translate(-36.25 -270.59)"/><path class="cls-5" d="M1734.28,409.78a1.89,1.89,0,1,1-1.89-1.88A1.89,1.89,0,0,1,1734.28,409.78Z" transform="translate(-36.25 -270.59)"/><path class="cls-5" d="M1589.56,405.46a2.25,2.25,0,1,1-2.25-2.25A2.25,2.25,0,0,1,1589.56,405.46Z" transform="translate(-36.25 -270.59)"/><path class="cls-5" d="M1636.32,457.71a1,1,0,1,1-1-.95A1,1,0,0,1,1636.32,457.71Z" transform="translate(-36.25 -270.59)"/><path class="cls-5" d="M1648.92,426a1,1,0,1,1-1-1A1,1,0,0,1,1648.92,426Z" transform="translate(-36.25 -270.59)"/><circle class="cls-5" cx="1920.17" cy="490.19" r="2.84"/><path class="cls-5" d="M1961.56,746.54a1.15,1.15,0,1,1-1.15-1.14A1.15,1.15,0,0,1,1961.56,746.54Z" transform="translate(-36.25 -270.59)"/><path class="cls-5" d="M1907.12,768.47a2.24,2.24,0,1,1-2.24-2.24A2.23,2.23,0,0,1,1907.12,768.47Z" transform="translate(-36.25 -270.59)"/><path class="cls-5" d="M1959.28,850a4.41,4.41,0,1,1-4.4-4.41A4.4,4.4,0,0,1,1959.28,850Z" transform="translate(-36.25 -270.59)"/><circle class="cls-5" cx="1764.01" cy="742.67" r="2.01"/><path class="cls-5" d="M1823.71,995.74a1.85,1.85,0,1,1-1.85-1.85A1.85,1.85,0,0,1,1823.71,995.74Z" transform="translate(-36.25 -270.59)"/><path class="cls-5" d="M1679.64,939.6a4.67,4.67,0,1,1-4.67-4.67A4.67,4.67,0,0,1,1679.64,939.6Z" transform="translate(-36.25 -270.59)"/><circle class="cls-5" cx="1625.95" cy="756.72" r="0.9"/><path class="cls-5" d="M1677.28,1012.25a1,1,0,1,1-1-1A1,1,0,0,1,1677.28,1012.25Z" transform="translate(-36.25 -270.59)"/><circle class="cls-5" cx="1644.48" cy="731.81" r="1.08"/><path class="cls-5" d="M1601.27,1028.38a2,2,0,1,1-2-2A2,2,0,0,1,1601.27,1028.38Z" transform="translate(-36.25 -270.59)"/><path class="cls-5" d="M1612,1066.61a2.25,2.25,0,1,1-2.25-2.25A2.25,2.25,0,0,1,1612,1066.61Z" transform="translate(-36.25 -270.59)"/><circle class="cls-5" cx="1589.98" cy="717.76" r="1.95"/><path class="cls-5" d="M1501.26,841.06a4.09,4.09,0,1,1-4.09-4.09A4.09,4.09,0,0,1,1501.26,841.06Z" transform="translate(-36.25 -270.59)"/><circle class="cls-5" cx="1499.95" cy="570.17" r="0.89"/><path class="cls-5" d="M1526,887a1.31,1.31,0,1,1-1.31-1.32A1.31,1.31,0,0,1,1526,887Z" transform="translate(-36.25 -270.59)"/><path class="cls-5" d="M83,361.51A3.56,3.56,0,1,1,79.45,358,3.55,3.55,0,0,1,83,361.51Z" transform="translate(-36.25 -270.59)"/><path class="cls-5" d="M82.83,411.36a3.47,3.47,0,1,1-3.47-3.46A3.47,3.47,0,0,1,82.83,411.36Z" transform="translate(-36.25 -270.59)"/><circle class="cls-5" cx="79.53" cy="113.63" r="4.33"/><path class="cls-5" d="M120.11,484a4.33,4.33,0,1,1-4.33-4.33A4.33,4.33,0,0,1,120.11,484Z" transform="translate(-36.25 -270.59)"/><path class="cls-5" d="M97,517.06a2.73,2.73,0,1,1-2.72-2.72A2.72,2.72,0,0,1,97,517.06Z" transform="translate(-36.25 -270.59)"/><path class="cls-5" d="M730.71,495.91a3.74,3.74,0,1,1-3.74-3.74A3.73,3.73,0,0,1,730.71,495.91Z" transform="translate(-36.25 -270.59)"/><path class="cls-5" d="M742.52,561.29a.72.72,0,1,0,.72-.72A.72.72,0,0,0,742.52,561.29Z" transform="translate(-36.25 -270.59)"/><path class="cls-5" d="M758,618.44a2.06,2.06,0,1,1-2-2.05A2.05,2.05,0,0,1,758,618.44Z" transform="translate(-36.25 -270.59)"/><path class="cls-5" d="M688.45,582.19a4.19,4.19,0,1,1-4.19-4.2A4.2,4.2,0,0,1,688.45,582.19Z" transform="translate(-36.25 -270.59)"/><path class="cls-5" d="M797.42,338.17a8,8,0,1,1-8-8A8,8,0,0,1,797.42,338.17Z" transform="translate(-36.25 -270.59)"/><circle class="cls-5" cx="1058.64" cy="135.83" r="2.12"/><path class="cls-5" d="M1967.77,624.76a4.26,4.26,0,1,1-4.25-4.26A4.25,4.25,0,0,1,1967.77,624.76Z" transform="translate(-36.25 -270.59)"/><path class="cls-5" d="M1224.62,802.75a3.33,3.33,0,1,1-3.33-3.33A3.34,3.34,0,0,1,1224.62,802.75Z" transform="translate(-36.25 -270.59)"/><path class="cls-5" d="M1670.43,662.67a6.87,6.87,0,0,1-.53,2.74,7.32,7.32,0,1,1-8.58-9.8,6.89,6.89,0,0,1,1.78-.24A7.32,7.32,0,0,1,1670.43,662.67Z" transform="translate(-36.25 -270.59)"/><path class="cls-6" d="M1669.9,665.41a7.32,7.32,0,1,1-8.58-9.8l-.18.45a6.11,6.11,0,0,0,.77,5.45,9,9,0,0,0,5.13,3.25C1668,665,1669,665.23,1669.9,665.41Z" transform="translate(-36.25 -270.59)"/><path class="cls-5" d="M1829.55,854.5a7,7,0,0,1,1.23,2.51,7.32,7.32,0,1,1-12.76-2.64,7,7,0,0,1,1.28-1.27A7.32,7.32,0,0,1,1829.55,854.5Z" transform="translate(-36.25 -270.59)"/><path class="cls-6" d="M1830.78,857a7.32,7.32,0,1,1-12.76-2.64c0,.16.08.31.13.47a6.13,6.13,0,0,0,3.9,3.88,9,9,0,0,0,6-.51C1829,857.87,1829.91,857.44,1830.78,857Z" transform="translate(-36.25 -270.59)"/><path class="cls-5" d="M303.19,1009.26c-1.56,10.08-1.66,14.33-15.5,16,13.94,2.53,14,5.33,15.63,17.65,1.81-12,3.27-16,15.39-18.27C308.54,1022.9,305.28,1019.35,303.19,1009.26Z" transform="translate(-36.25 -270.59)"/><path class="cls-5" d="M1821.85,621.57c-1.56,10.07-1.66,14.33-15.5,15.95,13.94,2.53,14,5.34,15.64,17.66,1.8-12,3.26-16,15.38-18.27C1827.21,635.21,1823.94,631.66,1821.85,621.57Z" transform="translate(-36.25 -270.59)"/><path class="cls-5" d="M988.57,1271.91c-1.56,10.07-1.66,14.33-15.5,15.95,13.94,2.53,14,5.34,15.64,17.65,1.8-12,3.26-16,15.38-18.27C993.93,1285.55,990.66,1282,988.57,1271.91Z" transform="translate(-36.25 -270.59)"/><path class="cls-5" d="M1098.09,346.25c-1.56,10.08-1.67,14.33-15.5,16,13.94,2.53,14,5.33,15.63,17.65,1.81-12,3.27-16,15.39-18.27C1103.44,359.89,1100.18,356.34,1098.09,346.25Z" transform="translate(-36.25 -270.59)"/></g></g></svg>