<svg xmlns="http://www.w3.org/2000/svg" viewBox="0 0 4732.84 3253.01"><defs><style>.cls-1{isolation:isolate;}.cls-2{fill:#306ee5;}.cls-3{fill:#24166e;opacity:0.3;}.cls-4{fill:#231553;opacity:0.5;}.cls-5{fill:#fff;}.cls-6{fill:#4e2a67;opacity:0.2;mix-blend-mode:multiply;}</style></defs><g class="cls-1"><g id="Capa_1" data-name="Capa 1"><rect class="cls-2" x="0.52" y="522.64" width="4728.59" height="2729.55"/><path class="cls-2" d="M4863.37,839.12C4290.92,707.05,3465.46,568.7,2463,571.89,1493.29,575,692.78,709.4,130.53,839.12v323.32H4863.37Z" transform="translate(-130.53 -571.83)"/><path class="cls-3" d="M4859.12,2389.93v817.84c-56.83,37.19-120,66.52-183,91.5-287.87,114-608.46,165.27-854.21,353.63-66,50.54-124.05,109.13-178,171.94H139V2475.08c166.71-31.09,336.63-40.53,504.61-19.44,290.76,36.5,575.35,171.18,758.68,399.82,118.56,147.9,191.69,328.9,316,472,213.1,245.13,570.13,348.91,885.68,271.94s580.07-324.87,693.29-629.28c238.9-642.34-174.16-1075.21,94.4-1802.83,87.85-238,218.19-412.14,316-523.17q115.29,9.86,237.92,25.49c128.52,16.56,250.46,36.83,365.37,59.48-102.08,29.26-333.27,111.18-514,333.67-77.17,95-268.43,329.52-201.2,580.07,50.16,186.91,220.65,318.51,399.25,393s372.33,105.92,553.33,174.46C4660.62,2252.74,4769.31,2311.45,4859.12,2389.93Z" transform="translate(-130.53 -571.83)"/><path class="cls-3" d="M859.76,693.27c278.09-39.63,485.48-56.09,736.17-76.4,297.22-24.07,475.62-38.52,726.83-40.72,136.22-1.19,433.26,0,433.35,0h0s-237.17,209-521.74,341.69c-55.55,25.89-155.2,69.72-286.42,152.63-26.27,16.6-52.34,34.21-79.92,54-137.07,98.35-245.78,230.21-365.75,348.84s-259,228.24-424,263.37c-168.68,35.92-347.49-11.54-494.87-101.09s-266.8-218.43-373.21-354.16c-26.28-33.51-52.17-67.8-79.69-100.36V825.23C323.3,782.8,570.31,734.52,859.76,693.27Z" transform="translate(-130.53 -571.83)"/><path class="cls-4" d="M974.39,2856.28c-22.8,26.67-54.39,44.23-86.24,59-66,30.68-136.87,52.16-209.51,56.23-96.18,5.4-191.15-19.57-284.37-43.8-86-22.38-173.95-44.39-262.47-41.69v-697.3a331,331,0,0,1,102.54,65.07c61.84,58.14,99.46,136.71,141.52,210.46s93.59,147.45,170.2,184c97.35,46.5,211.89,23.17,319.4,32.27,54.7,4.66,117.34,25.61,133.9,77.93C1009.94,2792,997.19,2829.56,974.39,2856.28Z" transform="translate(-130.53 -571.83)"/><path class="cls-4" d="M4863.37,865.05v438.39c-10.46-.94-20.87-1.73-31.28-2.31-78.37-4.31-165.31,8.83-216.78,68.12-59.92,69.07-49.88,171.68-47.57,263.09s-19.34,201.48-104.6,234.39c-64.08,24.76-145.08-15.56-163.9-81.58-14-48.78,2.89-100.3,13.46-150s12.4-108-23.34-144c-14.67-14.72-34.17-23.92-49-38.42-37.68-36.75-37.05-98.41-20.13-148.29,39.37-115.85,145.87-195.33,254.26-252s226.08-99.3,320.49-177.14q6.07-5,12-10.2Z" transform="translate(-130.53 -571.83)"/><path class="cls-5" d="M577.15,2721a12.29,12.29,0,1,1-12.29-12.28A12.28,12.28,0,0,1,577.15,2721Z" transform="translate(-130.53 -571.83)"/><circle class="cls-5" cx="371.57" cy="2246.01" r="9.17"/><path class="cls-5" d="M511.27,2660.63a9.17,9.17,0,1,1-9.17-9.16A9.17,9.17,0,0,1,511.27,2660.63Z" transform="translate(-130.53 -571.83)"/><circle class="cls-5" cx="473.12" cy="2225.78" r="2.1"/><path class="cls-5" d="M968.73,2373.22a5.82,5.82,0,1,1-5.82-5.82A5.82,5.82,0,0,1,968.73,2373.22Z" transform="translate(-130.53 -571.83)"/><path class="cls-5" d="M512.28,2392.64a5.09,5.09,0,1,1-5.09-5.09A5.09,5.09,0,0,1,512.28,2392.64Z" transform="translate(-130.53 -571.83)"/><path class="cls-5" d="M272.85,2991.18a9.22,9.22,0,1,1-9.22-9.22A9.22,9.22,0,0,1,272.85,2991.18Z" transform="translate(-130.53 -571.83)"/><circle class="cls-5" cx="133.1" cy="2048.39" r="9.22"/><circle class="cls-5" cx="708.13" cy="2382.42" r="4.83"/><path class="cls-5" d="M787.69,2739.56a6.32,6.32,0,1,1-6.31-6.32A6.31,6.31,0,0,1,787.69,2739.56Z" transform="translate(-130.53 -571.83)"/><path class="cls-5" d="M760.68,2677.79a8,8,0,1,1-8-8A8,8,0,0,1,760.68,2677.79Z" transform="translate(-130.53 -571.83)"/><path class="cls-5" d="M804.75,2673.8a4,4,0,1,1-4-4A4,4,0,0,1,804.75,2673.8Z" transform="translate(-130.53 -571.83)"/><circle class="cls-5" cx="618.64" cy="2232.36" r="4.48"/><circle class="cls-5" cx="730.84" cy="2230.12" r="2.24"/><circle class="cls-5" cx="626.63" cy="2318.19" r="3.51"/><path class="cls-5" d="M1079.86,3070.36a3.8,3.8,0,1,1-3.8-3.8A3.8,3.8,0,0,1,1079.86,3070.36Z" transform="translate(-130.53 -571.83)"/><circle class="cls-5" cx="1217.24" cy="2561.98" r="4.34"/><path class="cls-5" d="M1299.45,3331a5.13,5.13,0,1,1-5.13-5.12A5.13,5.13,0,0,1,1299.45,3331Z" transform="translate(-130.53 -571.83)"/><path class="cls-5" d="M1846.32,2690.44a4.66,4.66,0,1,1-4.65-4.65A4.66,4.66,0,0,1,1846.32,2690.44Z" transform="translate(-130.53 -571.83)"/><circle class="cls-5" cx="1775.37" cy="2062.29" r="4.68"/><path class="cls-5" d="M1910.59,2744.24a4.68,4.68,0,1,1-4.68-4.68A4.68,4.68,0,0,1,1910.59,2744.24Z" transform="translate(-130.53 -571.83)"/><path class="cls-5" d="M1955.51,2688.12a2.33,2.33,0,1,1-2.33-2.33A2.32,2.32,0,0,1,1955.51,2688.12Z" transform="translate(-130.53 -571.83)"/><path class="cls-5" d="M1909.66,2682a4.22,4.22,0,1,1-4.22-4.22A4.22,4.22,0,0,1,1909.66,2682Z" transform="translate(-130.53 -571.83)"/><path class="cls-5" d="M1828.34,2903.44a9.91,9.91,0,1,1-9.91-9.91A9.91,9.91,0,0,1,1828.34,2903.44Z" transform="translate(-130.53 -571.83)"/><circle class="cls-5" cx="1988.6" cy="2057.68" r="9.29"/><path class="cls-5" d="M2128.42,2849.93a4.65,4.65,0,1,1-4.65-4.64A4.65,4.65,0,0,1,2128.42,2849.93Z" transform="translate(-130.53 -571.83)"/><path class="cls-5" d="M2002.75,2942.91a6.51,6.51,0,1,1-6.51-6.51A6.52,6.52,0,0,1,2002.75,2942.91Z" transform="translate(-130.53 -571.83)"/><path class="cls-5" d="M2063.43,2753.16a4.24,4.24,0,1,1-4.24-4.24A4.24,4.24,0,0,1,2063.43,2753.16Z" transform="translate(-130.53 -571.83)"/><circle class="cls-5" cx="1728.62" cy="2325.22" r="3.53"/><circle class="cls-5" cx="1748.64" cy="2286.99" r="4.24"/><path class="cls-5" d="M4472.2,977.43a4.66,4.66,0,1,1-4.66-4.65A4.66,4.66,0,0,1,4472.2,977.43Z" transform="translate(-130.53 -571.83)"/><path class="cls-5" d="M4536.46,921.11a4.68,4.68,0,1,1-4.68-4.68A4.68,4.68,0,0,1,4536.46,921.11Z" transform="translate(-130.53 -571.83)"/><path class="cls-5" d="M4536.46,1031.23a4.68,4.68,0,1,1-4.68-4.68A4.67,4.67,0,0,1,4536.46,1031.23Z" transform="translate(-130.53 -571.83)"/><circle class="cls-5" cx="4448.53" cy="403.27" r="2.33"/><path class="cls-5" d="M4535.54,969a4.22,4.22,0,1,1-4.22-4.22A4.22,4.22,0,0,1,4535.54,969Z" transform="translate(-130.53 -571.83)"/><path class="cls-5" d="M4454.22,1190.43a9.91,9.91,0,1,1-9.91-9.91A9.91,9.91,0,0,1,4454.22,1190.43Z" transform="translate(-130.53 -571.83)"/><path class="cls-5" d="M4754.29,916.5a9.29,9.29,0,1,1-9.29-9.29A9.28,9.28,0,0,1,4754.29,916.5Z" transform="translate(-130.53 -571.83)"/><path class="cls-5" d="M4754.29,1136.92a4.65,4.65,0,1,1-4.64-4.64A4.65,4.65,0,0,1,4754.29,1136.92Z" transform="translate(-130.53 -571.83)"/><path class="cls-5" d="M4628.62,1229.9a6.51,6.51,0,1,1-6.51-6.51A6.51,6.51,0,0,1,4628.62,1229.9Z" transform="translate(-130.53 -571.83)"/><path class="cls-5" d="M4689.31,1040.15a4.25,4.25,0,1,1-4.24-4.24A4.24,4.24,0,0,1,4689.31,1040.15Z" transform="translate(-130.53 -571.83)"/><path class="cls-5" d="M4488.56,1184.05a3.53,3.53,0,1,1-3.53-3.53A3.53,3.53,0,0,1,4488.56,1184.05Z" transform="translate(-130.53 -571.83)"/><circle class="cls-5" cx="4374.52" cy="573.98" r="4.24"/><circle class="cls-5" cx="399.46" cy="1608.82" r="4.41"/><path class="cls-5" d="M361.34,2109a4.66,4.66,0,1,1-4.65-4.65A4.66,4.66,0,0,1,361.34,2109Z" transform="translate(-130.53 -571.83)"/><path class="cls-5" d="M448.36,2056.3a3.69,3.69,0,1,1-3.69-3.69A3.69,3.69,0,0,1,448.36,2056.3Z" transform="translate(-130.53 -571.83)"/><path class="cls-5" d="M454,2171.59a4.66,4.66,0,1,1-4.66-4.65A4.66,4.66,0,0,1,454,2171.59Z" transform="translate(-130.53 -571.83)"/><path class="cls-5" d="M428.12,2118.28a4.66,4.66,0,1,1-4.66-4.65A4.66,4.66,0,0,1,428.12,2118.28Z" transform="translate(-130.53 -571.83)"/><path class="cls-5" d="M2380.73,2640.45a11,11,0,1,1-11-11A11,11,0,0,1,2380.73,2640.45Z" transform="translate(-130.53 -571.83)"/><circle class="cls-5" cx="2297.29" cy="1949.61" r="10.78"/><path class="cls-5" d="M2511.5,2861.73a11.8,11.8,0,1,1-11.79-11.8A11.79,11.79,0,0,1,2511.5,2861.73Z" transform="translate(-130.53 -571.83)"/><circle class="cls-5" cx="2572.36" cy="2581.55" r="8.25"/><circle class="cls-5" cx="2568.23" cy="2335.74" r="4.13"/><path class="cls-5" d="M2662.28,2956.66a2.42,2.42,0,1,1-2.41-2.41A2.41,2.41,0,0,1,2662.28,2956.66Z" transform="translate(-130.53 -571.83)"/><path class="cls-5" d="M2724.16,2942.91a6.51,6.51,0,1,1-6.51-6.51A6.51,6.51,0,0,1,2724.16,2942.91Z" transform="translate(-130.53 -571.83)"/><path class="cls-5" d="M2770.83,3026.43a3.07,3.07,0,1,1-3.06-3.06A3.06,3.06,0,0,1,2770.83,3026.43Z" transform="translate(-130.53 -571.83)"/><circle class="cls-5" cx="2606.37" cy="2482.45" r="4.37"/><path class="cls-5" d="M3279.89,3221.62a3.5,3.5,0,1,1-3.5-3.5A3.5,3.5,0,0,1,3279.89,3221.62Z" transform="translate(-130.53 -571.83)"/><path class="cls-5" d="M3111.52,3209.44a5,5,0,1,1-5-5A5,5,0,0,1,3111.52,3209.44Z" transform="translate(-130.53 -571.83)"/><circle class="cls-5" cx="2954.53" cy="2715.9" r="4.44"/><path class="cls-5" d="M3454.09,3167.08a5.45,5.45,0,1,1-5.45-5.44A5.45,5.45,0,0,1,3454.09,3167.08Z" transform="translate(-130.53 -571.83)"/><circle class="cls-5" cx="3195.05" cy="2701.61" r="3.81"/><path class="cls-5" d="M3259.94,3176.57a4,4,0,1,1-4-4A4,4,0,0,1,3259.94,3176.57Z" transform="translate(-130.53 -571.83)"/><circle class="cls-5" cx="3152.71" cy="2588.4" r="6.85"/><path class="cls-5" d="M3212.54,3219.78a5.34,5.34,0,1,1-5.34-5.34A5.34,5.34,0,0,1,3212.54,3219.78Z" transform="translate(-130.53 -571.83)"/><circle class="cls-5" cx="3178.88" cy="2997.54" r="6.13"/><circle class="cls-5" cx="3386.95" cy="2909.92" r="10.82"/><path class="cls-5" d="M3494,3756.74a5.22,5.22,0,1,1-5.22-5.21A5.21,5.21,0,0,1,3494,3756.74Z" transform="translate(-130.53 -571.83)"/><path class="cls-5" d="M3483.58,3654.84a5,5,0,1,1-5-5.05A5,5,0,0,1,3483.58,3654.84Z" transform="translate(-130.53 -571.83)"/><circle class="cls-5" cx="3258.98" cy="3119.3" r="4.01"/><path class="cls-5" d="M3443.19,3682.25a3.61,3.61,0,1,1-3.6-3.61A3.6,3.6,0,0,1,3443.19,3682.25Z" transform="translate(-130.53 -571.83)"/><path class="cls-5" d="M1446.11,3539.81a4,4,0,1,1-4-4A4,4,0,0,1,1446.11,3539.81Z" transform="translate(-130.53 -571.83)"/><circle class="cls-5" cx="1701.62" cy="2769.69" r="5.36"/><path class="cls-5" d="M1687.56,3682.88a4.25,4.25,0,1,1-4.25-4.24A4.25,4.25,0,0,1,1687.56,3682.88Z" transform="translate(-130.53 -571.83)"/><path class="cls-5" d="M1687.56,3647.63a2.13,2.13,0,1,1-2.13-2.12A2.12,2.12,0,0,1,1687.56,3647.63Z" transform="translate(-130.53 -571.83)"/><circle class="cls-5" cx="1517.48" cy="3065.75" r="7.89"/><path class="cls-5" d="M1621.63,3682.88a4.24,4.24,0,1,1-4.24-4.24A4.24,4.24,0,0,1,1621.63,3682.88Z" transform="translate(-130.53 -571.83)"/><path class="cls-5" d="M1329.41,3616.77a6.2,6.2,0,1,1-6.2-6.2A6.2,6.2,0,0,1,1329.41,3616.77Z" transform="translate(-130.53 -571.83)"/><path class="cls-5" d="M1585.31,3376.45a6.49,6.49,0,1,1-6.49-6.49A6.49,6.49,0,0,1,1585.31,3376.45Z" transform="translate(-130.53 -571.83)"/><circle class="cls-5" cx="1324.96" cy="2912.08" r="2.88"/><circle class="cls-5" cx="1320.27" cy="2882.15" r="4.69"/><path class="cls-5" d="M2246.87,2184.06a4,4,0,1,1-4-4A4,4,0,0,1,2246.87,2184.06Z" transform="translate(-130.53 -571.83)"/><circle class="cls-5" cx="2502.38" cy="1413.94" r="5.36"/><path class="cls-5" d="M2488.31,2327.14a4.24,4.24,0,1,1-4.24-4.24A4.24,4.24,0,0,1,2488.31,2327.14Z" transform="translate(-130.53 -571.83)"/><circle class="cls-5" cx="2355.66" cy="1720.05" r="2.12"/><circle class="cls-5" cx="2318.24" cy="1710" r="7.89"/><path class="cls-5" d="M2422.39,2327.14a4.24,4.24,0,1,1-4.24-4.24A4.24,4.24,0,0,1,2422.39,2327.14Z" transform="translate(-130.53 -571.83)"/><path class="cls-5" d="M2386.07,2020.7a6.49,6.49,0,1,1-6.49-6.49A6.49,6.49,0,0,1,2386.07,2020.7Z" transform="translate(-130.53 -571.83)"/><path class="cls-5" d="M2259.13,2128.16a2.89,2.89,0,1,1-2.88-2.88A2.88,2.88,0,0,1,2259.13,2128.16Z" transform="translate(-130.53 -571.83)"/><circle class="cls-5" cx="2121.03" cy="1526.4" r="4.69"/><circle class="cls-5" cx="1341.19" cy="3236.99" r="4.69"/><circle class="cls-5" cx="954.18" cy="1534" r="12.45"/><path class="cls-5" d="M959.11,2163.75a7.85,7.85,0,1,1-7.85-7.85A7.84,7.84,0,0,1,959.11,2163.75Z" transform="translate(-130.53 -571.83)"/><path class="cls-5" d="M854.28,2040.46a10.22,10.22,0,1,1-10.22-10.23A10.22,10.22,0,0,1,854.28,2040.46Z" transform="translate(-130.53 -571.83)"/><circle class="cls-5" cx="631.53" cy="1674.54" r="4.9"/><path class="cls-5" d="M818.21,2156.76a.87.87,0,1,1-.86-.86A.87.87,0,0,1,818.21,2156.76Z" transform="translate(-130.53 -571.83)"/><circle class="cls-5" cx="705.72" cy="1553.52" r="2.42"/><circle class="cls-5" cx="738.55" cy="1527.02" r="5.47"/><path class="cls-5" d="M2783.11,1330.93a12.29,12.29,0,1,1-12.28-12.28A12.28,12.28,0,0,1,2783.11,1330.93Z" transform="translate(-130.53 -571.83)"/><circle class="cls-5" cx="2820.23" cy="802.21" r="9.17"/><circle class="cls-5" cx="2820.23" cy="645" r="9.17"/><path class="cls-5" d="M2127.15,1311.62a2.1,2.1,0,1,1-2.09-2.1A2.09,2.09,0,0,1,2127.15,1311.62Z" transform="translate(-130.53 -571.83)"/><path class="cls-5" d="M3539.19,827.13a5.82,5.82,0,1,1-5.82-5.82A5.82,5.82,0,0,1,3539.19,827.13Z" transform="translate(-130.53 -571.83)"/><path class="cls-5" d="M2960.94,948.84a5.09,5.09,0,1,1-5.09-5.08A5.09,5.09,0,0,1,2960.94,948.84Z" transform="translate(-130.53 -571.83)"/><circle class="cls-5" cx="2581.76" cy="975.55" r="9.22"/><circle class="cls-5" cx="2581.76" cy="604.59" r="9.22"/><circle class="cls-5" cx="3156.79" cy="938.62" r="4.83"/><path class="cls-5" d="M2309.09,1253.57a6.32,6.32,0,1,1-6.31-6.31A6.31,6.31,0,0,1,2309.09,1253.57Z" transform="translate(-130.53 -571.83)"/><path class="cls-5" d="M2282.08,1191.81a8,8,0,1,1-8-8A8,8,0,0,1,2282.08,1191.81Z" transform="translate(-130.53 -571.83)"/><path class="cls-5" d="M2326.15,1187.81a4,4,0,1,1-4-4A4,4,0,0,1,2326.15,1187.81Z" transform="translate(-130.53 -571.83)"/><path class="cls-5" d="M2275.05,1318.2a4.48,4.48,0,1,1-4.48-4.48A4.47,4.47,0,0,1,2275.05,1318.2Z" transform="translate(-130.53 -571.83)"/><path class="cls-5" d="M2385,1316a2.24,2.24,0,1,1-2.24-2.24A2.24,2.24,0,0,1,2385,1316Z" transform="translate(-130.53 -571.83)"/><circle class="cls-5" cx="3075.29" cy="874.39" r="3.51"/><path class="cls-5" d="M3528.52,1626.56a3.8,3.8,0,1,1-3.8-3.79A3.8,3.8,0,0,1,3528.52,1626.56Z" transform="translate(-130.53 -571.83)"/><circle class="cls-5" cx="3665.9" cy="1118.19" r="4.34"/><circle class="cls-5" cx="3740.51" cy="225.85" r="12.45"/><path class="cls-5" d="M3407.77,720a7.85,7.85,0,1,1-7.85-7.85A7.84,7.84,0,0,1,3407.77,720Z" transform="translate(-130.53 -571.83)"/><circle class="cls-5" cx="3080.19" cy="230.74" r="4.9"/><path class="cls-5" d="M3266.87,713a.87.87,0,1,1-.86-.87A.87.87,0,0,1,3266.87,713Z" transform="translate(-130.53 -571.83)"/><circle class="cls-5" cx="2751.26" cy="254.01" r="2.42"/><path class="cls-5" d="M2979.47,769.37a5.47,5.47,0,1,1-5.47-5.47A5.47,5.47,0,0,1,2979.47,769.37Z" transform="translate(-130.53 -571.83)"/><circle class="cls-5" cx="514.34" cy="1174.23" r="11.76"/><circle class="cls-5" cx="550.16" cy="1206.39" r="4.07"/><path class="cls-5" d="M732.93,1751.94a5.88,5.88,0,1,0,5.88-5.88A5.88,5.88,0,0,0,732.93,1751.94Z" transform="translate(-130.53 -571.83)"/><circle class="cls-5" cx="613.46" cy="1137.27" r="5.18"/><circle class="cls-5" cx="643.64" cy="975.35" r="7.21"/><circle class="cls-5" cx="557.37" cy="975.35" r="7.21"/><path class="cls-5" d="M534.4,1642.86a11.06,11.06,0,1,1-11.06-11.06A11.06,11.06,0,0,1,534.4,1642.86Z" transform="translate(-130.53 -571.83)"/><circle class="cls-5" cx="1100.56" cy="925.15" r="0.78"/><path class="cls-5" d="M1132,1506.45a10.25,10.25,0,1,1-10.25-10.24A10.25,10.25,0,0,1,1132,1506.45Z" transform="translate(-130.53 -571.83)"/><path class="cls-5" d="M939,1530.66a9.31,9.31,0,1,1-9.31-9.31A9.31,9.31,0,0,1,939,1530.66Z" transform="translate(-130.53 -571.83)"/><path class="cls-5" d="M1703.1,1547.18a7.21,7.21,0,1,1-7.21-7.21A7.21,7.21,0,0,1,1703.1,1547.18Z" transform="translate(-130.53 -571.83)"/><circle class="cls-5" cx="1126.7" cy="929.5" r="5.12"/><circle class="cls-5" cx="1039.93" cy="929.5" r="5.12"/><circle class="cls-5" cx="1009.71" cy="1269.97" r="8.2"/><circle class="cls-5" cx="1050.59" cy="1076.56" r="5.53"/><circle class="cls-5" cx="465.46" cy="778.63" r="9.77"/><path class="cls-5" d="M621.23,1503.94a7.74,7.74,0,1,1-7.74-7.73A7.74,7.74,0,0,1,621.23,1503.94Z" transform="translate(-130.53 -571.83)"/><path class="cls-5" d="M698.48,1471.85a1.69,1.69,0,1,1-1.68-1.69A1.68,1.68,0,0,1,698.48,1471.85Z" transform="translate(-130.53 -571.83)"/><path class="cls-5" d="M710.69,1449.64a2.34,2.34,0,1,1-2.34-2.34A2.34,2.34,0,0,1,710.69,1449.64Z" transform="translate(-130.53 -571.83)"/><path class="cls-5" d="M320.69,1635a3.24,3.24,0,1,1-3.24-3.24A3.24,3.24,0,0,1,320.69,1635Z" transform="translate(-130.53 -571.83)"/><circle class="cls-5" cx="704.52" cy="846.88" r="2.25"/><path class="cls-5" d="M277,1869.78a11.27,11.27,0,1,1-11.27-11.27A11.28,11.28,0,0,1,277,1869.78Z" transform="translate(-130.53 -571.83)"/><path class="cls-5" d="M3184.55,1757.08a5.14,5.14,0,1,0,5.14-5.14A5.14,5.14,0,0,0,3184.55,1757.08Z" transform="translate(-130.53 -571.83)"/><path class="cls-5" d="M2678.71,1824a10.63,10.63,0,1,1-10.63-10.63A10.63,10.63,0,0,1,2678.71,1824Z" transform="translate(-130.53 -571.83)"/><path class="cls-5" d="M3937,1241.57a11.68,11.68,0,1,1-11.67-11.67A11.68,11.68,0,0,1,3937,1241.57Z" transform="translate(-130.53 -571.83)"/><circle class="cls-5" cx="3863.34" cy="618.33" r="9.64"/><path class="cls-5" d="M3883.49,1395.66a12.45,12.45,0,1,1-12.45-12.45A12.45,12.45,0,0,1,3883.49,1395.66Z" transform="translate(-130.53 -571.83)"/><path class="cls-5" d="M4011.84,1316.18a2.47,2.47,0,1,1-2.47-2.46A2.47,2.47,0,0,1,4011.84,1316.18Z" transform="translate(-130.53 -571.83)"/><path class="cls-5" d="M4025.09,1271A9.09,9.09,0,1,1,4016,1262,9.09,9.09,0,0,1,4025.09,1271Z" transform="translate(-130.53 -571.83)"/><circle class="cls-5" cx="3952.42" cy="685.77" r="4.35"/><path class="cls-5" d="M4109,1212.25a4.59,4.59,0,1,1-4.58-4.58A4.59,4.59,0,0,1,4109,1212.25Z" transform="translate(-130.53 -571.83)"/><path class="cls-5" d="M3961,1222.09a3.91,3.91,0,1,1-3.91-3.91A3.91,3.91,0,0,1,3961,1222.09Z" transform="translate(-130.53 -571.83)"/><path class="cls-5" d="M4278.07,911.82a4.61,4.61,0,1,1-4.61-4.61A4.61,4.61,0,0,1,4278.07,911.82Z" transform="translate(-130.53 -571.83)"/><path class="cls-5" d="M3924.59,901.25a5.5,5.5,0,1,1-5.49-5.49A5.49,5.49,0,0,1,3924.59,901.25Z" transform="translate(-130.53 -571.83)"/><path class="cls-5" d="M4038.8,1028.88a2.33,2.33,0,1,1-2.33-2.33A2.32,2.32,0,0,1,4038.8,1028.88Z" transform="translate(-130.53 -571.83)"/><path class="cls-5" d="M4069.59,951.39a2.55,2.55,0,1,1-2.55-2.55A2.55,2.55,0,0,1,4069.59,951.39Z" transform="translate(-130.53 -571.83)"/><circle class="cls-5" cx="4690.13" cy="1197.32" r="6.94"/><path class="cls-5" d="M4833.22,1734.38a2.81,2.81,0,1,1-2.81-2.81A2.8,2.8,0,0,1,4833.22,1734.38Z" transform="translate(-130.53 -571.83)"/><path class="cls-5" d="M4700.24,1787.92a5.47,5.47,0,1,1-5.46-5.47A5.46,5.46,0,0,1,4700.24,1787.92Z" transform="translate(-130.53 -571.83)"/><path class="cls-5" d="M4827.65,1987a10.76,10.76,0,1,1-10.76-10.76A10.76,10.76,0,0,1,4827.65,1987Z" transform="translate(-130.53 -571.83)"/><circle class="cls-5" cx="4308.69" cy="1814.01" r="4.91"/><path class="cls-5" d="M4496.52,2343.05a4.52,4.52,0,1,1-4.52-4.52A4.52,4.52,0,0,1,4496.52,2343.05Z" transform="translate(-130.53 -571.83)"/><path class="cls-5" d="M4144.62,2205.94a11.41,11.41,0,1,1-11.41-11.41A11.41,11.41,0,0,1,4144.62,2205.94Z" transform="translate(-130.53 -571.83)"/><circle class="cls-5" cx="3971.49" cy="1848.34" r="2.21"/><path class="cls-5" d="M4138.84,2383.39a2.46,2.46,0,1,1-2.46-2.46A2.46,2.46,0,0,1,4138.84,2383.39Z" transform="translate(-130.53 -571.83)"/><circle class="cls-5" cx="4016.74" cy="1787.5" r="2.64"/><path class="cls-5" d="M3953.19,2422.79a4.83,4.83,0,1,1-4.83-4.83A4.82,4.82,0,0,1,3953.19,2422.79Z" transform="translate(-130.53 -571.83)"/><path class="cls-5" d="M3979.47,2516.16a5.5,5.5,0,1,1-5.49-5.5A5.49,5.49,0,0,1,3979.47,2516.16Z" transform="translate(-130.53 -571.83)"/><circle class="cls-5" cx="3883.62" cy="1753.17" r="4.77"/><path class="cls-5" d="M3708.91,1965.24a10,10,0,1,1-10-10A10,10,0,0,1,3708.91,1965.24Z" transform="translate(-130.53 -571.83)"/><circle class="cls-5" cx="3663.73" cy="1392.68" r="2.17"/><path class="cls-5" d="M3769.32,2077.32a3.21,3.21,0,1,1-3.21-3.21A3.21,3.21,0,0,1,3769.32,2077.32Z" transform="translate(-130.53 -571.83)"/><path class="cls-5" d="M244.71,793.9a8.67,8.67,0,1,1-8.67-8.67A8.68,8.68,0,0,1,244.71,793.9Z" transform="translate(-130.53 -571.83)"/><path class="cls-5" d="M244.31,915.68a8.47,8.47,0,1,1-8.47-8.47A8.47,8.47,0,0,1,244.31,915.68Z" transform="translate(-130.53 -571.83)"/><circle class="cls-5" cx="194.26" cy="277.55" r="10.58"/><path class="cls-5" d="M335.36,1093.15a10.58,10.58,0,1,1-10.57-10.58A10.57,10.57,0,0,1,335.36,1093.15Z" transform="translate(-130.53 -571.83)"/><path class="cls-5" d="M279,1173.86a6.66,6.66,0,1,1-6.66-6.66A6.66,6.66,0,0,1,279,1173.86Z" transform="translate(-130.53 -571.83)"/><path class="cls-5" d="M1826.8,1122.2a9.14,9.14,0,1,1-9.14-9.14A9.15,9.15,0,0,1,1826.8,1122.2Z" transform="translate(-130.53 -571.83)"/><path class="cls-5" d="M1855.63,1281.89a1.77,1.77,0,1,0,1.76-1.76A1.76,1.76,0,0,0,1855.63,1281.89Z" transform="translate(-130.53 -571.83)"/><path class="cls-5" d="M1893.45,1421.48a5,5,0,1,1-5-5A5,5,0,0,1,1893.45,1421.48Z" transform="translate(-130.53 -571.83)"/><path class="cls-5" d="M1723.57,1332.92a10.24,10.24,0,1,1-10.23-10.24A10.23,10.23,0,0,1,1723.57,1332.92Z" transform="translate(-130.53 -571.83)"/><path class="cls-5" d="M1989.73,736.89a19.44,19.44,0,1,1-19.44-19.44A19.44,19.44,0,0,1,1989.73,736.89Z" transform="translate(-130.53 -571.83)"/><circle class="cls-5" cx="2585.8" cy="331.76" r="5.18"/><path class="cls-5" d="M4848.4,1436.9a10.4,10.4,0,1,1-10.4-10.4A10.4,10.4,0,0,1,4848.4,1436.9Z" transform="translate(-130.53 -571.83)"/><path class="cls-5" d="M3033.21,1871.67a8.14,8.14,0,1,1-8.14-8.14A8.13,8.13,0,0,1,3033.21,1871.67Z" transform="translate(-130.53 -571.83)"/><path class="cls-5" d="M4122.13,1529.51a17,17,0,0,1-1.31,6.7,17.88,17.88,0,1,1-21-24,17.27,17.27,0,0,1,4.37-.58A17.87,17.87,0,0,1,4122.13,1529.51Z" transform="translate(-130.53 -571.83)"/><path class="cls-6" d="M4120.82,1536.21a17.88,17.88,0,1,1-21-24c-.15.37-.29.73-.44,1.09a15,15,0,0,0,1.89,13.32c2.84,4.15,7.65,6.55,12.52,7.94C4116.09,1535.26,4118.49,1535.77,4120.82,1536.21Z" transform="translate(-130.53 -571.83)"/><path class="cls-5" d="M4510.78,1998.06a17.07,17.07,0,0,1,3,6.13,17.88,17.88,0,1,1-31.17-6.43,16.72,16.72,0,0,1,3.13-3.1A17.88,17.88,0,0,1,4510.78,1998.06Z" transform="translate(-130.53 -571.83)"/><path class="cls-6" d="M4513.78,2004.19a17.88,17.88,0,1,1-31.17-6.43c.1.38.21.75.31,1.13a15,15,0,0,0,9.55,9.48c4.77,1.59,10.05.61,14.77-1.24C4509.43,2006.29,4511.66,2005.25,4513.78,2004.19Z" transform="translate(-130.53 -571.83)"/><path class="cls-5" d="M782.55,2376.08c-3.81,24.61-4.06,35-37.86,39,34,6.18,34.29,13,38.19,43.12,4.42-29.29,8-39.05,37.58-44.63C795.63,2409.4,787.66,2400.73,782.55,2376.08Z" transform="translate(-130.53 -571.83)"/><path class="cls-5" d="M4492,1429.12c-3.8,24.6-4.06,35-37.86,39,34.06,6.18,34.3,13,38.19,43.11,4.42-29.28,8-39,37.59-44.62C4505.05,1462.44,4497.08,1453.77,4492,1429.12Z" transform="translate(-130.53 -571.83)"/><path class="cls-5" d="M2456.63,3017.61c-3.8,24.6-4.05,35-37.85,39,34,6.18,34.29,13,38.19,43.11,4.41-29.29,8-39.05,37.58-44.62C2469.72,3050.93,2461.74,3042.26,2456.63,3017.61Z" transform="translate(-130.53 -571.83)"/><path class="cls-5" d="M2724.13,756.64c-3.8,24.6-4.06,35-37.86,39,34.06,6.18,34.3,13,38.19,43.11,4.42-29.29,8-39.05,37.59-44.62C2737.21,790,2729.24,781.29,2724.13,756.64Z" transform="translate(-130.53 -571.83)"/></g></g></svg>