<svg xmlns="http://www.w3.org/2000/svg" viewBox="0 0 1272.67 874.72"><defs><style>.cls-1{isolation:isolate;}.cls-2{fill:#3471e6;}.cls-3{fill:#24166e;opacity:0.3;}.cls-4{fill:#231553;opacity:0.5;}.cls-5{fill:#fff;}.cls-6{fill:#4e2a67;opacity:0.2;mix-blend-mode:multiply;}</style></defs><g class="cls-1"><g id="Capa_1" data-name="Capa 1"><rect class="cls-2" x="0.13" y="140.54" width="1271.5" height="733.97"/><path class="cls-2" d="M1327.76,298.22c-153.92-35.52-375.89-72.74-645.45-71.91-260.74.81-476,36.94-627.19,71.81v86.94l1272.65.1Z" transform="translate(-55.09 -226.3)"/><path class="cls-3" d="M1324.31,715.18V935.09C1309,945.1,1292,953,1275.1,959.7c-77.41,30.65-163.61,44.44-229.7,95.09-17.73,13.59-33.35,29.34-47.86,46.23H55.09V738.08c44.83-8.36,90.52-10.9,135.69-5.23,78.18,9.81,154.71,46,204,107.51,31.89,39.77,51.55,88.44,85,126.92,57.3,65.92,153.31,93.82,238.16,73.13s156-87.36,186.42-169.22c64.24-172.72-46.83-289.12,25.38-484.77,23.63-64,58.68-110.82,85-140.68q31,2.65,64,6.85c34.56,4.46,67.35,9.91,98.25,16-27.45,7.87-89.62,29.89-138.21,89.72-20.75,25.55-72.18,88.61-54.1,156C998.12,564.55,1044,599.94,1092,620s100.12,28.48,148.79,46.91C1270.93,678.29,1300.16,694.08,1324.31,715.18Z" transform="translate(-55.09 -226.3)"/><path class="cls-3" d="M251.18,259c74.77-10.65,130.54-15.08,198-20.54,79.92-6.47,127.89-10.36,195.44-10.95,36.63-.32,116.51,0,116.53,0h0s-63.77,56.21-140.29,91.88c-14.94,7-41.74,18.75-77,41-7.07,4.47-14.07,9.2-21.49,14.52-36.86,26.45-66.09,61.9-98.35,93.8s-69.65,61.38-114,70.82c-45.35,9.66-93.44-3.1-133.07-27.18S105.13,453.6,76.52,417.11c-7.07-9-14-18.23-21.43-27V294.44C106.92,283,173.35,270.05,251.18,259Z" transform="translate(-55.09 -226.3)"/><path class="cls-4" d="M279.49,842.87c-6,7.17-14.41,11.89-22.84,15.87-17.48,8.25-36.26,14-55.5,15.12-25.47,1.46-50.63-5.26-75.32-11.77-22.79-6-46.08-11.94-69.52-11.22V663.37a87.49,87.49,0,0,1,27.16,17.5c16.38,15.64,26.34,36.76,37.48,56.59s24.79,39.65,45.09,49.48c25.78,12.51,56.12,6.23,84.6,8.68,14.49,1.25,31.08,6.89,35.46,21C288.91,825.58,285.53,835.68,279.49,842.87Z" transform="translate(-55.09 -226.3)"/><path class="cls-4" d="M1327.74,305.14V423q-4.23-.39-8.41-.63c-21.08-1.15-44.46,2.38-58.3,18.32-16.11,18.58-13.41,46.17-12.79,70.75s-5.2,54.17-28.13,63c-17.23,6.66-39-4.18-44.07-21.93-3.76-13.12.78-27,3.62-40.33s3.34-29-6.27-38.73c-4-4-9.19-6.43-13.19-10.33-10.14-9.88-10-26.46-5.42-39.87,10.59-31.16,39.23-52.53,68.37-67.78s60.8-26.7,86.18-47.63c1.09-.89,2.16-1.81,3.22-2.75Z" transform="translate(-55.09 -226.3)"/><path class="cls-5" d="M175.18,804.19a3.3,3.3,0,1,1-3.3-3.3A3.3,3.3,0,0,1,175.18,804.19Z" transform="translate(-55.09 -226.3)"/><circle class="cls-5" cx="99.91" cy="603.94" r="2.46"/><path class="cls-5" d="M157.47,788a2.47,2.47,0,1,1-2.47-2.46A2.47,2.47,0,0,1,157.47,788Z" transform="translate(-55.09 -226.3)"/><circle class="cls-5" cx="127.22" cy="598.5" r="0.56"/><path class="cls-5" d="M280.48,710.69a1.57,1.57,0,1,1-1.57-1.57A1.56,1.56,0,0,1,280.48,710.69Z" transform="translate(-55.09 -226.3)"/><path class="cls-5" d="M157.74,715.91a1.37,1.37,0,1,1-1.37-1.37A1.37,1.37,0,0,1,157.74,715.91Z" transform="translate(-55.09 -226.3)"/><path class="cls-5" d="M93.36,876.85a2.48,2.48,0,1,1-2.48-2.48A2.48,2.48,0,0,1,93.36,876.85Z" transform="translate(-55.09 -226.3)"/><circle class="cls-5" cx="35.79" cy="550.8" r="2.48"/><circle class="cls-5" cx="190.41" cy="640.62" r="1.3"/><path class="cls-5" d="M231.8,809.19a1.7,1.7,0,1,1-1.7-1.69A1.7,1.7,0,0,1,231.8,809.19Z" transform="translate(-55.09 -226.3)"/><path class="cls-5" d="M224.54,792.59a2.15,2.15,0,1,1-2.15-2.15A2.16,2.16,0,0,1,224.54,792.59Z" transform="translate(-55.09 -226.3)"/><path class="cls-5" d="M236.39,791.51a1.08,1.08,0,1,1-2.15,0,1.08,1.08,0,0,1,2.15,0Z" transform="translate(-55.09 -226.3)"/><circle class="cls-5" cx="166.35" cy="600.27" r="1.21"/><circle class="cls-5" cx="196.52" cy="599.67" r="0.6"/><circle class="cls-5" cx="168.5" cy="623.35" r="0.94"/><path class="cls-5" d="M310.36,898.15a1,1,0,1,1-1-1A1,1,0,0,1,310.36,898.15Z" transform="translate(-55.09 -226.3)"/><circle class="cls-5" cx="327.31" cy="688.91" r="1.17"/><path class="cls-5" d="M369.41,968.24a1.38,1.38,0,1,1-1.38-1.38A1.38,1.38,0,0,1,369.41,968.24Z" transform="translate(-55.09 -226.3)"/><path class="cls-5" d="M516.46,796a1.25,1.25,0,1,1-1.25-1.25A1.25,1.25,0,0,1,516.46,796Z" transform="translate(-55.09 -226.3)"/><circle class="cls-5" cx="477.39" cy="554.54" r="1.26"/><path class="cls-5" d="M533.74,810.45a1.26,1.26,0,0,1-2.52,0,1.26,1.26,0,0,1,2.52,0Z" transform="translate(-55.09 -226.3)"/><path class="cls-5" d="M545.82,795.36a.63.63,0,1,1-.62-.62A.63.63,0,0,1,545.82,795.36Z" transform="translate(-55.09 -226.3)"/><path class="cls-5" d="M533.49,793.72a1.14,1.14,0,1,1-1.13-1.13A1.12,1.12,0,0,1,533.49,793.72Z" transform="translate(-55.09 -226.3)"/><path class="cls-5" d="M511.63,853.26A2.67,2.67,0,1,1,509,850.6,2.68,2.68,0,0,1,511.63,853.26Z" transform="translate(-55.09 -226.3)"/><circle class="cls-5" cx="534.73" cy="553.3" r="2.5"/><path class="cls-5" d="M592.32,838.87a1.25,1.25,0,1,1-1.25-1.25A1.25,1.25,0,0,1,592.32,838.87Z" transform="translate(-55.09 -226.3)"/><path class="cls-5" d="M558.52,863.87a1.75,1.75,0,1,1-1.75-1.75A1.75,1.75,0,0,1,558.52,863.87Z" transform="translate(-55.09 -226.3)"/><path class="cls-5" d="M574.84,812.85a1.14,1.14,0,1,1-1.14-1.14A1.14,1.14,0,0,1,574.84,812.85Z" transform="translate(-55.09 -226.3)"/><circle class="cls-5" cx="464.82" cy="625.25" r="0.95"/><circle class="cls-5" cx="470.2" cy="614.96" r="1.14"/><path class="cls-5" d="M1222.55,335.36a1.25,1.25,0,1,1-1.25-1.25A1.25,1.25,0,0,1,1222.55,335.36Z" transform="translate(-55.09 -226.3)"/><path class="cls-5" d="M1239.83,320.22a1.26,1.26,0,1,1-1.26-1.26A1.26,1.26,0,0,1,1239.83,320.22Z" transform="translate(-55.09 -226.3)"/><path class="cls-5" d="M1239.83,349.83a1.26,1.26,0,1,1-2.52,0,1.26,1.26,0,1,1,2.52,0Z" transform="translate(-55.09 -226.3)"/><circle class="cls-5" cx="1196.19" cy="108.44" r="0.63"/><path class="cls-5" d="M1239.58,333.1a1.14,1.14,0,1,1-1.13-1.14A1.14,1.14,0,0,1,1239.58,333.1Z" transform="translate(-55.09 -226.3)"/><path class="cls-5" d="M1217.72,392.64a2.67,2.67,0,1,1-2.67-2.67A2.67,2.67,0,0,1,1217.72,392.64Z" transform="translate(-55.09 -226.3)"/><path class="cls-5" d="M1298.41,319a2.5,2.5,0,1,1-2.5-2.5A2.5,2.5,0,0,1,1298.41,319Z" transform="translate(-55.09 -226.3)"/><path class="cls-5" d="M1298.41,378.25a1.25,1.25,0,1,1-1.25-1.25A1.25,1.25,0,0,1,1298.41,378.25Z" transform="translate(-55.09 -226.3)"/><path class="cls-5" d="M1264.61,403.25a1.75,1.75,0,1,1-1.75-1.75A1.75,1.75,0,0,1,1264.61,403.25Z" transform="translate(-55.09 -226.3)"/><path class="cls-5" d="M1280.93,352.23a1.14,1.14,0,1,1-1.14-1.14A1.14,1.14,0,0,1,1280.93,352.23Z" transform="translate(-55.09 -226.3)"/><path class="cls-5" d="M1227,390.92a.95.95,0,1,1-1.9,0,1,1,0,0,1,1.9,0Z" transform="translate(-55.09 -226.3)"/><circle class="cls-5" cx="1176.29" cy="154.34" r="1.14"/><circle class="cls-5" cx="107.41" cy="432.61" r="1.19"/><path class="cls-5" d="M117.16,639.63a1.26,1.26,0,1,1-1.26-1.25A1.26,1.26,0,0,1,117.16,639.63Z" transform="translate(-55.09 -226.3)"/><path class="cls-5" d="M140.55,625.47a1,1,0,1,1-1-1A1,1,0,0,1,140.55,625.47Z" transform="translate(-55.09 -226.3)"/><path class="cls-5" d="M142.06,656.47a1.25,1.25,0,1,1-1.25-1.25A1.25,1.25,0,0,1,142.06,656.47Z" transform="translate(-55.09 -226.3)"/><path class="cls-5" d="M135.11,642.13a1.25,1.25,0,1,1-1.25-1.25A1.25,1.25,0,0,1,135.11,642.13Z" transform="translate(-55.09 -226.3)"/><path class="cls-5" d="M660.16,782.54a3,3,0,1,1-3-3A3,3,0,0,1,660.16,782.54Z" transform="translate(-55.09 -226.3)"/><circle class="cls-5" cx="617.73" cy="524.24" r="2.9"/><path class="cls-5" d="M695.33,842.05a3.18,3.18,0,1,1-3.18-3.18A3.17,3.17,0,0,1,695.33,842.05Z" transform="translate(-55.09 -226.3)"/><circle class="cls-5" cx="691.7" cy="694.17" r="2.22"/><circle class="cls-5" cx="690.59" cy="628.07" r="1.11"/><path class="cls-5" d="M735.87,867.57a.65.65,0,1,1-.65-.65A.65.65,0,0,1,735.87,867.57Z" transform="translate(-55.09 -226.3)"/><path class="cls-5" d="M752.51,863.87a1.75,1.75,0,1,1-1.75-1.75A1.75,1.75,0,0,1,752.51,863.87Z" transform="translate(-55.09 -226.3)"/><path class="cls-5" d="M765.06,886.33a.83.83,0,1,1-.83-.82A.83.83,0,0,1,765.06,886.33Z" transform="translate(-55.09 -226.3)"/><circle class="cls-5" cx="700.84" cy="667.52" r="1.17"/><path class="cls-5" d="M901.94,938.82a.94.94,0,1,1-.94-.94A.94.94,0,0,1,901.94,938.82Z" transform="translate(-55.09 -226.3)"/><path class="cls-5" d="M856.67,935.54a1.35,1.35,0,1,1-1.34-1.34A1.34,1.34,0,0,1,856.67,935.54Z" transform="translate(-55.09 -226.3)"/><circle class="cls-5" cx="794.46" cy="730.3" r="1.19"/><path class="cls-5" d="M948.78,924.15a1.46,1.46,0,1,1-1.46-1.46A1.46,1.46,0,0,1,948.78,924.15Z" transform="translate(-55.09 -226.3)"/><circle class="cls-5" cx="859.14" cy="726.45" r="1.02"/><path class="cls-5" d="M896.58,926.7a1.09,1.09,0,1,1-2.17,0,1.09,1.09,0,0,1,2.17,0Z" transform="translate(-55.09 -226.3)"/><circle class="cls-5" cx="847.75" cy="696.01" r="1.84"/><path class="cls-5" d="M883.83,938.32a1.44,1.44,0,1,1-1.43-1.43A1.43,1.43,0,0,1,883.83,938.32Z" transform="translate(-55.09 -226.3)"/><circle class="cls-5" cx="854.79" cy="806.03" r="1.65"/><circle class="cls-5" cx="910.74" cy="782.47" r="2.91"/><path class="cls-5" d="M959.52,1082.71a1.4,1.4,0,1,1-1.4-1.4A1.41,1.41,0,0,1,959.52,1082.71Z" transform="translate(-55.09 -226.3)"/><path class="cls-5" d="M956.72,1055.31a1.36,1.36,0,1,1-1.36-1.36A1.36,1.36,0,0,1,956.72,1055.31Z" transform="translate(-55.09 -226.3)"/><circle class="cls-5" cx="876.33" cy="838.77" r="1.08"/><path class="cls-5" d="M945.86,1062.68a1,1,0,1,1-1-1A1,1,0,0,1,945.86,1062.68Z" transform="translate(-55.09 -226.3)"/><path class="cls-5" d="M408.85,1024.38a1.07,1.07,0,1,1-1.07-1.07A1.06,1.06,0,0,1,408.85,1024.38Z" transform="translate(-55.09 -226.3)"/><circle class="cls-5" cx="457.56" cy="744.76" r="1.44"/><path class="cls-5" d="M473.77,1062.85a1.14,1.14,0,1,1-1.14-1.14A1.14,1.14,0,0,1,473.77,1062.85Z" transform="translate(-55.09 -226.3)"/><path class="cls-5" d="M473.77,1053.37a.57.57,0,0,1-.57.57.56.56,0,0,1-.57-.57.57.57,0,0,1,.57-.57A.58.58,0,0,1,473.77,1053.37Z" transform="translate(-55.09 -226.3)"/><circle class="cls-5" cx="408.05" cy="824.37" r="2.12"/><path class="cls-5" d="M456,1062.85a1.14,1.14,0,1,1-1.14-1.14A1.14,1.14,0,0,1,456,1062.85Z" transform="translate(-55.09 -226.3)"/><path class="cls-5" d="M377.47,1045.07a1.67,1.67,0,1,1-1.67-1.66A1.67,1.67,0,0,1,377.47,1045.07Z" transform="translate(-55.09 -226.3)"/><path class="cls-5" d="M446.28,980.45a1.75,1.75,0,1,1-1.75-1.74A1.75,1.75,0,0,1,446.28,980.45Z" transform="translate(-55.09 -226.3)"/><circle class="cls-5" cx="356.28" cy="783.05" r="0.78"/><circle class="cls-5" cx="355.02" cy="775" r="1.26"/><path class="cls-5" d="M624.17,659.82a1.07,1.07,0,1,1-2.13,0,1.07,1.07,0,0,1,2.13,0Z" transform="translate(-55.09 -226.3)"/><circle class="cls-5" cx="672.88" cy="380.2" r="1.44"/><path class="cls-5" d="M689.09,698.3a1.14,1.14,0,1,1-1.14-1.15A1.14,1.14,0,0,1,689.09,698.3Z" transform="translate(-55.09 -226.3)"/><circle class="cls-5" cx="633.43" cy="462.52" r="0.57"/><circle class="cls-5" cx="623.37" cy="459.81" r="2.12"/><path class="cls-5" d="M671.36,698.3a1.14,1.14,0,1,1-1.14-1.15A1.14,1.14,0,0,1,671.36,698.3Z" transform="translate(-55.09 -226.3)"/><path class="cls-5" d="M661.6,615.9a1.75,1.75,0,1,1-1.75-1.75A1.74,1.74,0,0,1,661.6,615.9Z" transform="translate(-55.09 -226.3)"/><path class="cls-5" d="M627.47,644.79a.78.78,0,1,1-1.56,0,.78.78,0,0,1,1.56,0Z" transform="translate(-55.09 -226.3)"/><circle class="cls-5" cx="570.34" cy="410.44" r="1.26"/><circle class="cls-5" cx="360.64" cy="870.42" r="1.26"/><circle class="cls-5" cx="256.58" cy="412.49" r="3.35"/><path class="cls-5" d="M277.89,654.36a2.11,2.11,0,1,1-2.11-2.11A2.11,2.11,0,0,1,277.89,654.36Z" transform="translate(-55.09 -226.3)"/><path class="cls-5" d="M249.71,621.21a2.75,2.75,0,1,1-2.75-2.75A2.75,2.75,0,0,1,249.71,621.21Z" transform="translate(-55.09 -226.3)"/><circle class="cls-5" cx="169.82" cy="450.28" r="1.32"/><path class="cls-5" d="M240,652.48a.23.23,0,0,1-.24.23.23.23,0,1,1,0-.46A.23.23,0,0,1,240,652.48Z" transform="translate(-55.09 -226.3)"/><circle class="cls-5" cx="189.77" cy="417.74" r="0.65"/><circle class="cls-5" cx="198.59" cy="410.61" r="1.47"/><path class="cls-5" d="M768.36,430.42a3.31,3.31,0,1,1-3.3-3.3A3.3,3.3,0,0,1,768.36,430.42Z" transform="translate(-55.09 -226.3)"/><circle class="cls-5" cx="758.35" cy="215.71" r="2.46"/><circle class="cls-5" cx="758.35" cy="173.44" r="2.46"/><path class="cls-5" d="M592,425.23a.57.57,0,0,1-.57.56.57.57,0,0,1,0-1.13A.57.57,0,0,1,592,425.23Z" transform="translate(-55.09 -226.3)"/><path class="cls-5" d="M971.67,295a1.57,1.57,0,1,1-1.57-1.57A1.56,1.56,0,0,1,971.67,295Z" transform="translate(-55.09 -226.3)"/><path class="cls-5" d="M816.18,327.68a1.37,1.37,0,1,1-1.37-1.37A1.37,1.37,0,0,1,816.18,327.68Z" transform="translate(-55.09 -226.3)"/><circle class="cls-5" cx="694.23" cy="262.32" r="2.48"/><circle class="cls-5" cx="694.23" cy="162.57" r="2.48"/><circle class="cls-5" cx="848.85" cy="252.39" r="1.3"/><path class="cls-5" d="M640.9,409.62a1.7,1.7,0,1,1-1.7-1.7A1.7,1.7,0,0,1,640.9,409.62Z" transform="translate(-55.09 -226.3)"/><path class="cls-5" d="M633.63,393a2.15,2.15,0,1,1-2.15-2.15A2.15,2.15,0,0,1,633.63,393Z" transform="translate(-55.09 -226.3)"/><path class="cls-5" d="M645.48,391.93a1.07,1.07,0,1,1-1.07-1.07A1.07,1.07,0,0,1,645.48,391.93Z" transform="translate(-55.09 -226.3)"/><path class="cls-5" d="M631.75,427a1.21,1.21,0,1,1-1.21-1.21A1.21,1.21,0,0,1,631.75,427Z" transform="translate(-55.09 -226.3)"/><path class="cls-5" d="M661.31,426.39a.6.6,0,1,1-.6-.6A.6.6,0,0,1,661.31,426.39Z" transform="translate(-55.09 -226.3)"/><circle class="cls-5" cx="826.94" cy="235.12" r="0.94"/><path class="cls-5" d="M968.8,509.91a1,1,0,1,1-1-1A1,1,0,0,1,968.8,509.91Z" transform="translate(-55.09 -226.3)"/><circle class="cls-5" cx="985.75" cy="300.68" r="1.17"/><circle class="cls-5" cx="1005.81" cy="60.73" r="3.35"/><path class="cls-5" d="M936.33,266.13a2.11,2.11,0,1,1-2.11-2.11A2.11,2.11,0,0,1,936.33,266.13Z" transform="translate(-55.09 -226.3)"/><circle class="cls-5" cx="828.25" cy="62.05" r="1.32"/><path class="cls-5" d="M898.44,264.25a.23.23,0,1,1-.23-.23A.23.23,0,0,1,898.44,264.25Z" transform="translate(-55.09 -226.3)"/><circle class="cls-5" cx="739.81" cy="68.3" r="0.65"/><path class="cls-5" d="M821.16,279.42a1.47,1.47,0,1,1-1.47-1.47A1.47,1.47,0,0,1,821.16,279.42Z" transform="translate(-55.09 -226.3)"/><circle class="cls-5" cx="138.3" cy="315.75" r="3.16"/><circle class="cls-5" cx="147.94" cy="324.39" r="1.1"/><path class="cls-5" d="M217.07,543.63a1.59,1.59,0,1,0,1.59-1.58A1.59,1.59,0,0,0,217.07,543.63Z" transform="translate(-55.09 -226.3)"/><circle class="cls-5" cx="164.96" cy="305.81" r="1.39"/><circle class="cls-5" cx="173.07" cy="262.27" r="1.94"/><circle class="cls-5" cx="149.87" cy="262.27" r="1.94"/><path class="cls-5" d="M163.69,514.3a3,3,0,1,1-3-3A3,3,0,0,1,163.69,514.3Z" transform="translate(-55.09 -226.3)"/><circle class="cls-5" cx="295.94" cy="248.77" r="0.21"/><path class="cls-5" d="M324.39,477.62a2.76,2.76,0,1,1-2.75-2.76A2.75,2.75,0,0,1,324.39,477.62Z" transform="translate(-55.09 -226.3)"/><path class="cls-5" d="M272.47,484.13a2.5,2.5,0,1,1-2.5-2.51A2.5,2.5,0,0,1,272.47,484.13Z" transform="translate(-55.09 -226.3)"/><path class="cls-5" d="M478,488.57a1.94,1.94,0,1,1-1.94-1.94A1.94,1.94,0,0,1,478,488.57Z" transform="translate(-55.09 -226.3)"/><circle class="cls-5" cx="302.96" cy="249.94" r="1.38"/><circle class="cls-5" cx="279.63" cy="249.94" r="1.38"/><circle class="cls-5" cx="271.51" cy="341.49" r="2.2"/><circle class="cls-5" cx="282.5" cy="289.48" r="1.49"/><circle class="cls-5" cx="125.16" cy="209.37" r="2.63"/><path class="cls-5" d="M187,476.94a2.08,2.08,0,1,1-2.08-2.08A2.08,2.08,0,0,1,187,476.94Z" transform="translate(-55.09 -226.3)"/><path class="cls-5" d="M207.81,468.31a.45.45,0,0,1-.45.45.45.45,0,1,1,0-.9A.45.45,0,0,1,207.81,468.31Z" transform="translate(-55.09 -226.3)"/><path class="cls-5" d="M211.09,462.34a.63.63,0,0,1-.63.63.63.63,0,0,1,0-1.26A.63.63,0,0,1,211.09,462.34Z" transform="translate(-55.09 -226.3)"/><path class="cls-5" d="M106.22,512.19a.87.87,0,1,1-.87-.87A.87.87,0,0,1,106.22,512.19Z" transform="translate(-55.09 -226.3)"/><circle class="cls-5" cx="189.44" cy="227.72" r="0.61"/><path class="cls-5" d="M94.46,575.31a3,3,0,1,1-3-3A3,3,0,0,1,94.46,575.31Z" transform="translate(-55.09 -226.3)"/><path class="cls-5" d="M876.31,545a1.38,1.38,0,1,0,1.38-1.38A1.38,1.38,0,0,0,876.31,545Z" transform="translate(-55.09 -226.3)"/><path class="cls-5" d="M740.29,563a2.86,2.86,0,1,1-2.86-2.86A2.86,2.86,0,0,1,740.29,563Z" transform="translate(-55.09 -226.3)"/><path class="cls-5" d="M1078.62,406.39a3.14,3.14,0,1,1-3.13-3.14A3.14,3.14,0,0,1,1078.62,406.39Z" transform="translate(-55.09 -226.3)"/><circle class="cls-5" cx="1038.84" cy="166.27" r="2.59"/><path class="cls-5" d="M1064.25,447.82a3.35,3.35,0,1,1-3.35-3.34A3.35,3.35,0,0,1,1064.25,447.82Z" transform="translate(-55.09 -226.3)"/><path class="cls-5" d="M1098.76,426.45a.66.66,0,1,1-.66-.66A.66.66,0,0,1,1098.76,426.45Z" transform="translate(-55.09 -226.3)"/><path class="cls-5" d="M1102.32,414.31a2.44,2.44,0,1,1-2.44-2.44A2.45,2.45,0,0,1,1102.32,414.31Z" transform="translate(-55.09 -226.3)"/><circle class="cls-5" cx="1062.79" cy="184.4" r="1.17"/><path class="cls-5" d="M1124.88,398.51a1.23,1.23,0,1,1-1.23-1.24A1.23,1.23,0,0,1,1124.88,398.51Z" transform="translate(-55.09 -226.3)"/><path class="cls-5" d="M1085.09,401.15a1,1,0,1,1-1-1A1,1,0,0,1,1085.09,401.15Z" transform="translate(-55.09 -226.3)"/><path class="cls-5" d="M1170.35,317.72a1.24,1.24,0,1,1-1.24-1.24A1.24,1.24,0,0,1,1170.35,317.72Z" transform="translate(-55.09 -226.3)"/><path class="cls-5" d="M1075.3,314.88a1.48,1.48,0,1,1-1.48-1.48A1.48,1.48,0,0,1,1075.3,314.88Z" transform="translate(-55.09 -226.3)"/><path class="cls-5" d="M1106,349.2a.63.63,0,1,1-.62-.63A.62.62,0,0,1,1106,349.2Z" transform="translate(-55.09 -226.3)"/><path class="cls-5" d="M1114.29,328.36a.69.69,0,1,1-.68-.68A.68.68,0,0,1,1114.29,328.36Z" transform="translate(-55.09 -226.3)"/><circle class="cls-5" cx="1261.16" cy="321.96" r="1.87"/><path class="cls-5" d="M1319.63,538.9a.76.76,0,1,1-.76-.75A.76.76,0,0,1,1319.63,538.9Z" transform="translate(-55.09 -226.3)"/><path class="cls-5" d="M1283.87,553.3a1.47,1.47,0,1,1-1.47-1.47A1.47,1.47,0,0,1,1283.87,553.3Z" transform="translate(-55.09 -226.3)"/><path class="cls-5" d="M1318.13,606.83a2.89,2.89,0,1,1-2.89-2.89A2.89,2.89,0,0,1,1318.13,606.83Z" transform="translate(-55.09 -226.3)"/><circle class="cls-5" cx="1158.59" cy="487.78" r="1.32"/><path class="cls-5" d="M1229.09,702.57a1.22,1.22,0,1,1-1.21-1.21A1.21,1.21,0,0,1,1229.09,702.57Z" transform="translate(-55.09 -226.3)"/><path class="cls-5" d="M1134.47,665.7a3.07,3.07,0,1,1-3.07-3.06A3.07,3.07,0,0,1,1134.47,665.7Z" transform="translate(-55.09 -226.3)"/><circle class="cls-5" cx="1067.92" cy="497.01" r="0.59"/><path class="cls-5" d="M1132.91,713.42a.66.66,0,1,1-1.32,0,.66.66,0,1,1,1.32,0Z" transform="translate(-55.09 -226.3)"/><circle class="cls-5" cx="1080.09" cy="480.65" r="0.71"/><path class="cls-5" d="M1083,724a1.3,1.3,0,1,1-1.3-1.3A1.3,1.3,0,0,1,1083,724Z" transform="translate(-55.09 -226.3)"/><path class="cls-5" d="M1090.06,749.12a1.48,1.48,0,1,1-1.48-1.48A1.48,1.48,0,0,1,1090.06,749.12Z" transform="translate(-55.09 -226.3)"/><circle class="cls-5" cx="1044.29" cy="471.42" r="1.28"/><path class="cls-5" d="M1017.3,601a2.69,2.69,0,1,1-2.68-2.68A2.68,2.68,0,0,1,1017.3,601Z" transform="translate(-55.09 -226.3)"/><circle class="cls-5" cx="985.17" cy="374.49" r="0.58"/><path class="cls-5" d="M1033.55,631.12a.86.86,0,1,1-.86-.86A.86.86,0,0,1,1033.55,631.12Z" transform="translate(-55.09 -226.3)"/><path class="cls-5" d="M85.79,286a2.33,2.33,0,1,1-2.33-2.33A2.33,2.33,0,0,1,85.79,286Z" transform="translate(-55.09 -226.3)"/><path class="cls-5" d="M85.69,318.76a2.28,2.28,0,1,1-2.28-2.28A2.28,2.28,0,0,1,85.69,318.76Z" transform="translate(-55.09 -226.3)"/><circle class="cls-5" cx="52.23" cy="74.63" r="2.84"/><path class="cls-5" d="M110.17,366.48a2.85,2.85,0,1,1-2.84-2.84A2.84,2.84,0,0,1,110.17,366.48Z" transform="translate(-55.09 -226.3)"/><path class="cls-5" d="M95,388.18a1.79,1.79,0,1,1-1.79-1.79A1.79,1.79,0,0,1,95,388.18Z" transform="translate(-55.09 -226.3)"/><path class="cls-5" d="M511.21,374.29a2.46,2.46,0,1,1-2.46-2.46A2.46,2.46,0,0,1,511.21,374.29Z" transform="translate(-55.09 -226.3)"/><path class="cls-5" d="M519,417.23a.49.49,0,0,0,.48.48.48.48,0,0,0,.47-.48.47.47,0,0,0-.47-.47A.48.48,0,0,0,519,417.23Z" transform="translate(-55.09 -226.3)"/><path class="cls-5" d="M529.14,454.77a1.35,1.35,0,1,1-1.35-1.35A1.36,1.36,0,0,1,529.14,454.77Z" transform="translate(-55.09 -226.3)"/><path class="cls-5" d="M483.45,431a2.75,2.75,0,1,1-2.75-2.75A2.76,2.76,0,0,1,483.45,431Z" transform="translate(-55.09 -226.3)"/><path class="cls-5" d="M555,270.68a5.23,5.23,0,1,1-5.22-5.22A5.23,5.23,0,0,1,555,270.68Z" transform="translate(-55.09 -226.3)"/><circle class="cls-5" cx="695.31" cy="89.21" r="1.39"/><path class="cls-5" d="M1323.71,458.91a2.8,2.8,0,1,1-2.8-2.79A2.8,2.8,0,0,1,1323.71,458.91Z" transform="translate(-55.09 -226.3)"/><path class="cls-5" d="M835.61,575.82a2.19,2.19,0,1,1-2.19-2.19A2.19,2.19,0,0,1,835.61,575.82Z" transform="translate(-55.09 -226.3)"/><path class="cls-5" d="M1128.42,483.82a4.66,4.66,0,0,1-.35,1.8,4.81,4.81,0,1,1-5.64-6.44,4.47,4.47,0,0,1,1.17-.16A4.81,4.81,0,0,1,1128.42,483.82Z" transform="translate(-55.09 -226.3)"/><path class="cls-6" d="M1128.07,485.62a4.81,4.81,0,1,1-5.64-6.44l-.12.29a4,4,0,0,0,.51,3.58,6,6,0,0,0,3.37,2.14C1126.79,485.36,1127.44,485.5,1128.07,485.62Z" transform="translate(-55.09 -226.3)"/><path class="cls-5" d="M1232.93,609.81a4.43,4.43,0,0,1,.8,1.65,4.81,4.81,0,1,1-8.38-1.73,4.45,4.45,0,0,1,.84-.84A4.82,4.82,0,0,1,1232.93,609.81Z" transform="translate(-55.09 -226.3)"/><path class="cls-6" d="M1233.73,611.46a4.81,4.81,0,1,1-8.38-1.73c0,.1.06.2.08.3a4.07,4.07,0,0,0,2.57,2.55,5.94,5.94,0,0,0,4-.33C1232.56,612,1233.16,611.74,1233.73,611.46Z" transform="translate(-55.09 -226.3)"/><path class="cls-5" d="M230.42,711.46c-1,6.61-1.1,9.41-10.18,10.48,9.15,1.66,9.22,3.5,10.27,11.59,1.18-7.88,2.14-10.5,10.1-12C233.93,720.42,231.79,718.08,230.42,711.46Z" transform="translate(-55.09 -226.3)"/><path class="cls-5" d="M1227.87,456.82c-1,6.62-1.09,9.41-10.18,10.48,9.15,1.66,9.22,3.51,10.27,11.59,1.18-7.87,2.14-10.5,10.1-12C1231.39,465.78,1229.24,463.45,1227.87,456.82Z" transform="translate(-55.09 -226.3)"/><path class="cls-5" d="M680.57,884c-1,6.62-1.09,9.41-10.18,10.48,9.16,1.66,9.22,3.5,10.27,11.59,1.19-7.87,2.15-10.5,10.11-12C684.09,892.92,682,890.59,680.57,884Z" transform="translate(-55.09 -226.3)"/><path class="cls-5" d="M752.5,276c-1,6.62-1.09,9.42-10.18,10.48,9.16,1.66,9.22,3.51,10.27,11.6,1.19-7.88,2.14-10.51,10.11-12C756,285,753.87,282.62,752.5,276Z" transform="translate(-55.09 -226.3)"/></g></g></svg>