<svg width="1433" height="648" viewBox="0 0 1433 648" fill="none" xmlns="http://www.w3.org/2000/svg">
<g clip-path="url(#clip0)">
<path d="M1.02739 86.6601C0.693487 57.8933 0.333901 29.1264 0 0.359586C476.374 0.231162 952.748 0.128423 1429.1 0C1437.37 28.8439 1431.41 47.979 1421.39 61.0525C1393.29 97.7302 1333.39 86.4033 1298.1 126.035C1273.24 153.954 1294.33 169.288 1269.85 192.995C1232.94 228.722 1172.2 199.596 1126.02 230.417C1071.1 267.044 1114.54 334.62 1061.8 360.408C1021.25 380.236 973.064 351.212 946.224 374.2C926.087 391.46 948.895 411.546 925.676 445.09C921.978 450.432 901.07 480.638 864.033 486.442C832.21 491.425 809.71 475.09 797.253 484.465C791.422 488.857 792.45 498.617 794.684 517.932C795.994 529.284 797.612 543.103 802.39 557.306C816.927 600.585 858.408 640.217 866.601 647.896C738.923 589.952 689.814 529.541 668.829 484.439C652.519 449.379 645.276 406.614 596.912 364.312C563.085 334.723 523.993 318.31 496.742 309.167C427.83 291.11 394.003 315.331 352.908 295.374C293.576 266.556 329.843 199.39 278.422 175.247C217.421 146.583 128.372 223.251 60.1022 196.899C16.6694 180.178 4.10955 130.375 1.02739 86.6601Z" fill="#F5A966"/>
</g>
<defs>
<clipPath id="clip0">
<rect width="1433" height="647.922" fill="white"/>
</clipPath>
</defs>
</svg>
